<?xml version="1.0" encoding="utf-8"?>
<!-- Generator: Adobe Illustrator 24.3.0, SVG Export Plug-In . SVG Version: 6.00 Build 0)  -->
<svg version="1.1" id="Layer_1" xmlns="http://www.w3.org/2000/svg" xmlns:xlink="http://www.w3.org/1999/xlink" x="0px" y="0px"
	 viewBox="0 0 32 32" style="enable-background:new 0 0 32 32;" xml:space="preserve">
<style type="text/css">
	.st0{fill:#FFFFFF;}
</style>
<g>
	<path class="st0" d="M2,9.3c0.4-0.3,0.8-0.6,1.3-0.7c1.6-0.4,3.1,0.8,3.2,2.4c0,0.2,0.1,0.3,0.3,0.3c1.1,0.4,4.2,1,5.3,1.4
		c0.1,0,0.2,0.1,0.3,0.1c-0.1,0.4-0.3,0.8-0.4,1.2c-0.7-0.2-3.2-0.7-3.9-0.9c-0.7-0.2-1.3-0.4-2-0.7c-0.3,0.4-0.7,0.8-1.2,1
		C4,13.8,3,13.6,2.3,13c-0.9-0.7-1.1-1.7-0.8-2.8c0.1-0.2,0.1-0.3,0.2-0.5C1.8,9.6,1.9,9.4,2,9.3z"/>
	<path class="st0" d="M13.2,15.9c0-2.5,2-4.4,4.5-4.4c2.4,0,4.4,2,4.4,4.4c0,2.4-2,4.4-4.4,4.4C15.1,20.4,13.1,18.4,13.2,15.9z"/>
	<path class="st0" d="M20,10.6c0.7-1.2,1.4-2.4,2.2-3.6c0.1-0.2,0.1-0.3,0-0.4c-0.7-0.8-0.8-2-0.2-3c0.5-0.9,1.6-1.4,2.7-1.2
		c1,0.2,1.9,1.1,2,2.1c0.3,1.8-1.2,3.3-3,3c-0.2,0-0.3,0-0.3,0.2c-0.7,1.1-1.3,2.3-2,3.4c-0.1,0.1-0.1,0.2-0.2,0.3
		C20.7,11,20.4,10.8,20,10.6z"/>
	<path class="st0" d="M23.4,17.2c0-0.4,0.1-0.8,0.1-1.3c0.5,0,1,0.1,1.5,0.1c0.5,0,1,0.1,1.5,0.1c0.2,0,0.2,0,0.3-0.2
		c0.5-1,1.3-1.5,2.3-1.5c1.1,0,1.9,0.5,2.4,1.5c0.8,1.5-0.4,3.5-2.1,3.6c-1.3,0.1-2.4-0.6-2.7-1.9c-0.1-0.2-0.2-0.2-0.3-0.2
		c-0.9-0.1-1.8-0.2-2.8-0.3C23.5,17.2,23.4,17.2,23.4,17.2z"/>
	<path class="st0" d="M15.7,21.7c0.4,0.1,0.8,0.1,1.3,0.2c-0.1,1.1-0.3,2.1-0.4,3.2c0.6,0.3,1,0.7,1.3,1.2c0.5,0.9,0.3,2.2-0.4,2.9
		c-0.8,0.8-2,1-3,0.5c-1-0.5-1.6-1.5-1.4-2.7c0.1-1.1,0.9-1.9,2-2.1c0.2,0,0.2-0.1,0.2-0.3c0.1-0.9,0.2-1.8,0.4-2.8
		C15.7,21.8,15.7,21.8,15.7,21.7z"/>
</g>
</svg>
