<svg width="18" height="18" viewBox="0 0 18 18" fill="none" xmlns="http://www.w3.org/2000/svg">
    <g clip-path="url(#d2mcy91k5a)">
        <path d="M9.007 0C4.042 0 0 4.042 0 9.007c0 4.964 4.042 9.006 9.007 9.006 4.964 0 9.006-4.042 9.006-9.007C18.013 4.043 13.958 0 9.006 0zm0 1.56a7.39 7.39 0 0 1 4.678 1.663L3.223 13.685A7.39 7.39 0 0 1 1.56 9.007C1.56 4.9 4.9 1.56 9.007 1.56zm0 14.88a7.39 7.39 0 0 1-4.68-1.663L14.79 4.315a7.39 7.39 0 0 1 1.663 4.678C16.44 13.1 13.1 16.44 9.007 16.44z" fill="currentColor"/>
    </g>
    <defs>
        <clipPath id="d2mcy91k5a">
            <path fill="currentColor" d="M0 0h18v18H0z"/>
        </clipPath>
    </defs>
</svg>
