<svg width="18" height="18" viewBox="0 0 18 18" fill="none" xmlns="http://www.w3.org/2000/svg">
    <g clip-path="url(#wiimytt1ua)" fill="currentColor">
        <path d="M8.136 12.84a.727.727 0 0 1-.546-.233L4.6 9.617a.793.793 0 0 1 0-1.104.793.793 0 0 1 1.105 0l2.353 2.365 4.172-5.42a.783.783 0 0 1 1.091-.142c.338.26.403.753.143 1.091L8.76 12.541a.76.76 0 0 1-.572.3h-.052z"/>
        <path d="M9.007 18C4.042 18 0 13.958 0 9.007 0 4.055 4.042 0 9.007 0c4.964 0 9.006 4.042 9.006 9.007 0 4.964-4.055 8.993-9.007 8.993zm0-16.44C4.9 1.56 1.56 4.9 1.56 9.007c0 4.106 3.34 7.446 7.447 7.446 4.106 0 7.446-3.34 7.446-7.446 0-4.107-3.353-7.447-7.446-7.447z"/>
    </g>
    <defs>
        <clipPath id="wiimytt1ua">
            <path fill="currentColor" d="M0 0h18v18H0z"/>
        </clipPath>
    </defs>
</svg>
