<svg width="20" height="23" viewBox="0 0 20 23" fill="none" xmlns="http://www.w3.org/2000/svg">
    <path d="M3.459 16.657a10.896 10.896 0 0 1-.173-5.683c-.601-.205-1.193-.419-1.795-.613-.384-.125-.616-.359-.715-.767-.222-.882-.483-1.753-.715-2.63-.044-.164-.07-.349-.044-.513.049-.309.315-.513.63-.528.346-.015.598.155.701.503.197.658.414 1.31.553 1.983.103.498.32.796.833.901.335.07.651.22.977.329.014.005.03.005.039.005.227-.419.444-.832.68-1.235a.338.338 0 0 1 .247-.145c1.41-.01 2.826-.005 4.237-.005.049 0 .098.01.162.02v13.727c-2.45-.393-4.01-1.893-5.109-4.03-.607.205-1.213.409-1.81.623-.064.025-.118.13-.143.21-.232.801-.459 1.603-.686 2.405-.128.438-.434.652-.789.558-.4-.105-.626-.503-.508-.931.262-.982.533-1.963.8-2.944a.707.707 0 0 1 .502-.528c.696-.23 1.391-.468 2.126-.712zM10.467 8.214h2.284c.64 0 1.282.005 1.923-.005.143 0 .227.045.291.165.217.408.439.811.67 1.24.509-.165 1.027-.329 1.544-.513.074-.025.134-.155.163-.25.227-.776.44-1.558.661-2.335.143-.503.547-.727.972-.543.325.14.483.468.384.847-.266.996-.547 1.992-.818 2.988-.074.264-.257.414-.503.498-.637.214-1.273.434-1.934.663.498 1.917.395 3.82-.143 5.717.651.22 1.273.439 1.904.638.395.124.636.359.745.772.241.916.518 1.828.769 2.744.123.434-.079.782-.503.897-.31.085-.67-.144-.78-.523-.231-.802-.463-1.604-.675-2.41-.05-.18-.138-.255-.3-.304-.538-.17-1.076-.354-1.633-.538-1.07 2.087-2.594 3.596-5.016 4.004-.005-4.587-.005-9.155-.005-13.752zM13.564 2.98c.982 1.14 1.268 2.43.957 3.894H5.28c-.35 0-.35 0-.405-.363-.177-1.235.104-2.351.893-3.327.03-.04.06-.08.113-.155-.31-.229-.601-.488-.932-.677A39.075 39.075 0 0 0 3.03 1.346c-.34-.17-.528-.473-.459-.787.094-.428.513-.668.927-.508 1.05.413 2.042.946 2.935 1.648l.503.404c.542-.234 1.06-.453 1.578-.677.863-.369 1.726-.32 2.575.04.399.169.798.348 1.183.542.133.07.217.085.34-.025.952-.836 2.052-1.424 3.206-1.917.38-.165.784-.01.932.343.158.369-.01.758-.414.927-.898.373-1.746.842-2.52 1.434-.074.065-.153.13-.252.21z" fill="#AEAFB4"/>
</svg>
