<svg width="20" height="23" viewBox="0 0 20 23" fill="none" xmlns="http://www.w3.org/2000/svg">
<path d="M3.46218 16.6567C2.89995 14.769 2.8457 12.8862 3.28956 10.9736C2.68788 10.7694 2.09606 10.5553 1.49437 10.361C1.10968 10.2365 0.877888 10.0024 0.779251 9.59397C0.557317 8.71237 0.295929 7.84074 0.0641324 6.96413C0.0197457 6.79976 -0.00491356 6.61547 0.0197457 6.45111C0.0690642 6.1423 0.335384 5.93809 0.651023 5.92315C0.996252 5.90821 1.24778 6.07755 1.35135 6.42621C1.54862 7.08367 1.76562 7.73614 1.90371 8.40855C2.00728 8.90662 2.22428 9.20547 2.7372 9.31006C3.07256 9.37979 3.3882 9.52922 3.7137 9.63879C3.7285 9.64377 3.74329 9.64377 3.75316 9.64377C3.98002 9.22539 4.19702 8.81199 4.43375 8.40855C4.47814 8.33383 4.5965 8.2641 4.68035 8.2641C6.09085 8.25414 7.5063 8.25912 8.91681 8.25912C8.96612 8.25912 9.01544 8.26908 9.07956 8.27905C9.07956 12.8414 9.07956 17.3988 9.07956 22.006C6.62843 21.6125 5.06996 20.1133 3.97016 17.9766C3.36354 18.1808 2.75692 18.385 2.16017 18.5992C2.09605 18.6241 2.0418 18.7287 2.01715 18.8084C1.78535 19.6103 1.55848 20.4122 1.33162 21.2141C1.20339 21.6524 0.897615 21.8665 0.542522 21.7719C0.143042 21.6673 -0.0838232 21.2689 0.0345412 20.8405C0.295929 19.8593 0.567181 18.8781 0.833501 17.8969C0.907479 17.6279 1.0653 17.4536 1.33655 17.3689C2.03194 17.1398 2.72733 16.9007 3.46218 16.6567Z" fill="white"/>
<path d="M10.4703 8.21421C11.2446 8.21421 11.9992 8.21421 12.7538 8.21421C13.3949 8.21421 14.0361 8.2192 14.6772 8.20923C14.8202 8.20923 14.9041 8.25406 14.9682 8.3736C15.1852 8.78202 15.4071 9.18546 15.6389 9.61381C16.1469 9.44944 16.6647 9.28508 17.1826 9.10079C17.2566 9.07588 17.3157 8.94639 17.3453 8.85175C17.5722 8.07475 17.7843 7.29277 18.0062 6.51578C18.1492 6.01272 18.5536 5.78859 18.9778 5.97287C19.3033 6.11234 19.4611 6.44107 19.3625 6.8196C19.0961 7.81575 18.815 8.8119 18.5438 9.80806C18.4698 10.072 18.2873 10.2215 18.0407 10.3061C17.4045 10.5203 16.7683 10.7395 16.1074 10.9686C16.6056 12.8862 16.502 14.7888 15.9644 16.6865C16.6154 16.9056 17.2368 17.1248 17.8681 17.324C18.2627 17.4485 18.5043 17.6826 18.6128 18.096C18.8545 19.0125 19.1307 19.924 19.3822 20.8404C19.5055 21.2738 19.3033 21.6224 18.8791 21.737C18.5684 21.8216 18.2084 21.5925 18.0999 21.214C17.8681 20.4121 17.6363 19.6102 17.4242 18.8033C17.3749 18.624 17.2861 18.5493 17.1234 18.4995C16.5858 18.3301 16.0483 18.1458 15.491 17.9616C14.4207 20.0485 12.8968 21.5577 10.4753 21.9661C10.4703 17.3788 10.4703 12.8115 10.4703 8.21421Z" fill="white"/>
<path d="M13.5675 2.97952C14.5489 4.12011 14.835 5.41013 14.5243 6.87447C14.4108 6.87447 14.3073 6.87447 14.2037 6.87447C11.2298 6.87447 8.25588 6.87447 5.28197 6.87447C4.93181 6.87447 4.93181 6.87447 4.87756 6.51088C4.70001 5.27565 4.98113 4.15996 5.77023 3.18373C5.79982 3.14388 5.82941 3.10404 5.88366 3.02933C5.57295 2.80021 5.28197 2.54121 4.95154 2.35194C4.32519 1.99333 3.67912 1.66958 3.03305 1.34583C2.69275 1.17649 2.50534 0.872659 2.57439 0.558871C2.66809 0.130526 3.0873 -0.10855 3.50157 0.0508339C4.55206 0.464237 5.54336 0.997178 6.43603 1.69946C6.6185 1.84391 6.79605 1.98835 6.93907 2.10291C7.48158 1.86881 7.99942 1.64966 8.51727 1.42552C9.38034 1.05695 10.2434 1.10675 11.0917 1.46537C11.4912 1.63472 11.8907 1.81402 12.2753 2.00827C12.4085 2.078 12.4923 2.09294 12.6156 1.98337C13.5675 1.1466 14.6673 0.558871 15.8213 0.0657762C16.2011 -0.0985888 16.6055 0.0558147 16.7535 0.409449C16.9113 0.778025 16.7436 1.16652 16.3392 1.33587C15.4416 1.70943 14.5933 2.17762 13.819 2.77033C13.745 2.83508 13.6661 2.89983 13.5675 2.97952Z" fill="white"/>
</svg>
