<svg width="20" height="23" viewBox="0 0 20 23" fill="none" xmlns="http://www.w3.org/2000/svg">
    <path d="M3.462 16.657a10.896 10.896 0 0 1-.172-5.683c-.602-.205-1.194-.419-1.796-.613-.384-.125-.616-.359-.715-.767-.222-.882-.483-1.753-.715-2.63a1.298 1.298 0 0 1-.044-.513c.05-.309.315-.513.631-.528.345-.015.597.155.7.503.198.658.415 1.31.553 1.983.103.498.32.796.833.901.336.07.651.22.977.329.014.005.03.005.04.005.226-.419.443-.832.68-1.235a.338.338 0 0 1 .246-.145c1.41-.01 2.826-.005 4.237-.005.05 0 .098.01.163.02v13.727c-2.452-.393-4.01-1.893-5.11-4.03-.606.205-1.213.409-1.81.623-.064.025-.118.13-.143.21-.232.801-.459 1.603-.685 2.405-.129.438-.434.652-.79.558-.399-.105-.626-.503-.507-.931.26-.982.532-1.963.799-2.944a.707.707 0 0 1 .503-.528c.695-.23 1.39-.468 2.125-.712zM10.47 8.214h2.284c.64 0 1.282.005 1.923-.005.143 0 .227.045.291.165.217.408.44.811.67 1.24.509-.165 1.027-.329 1.545-.513.074-.025.133-.155.162-.25.227-.776.44-1.558.661-2.335.143-.503.548-.727.972-.543.325.14.483.468.384.847-.266.996-.547 1.992-.818 2.988-.074.264-.257.414-.503.498-.637.214-1.273.434-1.934.663.499 1.917.395 3.82-.143 5.717.651.22 1.273.439 1.904.638.395.124.636.359.745.772.242.916.518 1.828.77 2.744.123.434-.08.782-.504.897-.31.085-.67-.144-.78-.523-.23-.802-.463-1.604-.675-2.41-.05-.18-.138-.255-.3-.304-.538-.17-1.076-.354-1.633-.538-1.07 2.087-2.594 3.596-5.016 4.004-.005-4.587-.005-9.155-.005-13.752zM13.568 2.98c.98 1.14 1.267 2.43.956 3.894H5.282c-.35 0-.35 0-.404-.363-.178-1.235.103-2.351.892-3.327l.114-.155c-.311-.229-.602-.488-.932-.677a39.084 39.084 0 0 0-1.919-1.006c-.34-.17-.528-.473-.459-.787.094-.428.513-.668.928-.508 1.05.413 2.041.946 2.934 1.648.183.145.36.29.503.404.543-.234 1.06-.453 1.578-.677.863-.369 1.726-.32 2.575.04.4.169.799.348 1.183.542.133.07.217.085.34-.025.953-.836 2.052-1.424 3.206-1.917.38-.165.784-.01.932.343.158.369-.01.758-.414.927-.897.373-1.746.842-2.52 1.434-.074.065-.153.13-.252.21z" fill="#fff"/>
</svg>
