<svg width="24" height="23" viewBox="0 0 24 23" fill="none" xmlns="http://www.w3.org/2000/svg">
<path d="M11.5504 0C11.9466 0.0144585 12.2415 0.173502 12.4237 0.540747C13.4098 2.54469 14.4045 4.54574 15.3906 6.54968C15.434 6.63933 15.486 6.68559 15.5901 6.70005C16.8249 6.87645 18.0596 7.05573 19.2944 7.23502C20.3007 7.3796 21.307 7.52129 22.3104 7.67455C22.6777 7.7295 22.935 7.94348 23.0536 8.29916C23.1779 8.67508 23.0854 9.00473 22.8078 9.27944C22.1196 9.95321 21.4284 10.6241 20.7373 11.2978C19.8091 12.2029 18.8809 13.108 17.9497 14.0103C17.8861 14.071 17.8717 14.1288 17.8861 14.2127C18.2678 16.419 18.6466 18.6254 19.0283 20.8318C19.0977 21.2308 19.0023 21.5749 18.6669 21.8178C18.3343 22.0607 17.9787 22.0492 17.6172 21.8612C15.6479 20.826 13.6758 19.7907 11.7095 18.7526C11.5909 18.689 11.5042 18.6977 11.3943 18.7584C9.42214 19.7965 7.44711 20.8318 5.47208 21.8699C4.83013 22.2053 4.11877 21.841 4.06672 21.1296C4.05226 20.9127 4.1101 20.6901 4.14769 20.4732C4.50626 18.3796 4.86483 16.2889 5.22918 14.1953C5.24653 14.0999 5.20316 14.0536 5.14532 13.9987C4.18817 13.0676 3.23102 12.1364 2.27676 11.2053C1.63192 10.5778 0.987069 9.94453 0.33933 9.31993C0.044377 9.03654 -0.0770741 8.704 0.0501604 8.31362C0.177395 7.92035 0.469456 7.72371 0.874293 7.66588C3.07198 7.35068 5.26677 7.02971 7.46446 6.71451C7.60326 6.69427 7.67844 6.64222 7.73917 6.51498C8.71367 4.52261 9.69974 2.53891 10.6742 0.549422C10.8593 0.179285 11.1543 0.0144585 11.5504 0Z" fill="white"/>
</svg>
