<svg width="25" height="23" viewBox="0 0 25 23" fill="none" xmlns="http://www.w3.org/2000/svg">
    <path d="M12.547 0c.396.014.691.174.873.54.987 2.005 1.981 4.006 2.967 6.01.044.09.096.136.2.15 1.235.176 2.47.356 3.704.535 1.006.145 2.013.286 3.016.44a.878.878 0 0 1 .743.624c.125.376.032.706-.245.98-.689.674-1.38 1.345-2.07 2.019-.93.905-1.857 1.81-2.788 2.712-.064.061-.078.119-.064.203.382 2.206.76 4.412 1.142 6.619.07.399-.026.743-.361.986-.333.243-.689.231-1.05.043-1.97-1.035-3.941-2.07-5.908-3.108-.118-.064-.205-.055-.315.005-1.972 1.039-3.947 2.074-5.922 3.112-.642.335-1.353-.029-1.405-.74-.015-.217.043-.44.08-.657.36-2.093.718-4.184 1.082-6.278.017-.095-.026-.141-.084-.196a2650.44 2650.44 0 0 1-2.868-2.794c-.645-.627-1.29-1.26-1.938-1.885-.295-.283-.416-.616-.289-1.006.127-.394.42-.59.824-.648 2.198-.315 4.393-.636 6.59-.951.14-.02.214-.073.275-.2.974-1.992 1.96-3.976 2.935-5.966.185-.37.48-.535.876-.549z" fill="#AEAFB4"/>
</svg>
