<svg width="13" height="22" viewBox="0 0 13 22" fill="none" xmlns="http://www.w3.org/2000/svg">
<path d="M12.9512 2.61187V2.51142C12.9512 2.21005 12.9512 1.90868 12.8507 1.50685C12.7503 0.803653 12.0471 0 10.8416 0C9.6361 0 8.43062 0 7.22514 0H4.41235H3.00596C1.90094 0 0.996826 0.90411 0.996826 2.00913V19.8904C0.996826 21.0959 1.80048 22 3.10642 22H4.01053H5.216H8.43062C9.23427 22 10.1384 22 10.942 22C11.9466 22 12.6498 21.3973 12.8507 20.4931C12.9512 20.1918 12.9512 19.8904 12.9512 19.6895V19.589C12.9512 17.2785 12.9512 17.0776 12.9512 14.7671V10.5479C12.9512 7.83562 12.9512 5.22374 12.9512 2.61187ZM8.2297 21.0959H5.71829C5.41692 21.0959 5.11555 20.7945 5.11555 20.4931C5.11555 20.1918 5.41692 19.8904 5.71829 19.8904H8.2297C8.53107 19.8904 8.83244 20.1918 8.83244 20.4931C8.83244 20.7945 8.53107 21.0959 8.2297 21.0959ZM11.7457 18.8858C10.1384 18.8858 8.63153 18.8858 7.02422 18.8858C5.41692 18.8858 3.80961 18.8858 2.20231 18.8858C2.20231 17.0776 2.20231 17.2785 2.20231 15.4703V3.41553H11.6452V16.274C11.7457 17.1781 11.7457 18.0822 11.7457 18.8858Z" fill="#AEAFB4"/>
</svg>
