<svg width="32" height="32" viewBox="0 0 50 50" fill="none" xmlns="http://www.w3.org/2000/svg">
    <path d="M16.875 17.62c-6.731 0-12.188 5.656-12.188 12.632s5.457 12.633 12.188 12.633c6.732 0 12.19-5.657 12.19-12.633-.002-6.976-5.46-12.633-12.19-12.633zm0 24.634c-6.384 0-11.562-5.371-11.562-12 0-6.63 5.178-12.001 11.563-12.001 6.386 0 11.562 5.373 11.562 12-.002 6.628-5.178 12.001-11.563 12.001z" fill="#61697C" stroke="currentColor" stroke-miterlimit="10"/>
    <path d="M16.875 27.727c-1.552 0-2.812 1.273-2.812 2.84 0 1.572 1.26 2.843 2.812 2.843 1.554 0 2.813-1.272 2.813-2.843 0-1.569-1.26-2.84-2.813-2.84zm0 5.05a2.199 2.199 0 0 1-2.187-2.21c0-1.22.98-2.209 2.187-2.209 1.21 0 2.188.99 2.188 2.21s-.98 2.208-2.188 2.208zM16.875 26.461a.942.942 0 0 0 .937-.946.942.942 0 0 0-.937-.948.942.942 0 0 0-.936.948c0 .523.419.946.936.946zM16.875 35.937a.942.942 0 0 0 .937-.947.942.942 0 0 0-.937-.947.942.942 0 0 0-.936.947c0 .523.419.947.936.947zM21.874 31.516a.942.942 0 0 0 .937-.947.942.942 0 0 0-.937-.947.942.942 0 0 0-.937.947c0 .523.42.947.937.947zM12.5 31.516a.942.942 0 0 0 .938-.947.942.942 0 0 0-.937-.947.942.942 0 0 0-.938.947c0 .523.42.947.938.947zM39.687 6.25c-3.108 0-5.625 2.546-5.625 5.685 0 3.141 2.517 5.685 5.625 5.685 3.106 0 5.626-2.544 5.626-5.685 0-3.14-2.52-5.685-5.626-5.685zm0 10.737c-2.761 0-5-2.263-5-5.053 0-2.791 2.239-5.054 5-5.054s5 2.263 5 5.054c0 2.79-2.239 5.053-5 5.053z" fill="currentColor" stroke="currentColor" stroke-miterlimit="10"/>
    <path d="M11.957 19.053 36.916 7.386l-24.96 11.667z" fill="currentColor"/>
    <path d="M11.957 19.053 36.916 7.386" stroke="currentColor" stroke-miterlimit="10"/>
    <path d="m11.59 18.888.26.573L37.026 7.63l-.26-.573-25.176 11.83z" fill="currentColor" stroke="currentColor" stroke-miterlimit="10"/>
    <path d="m25.385 38.805 17.317-22.443-17.317 22.443z" fill="currentColor"/>
    <path d="m25.385 38.805 17.317-22.443" stroke="currentColor" stroke-miterlimit="10"/>
    <path d="m26.003 37.651.492.389L43.99 15.589l-.492-.389-17.495 22.451zM16.876 21.906c-4.397 0-7.963 3.736-7.963 8.345 0 4.61 3.564 8.344 7.963 8.344 4.398 0 7.962-3.734 7.962-8.344 0-4.609-3.566-8.345-7.962-8.345zm0 16.096c-4.072 0-7.372-3.47-7.372-7.75 0-4.283 3.302-7.749 7.372-7.749 4.071 0 7.371 3.466 7.371 7.748 0 4.281-3.3 7.75-7.371 7.75z" fill="currentColor" stroke="currentColor" stroke-miterlimit="10"/>
</svg>
