<svg width="13" height="23" viewBox="0 0 13 23" fill="none" xmlns="http://www.w3.org/2000/svg">
<path d="M12.5865 1.58654C12.5865 0.528846 12.0577 0 11 0C7.82692 0 4.75962 0 1.58654 0C0.528846 0 0 0.634615 0 1.69231C0 7.93269 0 14.1731 0 20.4135C0 21.4712 0.528846 22.1058 1.58654 22.1058C3.17308 22.1058 4.75962 22.1058 6.34615 22.1058C7.82692 22.1058 9.41346 22.1058 10.8942 22.1058C11.9519 22.1058 12.4808 21.5769 12.4808 20.4135V7.93269C12.5865 5.81731 12.5865 3.70192 12.5865 1.58654ZM6.98077 20.625C6.76923 20.8365 6.55769 20.9423 6.34615 20.9423C5.81731 20.9423 5.39423 20.5192 5.39423 19.9904C5.39423 19.4615 5.81731 19.0385 6.34615 19.0385C6.875 19.0385 7.29808 19.4615 7.29808 19.9904C7.19231 20.2019 7.08654 20.4135 6.98077 20.625ZM8.14423 1.79808C8.14423 1.90385 8.03846 2.00962 7.93269 2.00962H4.75962C4.65385 2.00962 4.54808 1.90385 4.54808 1.79808C4.54808 1.69231 4.65385 1.58654 4.75962 1.58654H7.93269C8.03846 1.48077 8.14423 1.58654 8.14423 1.79808ZM11.2115 3.49038V17.875H1.26923V3.49038H11.2115Z" fill="white"/>
</svg>
