<svg width="14" height="23" viewBox="0 0 14 23" fill="none" xmlns="http://www.w3.org/2000/svg">
    <path d="M13.583 1.587C13.583.529 13.055 0 11.997 0H2.583C1.526 0 .997.635.997 1.692v18.721c0 1.058.529 1.693 1.586 1.693h9.308c1.058 0 1.587-.53 1.587-1.693V7.933c.105-2.116.105-4.231.105-6.346zM7.978 20.625c-.212.212-.423.317-.635.317a.948.948 0 0 1-.952-.952c0-.528.423-.951.952-.951.529 0 .952.422.952.951l-.317.635zM9.14 1.798a.227.227 0 0 1-.211.212H5.756a.227.227 0 0 1-.211-.212c0-.106.106-.211.211-.211H8.93c.105-.106.211 0 .211.211zm3.067 1.692v14.385H2.266V3.49h9.942z" fill="#AEAFB4"/>
</svg>
