<svg width="26" height="25" viewBox="0 0 26 25" fill="none" xmlns="http://www.w3.org/2000/svg">
    <g clip-path="url(#zh5x2eis1a)" fill="currentColor">
        <path d="M14.496 14.552c-.113.079-.214.135-.293.214-2.398 2.392-4.796 4.78-7.177 7.188-.288.293-.558.411-.963.406-1.734-.023-3.468-.011-5.207-.011-.546 0-.85-.299-.856-.85-.006-.89 0-1.785 0-2.674 0-.434.203-.71.608-.879 1.937-.793 3.822-1.688 5.579-2.831.551-.36 1.058-.8 1.576-1.222.366-.293.433-.703.377-1.143a.42.42 0 0 0-.09-.197c-.704-.793-1.148-1.728-1.464-2.724a1.012 1.012 0 0 0-.236-.394 1.885 1.885 0 0 1-.298-2.325c.073-.13.118-.293.123-.445.029-1.002-.005-2.01.062-3.006C6.372 1.801 7.622.462 9.463.13c1.087-.197 2.167-.185 3.226.152 1.525.49 2.392 1.571 2.572 3.125.119 1.036.057 2.094.096 3.147.006.202.068.422.163.602a1.92 1.92 0 0 1-.332 2.28 1.012 1.012 0 0 0-.236.394c-.299.946-.715 1.83-1.357 2.6-.27.327-.31.856-.05 1.188.202.254.45.473.68.704.068.062.141.118.27.23z"/>
        <path d="M14.49 18.92c-.09.642-.186 1.3-.276 1.954-.04.298.05 1.064.017 1.362-.017.152-.09.214-.248.242-.647.118-1.418-.203-2.066-.101-.23.04-.31.14-.36.349-.13.535.034 1.492-.096 2.026-.039.17-.118.231-.287.237-.686.022-1.34-.012-2.02 0-.085 0-.564-.456-.603-.54-.163-.338-.287-.693-.45-1.03-.096-.198-.366-.564-.22-.71 1.762-1.75 3.518-3.513 5.275-5.27 1.008-1.007 2.015-2.02 3.028-3.022.158-.152.209-.282.141-.507-.777-2.55 1.323-4.942 3.98-5.196 2.516-.242 4.69 1.695 4.712 4.205.028 2.494-2.089 4.487-4.571 4.29-.434-.034-.862-.163-1.284-.282-.163-.044-.253-.028-.366.085-.574.58-.872 1.497-1.458 2.066a.684.684 0 0 1-.416.163c-.704.028-1.678-.32-2.432-.32zm7.459-8.19c-.563 0-1.019.455-1.019 1.013 0 .563.484 1.041 1.036 1.036a1.055 1.055 0 0 0 1.024-1.025c0-.574-.461-1.03-1.041-1.024z"/>
        <path d="M21.527 18.836v1.115c0 .546.005 1.086-.006 1.632-.006.45-.315.76-.76.766-1.66.005-3.316 0-4.976 0-.062 0-.13-.017-.203-.023.079-.569.146-1.126.236-1.678.012-.067.147-.151.231-.157.26-.017.524 0 .788.006.456.005.845-.152 1.166-.473.405-.406.81-.805 1.21-1.216.107-.107.197-.141.36-.124.642.067 1.278.101 1.954.152z"/>
    </g>
    <defs>
        <clipPath id="zh5x2eis1a">
            <path fill="currentColor" d="M0 0h25.017v25H0z"/>
        </clipPath>
    </defs>
</svg>
