<svg width="23" height="20" viewBox="0 0 23 20" fill="none" xmlns="http://www.w3.org/2000/svg">
<path d="M22.3256 1.27907C22.3256 6.04651 22.3256 10.6977 22.3256 15.4651C22.2093 16.1628 21.6279 16.6279 20.9302 16.6279C19.7674 16.6279 18.6047 16.6279 17.4419 16.6279C13.4884 16.6279 9.65116 16.6279 5.69767 16.6279C4.18605 16.6279 2.67442 16.6279 1.27907 16.6279C0.697674 16.6279 0.348837 16.3953 0.116279 15.814C0.116279 15.6977 0 15.5814 0 15.4651C0 10.6977 0 5.93023 0 1.27907C0 1.27907 0 1.27907 0 1.16279C0 0.930233 0.116279 0.581395 0.348837 0.465116C0.697674 0.116279 1.04651 0 1.39535 0C3.95349 0 6.62791 0 9.18605 0C13.1395 0 17.093 0 21.0465 0C21.3953 0 21.7442 0.116279 21.9767 0.465116C22.2093 0.697674 22.2093 0.930233 22.3256 1.27907ZM21.3953 12.907C21.3953 12.6744 21.3953 12.4419 21.3953 12.2093C21.3953 11.0465 21.3953 9.88372 21.3953 8.72093C21.3953 7.55814 21.3953 6.39535 21.3953 5.23256C21.3953 4.06977 21.3953 2.7907 21.3953 1.62791C21.3953 1.27907 21.2791 1.04651 20.9302 1.04651C19.8837 1.04651 18.8372 1.04651 17.6744 1.04651C16.2791 1.04651 15 1.04651 13.6047 1.04651C12.2093 1.04651 10.9302 1.04651 9.53488 1.04651C8.13953 1.04651 6.86046 1.04651 5.46512 1.04651C4.06977 1.04651 2.67442 1.04651 1.27907 1.04651C1.04651 0.930232 0.930233 1.16279 0.930233 1.51163C0.930233 2.44186 0.930233 3.37209 0.930233 4.30233C0.930233 5.69767 0.930233 7.2093 0.930233 8.60465C0.930233 10 0.930233 11.3953 0.930233 12.7907V12.907C7.7907 12.907 14.5349 12.907 21.3953 12.907ZM11.1628 15.4651C11.5116 15.4651 11.8605 15.1163 11.8605 14.7674C11.8605 14.4186 11.5116 14.0698 11.1628 14.0698C10.814 14.0698 10.4651 14.4186 10.4651 14.7674C10.4651 15.1163 10.814 15.4651 11.1628 15.4651Z" fill="white"/>
<path d="M8.95341 17.6744C10.465 17.6744 11.8604 17.6744 13.372 17.6744C13.372 17.7907 13.372 18.0233 13.4883 18.1396C13.4883 18.7209 13.9534 19.0698 14.4185 19.0698C14.5348 19.0698 14.6511 19.0698 14.7674 19.0698C14.9999 19.0698 15.2325 19.3023 15.2325 19.5349C15.2325 19.7675 14.9999 20 14.7674 20C13.4883 20 12.3255 20 11.0464 20C9.99993 20 8.83714 20 7.79062 20C7.67434 20 7.67435 20 7.55807 20C7.32551 19.8837 7.20923 19.7675 7.20923 19.5349C7.20923 19.3023 7.44179 19.0698 7.67434 19.0698C7.9069 19.0698 8.02318 19.0698 8.25574 19.0698C8.72086 18.9535 8.95341 18.6047 9.06969 18.1396C8.95341 18.0233 8.95341 17.7907 8.95341 17.6744Z" fill="white"/>
</svg>
