<svg width="35" height="35" viewBox="0 0 35 35" fill="none" xmlns="http://www.w3.org/2000/svg">
<path d="M17.5257 17.3489C17.5257 18.517 16.58 19.4635 15.413 19.4635C14.246 19.4635 13.3002 18.517 13.3002 17.3489C13.3002 16.1809 14.246 15.2343 15.413 15.2343C16.58 15.2343 17.5257 16.1809 17.5257 17.3489Z" fill="#ABB6CC"/>
<path d="M17.5257 10.9932C17.5257 12.1612 16.58 13.1078 15.413 13.1078C14.246 13.1078 13.3002 12.1612 13.3002 10.9932C13.3002 9.82514 14.246 8.87857 15.413 8.87857C16.58 8.87857 17.5257 9.82514 17.5257 10.9932Z" fill="#ABB6CC"/>
<path d="M18.7796 24.551V22.0106C18.7796 20.6975 17.7167 19.6336 16.4048 19.6336H14.4224C13.1105 19.6336 12.0476 20.6975 12.0476 22.0106V24.551C12.0476 24.551 15.4129 26.8475 18.7796 24.551Z" fill="#ABB6CC"/>
<path d="M13.4491 19.2038C13.0816 18.774 12.8682 18.2981 12.78 17.7128C12.5903 17.664 12.5626 17.606 12.3572 17.606H10.3748C9.06295 17.606 8 18.6699 8 19.9829V22.5234C8 22.5234 9.47522 23.528 11.4483 23.5438C11.3653 23.2406 11.3179 22.9242 11.3179 22.5959C11.3166 21.0534 12.0845 19.7101 13.4491 19.2038Z" fill="#ABB6CC"/>
<path d="M13.6454 15.2106C13.5874 14.0952 12.668 13.2067 11.5379 13.2067C10.3709 13.2067 9.42517 14.1533 9.42517 15.3213C9.42517 16.4893 10.3709 17.4359 11.5379 17.4359C12.07 17.4359 12.3796 17.2619 12.751 16.9376C12.8129 16.2916 13.2489 15.6799 13.6454 15.2106Z" fill="#ABB6CC"/>
<path d="M17.5257 19.25C17.8932 18.8202 17.9748 18.2454 18.0631 17.6614C18.2528 17.6126 18.341 17.606 18.5465 17.606H20.5288C21.8407 17.606 22.9037 18.6699 22.9037 19.9829V22.5234C22.9037 22.5234 21.4284 23.528 19.4566 23.5438C19.5396 23.2406 19.5871 22.9242 19.5871 22.5959C19.5871 21.0534 18.8903 19.7575 17.5257 19.25Z" fill="#ABB6CC"/>
<path d="M17.2596 15.2106C17.3176 14.0952 18.237 13.2067 19.3671 13.2067C20.5341 13.2067 21.4798 14.1533 21.4798 15.3213C21.4798 16.4893 20.5341 17.4359 19.3671 17.4359C18.835 17.4359 18.3503 17.2382 17.9801 16.9138C17.9156 16.2665 17.6561 15.6799 17.2596 15.2106Z" fill="#ABB6CC"/>
<path d="M21.5852 17.0984C21.9527 16.6686 21.9619 16.3562 22.0515 15.7695C22.2412 15.7208 22.4387 15.6891 22.6429 15.6891H24.6252C25.9371 15.6891 27 16.753 27 18.0661V20.6065C27 20.6065 25.5248 21.6111 23.553 21.6269C23.636 21.3237 23.6834 21.0073 23.6834 20.679C23.6834 19.1366 22.9498 17.6047 21.5852 17.0984Z" fill="#ABB6CC"/>
<path d="M21.356 13.2937C21.414 12.1784 22.3333 11.2898 23.4635 11.2898C24.6305 11.2898 25.5762 12.2364 25.5762 13.4044C25.5762 14.5725 24.6305 15.5191 23.4635 15.5191C22.9313 15.5191 22.4466 15.32 22.0765 14.9957C22.0133 14.3497 21.7525 13.763 21.356 13.2937Z" fill="#ABB6CC"/>
<path d="M13.9562 13.7419C13.9562 13.7419 15.0719 12.4895 16.688 13.7419C16.688 13.7419 17.0002 14.8586 15.3221 14.8586C15.3221 14.8586 13.9562 14.9944 13.9562 13.8566" fill="#ABB6CC"/>
<circle cx="17.5" cy="17.5" r="16.85" stroke="#ABB6CC" stroke-width="1.3"/>
</svg>
