<svg width="32" height="32" viewBox="0 0 32 32" fill="none" xmlns="http://www.w3.org/2000/svg">
<g clip-path="url(#clip0_2230_7860)">
<path d="M9.09995 27.3H4.39995C3.19995 27.3 2.19995 26.3 2.19995 25.1V20.3C2.19995 19.1 3.19995 18.1 4.39995 18.1H9.19995C10.4 18.1 11.4 19.1 11.4 20.3V25.1C11.4 26.3 10.4 27.3 9.09995 27.3Z" stroke="white" stroke-width="2.3" stroke-miterlimit="10" stroke-linecap="round"/>
<path d="M27.5 27.3H22.7C21.5 27.3 20.5 26.3 20.5 25.1V20.3C20.5 19.1 21.5 18.1 22.7 18.1H27.5C28.7 18.1 29.7 19.1 29.7 20.3V25.1C29.8 26.3 28.8 27.3 27.5 27.3Z" stroke="white" stroke-width="2.3" stroke-miterlimit="10" stroke-linecap="round"/>
<path d="M28.9999 9.60001L25.3999 14.1L20.8999 10.5" stroke="white" stroke-width="2.3" stroke-miterlimit="10" stroke-linecap="round"/>
<path d="M6.59998 14.9V13.4C6.59998 8.30001 10.8 4.10001 15.9 4.10001C21 4.10001 25.2 8.30001 25.2 13.4V13.9" stroke="white" stroke-width="2.3" stroke-miterlimit="10" stroke-linecap="round"/>
</g>
<defs>
<clipPath id="clip0_2230_7860">
<rect width="29.9" height="25.5" fill="white" transform="translate(1 3)"/>
</clipPath>
</defs>
</svg>
