<svg width="19" height="18" viewBox="0 0 19 18" fill="none" xmlns="http://www.w3.org/2000/svg">
    <path d="M13.638 18H4.362A4.362 4.362 0 0 1 0 13.638V4.362A4.37 4.37 0 0 1 4.362 0h9.276A4.37 4.37 0 0 1 18 4.362v9.276C18.013 16.054 16.054 18 13.638 18zM4.362 1.88A2.486 2.486 0 0 0 1.88 4.361v9.276a2.486 2.486 0 0 0 2.483 2.483h9.276a2.486 2.486 0 0 0 2.483-2.483V4.362a2.486 2.486 0 0 0-2.483-2.483H4.362z" fill="currentColor"/>
    <path d="M13.007 6.336h-8a.934.934 0 0 1-.94-.94c0-.524.416-.94.94-.94h8c.523 0 .94.416.94.94 0 .523-.417.94-.94.94zM13.007 9.946h-8a.934.934 0 0 1-.94-.94c0-.523.416-.939.94-.939h8c.523 0 .94.416.94.94 0 .523-.417.94-.94.94zM9.933 13.638H5.007a.934.934 0 0 1-.94-.94c0-.524.416-.94.94-.94h4.926c.523 0 .94.417.94.94 0 .524-.43.94-.94.94z" fill="currentColor"/>
</svg>
