<svg width="32" height="32" viewBox="0 0 32 32" fill="none" xmlns="http://www.w3.org/2000/svg">
    <path d="M27.613 18.323h-1.82a9.962 9.962 0 0 1-1.228 2.96l1.287 1.286a.387.387 0 0 1 0 .548l-2.735 2.737a.387.387 0 0 1-.548 0l-1.287-1.287a9.952 9.952 0 0 1-2.96 1.227v1.819a.387.387 0 0 1-.386.387h-3.871a.387.387 0 0 1-.388-.387v-1.82a9.95 9.95 0 0 1-2.959-1.228l-1.287 1.289a.387.387 0 0 1-.548 0l-2.737-2.737a.387.387 0 0 1 0-.548l1.287-1.287a9.963 9.963 0 0 1-1.227-2.96H4.387A.387.387 0 0 1 4 17.937v-3.871c0-.214.173-.388.387-.388h1.82a9.964 9.964 0 0 1 1.228-2.96L6.146 9.432a.387.387 0 0 1 0-.548l2.737-2.737a.398.398 0 0 1 .548 0l1.287 1.287a9.963 9.963 0 0 1 2.96-1.227V4.387c0-.214.173-.387.386-.387h3.872c.213 0 .387.173.387.387v1.82a9.964 9.964 0 0 1 2.96 1.228l1.286-1.287a.387.387 0 0 1 .548 0l2.737 2.737a.387.387 0 0 1 0 .547l-1.287 1.287c.566.914.98 1.913 1.227 2.958h1.819c.214 0 .387.174.387.388v3.87a.387.387 0 0 1-.387.388zm-.387-3.871h-1.742a.387.387 0 0 1-.38-.31 9.198 9.198 0 0 0-1.354-3.263.387.387 0 0 1 .049-.488l1.233-1.234-2.19-2.19-1.233 1.235a.387.387 0 0 1-.488.048 9.198 9.198 0 0 0-3.263-1.355.387.387 0 0 1-.31-.379V4.774h-3.096v1.742c0 .184-.13.343-.31.38a9.198 9.198 0 0 0-3.263 1.354.387.387 0 0 1-.488-.048L9.157 6.967l-2.19 2.19 1.234 1.234c.13.13.15.334.049.487a9.197 9.197 0 0 0-1.355 3.264.387.387 0 0 1-.379.31H4.774v3.096h1.742c.184 0 .343.13.38.31a9.198 9.198 0 0 0 1.354 3.263.387.387 0 0 1-.048.488l-1.235 1.234 2.19 2.19 1.234-1.234c.13-.13.334-.15.488-.049a9.202 9.202 0 0 0 3.263 1.355c.18.037.31.195.31.379v1.742h3.096v-1.742c0-.184.13-.343.31-.38a9.2 9.2 0 0 0 3.263-1.354.387.387 0 0 1 .488.049l1.234 1.233 2.19-2.19-1.235-1.233a.387.387 0 0 1-.048-.488 9.198 9.198 0 0 0 1.355-3.263.387.387 0 0 1 .379-.31h1.742v-3.096z" fill="currentColor" stroke="currentColor" stroke-width="1.5"/>
    <path d="M16 20.258a4.258 4.258 0 1 1 0-8.516 4.258 4.258 0 0 1 0 8.516zm0-7.742a3.484 3.484 0 1 0 0 6.968 3.484 3.484 0 0 0 0-6.968z" fill="currentColor" stroke="currentColor" stroke-width="1.5"/>
</svg>
