<svg width="22" height="20" viewBox="0 0 22 20" fill="none" xmlns="http://www.w3.org/2000/svg">
    <path fill-rule="evenodd" clip-rule="evenodd" d="M14.544 10.013c0 .32.004.638 0 .958-.003.295-.109.408-.399.45-.485.071-.974.143-1.456.23-.082.015-.173.101-.222.177-.071.113-.086.264-.161.373-.181.26-.113.46.079.68.255.29.485.603.726.905.18.226.195.374-.008.581-.47.494-.944.981-1.44 1.449-.257.242-.385.219-.66.004-.345-.272-.695-.54-1.034-.815-.113-.09-.207-.129-.342-.042a.932.932 0 0 1-.335.14c-.331.056-.41.264-.433.57-.03.415-.11.826-.184 1.237-.053.29-.158.374-.452.374-.636.004-1.272.004-1.908 0-.308 0-.413-.102-.462-.415-.072-.487-.143-.977-.226-1.46-.015-.076-.094-.151-.162-.2-.071-.05-.177-.053-.248-.102-.346-.25-.621-.151-.91.117-.268.245-.577.441-.866.664-.177.135-.358.14-.512-.015a45.46 45.46 0 0 1-1.4-1.427c-.282-.309-.267-.4-.015-.728.256-.332.508-.66.772-.985.086-.105.109-.192.041-.324-.11-.208-.18-.434-.286-.645-.034-.068-.117-.144-.188-.155-.485-.087-.97-.158-1.456-.234-.305-.045-.392-.147-.395-.464 0-.622-.004-1.245 0-1.868 0-.324.094-.426.421-.475.47-.072.94-.147 1.415-.215.135-.019.218-.068.256-.208.034-.124.075-.252.143-.358.161-.245.131-.442-.068-.66-.263-.29-.497-.615-.741-.925-.177-.222-.196-.385 0-.588.463-.49.937-.974 1.426-1.43.274-.257.406-.234.696-.004.339.268.68.532 1.016.804.113.09.207.128.342.041a.993.993 0 0 1 .331-.143c.328-.06.41-.264.433-.57.03-.408.105-.811.18-1.215.057-.313.155-.385.463-.385a160.46 160.46 0 0 1 1.908 0c.301 0 .406.098.452.396.075.487.154.974.214 1.464.019.14.08.189.2.23.173.057.346.121.5.212.147.083.245.049.365-.046.369-.29.745-.57 1.121-.852.2-.151.361-.155.53.011.471.464.941.928 1.385 1.411.294.317.275.411.015.747-.252.325-.496.653-.752.97-.094.117-.102.219-.034.35.098.197.162.412.263.605.042.079.136.162.219.173.477.087.955.155 1.433.223.29.041.395.154.395.452.02.317.015.638.015.955zM7.286 7.078c-1.629 0-2.923 1.271-2.923 2.878-.004 1.664 1.26 2.962 2.886 2.962 1.64.004 2.935-1.271 2.935-2.89.003-1.664-1.261-2.95-2.898-2.95zM14.518 7.425c.177-.446.328-.86.508-1.26.087-.19.057-.314-.03-.499-.14-.305-.342-.407-.662-.422-.346-.02-.685-.11-1.027-.17-.155-.03-.222-.113-.219-.287.016-.411.02-.822 0-1.23-.007-.207.08-.298.26-.324.418-.068.84-.125 1.253-.204a.542.542 0 0 0 .26-.162c.282-.31.244-.627.052-.981-.15-.283-.237-.608-.33-.917-.02-.064.037-.196.093-.234.38-.234.775-.445 1.155-.68.15-.093.253-.06.35.061.275.336.553.668.817 1.008.083.109.165.17.305.132.007-.004.015-.004.022-.004.418.11.621-.147.828-.445.173-.25.388-.464.58-.698.097-.117.191-.144.33-.06.384.23.772.448 1.163.667.11.06.155.136.105.26-.161.42-.308.838-.481 1.253-.056.136-.026.223.022.355.147.385.426.487.802.505.309.012.61.099.914.155.166.03.234.12.226.302-.015.404-.019.807 0 1.207.011.215-.079.31-.27.34-.411.064-.821.136-1.235.189-.136.018-.2.075-.282.177-.264.324-.222.622-.042.97.15.286.226.61.339.916.045.125.004.197-.105.257-.388.219-.78.441-1.16.675-.135.083-.236.068-.334-.052-.282-.348-.557-.702-.847-1.042-.056-.068-.169-.087-.256-.12-.03-.012-.079.018-.113.007-.353-.102-.526.113-.703.366-.196.28-.429.528-.647.792-.09.11-.185.132-.316.053-.384-.23-.775-.449-1.16-.679-.052-.038-.1-.11-.165-.177zm2.95-4.724a1.451 1.451 0 0 0-1.467 1.445c-.004.837.628 1.475 1.456 1.475a1.44 1.44 0 0 0 1.456-1.456c0-.811-.64-1.46-1.445-1.464zM14.518 19.099c.17-.43.328-.827.482-1.223.041-.11.128-.245.098-.332-.072-.196-.2-.374-.32-.547-.026-.038-.11-.034-.17-.042-.425-.067-.85-.132-1.275-.203-.173-.027-.252-.121-.245-.313.016-.412.016-.82 0-1.23-.007-.185.068-.272.234-.299.425-.071.85-.147 1.275-.2.14-.019.196-.083.279-.18.267-.325.214-.623.037-.97-.143-.28-.222-.597-.335-.895-.056-.147 0-.218.128-.29.377-.211.753-.423 1.122-.65.146-.09.252-.067.35.058.267.328.541.652.801.988.094.12.192.14.335.166.418.072.628-.147.835-.453.173-.256.4-.475.595-.717.094-.113.188-.124.316-.049.384.227.771.45 1.163.668.124.068.154.151.105.28-.158.41-.309.822-.474 1.23-.053.131-.034.222.015.354.15.377.417.494.801.51.305.01.61.094.915.154.161.03.24.113.233.298-.015.419-.015.838 0 1.253.007.177-.068.256-.222.283-.425.072-.85.147-1.276.2-.146.019-.21.087-.297.196-.244.31-.218.592-.045.928.154.294.233.623.35.936.045.12.015.196-.102.26-.395.223-.79.45-1.177.687-.147.09-.241.034-.332-.075-.27-.336-.549-.668-.812-1.012-.09-.12-.177-.177-.324-.135-.023.007-.049.015-.068.007-.372-.12-.534.132-.718.381-.192.264-.414.506-.617.759-.098.12-.2.158-.35.064-.373-.23-.76-.442-1.137-.668-.056-.042-.105-.11-.173-.177zm2.943-4.728c-.81 0-1.46.645-1.46 1.452 0 .823.632 1.468 1.44 1.468a1.44 1.44 0 0 0 1.472-1.46c0-.811-.643-1.46-1.452-1.46z" fill="currentColor"/>
</svg>
