<svg xmlns="http://www.w3.org/2000/svg" viewBox="0 0 18 18" style="enable-background:new 0 0 18 18" xml:space="preserve">
    <path d="M17.1 18.7c-.2.1-.4.1-.6.2h-.2c-1.5-.1-2.2-.8-2.3-2.3 0-.5-.2-.8-.5-1.2L2.6 4.5c-.2-.2-.4-.3-.6-.3h-.3C0 4-.7 3.2-.6 1.6c0-.1.1-.3.2-.4.1.1.2.1.3.2l1 1c.1.2.3.2.5.1.7-.1 1.1-.5 1.2-1.2 0-.2 0-.4-.1-.5C2 .4 1.6 0 1.2-.4c.1-.3.3-.4.5-.3h.5c1.3.2 2 .9 2 2.4 0 .4.2.7.5 1l11 11c.1.1.3.2.5.2s.4 0 .7.1c1.3.2 1.9.8 2 2.1 0 .3.2.7-.2.8-.3.1-.4-.3-.6-.4l-.3-.3c-.4-.6-.9-.7-1.5-.4-.2.1-.3.2-.4.4-.3.8-.3.8.4 1.5.3.3.6.5.8.8v.2zM3.7 14.7c-.6.3-1.2.7-1.8 1-.3.2-.5.2-.7-.2-.3-.6-.7-1.2-1-1.8-.2-.3-.2-.5.2-.7.5-.3 1.1-.6 1.6-.9.2-.1.2-.2.2-.4-.1-.6-.2-1.2-.2-1.8 0-.2-.1-.3-.3-.4C1.1 9.4.5 9.2-.1 9c-.4-.1-.5-.2-.4-.7.2-.6.4-1.2.5-1.8 0-.1.1-.3.2-.3.1-.2.3-.2.4 0C1.1 7.5 2.1 8 3.4 8.1c.2 0 .4.1.6.2.3.2.3.4.2.7-.6 3.3 2.3 6.2 5.7 5.5.4-.1.8.2.8.6.1.5.1.9.2 1.4-.6.2-1.2.3-1.9.3-.3 0-.5.1-.5.4-.1.6-.3 1.1-.4 1.7-.1.4-.2.4-.6.4-.6-.2-1.3-.3-1.9-.5-.4-.1-.5-.2-.4-.7.2-.6.3-1.2.5-1.7 0-.1 0-.3-.1-.3-.6-.5-1.2-1-1.9-1.4zM7.2 1.2c.6-.1 1.3-.2 1.9-.2.3 0 .4-.1.4-.3.2-.6.3-1.2.5-1.8.1-.4.2-.5.6-.4.6.2 1.3.3 1.9.5.5.2.5.3.4.8-.2.6-.3 1.2-.5 1.7-.1.2 0 .3.2.4.5.4 1 .7 1.5 1.1.2.1.3.2.5 0l1.5-.9c.4-.1.6-.1.8.3.3.6.6 1.1 1 1.7.2.4.2.5-.2.8-.5.3-1.1.6-1.6.9-.2.1-.2.2-.2.4.1.5.2 1.2.2 1.8 0 .2.1.3.3.4.6.1 1.2.3 1.8.5.4.1.5.2.4.6-.2.7-.3 1.3-.5 2 0 .1-.2.2-.3.4l-.3-.3c-.6-1.2-1.6-1.6-2.8-1.7-.2 0-.4-.1-.5-.2-.3-.2-.3-.4-.2-.7.6-3.3-2.4-6.2-5.7-5.5-.4-.2-.9-.4-.9-.8-.1-.4-.2-.9-.2-1.5z"/>
</svg>
