<svg xmlns="http://www.w3.org/2000/svg" width="42" height="43" fill="none" viewBox="0 0 42 43">
    <path fill="#fff" fill-rule="evenodd" d="M37.623 8.725c-.195.417-.315.789-.524 1.1-.606.898-1.238 1.779-1.88 2.652-.164.222-.163.381-.052.632.53 1.191 1.04 2.391 1.526 3.601.11.271.272.343.517.387 1.108.2 2.22.386 3.32.625 1.007.218 1.311.567 1.345 1.588.038 1.186.03 2.376-.008 3.562-.032.977-.387 1.408-1.342 1.616-1.143.248-2.303.423-3.451.65-.14.028-.319.155-.372.281-.503 1.202-.972 2.418-1.479 3.618-.124.292-.128.495.065.762.686.95 1.336 1.927 2.014 2.884.404.57.39 1.142-.07 1.627-1.01 1.063-2.054 2.097-3.107 3.119-.406.394-.91.427-1.394.12-.776-.492-1.54-1.004-2.307-1.51-.136-.09-.272-.182-.396-.286-.504-.42-.957-.48-1.596-.13-.916.5-1.933.822-2.914 1.198-.264.101-.394.229-.442.522-.176 1.069-.37 2.135-.59 3.195-.227 1.105-.544 1.436-1.665 1.49-1.227.059-2.463.032-3.69-.034-.88-.048-1.203-.364-1.402-1.229-.209-.91-.405-1.828-.528-2.752-.103-.767-.5-1.147-1.211-1.39-1.007-.346-1.981-.788-2.96-1.212-.238-.104-.396-.08-.6.065-.856.613-1.71 1.233-2.593 1.807-1.082.704-1.594.673-2.535-.203-.814-.758-1.59-1.562-2.34-2.384-.634-.694-.688-1.174-.198-1.98.562-.924 1.174-1.821 1.814-2.694.269-.365.264-.633.088-1.035-.506-1.15-.944-2.332-1.429-3.494-.053-.127-.222-.261-.36-.288-1.119-.219-2.245-.405-3.366-.618-.26-.05-.512-.147-.759-.246-.407-.164-.66-.48-.674-.914-.043-1.38-.096-2.76-.072-4.139.015-.85.401-1.273 1.242-1.458.998-.22 2.008-.39 3.018-.546.585-.089.905-.319 1.095-.945.304-1.002.756-1.964 1.21-2.911.205-.427.157-.71-.11-1.072-.628-.846-1.237-1.708-1.805-2.595-.587-.92-.57-1.215.157-2.014.84-.92 1.718-1.81 2.62-2.67.712-.679 1.045-.715 1.901-.193.962.586 1.89 1.229 2.808 1.884.288.205.494.19.793.053 1.09-.498 2.188-.984 3.3-1.435.464-.188.71-.461.785-.964.145-.968.309-1.935.522-2.89.25-1.123.694-1.47 1.827-1.471 1.202-.001 2.403.02 3.603.069.78.032 1.201.515 1.34 1.256.158.845.335 1.69.436 2.543.103.865.497 1.376 1.351 1.656.938.308 1.818.791 2.741 1.151.21.082.54.048.735-.068.623-.372 1.207-.808 1.808-1.217.27-.183.537-.374.816-.54.926-.552 1.45-.54 2.248.2.892.826 1.74 1.704 2.57 2.593.26.28.401.667.606 1.02zM20.607 31.898c4.948.503 11.05-3.794 11.164-10.615.098-5.853-4.654-10.822-10.46-10.978-7.174-.194-11.055 5.774-11.215 10.51-.207 6.104 5.278 11.254 10.511 11.083z" clip-rule="evenodd"/>
    <path fill="#fff" fill-rule="evenodd" d="M19.69 23.99c-.12-1.039.079-1.944.734-2.743.574-.7 1.118-1.426 1.659-2.153.364-.49.577-1.036.412-1.663-.214-.813-.88-1.278-1.715-1.21-.884.074-1.431.61-1.512 1.482l-.017.215H16.59c-.037-.771.14-1.492.539-2.144.793-1.297 2.006-1.882 3.486-1.967 1.189-.068 2.288.21 3.218.98 1.48 1.222 1.86 3.36.858 5.007-.432.712-.964 1.366-1.469 2.031-.486.642-1.02 1.254-.87 2.164h-2.663zM22.622 27.051c-.013.915-.74 1.606-1.668 1.588-.908-.019-1.571-.738-1.557-1.692.012-.85.768-1.562 1.643-1.547.874.015 1.594.767 1.582 1.651z" clip-rule="evenodd"/>
</svg>
