<svg xmlns="http://www.w3.org/2000/svg" width="50" height="45" fill="none" viewBox="0 0 50 45">
    <path fill="#fff" fill-rule="evenodd" d="M16.591 14.878V13.96c-.187 0-.37.001-.551.003l-.356.002.908.913zm-3.865-1.336c-.846-.323-1.614-.83-2.307-1.521-2.262-2.256-5.814-2.571-8.398-.72l.794.214 2.214.598c.906.244 1.48.817 1.716 1.736.128.498.263.995.397 1.492.058.215.117.43.174.646.241.9.039 1.68-.618 2.34l-1.193 1.195-.415.415c-.649.65-1.414.846-2.296.603-.703-.192-1.407-.381-2.111-.57l-.336-.09c-.056-.015-.114-.025-.193-.04-.043-.008-.094-.017-.154-.03.092.127.178.248.26.364.18.252.342.482.523.696.251.297.523.582.82.833 2.292 1.94 5.572 2.065 8.01.303.82-.593 1.713-.994 2.709-1.143.322-.048.648-.071.982-.095.154-.01.31-.021.468-.035.133-.974.734-1.61 1.53-2.112.377-.237.738-.501 1.087-.778.102-.08.192-.245.194-.373v-.046l-3.857-3.882zM36.322 13.387c.575-.063 1.152-.097 1.72-.194.843-.144 1.607-.5 2.306-.999 3.06-2.185 7.078-1.497 9.25 1.583.123.172.24.347.402.582-.158-.033-.257-.048-.354-.073l-2.478-.668c-.859-.231-1.604-.022-2.234.602-.562.557-1.122 1.117-1.674 1.684-.592.608-.79 1.337-.587 2.16.19.77.402 1.535.608 2.302.238.887.803 1.446 1.683 1.684l3.042.821c-.753.5-1.513.872-2.356 1.04-2.354.471-4.404-.127-6.117-1.827-.81-.802-1.74-1.386-2.838-1.684-.244-.066-.331-.16-.33-.426.014-1.846.01-3.692.005-5.537-.001-.345-.031-.69-.048-1.05zM30.898 16.098c0 .816.009 1.633-.003 2.45-.015 1.15-.872 2.013-1.979 2.008-1.12-.004-1.97-.883-1.973-2.05-.003-1.61-.003-3.22 0-4.83.003-1.127.843-2.006 1.93-2.029 1.106-.023 1.994.83 2.02 1.968.02.827.005 1.655.005 2.483zM31.812 16.348c0-.76-.014-1.521.004-2.28.023-.995.758-1.793 1.725-1.908.997-.118 1.895.479 2.153 1.448.051.191.066.397.066.596.006 1.431.006 2.862.002 4.293-.003 1.171-.843 2.05-1.959 2.06-1.116.01-1.976-.86-1.992-2.03-.01-.726-.002-1.453-.002-2.18h.003zM18.026 16.322c.997-.707 1.994-1.415 2.986-2.129.076-.054.142-.177.145-.27.012-.335.016-.673-.017-1.006-.102-1.025-.977-1.776-2.019-1.752-1.006.023-1.879.829-1.906 1.839-.022.827-.019 1.654-.014 2.487l.825.83zM25.979 13.418c-1.282-.973-2.572-.955-3.863-.011-.137-.733.21-1.502.845-1.918.672-.44 1.536-.435 2.199.014.636.43.968 1.198.819 1.915z" clip-rule="evenodd"/>
    <path stroke="#fff" stroke-width="1.8" d="M4.375 1l41.174 41.434"/>
    <path fill="#fff" fill-rule="evenodd" d="M32.464 30.566v-.462c-.001-.427.123-.781.407-1.099 1.328-1.487 2.21-3.209 2.64-5.163.217-.987.29-1.984.234-3.058l-.144.075c-.085.044-.158.081-.228.125-.97.605-1.974.667-2.971.107-.32-.18-.618-.251-.972-.23-.454.028-.875.08-1.3.314-.764.42-1.597.412-2.376.028-.373-.185-.728-.23-1.12-.198-.071.006-.143.006-.216.007-.106 0-.212 0-.316.019l-.137.023c-.267.045-.537.09-.785.186-.618.239-1.238.306-1.852.132l9.136 9.194zM21.686 19.721l.436-.308c1.006-.712 2.013-1.424 3.016-2.14.948-.678 1.174-1.891.539-2.81-.64-.926-1.87-1.125-2.833-.444-1.336.945-2.67 1.89-4.004 2.838l2.846 2.864zm-4.499-1.69l3.058 3.077c-.279.7-.042 1.492.714 2.023 1.324.93 2.407 2.084 3.233 3.48.13.218.285.383.56.314.329-.081.428-.41.226-.756-.172-.293-.355-.576-.548-.85l8.037 8.087V44.858L19.82 45V32.58l.346.121c.337.118.671.236 1.006.35.105.036.213.065.322.085.268.049.468-.05.546-.316.08-.274-.063-.453-.306-.552-.076-.031-.156-.052-.236-.072-.05-.013-.1-.026-.148-.041-1.64-.515-3.088-1.36-4.347-2.538-.683-.637-1.12-1.412-1.321-2.322-.422-1.899-.843-3.799-1.257-5.7-.2-.913.075-1.655.84-2.199l.705-.5 1.217-.866zm4.44 4.468l-.059-.042-.197-.142c-.132-.097-.223-.214-.273-.35l.53.534z" clip-rule="evenodd"/>
</svg>
