<svg xmlns="http://www.w3.org/2000/svg" width="51" height="51" fill="none" viewBox="0 0 51 51">
    <path fill="#fff" d="M38.335 7.872c-.53-.187-.784-.546-.37-.996.684-.75 1.443-1.436 2.182-2.137.234-.222.517-.237.776-.017.202.17.359.416.182.633-.744.914-1.565 1.755-2.528 2.454-.06.044-.154.041-.242.063zM38.428 21.755c.36.046.562.317.793.54.528.51 1.055 1.02 1.573 1.536.299.297.59.619.154 1.024-.363.336-.684.148-.965-.125-.675-.65-1.346-1.303-2-1.971-.21-.212-.314-.48-.083-.758.137-.163.301-.268.528-.246zM23.59 7.349c-.165.577-.578.687-1.001.321-.764-.662-1.468-1.396-2.177-2.117-.222-.224-.217-.517-.003-.763.172-.197.446-.329.652-.16.913.735 1.792 1.513 2.481 2.468.045.058.032.153.047.25zM20.872 25.04c-.572-.141-.841-.521-.455-.967.664-.773 1.433-1.462 2.184-2.162.22-.202.536-.253.794-.026.306.27.26.623.023.87-.71.738-1.459 1.437-2.203 2.144-.084.078-.226.095-.343.141zM30.126 2.572c0-.36-.015-.723.005-1.081.023-.395-.017-.868.6-.844.503.022.545.41.55.783.01.843.005 1.686.002 2.527-.002.382-.074.774-.54.801-.482.03-.584-.368-.604-.743-.023-.48-.005-.962-.005-1.445-.003.002-.005.002-.008.002zM18.307 15.356c-.49-.002-.983.01-1.473-.005-.376-.012-.625-.182-.598-.594.025-.341.254-.497.57-.502.983-.015 1.966-.017 2.949-.01.36.003.664.154.674.544.013.394-.288.553-.65.565-.487.017-.98.002-1.472.002zM43.3 14.24c.527.253 1.791-.531 1.786.6-.005.957-1.204.394-1.864.511-.48.086-.99.025-1.488.005-.393-.014-.786-.107-.761-.597.02-.4.368-.507.72-.517.494-.012.992-.002 1.607-.002zM38.778 12.78c-.826-3.37-3.697-5.748-7.211-6.097-3.596-.355-6.85 1.433-8.41 4.62-1.501 3.066-.891 6.802 1.59 9.217 1.077 1.047 1.995 2.13 2.338 3.63.212.929.934 1.419 1.89 1.506.574.054 1.156.01 1.736.01v.022c.498 0 .995.024 1.49-.005 1.103-.068 1.902-.558 2.16-1.664.319-1.36 1.125-2.378 2.133-3.336 2.297-2.183 3.028-4.876 2.284-7.903zm-10.57-2.212c-1.486.87-2.32 2.151-2.466 3.84-.043.473-.077.982-.675.955-.741-.034-.557-.653-.57-1.294.19-1.913 1.26-3.455 3.046-4.554.374-.23.794-.373 1.083.083.288.46-.033.745-.418.97zm2.523-.675c-.406.022-.627-.249-.647-.595-.015-.292.172-.536.518-.577.398-.05.624.131.694.519-.005.365-.162.63-.565.653zM33.48 28.36h-5.103c-.383 0-.694-.304-.694-.68 0-.374.31-.679.694-.679h5.104c.383 0 .694.305.694.68 0 .375-.311.68-.694.68zM32.757 29.904H29.1c-.383 0-.694-.305-.694-.68 0-.375.31-.68.694-.68h3.656c.383 0 .694.305.694.68 0 .375-.311.68-.694.68zM32.364 31.117h-2.87c-.3 0-.544-.239-.544-.534 0-.294.243-.533.544-.533h2.87c.3 0 .544.239.544.534 0 .294-.243.533-.544.533z"/>
    <path fill="#fff" d="M10.87 46.066c-1.413-3.192-2.802-6.342-4.144-9.373 1.47-1.099 2.854-2.197 4.305-3.197 3.436-2.362 7.175-2.58 11.074-1.39.515.155 1.035.315 1.513.55 3.776 1.863 7.836 2.754 11.948 3.462.733.127 1.484.282 2.15.594 1.324.627 1.39 1.928.19 2.763-.856.594-1.815.867-2.86.702-2.448-.391-4.892-.82-7.34-1.202-1.432-.222-2.85-.094-4.225.368-.218.07-.468.16-.605.32-.104.123-.123.401-.057.557.043.108.34.221.454.17 2.472-1.033 4.93-.416 7.397.009 1.403.24 2.812.49 4.22.707 1.234.189 2.378-.108 3.413-.783 1.536-.99 1.748-2.258.77-3.819 1.881-1.551 3.739-3.107 5.625-4.63.633-.514 1.313-.98 2.008-1.4.657-.401 1.357-.458 2.056-.02.17.11.43.123.648.11 1.04-.067 1.772.711 1.55 1.725-.08.372-.265.75-.487 1.066-1.318 1.871-2.67 3.72-3.998 5.582-.804 1.127-1.825 1.976-3.053 2.617-2.822 1.462-5.682 2.871-8.418 4.484-2.468 1.452-4.977 1.603-7.633.877-2.572-.707-5.143-1.415-7.695-2.174-2.368-.702-4.656-.627-6.891.486-.61.297-1.239.542-1.914.84zM5.922 50.536C3.942 46.048 1.985 41.62 0 37.132c1.754-.547 3.436-1.075 5.185-1.622 1.815 4.102 3.61 8.166 5.44 12.297-1.564.91-3.11 1.805-4.703 2.73z"/>
</svg>
