<svg xmlns="http://www.w3.org/2000/svg" width="56" height="51" fill="none" viewBox="0 0 56 51">
    <path fill="#fff" d="M36.693 41.864c.919-5.12 1.781-9.941 2.681-14.959 1.53 1.244 2.933 2.385 4.464 3.624 1.871-4.924 1.36-9.6-.777-14.126-2.137-4.521-5.7-7.659-10.415-9.632l1.133-3.049c2.72.917 5.074 2.366 7.069 4.265 7.027 6.69 9.04 14.72 6.198 23.912-.261.842-.133 1.282.516 1.782 1.16.898 2.27 1.86 3.606 2.969-4.862 1.754-9.543 3.437-14.475 5.214zM23.487 43.772c-.057.977-.113 1.968-.175 3.109-.583-.037-1.047-.065-1.497-.098-.105-2.59.27-3.297 1.672-3.011zM27.183 43.654c.123 1.108.237 2.095.36 3.19-.474.065-.843.116-1.208.163-.455-2.581-.341-3.1.848-3.353zM8.534 9.343c.298-.304.601-.608.952-.964.8.847 1.497 1.59 2.194 2.324-.692 1.09-.702 1.085-3.146-1.36zM8.941 14.804c-1.213-.674-2.104-1.174-3.066-1.707.214-.393.398-.73.654-1.206.839.58 1.659 1.084 2.388 1.697.161.13.024.627.024 1.216zM18.782 46.114c-.516-.187-.848-.304-1.284-.462.36-.922.663-1.829 1.09-2.675.09-.182.63-.145 1.16-.248-.355 1.244-.644 2.245-.966 3.385zM6.984 18.156c-1.004-.322-2.004-.645-3.07-.986.166-.445.298-.81.493-1.333.985.73 2.463.636 3.004 1.81-.143.168-.285.336-.427.51zM9.514 35.635c.593 1.09.588 1.1-1.994 2.895-.228-.314-.455-.632-.768-1.066l2.762-1.829zM21.057 5.733c-.242-.959-.484-1.927-.75-2.988.437-.108.797-.196 1.152-.28.882 2.206.777 3.118-.402 3.268zM28.917 5.62c.147-.986.294-1.968.455-3.062.44.037.848.07 1.497.121-.687 1.104-.203 2.586-1.487 3.199-.152-.085-.308-.169-.465-.258zM11.978 6.41c.455-.29.744-.476 1.024-.659 1.7 1.829 1.928 2.54.961 3.26l-1.985-2.6zM2.691 26.091v-1.346c.92 0 1.8-.033 2.677.023.2.014.38.328.569.505-.185.187-.346.5-.56.533-.862.14-1.738.192-2.686.285zM15.13 40.933c1.07.654 1.046.771-.603 3.329-.336-.16-.682-.318-1.184-.557.606-.935 1.17-1.81 1.786-2.772zM17.2 3.582c.426 1.14.772 2.076 1.118 3.001-1.123.538-1.123.538-2.298-2.431.336-.164.687-.332 1.18-.57zM2.89 21.56c.02-.373.005-.593.052-.804.034-.159.147-.299.218-.43 3.1.43 3.1.43 2.862 1.58-1-.107-2.004-.22-3.132-.345zM6.491 29.64c-.952.29-1.919.58-2.985.903-.132-.393-.265-.786-.398-1.17 2.692-.948 3.17-.916 3.383.267zM8.031 33.227c-1 .524-1.9 1-2.876 1.51-.218-.374-.407-.71-.602-1.043 1.924-1.3 2.886-1.458 3.478-.467zM10.775 41.821l-.93-.808c1.531-2.156 2.095-2.483 2.962-1.707-.654.818-1.317 1.632-2.032 2.515zM26.08 2.062v3.086c-1.195.23-1.195.23-1.204-2.97.364-.036.739-.074 1.203-.116zM31.029 27.355c.02 1.117.044 2.23.061 3.346.007.509.202.974.7 1.082.37.081.883.01 1.173-.205.253-.186.369-.658.4-1.015.061-.685.017-1.38.017-2.075 1.046.065 1.678.709 1.681 1.68.004.843 0 1.686 0 2.563H14.007c0-.428-.007-.86.004-1.292.006-.384.075-.775.034-1.153-.11-.995.454-1.487 1.291-1.804 1.617-.617 3.226-1.258 4.86-1.838.584-.206.94-.557 1.21-1.08.157-.306.427-.556.704-.9-.735-.438-.704-1.335-.93-2.128-.027-.09-.061-.199-.13-.256-.83-.688-.704-1.653-.772-2.563-.027-.368.14-.506.52-.506 2.44.01 4.88.01 7.32 0 .41-.003.577.148.515.553-.099.648-.17 1.298-.283 1.943-.028.155-.13.37-.26.424-.465.203-.472.587-.55.995-.075.398-.267.78-.42 1.16-.072.176-.172.338-.093.439.3.394.581.813.916 1.177.25.273.536.56.868.701.72.304 1.48.52 2.221.77l-.003-.018zM28.927 17.876c.304.03.513.047.748.07v.678H19.29v-.704c.236-.027.465-.051.718-.078.051-.543.048-1.103.16-1.639.404-1.872 1.545-3.052 3.452-3.504.229-.054.451-.22.622-.388.236-.236.372-.185.56.047.106.132.264.264.42.3 2.345.564 3.647 2.156 3.705 4.547.003.205 0 .415 0 .67z"/>
    <path fill="#fff" d="M31.036 27.369c.01-1.403.03-2.81.01-4.212-.004-.169-.23-.368-.397-.5-1.322-1.045-1.233-3.058.274-3.908 0 .52-.007.992.003 1.464.01.61 1.015 1.14 1.576.893.66-.29.946-.715.827-1.43-.048-.276-.007-.57-.007-.866.95.317 1.49 1.585 1.1 2.654-.14.384-.38.786-.69 1.042-.349.29-.417.587-.414.988.014 1.578.007 3.157.007 4.893-.81-.367-1.551-.698-2.29-1.035-.006.003 0 .017 0 .017zM32.823 30.833c-.212.159-.417.435-.64.449-.256.016-.519-.162-.519-.55s.253-.557.52-.553c.208.003.413.253.618.394l.02.26z"/>
</svg>
