<svg width="16" height="16" viewBox="0 0 16 16" fill="none" xmlns="http://www.w3.org/2000/svg">
<g clip-path="url(#clip0_1152_5618)">
<path d="M7.5 0C3.4 0 0 3.4 0 7.5C0 11.7 3.4 15 7.5 15C11.6 15 15 11.6 15 7.5C15.1 3.4 11.7 0 7.5 0ZM11.9 5.9L6.7 11.1C6.5 11.3 6.2 11.4 6 11.4C5.8 11.4 5.5 11.3 5.3 11.1L2.9 8.7C2.5 8.3 2.5 7.7 2.9 7.3C3.3 6.9 3.9 6.9 4.3 7.3L6 9L10.5 4.5C10.9 4.1 11.5 4.1 11.9 4.5C12.3 4.9 12.2 5.5 11.9 5.9Z" fill="white"/>
</g>
<defs>
<clipPath id="clip0_1152_5618">
<rect width="15.1" height="15.1" fill="white"/>
</clipPath>
</defs>
</svg>
