<svg width="62" height="62" viewBox="0 0 62 62" fill="none" xmlns="http://www.w3.org/2000/svg">
<g clip-path="url(#clip0_2758_8961)">
<path d="M15.3871 25.2893C20.7581 25.2893 25.9798 25.2893 31.2016 25.2893C31.2016 24.9848 31.2016 24.6802 31.2016 24.3756C31.2016 21.7868 31.2016 19.198 31.2016 16.7614C31.2016 16.3046 31.2016 16 31.7984 16C36.871 16 41.9435 16 47.0161 16C47.1653 16 47.3145 16 47.4637 16C47.4637 25.1371 47.4637 34.2741 47.4637 43.4112C48.3589 43.4112 49.1048 43.4112 50 43.4112C50 44.3249 50 45.0863 50 45.8477C37.6169 45.8477 25.3831 45.8477 13 45.8477C13 45.0863 13 44.3249 13 43.4112C13.746 43.4112 14.4919 43.4112 15.3871 43.4112C15.3871 37.4721 15.3871 31.533 15.3871 25.2893ZM25.8306 37.3198C24.3387 37.3198 22.8468 37.3198 21.3548 37.3198C21.3548 39.4518 21.3548 41.4315 21.3548 43.5635C22.8468 43.5635 24.3387 43.5635 25.8306 43.5635C25.8306 41.4315 25.8306 39.2995 25.8306 37.3198ZM41.6452 43.5635C41.6452 41.4315 41.6452 39.4518 41.6452 37.3198C40.1532 37.3198 38.6613 37.3198 37.1694 37.3198C37.1694 39.4518 37.1694 41.4315 37.1694 43.5635C38.6613 43.5635 40.1532 43.5635 41.6452 43.5635ZM42.2419 22.7005C42.2419 23.7665 42.2419 24.8325 42.2419 26.0508C43.2863 26.0508 44.3306 26.0508 45.375 26.0508C45.375 24.9848 45.375 23.9188 45.375 22.7005C44.3306 22.7005 43.2863 22.7005 42.2419 22.7005ZM42.0927 31.2284C42.0927 32.2944 42.0927 33.3604 42.0927 34.4264C43.1371 34.4264 44.1815 34.4264 45.375 34.4264C45.375 33.3604 45.375 32.2944 45.375 31.2284C44.3306 31.2284 43.2863 31.2284 42.0927 31.2284ZM36.871 25.8985C36.871 24.8325 36.871 23.9188 36.871 23.0051C36.871 22.8528 36.5726 22.5482 36.5726 22.5482C35.6774 22.5482 34.6331 22.5482 33.7379 22.5482C33.7379 23.7665 33.7379 24.8325 33.7379 25.8985C34.6331 25.8985 35.6774 25.8985 36.871 25.8985ZM41.0484 22.7005C40.004 22.7005 38.9597 22.7005 37.7661 22.7005C37.7661 23.7665 37.7661 24.6802 37.7661 25.5939C37.7661 25.7462 37.9153 26.0508 38.0645 26.0508C39.1089 26.0508 40.004 26.0508 41.0484 26.0508C41.0484 24.8325 41.0484 23.7665 41.0484 22.7005ZM36.7218 31.2284C35.6774 31.2284 34.7823 31.2284 33.8871 31.2284C33.7379 31.2284 33.4395 31.533 33.4395 31.6853C33.4395 32.599 33.4395 33.5127 33.4395 34.5787C34.6331 34.5787 35.6774 34.5787 36.7218 34.5787C36.7218 33.3604 36.7218 32.2944 36.7218 31.2284ZM37.7661 34.5787C38.9597 34.5787 40.004 34.5787 41.0484 34.5787C41.0484 33.5127 41.0484 32.4467 41.0484 31.2284C40.1532 31.2284 39.1089 31.2284 38.2137 31.2284C38.0645 31.2284 37.7661 31.533 37.7661 31.6853C37.7661 32.599 37.7661 33.5127 37.7661 34.5787ZM36.7218 21.6345C36.7218 20.4162 36.7218 19.3503 36.7218 18.4365C35.6774 18.4365 34.6331 18.4365 33.5887 18.4365C33.5887 19.5025 33.5887 20.5685 33.5887 21.6345C34.6331 21.6345 35.6774 21.6345 36.7218 21.6345ZM37.9153 21.6345C39.1089 21.6345 40.1532 21.6345 41.0484 21.6345C41.0484 20.5685 41.0484 19.5025 41.0484 18.4365C40.004 18.4365 38.9597 18.4365 37.9153 18.4365C37.9153 19.5025 37.9153 20.5685 37.9153 21.6345ZM45.375 21.6345C45.375 20.5685 45.375 19.5025 45.375 18.4365C44.3306 18.4365 43.2863 18.4365 42.2419 18.4365C42.2419 19.5025 42.2419 20.5685 42.2419 21.6345C43.2863 21.6345 44.3306 21.6345 45.375 21.6345ZM33.5887 26.9645C33.5887 28.0305 33.5887 29.0964 33.5887 30.1624C34.6331 30.1624 35.6774 30.1624 36.7218 30.1624C36.7218 29.0964 36.7218 28.0305 36.7218 26.9645C35.6774 26.9645 34.6331 26.9645 33.5887 26.9645ZM37.9153 30.1624C39.1089 30.1624 40.1532 30.1624 41.0484 30.1624C41.0484 29.0964 41.0484 28.0305 41.0484 26.9645C40.004 26.9645 38.9597 26.9645 37.9153 26.9645C37.9153 28.0305 37.9153 29.0964 37.9153 30.1624ZM42.2419 26.9645C42.2419 28.1827 42.2419 29.2487 42.2419 30.1624C43.2863 30.1624 44.3306 30.1624 45.375 30.1624C45.375 29.0964 45.375 28.0305 45.375 26.9645C44.3306 26.9645 43.2863 26.9645 42.2419 26.9645ZM17.625 30.7716C18.6694 30.7716 19.7137 30.7716 20.7581 30.7716C20.7581 29.7056 20.7581 28.6396 20.7581 27.5736C19.7137 27.5736 18.6694 27.5736 17.625 27.5736C17.625 28.6396 17.625 29.7056 17.625 30.7716ZM25.2339 27.5736C24.0403 27.5736 23.1452 27.5736 22.1008 27.5736C21.9516 28.6396 21.9516 29.7056 21.9516 30.7716C22.996 30.7716 24.0403 30.7716 25.0847 30.7716C25.2339 29.7056 25.2339 28.6396 25.2339 27.5736ZM29.4113 27.5736C28.3669 27.5736 27.3226 27.5736 26.129 27.5736C26.129 28.6396 26.129 29.7056 26.129 30.7716C27.1734 30.7716 28.2177 30.7716 29.4113 30.7716C29.4113 29.7056 29.4113 28.6396 29.4113 27.5736ZM20.9073 35.0355C20.9073 33.8173 20.9073 32.7513 20.9073 31.6853C19.8629 31.6853 18.8185 31.6853 17.7742 31.6853C17.7742 32.7513 17.7742 33.8173 17.7742 35.0355C18.8185 35.0355 19.7137 35.0355 20.9073 35.0355ZM25.0847 35.0355C25.0847 33.8173 25.0847 32.7513 25.0847 31.8376C24.0403 31.8376 22.996 31.8376 21.9516 31.8376C21.9516 32.9036 21.9516 33.9695 21.9516 35.0355C22.996 35.0355 24.0403 35.0355 25.0847 35.0355ZM26.2782 31.8376C26.2782 32.9036 26.2782 33.9695 26.2782 35.1878C27.3226 35.1878 28.3669 35.1878 29.4113 35.1878C29.4113 34.1218 29.4113 33.0558 29.4113 31.8376C28.3669 31.8376 27.3226 31.8376 26.2782 31.8376Z" fill="#469073"/>
</g>
<defs>
<clipPath id="clip0_2758_8961">
<rect width="37" height="30" fill="white" transform="translate(13 16)"/>
</clipPath>
</defs>
</svg>
