<svg width="47" height="43" viewBox="0 0 47 43" fill="none" xmlns="http://www.w3.org/2000/svg">
<g clip-path="url(#clip0_1908_7532)">
<path d="M32.0036 26.6138C32.6738 27.9263 33.1765 29.2388 33.9584 30.3559C34.7962 31.5847 35.2151 32.9251 35.2989 34.3494C35.3268 34.88 35.2709 35.4943 34.9917 35.9412C32.4783 40.158 28.6803 42.3363 23.8212 42.2804C18.8782 42.2525 14.9964 40.0463 12.8182 35.5502C12.3155 34.489 12.7903 32.7855 13.2091 31.5009C13.6839 30.0208 14.6055 28.7082 15.3595 27.3119C15.4991 27.0606 15.7225 26.7813 15.9739 26.6696C20.8051 24.6031 25.6922 23.9887 30.6352 26.2787C31.1099 26.5021 31.6405 26.53 32.0036 26.6138ZM14.7172 32.227C15.3036 35.3268 18.3197 38.2311 21.4195 38.7338C22.6203 34.7124 19.6043 31.3333 14.7172 32.227ZM26.5021 38.7338C29.7695 38.1473 32.981 34.9358 33.0648 32.199C28.4569 31.3892 25.4688 34.3214 26.5021 38.7338ZM23.9887 30.9703C25.022 31.1378 25.6922 30.8865 25.7201 29.6577C25.7481 28.2893 24.9382 27.9542 23.7932 27.9822C22.9554 28.0101 22.0897 28.038 22.1456 29.2668C22.1735 30.5514 22.6203 31.2495 23.9887 30.9703Z" fill="#006B5B"/>
<path d="M35.9691 26.5859C34.7403 25.6085 32.953 25.8039 31.9756 24.1842C28.2893 18.208 19.4367 18.4035 15.6666 24.4914C15.3036 25.0499 15.0243 25.385 14.2424 25.4968C13.4046 25.6085 12.6506 26.2508 11.7849 26.6976C11.6732 22.2294 17.2026 17.3423 22.7599 16.7837C28.7361 16.1694 35.1871 20.8331 35.9691 26.5859Z" fill="#006B5B"/>
<path d="M33.2323 25.9157C33.7908 26.3066 34.2935 26.7814 34.9079 27.0327C35.2988 27.2003 35.9691 27.2561 36.2763 27.0327C36.5555 26.8372 36.6393 26.1391 36.4997 25.7481C36.1366 24.631 35.634 23.5419 35.0475 22.1177C36.388 22.7321 37.533 23.2068 38.5942 23.7933C39.7671 24.4356 39.7112 25.7202 39.7391 26.7814C39.8508 29.6019 39.8229 32.4504 39.7671 35.2989C39.7112 37.4213 38.5104 38.8176 36.4438 39.7113C36.2483 37.7285 35.9412 35.8574 35.8853 33.9864C35.8294 32.1432 34.7682 30.8028 33.9584 29.2947C33.4278 28.3173 33.0647 27.284 32.6179 26.2787C32.8413 26.1391 33.0368 26.0274 33.2323 25.9157Z" fill="#006B5B"/>
<path d="M12.511 22.3411C12.0083 23.5698 11.5056 24.6589 11.1705 25.776C11.0588 26.167 11.1705 26.8931 11.4498 27.0885C11.7569 27.3119 12.4272 27.2282 12.8181 27.0606C13.4325 26.7813 13.9352 26.3345 14.6334 25.8598C14.7451 26.3066 14.9126 26.5579 14.8568 26.7813C14.8009 27.1444 14.6892 27.5354 14.4658 27.8146C12.1479 30.8865 11.5894 34.4611 11.4777 38.1753C11.4777 38.6221 11.338 39.0969 11.2263 39.6833C9.55076 38.9293 8.322 37.8681 8.2103 36.025C8.09859 32.9531 8.07067 29.8812 8.01482 26.8093C7.95896 24.6589 9.07602 23.3464 11.1146 22.76C11.5335 22.6203 11.9524 22.5086 12.511 22.3411Z" fill="#006B5B"/>
<path d="M9.29947 15.946C8.01485 19.0737 6.81402 21.978 5.58526 24.8544C5.47356 25.1337 4.99881 25.385 4.6637 25.413C3.1836 25.4409 1.70351 25.413 0 25.413C0.5306 24.2959 1.00535 23.3185 1.4801 22.369C2.37374 20.5538 3.29531 18.7386 4.16102 16.8954C4.49614 16.1414 4.94296 15.8901 5.75282 15.946C6.84195 15.9739 7.959 15.946 9.29947 15.946Z" fill="#006B5B"/>
<path d="M47 25.4129C45.2406 25.4129 43.6768 25.4409 42.1129 25.385C41.8616 25.385 41.4985 25.1337 41.4147 24.9103C40.1581 21.978 38.9572 19.0457 37.6726 15.918C39.1806 15.918 40.4932 15.8901 41.8057 15.9459C42.057 15.9459 42.4201 16.1973 42.5318 16.4207C44.0119 19.3529 45.4641 22.2852 47 25.4129Z" fill="#006B5B"/>
<path d="M13.1254 6.84197C12.1759 9.104 11.366 11.1426 10.4445 13.1533C10.3328 13.4326 9.80215 13.656 9.46704 13.656C8.32206 13.7118 7.14915 13.6839 5.78076 13.6839C6.84196 11.4777 7.81938 9.41119 8.88058 7.37257C9.02021 7.0933 9.52289 6.89782 9.88593 6.86989C10.8634 6.78612 11.8408 6.84197 13.1254 6.84197Z" fill="#006B5B"/>
<path d="M41.1355 13.6001C36.8348 13.9073 36.8348 13.9073 35.243 10.1931C34.7962 9.15985 34.3773 8.09865 33.8467 6.84197C35.1592 6.84197 36.2483 6.78612 37.3654 6.86989C37.6447 6.89782 38.0077 7.20501 38.1473 7.48427C39.1527 9.46704 40.1022 11.4777 41.1355 13.6001Z" fill="#006B5B"/>
<path d="M9.96973 5.19432C10.8354 3.43496 11.5615 1.89901 12.3435 0.390992C12.4552 0.167581 12.9578 0.0558762 13.293 0.0279499C14.1307 -0.0279027 14.9685 2.35723e-05 16.0297 2.35723e-05C15.3316 1.6756 14.7172 3.23948 14.019 4.77542C13.9353 4.97091 13.6001 5.13847 13.3488 5.16639C12.3155 5.19432 11.2543 5.19432 9.96973 5.19432Z" fill="#006B5B"/>
<path d="M30.9982 0.083782C34.3773 -0.139629 34.3773 -0.139629 35.8015 2.73678C36.1645 3.46287 36.4997 4.21688 36.9744 5.1943C35.7456 5.1943 34.7403 5.25015 33.7349 5.16637C33.3998 5.13845 32.9809 4.83126 32.8413 4.52407C32.2549 3.32324 31.7801 2.06655 31.2495 0.837793C31.1657 0.614382 31.1099 0.390972 30.9982 0.083782Z" fill="#006B5B"/>
</g>
<defs>
<clipPath id="clip0_1908_7532">
<rect width="47" height="42.3084" fill="white"/>
</clipPath>
</defs>
</svg>
