<svg width="62" height="62" viewBox="0 0 62 62" fill="none" xmlns="http://www.w3.org/2000/svg">
<path fill-rule="evenodd" clip-rule="evenodd" d="M32.2406 25.7148C35.5173 25.7148 38.7944 25.7344 42.0708 25.6991C42.7824 25.6915 43.0004 25.8924 42.9847 26.6083C42.9396 28.6775 42.9468 30.7487 42.9818 32.8182C42.9929 33.4588 42.7729 33.6292 42.1537 33.6274C35.5701 33.6088 28.9864 33.6077 22.4027 33.6281C21.6913 33.6304 21.4585 33.3947 21.4713 32.6902C21.5076 30.6807 21.5139 28.6694 21.4682 26.6604C21.4516 25.9304 21.6382 25.6802 22.4103 25.6901C25.6865 25.7319 28.9636 25.7079 32.2404 25.7079C32.2406 25.7101 32.2406 25.7125 32.2406 25.7148Z" fill="#C5C5C5"/>
<path fill-rule="evenodd" clip-rule="evenodd" d="M32.268 48.5881C29.1386 48.5881 26.0089 48.5688 22.8799 48.6035C22.1934 48.611 22.0164 48.3954 22.0209 47.7319C22.0482 43.6177 22.0483 39.5035 22.0207 35.3893C22.0162 34.7207 22.2042 34.5179 22.8844 34.5206C29.1132 34.5448 35.3419 34.545 41.5707 34.5203C42.2568 34.5176 42.4326 34.7312 42.4282 35.3938C42.4008 39.5078 42.4002 43.6222 42.4286 47.7364C42.4331 48.4064 42.2458 48.6105 41.566 48.6031C38.4668 48.5692 35.3674 48.5881 32.268 48.5881ZM31.9897 46.0678C33.9447 46.0678 35.8998 46.0678 37.8552 46.0678C40.4964 46.0678 40.4825 46.0679 40.4563 43.4252C40.4508 42.8704 40.3367 42.622 39.7118 42.6247C34.5985 42.6452 29.4851 42.6418 24.3716 42.6276C23.8404 42.6259 23.5988 42.7691 23.632 43.3374C23.6706 43.9955 23.6743 44.66 23.6311 45.3175C23.5912 45.9201 23.8298 46.0845 24.4099 46.0786C26.9362 46.053 29.463 46.0676 31.9897 46.0678ZM32.2369 35.063C30.1642 35.063 28.0916 35.0629 26.0192 35.063C23.6128 35.0634 23.6441 35.0638 23.6226 37.4459C23.6159 38.1819 23.8621 38.3445 24.5502 38.3408C29.3861 38.3153 34.2223 38.3273 39.0585 38.3273C40.6044 38.3273 40.6009 38.3273 40.6358 36.7521C40.6416 36.4851 40.656 36.2093 40.727 35.9542C40.9138 35.2813 40.6983 35.043 39.9865 35.0515C37.4037 35.0818 34.8201 35.0634 32.2369 35.063ZM32.1372 38.8485C30.0639 38.8485 27.9906 38.8485 25.9173 38.8485C23.6268 38.8485 23.6683 38.8494 23.619 41.155C23.6009 41.9957 23.9038 42.132 24.6545 42.127C29.1916 42.0954 33.729 42.1113 38.2661 42.1113C40.6611 42.1113 40.6389 42.1113 40.6298 39.6448C40.6275 39.0029 40.4158 38.8302 39.7995 38.8371C37.2458 38.8649 34.6915 38.8488 32.1372 38.8485Z" fill="#C5C5C5"/>
<path fill-rule="evenodd" clip-rule="evenodd" d="M32.2187 24.9958C28.9389 24.9958 25.6589 24.9789 22.3791 25.0095C21.6895 25.0158 21.4397 24.8503 21.4485 24.1115C21.4749 21.9064 21.4415 21.9062 23.673 21.9076C29.8416 21.9118 36.0104 21.9267 42.179 21.9046C42.9024 21.902 43.172 22.0609 43.1592 22.8397C43.1234 24.9953 43.1594 24.9958 40.9752 24.9958C38.0564 24.9958 35.1378 24.9958 32.2187 24.9958Z" fill="#C5C5C5"/>
<path fill-rule="evenodd" clip-rule="evenodd" d="M30.8335 21.205C27.9474 21.205 25.0615 21.2097 22.1755 21.1992C21.8243 21.198 21.2693 21.3653 21.3322 20.7306C21.3793 20.2554 20.8987 19.5329 21.8455 19.361C22.5482 19.2333 22.3631 18.6601 22.3572 18.2079C22.3494 17.6217 21.88 17.787 21.5549 17.7781C20.8338 17.7587 20.1114 17.7527 19.3909 17.7776C18.9159 17.794 18.7602 17.5993 18.7667 17.1406C18.7865 15.7607 18.7878 14.3803 18.7716 13.0002C18.7663 12.5454 18.9162 12.356 19.3934 12.359C21.7382 12.3744 24.0833 12.3736 26.4281 12.3592C26.8924 12.3563 27.0678 12.5211 27.0615 12.9889C27.0425 14.3987 27.0427 15.8092 27.0606 17.2191C27.0676 17.7814 26.7974 17.9501 26.282 17.9366C25.531 17.9171 24.7783 17.9503 24.0275 17.9267C23.5133 17.9104 23.4302 18.1862 23.4504 18.6064C23.4772 19.1621 23.8252 18.9256 24.0873 18.8739C26.611 18.3755 29.1402 17.9011 31.6524 17.3507C32.3088 17.2071 32.5004 17.2949 32.5107 17.9807C32.5456 20.2882 32.5665 20.3055 34.923 20.2785C36.5115 20.2603 38.0995 20.1799 39.6879 20.1355C40.0415 20.1258 40.4244 20.0595 40.4434 20.6312C40.4636 21.2412 40.0782 21.2066 39.672 21.2063C36.7258 21.2037 33.7797 21.2048 30.8335 21.205ZM22.9017 13.0828C22.9017 13.0864 22.9017 13.09 22.9017 13.0936C22.0292 13.0936 21.1561 13.1098 20.2842 13.0869C19.8173 13.0747 19.6378 13.251 19.6504 13.7176C19.6732 14.5578 19.6795 15.3998 19.649 16.2396C19.6295 16.7784 19.8823 16.8994 20.3595 16.888C21.3219 16.8653 22.2854 16.8992 23.2478 16.8763C24.1745 16.8543 25.3968 17.2707 25.9514 16.7188C26.5906 16.083 26.0688 14.8367 26.1741 13.8633C26.2458 13.199 25.9384 13.0433 25.3384 13.0729C24.5278 13.1131 23.7139 13.0828 22.9017 13.0828Z" fill="#C5C5C5"/>
<path fill-rule="evenodd" clip-rule="evenodd" d="M20.9265 30.6236C20.9211 31.8144 20.9227 31.8071 19.8643 31.5613C17.916 31.1086 15.9702 30.6412 14.0125 30.2331C13.4593 30.1178 13.2407 29.8277 13.2026 29.3349C13.1791 29.0303 13.2909 28.8109 13.6702 28.8507C15.8367 29.0784 18.0029 29.3084 20.171 29.519C20.9923 29.5988 20.9843 30.1437 20.9265 30.6236Z" fill="#C5C5C5"/>
<path fill-rule="evenodd" clip-rule="evenodd" d="M43.4852 30.7468C43.3593 30.1294 43.7227 29.8183 44.1777 29.5135C45.6677 28.5157 47.1466 27.5011 48.6167 26.4743C48.9192 26.2629 49.1807 26.1783 49.5223 26.3633C49.9198 26.5785 50.1023 26.7458 49.6184 27.1088C48.1131 28.2383 46.6328 29.4006 45.145 30.5534C44.8853 30.7545 44.6583 31.008 44.3765 31.1679C44.1347 31.305 43.921 31.6985 43.6275 31.4986C43.4781 31.3968 43.5264 31.0067 43.4852 30.7468Z" fill="#C5C5C5"/>
<path fill-rule="evenodd" clip-rule="evenodd" d="M32.0314 45.3424C29.6576 45.3424 27.2839 45.3455 24.9102 45.3379C24.6606 45.337 24.2862 45.4446 24.2414 45.0713C24.1744 44.5147 24.0599 43.9227 24.3229 43.3971C24.4776 43.0874 24.8604 43.1923 25.1503 43.2172C25.2809 43.2284 25.4828 43.3216 25.5153 43.4218C25.8689 44.5161 26.7809 44.2095 27.5523 44.2537C27.812 44.2685 28.0853 44.1817 28.1657 43.9544C28.4714 43.0906 29.16 43.1788 29.8582 43.1819C32.9231 43.1952 35.9884 43.2204 39.0522 43.1669C39.9336 43.1516 39.9393 43.5871 39.9139 44.2144C39.8897 44.8058 40.0622 45.3927 39.0619 45.3642C36.72 45.2972 34.3751 45.3426 32.0314 45.3424Z" fill="#C5C5C5"/>
<path fill-rule="evenodd" clip-rule="evenodd" d="M32.0671 37.7704C29.6915 37.77 27.3156 37.774 24.9402 37.7684C23.7532 37.7657 24.2948 36.8527 24.2125 36.3067C24.1126 35.646 24.5974 35.6019 25.0904 35.6311C25.2799 35.6424 25.4228 35.7134 25.5476 35.8688C26.4834 37.034 27.5568 37.0497 28.4673 35.8878C28.6741 35.6237 28.906 35.6166 29.1753 35.6166C32.5131 35.6163 35.8514 35.6262 39.189 35.6067C39.7388 35.6035 39.9117 35.7837 39.9193 36.3308C39.9393 37.7707 39.9642 37.7705 38.5625 37.7705C36.3974 37.7707 34.2322 37.7707 32.0671 37.7704Z" fill="#C5C5C5"/>
<path fill-rule="evenodd" clip-rule="evenodd" d="M32.087 41.556C29.7112 41.5557 27.3353 41.5535 24.9597 41.5566C23.7777 41.5582 24.2907 40.6619 24.2092 40.1105C24.1135 39.4614 24.5632 39.3828 25.0713 39.4135C25.3001 39.4272 25.4488 39.522 25.583 39.7151C26.3259 40.7842 27.7023 40.819 28.4102 39.7686C28.6119 39.4694 28.8335 39.3991 29.1549 39.3994C32.5228 39.405 35.8913 39.4117 39.2593 39.3946C39.7939 39.3917 39.951 39.6138 39.9097 40.0958C39.8893 40.3341 39.8826 40.5787 39.9108 40.8152C39.9841 41.4295 39.69 41.5724 39.124 41.5668C36.7785 41.5421 34.4327 41.5564 32.087 41.556Z" fill="#C5C5C5"/>
</svg>
