<svg width="38" height="43" viewBox="0 0 38 43" fill="none" xmlns="http://www.w3.org/2000/svg">
<g clip-path="url(#clip0_1908_7529)">
<path d="M0 42.6179C5.8652 35.6006 11.7304 28.5738 17.6813 21.4422C12.9301 21.4422 8.29316 21.4422 3.51341 21.4422C4.20847 20.5948 4.80832 19.8617 5.40817 19.1285C10.5783 12.8444 15.7484 6.56978 20.9376 0.295164C21.0709 0.142821 21.328 0 21.5184 0C26.0316 0 30.5352 0 35.0388 0C35.1436 0 35.2483 0.0190428 35.4292 0.0476071C31.3445 5.00827 27.2979 9.92132 23.1847 14.9201C28.1834 14.9201 33.0774 14.9201 37.9619 14.9201C37.9714 14.9582 37.9905 14.9867 38 15.0248C25.3556 24.2511 12.7111 33.4773 0.06665 42.6941C0.0476071 42.675 0.0190428 42.6465 0 42.6179Z" fill="#006B5B"/>
</g>
<defs>
<clipPath id="clip0_1908_7529">
<rect width="38" height="42.6941" fill="white"/>
</clipPath>
</defs>
</svg>
