<svg width="55" height="34" viewBox="0 0 55 34" fill="none" xmlns="http://www.w3.org/2000/svg">
<g clip-path="url(#clip0_1908_7531)">
<path d="M7.05994 6.40754C5.10273 6.40754 3.13387 6.40754 1.17666 6.40754C0.244652 6.40754 0.0116501 6.16289 0.0116501 5.24253C0 3.84452 0 2.44652 0 1.04851C0 0.314552 0.279602 0.0116501 1.01356 0C5.06778 0 9.13366 0 13.1879 0C13.8985 0 14.1781 0.314552 14.1898 1.06016C14.1898 2.45817 14.1898 3.85617 14.1898 5.25418C14.1898 6.15124 13.9451 6.40754 13.0597 6.40754C11.0559 6.40754 9.05211 6.40754 7.05994 6.40754Z" fill="#006B5B"/>
<path d="M47.8585 6.40754C45.9013 6.40754 43.9324 6.40754 41.9752 6.40754C41.0432 6.40754 40.8102 6.16289 40.8102 5.21923C40.8102 3.84452 40.8102 2.45817 40.8102 1.08346C40.8102 0.291252 41.1014 0 41.9053 0C45.9013 0 49.8972 0 53.9049 0C54.7204 0 55 0.279602 55 1.07181C55 2.50477 55 3.94938 55 5.38233C55 6.11629 54.7204 6.39589 53.9748 6.40754C51.936 6.40754 49.8972 6.40754 47.8585 6.40754Z" fill="#006B5B"/>
<path d="M7.04829 33.7502C5.09108 33.7502 3.13387 33.7502 1.17666 33.7502C0.267952 33.7502 0 33.4706 0 32.5736C0 31.1756 0 29.7776 0 28.3796C0 27.6107 0.267952 27.3194 1.04851 27.3194C5.07943 27.3078 9.11036 27.3078 13.1529 27.3194C13.9218 27.3194 14.1781 27.6107 14.1781 28.4029C14.1781 29.8242 14.1781 31.2338 14.1781 32.6551C14.1781 33.4473 13.8869 33.7502 13.0947 33.7619C11.0909 33.7502 9.07541 33.7502 7.04829 33.7502Z" fill="#006B5B"/>
<path d="M47.8702 33.7503C45.913 33.7503 43.9558 33.7503 41.9986 33.7503C41.1015 33.7503 40.8219 33.459 40.8219 32.562C40.8219 31.1873 40.8219 29.8126 40.8219 28.4262C40.8219 27.5991 41.0782 27.3078 41.8821 27.3078C45.913 27.2962 49.9556 27.2962 53.9865 27.3078C54.7321 27.3078 55 27.5991 55.0117 28.333C55.0117 29.7893 55.0117 31.2455 55.0117 32.7018C55.0117 33.4241 54.7204 33.7387 53.9981 33.7387C51.9477 33.7503 49.909 33.7503 47.8702 33.7503Z" fill="#006B5B"/>
<path d="M40.7752 16.8227C40.7752 17.8362 40.7636 18.8382 40.7869 19.8517C40.7985 20.3177 40.6238 20.4692 40.1694 20.4575C38.7714 20.4342 37.3734 20.4692 35.9754 20.4342C35.7773 20.4342 35.5793 20.2362 35.3812 20.1197C35.2181 20.0381 35.0667 19.91 34.8919 19.8634C32.5037 19.2459 30.1271 18.6285 27.7388 18.0343C27.3427 17.9411 27.2029 17.7896 27.2029 17.3702C27.2029 15.7392 27.1912 15.7392 28.7873 15.3315C30.8028 14.8189 32.8066 14.3179 34.8104 13.782C35.0317 13.7238 35.2181 13.5024 35.4395 13.3743C35.6026 13.2927 35.789 13.1995 35.9637 13.1995C37.385 13.1879 38.7947 13.1995 40.216 13.1879C40.6471 13.1879 40.7985 13.351 40.7869 13.7704C40.7636 14.8072 40.7752 15.8208 40.7752 16.8227Z" fill="#006B5B"/>
<path d="M9.37827 20.108C7.91036 20.108 6.4308 20.108 4.96289 20.108C4.46194 20.108 4.34544 19.6886 4.32214 19.3507C4.22894 18.0576 4.06584 16.7644 4.14739 15.4829C4.27554 13.6072 4.36874 13.6189 6.2211 13.6189C7.26961 13.6189 8.30647 13.6189 9.35497 13.6189C9.33167 13.6655 9.29672 13.7121 9.27342 13.7587C9.59962 14.015 9.89088 14.3179 10.2404 14.516C11.0559 14.9587 11.8947 15.3664 12.7335 15.7509C13.0946 15.914 13.1529 16.1353 13.2111 16.4965C13.3393 17.4285 13.0247 17.9644 12.1277 18.2789C11.417 18.5352 10.753 18.908 10.1006 19.2808C9.80933 19.4439 9.58797 19.7002 9.32002 19.9216C9.35497 19.9798 9.36662 20.0497 9.37827 20.108Z" fill="#006B5B"/>
<path d="M52.3088 11.5919C52.3321 11.3822 52.3437 11.2074 52.367 10.9861C52.7282 10.9861 53.0777 10.9861 53.4738 10.9861C53.4738 12.1511 53.4738 13.3277 53.4738 14.551C49.8506 14.551 46.2275 14.551 42.5693 14.551C42.5693 13.386 42.5693 12.2093 42.5693 10.9861C42.9072 10.9861 43.2567 10.9861 43.6528 10.9861C43.6761 11.1725 43.6994 11.3589 43.7227 11.5919C44.1304 11.5919 44.5382 11.5919 44.9809 11.5919C45.0159 11.3938 45.0508 11.1841 45.0858 10.9628C45.412 10.9628 45.7149 10.9628 46.0527 10.9628C46.0877 11.1725 46.1226 11.3822 46.1576 11.6152C46.577 11.6152 46.9964 11.6152 47.4274 11.6152C47.4507 11.3938 47.474 11.2074 47.4973 10.9861C47.8352 10.9861 48.1497 10.9861 48.4876 10.9861C48.5109 11.1841 48.5458 11.3705 48.5808 11.6035C49.0118 11.6035 49.4429 11.6035 49.8856 11.6035C49.9089 11.4055 49.9322 11.2074 49.9555 10.9861C50.2933 10.9861 50.6079 10.9861 50.9457 10.9861C50.969 11.1841 51.004 11.3705 51.0389 11.6035C51.435 11.5919 51.8428 11.5919 52.3088 11.5919Z" fill="#006B5B"/>
<path d="M51.0157 22.1118C50.9924 22.3448 50.9691 22.5312 50.9341 22.7525C50.5963 22.7525 50.2817 22.7525 49.9439 22.7525C49.9206 22.5428 49.8973 22.3564 49.8623 22.1234C49.4429 22.1234 49.0352 22.1234 48.5692 22.1234C48.5342 22.3215 48.5109 22.5195 48.4643 22.7525C48.1381 22.7525 47.8236 22.7525 47.4857 22.7525C47.4624 22.5428 47.4391 22.3564 47.4042 22.1234C46.9964 22.1234 46.577 22.1234 46.1226 22.1234C46.0877 22.3215 46.0644 22.5312 46.0294 22.7525C45.7032 22.7525 45.4003 22.7525 45.0625 22.7525C45.0275 22.5545 44.9926 22.3448 44.946 22.1118C44.5499 22.1118 44.1538 22.1118 43.7111 22.1118C43.6761 22.3098 43.6528 22.5079 43.6062 22.7409C43.2684 22.7409 42.9305 22.7409 42.5344 22.7409C42.5344 21.5759 42.5344 20.3992 42.5344 19.1876C46.1576 19.1876 49.7808 19.1876 53.4389 19.1876C53.4389 20.3759 53.4389 21.5409 53.4389 22.7409C53.0661 22.7409 52.7282 22.7409 52.3554 22.7409C52.3205 22.5195 52.2855 22.3215 52.2506 22.0885C51.8778 22.1118 51.47 22.1118 51.0157 22.1118Z" fill="#006B5B"/>
<path d="M43.1169 18.5936C43.1169 17.3936 43.1169 16.2286 43.1169 15.0403C46.379 15.0403 49.606 15.0403 52.8797 15.0403C52.8797 16.2169 52.8797 17.3819 52.8797 18.5936C49.641 18.5936 46.4023 18.5936 43.1169 18.5936ZM52.169 16.8926C52.1807 16.4616 51.8545 16.1354 51.4001 16.1237C50.9341 16.1121 50.6079 16.4033 50.5846 16.8344C50.573 17.2654 50.8875 17.5916 51.3419 17.6033C51.7962 17.6149 52.1457 17.312 52.169 16.8926Z" fill="#006B5B"/>
<path d="M26.1078 15.9839C26.1078 16.5664 26.1078 17.1139 26.1078 17.7197C22.1584 17.7197 18.2207 17.7197 14.248 17.7197C14.248 17.1605 14.248 16.5897 14.248 15.9839C18.1974 15.9839 22.1351 15.9839 26.1078 15.9839Z" fill="#006B5B"/>
<path d="M8.0152 12.8151C7.39775 12.8151 6.79195 12.8151 6.16284 12.8151C6.16284 10.9511 6.16284 9.12207 6.16284 7.25806C6.79195 7.25806 7.3861 7.25806 8.0152 7.25806C8.0152 9.12207 8.0152 10.9511 8.0152 12.8151Z" fill="#006B5B"/>
<path d="M6.16284 26.4457C6.16284 24.5933 6.16284 22.7642 6.16284 20.9119C6.79195 20.9119 7.3861 20.9119 8.0152 20.9119C8.0152 22.7642 8.0152 24.5816 8.0152 26.4457C7.4094 26.4457 6.79195 26.4457 6.16284 26.4457Z" fill="#006B5B"/>
<path d="M47.1012 10.252C47.1012 9.25013 47.1012 8.29482 47.1012 7.30457C47.742 7.30457 48.3594 7.30457 49.0118 7.30457C49.0118 8.29482 49.0118 9.25013 49.0118 10.252C48.3711 10.252 47.7653 10.252 47.1012 10.252Z" fill="#006B5B"/>
<path d="M49.0002 23.4866C49.0002 24.4885 49.0002 25.4321 49.0002 26.4224C48.3711 26.4224 47.7537 26.4224 47.1129 26.4224C47.1129 25.4438 47.1129 24.4885 47.1129 23.4866C47.7304 23.4866 48.3362 23.4866 49.0002 23.4866Z" fill="#006B5B"/>
<path d="M42.6626 15.9839C42.6626 16.5897 42.6626 17.1372 42.6626 17.743C42.1733 17.743 41.6957 17.743 41.1947 17.743C41.1947 17.1605 41.1947 16.5897 41.1947 15.9839C41.684 15.9839 42.1384 15.9839 42.6626 15.9839Z" fill="#006B5B"/>
</g>
<defs>
<clipPath id="clip0_1908_7531">
<rect width="55" height="33.7503" fill="white"/>
</clipPath>
</defs>
</svg>
