<svg width="56" height="46" viewBox="0 0 56 46" fill="none" xmlns="http://www.w3.org/2000/svg">
<g clip-path="url(#clip0_1908_7528)">
<path d="M30.2168 21.0388L28.5507 19.5138L21.0388 27.0256L22.8462 28.72C23.2698 29.1154 23.8063 29.3413 24.3711 29.3131C24.9359 29.3131 25.4725 29.0589 25.8679 28.6636L30.3016 24.0322C31.0923 23.185 31.064 21.8577 30.2168 21.0388Z" fill="#006B5B"/>
<path d="M25.8114 16.944C25.4161 16.5486 24.8795 16.351 24.3429 16.351C24.3147 16.351 24.3147 16.351 24.2865 16.351C23.7217 16.351 23.1851 16.6051 22.7897 17.0005L18.3561 21.6318C17.9889 22.0272 17.763 22.5638 17.7913 23.1568C17.8195 23.7498 18.0454 24.2582 18.4408 24.6535L20.2199 26.2914L27.76 18.7514L25.8114 16.944Z" fill="#006B5B"/>
<path d="M32.2219 28.2682C31.7136 28.2682 31.2053 28.3247 30.6969 28.4659L31.0641 29.8215C31.4312 29.7367 31.8265 29.6802 32.2219 29.6802C34.7635 29.6802 36.825 31.7418 36.825 34.2834C36.825 36.825 34.7635 38.8865 32.2219 38.8865C30.7534 38.8865 29.3979 38.2087 28.5225 37.0227C28.4942 36.9944 28.466 36.9379 28.4377 36.9097C29.059 36.8532 29.6803 36.5708 30.1604 36.0907L34.8765 31.177C34.5093 30.6404 33.9445 30.471 33.5492 30.4427C33.2668 31.2899 32.4478 31.9112 31.4877 31.9112C30.2733 31.9112 29.3132 30.9228 29.3132 29.7367C29.3132 28.5789 30.2169 27.6187 31.3747 27.5622C33.8881 27.1951 35.7519 28.3812 36.7403 29.2284L37.7852 28.1553C38.8301 27.0539 38.8018 25.303 37.7005 24.2582L25.642 12.708C24.5406 11.6631 22.7897 11.6913 21.7448 12.7927L14.12 20.7282C13.0752 21.8295 13.1034 23.5804 14.2048 24.6253L26.2633 36.1755C26.3762 36.2884 26.4892 36.3731 26.6021 36.4579C26.7998 36.9662 27.054 37.4463 27.3929 37.8981C28.5225 39.4231 30.3298 40.3267 32.2219 40.3267C35.5542 40.3267 38.237 37.6157 38.237 34.3116C38.237 31.0075 35.526 28.2682 32.2219 28.2682ZM24.3147 30.4427C23.4675 30.4427 22.6768 30.1321 22.0837 29.539L17.65 25.4442C17.0288 24.8512 16.6616 24.0322 16.6616 23.1568C16.6334 22.2814 16.9723 21.4624 17.5653 20.8411L21.999 16.2098C22.592 15.5885 23.411 15.2213 24.2864 15.2213C25.1619 15.1931 25.9808 15.532 26.6021 16.125L31.0076 20.2198C32.3066 21.4624 32.3631 23.5239 31.1205 24.823L26.6869 29.4543C26.0938 30.0756 25.2748 30.4427 24.3994 30.4427C24.3712 30.4427 24.3429 30.4427 24.3147 30.4427Z" fill="#006B5B"/>
<path d="M46.5961 45.9183C41.4281 45.9183 37.1921 41.7106 37.1921 36.5144C37.1921 31.3182 41.3999 27.1105 46.5961 27.1105C51.7922 27.1105 56 31.3182 56 36.5144C56 41.7106 51.7922 45.9183 46.5961 45.9183ZM46.5961 28.5507C42.1906 28.5507 38.6041 32.1372 38.6041 36.5426C38.6041 40.9481 42.1906 44.5346 46.5961 44.5346C51.0015 44.5346 54.588 40.9481 54.588 36.5426C54.588 32.1372 51.0015 28.5507 46.5961 28.5507Z" fill="#006B5B"/>
<path d="M37.7852 38.5476C38.9237 38.5476 39.8467 37.6246 39.8467 36.4861C39.8467 35.3475 38.9237 34.4246 37.7852 34.4246C36.6466 34.4246 35.7236 35.3475 35.7236 36.4861C35.7236 37.6246 36.6466 38.5476 37.7852 38.5476Z" fill="#006B5B"/>
<path d="M41.0045 32.9278C41.0045 33.3514 41.0328 33.7468 41.0328 34.1704C41.0328 34.9329 41.061 35.6954 41.061 36.4578C41.061 36.6273 41.0892 36.6273 41.2587 36.599C42.3318 36.2319 43.4332 35.893 44.5063 35.5259C44.5628 35.4977 44.6192 35.4694 44.6475 35.413C44.6475 35.3847 44.591 35.3 44.5628 35.2718C44.2521 35.0458 43.9415 34.8199 43.6026 34.594C43.5744 34.5658 43.5461 34.5375 43.4614 34.5093C43.6591 34.3116 43.8285 34.0857 44.0544 33.9162C45.2405 32.8996 46.8784 32.7019 48.2904 33.4362C50.0413 34.3398 50.8038 36.6273 49.9284 38.3782C48.9964 40.2702 46.822 41.0327 44.9016 40.129C44.5628 39.9878 44.2239 40.0443 43.998 40.3267C43.8003 40.5809 43.8003 40.948 43.998 41.2022C44.1109 41.3434 44.2521 41.4281 44.4216 41.4846C46.3984 42.3035 48.234 42.0494 49.9001 40.7221C50.126 40.5244 50.3237 40.2985 50.5497 40.0726C50.5779 40.0443 50.5779 40.0443 50.6061 40.0161C50.7473 39.8466 50.8603 39.649 51.0015 39.4795C51.0015 39.4513 51.0297 39.423 51.0297 39.3948C51.1427 39.1406 51.2839 38.9147 51.3969 38.6606C52.2723 36.4578 51.5098 33.888 49.5612 32.5042C48.4881 31.77 47.302 31.4311 46.0312 31.5723C44.7887 31.7135 43.7156 32.2218 42.8401 33.1255C42.6707 33.295 42.5295 33.4926 42.36 33.6621C42.3318 33.6338 42.3036 33.6056 42.2471 33.5774C41.9364 33.3514 41.5976 33.1255 41.2587 32.8996C41.2022 32.8714 41.1457 32.8714 41.0892 32.8431C41.0328 32.8714 41.0328 32.8996 41.0045 32.9278Z" fill="#006B5B"/>
<path d="M20.1069 14.5154C20.1069 14.5154 19.2032 15.1084 18.6384 14.5154C18.0736 13.9223 4.3207 0.1412 4.3207 0.1412C4.3207 0.1412 3.0499 -0.45184 2.79574 0.790721C2.54158 2.03328 4.85726 3.58649 5.11142 3.81241C5.36558 4.03833 7.0035 4.63137 7.08822 5.42209C7.20118 6.21281 9.12151 7.62481 9.74279 7.87897C10.3923 8.13313 11.2677 9.71457 11.4372 10.3359C11.6066 10.9289 14.233 13.0469 14.233 13.0469C14.233 13.0469 14.3742 13.3293 14.0918 13.7811C13.8094 14.233 12.8492 14.1483 12.7362 13.8941C12.6233 13.6399 10.5617 11.6067 10.5617 11.6067C10.5617 11.6067 10.1381 9.77106 8.38727 8.83913C6.63638 7.90721 6.32574 7.48361 6.18454 7.00353C6.04334 6.49521 5.47854 5.53505 4.77254 5.22441C4.06654 4.91377 2.79574 3.84065 2.54158 3.30409C2.25918 2.76752 2.08974 1.2708 1.41197 1.72264C0.734214 2.17448 0.225893 2.90872 0.225893 2.90872C0.225893 2.90872 -0.536588 3.84065 0.790694 4.94201C2.11798 6.04337 15.6167 19.2032 15.6167 19.2032L20.1069 14.5154Z" fill="#006B5B"/>
</g>
<defs>
<clipPath id="clip0_1908_7528">
<rect width="56" height="45.9183" fill="white"/>
</clipPath>
</defs>
</svg>
