<svg width="56" height="46" viewBox="0 0 56 46" fill="none" xmlns="http://www.w3.org/2000/svg">
<g clip-path="url(#clip0_1908_7516)">
<path d="M30.2168 21.0389L28.5507 19.5139L21.0388 27.0258L22.8462 28.7202C23.2698 29.1155 23.8063 29.3415 24.3711 29.3132C24.9359 29.3132 25.4725 29.059 25.8679 28.6637L30.3016 24.0323C31.0923 23.1851 31.064 21.8578 30.2168 21.0389Z" fill="#C5C5C5"/>
<path d="M25.8114 16.9441C25.4161 16.5487 24.8795 16.351 24.3429 16.351C24.3147 16.351 24.3147 16.351 24.2865 16.351C23.7217 16.351 23.1851 16.6052 22.7897 17.0005L18.3561 21.6319C17.9889 22.0273 17.763 22.5638 17.7913 23.1569C17.8195 23.7499 18.0454 24.2582 18.4408 24.6536L20.2199 26.2915L27.76 18.7514L25.8114 16.9441Z" fill="#C5C5C5"/>
<path d="M32.2219 28.2683C31.7136 28.2683 31.2053 28.3248 30.6969 28.466L31.0641 29.8215C31.4312 29.7368 31.8265 29.6803 32.2219 29.6803C34.7635 29.6803 36.825 31.7418 36.825 34.2834C36.825 36.825 34.7635 38.8866 32.2219 38.8866C30.7534 38.8866 29.3979 38.2088 28.5225 37.0227C28.4942 36.9945 28.466 36.938 28.4377 36.9098C29.059 36.8533 29.6803 36.5709 30.1604 36.0908L34.8765 31.177C34.5093 30.6405 33.9445 30.471 33.5492 30.4428C33.2668 31.29 32.4478 31.9113 31.4877 31.9113C30.2733 31.9113 29.3132 30.9229 29.3132 29.7368C29.3132 28.579 30.2169 27.6188 31.3747 27.5623C33.8881 27.1952 35.7519 28.3813 36.7403 29.2285L37.7852 28.1553C38.8301 27.054 38.8018 25.3031 37.7005 24.2582L25.642 12.708C24.5406 11.6632 22.7897 11.6914 21.7448 12.7928L14.12 20.7282C13.0752 21.8296 13.1034 23.5805 14.2048 24.6253L26.2633 36.1755C26.3762 36.2885 26.4892 36.3732 26.6021 36.4579C26.7998 36.9662 27.054 37.4463 27.3929 37.8982C28.5225 39.4231 30.3298 40.3268 32.2219 40.3268C35.5542 40.3268 38.237 37.6158 38.237 34.3117C38.237 31.0076 35.526 28.2683 32.2219 28.2683ZM24.3147 30.4428C23.4675 30.4428 22.6768 30.1322 22.0837 29.5391L17.65 25.4443C17.0288 24.8513 16.6616 24.0323 16.6616 23.1569C16.6334 22.2814 16.9723 21.4625 17.5653 20.8412L21.999 16.2098C22.592 15.5885 23.411 15.2214 24.2864 15.2214C25.1619 15.1932 25.9808 15.532 26.6021 16.1251L31.0076 20.2199C32.3066 21.4625 32.3631 23.524 31.1205 24.823L26.6869 29.4544C26.0938 30.0757 25.2748 30.4428 24.3994 30.4428C24.3712 30.4428 24.3429 30.4428 24.3147 30.4428Z" fill="#C5C5C5"/>
<path d="M46.5961 45.9183C41.4281 45.9183 37.1921 41.7105 37.1921 36.5143C37.1921 31.3182 41.3999 27.1104 46.5961 27.1104C51.7922 27.1104 56 31.3182 56 36.5143C56 41.7105 51.7922 45.9183 46.5961 45.9183ZM46.5961 28.5507C42.1906 28.5507 38.6041 32.1371 38.6041 36.5426C38.6041 40.948 42.1906 44.5345 46.5961 44.5345C51.0015 44.5345 54.588 40.948 54.588 36.5426C54.588 32.1371 51.0015 28.5507 46.5961 28.5507Z" fill="#C5C5C5"/>
<path d="M37.7852 38.5477C38.9237 38.5477 39.8467 37.6247 39.8467 36.4861C39.8467 35.3476 38.9237 34.4246 37.7852 34.4246C36.6466 34.4246 35.7236 35.3476 35.7236 36.4861C35.7236 37.6247 36.6466 38.5477 37.7852 38.5477Z" fill="#C5C5C5"/>
<path d="M41.0045 32.9279C41.0045 33.3515 41.0328 33.7469 41.0328 34.1705C41.0328 34.9329 41.061 35.6954 41.061 36.4579C41.061 36.6273 41.0892 36.6273 41.2587 36.5991C42.3318 36.232 43.4332 35.8931 44.5063 35.526C44.5628 35.4977 44.6192 35.4695 44.6475 35.413C44.6475 35.3848 44.591 35.3001 44.5628 35.2718C44.2521 35.0459 43.9415 34.82 43.6026 34.5941C43.5744 34.5658 43.5461 34.5376 43.4614 34.5093C43.6591 34.3117 43.8285 34.0857 44.0544 33.9163C45.2405 32.8997 46.8784 32.702 48.2904 33.4362C50.0413 34.3399 50.8038 36.6273 49.9284 38.3782C48.9964 40.2703 46.822 41.0328 44.9016 40.1291C44.5628 39.9879 44.2239 40.0444 43.998 40.3268C43.8003 40.5809 43.8003 40.9481 43.998 41.2022C44.1109 41.3434 44.2521 41.4281 44.4216 41.4846C46.3984 42.3036 48.234 42.0494 49.9001 40.7221C50.126 40.5245 50.3237 40.2985 50.5497 40.0726C50.5779 40.0444 50.5779 40.0444 50.6061 40.0161C50.7473 39.8467 50.8603 39.649 51.0015 39.4796C51.0015 39.4513 51.0297 39.4231 51.0297 39.3949C51.1427 39.1407 51.2839 38.9148 51.3969 38.6606C52.2723 36.4579 51.5098 33.8881 49.5612 32.5043C48.4881 31.7701 47.302 31.4312 46.0312 31.5724C44.7887 31.7136 43.7156 32.2219 42.8401 33.1256C42.6707 33.295 42.5295 33.4927 42.36 33.6621C42.3318 33.6339 42.3036 33.6057 42.2471 33.5774C41.9364 33.3515 41.5976 33.1256 41.2587 32.8997C41.2022 32.8714 41.1457 32.8714 41.0892 32.8432C41.0328 32.8714 41.0328 32.8997 41.0045 32.9279Z" fill="#C5C5C5"/>
<path d="M20.1069 14.5154C20.1069 14.5154 19.2032 15.1084 18.6384 14.5154C18.0736 13.9223 4.3207 0.1412 4.3207 0.1412C4.3207 0.1412 3.0499 -0.45184 2.79574 0.790721C2.54158 2.03328 4.85726 3.58649 5.11142 3.81241C5.36558 4.03833 7.0035 4.63137 7.08822 5.42209C7.20118 6.21281 9.12151 7.62481 9.74279 7.87897C10.3923 8.13313 11.2677 9.71457 11.4372 10.3359C11.6066 10.9289 14.233 13.0469 14.233 13.0469C14.233 13.0469 14.3742 13.3293 14.0918 13.7811C13.8094 14.233 12.8492 14.1483 12.7362 13.8941C12.6233 13.6399 10.5617 11.6067 10.5617 11.6067C10.5617 11.6067 10.1381 9.77106 8.38727 8.83913C6.63638 7.90721 6.32574 7.48361 6.18454 7.00353C6.04334 6.49521 5.47854 5.53505 4.77254 5.22441C4.06654 4.91377 2.79574 3.84065 2.54158 3.30409C2.25918 2.76752 2.08974 1.2708 1.41197 1.72264C0.734214 2.17448 0.225893 2.90872 0.225893 2.90872C0.225893 2.90872 -0.536588 3.84065 0.790694 4.94201C2.11798 6.04337 15.6167 19.2032 15.6167 19.2032L20.1069 14.5154Z" fill="#C5C5C5"/>
</g>
<defs>
<clipPath id="clip0_1908_7516">
<rect width="56" height="45.9183" fill="white"/>
</clipPath>
</defs>
</svg>
