<svg width="62" height="62" viewBox="0 0 62 62" fill="none" xmlns="http://www.w3.org/2000/svg">
<path d="M41.0105 31.8125C41.2535 30.6168 41.5452 29.5207 41.7882 28.3748C41.934 27.7769 41.6424 27.5776 41.0591 27.5776C40.2815 27.6274 39.4552 27.6274 38.6775 27.5776C38.1429 27.5278 37.8999 27.6773 37.8513 28.325C37.8026 29.3712 37.6082 30.4175 37.4624 31.5136C37.1222 31.4638 36.9278 31.414 36.782 31.3641C36.9278 30.268 37.025 29.2716 37.1222 28.2751C37.1708 27.7769 36.9764 27.5776 36.4903 27.5776C35.2266 27.5776 33.9629 27.6274 32.6992 27.5776C32.0673 27.5776 31.8243 27.7769 31.9215 28.4246C31.9701 28.7235 31.9215 29.0225 31.9215 29.3214C31.4355 29.5207 31.2411 29.3712 31.1925 28.873C31.1439 27.5776 31.1439 27.5776 29.8802 27.5776C28.8595 27.5776 27.8388 27.5776 26.7695 27.5776C25.9432 27.5776 25.8946 27.6274 25.9918 28.4744C26.089 29.4211 26.2348 30.3179 26.3321 31.2645C25.9432 31.5136 25.6516 31.4638 25.603 30.9157C25.5058 30.0189 25.36 29.1221 25.2628 28.2253C25.2142 27.7271 25.0683 27.5278 24.5823 27.5278C23.7074 27.5776 22.7839 27.5776 21.9091 27.5278C21.3258 27.5278 21.18 27.7769 21.3258 28.2751C21.5688 29.4211 21.8605 30.567 22.1035 31.7627C21.666 32.1115 21.4716 31.8125 21.2772 31.3143C19.6247 27.3285 20.7426 22.0971 23.8532 19.1078C27.2069 15.8693 32.0187 15.0223 36.0529 16.9654C40.3301 18.9583 42.8089 23.1932 42.4687 27.9762C42.3714 29.1719 41.9826 30.3179 41.7396 31.4638C41.6424 31.9122 41.3508 32.0118 41.0105 31.8125ZM34.5462 26.8801C35.178 26.8801 35.8585 26.8801 36.4903 26.8801C36.9278 26.8801 37.1708 26.7306 37.1222 26.2822C36.9278 24.9868 36.7334 23.7413 36.4903 22.4957C36.4417 22.3462 36.1501 22.0971 35.9557 22.0971C34.7892 22.1469 33.5741 22.2466 32.4076 22.2964C32.0187 22.2964 31.8729 22.4957 31.8729 22.8943C31.8729 24.0402 31.8729 25.1363 31.8729 26.2822C31.8729 26.7306 32.0187 26.9299 32.5048 26.9299C33.2339 26.8801 33.9143 26.8801 34.5462 26.8801ZM28.5678 26.8801C29.2483 26.8801 29.9774 26.8801 30.6578 26.8801C31.0467 26.8801 31.1925 26.7306 31.1925 26.332C31.1925 25.1861 31.1925 24.0402 31.1925 22.8943C31.1925 22.4459 31.0467 22.2964 30.6092 22.2964C29.4913 22.2466 28.3248 22.1469 27.2069 22.0473C26.7695 21.9975 26.6237 22.1968 26.5265 22.5953C26.3321 23.8409 26.1376 25.0367 25.9918 26.2822C25.9432 26.7805 26.1376 26.9299 26.5751 26.9299C27.2555 26.8801 27.936 26.8801 28.5678 26.8801ZM25.8946 21.8978C25.1169 21.6985 24.3879 21.4993 23.6102 21.3498C23.4158 21.3 23.0756 21.4993 22.9298 21.6487C22.0549 23.0438 21.5688 24.5883 21.3744 26.2324C21.3258 26.631 21.423 26.8801 21.9091 26.8801C22.8812 26.8801 23.8046 26.8801 24.7767 26.8303C24.9711 26.8303 25.2628 26.5812 25.3114 26.4317C25.5058 24.9868 25.6516 23.4922 25.8946 21.8978ZM37.3166 21.9477C37.511 23.542 37.7054 25.0367 37.9485 26.5313C37.9485 26.6808 38.2887 26.8801 38.4831 26.8801C39.4066 26.9299 40.2815 26.8801 41.2049 26.8801C41.6424 26.8801 41.8368 26.7306 41.7882 26.2324C41.6424 24.5384 41.1563 22.9939 40.2329 21.5989C40.1357 21.4494 39.844 21.2501 39.6982 21.3C38.8719 21.4993 38.0457 21.7484 37.3166 21.9477ZM36.1015 21.3498C35.421 18.9085 33.3797 16.6665 31.9215 16.9156C31.9215 18.3604 31.9215 19.8053 31.9215 21.2501C31.9215 21.3498 32.1646 21.5989 32.2618 21.5989C33.5741 21.4993 34.7892 21.4494 36.1015 21.3498ZM27.1097 21.3498C28.422 21.4494 29.6371 21.4993 30.9008 21.5491C30.9981 21.5491 31.1925 21.2003 31.1925 21.001C31.2411 20.154 31.1925 19.3071 31.1925 18.5099C31.1925 17.9618 31.1925 17.4138 31.1925 16.8657C29.783 16.6665 27.6444 19.0081 27.1097 21.3498ZM28.3248 17.2643C26.5265 17.912 24.9711 18.9583 23.6588 20.6523C24.5337 20.8516 25.2142 21.001 25.9432 21.1505C26.0404 21.1505 26.2834 21.001 26.3321 20.8516C27.0125 19.6558 27.6444 18.5099 28.3248 17.2643ZM34.8378 17.2643C34.8378 17.4138 34.7892 17.4636 34.8378 17.4636C35.5182 18.6095 36.1501 19.7056 36.8306 20.8516C36.8792 20.9512 37.025 21.1007 37.1222 21.1007C37.8999 20.9512 38.6289 20.8017 39.5524 20.6024C38.1915 18.9583 36.6848 17.912 34.8378 17.2643Z" fill="#469073" stroke="#469073" stroke-width="0.8" stroke-miterlimit="10"/>
<path d="M36.393 46.1615C35.8584 45.9623 35.3723 45.8128 34.9835 45.6135C34.8377 45.5139 34.6433 45.2647 34.6433 45.0655C34.6433 44.2185 34.5947 43.3715 34.7405 42.5743C35.0807 40.3821 37.2193 39.0867 39.3093 39.6348C39.9897 39.8341 40.7674 39.8341 41.4479 39.6846C43.5865 39.1864 45.6278 40.4818 45.9195 42.7238C46.0167 43.6206 46.0167 44.5174 45.9681 45.3644C45.9681 45.5139 45.8222 45.763 45.6764 45.8626C45.2876 46.0619 44.8988 46.1616 44.4127 46.311C44.3641 45.7131 44.3641 45.2149 44.3155 44.7665C44.2669 44.7665 44.2183 44.7665 44.1697 44.7167C44.0725 45.1153 43.9267 45.5139 43.8781 45.9124C43.8295 46.3608 43.5865 46.5601 43.149 46.6598C41.3507 46.9587 39.5037 46.9587 37.7053 46.61C37.1707 46.5103 36.8791 46.2612 36.8305 45.7131C36.7819 45.4142 36.6847 45.0655 36.4902 44.7665C36.4902 45.1651 36.4416 45.6135 36.393 46.1615Z" fill="#469073"/>
<path d="M26.8181 46.2114C26.7694 45.6633 26.7694 45.2149 26.7208 44.7167C26.6722 44.7167 26.6236 44.7167 26.575 44.7167C26.4778 45.0655 26.3806 45.4142 26.332 45.8128C26.2834 46.3608 25.9918 46.5103 25.5057 46.61C23.756 46.9089 22.0062 46.8591 20.2565 46.5601C19.6246 46.4605 19.2844 46.2114 19.2358 45.5139C19.2358 45.2149 19.09 44.9658 18.847 44.6669C18.847 45.1153 18.847 45.5637 18.847 46.1616C18.2151 45.9124 17.7291 45.763 17.243 45.5139C17.0972 45.464 17.0486 45.1651 17.0486 44.9658C17 44.4178 17 43.8199 17 43.222C17.0972 40.6312 19.333 39.0369 21.7632 39.6348C22.3951 39.7843 23.1727 39.7843 23.8532 39.6348C26.089 39.0867 28.2276 40.5814 28.422 42.9231C28.4706 43.6704 28.422 44.4676 28.4706 45.2149C28.4706 45.9124 27.8873 45.8128 27.4985 46.0121C27.2555 46.1616 27.0611 46.1616 26.8181 46.2114Z" fill="#469073"/>
<path d="M36.5389 38.9372C34.5461 39.9835 33.6712 41.6276 33.6712 43.8696C33.6712 44.0191 33.3796 44.3679 33.1852 44.3679C32.0673 44.4177 30.9008 44.3679 29.7829 44.318C29.5885 44.318 29.2968 44.0191 29.2968 43.8696C29.3455 41.5778 28.422 39.9336 26.4292 38.8874C27.2069 37.4923 28.8594 36.8446 30.3175 37.1934C31.0466 37.3429 31.8729 37.4425 32.6019 37.293C34.2545 36.9443 35.5182 37.3927 36.5389 38.9372Z" fill="#469073"/>
<path d="M22.7354 38.8874C21.0342 38.8375 19.7705 37.4425 19.8191 35.6987C19.8677 34.0047 21.2286 32.7094 22.8812 32.7094C24.5823 32.7592 25.846 34.1542 25.7974 35.898C25.7488 37.6418 24.3879 38.9372 22.7354 38.8874Z" fill="#469073"/>
<path d="M43.3921 35.8481C43.3921 37.5421 42.0798 38.8873 40.3786 38.8873C38.7261 38.8873 37.4138 37.4923 37.4138 35.7983C37.4138 34.0545 38.7747 32.6595 40.4272 32.7093C42.1284 32.7093 43.4407 34.1043 43.3921 35.8481Z" fill="#469073"/>
<path d="M34.5461 33.4567C34.5461 35.1507 33.1852 36.5457 31.5813 36.5457C29.8801 36.5457 28.5678 35.1507 28.5678 33.4567C28.5678 31.7129 29.9287 30.3677 31.6299 30.3677C33.2824 30.3677 34.5461 31.7129 34.5461 33.4567Z" fill="#469073"/>
</svg>
