<svg width="62" height="62" viewBox="0 0 62 62" fill="none" xmlns="http://www.w3.org/2000/svg">
<g clip-path="url(#clip0_2451_8475)">
<path d="M37.0309 14C39.5224 14 42.0138 14 44.5052 14C44.5301 14.3427 44.5799 14.6853 44.6048 15.0769C45.1031 15.1259 45.5516 15.1748 46 15.2238C46 17.4266 46 19.6294 46 21.8322C45.2526 21.8077 45.0034 22.1748 45.0533 22.8846C45.1031 23.472 45.0533 24.0594 45.0533 24.7448C42.6864 24.5734 44.4055 22.5909 43.3342 21.8322C42.7612 23.3007 41.5653 24.4755 41.7895 26.1643C42.0636 28.1224 42.4622 30.0804 42.6864 32.0629C43.0352 34.951 43.6332 37.8636 43.4837 40.7517C43.3093 44.3741 41.2165 47.042 37.604 48.3147C36.9064 48.5594 36.2088 48.7552 35.5112 48.9755C34.3402 48.9755 33.1942 48.9755 32.0232 48.9755C31.4751 48.8042 30.927 48.6573 30.3789 48.486C27.6134 47.5804 25.3462 46.0629 24.6486 43.1259C24.3995 42.049 23.976 41.7308 22.9296 41.7797C21.5842 41.8531 20.2139 41.6084 19.8153 40.1399C19.4665 38.8182 19.3918 37.3986 19.317 36.028C19.2423 34.9755 19.6907 33.8986 19.043 32.8706C18.9184 32.6748 19.0181 32.3322 18.9931 32.0629C18.9682 31.5979 19.0181 31.1084 18.8686 30.6923C18.3952 29.3217 17.5232 28 17.3737 26.6049C17.0498 23.7657 17.1993 20.9021 17.0249 18.0629C16.9004 16.2517 17.4734 14.8811 19.0928 14C23.4029 14 27.738 14 32.0481 14C33.7423 15.028 34.0413 16.5699 33.9416 18.3811C33.8419 20.4126 34.0163 22.4685 33.8669 24.5C33.7672 25.9441 33.3437 27.3636 32.9949 28.7587C32.5713 30.3986 32.0481 32.014 31.6246 33.6538C31.4751 34.2657 31.3505 34.951 31.4751 35.5629C31.7492 37.007 31.7741 38.3776 31.3007 39.7727C30.927 40.8252 30.3041 41.5594 29.1581 41.6818C28.311 41.7797 27.439 41.8287 26.4425 41.9021C26.5919 42.3671 26.6667 42.7587 26.8162 43.1259C28.7345 47.7762 36.433 48.2413 39.6718 44.7413C41.4407 42.8322 41.9639 40.507 41.64 38.035C41.067 33.7273 40.4442 29.4196 39.6967 25.1364C39.4974 24.0105 38.7002 22.958 38.177 21.8811C38.0524 21.9301 37.9029 21.9545 37.7784 22.0035C37.7784 22.8601 37.7784 23.7413 37.7784 24.6469C37.2552 24.6469 36.9064 24.6469 36.5327 24.6469C36.1091 23.5699 36.9313 22.1259 35.4614 21.465C35.4364 21.465 35.4364 21.3916 35.4364 21.3427C35.4364 19.3112 35.4364 17.2797 35.4364 15.1503C36.3832 15.1993 37.2303 15.1748 37.0309 14ZM19.6658 24.8671C19.915 24.9161 20.0644 24.9895 20.2139 24.9895C23.6521 24.9895 27.0902 24.9895 30.5284 25.014C31.3007 25.014 31.4004 24.5979 31.4004 24.0105C31.4004 21.9056 31.3505 19.7762 31.4253 17.6713C31.4502 16.7902 31.1014 16.5699 30.2543 16.5699C28.1864 16.6189 26.1186 16.5944 24.0507 16.5944C22.6057 16.5944 21.1856 16.5944 19.6658 16.5944C19.6658 19.4336 19.6658 22.1014 19.6658 24.8671ZM26.7663 34.9266C26.4923 33.9965 25.9691 33.7028 25.4459 33.7028C25.0223 33.7028 24.2251 34.5105 24.2749 34.8776C24.3248 35.3671 25.0223 36.1259 25.4708 36.1748C25.9442 36.1993 26.5919 35.7098 26.7663 34.9266ZM25.0722 37.521C24.1254 36.6888 23.378 36.0524 22.4064 35.2203C22.4064 36.2727 22.4064 36.8601 22.4064 37.521C23.2534 37.521 24.0258 37.521 25.0722 37.521ZM22.4313 34.2168C22.5309 34.2902 22.6306 34.3636 22.7303 34.4615C23.4278 33.7762 24.1254 33.1154 24.9725 32.3077C24.0507 32.3077 23.2784 32.3077 22.4313 32.3077C22.4313 32.9441 22.4313 33.5804 22.4313 34.2168ZM28.4107 35.3427C27.5636 36.0769 26.8162 36.7133 25.994 37.4231C28.5103 38.0105 28.9339 37.6678 28.4107 35.3427ZM26.0438 32.3811C26.8162 33.0909 27.5636 33.7517 28.4107 34.5105C28.9588 32.1364 28.4605 31.7203 26.0438 32.3811Z" fill="#C5C5C5"/>
<path d="M46 15.2238C45.5515 15.1748 45.128 15.1259 44.6048 15.0769C44.555 14.7098 44.53 14.3671 44.5051 14C44.9785 14 45.4519 14 46 14C46 14.4161 46 14.8077 46 15.2238Z" fill="white"/>
<path d="M28.4107 23.3496C26.4923 23.3496 24.5988 23.3496 22.6804 23.3496C22.6804 23.4965 22.6804 23.6433 22.6804 23.7902C22.6804 23.986 22.5808 24.0839 22.3814 24.0839C22.0825 24.0839 21.7586 24.0839 21.4596 24.0839C21.2852 24.0839 21.1856 23.986 21.1856 23.8147C21.1856 22.8846 21.1856 21.979 21.1856 21.0489C21.1856 20.7797 21.2852 20.5349 21.4596 20.3391C21.5842 20.1923 21.7088 20.0454 21.8582 19.8741C21.6589 19.8251 21.4596 19.7517 21.2603 19.7028C21.1357 19.6783 21.061 19.6049 21.0361 19.4825C20.9863 19.3112 21.1357 19.1398 21.3101 19.1154C21.4845 19.1154 21.6589 19.0909 21.8582 19.1154C21.9579 19.1154 22.0326 19.1888 22.1074 19.2133C22.1572 19.2377 22.1821 19.2867 22.232 19.3112C22.3565 19.0419 22.4811 18.7727 22.6306 18.5279C22.7053 18.3566 22.8299 18.2098 22.9046 18.0384C23.0292 17.7937 23.2534 17.6958 23.5026 17.6468C24.0009 17.5489 24.4991 17.5489 25.0223 17.5244C25.7947 17.5244 26.5421 17.5 27.3144 17.5979C27.4141 17.5979 27.5137 17.6224 27.6134 17.6468C27.8625 17.6958 28.0619 17.8182 28.1864 18.0384C28.3857 18.4056 28.5851 18.7972 28.7844 19.1643C28.8093 19.2133 28.8342 19.2622 28.8591 19.3112C29.0335 19.0175 29.3325 19.0909 29.5816 19.0909C29.6314 19.0909 29.7062 19.0909 29.756 19.0909C29.9055 19.0909 30.0301 19.2133 30.055 19.3356C30.0799 19.4825 30.0052 19.6293 29.8308 19.6783C29.6813 19.7272 29.5069 19.7762 29.3574 19.8007C29.3076 19.8007 29.2826 19.8251 29.2079 19.8496C29.3325 19.9965 29.457 20.1433 29.5816 20.2657C29.8058 20.5105 29.9055 20.7797 29.9055 21.0734C29.9055 21.9545 29.9055 22.8356 29.9055 23.7168C29.9055 23.9615 29.8308 24.0349 29.5816 24.0349C29.2826 24.0349 29.0086 24.0349 28.7096 24.0349C28.4854 24.0349 28.4107 23.937 28.4107 23.7168C28.4107 23.6189 28.4107 23.4965 28.4107 23.3496ZM22.5558 19.6783C24.5739 19.4825 26.5421 19.4825 28.5601 19.6783C28.3359 19.2622 28.1615 18.8706 27.9373 18.5035C27.6881 18.0629 27.7878 18.0874 27.2148 18.0384C26.268 17.9405 25.2964 17.965 24.3497 17.9895C24.0756 18.014 23.8265 18.0384 23.5524 18.0874C23.4527 18.1119 23.3531 18.1608 23.3033 18.2587C23.1787 18.479 23.0541 18.6993 22.9296 18.9196C22.805 19.1643 22.6804 19.4091 22.5558 19.6783ZM22.5309 21.6363C22.6306 21.6119 22.7552 21.5874 22.8548 21.5384C22.9794 21.4895 23.0541 21.3671 23.0541 21.2447C23.079 20.9021 22.805 20.5839 22.4562 20.5349C22.1323 20.486 21.8582 20.6573 21.7835 20.951C21.7088 21.2447 21.8832 21.4895 22.207 21.5874C22.3067 21.6119 22.4064 21.6119 22.5309 21.6363ZM28.6847 21.6363C28.7595 21.6119 28.9089 21.5874 29.0584 21.514C29.2577 21.4161 29.3574 21.2447 29.3325 21C29.3076 20.7797 29.1581 20.5839 28.9338 20.5349C28.6598 20.4615 28.3359 20.5839 28.1615 20.8286C28.0619 21 27.9871 21.1958 28.0868 21.3916C28.1864 21.5874 28.4107 21.6119 28.6847 21.6363ZM25.5455 22.3951C25.8445 22.3951 26.1435 22.3951 26.4424 22.3951C26.5421 22.3951 26.567 22.3461 26.567 22.2727C26.567 22.1748 26.567 22.0769 26.567 21.979C26.567 21.9056 26.5172 21.8566 26.4424 21.8566C25.8445 21.8566 25.2216 21.8566 24.6237 21.8566C24.5241 21.8566 24.4991 21.9056 24.4991 21.979C24.4991 22.0769 24.4991 22.1503 24.4991 22.2482C24.4991 22.3706 24.5241 22.3951 24.6486 22.3951C24.9476 22.3951 25.2466 22.3951 25.5455 22.3951Z" fill="#C5C5C5"/>
</g>
<defs>
<clipPath id="clip0_2451_8475">
<rect width="29" height="35" fill="white" transform="translate(17 14)"/>
</clipPath>
</defs>
</svg>
