<svg width="62" height="62" viewBox="0 0 62 62" fill="none" xmlns="http://www.w3.org/2000/svg">
<path d="M29.9216 32.51C31.7578 30.68 33.5291 28.8926 35.3436 27.1052C35.6461 26.8073 36.0133 26.4455 36.3805 26.4242C36.8558 26.3817 37.4606 26.5306 37.763 26.8498C38.0223 27.1264 38.0439 27.7435 37.9791 28.1691C37.9358 28.467 37.6118 28.7649 37.3526 28.999C35.2572 31.0843 33.1403 33.1696 31.0449 35.2336C30.0512 36.2125 29.7488 36.2125 28.7335 35.2336C27.6318 34.1697 26.5301 33.1058 25.45 31.9993C24.6724 31.212 24.6292 30.5098 25.2772 29.8714C25.8821 29.2756 26.6813 29.3181 27.459 30.0629C28.2799 30.8502 29.0575 31.6375 29.9216 32.51Z" fill="#C5C5C5"/>
<path d="M48.9528 29.6374C48.9312 29.5097 48.888 29.382 48.8231 29.2544C48.7151 28.9139 48.3263 28.5309 47.9807 28.4032C47.1598 27.9989 46.4038 27.5734 45.7125 27.1052C43.0987 24.9561 41.7162 21.211 42.4506 18.8703C42.6234 18.3171 42.537 17.8702 42.213 17.5298C42.213 17.5085 42.1914 17.4872 42.1698 17.4659C42.1482 17.4447 42.1266 17.4447 42.105 17.4234C41.997 17.3383 41.889 17.2532 41.7594 17.168C41.6082 17.0829 41.4786 16.9978 41.3273 16.9127C40.7441 16.551 40.1609 16.1892 39.556 15.87C39.5344 15.8488 39.5128 15.8488 39.4912 15.8275C39.4048 15.7849 39.3184 15.7211 39.2104 15.6785C39.1672 15.6572 39.124 15.636 39.1024 15.6147C39.016 15.5721 38.9512 15.5296 38.8647 15.487C38.8431 15.487 38.8431 15.487 38.8215 15.4657C38.7999 15.4657 38.7999 15.4445 38.7783 15.4445C38.3895 15.2742 37.6983 15.3381 37.331 15.5721C35.7757 16.6148 34.2636 17.2106 32.7731 17.4021C31.9954 17.4872 31.1961 17.4659 30.4185 17.3383C29.252 17.1468 28.0855 16.6786 26.8974 15.9552C26.6598 15.7849 26.4438 15.6147 26.2493 15.4232C25.7309 14.9338 25.1909 14.8487 24.5212 15.2742C24.4132 15.3381 24.3052 15.4019 24.2188 15.4657C23.4843 15.8275 22.7499 16.2105 22.037 16.6573C21.8858 16.7212 21.7562 16.8063 21.605 16.8701C21.2161 17.0829 21.0001 17.317 20.9137 17.6575C20.8057 17.9128 20.7409 18.1894 20.7625 18.4022C21.1297 20.5939 20.4169 23.2112 18.8831 25.1901C17.9543 26.2966 16.723 27.1691 15.2541 27.7223C14.93 27.85 14.6708 27.9989 14.4764 28.2117C14.1524 28.4458 14.0012 28.8075 14.0444 29.3395C14.066 29.8502 14.066 30.3821 14.066 30.8928C14.066 31.1056 14.066 31.2971 14.0444 31.5099V31.5312C14.0444 31.7865 14.0228 32.0206 14.0012 32.276C14.0012 32.3398 14.0012 32.4036 14.0012 32.4675C14.0012 32.51 14.0012 32.5739 14.0012 32.6164C13.9796 33.2973 14.2604 33.6804 14.93 33.957C18.0191 35.2337 20.0496 37.8935 20.4385 40.9577C20.4385 41.213 20.4385 41.4684 20.3953 41.7024L20.5033 41.745C20.5249 42.277 20.4817 42.8302 20.3953 43.3835C20.2657 44.1921 20.4817 44.7666 21.1945 45.1709C22.0586 45.6603 22.9443 46.171 23.7867 46.703C24.5212 47.1711 25.126 47.0647 25.8173 46.5327C28.3663 44.5325 32.6867 44.0006 35.2789 45.9156C37.331 47.4264 38.8215 47.0221 40.5713 45.8092C40.8953 45.5965 41.1113 45.4901 41.565 45.1283C41.9322 44.8304 42.2562 44.3836 42.1698 43.958C41.2193 40.6385 44.0924 35.6593 47.527 34.4677L47.7863 34.5102C48.1751 34.4251 48.4775 34.2549 48.6503 33.9995C48.6935 33.9783 48.7367 33.957 48.7583 33.9357C48.7583 33.8719 48.7799 33.808 48.7799 33.7655C48.8664 33.574 48.9312 33.3399 48.9312 33.0633C48.9528 31.9142 49.0608 30.7652 48.9528 29.6374ZM36.4886 22.4664C41.3489 25.1901 43.0339 31.3184 40.2689 36.1274C39.88 36.8083 39.4048 37.4467 38.8864 37.9999C37.0286 39.9363 34.3932 41.1279 31.4986 41.1279C25.8605 41.1279 21.3457 36.6168 21.3673 30.978C21.3889 26.7648 24.0244 23.3814 27.5454 21.9132C30.3537 20.7854 33.6587 20.8705 36.4886 22.4664Z" fill="#C5C5C5"/>
</svg>
