<svg width="45" height="37" viewBox="0 0 45 37" fill="none" xmlns="http://www.w3.org/2000/svg">
<g clip-path="url(#clip0_1908_7518)">
<path d="M38.1407 26.0804C38.1407 24.799 38.1407 21.3317 38.1407 20.0503C34.4472 20.0503 27.6633 20.0503 23.8945 20.0503C23.8945 21.2563 23.8945 24.7236 23.8945 26.0804C24.8744 26.0804 25.0251 26.0804 25.9296 26.0804C27.2864 26.0804 27.7387 26.5327 27.7387 27.8895C27.7387 30.7538 27.7387 31.3568 27.7387 34.1457C27.7387 35.5025 27.2111 36.0302 25.8543 36.0302C23.0653 36.0302 21.7085 36.0302 18.9196 36.0302C17.5628 36.0302 17.0352 35.5025 17.0352 34.2211C17.0352 31.3568 17.0352 30.7538 17.0352 27.8895C17.0352 26.608 17.5628 26.0804 18.8442 26.0804C19.7487 26.0804 19.8995 26.0804 20.8794 26.0804C20.8794 24.799 20.8794 21.3317 20.8794 20.0503C17.1859 20.0503 10.4774 20.0503 6.70854 20.0503C6.70854 21.2563 6.70854 24.799 6.70854 26.0804C7.68844 26.0804 7.83919 26.0804 8.74372 26.0804C10.1005 26.0804 10.5528 26.608 10.5528 27.9648C10.5528 30.8291 10.5528 30.6784 10.5528 33.4673C10.5528 34.8241 10.0251 35.2764 8.66834 35.3518C5.80402 35.3518 4.44723 35.3518 1.65829 35.3518C0.301505 35.3518 -0.150757 34.8241 -0.150757 33.4673C-0.150757 30.603 -0.150757 30.7538 -0.150757 27.9648C-0.150757 26.608 0.301505 26.1558 1.65829 26.1558C2.56281 26.1558 2.71356 26.1558 3.76884 26.1558C3.76884 25.9297 3.76884 25.7035 3.76884 25.4774C3.76884 24.0452 3.76884 20.4271 3.76884 18.995C3.76884 17.7889 4.29648 17.2613 5.50251 17.2613C9.34673 17.2613 16.206 17.2613 20.0502 17.2613C20.2764 17.2613 20.5025 17.2613 20.804 17.2613C20.804 16.1307 20.804 11.2312 20.804 10.1005C20.0502 10.1005 20.0502 10.1005 19.2965 10.1005C17.1859 10.1005 16.8844 9.799 16.8844 7.76382C16.8844 5.12563 16.8844 4.74875 16.8844 2.11056C16.8844 0.603018 17.3367 0.150757 18.8442 0.150757C21.6332 0.150757 22.9899 0.150757 25.7789 0.150757C27.0603 0.150757 27.5879 0.603018 27.5879 1.9598C27.5879 4.82412 27.5879 5.42714 27.5879 8.29146C27.5879 9.57287 27.0603 10.1005 25.7789 10.1005C24.8744 10.1005 24.7236 10.1005 23.8191 10.1005C23.8191 10.1005 23.7437 10.1005 23.6683 10.1759C23.6683 11.2312 23.6683 16.1307 23.6683 17.2613C23.8945 17.2613 24.1206 17.2613 24.3467 17.2613C28.191 17.2613 35.0502 17.2613 38.8191 17.2613C40.2513 17.2613 40.7035 17.7136 40.7035 19.1457C40.7035 20.5025 40.7035 24.1206 40.7035 25.5528C40.7035 25.7789 40.7035 25.9297 40.7035 26.2312C41.6834 26.2312 41.8342 26.2312 42.8141 26.2312C44.1708 26.2312 44.6231 26.6834 44.6231 28.1156C44.6231 30.9799 44.6231 31.5829 44.6231 34.4472C44.6231 35.7286 44.0955 36.2563 42.8141 36.2563C39.9497 36.2563 38.5176 36.2563 35.6533 36.2563C34.3719 36.2563 33.8442 35.7286 33.8442 34.4472C33.8442 31.5829 33.8442 30.9045 33.8442 28.0402C33.8442 26.7588 34.3719 26.2312 35.6533 26.2312C36.9347 26.0804 37.1608 26.0804 38.1407 26.0804Z" fill="#C5C5C5"/>
</g>
<defs>
<clipPath id="clip0_1908_7518">
<rect width="45" height="36.0302" fill="white"/>
</clipPath>
</defs>
</svg>
