<svg width="31" height="49" viewBox="0 0 31 49" fill="none" xmlns="http://www.w3.org/2000/svg">
<g clip-path="url(#clip0_1908_7533)">
<path d="M1.91315 8.52823C1.23218 7.78242 0.648501 7.16631 0.0648193 6.5502C6.74474 -1.45922 22.3096 -2.82114 31 6.42049C30.3514 7.00417 29.7029 7.62028 28.8922 8.33367C25.228 4.86401 20.7531 2.85355 15.5972 2.82112C10.409 2.82112 5.93407 4.7343 1.91315 8.52823Z" fill="#006B5B"/>
<path d="M6.09624 12.3546C5.38285 11.7385 4.76674 11.1872 4.15063 10.636C8.9498 4.18305 22.0502 4.18305 26.8818 10.5711C26.2981 11.1224 25.682 11.7061 24.9686 12.387C18.7427 7.29602 12.4519 7.19874 6.09624 12.3546Z" fill="#006B5B"/>
<path d="M10.0523 16.3755C9.33887 15.6946 8.75519 15.1757 8.17151 14.6245C11.6412 10.409 19.0993 10.409 22.9257 14.6569C22.342 15.2406 21.7259 15.8243 21.0774 16.4404C17.4131 13.4247 13.7813 13.3274 10.0523 16.3755Z" fill="#006B5B"/>
<path d="M18.9049 18.3212C17.7699 19.4237 16.635 20.5262 15.3379 21.7908C14.3327 20.6235 13.3275 19.4561 12.2898 18.2563C13.6193 16.2783 16.9268 16.2134 18.9049 18.3212Z" fill="#006B5B"/>
<path d="M20.5585 37.3557C20.5585 38.2636 20.5585 39.204 20.5585 40.1119C20.4612 40.1119 20.3315 40.1119 20.2343 40.1119C20.2343 39.1716 20.2343 38.2636 20.2343 37.3232C20.3315 37.3557 20.4288 37.3557 20.5585 37.3557Z" fill="white"/>
<path d="M10.7981 40.1443C10.7981 39.2688 10.7981 38.3933 10.7981 37.4854C10.9278 37.4854 11.0251 37.4854 11.1548 37.4854C11.1548 38.3609 11.1548 39.2364 11.1548 40.1443C11.0251 40.1443 10.8954 40.1443 10.7981 40.1443Z" fill="white"/>
<path d="M30.2218 35.6695C29.8975 34.0806 28.8923 32.6538 28.1789 31.1622C27.4331 29.6057 26.6873 28.0816 25.8442 26.5575C25.3253 25.5847 24.4498 25.2281 23.2825 25.2281C18.5157 25.2929 13.7814 25.455 9.01467 25.1632C6.29082 25.0011 4.86404 26.136 3.92367 28.3734C3.14543 30.2542 2.69145 32.3619 1.55651 34.0157C0.0973077 36.091 -0.0648262 38.2636 2.74014e-05 40.5983C0.0324542 42.1873 0.77827 43.1925 2.10777 43.9707C2.59417 44.2626 3.04814 44.9435 3.08057 45.4948C3.27513 47.5701 3.66425 48.0565 5.54501 48.0241C7.32848 47.9917 7.78246 47.5377 7.84731 45.4948C7.84731 45.1381 7.91216 44.749 7.94459 44.3274C13.0032 44.3274 17.9969 44.3274 23.2176 44.3274C23.2176 45.1057 23.0555 45.7542 23.25 46.2406C23.5419 46.8891 24.0931 47.8295 24.612 47.8619C25.5848 47.9592 27.4655 47.4728 27.4655 47.2458C27.4655 45.0084 28.795 43.7437 30.3515 42.5439C30.4812 42.4467 30.5785 42.2521 30.5785 42.1224C30.5136 39.9822 30.6433 37.7772 30.2218 35.6695ZM7.58789 38.8797C7.45819 40.1119 6.55024 40.7605 5.35045 40.7605C4.21551 40.7605 3.24271 39.5607 3.40484 38.4582C3.5994 37.1935 4.50735 36.7071 5.67471 36.6423C6.87451 36.9341 7.7176 37.5827 7.58789 38.8797ZM11.4791 39.9174C11.4791 40.1768 11.2845 40.3714 11.0251 40.3714C10.7657 40.3714 10.5712 40.1768 10.5712 39.9174V37.7772C10.5712 37.5178 10.7657 37.3232 11.0251 37.3232C11.2845 37.3232 11.4791 37.5178 11.4791 37.7772V39.9174ZM14.8515 39.9174C14.8515 40.1768 14.6569 40.3714 14.3975 40.3714C14.1381 40.3714 13.9435 40.1768 13.9435 39.9174V37.7772C13.9435 37.5178 14.1381 37.3232 14.3975 37.3232C14.6569 37.3232 14.8515 37.5178 14.8515 37.7772V39.9174ZM17.2835 39.9174C17.2835 40.1768 17.0889 40.3714 16.8295 40.3714C16.5701 40.3714 16.3756 40.1768 16.3756 39.9174V37.7772C16.3756 37.5178 16.5701 37.3232 16.8295 37.3232C17.0889 37.3232 17.2835 37.5178 17.2835 37.7772V39.9174ZM20.6559 39.7877C20.6559 40.0471 20.4613 40.2416 20.2019 40.2416C20.0722 40.2416 19.9749 40.2092 19.9101 40.1119H19.8776V40.0795C19.8128 40.0147 19.7479 39.885 19.7479 39.7877V37.6475C19.7479 37.5178 19.7804 37.4205 19.8776 37.3557C19.8776 37.3557 19.8776 37.3557 19.8776 37.3232C19.8776 37.3232 19.8776 37.3232 19.9101 37.3232C19.9749 37.2584 20.1046 37.1935 20.2343 37.1935C20.4938 37.1935 20.6883 37.3881 20.6883 37.6475V39.7877H20.6559ZM4.37764 32.8483C5.38287 30.8703 6.2584 29.1193 7.2312 27.4655C7.39333 27.1737 8.0743 27.1088 8.52827 27.1088C13.2302 27.0764 17.8996 27.0764 22.6015 27.1412C23.1527 27.1412 23.931 27.4979 24.158 27.9195C25.0011 29.4435 25.6496 31.0973 26.4603 32.8808C19.0345 32.8483 11.9655 32.8483 4.37764 32.8483ZM25.4875 40.7605C24.385 40.7281 23.4122 39.7228 23.4446 38.523C23.5743 37.3881 24.3525 36.6423 25.5523 36.6423C26.7521 36.6423 27.5952 37.3557 27.6925 38.6203C27.7898 39.7228 26.6224 40.8253 25.4875 40.7605Z" fill="#006B5B"/>
</g>
<defs>
<clipPath id="clip0_1908_7533">
<rect width="31" height="48.0241" fill="white"/>
</clipPath>
</defs>
</svg>
