<svg width="62" height="62" viewBox="0 0 62 62" fill="none" xmlns="http://www.w3.org/2000/svg">
<g clip-path="url(#clip0_2451_8467)">
<path d="M16.7097 38.8108C17.5352 34.1758 14.0955 31.7228 11.4439 31.7099C8.66714 31.697 5.52768 34.1242 6.01548 38.3331C4.61461 38.204 3.25126 38.0103 1.96295 37.4164C1.78784 37.339 1.63775 37.0937 1.55019 36.8871C0.949817 35.454 0.812231 34.0209 1.22499 32.4458C1.66276 30.8061 2.53831 29.9024 4.05176 29.3859C7.37883 28.2498 10.7685 27.3977 14.2206 26.7909C14.4833 26.7392 14.7459 26.6747 14.9961 26.5585C18.0605 25.1512 21.1249 23.7568 24.1643 22.3108C28.0918 20.4387 32.2444 19.8707 36.522 20.0127C41.8879 20.1934 46.9536 21.6007 51.8566 23.7826C54.033 24.751 56.3219 25.2803 58.6609 25.6289C59.6115 25.7709 59.8992 26.1195 59.9117 27.1265C59.9117 27.6042 59.9242 28.069 59.9117 28.5467C59.8866 29.4505 59.9617 30.238 60.512 31.0772C61.4876 32.5749 60.9248 35.0796 59.5239 36.2157C59.3363 36.3707 59.0861 36.474 58.8485 36.5127C57.4226 36.8096 55.9967 37.0808 54.4958 37.3777C54.3707 35.3765 53.6077 33.7498 51.9817 32.6524C50.9561 31.9552 49.8179 31.6324 48.5921 31.7615C45.4276 32.0972 43.8766 34.1113 43.5514 38.2556C34.6209 38.4364 25.6778 38.6301 16.7097 38.8108ZM23.2387 27.2815C23.3388 27.2815 23.5139 27.2815 23.7015 27.2815C26.5158 27.1911 29.3175 27.1136 32.1318 27.0103C33.1074 26.9716 33.1074 26.9716 33.3576 25.9387C33.4576 25.4998 33.5827 25.0737 33.6828 24.6348C33.9204 23.6277 34.1456 22.6078 34.4082 21.4716C30.0555 21.846 25.9029 22.4399 22.5258 25.177C22.7885 25.9517 23.0011 26.5585 23.2387 27.2815ZM36.0843 21.5103C35.8091 23.2791 35.5464 24.9963 35.2588 26.7909C35.584 26.7909 35.8091 26.8038 36.0342 26.7909C38.4107 26.7134 40.7747 26.623 43.1512 26.5456C44.452 26.5068 44.4645 26.5197 44.7522 25.2286C44.8147 24.9704 44.7522 24.6348 44.6396 24.3894C44.377 23.8601 44.0517 23.3566 43.7265 22.8531C43.614 22.6852 43.4514 22.4916 43.2763 22.4399C40.9623 21.7169 38.5733 21.4716 36.0843 21.5103ZM49.5677 26.4552C49.6803 25.7709 49.4801 25.2674 49.0174 25.0221C47.604 24.2733 46.1656 23.6019 44.7397 22.8918C44.7022 22.9434 44.6646 22.9951 44.6396 23.0467C45.4026 24.1312 46.1656 25.2157 46.9411 26.2873C47.0036 26.3777 47.1537 26.4423 47.2537 26.4552C48.0292 26.4681 48.7797 26.4552 49.5677 26.4552Z" fill="#469073"/>
<path d="M53.5704 37.3005C53.5704 39.8697 51.5191 41.9871 49.0301 41.9871C46.5535 41.9871 44.5022 39.8697 44.4897 37.3005C44.4772 34.7699 46.591 32.6268 49.0676 32.6526C51.5441 32.6913 53.5704 34.7699 53.5704 37.3005ZM46.2158 36.784C46.2533 36.8615 46.2909 36.926 46.3284 37.0035C46.7411 36.9131 47.1664 36.8357 47.5792 36.7453C47.329 36.3967 47.0914 36.0352 46.8412 35.6866C46.8287 35.6608 46.7662 35.6737 46.6536 35.6608C46.516 36.0223 46.3659 36.4096 46.2158 36.784ZM47.379 34.8991C47.3665 34.9765 47.354 35.054 47.3415 35.1314C47.7042 35.3638 48.067 35.5962 48.4297 35.8286C48.4922 35.4155 48.5423 34.9894 48.5923 34.5763C48.5923 34.5505 48.5423 34.5117 48.4672 34.4343C48.117 34.5763 47.7543 34.7441 47.379 34.8991ZM49.5554 34.4214C49.4929 34.473 49.4303 34.5117 49.3678 34.5634C49.4553 34.9894 49.5554 35.4155 49.643 35.8415C49.9682 35.5833 50.3059 35.338 50.6311 35.0798C50.6561 35.0669 50.6436 35.0023 50.6561 34.8861C50.2934 34.7312 49.9306 34.5763 49.5554 34.4214ZM51.2815 35.4026C50.9438 35.9577 50.7186 36.3451 50.481 36.7324C50.9062 36.784 51.319 36.8228 51.7443 36.8744C51.7568 36.8744 51.7693 36.8486 51.8568 36.784C51.6942 36.3967 51.5316 36.0094 51.2815 35.4026ZM46.3159 37.6878C46.2784 37.7523 46.2408 37.8169 46.2033 37.8814C46.3659 38.2688 46.541 38.6561 46.7036 39.0434C46.7662 39.0563 46.8412 39.0692 46.9037 39.0822C47.1289 38.6948 47.354 38.3075 47.5792 37.9202C47.1539 37.8427 46.7411 37.7652 46.3159 37.6878ZM51.3065 39.2371C51.5441 38.6174 51.6942 38.23 51.8693 37.7523C51.4441 37.7523 51.1314 37.7394 50.8187 37.7653C50.6936 37.7782 50.5185 37.8556 50.481 37.946C50.4435 38.0493 50.4935 38.23 50.5685 38.3333C50.7687 38.6045 50.9813 38.8368 51.3065 39.2371ZM48.4797 40.2312C48.5423 40.1925 48.6173 40.1667 48.6799 40.1279C48.6048 39.689 48.5298 39.2629 48.4547 38.8239C48.117 39.0822 47.7668 39.3404 47.4291 39.5986C47.4166 39.6115 47.4166 39.6373 47.4041 39.7406C47.7543 39.8955 48.117 40.0634 48.4797 40.2312ZM50.6811 39.7406C50.6936 39.676 50.7061 39.5986 50.7311 39.534C50.3559 39.3016 49.9807 39.0563 49.6054 38.8239C49.5304 39.2629 49.4553 39.7019 49.3553 40.3216C49.9181 40.0634 50.3059 39.8955 50.6811 39.7406Z" fill="#469073"/>
<path d="M6.90368 37.2617C6.91619 34.7183 8.94246 32.6526 11.419 32.6526C13.9331 32.6655 15.9468 34.757 15.9343 37.3392C15.9343 39.9085 13.8705 42.0258 11.3815 41.9871C8.87992 41.9613 6.89118 39.8697 6.90368 37.2617ZM10.9062 40.2312C10.9812 40.1796 11.0438 40.1408 11.1188 40.0892C11.0188 39.6631 10.9187 39.2371 10.8186 38.811C10.4559 39.0563 10.0932 39.3016 9.73045 39.547C9.75547 39.6244 9.78048 39.689 9.8055 39.7664C10.1682 39.9214 10.5435 40.0763 10.9062 40.2312ZM11.0313 34.331C10.5059 34.5763 10.1307 34.7441 9.54283 35.0282C9.93058 35.338 10.1682 35.5317 10.4184 35.7254C10.7311 35.9707 10.9687 35.919 11.0188 35.5059C11.0688 35.1831 11.0313 34.8474 11.0313 34.331ZM9.06754 35.5575C8.89243 36.0481 8.75484 36.4355 8.59224 36.8615C8.79236 36.9002 8.89243 36.939 8.99249 36.9261C9.31769 36.8744 9.6429 36.797 9.9681 36.7324C9.79299 36.4484 9.63039 36.1643 9.44277 35.8932C9.38023 35.7899 9.26766 35.7254 9.06754 35.5575ZM13.758 35.635C13.6829 35.6221 13.5954 35.6092 13.5203 35.5962C13.2952 35.9707 13.07 36.3451 12.8449 36.7195C13.2577 36.7711 13.6579 36.8357 14.0707 36.8873C14.0957 36.8873 14.1207 36.8357 14.2082 36.7453C14.0707 36.3967 13.9206 36.0094 13.758 35.635ZM13.7705 39.0563C13.9331 38.6303 14.0832 38.243 14.3083 37.662C13.7204 37.7653 13.2952 37.8427 12.8699 37.9073C13.0951 38.2559 13.3202 38.5916 13.5578 38.9401C13.5704 38.9789 13.6204 38.9789 13.7705 39.0563ZM13.2702 39.6373C12.8949 39.3275 12.6448 39.1338 12.4071 38.9401C12.1069 38.7077 11.8568 38.6948 11.8193 39.1596C11.7942 39.4953 11.8193 39.831 11.8193 40.2829C12.3071 40.0634 12.6823 39.8955 13.2702 39.6373ZM11.7192 34.331C11.8318 34.9507 11.9068 35.3897 11.9944 35.8157C12.3696 35.5833 12.7448 35.3509 13.1326 35.1185C13.1201 35.0411 13.0951 34.9765 13.0825 34.8991C12.6823 34.7441 12.2946 34.5763 11.7192 34.331ZM9.05503 39.0305C9.11757 39.0434 9.18011 39.0693 9.25515 39.0822C9.4928 38.6948 9.73045 38.3075 9.9681 37.9331C9.55534 37.8427 9.13008 37.7653 8.51719 37.6362C8.75484 38.243 8.90494 38.6303 9.05503 39.0305Z" fill="#469073"/>
</g>
<defs>
<clipPath id="clip0_2451_8467">
<rect width="60" height="22" fill="white" transform="translate(1 20)"/>
</clipPath>
</defs>
</svg>
