<svg width="40" height="39" viewBox="0 0 40 39" fill="none" xmlns="http://www.w3.org/2000/svg">
<path d="M4.15654 37.7751C5.30364 36.655 6.2618 35.7238 7.21997 34.7656C7.78677 34.1988 7.77327 34.0639 7.21997 33.4971C6.74763 33.0112 6.24831 32.5524 5.78947 32.0666C5.37111 31.6212 5.02024 31.6212 4.60188 32.0666C3.63022 33.0652 2.64507 34.0369 1.47098 35.211C1.33603 34.6712 1.1336 34.2933 1.16059 33.9424C1.24156 32.9303 1.417 31.9316 1.56545 30.933C1.56545 30.906 1.56545 30.8925 1.57894 30.8655C1.7004 30.2987 4.03508 28.126 4.60188 28.045C5.33063 27.937 6.07287 27.8021 6.80161 27.7481C7.65182 27.6806 8.2726 27.3162 8.87989 26.6955C15.2901 20.2447 21.7274 13.821 28.1376 7.38371C28.421 7.10031 28.61 6.64147 28.7044 6.23661C28.8934 5.35942 28.9609 4.45524 29.1363 3.57804C29.2038 3.22717 29.4467 2.91678 29.6221 2.59289C29.6896 2.48493 29.8246 2.41745 29.9055 2.29599C31.1606 0.231215 33.3063 0.24471 35.3306 0.00179503C35.5735 -0.0251955 35.8435 0.258205 36.1943 0.447139C35.1417 1.48628 34.197 2.43095 33.2524 3.38911C32.6451 4.00989 32.6316 4.15834 33.2254 4.76563C33.6572 5.19748 34.0756 5.62933 34.5074 6.06117C35.1282 6.68196 35.2766 6.68196 35.8704 6.07467C36.8286 5.11651 37.7733 4.17184 38.7179 3.22717C39.2173 3.48358 39.3792 3.80746 39.2443 4.34727C39.0958 4.98155 38.9879 5.62933 38.9609 6.2771C38.9204 7.23526 38.448 7.88304 37.8542 8.61178C36.8016 9.86684 35.5196 10.4336 33.9406 10.4606C32.8745 10.4741 32.1322 10.96 31.39 11.7022C25.0067 18.1394 18.5965 24.5362 12.1997 30.9735C11.9298 31.2434 11.7409 31.6887 11.6734 32.0801C11.4845 33.0247 11.3765 33.9829 11.2416 34.9411C11.2416 34.9681 11.2416 34.995 11.2281 35.0085C10.2834 35.9262 9.47368 37.0733 8.36707 37.6941C7.47638 38.2069 6.23481 38.1125 5.14169 38.2204C4.88528 38.2339 4.60188 37.9775 4.15654 37.7751Z" fill="#C5C5C5"/>
<path d="M3.02294 25.5483C2.34818 25.5483 1.78138 25.5483 1.12011 25.5483C1.12011 23.551 1.12011 21.5672 1.12011 19.5294C0.701754 19.5025 0.377868 19.489 0 19.462C0 17.3837 0 15.3054 0 13.2002C0.97166 13.2002 1.92982 13.2002 2.96896 13.2002C2.96896 14.6577 2.96896 16.1016 2.96896 17.6131C3.49528 17.6131 3.95412 17.6131 4.49393 17.6131C4.49393 16.1691 4.49393 14.7251 4.49393 13.1597C5.68151 13.1597 6.80162 13.1327 7.90823 13.1732C8.44804 13.1867 8.75844 13.0247 9.01485 12.5389C9.51417 11.5807 10.0945 10.6765 10.6073 9.73188C10.7962 9.381 11.0256 9.27304 11.4035 9.28653C12.6721 9.31352 13.9541 9.30003 15.2632 9.30003C15.2632 8.96265 15.2632 8.69274 15.2632 8.35536C13.8327 8.35536 12.4157 8.35536 10.9312 8.35536C10.9312 7.50516 10.9312 6.73593 10.9312 5.92621C15.7355 5.92621 20.5263 5.92621 25.3711 5.92621C25.3711 6.69544 25.3711 7.47816 25.3711 8.31487C23.9136 8.31487 22.4831 8.31487 21.0256 8.31487C21.0256 8.66575 21.0256 8.94915 21.0256 9.28653C22.1457 9.28653 23.2254 9.28653 24.4534 9.28653C24.2375 9.52945 24.1296 9.67789 23.9946 9.81285C18.8799 14.9411 13.7517 20.0558 8.65047 25.184C8.34008 25.4944 8.02969 25.6293 7.58435 25.6158C6.59919 25.5888 5.61404 25.6023 4.52092 25.6023C4.52092 24.1718 4.52092 22.7818 4.52092 21.3378C3.9946 21.3378 3.54926 21.3378 3.00945 21.3378C3.02294 22.7143 3.02294 24.1178 3.02294 25.5483Z" fill="#C5C5C5"/>
<path d="M32.9285 12.377C32.9285 13.0112 32.9285 13.767 32.9285 14.5632C33.6842 14.5632 34.3725 14.5632 35.1147 14.5632C35.1147 13.9964 35.1147 13.4431 35.1147 12.7953C36.3563 12.7953 37.5439 12.7683 38.7179 12.8088C39.1363 12.8223 40 14.0369 40 14.4687C40 18.1124 40 21.7562 40 25.3999C40 26.1421 39.0553 27.0868 38.3266 27.0868C37.247 27.0868 36.1808 27.0868 35.0337 27.0868C35.0337 26.4795 35.0337 25.9262 35.0337 25.3054C34.1431 25.3054 33.3198 25.2784 32.4966 25.3189C32.3077 25.3324 32.1053 25.5214 31.9568 25.6698C30.8502 26.7629 29.7706 27.8695 28.6505 28.9492C28.4615 29.1381 28.1511 29.3 27.9082 29.3C23.9676 29.327 20.0405 29.3135 16.0999 29.3135C15.9919 29.3135 15.8839 29.2865 15.9514 29.2865C21.5789 23.6725 27.2605 18.018 32.9285 12.377Z" fill="#C5C5C5"/>
</svg>
