<svg width="33" height="41" viewBox="0 0 33 41" fill="none" xmlns="http://www.w3.org/2000/svg">
<g clip-path="url(#clip0_1908_7524)">
<path d="M22.7938 0C25.6289 0 28.4639 0 31.299 0C31.3273 0.396907 31.384 0.793814 31.4124 1.24742C31.9794 1.30412 32.4897 1.36082 33 1.41753C33 3.96907 33 6.52062 33 9.07216C32.1495 9.04381 31.866 9.46907 31.9227 10.2912C31.9794 10.9716 31.9227 11.6521 31.9227 12.4459C29.2294 12.2474 31.1856 9.95103 29.9665 9.07216C29.3144 10.7732 27.9536 12.134 28.2088 14.0902C28.5206 16.3582 28.9742 18.6263 29.2294 20.9227C29.6263 24.268 30.3067 27.6418 30.1366 30.9871C29.9381 35.183 27.5567 38.2732 23.4459 39.7474C22.6521 40.0309 21.8583 40.2577 21.0644 40.5129C19.732 40.5129 18.4278 40.5129 17.0954 40.5129C16.4717 40.3144 15.8479 40.1443 15.2242 39.9459C12.0773 38.8969 9.49743 37.1392 8.70361 33.7371C8.42011 32.4897 7.93815 32.1211 6.74743 32.1778C5.2165 32.2629 3.65722 31.9794 3.20361 30.2784C2.80671 28.7474 2.72165 27.1031 2.6366 25.5155C2.55155 24.2964 3.06186 23.049 2.32475 21.8582C2.18299 21.6314 2.2964 21.2345 2.26805 20.9227C2.23969 20.384 2.2964 19.817 2.12629 19.335C1.58763 17.7474 0.595365 16.2165 0.425262 14.6005C0.0567053 11.3119 0.226808 7.99485 0.0283548 4.70619C-0.113398 2.60825 0.538664 1.02062 2.38145 0C7.28609 0 12.2191 0 17.1237 0C19.0516 1.19072 19.3918 2.9768 19.2784 5.07474C19.165 7.42783 19.3634 9.80928 19.1933 12.1624C19.0799 13.8351 18.5979 15.4794 18.201 17.0954C17.7191 18.9948 17.1237 20.866 16.6418 22.7655C16.4717 23.4742 16.3299 24.268 16.4717 24.9768C16.7835 26.6495 16.8119 28.2371 16.2732 29.8531C15.8479 31.0722 15.1392 31.9227 13.8351 32.0644C12.8711 32.1778 11.8789 32.2345 10.7448 32.3196C10.915 32.8582 11 33.3119 11.1701 33.7371C13.3531 39.1237 22.1134 39.6624 25.799 35.6082C27.8119 33.3969 28.4072 30.7036 28.0387 27.8402C27.3866 22.8505 26.6778 17.8608 25.8273 12.8995C25.6005 11.5954 24.6933 10.3763 24.0979 9.12887C23.9562 9.18557 23.7861 9.21392 23.6443 9.27062C23.6443 10.2629 23.6443 11.2835 23.6443 12.3325C23.049 12.3325 22.6521 12.3325 22.2268 12.3325C21.7449 11.0851 22.6804 9.41237 21.0077 8.64691C20.9794 8.64691 20.9794 8.56186 20.9794 8.50515C20.9794 6.15206 20.9794 3.79897 20.9794 1.33247C22.0567 1.38918 23.0206 1.36082 22.7938 0ZM3.03351 12.5876C3.31701 12.6443 3.48712 12.7294 3.65722 12.7294C7.56959 12.7294 11.482 12.7294 15.3943 12.7577C16.2732 12.7577 16.3866 12.2758 16.3866 11.5954C16.3866 9.15722 16.3299 6.69072 16.415 4.25258C16.4433 3.23196 16.0464 2.9768 15.0825 2.9768C12.7294 3.03351 10.3763 3.00515 8.0232 3.00515C6.37887 3.00515 4.76289 3.00515 3.03351 3.00515C3.03351 6.29381 3.03351 9.38402 3.03351 12.5876ZM11.1134 24.2397C10.8016 23.1624 10.2062 22.8222 9.61083 22.8222C9.12887 22.8222 8.22165 23.7577 8.27835 24.183C8.33506 24.75 9.12887 25.6289 9.63918 25.6856C10.1778 25.7139 10.915 25.1469 11.1134 24.2397ZM9.18557 27.2448C8.10825 26.2809 7.25774 25.5438 6.15207 24.5799C6.15207 25.799 6.15207 26.4794 6.15207 27.2448C7.11598 27.2448 7.99485 27.2448 9.18557 27.2448ZM6.18042 23.4175C6.29382 23.5026 6.40722 23.5876 6.52062 23.701C7.31444 22.9072 8.10825 22.1418 9.07217 21.2062C8.0232 21.2062 7.14433 21.2062 6.18042 21.2062C6.18042 21.9433 6.18042 22.6804 6.18042 23.4175ZM12.9845 24.7216C12.0206 25.5722 11.1701 26.3093 10.2345 27.1314C13.0979 27.8119 13.5799 27.4149 12.9845 24.7216ZM10.2912 21.2912C11.1701 22.1134 12.0206 22.8789 12.9845 23.7577C13.6083 21.0077 13.0412 20.5258 10.2912 21.2912Z" fill="#C5C5C5"/>
<path d="M33 1.41753C32.4897 1.36082 32.0077 1.30412 31.4124 1.24742C31.3557 0.822165 31.3273 0.425258 31.299 0C31.8376 0 32.3763 0 33 0C33 0.481959 33 0.935567 33 1.41753Z" fill="white"/>
<path d="M12.9846 10.8299C10.8016 10.8299 8.64697 10.8299 6.46398 10.8299C6.46398 11 6.46398 11.1701 6.46398 11.3402C6.46398 11.567 6.35057 11.6804 6.12377 11.6804C5.78356 11.6804 5.41501 11.6804 5.0748 11.6804C4.87635 11.6804 4.76294 11.567 4.76294 11.3686C4.76294 10.2913 4.76294 9.24229 4.76294 8.16497C4.76294 7.85311 4.87635 7.56961 5.0748 7.3428C5.21655 7.1727 5.35831 7.0026 5.52841 6.80415C5.3016 6.74744 5.0748 6.66239 4.848 6.60569C4.70624 6.57734 4.62119 6.49229 4.59284 6.35054C4.53614 6.15208 4.70624 5.95363 4.9047 5.92528C5.10315 5.92528 5.3016 5.89693 5.52841 5.92528C5.64181 5.92528 5.72686 6.01033 5.81191 6.03868C5.86861 6.06703 5.89697 6.12373 5.95367 6.15208C6.09542 5.84023 6.23717 5.52837 6.40727 5.24487C6.49233 5.04641 6.63408 4.87631 6.71913 4.67786C6.86088 4.39435 7.11604 4.28095 7.39954 4.22425C7.96655 4.11085 8.53356 4.11085 9.12892 4.0825C10.0078 4.0825 10.8583 4.05415 11.7372 4.16755C11.8506 4.16755 11.964 4.1959 12.0774 4.22425C12.3609 4.28095 12.5877 4.4227 12.7294 4.67786C12.9562 5.10311 13.183 5.55672 13.4099 5.98198C13.4382 6.03868 13.4666 6.09538 13.4949 6.15208C13.6934 5.81188 14.0336 5.89693 14.3171 5.89693C14.3738 5.89693 14.4588 5.89693 14.5155 5.89693C14.6856 5.89693 14.8274 6.03868 14.8557 6.18043C14.8841 6.35054 14.799 6.52064 14.6006 6.57734C14.4305 6.63404 14.232 6.69074 14.0619 6.71909C14.0052 6.71909 13.9769 6.74744 13.8918 6.77579C14.0336 6.9459 14.1753 7.116 14.3171 7.25775C14.5722 7.54126 14.6856 7.85311 14.6856 8.19332C14.6856 9.21394 14.6856 10.2346 14.6856 11.2552C14.6856 11.5387 14.6006 11.6237 14.3171 11.6237C13.9769 11.6237 13.665 11.6237 13.3248 11.6237C13.0696 11.6237 12.9846 11.5103 12.9846 11.2552C12.9846 11.1418 12.9846 11 12.9846 10.8299ZM6.32222 6.57734C8.61862 6.35054 10.8583 6.35054 13.1547 6.57734C12.8995 6.09538 12.7011 5.64177 12.4459 5.21652C12.1624 4.70621 12.2758 4.73456 11.6238 4.67786C10.5465 4.56445 9.44078 4.5928 8.36346 4.62116C8.0516 4.64951 7.7681 4.67786 7.45624 4.73456C7.34284 4.76291 7.22944 4.81961 7.17274 4.93301C7.03099 5.18817 6.88923 5.44332 6.74748 5.69848C6.60573 5.98198 6.46398 6.26549 6.32222 6.57734ZM6.29387 8.84538C6.40728 8.81703 6.54903 8.78868 6.66243 8.73198C6.80418 8.67528 6.88923 8.53353 6.88923 8.39177C6.91758 7.99487 6.60573 7.62631 6.20882 7.56961C5.84026 7.51291 5.52841 7.71136 5.44336 8.05157C5.35831 8.39177 5.55676 8.67528 5.92532 8.78868C6.03872 8.81703 6.15212 8.81703 6.29387 8.84538ZM13.2965 8.84538C13.3815 8.81703 13.5516 8.78868 13.7217 8.70363C13.9485 8.59023 14.0619 8.39177 14.0336 8.10827C14.0052 7.85311 13.8351 7.62631 13.58 7.56961C13.2681 7.48456 12.8995 7.62631 12.7011 7.90982C12.5877 8.10827 12.5026 8.33507 12.616 8.56188C12.7294 8.78868 12.9846 8.81703 13.2965 8.84538ZM9.72429 9.72425C10.0645 9.72425 10.4047 9.72425 10.7449 9.72425C10.8583 9.72425 10.8867 9.66755 10.8867 9.5825C10.8867 9.46909 10.8867 9.35569 10.8867 9.24229C10.8867 9.15724 10.83 9.10054 10.7449 9.10054C10.0645 9.10054 9.35573 9.10054 8.67532 9.10054C8.56191 9.10054 8.53356 9.15724 8.53356 9.24229C8.53356 9.35569 8.53356 9.44074 8.53356 9.55415C8.53356 9.6959 8.56191 9.72425 8.70367 9.72425C9.04387 9.72425 9.38408 9.72425 9.72429 9.72425Z" fill="#C5C5C5"/>
</g>
<defs>
<clipPath id="clip0_1908_7524">
<rect width="33" height="40.5412" fill="white"/>
</clipPath>
</defs>
</svg>
