<svg width="38" height="38" viewBox="0 0 38 38" fill="none" xmlns="http://www.w3.org/2000/svg">
<g clip-path="url(#clip0_1908_7526)">
<path d="M30.8005 18.1761C29.7865 19.469 28.6458 20.9139 27.3529 22.5364C26.2628 21.4463 25.2235 20.4323 24.2602 19.3422C24.0827 19.1141 24.2095 18.5564 24.2855 18.1761C25.477 13.3342 22.7899 8.77118 17.9987 7.50367C13.2835 6.26151 8.51767 9.32889 7.45296 14.2722C6.4643 18.8099 9.78518 23.6518 14.475 24.3109C15.6664 24.4883 16.8832 24.2348 18.1001 24.2602C18.531 24.2602 19.0887 24.3616 19.3676 24.6404C20.2295 25.4263 21.0407 26.3135 21.8012 27.2262C22.0547 27.5304 22.2321 28.1641 22.08 28.4937C21.8772 28.95 21.3449 29.5077 20.9139 29.533C19.8999 29.5837 18.8606 30.0907 17.8212 29.1528C17.086 28.519 15.4383 29.2542 14.8806 30.1921C13.5877 32.4483 13.2328 32.5751 10.7485 31.6878C10.3429 31.561 9.96263 31.4089 9.55703 31.2822C8.06136 30.7245 7.50366 29.8879 7.95996 28.3416C8.39092 26.8713 7.83321 26.0093 6.69245 25.3249C6.4136 25.1474 5.98265 25.1474 5.65309 25.1728C5.14609 25.2488 4.66443 25.5784 4.20813 25.5277C3.49832 25.477 2.48431 25.4009 2.15476 24.9446C1.39425 23.8546 0.861898 22.5871 0.481645 21.3195C0.152092 20.2548 0.937949 19.545 1.79986 18.962C3.04202 18.1254 3.44762 17.1368 2.96597 15.8185C2.83922 15.4636 2.35756 15.1848 1.97731 14.9566C-0.228162 13.6638 -0.405614 13.1821 0.481645 10.7739C0.633746 10.3682 0.785847 9.98799 0.937949 9.60774C1.5717 7.98533 2.25616 7.60507 3.95463 7.93462C4.79118 8.08673 5.55169 8.34023 6.33755 7.47832C7.12341 6.61641 7.17411 5.93196 6.8192 4.91795C6.18545 3.14343 6.59105 2.35757 8.34022 1.54637C8.61907 1.41961 8.87257 1.31821 9.15142 1.19146C11.585 0.0760517 12.016 0.202803 13.537 2.33222C14.4496 3.62508 16.4776 3.52368 17.2888 2.12942C18.7085 -0.278851 18.9873 -0.380252 21.6237 0.557706C21.8519 0.633757 22.1054 0.735158 22.3335 0.811209C24.1841 1.47031 24.7672 2.12942 24.2348 4.03069C23.8039 5.62775 24.6911 6.28686 25.6037 6.99667C25.8826 7.22482 26.5417 7.12342 26.9726 6.99667C29.3809 6.33756 29.8626 6.54036 30.8766 8.82188C31.0287 9.17679 31.2061 9.50634 31.3582 9.86124C32.0934 11.509 31.9666 12.2695 30.4456 13.1568C29.2288 13.8666 28.7218 14.8045 29.1528 16.0213C29.4316 16.7819 30.1668 17.3903 30.8005 18.1761Z" fill="#006B5B"/>
<path d="M36.3016 27.1248C34.5777 25.2742 32.4483 24.6405 29.9894 25.2742C29.6344 25.3756 29.1021 25.401 28.8739 25.2235C27.7078 24.2602 27.7585 24.2602 26.6431 23.2208C25.3249 21.9533 24.032 20.6858 22.7138 19.4944C21.928 18.7846 21.5224 18.1254 21.9787 17.01C22.2322 16.4016 22.1308 15.5904 22.0547 14.8806C21.7252 10.8753 17.1621 8.13745 13.3596 9.88662C13.2835 9.91197 13.2582 10.0387 13.3342 10.0894C15.1341 11.7625 16.8579 13.3596 18.3789 14.7539C18.4296 14.8046 18.4296 14.8806 18.3789 14.9313C17.2382 16.1735 16.2749 17.2128 15.2102 18.3789C15.1595 18.4296 15.0834 18.4296 15.0327 18.3789C13.3849 16.7058 11.7372 15.0327 10.0641 13.3089C10.0134 13.2582 9.91197 13.2582 9.86126 13.3343C9.75986 13.4864 9.68381 13.6131 9.63311 13.7652C8.3656 18.0747 11.5344 22.435 15.996 21.9533C18.1001 21.7252 19.2155 22.4603 20.407 23.8039C21.0154 24.4884 21.7252 25.1221 22.4096 25.7559C23.1448 26.4657 24.032 27.0741 24.7672 27.7585C24.7165 27.7078 24.7419 27.8092 24.7672 27.7585L24.7926 27.7332C24.9954 27.8853 24.0574 26.9727 24.2602 27.1248C25.2742 27.936 25.8826 28.7979 25.3503 30.2175C25.1221 30.8513 25.2489 31.6371 25.3249 32.3469C25.8066 36.3016 30.395 38.8619 34.1468 36.986C32.2709 35.2369 30.471 33.5384 28.7979 31.992C29.9386 30.6992 30.902 29.6091 31.8653 28.519C33.7919 30.3696 35.5918 32.0934 37.4423 33.8679C37.5184 33.7412 37.6451 33.6144 37.6705 33.4623C38.3549 31.1048 37.9747 28.95 36.3016 27.1248Z" fill="#006B5B"/>
</g>
<defs>
<clipPath id="clip0_1908_7526">
<rect width="38" height="37.6451" fill="white"/>
</clipPath>
</defs>
</svg>
