<svg width="26" height="26" viewBox="0 0 38 52" fill="none" xmlns="http://www.w3.org/2000/svg">
    <path d="M36.096 0H6.016a5.998 5.998 0 0 0-4.252 1.779A6.099 6.099 0 0 0 0 6.066v36.397c0 .797.154 1.586.457 2.322a6.065 6.065 0 0 0 1.303 1.969 6.008 6.008 0 0 0 1.953 1.314c.73.305 1.512.461 2.303.46h.859v2.6a.871.871 0 0 0 .53.806.853.853 0 0 0 .941-.193l2.83-2.854 2.83 2.854a.857.857 0 0 0 .941.194.861.861 0 0 0 .531-.807v-9.532h20.626v1.733H17.188v1.733h18.907v1.733H17.188v1.734h18.907c.455-.001.892-.184 1.215-.509.322-.325.503-.765.503-1.225V1.733c0-.46-.181-.9-.503-1.224A1.714 1.714 0 0 0 36.096 0zM1.718 6.066a4.356 4.356 0 0 1 1.26-3.062 4.284 4.284 0 0 1 3.037-1.27h30.079v34.664H6.016c-.801 0-1.594.16-2.332.475a5.99 5.99 0 0 0-1.965 1.352l-.001-32.16zm.086 35.53h5.072v1.733h-5.07a4.388 4.388 0 0 1 0-1.733h-.002zm4.21 5.194a4.282 4.282 0 0 1-1.92-.459 4.32 4.32 0 0 1-1.517-1.274h4.299v1.733h-.861zm7.735 2.241-1.97-1.986a.858.858 0 0 0-.937-.189.857.857 0 0 0-.278.188l-1.97 1.987v-7.435h5.15l.005 7.435zM2.581 39.86c.4-.538.918-.975 1.515-1.276a4.262 4.262 0 0 1 1.92-.457h30.08v1.733H2.58z" fill="#C9C5D8"/>
    <path d="M5.157 3.466h1.719v31.198h-1.72V3.466zM12.031 15.6h18.906a.853.853 0 0 0 .608-.254.867.867 0 0 0 .252-.613V9.54a.872.872 0 0 0-.53-.807.853.853 0 0 0-.33-.066H12.03a.855.855 0 0 0-.607.254.87.87 0 0 0-.252.612v5.195a.87.87 0 0 0 .529.806.852.852 0 0 0 .33.066zm.86-5.195h17.187v3.466H12.891v-3.466z" fill="#C9C5D8"/>
</svg>
