<svg width="85" height="116" viewBox="0 0 85 116" fill="none" xmlns="http://www.w3.org/2000/svg">
    <path d="M80.23 1H14.203a13.173 13.173 0 0 0-9.332 3.9A13.363 13.363 0 0 0 1 14.298v79.793a13.368 13.368 0 0 0 1.002 5.091 13.295 13.295 0 0 0 2.862 4.316 13.176 13.176 0 0 0 4.285 2.882 13.117 13.117 0 0 0 5.055 1.01h1.885v5.698a1.91 1.91 0 0 0 .315 1.064 1.885 1.885 0 0 0 1.948.81c.368-.076.705-.261.968-.531l6.212-6.256 6.212 6.256a1.873 1.873 0 0 0 2.065.425c.347-.144.643-.389.851-.704a1.91 1.91 0 0 0 .315-1.064V92.19h45.273v3.8h-41.52v3.8h41.5v3.8h-41.5v3.8h41.5c1-.002 1.958-.402 2.666-1.115A3.817 3.817 0 0 0 84 103.59V4.8a3.818 3.818 0 0 0-1.106-2.685A3.764 3.764 0 0 0 80.23 1zM4.77 14.298a9.544 9.544 0 0 1 2.766-6.713A9.41 9.41 0 0 1 14.202 4.8h66.023v75.996h-66.02a13.072 13.072 0 0 0-5.12 1.04A13.149 13.149 0 0 0 4.774 84.8l-.002-70.502zm.19 77.892h11.132v3.8H4.962a9.607 9.607 0 0 1 0-3.8H4.96zm9.242 11.388a9.395 9.395 0 0 1-4.217-1.006 9.468 9.468 0 0 1-3.33-2.794h9.437v3.8h-1.89zm16.977 4.913-4.325-4.355a1.868 1.868 0 0 0-1.333-.557 1.866 1.866 0 0 0-1.334.557l-4.325 4.355v-16.3H31.17l.009 16.3zM6.665 88.384a9.438 9.438 0 0 1 3.325-2.797 9.368 9.368 0 0 1 4.216-1.003H80.23v3.8H6.665z" fill="currentColor" stroke="currentColor" stroke-width=".4"/>
    <path d="M12.319 8.6h3.773v68.394h-3.773V8.6zM27.408 35.198h41.498a1.874 1.874 0 0 0 1.334-.555 1.9 1.9 0 0 0 .553-1.344V21.912a1.913 1.913 0 0 0-.548-1.353 1.884 1.884 0 0 0-1.34-.56H27.409c-.5 0-.98.2-1.333.556-.354.356-.552.84-.552 1.343v11.387a1.912 1.912 0 0 0 .547 1.352 1.886 1.886 0 0 0 1.338.561zm1.886-11.388H67.02v7.6H29.296l-.002-7.6z" fill="currentColor" stroke="currentColor" stroke-width=".4"/>
</svg>
