<svg width="17" height="20" viewBox="0 0 17 20" fill="none" xmlns="http://www.w3.org/2000/svg">
    <g clip-path="url(#0nxi3b4jga)" fill="#fff">
        <path d="M14.307 12.968c.185.183.371.365.464.548.372.548.186 1.187-.464 1.461-.186.091-.465.183-.65.183-.186.091-.465.091-.65.091.092.091.278.183.37.274.465.365.372.913-.185 1.187-.557.274-1.208.274-1.765.183-1.022-.183-2.137-.365-3.159-.548-.836-.183-1.672-.274-2.508-.457a6.541 6.541 0 0 0-1.858-.274V8.767h.279c.557 0 1.022-.183 1.486-.548.93-.73 1.858-1.461 2.787-2.192.093 0 .093-.09.186-.09.557-.549 1.022-.64 2.044-.184.464.274.836.64 1.115 1.096 0 .274.092.366.278.457.372.091.65.183 1.022.183.557 0 1.208.09 1.765 0 .743-.092 1.486.73 1.208 1.643-.186.457-.465.731-.836.914-.093.091-.279.091-.372.182.743.274 1.022.822.836 1.553-.186.73-.743 1.096-1.393 1.187z"/>
        <path d="M15.421.457c.744.456 1.208 1.004 1.487 1.735.557 1.826-.558 3.653-2.415 4.018-.28.091-.465.183-.465.457-.093.091-.093.182-.093.274-.464-.092-.929-.092-1.393-.183-.093 0-.279-.183-.372-.274-.093-.091-.186-.274-.278-.365-.093-.092-.186-.183-.093-.457 0-.091-.093-.183-.186-.274-1.672-1.552-1.208-4.292.929-5.205.371-.092.836-.183 1.3-.183-.278 1.096-.557 2.1-.929 3.105.465.183 1.022.274 1.58.457.278-1.005.557-2.1.928-3.105zM0 12.42V9.132c0-.365.093-.456.372-.456h2.322c.279 0 .372.091.372.365v6.667c0 .365-.093.365-.372.365H.372C0 16.073 0 15.982 0 15.708V12.42zm1.58 2.01c-.28 0-.558.273-.558.547s.279.548.557.548c.279 0 .558-.183.558-.548 0-.365-.28-.548-.558-.548zM11.334 18.174c0 .821-.557 1.46-1.3 1.735-.744.274-1.58 0-2.044-.64a1.92 1.92 0 0 1-.093-2.1c.093-.183.186-.183.372-.183.836.183 1.765.274 2.6.457.094 0 .186.091.28.183.092.273.092.456.185.547zm-1.95.73a.63.63 0 0 0 .65-.64.63.63 0 0 0-.65-.638.63.63 0 0 0-.651.639c.093.365.372.64.65.64z"/>
    </g>
    <defs>
        <clipPath id="0nxi3b4jga">
            <path fill="#fff" d="M0 0h17v20H0z"/>
        </clipPath>
    </defs>
</svg>
