<svg width="21" height="21" viewBox="0 0 21 21" fill="none" xmlns="http://www.w3.org/2000/svg">
<g clip-path="url(#clip0_5889_105377)">
<path d="M10.5048 21.0007C16.3117 21.0072 21.0622 16.2593 20.9999 10.3793C20.9375 4.63052 16.2198 -0.0649454 10.3736 0.00067963C4.62572 0.0663046 -0.0690123 4.78146 -0.00011679 10.6319C0.0687787 16.361 4.73727 21.0072 10.5048 21.0007ZM15.4948 9.85756C15.4423 9.86412 15.4161 9.8674 15.3898 9.8674C14.0185 9.8674 12.6471 9.8674 11.2725 9.8674C11.1675 9.8674 11.1314 9.83787 11.1314 9.72959C11.1347 8.94865 11.1314 8.16771 11.1314 7.38349C11.1314 7.34084 11.1413 7.30146 11.1445 7.27521C11.8105 7.21287 12.4667 7.17021 13.1163 7.09146C13.7659 7.00943 14.4089 6.8913 15.0749 6.7863C15.3209 7.78052 15.4587 8.80427 15.4948 9.85756ZM5.49184 9.86412C5.53121 8.80427 5.66243 7.78052 5.91833 6.76005C7.2175 7.05209 8.51996 7.20302 9.83553 7.25224C9.83553 8.13162 9.83553 8.99131 9.83553 9.86084C8.38873 9.86412 6.95176 9.86412 5.49184 9.86412ZM15.0683 14.2511C13.7691 13.9657 12.4667 13.8016 11.1445 13.7622C11.1445 12.8829 11.1445 12.0232 11.1445 11.1569C12.5979 11.1569 14.0349 11.1569 15.4915 11.1569C15.462 12.2069 15.3209 13.2274 15.0683 14.2511ZM5.49512 11.1602C6.95833 11.1602 8.39857 11.1602 9.84209 11.1602C9.84209 12.033 9.84209 12.8927 9.84209 13.7655C8.51668 13.8016 7.21422 13.969 5.92489 14.2511C5.669 13.2241 5.53121 12.2069 5.49512 11.1602ZM14.7009 5.51646C14.6484 5.53287 14.6188 5.54271 14.5893 5.54927C13.5132 5.78224 12.4273 5.90693 11.3283 5.96271C11.1806 5.96927 11.1314 5.94302 11.1314 5.78224C11.138 4.36146 11.1347 2.94068 11.1347 1.5199C11.1347 1.47396 11.1413 1.42802 11.1478 1.37224C11.197 1.38209 11.2266 1.38865 11.2561 1.39849C11.7843 1.55271 12.2403 1.83818 12.6438 2.20568C13.6379 3.1113 14.2317 4.26302 14.7009 5.51646ZM14.7009 15.4915C14.2448 16.7088 13.6707 17.8277 12.7291 18.7235C12.3289 19.1041 11.8762 19.4027 11.348 19.5799C11.2823 19.5996 11.2167 19.616 11.1445 19.6357C11.1445 18.0968 11.1445 16.5841 11.1445 15.0551C12.3453 15.0879 13.5231 15.229 14.7009 15.4915ZM9.83881 5.96271C8.6315 5.92005 7.46028 5.78552 6.30218 5.5263C6.30546 5.49349 6.30546 5.4738 6.30874 5.46068C6.62369 4.60099 7.02394 3.78396 7.57839 3.04896C8.07706 2.38615 8.66431 1.82177 9.44841 1.50021C9.56979 1.45099 9.70102 1.4149 9.83881 1.36568C9.83881 2.91115 9.83881 4.42709 9.83881 5.96271ZM6.29234 15.5079C6.8271 15.3044 9.34014 15.0026 9.83553 15.0747C9.83553 16.5874 9.83553 18.1033 9.83553 19.6193C9.51402 19.5733 9.02191 19.3404 8.62822 19.0319C7.46356 18.1197 6.81397 16.863 6.29234 15.5079ZM18.3687 5.71005C19.1397 6.98318 19.5826 8.36131 19.6909 9.8674C19.6056 9.8674 19.5432 9.8674 19.4842 9.8674C18.6476 9.8674 17.811 9.86412 16.9744 9.87068C16.8169 9.87068 16.7809 9.82146 16.7677 9.67052C16.7021 8.95849 16.6299 8.24646 16.5381 7.53771C16.4921 7.17021 16.4003 6.80927 16.3314 6.45162C17.0039 6.20881 17.6765 5.96271 18.3687 5.71005ZM1.3089 9.86084C1.42372 8.35474 1.86334 6.9799 2.63103 5.71334C3.31343 5.96271 3.9827 6.2088 4.66837 6.45818C4.38951 7.57052 4.25172 8.70912 4.19923 9.86084C3.22813 9.86084 2.27999 9.86084 1.3089 9.86084ZM16.3183 14.5563C16.5939 13.444 16.7415 12.3119 16.7841 11.1635C17.7585 11.1635 18.7165 11.1635 19.6909 11.1635C19.5728 12.6597 19.1331 14.0346 18.3622 15.3011C17.6831 15.0551 17.0138 14.809 16.3183 14.5563ZM2.63431 15.3011C1.86334 14.0313 1.42044 12.6597 1.3089 11.1635C2.27999 11.1635 3.23469 11.1635 4.20251 11.1635C4.24844 12.3218 4.40263 13.4571 4.66837 14.5596C3.97614 14.809 3.31343 15.0518 2.63431 15.3011ZM17.5978 4.6338C17.0335 4.83396 16.502 5.02099 15.9574 5.21459C15.5637 4.10224 15.0617 3.08177 14.3728 2.15646C15.6293 2.7274 16.689 3.54771 17.5978 4.6338ZM14.3728 18.8449C15.065 17.9196 15.5637 16.8958 15.9541 15.7966C16.5053 15.9935 17.0335 16.1838 17.5879 16.3807C16.6792 17.4635 15.6228 18.2772 14.3728 18.8449ZM3.40201 4.6338C4.30749 3.55427 5.36061 2.73396 6.61057 2.1663C5.92161 3.09162 5.42622 4.11209 5.03253 5.2113C4.48793 5.02099 3.95973 4.83396 3.40201 4.6338ZM6.60729 18.8351C5.36061 18.2641 4.30749 17.4536 3.40857 16.3741C3.96957 16.174 4.49777 15.9902 5.03581 15.7966C5.42622 16.9024 5.92489 17.9163 6.60729 18.8351Z" fill="#DF7B79"/>
</g>
<defs>
<clipPath id="clip0_5889_105377">
<rect width="21" height="21" fill="white" transform="matrix(-1 0 0 1 21 0)"/>
</clipPath>
</defs>
</svg>
