<svg width="18" height="17" viewBox="0 0 18 17" fill="none" xmlns="http://www.w3.org/2000/svg">
    <g clip-path="url(#ttvtwy3wxa)" fill="#fff">
        <path d="M15.453 17c-.934-.95-1.868-1.899-2.717-2.934-.17-.173-.255-.173-.425 0-1.019.604-2.038.95-3.141 1.035 0-.43 0-.862.084-1.208 0-.086.085-.172.17-.259.17-.086.34-.172.595-.172 2.462-.604 4.67-3.02 4.415-6.3-.17-2.675-2.208-5.005-4.84-5.436-3.057-.604-5.943 1.208-6.792 4.142 0 .173-.085.259-.085.345-.51 0-1.02.086-1.613.173.17-.518.254-1.036.424-1.554C2.632 2.072 4.67.518 7.641.086c.17 0 .255-.086.34-.086h.934c.255 0 .424.086.68.086 4.839.777 7.64 6.127 5.603 10.7-.17.432-.17.605.17.864.849.863 1.613 1.726 2.462 2.589.17.172.34.431.085.69-.764.69-1.444 1.38-2.208 2.071h-.254z"/>
        <path d="M0 10.7c.085-.258.255-.517.594-.431.425.086.764-.086.85-.518 0-.086.084-.172.17-.345-.17-.173-.34-.345-.425-.518a.422.422 0 0 1 0-.604l.254-.259c.68-.69.68-.69 1.359 0 .085.087.255.087.34.087.17-.087.424-.173.679-.26V7.25c0-.26.17-.518.51-.432h.848c.255 0 .51.173.425.432-.17.776.34.863.849 1.122l.424-.432c.17-.173.425-.173.68.086.085 0 .085.087.17.173.679.69.679.69 0 1.38-.085.087-.085.26-.085.432 0 .173.084.259.084.432 0 .258.17.345.425.258.17 0 .424 0 .51.087.424.259.17.776.254 1.122 0 .172-.085.431-.255.517-.17.087-.424.087-.594.087-.17 0-.34 0-.34.259 0 .086-.084.258-.17.345-.17.172-.084.345.086.431 0 0 .084.173.17.26.254.258.17.43 0 .69a3.71 3.71 0 0 1-.595.517c-.255.26-.51.26-.68 0-.084-.086-.17-.086-.17-.172-.254-.345-.424-.345-.678-.173-.17.086-.34.086-.51.173v.086c0 .345.085.777-.254.863-.425.086-.85.086-1.274 0-.085 0-.255-.259-.255-.345-.085-.173 0-.345 0-.518a.668.668 0 0 0-.34-.345l-.509-.26-.424.432c-.255.173-.425.173-.68 0l-.17-.172c-.679-.69-.679-.69 0-1.467.085-.087.085-.26.085-.345 0-.087-.084-.26-.084-.346 0-.345-.255-.431-.51-.431s-.51 0-.68-.345C0 11.39 0 11.046 0 10.7zm6.283.69c0-1.035-.764-1.898-1.783-1.898s-1.783.863-1.783 1.813c0 1.035.849 1.812 1.783 1.812 1.019.086 1.783-.777 1.783-1.726z"/>
    </g>
    <defs>
        <clipPath id="ttvtwy3wxa">
            <path fill="#fff" d="M0 0h18v17H0z"/>
        </clipPath>
    </defs>
</svg>
