<svg width="25" height="24" viewBox="0 0 25 24" fill="none" xmlns="http://www.w3.org/2000/svg">
    <g clip-path="url(#1t6c2s7c3a)">
        <path d="M12.1 23.2c6.3 0 11.3-5 11.3-11.2C23.4 5.8 18.3.8 12.1.8 5.8.8.8 5.8.8 12c0 6.2 5 11.2 11.3 11.2z" stroke="currentColor" stroke-width="1.5" stroke-miterlimit="10"/>
        <path d="M12 9.2c.5 0 .9.2 1.2.6.1.3.1.6.1.8-.2 1.2-.4 2.3-.6 3.5-.1.7-.2 1.4-.4 2-.1.4.2.6.5.4.2-.1.3-.2.5-.3.1-.1.3-.2.4-.3.1-.1.2 0 .3 0 .1.1.1.2 0 .3 0 .1-.1.1-.1.2-.5.3-.9.7-1.4 1-.4.2-.8.4-1.2.5-.4.1-.8 0-1.1-.3-.3-.3-.5-.7-.4-1.1.1-.7.2-1.3.4-2 .2-1.2.4-2.3.6-3.5 0-.2.1-.4-.1-.6-.2-.1-.4 0-.6.1-.2.1-.4.3-.6.4-.2.1-.4.1-.5 0-.1.1 0-.1.1-.2.5-.4.9-.7 1.4-1 .5-.3 1-.5 1.5-.5zM14.2 6.7c0 .8-.6 1.4-1.4 1.4-.8 0-1.4-.6-1.4-1.4 0-.8.6-1.4 1.4-1.4.8 0 1.4.7 1.4 1.4z" fill="currentColor"/>
    </g>
    <defs>
        <clipPath id="1t6c2s7c3a">
            <path fill="currentColor" d="M0 0h24.2v24H0z"/>
        </clipPath>
    </defs>
</svg>
