<svg width="22" height="17" viewBox="0 0 22 17" fill="none" xmlns="http://www.w3.org/2000/svg">
    <g clip-path="url(#j4pc5szioa)" fill="currentColor">
        <path d="M.143 9.314c.42-2.666 1.66-4.892 3.682-6.613C6.735.227 10.085-.554 13.78.384c3.05.773 5.387 2.625 6.938 5.506 1.1 2.04 1.494 4.292 1.174 6.695a10.87 10.87 0 0 1-1.21 3.722c-.068.125-.159.18-.294.177-.09-.002-.182-.002-.27-.005a7.019 7.019 0 0 0-.845.01 2.3 2.3 0 0 1-.23.011c-.484 0-.916-.141-1.318-.431a5.255 5.255 0 0 0-.533-.321 9.359 9.359 0 0 1-.262-.15l-.112-.064.785-1.367 1.904 1.103a9.52 9.52 0 0 0 .951-4.887l-2.263.4-.273-1.555 2.295-.407a9.473 9.473 0 0 0-2.453-4.433L16.21 6.245l-1.203-1.013 1.564-1.876c-1.003-.851-3.645-1.838-4.783-1.789v2.469l-.12.01c-.018.003-.034.003-.047.005a.947.947 0 0 1-.088.005h-.335c-.237 0-.483 0-.723.003-.057 0-.14-.005-.2-.065-.06-.06-.067-.141-.067-.207.002-.55.002-1.112.002-1.653V1.567a9.384 9.384 0 0 0-4.783 1.79l1.567 1.875-1.203 1.013-1.554-1.857c-1.23 1.275-2.035 2.727-2.453 4.43l2.297.41-.275 1.554-2.264-.4c-.111 1.743.203 3.344.957 4.888l1.902-1.1.779 1.353-.101.068a.402.402 0 0 0-.034.024l-.062.041-.258.15c-.348.203-.706.412-1.062.613a.519.519 0 0 1-.255.063c-.25.002-.501.002-.746.002-.33 0-.673 0-1.008.003-.164.003-.27-.063-.348-.206C.151 14.084-.239 11.744.143 9.314z"/>
        <path d="M6.444 14.118h9.107v2.359H6.444v-2.36zM14.013 7.85c-.759.95-1.546 1.93-2.315 2.898a.371.371 0 0 0-.076.162c-.109.5-.514.826-1.005.826-.037 0-.073-.003-.11-.006a1.009 1.009 0 0 1-.896-.971 1.025 1.025 0 0 1 .891-1.063.356.356 0 0 0 .148-.06c.572-.418 1.152-.847 1.713-1.26l2.182-1.61.198.169-.112.14c-.023.032-.05.064-.073.095l-.545.68z"/>
    </g>
    <defs>
        <clipPath id="j4pc5szioa">
            <path fill="currentColor" transform="matrix(-1 0 0 1 22 0)" d="M0 0h22v16.5H0z"/>
        </clipPath>
    </defs>
</svg>
