<svg width="32" height="32" viewBox="0 0 32 32" fill="none" xmlns="http://www.w3.org/2000/svg">
    <path d="M27.922 19.845a5.706 5.706 0 0 0-.063-6.76 8.955 8.955 0 0 0-3.1-2.65 7.492 7.492 0 0 1-.672 6.042 10.102 10.102 0 0 1-2.917 3.154 13.594 13.594 0 0 1-4.009 1.922c-1.526.45-3.107.672-4.697.672-.3 0-.75-.024-1.336-.063a12.924 12.924 0 0 0 7.172 1.96c.893 0 1.787-.078 2.672-.237a12.263 12.263 0 0 0 5.535 2.143.464.464 0 0 0 .332-.103.539.539 0 0 0 .198-.324c0-.055 0-.095.016-.095.015 0 .015-.031-.008-.095l-.032-.087-.04-.07a.286.286 0 0 0-.055-.08c-.016-.024-.04-.047-.063-.071l-.071-.071-.063-.071c-.048-.064-.166-.182-.348-.372a6.376 6.376 0 0 1-.396-.435c-.079-.103-.197-.253-.34-.435a4.465 4.465 0 0 1-.38-.569 7.315 7.315 0 0 1-.308-.656c1.186-.672 2.206-1.566 2.973-2.65z" fill="currentColor"/>
    <path d="M22.704 12.863c0 3.788-4.412 6.863-9.852 6.863-1.012 0-1.985-.102-2.902-.3-.696-.15-5.827 2.751-5.827 2.751s2.53-3.953 1.953-4.332C4.178 16.595 3 14.823 3 12.863 3 9.076 7.412 6 12.852 6s9.852 3.068 9.852 6.863z" stroke="currentColor" stroke-width="1.3" stroke-miterlimit="10" stroke-linecap="round" stroke-linejoin="round"/>
</svg>
