<svg width="17" height="17" viewBox="0 0 17 17" fill="none" xmlns="http://www.w3.org/2000/svg">
    <path d="M0 17v-.554C0 12.61.046 8.823 0 4.989c0-.739.184-1.34.645-1.894.737-.924 1.428-1.894 2.165-2.818A.702.702 0 0 1 3.317 0H13.73c.184 0 .415.139.507.231.875 1.155 1.75 2.264 2.58 3.418.092.139.184.324.184.509v12.611c0 .046 0 .092-.046.139H0V17zM15.295 5.174H1.705V14.967c0 .416.23.37.46.37h12.67c.368 0 .46-.092.46-.462V5.173zM8.062 1.755c-.046-.046-.092-.046-.092-.046H4.054a.493.493 0 0 0-.276.093c-.415.508-.783 1.016-1.198 1.57h5.482V1.755zm.83 1.663h5.482c-.322-.461-.645-.831-.921-1.247-.23-.37-.507-.462-.922-.462-1.06.046-2.12 0-3.179 0h-.506v1.71h.046z" fill="currentColor"/>
    <path d="M10.964 6.883H5.943V8.5h5.021V6.883z" fill="currentColor"/>
</svg>
