<svg width="24" height="19" viewBox="0 0 24 19" fill="none" xmlns="http://www.w3.org/2000/svg">
    <g clip-path="url(#jz8w5f6zra)" fill="currentColor">
        <path d="M3.988 0H.798A.797.797 0 0 0 0 .792v3.166a.797.797 0 0 0 1.595 0V1.583h2.393a.797.797 0 0 0 .797-.791A.797.797 0 0 0 3.988 0zM23.128 14.25a.797.797 0 0 0-.797.792v2.375h-2.393a.797.797 0 0 0-.797.791c0 .436.359.792.797.792h3.19a.797.797 0 0 0 .798-.792v-3.166a.797.797 0 0 0-.798-.792zM23.128 0h-3.19a.797.797 0 0 0-.797.792c0 .435.359.791.797.791h2.393v2.375a.797.797 0 0 0 1.595 0V.792A.797.797 0 0 0 23.128 0zM3.988 17.417H1.595v-2.375a.797.797 0 0 0-1.595 0v3.166c0 .436.359.792.798.792h3.19a.797.797 0 0 0 .797-.792.797.797 0 0 0-.797-.791zM4.785 3.167H3.19v12.666h1.595V3.167zM7.975 3.167H6.38v9.5h1.595v-9.5zM11.165 3.167H9.57v9.5h1.595v-9.5zM14.356 3.167H12.76v12.666h1.595V3.167zM17.546 3.167H15.95v9.5h1.595v-9.5zM20.736 3.167H19.14v12.666h1.595V3.167zM7.975 14.25H6.38v1.583h1.595V14.25zM11.165 14.25H9.57v1.583h1.595V14.25zM17.546 14.25H15.95v1.583h1.595V14.25z"/>
    </g>
    <defs>
        <clipPath id="jz8w5f6zra">
            <path fill="currentColor" d="M0 0h23.926v19H0z"/>
        </clipPath>
    </defs>
</svg>
