<svg width="17" height="16" viewBox="0 0 17 16" fill="none" xmlns="http://www.w3.org/2000/svg">
    <path fill-rule="evenodd" clip-rule="evenodd" d="M17 6.066c-.108.377-.191.762-.327 1.13a4.33 4.33 0 0 1-1.123 1.668c-2.325 2.181-4.645 4.367-6.965 6.553-.558.525-1.216.725-1.968.479a2.16 2.16 0 0 1-.771-.462A856.01 856.01 0 0 1 .603 10.51C-.203 9.748-.2 8.703.607 7.942 2.964 5.719 5.314 3.49 7.69 1.285 8.602.438 9.74.023 11.024.008 12.35-.007 13.674.018 15 0c1.08-.015 1.856.65 1.98 1.512.001.011.013.021.02.032v4.522zm-2.457-2.004c.017-.947-.785-1.74-1.811-1.747-.995-.007-1.835.696-1.85 1.71-.015.969.795 1.718 1.8 1.738 1.01.02 1.843-.743 1.86-1.7z" fill="currentColor"/>
</svg>
