<svg width="22" height="16" viewBox="0 0 22 16" fill="none" xmlns="http://www.w3.org/2000/svg">
<g clip-path="url(#clip0_1847_7253)">
<path d="M19.663 6.52747C20.7106 5.15751 20.7106 3.78754 19.663 2.73992C18.696 1.6923 17.0037 1.61172 15.9561 2.57875C15.392 3.06227 15.0696 3.62637 14.989 4.35164C14.9085 5.23809 15.1502 5.96337 15.7143 6.60805L14.4249 7.41392C14.1026 7.17216 13.7802 6.9304 13.3773 6.76923C14.1832 6.12454 14.5861 5.23809 14.7473 4.27106C14.8279 3.14285 14.5055 2.01465 13.7802 1.20879C12.3297 -0.322348 9.91211 -0.402934 8.38098 1.1282C7.57512 1.85348 7.17219 3.06227 7.25277 4.19047C7.33336 5.23809 7.81688 6.12454 8.62274 6.76923C8.05863 6.9304 7.73629 7.09157 7.41395 7.33333L6.20515 6.52747C7.17219 5.15751 7.17219 3.78754 6.12457 2.73992C5.07695 1.77289 3.46523 1.77289 2.33702 2.73992C1.20882 3.78754 1.20882 5.15751 2.17585 6.52747C1.04765 7.17216 0.322371 8.13919 2.62396e-05 9.34798C-0.322318 10.6374 0.0806123 11.3626 1.20882 11.9267C1.77292 12.1685 2.41761 12.3297 3.0623 12.4908C3.38464 12.5714 3.70699 12.5714 3.94874 12.5714C4.10992 12.5714 4.1905 12.5714 4.35167 12.5714H4.67402V11.282H4.10992C3.86816 11.282 3.6264 11.282 3.30406 11.2015C2.57878 11.1209 2.09526 10.9597 1.61175 10.6374C1.36999 10.4762 1.2894 10.3956 1.2894 10.1538C1.36999 9.02564 1.93409 8.13919 2.90113 7.73626C4.02933 7.25274 4.99636 7.33333 5.9634 7.97802L6.36633 8.21978C5.56047 9.10622 5.07695 10.1538 4.83519 11.4432C4.59343 12.652 4.99636 13.619 6.12457 14.3443C6.36633 14.5055 6.60809 14.6667 6.93043 14.7472C8.30039 15.3114 9.58977 15.5531 10.8791 15.5531C12.2491 15.5531 13.6191 15.2308 14.989 14.6667C15.5531 14.4249 15.9561 14.022 16.4396 13.6996C16.9231 13.2967 17.0843 12.8132 17.0843 12.1685C17.0037 10.5568 16.4396 9.18681 15.392 8.13919L15.5531 8.30036L15.8755 8.0586C16.8425 7.33333 17.8095 7.17216 18.8572 7.65567C19.9048 8.0586 20.4689 8.86446 20.6301 10.0733C20.6301 10.315 20.6301 10.4762 20.3883 10.6374C19.9048 10.9597 19.2601 11.2015 18.5348 11.282C18.2931 11.282 17.9707 11.3626 17.729 11.3626L17.0843 11.4432V12.8132H17.4066C17.5678 12.8132 17.729 12.8132 17.8901 12.8132C18.2125 12.8132 18.5348 12.8132 18.8572 12.7326C19.9048 12.5714 20.7106 12.2491 21.3553 11.685C21.9194 11.282 22.1612 10.7179 22.0806 9.99267C21.7583 8.38095 21.033 7.25274 19.663 6.52747ZM10.8791 6.20512C10.315 6.28571 9.67036 6.04395 9.18684 5.56044C8.70332 5.07692 8.38098 4.43223 8.38098 3.78754C8.38098 2.41758 9.50918 1.36996 10.7986 1.36996C11.4432 1.36996 12.0879 1.61172 12.4909 2.09523C12.9744 2.57875 13.2161 3.14285 13.2161 3.78754C13.2161 4.43223 12.9744 5.07692 12.4103 5.56044C12.0074 6.04395 11.4432 6.28571 10.8791 6.20512ZM10.315 7.65567C10.4762 7.65567 10.6374 7.65567 10.7986 7.65567C13.055 7.65567 14.989 9.18681 15.4726 11.3626C15.4726 11.5238 15.5531 11.6044 15.5531 11.7656C15.5531 11.8462 15.5531 11.9267 15.6337 12.0879C15.7143 12.4908 15.5531 12.7326 15.2308 13.0549C14.5861 13.5385 13.8608 13.8608 12.9744 14.022C12.4909 14.1026 12.0074 14.1831 11.5238 14.2637C11.2821 14.2637 11.1209 14.3443 10.8791 14.3443C9.91211 14.2637 8.70332 14.1831 7.57512 13.619C7.17219 13.4579 6.76926 13.1355 6.44691 12.8938C6.28574 12.7326 6.20515 12.5714 6.20515 12.2491C6.20515 9.91208 8.05863 7.81685 10.315 7.65567ZM5.56047 4.67399C5.56047 4.99633 5.39929 5.39926 5.15754 5.64102C4.91578 5.88278 4.59343 6.04395 4.1905 6.04395C3.46523 6.04395 2.82054 5.47985 2.82054 4.67399C2.82054 4.35164 2.98171 3.94871 3.22347 3.70696C3.46523 3.4652 3.78757 3.30403 4.1905 3.30403C4.91578 3.38461 5.56047 3.94871 5.56047 4.67399ZM17.6484 6.04395C16.9231 6.04395 16.2784 5.39926 16.2784 4.67399C16.2784 4.27106 16.4396 3.94871 16.6813 3.70696C16.9231 3.38461 17.326 3.22344 17.6484 3.22344C18.3737 3.22344 19.0183 3.86813 19.0183 4.5934C19.0183 5.31868 18.4542 6.04395 17.6484 6.04395Z" fill="black"/>
</g>
<defs>
<clipPath id="clip0_1847_7253">
<rect width="22" height="15.6337" fill="white"/>
</clipPath>
</defs>
</svg>
