<svg width="122" height="120" viewBox="0 0 122 120" fill="none" xmlns="http://www.w3.org/2000/svg">
<g clip-path="url(#clip0_1162_5699)">
<path d="M27.4361 70.0969C27.4361 61.4273 27.4361 53.022 27.4361 44.4053C51.0132 44.4053 74.5374 44.4053 98.2202 44.4053C98.2202 53.022 98.2202 61.4802 98.2202 70.0969C74.6432 70.0969 51.1718 70.0969 27.4361 70.0969Z" fill="currentColor"/>
<path d="M29.4978 73.5859C51.9119 73.5859 74.0617 73.5859 96.37 73.5859C96.37 89.0749 96.37 104.458 96.37 120C74.0617 120 51.859 120 29.4978 120C29.4978 104.511 29.4978 89.1806 29.4978 73.5859ZM34.5198 111.542C53.022 111.542 71.3656 111.542 89.9207 111.542C89.9207 107.736 89.9207 104.141 89.9207 100.388C71.5242 100.388 53.0749 100.388 34.5198 100.388C34.5198 104.141 34.5198 107.683 34.5198 111.542ZM90.2907 98.5903C90.2907 94.8899 90.2907 91.4537 90.2907 87.9119C71.6828 87.9119 53.1278 87.9119 34.5198 87.9119C34.5198 91.5595 34.5198 95.0485 34.5198 98.5903C53.0749 98.5903 71.4714 98.5903 90.2907 98.5903ZM90.7665 75.2775C72.0529 75.2775 53.3392 75.2775 34.5198 75.2775C34.5198 78.8722 34.5198 82.3612 34.5198 85.7974C53.2863 85.7974 71.8943 85.7974 90.7665 85.7974C90.7665 82.2555 90.7665 78.8722 90.7665 75.2775Z" fill="currentColor"/>
<path d="M27.119 41.8678C27.119 38.3789 27.119 35.1013 27.119 31.5595C51.0132 31.5595 74.8018 31.5595 98.7489 31.5595C98.7489 35.0485 98.7489 38.3789 98.7489 41.8678C74.9075 41.8678 51.1718 41.8678 27.119 41.8678Z" fill="currentColor"/>
<path d="M33.7797 18.0264C33.7797 19.5595 33.7797 20.6696 33.7797 21.9912C43.7709 19.9824 53.6035 18.0264 63.8062 15.9648C63.8062 19.4009 63.8062 22.5727 63.8062 25.9031C72.6872 25.9031 81.1454 25.9031 89.8678 25.9031C89.8678 27.0661 89.8678 28.0705 89.8678 29.2335C68.9868 29.2335 48.1586 29.2335 27.0661 29.2335C27.0661 27.4361 27.0661 25.533 27.0661 23.5242C27.9648 23.2599 28.9692 22.9956 29.9207 22.6784C29.9207 21.0925 29.9207 19.6652 29.9207 17.8678C26.0617 17.8678 22.3612 17.8678 18.4493 17.8678C18.4493 11.7885 18.4493 6.02643 18.4493 0C27.3833 0 36.2115 0 45.2511 0C45.2511 5.9207 45.2511 11.8414 45.2511 18.0264C41.4978 18.0264 37.7445 18.0264 33.7797 18.0264ZM42.5022 14.8546C42.5022 10.6256 42.5022 6.55507 42.5022 2.59031C35.2599 2.59031 28.1762 2.59031 21.2511 2.59031C21.2511 6.87225 21.2511 10.837 21.2511 14.8546C28.4405 14.8546 35.4185 14.8546 42.5022 14.8546Z" fill="currentColor"/>
<path d="M0.422915 54.6079C8.61675 55.5066 16.8106 56.4053 25.163 57.304C25.163 59.5771 25.163 61.7445 25.163 64.2819C22.7841 63.7533 20.6167 63.2247 18.4493 62.7489C13.2159 61.533 7.98239 60.3172 2.74891 59.1013C-0.264309 58.3612 -0.370036 58.1498 0.422915 54.6079Z" fill="currentColor"/>
<path d="M121.639 47.8414C114.661 53.2335 107.789 58.5198 100.863 63.859C99.6476 59.4185 99.9119 58.6784 103.295 56.3524C107.789 53.2863 112.388 50.326 116.722 47.1013C118.678 45.6211 120.053 45.6211 121.639 47.8414Z" fill="currentColor"/>
<path d="M36.5286 109.11C36.5286 106.837 36.5286 104.775 36.5286 102.555C38.6432 102.185 40.2819 101.921 41.4978 104.405C42.6079 106.573 48.6344 105.885 50.0617 103.771C50.4846 103.137 51.2775 102.291 51.859 102.291C63.9119 102.185 75.9647 102.238 88.2291 102.238C88.2291 104.564 88.2291 106.731 88.2291 109.11C71.1013 109.11 53.9207 109.11 36.5286 109.11Z" fill="currentColor"/>
<path d="M88.2819 89.6035C88.2819 92.0352 88.2819 94.2026 88.2819 96.5815C70.9956 96.5815 53.815 96.5815 36.5286 96.5815C36.5286 94.3612 36.5286 92.2467 36.5286 89.8678C37.7445 89.815 38.9603 89.7621 40.0705 89.7092C41.9207 92.6696 45.1454 93.9383 48.3172 92.881C48.7929 92.7225 49.3744 92.3524 49.533 91.9824C50.326 89.4449 52.3348 89.6035 54.3965 89.6564C64.7048 89.7092 75.0132 89.6564 85.3216 89.6564C86.2203 89.6035 87.1718 89.6035 88.2819 89.6035Z" fill="currentColor"/>
<path d="M36.4758 84.0529C36.4758 81.7269 36.4758 79.6652 36.4758 77.4449C38.4846 77.1806 40.1762 76.5463 41.4449 79.1894C42.5022 81.4626 48.5286 80.8282 50.0088 78.7137C50.5374 77.9736 51.489 77.0749 52.2291 77.0749C63.9119 76.9692 75.5947 77.022 87.3304 77.022C87.5947 77.022 87.8062 77.1278 88.2291 77.2335C88.2291 79.4538 88.2291 81.674 88.2291 84.0529C70.9956 84.0529 53.9207 84.0529 36.4758 84.0529Z" fill="currentColor"/>
</g>
<defs>
<clipPath id="clip0_1162_5699">
<rect width="121.639" height="120" fill="currentColor"/>
</clipPath>
</defs>
</svg>
