<svg width="18" height="16" viewBox="0 0 18 16" fill="none" xmlns="http://www.w3.org/2000/svg">
    <path d="M8.722 16H2.065c-.397 0-.794-.031-1.16-.188-.703-.251-1.039-.94-.856-1.693a3.82 3.82 0 0 1 .397-.973c2.23-3.982 4.459-7.964 6.719-11.915.122-.188.244-.408.396-.596.672-.847 1.68-.847 2.382 0 .153.188.275.408.397.627 2.23 3.951 4.428 7.902 6.657 11.822.123.22.214.407.306.627.458 1.191-.153 2.195-1.405 2.258-.702.031-1.405 0-2.107 0-1.71.031-3.39.031-5.07.031zm-.58-5.644h1.16c.03-.032.03-.063.03-.063.214-1.537.459-3.073.672-4.61.062-.533-.152-1.003-.61-1.285-.458-.282-.947-.282-1.405.031-.458.314-.641.815-.58 1.349.244 1.505.488 3.01.733 4.578zm1.893 2.195a1.39 1.39 0 0 0-1.313-1.38c-.702 0-1.313.596-1.313 1.317-.03.721.58 1.348 1.313 1.348.672 0 1.282-.595 1.313-1.285z" fill="currentColor"/>
</svg>
