<svg width="24" height="24" viewBox="0 0 24 24" fill="none" xmlns="http://www.w3.org/2000/svg">
<circle cx="12" cy="12" r="11.25" stroke="white" stroke-width="1.5"/>
<g clip-path="url(#clip0_1922_7515)">
<path d="M15.1991 10.5245H9.66628V8.97051C9.66628 7.53633 10.7127 6.36914 11.9985 6.36914C13.1431 6.36914 14.1097 7.27962 14.3 8.53581C14.3552 8.9089 14.6713 9.15877 15.0058 9.09716C15.3402 9.03554 15.5642 8.68299 15.509 8.3099C15.3709 7.39257 14.9444 6.5574 14.3092 5.95155C13.6678 5.33886 12.8485 5 12.0015 5C10.0376 5 8.44189 6.77988 8.44189 8.97051V10.5861C8.21787 10.6819 8 10.8942 8 11.3152V13.5366C8 15.9976 9.79517 18 12.0015 18C14.2079 18 16.0031 15.9976 16.0031 13.5366V11.3152C16 10.6888 15.4753 10.5245 15.1991 10.5245ZM12.7595 15.3781C12.7718 15.4534 12.7257 15.5116 12.6582 15.5116H11.354C11.2865 15.5116 11.2405 15.45 11.2528 15.3781L11.4614 14.1424C11.3019 13.9816 11.2006 13.7454 11.2006 13.4853C11.2006 12.9958 11.5566 12.5987 11.9954 12.5987C12.4342 12.5987 12.7902 12.9958 12.7902 13.4853C12.7902 13.7385 12.6951 13.9645 12.5447 14.1288L12.7595 15.3781Z" fill="white"/>
</g>
<defs>
<clipPath id="clip0_1922_7515">
<rect width="8" height="13" fill="white" transform="translate(8 5)"/>
</clipPath>
</defs>
</svg>
