<svg width="26" height="26" viewBox="0 0 26 26" fill="none" xmlns="http://www.w3.org/2000/svg">
<circle cx="13" cy="13" r="13" fill="#469073"/>
<g clip-path="url(#clip0_4494_22513)">
<path d="M6 13.0655V17.5866C6 18.3666 6.65432 19 7.45821 19H9.20821C9.52284 19 9.81389 18.9025 10.0526 18.7393V11.6521H7.45821C6.65432 11.6521 6 12.2855 6 13.0655Z" fill="white"/>
<path d="M20.0001 13.7718C20.0001 13.4324 19.8608 13.1153 19.6199 12.8828C19.8925 12.5939 20.0318 12.2061 19.9934 11.8038C19.9249 11.0852 19.2573 10.5226 18.4726 10.5226H14.8694C15.0478 9.99749 15.3329 9.03477 15.3329 8.26199C15.3329 7.03638 14.2579 6.00144 13.5829 6.00144C12.9839 5.99999 12.5528 6.32427 12.527 6.34377C12.457 6.39794 12.4165 6.47955 12.4165 6.56549V8.48227L10.7896 11.8962V18.1593C11.2412 18.3399 11.7754 18.4345 12.1254 18.4345H17.4801C18.1152 18.4345 18.6708 18.0199 18.802 17.4487C18.8698 17.1533 18.83 16.8564 18.6966 16.5986C19.1269 16.3892 19.418 15.9573 19.418 15.4683C19.418 15.2683 19.3708 15.0762 19.2809 14.9036C19.7105 14.6919 20.0001 14.2615 20.0001 13.7718Z" fill="white"/>
</g>
<defs>
<clipPath id="clip0_4494_22513">
<rect width="14" height="13" fill="white" transform="translate(6 6)"/>
</clipPath>
</defs>
</svg>
