<svg width="24" height="24" viewBox="0 0 24 24" fill="none" xmlns="http://www.w3.org/2000/svg">
    <circle cx="12" cy="12" r="11.25" stroke="currentColor" stroke-width="1.5"/>
    <g clip-path="url(#gjjal204la)" fill="currentColor">
        <path d="M6.426 18c-.426-.259-.511-.345-.34-.777l1.02-3.367c0-.086.085-.259.17-.259 1.703-1.726 3.405-3.367 5.107-5.093 0 0 .085 0 .085-.087.17.173.34.432.596.605-.596.604-1.192 1.122-1.702 1.64-1.107 1.122-2.213 2.158-3.32 3.28-.085.087-.085.173-.17.26l-.51 1.812c-.085.26.255.691.595.605.511-.173 1.107-.346 1.617-.518l.511-.26c1.617-1.553 3.234-3.193 4.766-4.747l.085-.087.681.69c-.085.087-.255.087-.34.26-1.617 1.554-3.234 3.194-4.851 4.748-.086.086-.256.173-.426.259-1.106.259-2.383.604-3.574 1.036z"/>
        <path d="M9.234 15.41c-.085-.259-.085-.432-.255-.604-.17-.087-.426-.087-.596-.173 1.702-1.726 3.404-3.367 5.106-5.093.256.259.511.518.681.777-1.532 1.726-3.234 3.367-4.936 5.093zM14.17 6.777l.51-.518c.426-.345 1.022-.345 1.363 0a14.621 14.621 0 0 1 1.617 1.64c.34.432.34.95 0 1.382l-.511.518-2.979-3.022zM12.894 7.9c.255-.173.425-.432.68-.605 1.107 1.036 2.128 2.158 3.234 3.194-.17.173-.425.432-.68.604C15.02 9.972 14 8.936 12.894 7.9z"/>
    </g>
    <defs>
        <clipPath id="gjjal204la">
            <path fill="currentColor" transform="translate(6 6)" d="M0 0h12v12H0z"/>
        </clipPath>
    </defs>
</svg>
