<svg width="21" height="21" viewBox="0 0 21 21" fill="none" xmlns="http://www.w3.org/2000/svg">
    <path d="M1.013 10.507c0-1.472-.013-2.943 0-4.414.027-2.89 2.194-5.07 5.083-5.083C9 .997 11.888.997 14.79 1.01c2.93.013 5.096 2.073 5.163 5.003.054 2.982.067 5.978 0 8.961-.067 2.85-2.14 4.922-4.989 4.976-2.983.067-5.979.067-8.962 0-2.929-.067-4.989-2.234-5.002-5.163.013-1.431.013-2.863.013-4.28zm17.83-.014c0-1.43.013-2.849 0-4.28-.013-2.434-1.632-4.08-4.053-4.093a608.844 608.844 0 0 0-8.56 0C3.795 2.134 2.137 3.78 2.124 6.2a608.693 608.693 0 0 0 0 8.56c.013 2.435 1.645 4.066 4.08 4.08 2.848.013 5.71.013 8.56 0 2.46-.014 4.052-1.605 4.079-4.053v-4.294z" fill="currentColor" stroke="currentColor" stroke-width=".5" stroke-miterlimit="10"/>
    <path d="M9.547 7.697c1.03 0 1.98.014 2.943-.013.147 0 .374-.2.428-.348.16-.441.187-.923.388-1.337.093-.214.428-.482.642-.468.4.026.494.374.4.762-.106.455-.227.896-.36 1.418.36 0 .695-.08.963.027.214.08.454.347.481.561.027.134-.307.335-.481.495-.014.014-.04 0-.067 0-.402.054-.91-.027-1.177.2-.254.215-.241.737-.348 1.124-.147.602-.294 1.204-.441 1.82-.014.04.013.093.026.213h1.78c.387 0 .735.094.735.562 0 .482-.348.562-.75.562h-.2c-.602.013-1.35-.2-1.765.08-.388.268-.428 1.044-.602 1.592-.12.375-.361.655-.71.468-.2-.107-.347-.521-.334-.789.014-.428.188-.856.308-1.351-1.043 0-2.02-.013-2.996.013-.134 0-.321.201-.374.335-.148.441-.188.923-.375 1.337-.107.214-.428.321-.669.482-.134-.24-.374-.495-.36-.736.012-.454.186-.91.307-1.458-.321 0-.616.067-.843-.013-.254-.107-.441-.348-.655-.535.2-.187.374-.468.628-.562.375-.134.923.014 1.164-.214.254-.254.24-.776.348-1.19.16-.616.307-1.244.495-1.967H6.163c-.388 0-.736-.147-.669-.535.04-.214.401-.481.656-.548.4-.094.856-.08 1.257-.013.802.133 1.137-.214 1.204-.963.026-.268.053-.562.2-.763.147-.214.442-.32.67-.481.133.24.374.495.36.735 0 .495-.174.963-.294 1.498zm3.01 1.11c-1.057 0-2.007-.013-2.957.014-.133 0-.36.134-.387.254-.268.99-.509 1.993-.776 3.077 1.056 0 2.02.013 2.97-.014.146 0 .36-.174.4-.32.255-.964.482-1.927.75-3.01z" fill="currentColor" stroke="currentColor" stroke-width=".5" stroke-miterlimit="10"/>
</svg>
