<svg width="14" height="13" viewBox="0 0 14 13" fill="none" xmlns="http://www.w3.org/2000/svg">
    <path d="M4.426 4.069C2.313 4.069.6 5.845.6 8.034.6 10.224 2.313 12 4.426 12s3.826-1.776 3.826-3.966c0-2.19-1.713-3.965-3.826-3.965zm0 7.733c-2.004 0-3.63-1.686-3.63-3.767 0-2.08 1.626-3.767 3.63-3.767 2.005 0 3.63 1.687 3.63 3.767-.001 2.08-1.626 3.767-3.63 3.767z" fill="#61697C" stroke="#fff" stroke-width=".6" stroke-miterlimit="10"/>
    <path d="M4.426 7.242c-.487 0-.883.4-.883.891 0 .494.396.893.883.893.488 0 .883-.4.883-.893a.888.888 0 0 0-.883-.891zm0 1.585a.69.69 0 0 1-.687-.694.69.69 0 0 1 .687-.693c.38 0 .687.311.687.693a.69.69 0 0 1-.687.694zM4.426 6.845a.296.296 0 0 0 .294-.298.296.296 0 0 0-.294-.297.296.296 0 0 0-.294.297c0 .165.131.298.294.298zM4.426 9.819a.296.296 0 0 0 .294-.297.296.296 0 0 0-.294-.298.296.296 0 0 0-.294.298c0 .164.131.297.294.297zM5.995 8.431a.296.296 0 0 0 .294-.297.296.296 0 0 0-.294-.297.296.296 0 0 0-.294.297c0 .164.131.297.294.297zM3.053 8.431a.296.296 0 0 0 .294-.297.296.296 0 0 0-.294-.297.296.296 0 0 0-.295.297c0 .164.132.297.295.297z" fill="#61697C" stroke="#fff" stroke-width=".7" stroke-miterlimit="10"/>
    <path d="M11.587.5c-.976 0-1.766.8-1.766 1.785 0 .986.79 1.784 1.766 1.784.975 0 1.766-.798 1.766-1.784S12.562.5 11.587.5zm0 3.37c-.867 0-1.57-.71-1.57-1.586 0-.876.703-1.586 1.57-1.586.867 0 1.57.71 1.57 1.586 0 .876-.704 1.586-1.57 1.586z" fill="#61697C" stroke="#fff" stroke-width=".6" stroke-miterlimit="10"/>
    <path d="M2.882 4.52 10.717.856 2.882 4.519z" fill="#61697C"/>
    <path d="M2.882 4.52 10.717.856" stroke="#fff" stroke-width=".8" stroke-miterlimit="10"/>
    <path d="m7.097 10.72 5.436-7.046-5.436 7.045z" fill="#61697C"/>
    <path d="m7.097 10.72 5.436-7.046" stroke="#fff" stroke-width=".8" stroke-miterlimit="10"/>
    <path d="M4.426 5.415c-1.38 0-2.5 1.172-2.5 2.62 0 1.446 1.12 2.618 2.5 2.618s2.5-1.172 2.5-2.619c0-1.447-1.12-2.62-2.5-2.62zm0 5.052c-1.278 0-2.314-1.089-2.314-2.433 0-1.344 1.036-2.432 2.314-2.432S6.74 6.69 6.74 8.034c0 1.344-1.036 2.433-2.314 2.433z" fill="#61697C" stroke="#fff" stroke-width=".6" stroke-miterlimit="10"/>
</svg>
