<svg width="18" height="18" viewBox="0 0 18 18" fill="none" xmlns="http://www.w3.org/2000/svg">
<g clip-path="url(#clip0_2256_7853)">
<path d="M0 8.70003C0 6.50003 0.9 4.50003 2.6 2.80003C3.9 1.50003 5.4 0.60003 7.2 0.30003C9.2 -0.0999704 11.2 0.20003 13 1.20003C15.4 2.50003 17 4.50003 17.6 7.20003C18.1 9.40003 17.8 11.5 16.6 13.4C15.3 15.6 13.5 17 11.1 17.7C8.6 18.4 6.2 17.9 4.1 16.5C2.1 15.1 0.8 13.3 0.2 10.9C0.1 10.1 0 9.50003 0 8.70003ZM8.9 16.2C9.4 16.2 9.9 16.2 10.4 16.1C12.4 15.7 14 14.7 15.1 12.9C16.1 11.2 16.4 9.40003 16.1 7.50003C15.7 5.30003 14.5 3.60003 12.5 2.60003C10.9 1.80003 9.3 1.50003 7.5 1.90003C5.3 2.20003 3.6 3.30003 2.5 5.20003C1.6 6.70003 1.4 8.30003 1.7 10C1.9 11.5 2.5 12.8 3.5 13.8C5 15.4 6.8 16.1 8.9 16.2Z" fill="#999999"/>
<path d="M7.19998 7.60002C7.19998 7.50002 7.29998 7.40002 7.29998 7.30002C7.29998 7.30002 7.39998 7.30002 7.39998 7.20002C8.29998 7.20002 9.19998 7.00002 10.1 6.90002C10.3 6.90002 10.4 6.90002 10.6 6.90002C10.5 7.10002 10.5 7.30002 10.4 7.50002C9.89998 9.30002 9.39998 11.1 8.79998 12.9C8.79998 13.1 8.69998 13.2 8.69998 13.4C8.69998 13.6 8.89998 13.8 9.09998 13.7C9.19998 13.7 9.29998 13.6 9.29998 13.5C9.49998 13.2 9.79998 12.9 9.99998 12.6L10.1 12.5C10.2 12.6 10.3 12.6 10.4 12.7C9.99998 13.3 9.59998 13.9 8.99998 14.4C8.59998 14.7 8.19998 14.9 7.69998 14.9C7.49998 14.9 7.29998 14.8 7.09998 14.7C6.69998 14.5 6.59998 14.1 6.59998 13.7C6.69998 13.3 6.79998 12.9 6.89998 12.5C7.29998 11.2 7.59998 10 7.99998 8.70002C7.99998 8.60002 7.99998 8.40002 8.09998 8.30002C8.19998 7.90002 7.89998 7.70002 7.59998 7.70002C7.39998 7.60002 7.29998 7.60002 7.19998 7.60002Z" fill="#999999"/>
<path d="M11.3 4.29998C11.3 4.99998 10.8 5.49998 10.1 5.49998C9.40003 5.49998 8.90002 4.99998 8.90002 4.29998C8.90002 3.59998 9.40003 3.09998 10.1 3.09998C10.8 3.09998 11.3 3.59998 11.3 4.29998Z" fill="#999999"/>
</g>
<defs>
<clipPath id="clip0_2256_7853">
<rect width="17.8" height="17.8" fill="white"/>
</clipPath>
</defs>
</svg>
