<svg width="15" height="15" viewBox="0 0 15 15" fill="none" xmlns="http://www.w3.org/2000/svg">
    <path d="M7.461 1h.097l.32.14c.965.414 1.93.832 2.898 1.24.147.063.2.143.2.297-.005 1.237-.002 2.475-.003 3.713 0 .038.005.063.045.083.94.465 1.877.93 2.816 1.393.078.039.137.084.167.163v4.033a.285.285 0 0 1-.134.16c-1.02.59-2.041 1.184-3.06 1.777h-.125c-.1-.057-.199-.116-.3-.171L7.561 12.29c-.032-.017-.057-.033-.098-.009-.982.573-1.966 1.145-2.949 1.717H4.39c-.043-.026-.083-.052-.128-.076a2295.6 2295.6 0 0 0-3.097-1.686c-.078-.042-.139-.091-.165-.175V8.029a.256.256 0 0 1 .176-.163c.023-.008.045-.02.069-.03.989-.453 1.976-.906 2.965-1.357.05-.023.069-.048.069-.104l-.001-3.64c0-.241-.022-.255.242-.375.983-.45 1.96-.906 2.941-1.36zm3.113 1.898a.847.847 0 0 0-.062.024c-.917.411-1.834.823-2.752 1.231-.048.021-.054.05-.054.092l.001 3.434c0 .023.003.047.005.076.023-.01.037-.015.05-.022.92-.421 1.84-.845 2.761-1.264.049-.022.053-.05.053-.093V2.97c-.002-.02-.002-.043-.002-.07zM4.251 13.472l.003-.052c0-1.151 0-2.303.002-3.454 0-.041-.014-.062-.052-.082-.373-.198-.744-.397-1.116-.596-.015-.008-.032-.014-.056-.025V10.038c0 .086-.03.156-.112.197a.195.195 0 0 1-.285-.18c-.002-.316-.002-.633 0-.949 0-.046-.016-.07-.057-.092l-1.11-.592c-.017-.01-.037-.016-.061-.028v.06c0 1.138 0 2.276-.002 3.414 0 .05.024.07.062.09l2.72 1.48a.336.336 0 0 0 .064.034zm3.46-5.077-.004.057v3.422c0 .045.017.065.056.086l2.715 1.477c.02.013.042.022.069.036l.002-.063c0-1.148 0-2.295.002-3.441 0-.044-.015-.067-.054-.088-.37-.196-.74-.394-1.11-.592-.017-.009-.037-.015-.06-.026 0 .26.001.512-.001.764a.305.305 0 0 1-.024.122.192.192 0 0 1-.217.104.19.19 0 0 1-.158-.198V9.1c0-.041-.012-.063-.05-.082-.174-.09-.347-.184-.52-.276l-.647-.347zm5.89.012c-.026.012-.04.018-.053.026-.852.484-1.703.968-2.555 1.45-.038.023-.045.049-.045.087l.001 3.434c0 .019.003.036.006.06.019-.01.031-.014.043-.021.85-.494 1.7-.988 2.553-1.48.042-.026.05-.054.05-.097V8.408zm-6.302.002-.052.026c-.85.483-1.698.966-2.549 1.447-.039.023-.044.048-.044.085l.001 3.435c0 .018.003.037.004.062a2520.849 2520.849 0 0 1 2.576-1.492c.048-.027.066-.055.066-.109-.002-1.125-.002-2.25-.002-3.375v-.08zm.009-.658v-.059l.001-3.46c0-.047-.02-.066-.058-.084l-.993-.479a.92.92 0 0 0-.068-.028v.065c0 .208.002.415-.001.624a.193.193 0 0 1-.167.184c-.086.013-.182-.035-.212-.115a.333.333 0 0 1-.018-.117 72.73 72.73 0 0 1 0-.776c0-.047-.014-.07-.058-.092-.333-.159-.667-.32-1-.481-.015-.008-.033-.014-.054-.023l-.003.064-.001 3.414c0 .047.017.07.058.09l1.917.948.657.325zm2.24 1.184.022.016c.38.203.76.407 1.141.608.021.01.063.006.085-.007a884.627 884.627 0 0 0 2.587-1.472c-.025-.014-.041-.024-.06-.033-.328-.164-.658-.325-.985-.491-.043-.022-.076-.024-.12 0-.822.426-1.645.849-2.468 1.273l-.202.106zm-6.3.002 1.144.612c.045.024.075.022.118-.002l2.536-1.443c.013-.007.024-.018.038-.028-.36-.18-.715-.356-1.072-.53-.022-.01-.062-.002-.087.01-.794.407-1.585.816-2.378 1.224l-.3.157zm2.3-1.62-.064-.035c-.318-.157-.638-.314-.955-.474a.115.115 0 0 0-.113-.002L2.181 7.832l-.534.245.072.042c.351.189.704.375 1.055.564.047.025.08.023.126 0 .538-.28 1.078-.557 1.617-.834l1.03-.532zm6.295-.001c-.032-.018-.053-.03-.075-.04-.309-.153-.618-.304-.925-.46-.054-.028-.094-.024-.146 0L8.45 7.848c-.165.075-.33.152-.502.232l.045.03c.364.195.73.388 1.092.584.038.021.067.012.1-.005l2.292-1.182.367-.191zm-5.407-3.99c.355.17.696.336 1.038.498.025.012.067.005.094-.008l1.87-.837.854-.382-.083-.037c-.369-.16-.74-.316-1.108-.476a.135.135 0 0 0-.127.002c-.745.365-1.493.729-2.239 1.092-.097.048-.192.096-.299.147zM4.93 2.596c.343.166.674.325 1.004.487a.122.122 0 0 0 .12 0l2.455-1.198c.017-.008.033-.018.056-.032-.346-.148-.684-.294-1.023-.436-.023-.01-.062 0-.088.012-.61.281-1.218.564-1.827.845l-.697.322z" fill="#fff" stroke="#fff" stroke-width=".4"/>
</svg>
