<svg width="15" height="11" viewBox="0 0 15 11" fill="none" xmlns="http://www.w3.org/2000/svg">
    <g clip-path="url(#kzb86y34ra)" stroke="#fff" stroke-width="1.2">
        <path d="M1.465.494h11.43c.475 0 .852.36.852.814V9.22c0 .453-.377.814-.851.814H1.466c-.475 0-.852-.36-.852-.814V1.308c0-.44.39-.814.851-.814z"/>
        <path d="m1.926 10.021 3.866-4.03 4.061 4.03" stroke-linecap="round" stroke-linejoin="round"/>
        <path d="m7.718 7.966 2.47-3.723 3.545 3.723M5.806 3.403c0 .587-.489 1.054-1.089 1.054S3.63 3.99 3.63 3.403s.488-1.054 1.088-1.054c.6.013 1.089.48 1.089 1.054z" stroke-linecap="round" stroke-linejoin="round"/>
    </g>
    <defs>
        <clipPath id="kzb86y34ra">
            <path fill="#fff" d="M0 0h15v11H0z"/>
        </clipPath>
    </defs>
</svg>
