<svg width="15" height="15" viewBox="0 0 15 15" fill="none" xmlns="http://www.w3.org/2000/svg">
    <path d="M7.466 13.596a6.13 6.13 0 1 0 0-12.26 6.13 6.13 0 0 0 0 12.26z" stroke="#fff" stroke-miterlimit="10"/>
    <path d="M3.492 8.275c.27.134.674.27 1.078.27s.673-.203.673-.472c0-.27-.202-.405-.673-.607-.674-.27-1.145-.606-1.145-1.212 0-.741.606-1.28 1.55-1.28.47 0 .807.067 1.077.202l-.27.808a2.068 2.068 0 0 0-.875-.202c-.404 0-.606.202-.606.405 0 .269.202.404.74.606.741.27 1.078.673 1.078 1.212 0 .674-.539 1.28-1.684 1.28-.471 0-.943-.135-1.212-.27l.27-.74zM7.736 5.042v4.176h-.943V5.042h.943zM8.611 5.109c.202 0 .741-.067 1.213-.067.606 0 .943.067 1.212.202.27.134.472.471.472.808 0 .337-.202.673-.674.876.472.134.808.471.808 1.01 0 .404-.202.673-.404.876-.336.269-.808.404-1.616.404-.472 0-.809 0-1.01-.068V5.11zm.876 1.616h.337c.471 0 .74-.202.74-.538 0-.337-.269-.472-.673-.472h-.404v1.01zm0 1.82h.337c.404 0 .808-.136.808-.607 0-.404-.404-.606-.876-.606H9.42v1.212h.067z" fill="#fff" stroke="#fff" stroke-width=".25" stroke-miterlimit="10"/>
</svg>
