<svg width="13" height="13" viewBox="0 0 13 13" fill="none" xmlns="http://www.w3.org/2000/svg">
    <g clip-path="url(#52404te25a)" fill="#fff" stroke="#fff" stroke-width=".5">
        <path d="M11.842 6.766a.07.07 0 0 1-.06.07c-.23.035-.466.068-.702.099a.652.652 0 0 0-.544.47 4.49 4.49 0 0 1-.422 1.018.65.65 0 0 0 .051.718c.145.189.288.379.427.566a.07.07 0 0 1-.008.092l-.785.785a.072.072 0 0 1-.092.009 37.75 37.75 0 0 1-.566-.428.648.648 0 0 0-.718-.051 4.49 4.49 0 0 1-1.017.422.65.65 0 0 0-.471.544c-.03.236-.064.472-.098.702a.07.07 0 0 1-.071.06h-1.11a.07.07 0 0 1-.071-.06 32.32 32.32 0 0 1-.098-.702.65.65 0 0 0-.471-.544 4.49 4.49 0 0 1-1.018-.422.65.65 0 0 0-.718.051c-.188.145-.379.29-.566.428a.072.072 0 0 1-.092-.009L1.837 9.8a.07.07 0 0 1-.008-.092c.138-.187.282-.377.427-.566a.65.65 0 0 0 .052-.718 4.457 4.457 0 0 1-.422-1.017.65.65 0 0 0-.545-.471C1.106 6.905.87 6.87.64 6.837a.07.07 0 0 1-.06-.071v-1.11a.07.07 0 0 1 .06-.071c.23-.035.467-.068.702-.098a.65.65 0 0 0 .545-.472 4.47 4.47 0 0 1 .42-1.017.648.648 0 0 0-.05-.718c-.145-.188-.289-.379-.427-.566a.071.071 0 0 1 .008-.092l.785-.785a.07.07 0 0 1 .091-.008c.187.138.377.281.567.427.208.16.49.18.718.05.32-.181.662-.323 1.018-.42a.65.65 0 0 0 .47-.545c.031-.236.064-.472.099-.702a.07.07 0 0 1 .07-.06h1.111a.07.07 0 0 1 .071.06c.034.23.067.466.098.702a.65.65 0 0 0 .47.544c.355.097.698.24 1.018.421a.65.65 0 0 0 .718-.051c.19-.145.38-.29.566-.427a.07.07 0 0 1 .092.008l.785.785a.07.07 0 0 1 .008.092c-.138.187-.282.377-.427.565a.65.65 0 0 0-.051.719c.182.32.324.662.422 1.017a.65.65 0 0 0 .544.47c.236.03.471.064.702.099a.07.07 0 0 1 .06.07v1.113zm.026-1.755a40.342 40.342 0 0 0-.713-.1.069.069 0 0 1-.06-.05c-.11-.4-.271-.788-.477-1.15a.07.07 0 0 1 .007-.077c.147-.192.293-.385.434-.575a.654.654 0 0 0-.064-.848l-.786-.785a.655.655 0 0 0-.847-.064c-.189.14-.383.286-.574.434a.07.07 0 0 1-.078.007 5.046 5.046 0 0 0-1.15-.477.07.07 0 0 1-.05-.06c-.031-.24-.065-.48-.1-.713A.655.655 0 0 0 6.766 0h-1.11a.656.656 0 0 0-.645.554c-.035.233-.068.472-.1.712a.07.07 0 0 1-.05.06c-.4.11-.788.27-1.15.477a.072.072 0 0 1-.077-.007 39.967 39.967 0 0 0-.575-.434.656.656 0 0 0-.848.064l-.785.785a.656.656 0 0 0-.064.848c.14.19.287.383.434.574a.07.07 0 0 1 .007.078 5.033 5.033 0 0 0-.477 1.15.069.069 0 0 1-.06.05c-.239.032-.479.065-.712.1A.656.656 0 0 0 0 5.656v1.11c0 .32.238.597.554.645.234.035.474.068.713.1a.07.07 0 0 1 .06.05c.11.4.27.787.476 1.15a.07.07 0 0 1-.006.078 40.08 40.08 0 0 0-.434.574.655.655 0 0 0 .064.848l.785.785c.226.226.59.254.847.064.19-.14.383-.286.575-.434a.072.072 0 0 1 .078-.007 5.03 5.03 0 0 0 1.15.476c.026.008.045.03.05.06.03.24.064.48.099.713a.654.654 0 0 0 .644.553h1.11c.32 0 .597-.237.645-.553.035-.234.069-.473.1-.713a.069.069 0 0 1 .05-.06c.401-.11.787-.27 1.15-.476a.07.07 0 0 1 .078.007c.191.147.385.293.574.433.257.191.621.164.847-.063l.786-.786a.655.655 0 0 0 .064-.847c-.14-.19-.286-.383-.434-.575a.07.07 0 0 1-.007-.077c.206-.363.366-.75.477-1.15a.069.069 0 0 1 .06-.05c.239-.032.479-.065.712-.1a.654.654 0 0 0 .554-.644V5.655a.655.655 0 0 0-.553-.645z"/>
        <path d="M6.21 8.327A2.119 2.119 0 0 1 4.094 6.21c0-1.167.95-2.116 2.116-2.116 1.167 0 2.116.95 2.116 2.116A2.118 2.118 0 0 1 6.21 8.327zm0-4.813A2.699 2.699 0 0 0 3.514 6.21 2.7 2.7 0 0 0 6.21 8.906 2.699 2.699 0 0 0 8.906 6.21 2.699 2.699 0 0 0 6.21 3.514z"/>
    </g>
    <defs>
        <clipPath id="52404te25a">
            <path fill="#fff" d="M0 0h13v13H0z"/>
        </clipPath>
    </defs>
</svg>
