<svg width="11" height="15" viewBox="0 0 11 15" fill="none" xmlns="http://www.w3.org/2000/svg">
    <path d="M9.687 1h-7.24c-.383 0-.751.16-1.022.445-.272.284-.425.67-.425 1.071v9.1c0 .199.037.396.11.58.073.184.18.351.314.492.134.141.294.253.47.33.175.075.364.114.554.114h.206v.65c0 .043.012.085.035.121a.209.209 0 0 0 .093.08.198.198 0 0 0 .227-.048l.68-.713.682.713a.198.198 0 0 0 .226.048.209.209 0 0 0 .093-.08.224.224 0 0 0 .035-.121v-2.383h4.964v.433H5.136v.433h4.55v.434h-4.55v.433h4.55c.11 0 .215-.046.293-.127a.445.445 0 0 0 .121-.306V1.433a.444.444 0 0 0-.121-.306A.405.405 0 0 0 9.687 1zM1.413 2.516c0-.287.11-.562.304-.765.193-.203.456-.317.73-.318h7.24V10.1h-7.24c-.192 0-.383.04-.56.118a1.443 1.443 0 0 0-.473.338v-8.04zm.021 8.883h1.22v.433h-1.22a1.138 1.138 0 0 1 0-.433zm1.013 1.299a.998.998 0 0 1-.462-.115 1.05 1.05 0 0 1-.365-.319h1.035v.434h-.208zm1.862.56-.474-.497a.207.207 0 0 0-.147-.063.198.198 0 0 0-.146.063l-.474.497v-1.86h1.24v1.86zM1.62 10.965c.096-.135.221-.244.365-.32a.995.995 0 0 1 .462-.114h7.239v.434H1.62z" fill="currentColor" stroke="currentColor" stroke-width=".4"/>
    <path d="M2.241 1.867h.414v7.799H2.24v-7.8zM3.895 4.9h4.55a.199.199 0 0 0 .146-.064.217.217 0 0 0 .061-.153V3.385a.226.226 0 0 0-.06-.155.206.206 0 0 0-.147-.063h-4.55a.202.202 0 0 0-.146.063.222.222 0 0 0-.06.153v1.299a.226.226 0 0 0 .06.154.206.206 0 0 0 .146.064zM4.102 3.6h4.136v.867H4.102V3.6z" fill="currentColor" stroke="currentColor" stroke-width=".4"/>
</svg>
