<svg width="17" height="13" viewBox="0 0 17 13" fill="none" xmlns="http://www.w3.org/2000/svg">
    <path fill-rule="evenodd" clip-rule="evenodd" d="m14.367 11.76-.012.085c-.02-.008-.036-.013-.051-.02-.39-.218-.78-.434-1.17-.653-.137-.077-.192-.18-.168-.314a.323.323 0 0 1 .25-.274c.099-.027.184.01.268.057l.966.538.098.052a5.955 5.955 0 0 0 .792-2.689h-.118c-.382 0-.763.002-1.146 0-.233-.002-.362-.121-.357-.328.003-.177.13-.3.316-.3H15.34a6.408 6.408 0 0 0-.8-2.805c-.03.015-.057.028-.082.042-.344.198-.685.399-1.03.594-.224.127-.457.022-.506-.222-.024-.12.032-.234.163-.31.348-.203.697-.404 1.044-.607l.07-.042a6.785 6.785 0 0 0-2.15-1.98l-.11.194c-.172.304-.342.61-.514.913a.302.302 0 0 1-.3.164.348.348 0 0 1-.305-.233c-.03-.095.001-.178.047-.26l.555-.985c.017-.028.03-.057.05-.095a6.991 6.991 0 0 0-2.64-.64v.103L8.83 2.858c0 .193-.085.3-.257.338-.21.046-.395-.091-.395-.299-.002-.383 0-.766 0-1.15v-.096c-.639-.065-2.407.404-2.91.77l.558.897c.04.062.08.123.115.187.089.157.038.33-.122.42-.159.09-.337.054-.434-.1-.214-.333-.42-.67-.63-1.006-.015-.025-.033-.05-.055-.082A6.757 6.757 0 0 0 2.65 4.81l.67.35c.155.08.309.16.462.242.179.095.234.264.141.429-.092.164-.27.216-.448.125-.345-.177-.688-.358-1.032-.538l-.09-.045c-.275.289-.72 1.95-.679 2.538h1.302c.142.001.253.077.295.198.047.135.015.29-.1.358a.545.545 0 0 1-.255.07c-.378.007-.757.003-1.136.003h-.112c.042.96.315 1.848.79 2.69l.335-.186.764-.425c.11-.06.22-.066.328.003.11.071.164.172.16.299a.273.273 0 0 1-.152.235c-.408.23-.817.457-1.232.689l-.033-.074c-.096.187-.242.269-.412.21a.391.391 0 0 1-.19-.146 6.41 6.41 0 0 1-.874-2.14 6.971 6.971 0 0 1-.13-1.997c.132-1.609.748-3.023 1.848-4.24A7.212 7.212 0 0 1 4.626 2.04a7.592 7.592 0 0 1 2.732-.953c1.63-.235 3.184.002 4.635.752 1.972 1.02 3.236 2.587 3.794 4.677.14.522.202 1.054.212 1.592a6.774 6.774 0 0 1-.97 3.664c-.172.293-.515.305-.662-.012z" fill="currentColor" stroke="currentColor" stroke-width=".5" stroke-miterlimit="10"/>
    <path fill-rule="evenodd" clip-rule="evenodd" d="M8.623 9.067c-.46-.004-.835-.333-.87-.77-.034-.404.3-.785.74-.849a.851.851 0 0 1 .607.134c.06.04.1.037.16.003.841-.468 1.685-.935 2.528-1.402.199-.11.407-.031.455.169.028.115-.027.222-.154.292-.4.224-.801.446-1.203.668-.446.247-.892.496-1.34.74-.054.03-.067.06-.063.117.033.442-.25.793-.711.882-.048.01-.1.011-.149.016zM8.496 10.534h1.92c.243.001.391.238.313.495a.31.31 0 0 1-.298.236c-.092.004-.184 0-.277 0H6.608c-.235 0-.37-.151-.357-.395.012-.208.136-.335.332-.336h1.913z" fill="currentColor" stroke="currentColor" stroke-width=".5" stroke-miterlimit="10"/>
</svg>
