<svg width="13" height="11" viewBox="0 0 13 11" fill="none" xmlns="http://www.w3.org/2000/svg">
    <path d="M.772 3.918h11.313l.007-.019h.694v-.941c0-.746-.376-1.497-1.213-1.497-.656 0-1.227 0-1.766-.007a188.573 188.573 0 0 0-4.14.02h-.02c-.617 0-.98-.493-1.175-.91C4.349.298 4.063-.024 3.408 0c-.507.02-1.02.02-1.526.013-.233 0-.474-.006-.707 0C.415.014 0 .418 0 1.164v2.742h.772v.012zM12.832 5.119V4.96h-1v.006H1.045V4.96h-1v4.883C.045 10.602.461 11 1.246 11h10.385c.785 0 1.2-.404 1.2-1.162v-4.72z" fill="currentColor"/>
</svg>
