<svg width="19" height="13" viewBox="0 0 19 13" fill="none" xmlns="http://www.w3.org/2000/svg">
    <path d="M17.263 7.157h-1.917a.794.794 0 0 0-.813.813v.697H12.5c-.058-.058-.058-.116-.116-.175L9.828 5.937c-.058-.058-.116-.058-.174-.116V4.31h3.253a.794.794 0 0 0 .813-.814V1.813A.794.794 0 0 0 12.907 1H6.11a.794.794 0 0 0-.813.813v1.684c0 .465.348.814.813.814h2.73v1.51c-.058.058-.116.058-.174.116L6.053 8.492c-.058.059-.058.117-.116.175H4.543v-.523a.794.794 0 0 0-.813-.813H1.813A.794.794 0 0 0 1 8.144v1.975c0 .464.348.813.813.813H3.73a.794.794 0 0 0 .813-.813v-.581h1.394c.058.058.058.116.116.174l2.556 2.556a.746.746 0 0 0 .58.232.746.746 0 0 0 .581-.232l2.556-2.556c.058-.058.058-.116.116-.174h2.033v.406c0 .465.348.814.813.814h1.975a.794.794 0 0 0 .813-.814V7.97a.794.794 0 0 0-.813-.813zM6.169 1.87h6.68V3.44h-6.68V1.871zm-2.497 8.131h-1.8V8.144H3.73v1.858h-.058zm5.575 1.569L6.75 9.073l2.497-2.497 2.498 2.497-2.498 2.498zm7.957-1.743h-1.858V7.97h1.858v1.858z" fill="currentColor" stroke="currentColor" stroke-width=".3"/>
</svg>
