<svg width="15" height="10" viewBox="0 0 15 10" fill="none" xmlns="http://www.w3.org/2000/svg">
    <path d="M9.307 8.38c-.235-.02-.455-.022-.665-.064-.33-.067-.653-.165-.98-.243-.095-.023-.12-.073-.117-.168.006-.382 0-.762.006-1.145L7.634.65c.003-.133.023-.265.04-.43.265-.03.541-.083.82-.094.796-.028 1.59-.07 2.385-.05.614.013 1.226.122 1.787.407.503.257.958.584 1.181 1.117.4.958.193 2.002-.698 2.644-.195.14-.424.235-.636.352l-.157.09c.151.055.28.1.402.153.634.263 1.131.684 1.385 1.33.26.656.271 1.328-.022 1.987-.352.788-.952 1.285-1.768 1.545a6.683 6.683 0 0 1-2.122.298c-.525-.005-1.053 0-1.572-.064-.441-.053-.874-.178-1.304-.304A6.747 6.747 0 0 1 5.4 8.68a7.314 7.314 0 0 1-1.505-1.385A7.208 7.208 0 0 1 2.84 5.607c-.003-.006-.017-.008-.036-.017-.148.173-.3.347-.45.525-.142.168-.265.363-.433.503-.134.112-.126.232-.128.371-.009.902-.017 1.807-.028 2.709 0 .022-.003.045-.006.08H0L.134 0H1.89c-.022 1.513-.041 3.005-.064 4.524.053-.031.081-.04.095-.059.53-.718 1.053-1.44 1.589-2.153.553-.734 1.12-1.46 1.681-2.19a.166.166 0 0 1 .12-.058c.48-.003.958-.003 1.438.003.207.003.413.025.642.04-.122.153-.234.3-.351.443-.355.43-.707.86-1.064 1.287-.439.525-.883 1.05-1.324 1.575-.204.243-.402.489-.611.726-.065.073-.028.132.002.187.24.43.483.86.73 1.285.331.57.725 1.097 1.172 1.583a4.141 4.141 0 0 0 2.17 1.279c.39.09.793.123 1.192.165.318.033.64.047.96.053.453.008.897-.053 1.313-.243.494-.226.79-.6.863-1.145.058-.433-.014-.835-.29-1.176a1.607 1.607 0 0 0-.942-.56 7.818 7.818 0 0 0-.918-.132c-.285-.025-.573-.022-.86-.025-.087-.003-.098.061-.098.134L9.31 7.707c-.006.207-.003.419-.003.673zm.08-4.247c.4 0 .808.01 1.216-.006a2.54 2.54 0 0 0 .558-.095c.66-.179 1.131-.673 1.08-1.421-.024-.358-.161-.654-.44-.874-.313-.246-.687-.34-1.07-.36-.394-.02-.787.02-1.181.02-.148 0-.162.063-.16.183.006.336 0 .67 0 1.006-.002.508-.002 1.013-.002 1.547z" fill="currentColor"/>
</svg>
