<svg width="14" height="11" viewBox="0 0 14 11" fill="none" xmlns="http://www.w3.org/2000/svg">
    <g clip-path="url(#fhiuyguzia)">
        <path d="M10.302 9.122a6.356 6.356 0 0 0 2.522-1.77 3.683 3.683 0 0 0 0-4.884c-.643-.805-1.502-1.395-2.468-1.77A8.99 8.99 0 0 0 6.868 0c-1.18 0-2.36.215-3.434.644a6.144 6.144 0 0 0-2.522 1.77A3.793 3.793 0 0 0 0 4.884c0 .751.268 1.502.698 2.146.482.698.858 1.127 1.61 1.503-.054.16-.162.429-.215.59a1.63 1.63 0 0 1-.269.376c-.107.107-.16.214-.214.268l-.269.268-.214.215-.054.053c0 .054-.053.054-.053.054l-.054.054-.054.053v.215c0 .054.054.161.108.215.053.053.107.053.214.053h.054c.268-.053.536-.107.858-.16.966-.269 2.147-.644 3.005-1.235.59.108 1.127.161 1.717.161 1.18.054 2.308-.16 3.434-.59z" fill="currentColor"/>
    </g>
    <defs>
        <clipPath id="fhiuyguzia">
            <path fill="currentColor" d="M0 0h13.683v11H0z"/>
        </clipPath>
    </defs>
</svg>
