<svg width="17" height="13" viewBox="0 0 17 13" fill="none" xmlns="http://www.w3.org/2000/svg">
    <path d="M9.862 8.822a5.91 5.91 0 0 0 2.392-1.719 3.647 3.647 0 0 0 0-4.745A5.92 5.92 0 0 0 9.863.637 8.465 8.465 0 0 0 6.566 0a8.474 8.474 0 0 0-3.297.633A5.916 5.916 0 0 0 .877 2.355 3.704 3.704 0 0 0 0 4.728c.004.74.236 1.462.666 2.067a5.417 5.417 0 0 0 1.818 1.633 5.588 5.588 0 0 1-.19.407 2.286 2.286 0 0 1-.234.355l-.21.267c-.05.065-.13.155-.242.272a8.71 8.71 0 0 0-.215.23c0-.005-.013.01-.037.043-.024.034-.04.049-.042.046-.003-.004-.016.012-.037.046l-.033.05-.023.047a.19.19 0 0 0-.019.056.394.394 0 0 0-.004.06c0 .02.003.041.01.06.01.076.047.145.107.194.052.046.12.073.19.073h.029c.269-.034.537-.083.801-.145a7.9 7.9 0 0 0 2.59-1.182 9.488 9.488 0 0 0 1.641.146 8.47 8.47 0 0 0 3.296-.631zM4.644 8.05l-.41.286a11.26 11.26 0 0 1-.579.36l.327-.776-.905-.516a4.276 4.276 0 0 1-1.389-1.219 2.5 2.5 0 0 1-.494-1.458 2.613 2.613 0 0 1 .732-1.764A4.994 4.994 0 0 1 3.9 1.663a7.322 7.322 0 0 1 2.667-.48 7.338 7.338 0 0 1 2.666.48c.754.271 1.43.717 1.973 1.301.975.977.975 2.55 0 3.527a5.005 5.005 0 0 1-1.973 1.302 7.322 7.322 0 0 1-2.666.48 8.253 8.253 0 0 1-1.427-.129l-.495-.094z" fill="currentColor"/>
    <path d="M16.052 9.163a3.573 3.573 0 0 0-.037-4.195 5.503 5.503 0 0 0-1.902-1.643 4.71 4.71 0 0 1-.412 3.747 6.19 6.19 0 0 1-1.79 1.957 8.28 8.28 0 0 1-2.462 1.19 9.937 9.937 0 0 1-2.884.415c-.187 0-.46-.013-.82-.037a7.893 7.893 0 0 0 4.401 1.219c.55-.001 1.1-.05 1.642-.146a7.486 7.486 0 0 0 3.395 1.329.277.277 0 0 0 .204-.065.342.342 0 0 0 .122-.202c0-.037 0-.057.01-.06.01-.003.007-.022-.005-.06l-.019-.055-.022-.046a.452.452 0 0 0-.032-.051c-.012-.015-.023-.032-.038-.046l-.042-.046-.037-.042a6.54 6.54 0 0 0-.215-.23 3.693 3.693 0 0 1-.242-.272 18.31 18.31 0 0 0-.21-.27 2.205 2.205 0 0 1-.233-.354 5.478 5.478 0 0 1-.191-.406 5.471 5.471 0 0 0 1.82-1.631z" fill="currentColor"/>
</svg>
