<svg width="15" height="13" viewBox="0 0 15 13" fill="none" xmlns="http://www.w3.org/2000/svg">
    <g clip-path="url(#pp9iluk66a)" fill="currentColor">
        <path d="M4.372 6.678a2.861 2.861 0 0 1-.607-1.167c-.015-.055-.063-.1-.102-.146-.381-.459-.619-.975-.598-1.589.003-.085.015-.17.034-.255.009-.048.03-.118.063-.134.2-.082.147-.255.156-.404.018-.38 0-.762.05-1.136C3.502.854 4.255.14 5.243.03c.574-.063 1.141-.051 1.679.186.807.355 1.183 1.02 1.246 1.883.027.359.018.717.02 1.079 0 .076.016.121.09.167.064.036.115.128.13.203.087.41.015.809-.162 1.18-.096.203-.22.397-.355.576a1.156 1.156 0 0 0-.207.395 2.532 2.532 0 0 1-.555.988l1.27.665a.795.795 0 0 0 .213.717c.099.103-.003.189-.024.277-.01.033-.078.066-.12.07-.42.03-.69.288-.742.71-.036.304-.066.605.024.903.102.325.282.562.655.556.138-.003.177.085.228.191.051.11-.006.167-.066.237a.69.69 0 0 0-.054.866c.027.04.048.085.084.146-.37.033-.72.076-1.072.09-.663.031-1.33.07-1.994.062-1.185-.019-2.368-.082-3.536-.289-.448-.079-.892-.167-1.34-.25a.892.892 0 0 1-.129-.033c-.513-.176-.558-.328-.492-.774.12-.805.354-1.565.844-2.224.168-.225.372-.41.627-.529.727-.343 1.46-.68 2.186-1.027.22-.109.438-.24.682-.373z"/>
        <path d="M8.094 9.497c.022-.13.04-.28.067-.428.024-.14.12-.228.252-.204.345.061.522-.088.582-.422.012-.067.054-.13.084-.195.102-.212.102-.215-.057-.38-.048-.051-.099-.1-.147-.148-.096-.1-.108-.213-.033-.331.16-.256.37-.465.622-.626.12-.076.246-.073.324.036.207.301.42.255.723.13.295-.124.463-.242.409-.588-.027-.165.06-.247.23-.283.283-.058.565-.06.848.012.138.037.225.122.2.255-.056.347.085.532.418.593.048.009.093.036.138.06.264.131.264.131.48-.085.232-.233.304-.249.556-.033.177.152.327.337.474.52.097.118.088.258-.036.349-.267.197-.312.416-.117.69.04.054.054.13.075.197.078.237.084.243.34.246.402.01.426.012.465.416.024.222-.015.45-.039.678-.015.143-.12.228-.25.206-.354-.06-.528.104-.59.435-.01.052-.043.103-.067.152-.117.243-.117.243.075.437.042.043.087.085.126.13.085.095.096.198.033.308a1.937 1.937 0 0 1-.642.647c-.114.07-.234.064-.31-.043-.197-.28-.423-.328-.705-.124a.56.56 0 0 1-.207.082c-.174.033-.222.143-.216.307.015.422.003.474-.502.513-.192.015-.387-.024-.58-.049-.143-.018-.2-.118-.203-.255a4.155 4.155 0 0 1-.003-.273c.003-.116-.048-.186-.16-.225a7.564 7.564 0 0 1-.51-.213c-.099-.045-.18-.04-.255.043-.07.073-.138.146-.213.213-.093.085-.198.097-.303.03a1.9 1.9 0 0 1-.637-.65c-.069-.116-.06-.237.045-.313.28-.204.318-.431.123-.714-.039-.055-.054-.13-.078-.197-.072-.22-.084-.228-.306-.228h-.165c-.201-.003-.28-.067-.315-.27-.016-.134-.024-.259-.043-.408zm3.45 1.841a1.803 1.803 0 0 0 1.82-1.798c.006-1.021-.778-1.844-1.769-1.854a1.808 1.808 0 0 0-1.843 1.808c-.003 1.024.783 1.838 1.792 1.844z"/>
    </g>
    <defs>
        <clipPath id="pp9iluk66a">
            <path fill="currentColor" d="M0 0h15v13H0z"/>
        </clipPath>
    </defs>
</svg>
