<svg width="17" height="10" viewBox="0 0 17 10" fill="none" xmlns="http://www.w3.org/2000/svg">
    <g clip-path="url(#6u2h4cn0ra)" fill-rule="evenodd" clip-rule="evenodd" fill="currentColor">
        <path d="M8.367 0c1.777.02 3.406.535 4.903 1.478 1.306.823 2.386 1.886 3.312 3.115a.659.659 0 0 1 .015.803c-1.332 1.77-2.951 3.183-5.04 4.002a8.674 8.674 0 0 1-3.336.6c-1.644-.03-3.16-.5-4.565-1.343C2.26 7.817 1.116 6.708.142 5.414a.665.665 0 0 1-.004-.815C1.338 3.01 2.778 1.7 4.604.854A8.807 8.807 0 0 1 7.605.046c.254-.02.507-.03.762-.046zm-.015 1.535a3.468 3.468 0 0 0-3.46 3.455 3.478 3.478 0 0 0 3.469 3.486 3.478 3.478 0 0 0 3.473-3.468 3.48 3.48 0 0 0-3.482-3.473z"/>
        <path d="M8.37 2.884a2.106 2.106 0 0 1 2.112 2.124 2.114 2.114 0 0 1-2.134 2.115 2.11 2.11 0 0 1-2.105-2.135A2.119 2.119 0 0 1 8.37 2.884z"/>
    </g>
    <defs>
        <clipPath id="6u2h4cn0ra">
            <path fill="currentColor" d="M0 0h16.723v10H0z"/>
        </clipPath>
    </defs>
</svg>
