<svg width="15" height="13" viewBox="0 0 15 13" fill="none" xmlns="http://www.w3.org/2000/svg">
    <path d="M5.796 8.243a1.65 1.65 0 0 0 1.652-1.647c0-.91-.74-1.647-1.652-1.647a1.65 1.65 0 0 0-1.652 1.647c0 .91.74 1.647 1.652 1.647zM5.796 3.294a1.65 1.65 0 0 0 1.652-1.647C7.448.737 6.708 0 5.796 0a1.65 1.65 0 0 0-1.652 1.647c0 .91.74 1.647 1.652 1.647zM8.429 12.205v-1.979a1.854 1.854 0 0 0-1.857-1.85h-1.55a1.854 1.854 0 0 0-1.857 1.85v1.979s2.632 1.789 5.264 0z" fill="currentColor"/>
    <path d="M4.26 8.04a2.224 2.224 0 0 1-.522-1.16c-.149-.039-.17-.083-.33-.083H1.856A1.854 1.854 0 0 0 0 8.647v1.979s1.153.783 2.696.794a2.789 2.789 0 0 1-.102-.738c0-1.201.6-2.247 1.667-2.642zM4.414 4.931a1.648 1.648 0 0 0-1.647-1.56 1.65 1.65 0 0 0-1.652 1.646c0 .91.74 1.647 1.652 1.647.415 0 .657-.136.948-.388.049-.503.389-.98.7-1.345zM7.448 8.077c.287-.335.351-.782.421-1.238.148-.038.218-.042.378-.042h1.55c1.026 0 1.857.828 1.857 1.85v1.979s-1.153.783-2.695.794c.064-.235.101-.482.101-.738 0-1.201-.545-2.21-1.612-2.605zM7.24 4.931c.045-.869.764-1.56 1.648-1.56a1.65 1.65 0 0 1 1.651 1.646 1.65 1.65 0 0 1-2.736 1.24A2.406 2.406 0 0 0 7.24 4.93z" fill="currentColor"/>
    <path d="M10.623 6.401c.287-.335.295-.578.364-1.034.149-.038.303-.063.463-.063H13c1.026 0 1.857.829 1.857 1.851v1.978s-1.153.783-2.695.795a2.79 2.79 0 0 0 .101-.738c0-1.202-.573-2.394-1.64-2.789zM10.443 3.439c.045-.87.764-1.56 1.648-1.56a1.65 1.65 0 0 1 1.652 1.646 1.65 1.65 0 0 1-2.737 1.24 2.406 2.406 0 0 0-.563-1.326zM4.658 3.788s.872-.976 2.135 0c0 0 .244.87-1.068.87 0 0-1.067.105-1.067-.782" fill="currentColor"/>
</svg>
