<svg width="15" height="14" viewBox="0 0 15 14" fill="none" xmlns="http://www.w3.org/2000/svg">
    <path fill-rule="evenodd" clip-rule="evenodd" d="M9.673 9.505c0 .405-.01.81.007 1.212.004.086.095.178.163.249.433.45.872.893 1.307 1.34.061.063.12.13.17.202.096.14.098.287-.017.415s-.26.166-.417.081a.762.762 0 0 1-.173-.138c-.257-.26-.51-.524-.768-.785-.075-.076-.158-.144-.281-.255 0 .19.002.33 0 .47-.005.24-.137.403-.332.413-.181.01-.34-.133-.372-.356-.023-.16-.021-.323-.03-.488-.326.327-.643.647-.963.965-.061.062-.124.127-.198.17a.334.334 0 0 1-.446-.1c-.106-.148-.099-.303.022-.432.255-.273.52-.536.78-.802.233-.237.461-.479.7-.708a.49.49 0 0 0 .162-.4c-.009-.348-.003-.697-.003-1.064h-1.6c-.754.002-1.509.002-2.263.01-.306.002-.568-.092-.758-.343a.88.88 0 0 1 .33-1.332c.06-.03.122-.054.2-.088V5.115l.71-.05V7.67h7.33V2.205H5.62v1.2h-.728v-1.3c-.104 0-.188.002-.272 0-.274-.004-.452-.147-.45-.359.003-.218.17-.337.464-.332.575.01 1.149.025 1.723.029.815.006 1.63.003 2.445.004.039 0 .077-.004.138-.008 0-.254-.002-.5 0-.745.003-.28.142-.446.367-.442.214.004.347.169.35.44.003.24 0 .481 0 .757h.238l4.168-.001c.285 0 .402.082.405.28.003.216-.168.37-.418.375-.092.002-.183 0-.295 0v1.73c0 1.238.003 2.477-.002 3.715 0 .15.03.229.179.288a.86.86 0 0 1 .54.836.854.854 0 0 1-.571.792.794.794 0 0 1-.273.039c-1.269-.002-2.538-.007-3.807-.01-.039 0-.078.006-.148.012zM9.31 8.458H7.268l-2.183.002c-.115 0-.244.014-.22.16.012.071.133.137.217.18.054.027.13.007.197.007l8.171-.002c.054 0 .118.015.158-.01.058-.037.137-.104.136-.157 0-.059-.071-.143-.13-.167-.076-.03-.171-.013-.258-.013H9.311z" fill="#fff"/>
    <path fill-rule="evenodd" clip-rule="evenodd" d="M9.343 6.938c-.243 0-.288-.036-.28-.28.008-.223-.116-.313-.29-.385-.164-.068-.3-.077-.435.068-.168.18-.228.177-.38.025-.156-.158-.164-.254.002-.413.152-.145.132-.285.063-.462-.07-.18-.162-.286-.363-.287-.254 0-.366-.161-.266-.401.028-.068.152-.133.231-.132.205.001.316-.082.394-.275.077-.192.097-.347-.076-.494-.144-.122-.128-.25.002-.385.128-.134.253-.159.373-.01.142.178.295.164.48.084.184-.079.284-.19.263-.404-.018-.184.072-.259.25-.26.173 0 .293.042.28.25-.013.203.064.33.255.411.195.082.35.097.497-.088.125-.158.25-.1.372.024.123.126.146.244.005.365-.146.127-.177.268-.105.457.08.208.182.345.421.32.191-.022.236.098.237.269 0 .172-.045.286-.235.271-.21-.016-.332.082-.41.283-.073.193-.08.352.092.495.156.13.103.256-.02.382-.12.124-.242.153-.356.009-.14-.176-.293-.172-.482-.096-.195.079-.288.203-.273.42.015.193-.093.256-.246.239zm.883-1.989c.002-.533-.39-.943-.903-.946-.492-.002-.905.423-.904.931.002.52.395.926.9.93a.894.894 0 0 0 .907-.915zM1.643 2.492c.003-.578.445-1.028 1.006-1.024a1.02 1.02 0 0 1 .998 1.038c-.007.572-.465 1.036-1.012 1.026-.566-.01-.994-.458-.992-1.04zM1.669 3.899s1.432-.134 1.983-.137c.961-.005 1.923-.006 2.884 0 .29.002.493.186.498.428.006.272-.184.45-.498.472-.792.056-1.584.114-2.376.172-.019.001-.037.01-.076.022L3.97 6.078c-.112 1.259.028 2.514.065 3.77.026.887.072 1.773.1 2.66.01.309-.158.516-.41.537-.295.025-.473-.131-.52-.466l-.483-3.381a.737.737 0 0 0-.074-.243c-.054.383-.109.766-.161 1.15l-.332 2.425c-.006.04-.019.08-.028.12-.07.281-.26.423-.526.394-.239-.026-.41-.228-.4-.505.026-.818.06-1.636.094-2.453.045-1.058.093-2.115.138-3.173a.401.401 0 0 0-.057-.222c-.138.608-.274 1.216-.414 1.824-.054.235-.193.38-.376.401-.186.022-.38-.075-.435-.256a.894.894 0 0 1-.022-.383c.178-1.18.365-2.358.549-3.537.056-.36.243-.6.589-.701.185-.054.389-.183.55-.14" fill="#fff"/>
</svg>
