<svg width="17" height="19" viewBox="0 0 17 19" fill="none" xmlns="http://www.w3.org/2000/svg">
    <g clip-path="url(#lnluutj4ia)">
        <path d="M16.919 4.575V3.13c0-1.986-1.144-3.13-3.162-3.13H3.162C1.16 0 .016 1.144 0 3.13V15.966c.016 1.827 1.207 3.018 3.05 3.018h3.384c1.176 0 2.367 0 3.527-.016.524 0 1.016-.063 1.461-.159 3.32-.762 5.465-3.463 5.497-6.878.016-2.447.016-4.941 0-7.356zm-8.42-2.939h5.274c1.08 0 1.51.43 1.51 1.494v8.69c0 .953-.366 1.35-1.319 1.43-1.573.126-2.637 1.207-2.732 2.763-.048.89-.525 1.335-1.398 1.335-2.415.016-4.64.016-6.847 0-.89 0-1.335-.477-1.335-1.398V3.018c0-.921.445-1.366 1.35-1.382H8.5zm5.957 13.25a5.257 5.257 0 0 1-1.62 1.62c.143-.652.27-1.017.477-1.223.19-.191.54-.302 1.143-.398z"/>
        <path d="M5.068 5.1c-.35 0-.604.079-.763.254a.76.76 0 0 0-.206.603c.016.35.19.779.969.779H11.883c.778 0 .969-.413.985-.763a.781.781 0 0 0-.207-.603c-.174-.175-.413-.255-.762-.255C9.595 5.1 7.339 5.1 5.068 5.1zM11.835 8.166H5.1c-.873 0-1 .508-1.016.826 0 .238.063.429.206.572.207.206.509.238.779.238H11.803c.27 0 .588-.032.81-.238.144-.143.207-.334.207-.556.016-.334-.111-.842-.985-.842zM9.85 11.216H5.068c-.35 0-.604.08-.779.27a.795.795 0 0 0-.206.603c.016.286.143.779.969.779h4.782c.222 0 .524-.032.746-.238.143-.143.207-.334.207-.572 0-.207-.064-.842-.938-.842z"/>
    </g>
    <defs>
        <clipPath id="lnluutj4ia">
            <path fill="#fff" d="M0 0h16.935v19H0z"/>
        </clipPath>
    </defs>
</svg>
