<svg width="17" height="18" viewBox="0 0 17 18" fill="none" xmlns="http://www.w3.org/2000/svg">
    <g clip-path="url(#vm9d9c73aa)" fill-rule="evenodd" clip-rule="evenodd">
        <path d="M2.222 2.129v1.406c0 .2 0 .386.011.585.048.635.556 1.12 1.159 1.108.602-.012 1.099-.523 1.11-1.157.012-.586 0-1.17 0-1.743v-.174h7.457v1.879c0 .573.379 1.058.91 1.183.508.112 1.04-.15 1.265-.672a1.52 1.52 0 0 0 .106-.56c.012-.548 0-1.108 0-1.656v-.174a2.042 2.042 0 0 1 1.454.448c.59.46.91 1.095.91 1.867.011 3.734.011 7.481 0 11.216 0 1.307-.97 2.34-2.21 2.34H2.21C.969 18 0 16.955 0 15.66V4.469c0-1.232.922-2.278 2.056-2.34h.166zm-1.1 4.493V15.573c0 .771.462 1.257 1.182 1.257H14.3c.721 0 1.182-.486 1.182-1.245V6.772c0-.05 0-.1-.012-.15H1.123z"/>
        <path d="M13.945 2.452v1.544c0 .51-.367.909-.828.909-.472 0-.839-.374-.85-.884a138.92 138.92 0 0 1 0-3.15c0-.498.378-.871.839-.871.472 0 .839.373.839.896v1.556zM4.195 2.452v1.581c0 .349-.153.61-.449.772-.283.162-.579.137-.85-.05a.856.856 0 0 1-.379-.734V.884c0-.498.366-.884.827-.896.473 0 .84.36.851.87.012.536 0 1.071 0 1.594zM6.559 15.61h-1.62v-1.705h1.62v1.705zM9.064 15.61H7.445v-1.705h1.619v1.705zM9.064 12.834H7.445v-1.705h1.619v1.705zM14.276 12.834h-1.62v-1.693h1.62v1.693zM3.947 15.61H2.328v-1.705h1.62v1.705zM10.08 15.61v-1.693h1.62v1.693h-1.62zM3.959 11.129v1.705h-1.62v-1.705h1.62zM11.664 10.058h-1.62c0-.037-.011-.075-.011-.112V8.515c0-.125.036-.162.165-.162.438.012.875 0 1.3 0h.166v1.705zM6.559 12.834h-1.62v-1.705h1.62v1.705zM10.08 12.822v-1.693h1.62v1.693h-1.62zM9.029 8.353v1.705h-1.62V8.353h1.62zM14.24 8.353v1.705h-1.619V8.353h1.62z"/>
    </g>
    <defs>
        <clipPath id="vm9d9c73aa">
            <path d="M0 0h16.615v18H0z"/>
        </clipPath>
    </defs>
</svg>
