<svg width="18" height="18" viewBox="0 0 18 18" fill="none" xmlns="http://www.w3.org/2000/svg">
    <g clip-path="url(#399zh8raza)" fill-rule="evenodd" clip-rule="evenodd">
        <path d="M0 8.455V7.01c.119-.332.356-.448.698-.408.177.022.357.007.537 0 .299-.007.432-.12.5-.412l.033-.14c.064-.278 0-.423-.249-.567-.198-.112-.396-.22-.594-.336-.28-.162-.342-.368-.209-.664.155-.347.339-.675.53-1 .234-.401.439-.477.802-.336.191.112.378.227.57.336.37.213.935-.098.968-.53.01-.156-.123-.25-.159-.387-.032-.058-.061-.12-.093-.177l-.206-.361c-.054-.126-.046-.264-.04-.397a.633.633 0 0 1 .202-.246c.375-.242.756-.48 1.163-.664.299-.134.443-.101.655.148.134.242.263.484.404.722.104.173.262.231.46.188.083-.018.166-.033.245-.054.227-.058.342-.213.353-.459V.51c.032-.332.194-.487.536-.502.447-.018.897-.014 1.343 0 .26.065.414.228.436.502v.758c-.004.238.072.358.288.437.09.032.183.05.273.076.216.054.39-.011.504-.202.137-.231.263-.47.393-.7.003-.012.01-.022.014-.033.094-.087.184-.18.324-.192.159-.018.288.073.429.116.1.061.194.14.32.144.133.13.306.203.468.29.036.024.072.046.108.071.425.372.443.426.277.827-.05.065-.108.126-.09.22-.144.127-.216.296-.288.47a.33.33 0 0 0 .029.364c.029.098.112.152.184.213.06.09.136.163.248.184.158.065.306.054.44-.065.053-.029.104-.057.158-.083.259-.112.468-.335.777-.328l.108.032a.79.79 0 0 1 .26.253c.043.061.082.126.125.188.036.094.09.177.155.252a.671.671 0 0 1 .04.069c.065.137.122.274.212.397l.022.043c.043.109.086.217.133.325.032.246-.065.416-.28.527a16.35 16.35 0 0 0-.552.304c-.306.177-.352.314-.252.71.08.311.224.423.551.427.198.003.396.01.59-.004.292-.021.483.098.577.376.025.364.054.733.028 1.097-.018.257.015.534-.205.74a.536.536 0 0 1-.306.083 23.935 23.935 0 0 0-.72 0c-.205.004-.381.062-.46.271-.051.134-.087.274-.101.419a.378.378 0 0 0 .201.39c.22.126.44.245.659.364.029.036.061.065.112.069.068.065.097.162.18.213.025.17-.058.314-.105.466-.072.144-.144.285-.22.43-.06.05-.06.147-.143.183-.879-.844-1.728-1.718-2.589-2.58-.09-.091-.126-.167-.083-.297.047-.14.094-.285.083-.44.022-.022.029-.044.022-.073l.01-.184c.047-.08.033-.166.026-.252v-.177c.003-.098.025-.199-.025-.293a1.891 1.891 0 0 0-.105-.65.352.352 0 0 0-.043-.18c-.068-.31-.209-.592-.367-.866l-.022-.03-.021-.032c-.011-.032-.015-.065-.05-.083a1.087 1.087 0 0 0-.192-.289.447.447 0 0 0-.13-.155.716.716 0 0 0-.219-.245.324.324 0 0 0-.122-.12.703.703 0 0 0-.238-.209.326.326 0 0 0-.158-.119c-.011-.007-.018-.014-.029-.022-.01-.01-.022-.018-.036-.029-.083-.05-.166-.104-.248-.155-.05-.032-.101-.061-.152-.094-.273-.148-.55-.285-.86-.339-.065-.043-.144-.05-.22-.061-.165-.036-.33-.087-.504-.073-.025 0-.05 0-.072-.003a2.287 2.287 0 0 0-.684.003c-.147 0-.291.018-.432.065-.115 0-.22.04-.324.08a3.237 3.237 0 0 0-1.08.498c-.025.014-.046.029-.072.043A3.732 3.732 0 0 0 4.298 5.48c-.24.329-.41.693-.504 1.09-.007.011-.014.022-.021.036-.036.109-.072.213-.08.329a2.17 2.17 0 0 0-.064.433l-.011.329c0 .18-.029.364.029.545.007.072-.015.148.032.216l.011.105.072.289c.061.267.162.516.292.758.064.145.136.282.24.404a2.07 2.07 0 0 0 .292.393c.026.026.047.052.072.08.324.38.702.686 1.152.903.101.065.198.133.324.14.105.09.23.12.36.145.14.058.281.098.432.108.13.047.263.055.4.065l.356.011c.05.033.098.025.148 0 .061 0 .119-.003.18-.003.025 0 .047-.004.072-.004.036-.004.076-.004.112-.007.028.007.054 0 .075-.022l.173-.014c.029.007.054 0 .072-.022a.923.923 0 0 0 .324-.076c.173-.032.223.145.342.202.032.037.061.073.094.109.748.754 1.497 1.509 2.253 2.256.123.12.115.18-.025.25-.014.006-.029.017-.043.024a1.85 1.85 0 0 0-.357.184c-.14.055-.273.13-.428.127-.115-.011-.202-.087-.292-.152-.025-.036-.046-.076-.072-.112-.122-.22-.237-.444-.367-.66-.115-.192-.288-.26-.504-.21-.068.015-.14.03-.209.047-.237.062-.36.22-.36.47-.003.234.004.469 0 .703-.003.343-.169.531-.51.546-.426.018-.85.018-1.275 0-.371-.018-.515-.195-.511-.57 0-.236.003-.47 0-.705a.42.42 0 0 0-.288-.415 1.858 1.858 0 0 0-.278-.072c-.266-.058-.414.01-.547.249l-.342.614c-.14.249-.36.321-.626.213-.061-.026-.123-.047-.184-.072-.291-.167-.58-.333-.871-.495-.047-.036-.094-.069-.14-.105a.962.962 0 0 1-.213-.224c-.014-.047-.025-.094-.04-.14.026-.318.26-.542.364-.823.069-.087.137-.177.137-.297a.38.38 0 0 0-.137-.404c-.079-.09-.155-.184-.259-.245-.108-.098-.234-.087-.36-.062a5.19 5.19 0 0 0-.756.423c-.115.036-.227.086-.353.068a.595.595 0 0 1-.345-.281c-.058-.101-.13-.195-.198-.293-.134-.249-.27-.494-.4-.743-.173-.333-.148-.477.119-.73.01 0 .018-.003.029-.01.226-.127.46-.25.684-.383a.415.415 0 0 0 .208-.44 1.86 1.86 0 0 0-.1-.362.363.363 0 0 0-.296-.252c-.04-.036-.09-.03-.136-.03-.288 0-.576.004-.864.004-.227-.061-.31-.252-.382-.458z"/>
        <path d="m8.777 10.91-.357.126c-.021.007-.043.014-.064.025-.015.004-.03.004-.044.008l-.079.021c-.01.004-.018.004-.029.008-.036.003-.072.003-.108.007-.133.003-.266.007-.4.014a41.708 41.708 0 0 1-.212-.021c-.043-.033-.093-.037-.144-.033-.108-.036-.216-.076-.32-.112l-.407-.235-.01-.007-.407-.343a3.452 3.452 0 0 1-.512-.79c-.104-.282-.208-.567-.259-.863a.545.545 0 0 0-.029-.217c0-.119.004-.234.004-.354.043-.278.104-.548.234-.801l.194-.318c.072 0 .144-.014.188.065.032.047.064.098.097.145.061.097.122.191.187.288a.416.416 0 0 0 .1.148c.048.105.109.199.184.286.015.043.033.083.072.108.076.126.137.264.224.379.111.155.255.282.457.307.043.032.093.04.144.029.389.032.705-.134 1-.358a1.16 1.16 0 0 0 .371-.317.768.768 0 0 0 .234-.405.678.678 0 0 0-.06-.534c.003-.036-.015-.058-.04-.08a31.74 31.74 0 0 1-.216-.36c-.036-.058-.072-.12-.108-.177a1.518 1.518 0 0 0-.206-.322c-.003-.032-.014-.06-.046-.079a12.309 12.309 0 0 0-.224-.365c-.097-.158-.075-.213.112-.252.432-.087.864-.109 1.282.068.014.007.036.004.054.007.072.037.14.076.212.112.223.141.425.314.612.502.032.036.068.072.1.112l.163.25.209.436c.028.108.057.217.09.321l.054.29c0 .024.003.046.003.071v.325c0 .036-.003.069-.003.105-.004.004-.011.007-.011.01l.003.026c-.007.025-.01.054-.018.08l-.043.216-.01.015c-.199.324-.159.595.161.826.12.087.213.206.317.31.036.037.069.073.105.105.072.098.158.18.252.257a.252.252 0 0 0 .104.108c.18.202.37.397.572.578a.258.258 0 0 0 .112.112c.072.093.158.177.252.249.036.036.072.072.108.112.068.097.158.176.256.249.04.057.082.104.144.14l.96.946c.04.055.073.112.156.105.15.025.262-.08.396-.12a2.383 2.383 0 0 1 1.116-.06l.324.108c.568.263 1 .675 1.3 1.227.158.365.29.737.352 1.13.029.48-.029.946-.288 1.365-.036.054-.068.115-.115.159-.076.072-.151.09-.216-.022-.061-.101-.133-.195-.202-.292.004-.015-.003-.022-.014-.03-.177-.274-.353-.552-.53-.826-.06-.112-.1-.242-.233-.296-.116-.177-.303-.191-.483-.22a.274.274 0 0 0-.22.007c-.51.072-.896.357-1.22.74a.703.703 0 0 0-.18.596c.018.3.205.516.36.754.101.166.195.34.303.502.068.105.108.235.223.303.147.322.09.318-.274.372l-.4.033-.316-.015a2.597 2.597 0 0 1-.796-.328c-.05-.05-.097-.105-.176-.105a.724.724 0 0 0-.216-.228c-.04-.043-.08-.086-.115-.13l-.173-.227c-.083-.076-.094-.188-.151-.278a.27.27 0 0 0-.069-.144l-.147-.506c-.047-.379-.044-.75.068-1.119.054-.126.133-.249.112-.397.003-.08-.054-.112-.105-.148a.26.26 0 0 0-.108-.108.274.274 0 0 0-.104-.109 2.324 2.324 0 0 0-.324-.328c-.025-.022-.047-.047-.072-.069a2.329 2.329 0 0 0-.324-.328 87.774 87.774 0 0 0-2.088-2.09.713.713 0 0 0-.18-.18c-.007-.037-.04-.033-.069-.037-.072-.065-.104-.163-.19-.213-.011-.007-.018-.014-.03-.018-.035-.022-.071-.018-.11-.004a.173.173 0 0 0-.033.015z"/>
    </g>
    <defs>
        <clipPath id="399zh8raza">
            <path d="M0 0h18v18H0z"/>
        </clipPath>
    </defs>
</svg>
