<svg width="25" height="24" viewBox="0 0 25 24" fill="none" xmlns="http://www.w3.org/2000/svg">
    <path d="M.903 2.304c.273-.239.6-.2.912-.2H16.278c.53 0 .82.291.82.825 0 1.925 0 1.853.005 3.777 0 .252 0 .243-.261.23a12.218 12.218 0 0 0-.977-.013c-.16.004-.204-.048-.2-.204.004-1.616.004-1.227 0-2.843v-.33H2.123v16.91h.213c1.833 0 3.666.005 5.498-.004.157 0 .248.048.33.187.213.356.452.703.682 1.05.03.048.065.096.118.174-.092.005-.157.013-.218.013h-7.21c-.599 0-.85-.265-.85-.868V2.75c.004.005.06-.308.217-.447z"/>
    <path d="M20.926 22.406c-.486-.343-.964-.677-1.438-1.02-.117-.087-.204-.075-.334-.018-.452.204-.912.39-1.377.569-.108.043-.156.087-.178.204-.078.517-.17 1.034-.252 1.55-.017.153-.07.248-.239.248-.603-.004-1.207 0-1.806 0-.152 0-.213-.078-.24-.23-.077-.517-.169-1.034-.247-1.555-.017-.122-.07-.174-.187-.217-.482-.187-.95-.395-1.433-.586a.282.282 0 0 0-.243.026c-.443.304-.886.612-1.316.933-.122.092-.204.092-.304-.013-.426-.43-.851-.855-1.281-1.277-.113-.112-.096-.204-.009-.325.313-.422.608-.851.92-1.277.075-.104.079-.187.023-.304-.209-.465-.391-.942-.595-1.407-.03-.07-.113-.148-.183-.161a38.494 38.494 0 0 0-1.55-.26c-.165-.022-.257-.083-.257-.257 0-.595.005-1.194.005-1.79 0-.151.074-.216.226-.238.525-.082 1.046-.178 1.572-.26.126-.018.165-.079.208-.192a24 24 0 0 1 .552-1.337c.07-.152.074-.252-.026-.391-.304-.409-.595-.834-.895-1.247-.082-.113-.104-.204.004-.308.44-.434.873-.869 1.312-1.303.087-.087.16-.083.26-.009.44.322.887.63 1.33.947.09.065.156.074.269.026.478-.213.964-.4 1.446-.608a.286.286 0 0 0 .143-.174c.1-.53.187-1.06.27-1.59.021-.138.074-.216.226-.216.62.004 1.246.008 1.867.008.165 0 .165.122.183.23.086.517.178 1.034.252 1.551.017.13.082.17.19.213.478.19.952.4 1.434.59.065.027.17.022.221-.017.443-.304.882-.612 1.316-.934.122-.09.209-.113.322 0 .425.43.85.856 1.276 1.281.1.1.11.187.018.309-.313.421-.608.855-.916 1.277-.083.117-.087.195-.027.334.205.443.387.9.56 1.355.049.126.105.191.244.213.504.074 1.008.17 1.511.248.157.021.257.07.257.252-.005.608-.005 1.22-.005 1.828 0 .13-.065.178-.19.2-.526.082-1.048.178-1.573.26-.14.022-.195.087-.243.213a31.6 31.6 0 0 1-.574 1.373c-.052.112-.052.186.022.282.322.439.634.886.943 1.333.034.052.056.165.026.204a7.672 7.672 0 0 1-1.49 1.464zm-8.925-6.284c.008 2.35 1.88 4.221 4.213 4.217 2.354-.005 4.204-1.89 4.19-4.27-.008-2.275-1.91-4.143-4.208-4.134-2.319.004-4.204 1.889-4.195 4.187zM8.93 7.663c-1.72 0-3.44-.004-5.16.005-.165 0-.204-.057-.2-.209.01-.252 0-.503 0-.755.005-.396-.038-.343.34-.348 1.215-.004 2.432 0 3.643 0h6.476c.256 0 .256 0 .256.265s-.009.53.005.795c.008.187-.044.252-.24.252-1.71-.009-3.418-.005-5.12-.005zM3.575 12.635c0-.404-.004-.786.009-1.172 0-.04.1-.109.156-.113.39-.01.782-.01 1.173-.01 1.294 0 2.588 0 3.882.005.057 0 .118.009.213.013-.056.079-.1.135-.139.191-.217.326-.425.656-.651.978a.297.297 0 0 1-.196.121c-1.429.005-2.853.005-4.282.005l-.165-.018zM6.977 16.36c.039.43.073.843.112 1.277h-.681c-.873 0-1.75-.004-2.624.005-.16 0-.226-.035-.217-.209.013-.312.005-.62.005-.933 0-.1.017-.166.138-.166 1.069.005 2.133.005 3.201.005.018 0 .04.013.066.021z"/>
    <path d="M.056 0C.14.056.217.113.317.178.369.13.426.078.487.03c.017-.013.06-.008.086 0C.586.04.595.096.586.1.396.248.434.4.63.556.608.565.586.578.56.586.517.565.46.552.434.521.347.421.27.404.174.512.144.547.078.552.03.573.052.521.065.465.096.413.113.373.152.343.182.304.117.221.061.139 0 .061.017.039.04.02.056 0z" fill="#fff"/>
    <path d="M16.15 18.297a2.21 2.21 0 1 0 0-4.42 2.21 2.21 0 0 0 0 4.42z"/>
</svg>