<svg width="19" height="22" viewBox="0 0 19 22" fill="none" xmlns="http://www.w3.org/2000/svg">
    <g clip-path="url(#swnkm4p75a)">
        <path d="M15.4 14.2c.2.2.4.4.5.6.4.6.2 1.3-.5 1.6-.2.1-.5.2-.7.2-.2.1-.5.1-.7.1.1.1.3.2.4.3.5.4.4 1-.2 1.3-.6.3-1.3.3-1.9.2-1.1-.2-2.3-.4-3.4-.6-.9-.2-1.8-.3-2.7-.5-.7-.2-1.3-.3-2-.3V9.6h.3c.6 0 1.1-.2 1.6-.6l3-2.4c.1 0 .1-.1.2-.1.6-.6 1.1-.7 2.2-.2.5.3.9.7 1.2 1.2 0 .3.1.4.3.5.4.1.7.2 1.1.2.6 0 1.3.1 1.9 0 .8-.1 1.6.8 1.3 1.8-.2.5-.5.8-.9 1-.1.1-.3.1-.4.2.8.3 1.1.9.9 1.7-.2.8-.8 1.2-1.5 1.3z"/>
        <path d="M16.6.5c.8.5 1.3 1.1 1.6 1.9.6 2-.6 4-2.6 4.4-.3.1-.5.2-.5.5-.1.1-.1.2-.1.3-.5-.1-1-.1-1.5-.2-.1 0-.3-.2-.4-.3-.1-.1-.2-.3-.3-.4-.1-.1-.2-.2-.1-.5 0-.1-.1-.2-.2-.3-1.8-1.7-1.3-4.7 1-5.7.4-.1.9-.2 1.4-.2-.3 1.2-.6 2.3-1 3.4.5.2 1.1.3 1.7.5.3-1.1.6-2.3 1-3.4zM0 13.6V10c0-.4.1-.5.4-.5h2.5c.3 0 .4.1.4.4v7.3c0 .4-.1.4-.4.4H.4c-.4 0-.4-.1-.4-.4v-3.6zm1.7 2.2c-.3 0-.6.3-.6.6s.3.6.6.6.6-.2.6-.6c0-.4-.3-.6-.6-.6zM12.2 19.9c0 .9-.6 1.6-1.4 1.9-.8.3-1.7 0-2.2-.7-.5-.7-.5-1.6-.1-2.3.1-.2.2-.2.4-.2.9.2 1.9.3 2.8.5.1 0 .2.1.3.2.1.3.1.5.2.6zm-2.1.8c.4 0 .7-.3.7-.7 0-.4-.3-.7-.7-.7-.4 0-.7.3-.7.7.1.4.4.7.7.7z"/>
    </g>
    <defs>
        <clipPath id="swnkm4p75a">
            <path fill="#fff" d="M0 0h18.3v21.9H0z"/>
        </clipPath>
    </defs>
</svg>
