<svg width="18" height="15" viewBox="0 0 18 15" fill="none" xmlns="http://www.w3.org/2000/svg">
    <g clip-path="url(#96wp2dkbda)">
        <path d="M17.906 14.4v-1.184h-1.16V4.984H18c-.02-.269-.033-.524-.053-.777-.055-.728-.113-1.455-.17-2.18-.049-.646-.102-1.292-.152-1.94-.005-.069-.033-.092-.102-.087-.034.002-.067 0-.103 0H.4L0 4.982h.744c.089 0 .178-.008.266-.013.203-.014.292.06.292.258v7.776c-.006.137-.078.205-.225.205-.275.003-.552 0-.827 0H.105v1.19c5.93.002 11.858.002 17.8.002zm-5.18-5.604c-.02-.03-.033-.045-.039-.063-.188-.417-.377-.833-.563-1.252-.097-.222-.253-.37-.505-.414a11.316 11.316 0 0 0-2.024-.177c-.907.013-1.815.053-2.72.08-.58.015-.968.3-1.157.816-.12.322-.27.633-.408.947-.017.04-.045.073-.072.118-.025-.108-.045-.203-.07-.292-.028-.087-.091-.159-.189-.153-.222.016-.444.04-.663.079-.105.018-.17.103-.183.208a.222.222 0 0 0 .13.243.972.972 0 0 0 .311.087c.17.013.342.002.514.002-.161.443-.633.707-.664 1.207h.145c.488 0 .977.003 1.465 0 .2-.002.344.074.422.248.072.166.142.335.203.506.064.188.016.248-.189.245-.619-.007-1.238-.018-1.86-.026h-.15v1.974H2.837V5.021h12.335v8.148h-1.644l.092-1.938h-.144c-.642.008-1.283.016-1.921.022-.208.002-.26-.066-.205-.254.038-.126.086-.253.13-.376.103-.28.31-.404.622-.396.463.01.924.01 1.388.013.127 0 .166-.068.1-.168-.095-.14-.19-.277-.284-.417-.13-.195-.263-.39-.405-.6.075 0 .125.002.175 0 .194-.014.389-.022.58-.05.15-.022.178-.077.175-.243-.003-.18-.036-.238-.18-.259a6.3 6.3 0 0 0-.63-.068c-.05-.003-.12.05-.153.097-.056.074-.092.166-.142.264zM3.697 1.953c.045-.095.07-.171.114-.237.566-.883 1.887-.939 2.54-.106.113.145.25.214.444.211 1.468-.008 2.936-.013 4.405-.013a.542.542 0 0 0 .455-.216c.513-.633 1.485-.762 2.157-.282.216.155.38.35.452.622-.055.003-.1.008-.144.008h-.802c-.33 0-.589.248-.578.564a.526.526 0 0 0 .566.5c.325-.018.653-.005.997-.005-.03.074-.047.138-.078.193-.541.925-1.879 1.025-2.545.184a.564.564 0 0 0-.483-.229c-1.482.008-2.962.013-4.444.019a.476.476 0 0 0-.375.17c-.066.075-.13.151-.205.214-.525.433-1.107.506-1.738.246-.366-.153-.585-.433-.721-.789.31 0 .608-.008.905.003.197.008.372-.021.5-.177a.515.515 0 0 0 .08-.598c-.106-.213-.28-.295-.522-.29-.32.013-.633.008-.98.008zm2.124 7.056c.152-.41.308-.809.446-1.212.114-.33.259-.45.622-.456 1.022-.016 2.043-.034 3.064-.037.428 0 .855.032 1.283.06.186.014.35.07.408.28.041.15.125.29.183.435.125.306.244.614.372.933-2.137-.003-4.258-.003-6.378-.003zm0 4.178c.022-.145.052-.274.055-.403.003-.14.064-.166.203-.166 1.879.008 3.758.01 5.637.013.358 0 .394.03.452.361 0 .005.003.008.003.013.025.156-.003.185-.17.185H5.969c-.045-.003-.086-.003-.147-.003z"/>
    </g>
    <defs>
        <clipPath id="96wp2dkbda">
            <path transform="matrix(-1 0 0 1 18 0)" d="M0 0h18v14.4H0z"/>
        </clipPath>
    </defs>
</svg>
