<svg width="21" height="21" viewBox="0 0 21 21" fill="none" xmlns="http://www.w3.org/2000/svg">
    <path d="M17.637 3.503C15.009.443 10.857-.396 8.878.168l-.144.048.24 1.848.168-.012c2.892-.228 4.883.911 6.035 1.907 1.608 1.38 2.627 3.36 2.771 5.411.156 2.076-.396 3.923-1.643 5.507-1.764 2.232-4.163 3.263-7.163 3.071l-.168-.012-.24 1.932.168.036c.42.072.864.12 1.32.12 2.807 0 6.203-1.452 8.218-4.595 2.364-3.731 2.04-8.626-.803-11.926zM4.535 18.44l2.34 1.104.671-1.944-1.92-.923-1.09 1.763zM7.546 2.4 6.863.444 4.535 1.596l1.092 1.727 1.92-.923zM2.531 7.21l-.155-.06c-.12-.047-.24-.083-.36-.131-.324-.12-.636-.24-.96-.336-.12-.036-.288.012-.396.072a.32.32 0 0 0-.156.18c-.132.48-.24.947-.36 1.463l-.108.444L0 9.034l2.04.24.491-2.063zM1.416 15.213l1.547 1.944 1.5-1.404-1.308-1.644-1.74 1.104zM2.376 12.85l.143-.06-.48-2.064-2.039.24.048.192c.036.168.072.324.108.48.12.492.228.96.348 1.415.024.108.132.18.204.216.06.024.144.072.24.072.024 0 .06 0 .084-.012.348-.108.684-.24 1.02-.36.108-.036.216-.084.324-.12zM4.391 4.32l-1.38-1.537L1.416 4.8l1.751 1.092 1.224-1.572z"/>
    <path d="M10.522 14.925h.072c.6-.036.744-.564.792-.732.192-.72.408-1.463.6-2.171l.971-3.444.096.252c.192.504.396 1.032.6 1.536.156.42.432.636.828.636h1.968c.48-.012.827-.336.827-.816.012-.48-.335-.84-.851-.852a11.54 11.54 0 0 0-1.116 0c-.204.012-.276-.036-.348-.24-.24-.672-.504-1.344-.756-2.003-.18-.456-.348-.9-.516-1.356-.06-.168-.264-.696-.888-.66-.6.036-.743.552-.791.72-.288 1.068-.6 2.147-.9 3.203l-.24.84c-.132.48-.276.96-.42 1.464l-.084.288c-.144-.312-.276-.636-.42-.948-.396-.888-.792-1.8-1.224-2.688-.12-.252-.444-.54-.732-.563-.264-.024-.504.18-.72.36l-.047.047a1.32 1.32 0 0 0-.348.504c-.384.888-.996 1.212-1.92 1.032a1.235 1.235 0 0 0-.204-.012h-.048c-.552.012-.888.348-.876.852.012.48.36.804.876.816h.348c.504.012 1.032.012 1.548-.024.288-.024.564-.216.72-.384.18-.192.311-.408.455-.636 0-.012.012-.012.012-.024a.733.733 0 0 1 .06.144l.432.972c.48 1.068.96 2.16 1.44 3.251.12.276.336.636.804.636z"/>
</svg>
