<svg width="16" height="16" viewBox="0 0 16 16" fill="none" xmlns="http://www.w3.org/2000/svg">
    <path d="M1.01 8.005c0-1.084-.01-2.168 0-3.252.02-2.13 1.616-3.736 3.745-3.746 2.14-.01 4.268-.01 6.407 0 2.159.01 3.755 1.528 3.805 3.686.04 2.198.049 4.406 0 6.604-.05 2.099-1.577 3.627-3.677 3.666-2.198.05-4.406.05-6.604 0-2.158-.05-3.676-1.646-3.686-3.804.01-1.055.01-2.11.01-3.154zm13.139-.01c0-1.054.01-2.1 0-3.154-.01-1.793-1.203-3.006-2.987-3.016-2.1-.02-4.209-.01-6.308 0-1.794.01-3.016 1.223-3.026 3.006-.02 2.1-.01 4.209 0 6.308.01 1.794 1.212 2.996 3.006 3.006 2.1.01 4.209.01 6.308 0 1.814-.01 2.987-1.183 3.007-2.986V7.995z" fill="#fff" stroke="#fff" stroke-width=".5" stroke-miterlimit="10"/>
    <path d="M7.298 5.935c.76 0 1.46.01 2.169-.01.108 0 .276-.148.315-.256.119-.325.138-.68.286-.986.07-.157.316-.355.473-.345.296.02.365.276.296.562-.079.335-.168.66-.266 1.045.266 0 .512-.06.71.02.157.059.335.256.354.413.02.099-.226.247-.355.365-.01.01-.03 0-.049 0-.296.04-.67-.02-.867.148-.188.158-.178.542-.257.828l-.325 1.34c-.01.03.01.07.02.158h1.31c.287 0 .543.069.543.414 0 .355-.256.414-.552.414h-.148c-.443.01-.995-.148-1.3.059-.287.197-.316.769-.444 1.173-.09.276-.267.483-.523.345-.148-.08-.256-.385-.246-.582.01-.315.138-.63.226-.995-.768 0-1.488-.01-2.207.01-.099 0-.237.148-.276.246-.109.325-.138.68-.276.986-.08.157-.316.236-.493.354-.099-.177-.276-.364-.266-.542.01-.335.138-.67.226-1.074-.236 0-.453.05-.62-.01-.188-.079-.326-.256-.484-.394.148-.138.276-.345.464-.414.276-.099.68.01.857-.158.188-.187.178-.571.256-.877.119-.453.227-.916.365-1.449h-1.41c-.285 0-.541-.108-.492-.394.03-.157.296-.355.483-.404.296-.069.63-.059.926-.01.592.099.838-.157.887-.71.02-.196.04-.413.148-.561.109-.158.326-.237.493-.355.099.177.276.365.266.542 0 .365-.128.71-.217 1.104zm2.218.818c-.779 0-1.478-.01-2.178.01-.099 0-.266.098-.286.187-.197.73-.375 1.469-.572 2.267.779 0 1.489.01 2.188-.01.109 0 .267-.128.296-.236.187-.71.355-1.42.552-2.218z" fill="#fff" stroke="#fff" stroke-width=".5" stroke-miterlimit="10"/>
</svg>
