<svg width="17" height="18" viewBox="0 0 17 18" fill="none" xmlns="http://www.w3.org/2000/svg">
    <g clip-path="url(#pqfswuif7a)">
        <path d="M6 1.067v1.066c0 .134.133.267.267.4l.4-.4V.933c.4-.266.666-.533.933-.8C7.867-.133 8.8 0 8.933.267c0 .133.134.266.134.266.8.134.666.667.666 1.2V2l.4.4c.134-.133.267-.267.267-.4v-.933c.8.666 1.333 1.6 1.6 2.666 0 .267.133.534.4.667.267.267.267.533 0 .667-.4.4-.8.533-1.2.666-2 .534-4 .534-6.133 0-.4-.133-.8-.266-1.067-.533-.267-.267-.4-.533 0-.8.133-.133.267-.4.267-.533.133-1.067.666-2 1.733-2.8zM12.133 7.2c-.133.4-.266.933-.4 1.2-.4.8-.8 1.467-1.2 2.133C9.2 12.4 6.8 12.267 5.6 10.267c-.267-.534-.667-1.067-.933-1.734C4.4 8 4.4 7.333 4.267 6.8c0-.267.133-.533.533-.4 2.133.533 4.133.533 6.267.133.8-.266.933-.133 1.066.667zM13.467 17.733c-2.134.134-4.267.134-6.4.134-1.067 0-2.267-.134-3.334-.267-.4 0-.666-.133-.533-.667V15.6h10.4c-.133.8-.133 1.333-.133 2.133z"/>
        <path d="M4.667 14.533v-3.2c0-.133.133-.4.266-.4.134 0 .4 0 .534.134.666.666 1.2 1.066 2 1.333 1.333.267 2.266-.267 3.2-1.2.133-.133.4-.267.666-.267.4 0 .4.267.4.667v2.933H4.667zM3.467 11.733v2.8c-.4.134-.934.134-1.2.4-.267.267-.4.667-.4 1.067-.134.4 0 .933 0 1.467-.534-.134-1.067-.4-1.6-.534-.134 0-.267-.266-.267-.4.133-2 .933-4.133 3.467-4.8zM14.667 17.333C14.4 14.8 14.4 14.8 12.8 14.533v-2.8c1.733.4 3.067 1.867 3.333 3.867.267 1.333.267 1.467-1.2 1.733h-.266z"/>
    </g>
    <defs>
        <clipPath id="pqfswuif7a">
            <path fill="#fff" d="M0 0h16.267v18H0z"/>
        </clipPath>
    </defs>
</svg>
