<svg width="25" height="24" viewBox="0 0 25 24" fill="none" xmlns="http://www.w3.org/2000/svg">
    <path fill-rule="evenodd" clip-rule="evenodd" d="M6.605 9.438c-.807.982-1.685 1.904-2.545 2.841-.453.493-.886.462-1.214-.13-.617-1.113-1.24-2.225-1.788-3.373 0 0-.25-.536.284-.786.534-.249.776.211.776.211.342.425.54.969.895 1.649C4.53 3.69 9.579.708 14.46 1.022c4.867.314 9.039 3.985 9.944 8.813.96 5.121-1.536 10.075-6.19 12.208-4.242 1.943-9.42.828-12.282-2.444l.83-.777c4.24 4 9.418 3.507 12.726 1.005a9.792 9.792 0 0 0 3.116-11.662c-1.727-4.084-6.217-6.569-10.408-5.817-4.812.863-7.537 4.904-7.8 7.665.478-.515.855-1.014 1.329-1.389 0 0 .452-.5.977-.119.525.382-.098.933-.098.933z" fill="#469073" stroke="#469073" stroke-width=".6"/>
    <path d="M20.262 12.969h-7.395v-7.33c0-.33.264-.597.59-.597.326 0 .59.267.59.596v6.138h6.215c.325 0 .59.267.59.596 0 .33-.265.597-.59.597z" fill="#469073" stroke="#469073" stroke-width=".7"/>
</svg>
