<svg width="20" height="19" viewBox="0 0 20 19" fill="none" xmlns="http://www.w3.org/2000/svg">
    <g clip-path="url(#f4hpw8arma)">
        <path d="M4.419 10.282h1.24a.668.668 0 0 0 .659-.677.668.668 0 0 0-.66-.678h-1.24a.668.668 0 0 0-.658.678c0 .374.294.677.659.677zM4.419 12.833h1.24a.668.668 0 0 0 .659-.678.668.668 0 0 0-.66-.677h-1.24a.668.668 0 0 0-.658.677c0 .375.294.678.659.678zM4.419 15.383h1.24a.668.668 0 0 0 .659-.677.668.668 0 0 0-.66-.678h-1.24a.668.668 0 0 0-.658.678c0 .374.294.677.659.677zM9.38 10.282h1.24a.668.668 0 0 0 .66-.677.668.668 0 0 0-.66-.678H9.38a.668.668 0 0 0-.66.678c0 .374.295.677.66.677zM9.38 12.833h1.24a.668.668 0 0 0 .66-.678.668.668 0 0 0-.66-.677H9.38a.668.668 0 0 0-.66.677c0 .375.295.678.66.678zM9.38 15.383h1.24a.668.668 0 0 0 .66-.677.668.668 0 0 0-.66-.678H9.38a.668.668 0 0 0-.66.678c0 .374.295.677.66.677zM14.341 10.282h1.24a.668.668 0 0 0 .66-.677.668.668 0 0 0-.66-.678h-1.24a.668.668 0 0 0-.659.678c0 .374.295.677.66.677zM14.341 12.833h1.24a.668.668 0 0 0 .66-.678.668.668 0 0 0-.66-.677h-1.24a.668.668 0 0 0-.659.677c0 .375.295.678.66.678zM14.341 15.383h1.24a.668.668 0 0 0 .66-.677.668.668 0 0 0-.66-.678h-1.24a.668.668 0 0 0-.659.678c0 .374.295.677.66.677z"/>
        <path d="M18.178 1.594H16.86V.677A.668.668 0 0 0 16.202 0a.668.668 0 0 0-.66.677v.917H10.66V.677A.668.668 0 0 0 10 0a.668.668 0 0 0-.659.677v.917H4.457V.677A.668.668 0 0 0 3.798 0a.668.668 0 0 0-.658.677v.917H1.822C.818 1.594 0 2.435 0 3.467v13.231c0 1.032.818 1.873 1.822 1.873h16.356c1.004 0 1.822-.84 1.822-1.873V3.468c0-1.033-.818-1.874-1.822-1.874zm-16.86 5.5h17.364v9.604a.51.51 0 0 1-.504.518H1.822a.51.51 0 0 1-.504-.518V7.094zm2.48-2.55a.668.668 0 0 0 .66-.678v-.917H9.34v.917c0 .374.295.677.659.677a.668.668 0 0 0 .659-.677v-.917h4.884v.917c0 .374.294.677.659.677a.668.668 0 0 0 .658-.677v-.917h1.318a.51.51 0 0 1 .504.518V5.74H1.318V3.467a.51.51 0 0 1 .504-.518H3.14v.917c0 .374.294.677.658.677z"/>
    </g>
    <defs>
        <clipPath id="f4hpw8arma">
            <path d="M0 0h20v18.571H0z"/>
        </clipPath>
    </defs>
</svg>
