<svg width="44" height="44" viewBox="0 0 44 44" fill="none" xmlns="http://www.w3.org/2000/svg">
<g clip-path="url(#clip0_2506_8020)">
<path d="M28.538 11.5055C31.6828 11.1868 33.8345 12.9396 33.8345 15.8077C33.8345 21.0659 33.8345 26.3242 33.8345 31.5824C33.8345 32.0604 33.8345 32.5385 33.8345 33.1758C33.669 35.0879 31.8483 36.6813 29.6966 36.6813C24.7311 36.6813 19.6 36.6813 14.6345 36.6813C12.1517 36.6813 10.3311 34.9286 10.3311 32.5385C10.3311 26.8022 10.3311 21.0659 10.3311 15.489C10.3311 12.7802 12.8138 10.8681 15.6276 11.5055C15.6276 11.9835 15.6276 12.4615 15.6276 12.7802C15.6276 12.9396 15.2966 13.0989 15.2966 13.0989C12.8138 13.4176 12.3173 13.8956 12.3173 16.2857C12.3173 21.3846 12.3173 26.4835 12.3173 31.5824C12.3173 31.9011 12.3173 32.2198 12.3173 32.5385C12.4828 33.9725 13.3104 34.9286 14.8 34.9286C17.2828 34.9286 19.7655 34.9286 22.0828 34.9286C24.5655 34.9286 26.8828 34.9286 29.3655 34.9286C31.1862 34.9286 32.1793 33.9725 32.1793 32.2198C32.1793 26.8022 32.1793 21.544 32.1793 16.1264C32.1793 13.8956 31.5173 13.2582 29.2 13.0989C28.869 13.0989 28.7035 12.9396 28.7035 12.6209C28.538 12.3022 28.538 11.8242 28.538 11.5055Z" fill="white"/>
<path d="M22.0827 13.5769C20.4275 13.5769 18.9378 13.5769 17.2827 13.5769C16.6206 13.5769 16.4551 13.4176 16.4551 12.7802V12.6209C16.4551 10.8681 16.4551 10.8681 18.1103 10.7088C18.9378 10.7088 19.4344 10.2308 19.9309 9.43406C20.593 8.31867 21.5861 7.84065 22.9103 8.31867C23.2413 8.47801 23.7378 8.79669 23.9034 9.11538C24.5654 10.2308 25.5585 10.8681 26.8827 10.8681C27.3792 10.8681 27.5447 11.0275 27.5447 11.5055C27.5447 13.8956 27.7103 13.5769 25.5585 13.5769C24.8965 13.5769 24.3999 13.5769 23.7378 13.5769C23.2413 13.5769 22.5792 13.5769 22.0827 13.5769Z" fill="white"/>
<path d="M15.7932 20.4286L17.4484 22.022L20.2622 19.3132" stroke="white" stroke-width="1.3" stroke-miterlimit="10" stroke-linecap="round" stroke-linejoin="round"/>
<path d="M23.5725 20.5879H28.8691" stroke="white" stroke-width="1.3" stroke-miterlimit="10" stroke-linecap="round" stroke-linejoin="round"/>
<path d="M15.7932 27.5989L17.4484 29.1923L20.2622 26.4835" stroke="white" stroke-width="1.3" stroke-miterlimit="10" stroke-linecap="round" stroke-linejoin="round"/>
<path d="M23.5725 28.2363H28.8691" stroke="white" stroke-width="1.3" stroke-miterlimit="10" stroke-linecap="round" stroke-linejoin="round"/>
</g>
<defs>
<clipPath id="clip0_2506_8020">
<rect width="24" height="29" fill="white" transform="translate(10 8)"/>
</clipPath>
</defs>
</svg>
