<svg xmlns="http://www.w3.org/2000/svg" width="44" height="44" fill="none" viewBox="0 0 44 44">
    <path stroke="#61697C" stroke-linecap="round" stroke-linejoin="round" stroke-miterlimit="10" stroke-width="1.5" d="M32.943 25.134c0 1.345-1.088 2.434-2.43 2.434h-1.526L28.938 33l-5.079-5.432H13.43c-1.341 0-2.429-1.09-2.429-2.434v-9.702C11 14.089 12.088 13 13.43 13h17.08c1.342 0 2.43 1.09 2.43 2.432v9.702h.003z"/>
    <path fill="#61697C" stroke="#61697C" stroke-miterlimit="10" stroke-width=".4" d="M18.25 20.176c0 .927-.755 1.682-1.68 1.682-.927 0-1.681-.752-1.681-1.682 0-.93.751-1.682 1.68-1.682.924 0 1.68.752 1.68 1.682zM23.652 19.98c0 .927-.752 1.681-1.68 1.681-.927 0-1.681-.752-1.681-1.682 0-.927.751-1.682 1.68-1.682.927 0 1.68.755 1.68 1.682zM29.054 19.98c0 .927-.752 1.681-1.68 1.681-.927 0-1.681-.752-1.681-1.682 0-.927.754-1.682 1.68-1.682.93 0 1.68.755 1.68 1.682z"/>
</svg>
