<svg width="44" height="44" viewBox="0 0 44 44" fill="none" xmlns="http://www.w3.org/2000/svg">
<g clip-path="url(#clip0_2743_8804)">
<path d="M10.6953 19.7927C12.3567 19.7927 13.7034 18.4264 13.7034 16.7409C13.7034 15.0554 12.3567 13.6891 10.6953 13.6891C9.03402 13.6891 7.68726 15.0554 7.68726 16.7409C7.68726 18.4264 9.03402 19.7927 10.6953 19.7927Z" stroke="#61697C" stroke-width="1.4" stroke-miterlimit="10"/>
<path d="M16.6146 21.9586C16.0324 20.6788 14.771 19.8912 13.3155 19.8912H8.4637C6.42596 19.8912 4.77637 21.5648 4.77637 23.6322V27.57C4.77637 27.57 10.5014 27.57 14.1888 27.57" stroke="#61697C" stroke-width="1.4" stroke-miterlimit="10"/>
<path d="M21.7575 21.3678C23.8476 21.3678 25.5419 19.6489 25.5419 17.5285C25.5419 15.408 23.8476 13.6891 21.7575 13.6891C19.6675 13.6891 17.9731 15.408 17.9731 17.5285C17.9731 19.6489 19.6675 21.3678 21.7575 21.3678Z" stroke="#61697C" stroke-width="1.4" stroke-miterlimit="10"/>
<path d="M29.8112 31.3109V26.2901C29.8112 23.6321 27.6765 21.4663 25.0565 21.4663H18.8463C16.2263 21.4663 14.0916 23.6321 14.0916 26.2901V31.3109C14.1886 31.3109 29.8112 31.3109 29.8112 31.3109Z" stroke="#61697C" stroke-width="1.4" stroke-miterlimit="10"/>
<path d="M32.9165 19.7927C34.5779 19.7927 35.9246 18.4264 35.9246 16.7409C35.9246 15.0554 34.5779 13.6891 32.9165 13.6891C31.2552 13.6891 29.9084 15.0554 29.9084 16.7409C29.9084 18.4264 31.2552 19.7927 32.9165 19.7927Z" stroke="#61697C" stroke-width="1.4" stroke-miterlimit="10"/>
<path d="M29.8114 27.57C33.4987 27.57 39.3208 27.57 39.3208 27.57V23.6322C39.3208 21.5648 37.6712 19.8912 35.6335 19.8912H30.7817C29.3262 19.8912 27.9677 20.7772 27.3855 22.057" stroke="#61697C" stroke-width="1.4" stroke-miterlimit="10"/>
<path d="M21.6603 21.8601L19.4285 26.0933L21.6603 28.3575L23.9891 26.0933L21.6603 21.8601Z" stroke="#61697C" stroke-width="1.4" stroke-miterlimit="10" stroke-linecap="round" stroke-linejoin="round"/>
</g>
<defs>
<clipPath id="clip0_2743_8804">
<rect width="36" height="19" fill="white" transform="translate(4 13)"/>
</clipPath>
</defs>
</svg>
