<svg width="44" height="44" viewBox="0 0 44 44" fill="none" xmlns="http://www.w3.org/2000/svg">
<g clip-path="url(#clip0_1394_6452)">
<path d="M21.6031 25.0386C21.6053 25.0347 21.6076 25.0311 21.6097 25.0273C21.5879 25.0207 21.5669 25.0144 21.5448 25.008C21.3022 24.8842 21.0347 24.8022 20.7512 24.7736C20.6962 24.757 20.641 24.7404 20.5865 24.7237C20.2277 24.613 19.8538 24.5313 19.5164 24.3733C18.8517 24.0622 18.7741 23.7227 19.0699 23.0566C19.1136 22.9583 19.1571 22.8595 19.2004 22.7608C19.2048 22.7515 19.2097 22.7421 19.2146 22.733C19.4896 22.2287 19.6895 21.7023 19.8001 21.1564C19.8033 21.1447 19.8071 21.133 19.8103 21.1209C20.0012 20.4187 20.0256 19.684 19.7398 18.9835C19.3716 18.0823 18.5933 17.6126 17.521 17.6194C17.5138 17.6192 17.5066 17.6188 17.4992 17.6188C17.4922 17.6188 17.485 17.619 17.4773 17.6194C16.4053 17.613 15.6267 18.0823 15.2587 18.9835C14.9727 19.6842 14.9975 20.4187 15.1883 21.1209C15.1919 21.1328 15.1953 21.1447 15.1987 21.1564C15.3092 21.7023 15.5089 22.2287 15.7839 22.733C15.7888 22.7421 15.7933 22.7512 15.7979 22.7608C15.8415 22.8595 15.8847 22.9583 15.9282 23.0566C16.2243 23.7227 16.1466 24.0622 15.4822 24.3733C15.1448 24.5313 14.7707 24.613 14.4116 24.7237C14.3348 24.7474 14.2572 24.771 14.1797 24.7942C13.9546 24.8438 13.7362 24.9216 13.5739 24.9916L13.4158 25.0725C12.7512 25.4645 12.3047 26.1873 12.3047 27.015V28.002H22.7732V27.015C22.7743 26.1631 22.3011 25.4214 21.6031 25.0386Z" fill="white"/>
<path d="M9.71931 18.963H9.27856V14.789C9.27856 13.7101 10.1524 12.8357 11.2304 12.8357H20.2405C21.3185 12.8357 22.1925 13.7103 22.1925 14.789L12.389 14.8478C12.389 14.8478 8.96408 14.7221 9.71931 18.963Z" fill="white"/>
<path d="M33.9549 29.0134C33.9549 30.3033 32.9098 31.3491 31.6207 31.3491H12.2912C11.0021 31.3491 9.95703 30.3033 9.95703 29.0134V17.3162C9.95703 16.0262 11.0021 14.9805 12.2912 14.9805H31.6209C32.91 14.9805 33.9551 16.0262 33.9551 17.3162V29.0134H33.9549Z" stroke="white" stroke-width="1.5" stroke-miterlimit="10"/>
<path d="M25.1829 19.3025H30.959" stroke="white" stroke-width="1.5" stroke-miterlimit="10" stroke-linecap="round" stroke-linejoin="round"/>
<path d="M25.1829 23.2308H30.959" stroke="white" stroke-width="1.5" stroke-miterlimit="10" stroke-linecap="round" stroke-linejoin="round"/>
<path d="M25.1829 27.1591H30.959" stroke="white" stroke-width="1.5" stroke-miterlimit="10" stroke-linecap="round" stroke-linejoin="round"/>
</g>
<defs>
<clipPath id="clip0_1394_6452">
<rect width="26" height="20.4286" fill="white" transform="translate(9 12)"/>
</clipPath>
</defs>
</svg>
