<svg xmlns="http://www.w3.org/2000/svg" width="44" height="44" fill="none" viewBox="0 0 44 44">
    <path fill="#fff" d="M28.305 31.644h-14.61c-1.09 0-1.976-.887-1.976-1.978v-10.41c0-.38.308-.689.688-.689.38 0 .687.308.687.689v10.41c0 .332.27.602.602.602h14.609c.332 0 .601-.27.601-.602v-10.41c0-.38.308-.689.688-.689.38 0 .687.308.687.689v10.41c0 1.09-.886 1.978-1.976 1.978z"/>
    <path fill="#fff" d="M31.313 21.664c-.176 0-.352-.067-.486-.201l-8.55-8.56c-.704-.704-1.85-.704-2.553 0l-8.55 8.56c-.269.268-.704.268-.973 0-.268-.27-.268-.705 0-.974l8.55-8.558c1.24-1.241 3.258-1.241 4.497 0l8.55 8.559c.27.269.27.704 0 .973-.133.134-.31.201-.485.201zM23.75 31.644h-5.5c-.38 0-.687-.308-.687-.688v-6.108c0-1.186.963-2.15 2.148-2.15h2.578c1.185 0 2.149.964 2.149 2.15v6.108c0 .38-.308.688-.688.688zm-4.812-1.376h4.125v-5.42c0-.427-.348-.774-.774-.774h-2.578c-.426 0-.773.347-.773.774v5.42z"/>
</svg>
