<svg width="44" height="44" viewBox="0 0 44 44" fill="none" xmlns="http://www.w3.org/2000/svg">
<g clip-path="url(#clip0_1863_7374)">
<path d="M26.883 22C30.2395 21.9877 32.9938 24.6721 33.0063 27.9693C33.0126 31.3034 30.3023 33.9755 26.883 34C23.5516 34.0245 20.7534 31.3156 20.7409 28.0429C20.7158 24.7027 23.4575 22.0122 26.883 22ZM25.7976 29.6363C25.6784 29.4647 25.5969 29.3115 25.4777 29.1951C24.9256 28.6374 24.3609 28.0919 23.7963 27.5403C23.4449 27.1971 22.9618 27.1603 22.6482 27.4545C22.3156 27.7671 22.3282 28.2451 22.6858 28.6006C23.5328 29.4341 24.386 30.2676 25.2393 31.095C25.6533 31.4995 26.0862 31.4933 26.5066 31.0827C28.0186 29.6057 29.5306 28.1287 31.0426 26.6517C31.4253 26.2778 31.4629 25.8365 31.1367 25.5117C30.8042 25.1746 30.3274 25.1992 29.9384 25.573C29.38 26.1123 28.8279 26.6578 28.2758 27.1971C27.479 27.9755 26.6822 28.7599 25.7976 29.6363Z" fill="#61697C"/>
<path d="M22.1589 34C21.5503 34 20.9292 34 20.3081 34C17.6919 34 15.0819 34 12.4657 33.9877C12.1269 33.9877 11.7756 33.9448 11.4494 33.8468C10.5648 33.5894 10.0127 32.811 10.0064 31.8243C9.99383 30.2002 10.0001 28.5761 10.0001 26.9459C10.0001 22.5945 10.0001 18.2492 10.0001 13.8979C10.0001 13.6282 10.0064 13.3463 10.0566 13.0827C10.2511 12.0899 10.9475 11.4586 11.9826 11.3973C12.8422 11.3483 13.7017 11.3667 14.5612 11.379C14.9188 11.3851 15.1823 11.7589 15.1823 12.2063C15.1823 12.6537 14.9 13.0031 14.4985 13.0092C13.9401 13.0215 13.3817 13.0092 12.8233 13.0215C12.0015 13.0337 11.6815 13.334 11.6815 14.1308C11.6752 17.4219 11.6752 20.7068 11.6752 23.998C11.6752 26.3698 11.6752 28.7477 11.6752 31.1195C11.6752 32.2166 11.9387 32.4801 13.0618 32.4801C15.5148 32.4801 17.9679 32.4862 20.4147 32.4801C20.6406 32.4801 20.7849 32.5475 20.9292 32.7191C21.3244 33.1481 21.7385 33.5587 22.1589 34Z" fill="#61697C"/>
<path d="M17.5098 14.5598C17.5098 14.094 17.5098 13.6772 17.5098 13.2605C17.5098 12.8069 17.5036 12.3595 17.5098 11.906C17.5287 10.9377 18.1623 10.141 19.1473 10.0674C20.2139 9.98161 21.2993 9.98774 22.3595 10.0735C23.2818 10.1471 23.928 10.9561 23.9468 11.857C23.9594 12.6108 23.9531 13.3708 23.9531 14.1246C23.9531 14.2594 23.9531 14.3881 23.9531 14.5659C24.6934 14.5659 25.3898 14.5904 26.0799 14.5598C27.2343 14.5046 27.6296 15.7242 27.2155 16.4535C26.9834 16.858 26.6446 17.0603 26.1615 17.0603C23.8841 17.0541 21.6067 17.0603 19.323 17.0603C17.9992 17.0603 16.6754 17.0603 15.3579 17.0603C14.7556 17.0603 14.3729 16.8151 14.1784 16.3064C13.9776 15.7855 14.0969 15.1481 14.5297 14.8417C14.7556 14.6823 15.0756 14.5965 15.3579 14.5781C16.0606 14.5352 16.757 14.5598 17.5098 14.5598ZM20.7409 13.665C21.4436 13.665 22.0145 13.1072 22.0082 12.4208C22.0019 11.7344 21.431 11.189 20.7283 11.1951C20.0257 11.2012 19.4547 11.7528 19.461 12.4392C19.4673 13.1195 20.0382 13.665 20.7409 13.665Z" fill="#61697C"/>
<path d="M31.4567 21.9448C30.9422 21.669 30.4529 21.4116 29.976 21.1358C29.9008 21.0929 29.8631 20.9458 29.8631 20.8416C29.8506 19.9407 29.8568 19.0337 29.8568 18.1328C29.8568 16.8212 29.8568 15.5097 29.8568 14.192C29.8568 14.0756 29.8506 13.9591 29.838 13.8488C29.7878 13.3033 29.5306 13.0459 28.9722 13.0337C28.3511 13.0153 27.7237 13.0214 27.1026 13.0214C26.6321 13.0214 26.2996 12.6843 26.2996 12.2247C26.2996 11.7283 26.6195 11.3789 27.0901 11.3789C27.8304 11.3728 28.577 11.3667 29.3173 11.3851C30.5658 11.4157 31.4253 12.194 31.4567 13.4137C31.5006 15.1236 31.4755 16.8396 31.4818 18.5495C31.4818 19.5791 31.4818 20.6088 31.4755 21.6384C31.4692 21.7303 31.4567 21.8284 31.4567 21.9448Z" fill="#61697C"/>
<path d="M25.7789 20.5169C24.6119 20.762 23.514 21.1481 22.5541 21.8284C22.14 22.1226 21.7699 22.4842 21.3683 22.7967C21.2491 22.8887 21.0735 22.9806 20.9229 22.9806C19.0407 22.9929 17.1586 22.9929 15.2827 22.9867C14.5863 22.9867 14.0969 22.478 14.0906 21.7671C14.0844 21.0378 14.5675 20.5169 15.2764 20.5107C18.7019 20.5046 22.1337 20.5046 25.5593 20.5046C25.6346 20.4985 25.7098 20.5107 25.7789 20.5169Z" fill="#61697C"/>
<path d="M19.1222 28.1042C18.545 28.1042 17.9302 28.1042 17.3216 28.1042C16.6127 28.1042 15.9037 28.1103 15.1948 28.1042C14.5611 28.098 14.1094 27.6016 14.0843 26.9091C14.0655 26.2533 14.5235 25.6466 15.1195 25.6404C16.5876 25.6159 18.0619 25.6343 19.5237 25.6343C19.392 26.4494 19.2602 27.2462 19.1222 28.1042Z" fill="#61697C"/>
</g>
<defs>
<clipPath id="clip0_1863_7374">
<rect width="23" height="24" fill="white" transform="translate(10 10)"/>
</clipPath>
</defs>
</svg>
