<svg xmlns="http://www.w3.org/2000/svg" width="44" height="44" fill="none" viewBox="0 0 44 44">
    <path fill="#61697C" stroke="#61697C" stroke-miterlimit="10" d="M17.673 18.225c-3.685 0-6.673 3.097-6.673 6.916 0 3.82 2.988 6.917 6.673 6.917 3.686 0 6.674-3.097 6.674-6.916-.001-3.82-2.99-6.917-6.674-6.917zm0 13.488c-3.496 0-6.33-2.941-6.33-6.57 0-3.63 2.834-6.571 6.33-6.571 3.497 0 6.33 2.942 6.33 6.57 0 3.629-2.834 6.571-6.33 6.571z"/>
    <path fill="#61697C" stroke="#61697C" stroke-miterlimit="10" d="M17.673 23.759c-.85 0-1.54.697-1.54 1.555 0 .861.69 1.557 1.54 1.557.85 0 1.54-.697 1.54-1.557 0-.859-.69-1.555-1.54-1.555zm0 2.765c-.66 0-1.198-.542-1.198-1.21 0-.668.537-1.21 1.198-1.21.662 0 1.198.543 1.198 1.21 0 .668-.537 1.21-1.198 1.21zM17.673 23.066c.284 0 .513-.232.513-.518 0-.287-.23-.519-.513-.519-.283 0-.513.232-.513.519 0 .286.23.518.513.518zM17.673 28.254c.284 0 .513-.232.513-.518 0-.287-.23-.519-.513-.519-.283 0-.513.232-.513.519 0 .286.23.518.513.518zM20.41 25.833c.283 0 .513-.232.513-.518 0-.287-.23-.519-.513-.519-.284 0-.513.233-.513.519 0 .286.23.518.513.518zM15.278 25.833c.283 0 .513-.232.513-.518 0-.287-.23-.519-.513-.519-.284 0-.513.233-.513.519 0 .286.23.518.513.518zM30.163 12c-1.702 0-3.08 1.394-3.08 3.113 0 1.72 1.378 3.113 3.08 3.113 1.7 0 3.08-1.393 3.08-3.113S31.863 12 30.163 12zm0 5.879c-1.512 0-2.738-1.24-2.738-2.767 0-1.528 1.226-2.767 2.738-2.767s2.738 1.239 2.738 2.767c0 1.528-1.226 2.767-2.738 2.767z"/>
    <path fill="#61697C" d="M14.98 19.01l13.666-6.388L14.98 19.01z"/>
    <path stroke="#61697C" stroke-miterlimit="10" d="M14.98 19.01l13.666-6.388"/>
    <path fill="#61697C" stroke="#61697C" stroke-miterlimit="10" d="M14.779 18.92l.143.313 13.784-6.477-.143-.314L14.78 18.92z"/>
    <path fill="#61697C" d="M22.332 29.824l9.482-12.287-9.482 12.287z"/>
    <path stroke="#61697C" stroke-miterlimit="10" d="M22.332 29.824l9.482-12.287"/>
    <path fill="#61697C" stroke="#61697C" stroke-miterlimit="10" d="M22.67 29.193l.27.212 9.579-12.292-.27-.213-9.579 12.293zM17.673 20.572c-2.407 0-4.36 2.046-4.36 4.57 0 2.523 1.952 4.567 4.36 4.567 2.408 0 4.36-2.044 4.36-4.568 0-2.523-1.953-4.569-4.36-4.569zm0 8.813c-2.229 0-4.036-1.9-4.036-4.244s1.808-4.242 4.036-4.242c2.23 0 4.036 1.898 4.036 4.242 0 2.344-1.807 4.244-4.036 4.244z"/>
</svg>
