<svg xmlns="http://www.w3.org/2000/svg" width="44" height="44" fill="none" viewBox="0 0 44 44">
    <path fill="#fff" stroke="#fff" stroke-width=".4" d="M29.354 9H14.892c-.767 0-1.502.308-2.044.855-.542.547-.847 1.288-.848 2.061v17.499c0 .383.074.762.22 1.116.145.354.358.676.626.947.269.27.588.485.939.632.351.146.727.221 1.107.221h.413v1.25c0 .083.024.164.069.233.045.069.11.123.186.154.076.032.16.04.24.024.081-.017.155-.057.213-.117l1.36-1.372 1.36 1.372c.059.06.132.1.213.117.08.016.164.008.24-.023.076-.032.141-.086.187-.155.045-.07.07-.15.069-.233v-4.583h9.916v.833h-9.095v.834h9.09v.833h-9.09v.833h9.09c.22 0 .43-.088.584-.244.155-.157.242-.368.243-.59V9.834c0-.22-.088-.432-.243-.588-.154-.157-.364-.245-.583-.245zm-16.528 2.916c0-.552.218-1.081.606-1.472.387-.39.912-.61 1.46-.61h14.46v16.665h-14.46c-.385 0-.766.077-1.12.228-.356.151-.677.372-.946.65v-15.46zm.041 17.082h2.439v.833h-2.438c-.056-.275-.056-.558 0-.833h0zm2.025 2.497c-.321 0-.637-.076-.924-.22-.287-.145-.536-.355-.73-.613h2.068v.833h-.414zm3.718 1.078l-.947-.956c-.038-.038-.084-.069-.134-.09-.05-.02-.104-.032-.158-.032-.054 0-.108.011-.158.032s-.096.052-.134.09l-.948.956v-3.575h2.477l.002 3.575zm-5.37-4.41c.193-.259.442-.469.73-.613.286-.145.602-.22.923-.22h14.46v.833H13.242z"/>
    <path fill="#fff" stroke="#fff" stroke-width=".4" d="M14.48 10.667h.825v14.998h-.826V10.667zM17.784 16.5h9.09c.054 0 .108-.011.158-.032.05-.02.095-.052.134-.09.038-.039.069-.085.09-.135.02-.05.031-.105.031-.16v-2.497c0-.055-.01-.11-.03-.16-.021-.051-.052-.098-.09-.137-.039-.039-.084-.07-.135-.09-.05-.022-.104-.033-.159-.033h-9.089c-.11 0-.214.044-.292.122-.077.079-.12.184-.12.295v2.497c-.001.055.01.11.03.16.02.051.05.098.09.137.037.039.083.07.133.09.05.022.105.033.16.033zm.413-2.498h8.264v1.667h-8.263v-1.667z"/>
</svg>
