<svg xmlns="http://www.w3.org/2000/svg" width="44" height="44" fill="none" viewBox="0 0 44 44">
    <g stroke="#E6E6E6" stroke-width="1.4" clip-path="url(#clip0)">
        <path d="M11.549 12.91h19.878c.825 0 1.48.665 1.48 1.502v14.596c0 .837-.655 1.501-1.48 1.501H11.55c-.826 0-1.481-.664-1.481-1.501V14.412c0-.812.68-1.501 1.48-1.501z"/>
        <path stroke-linecap="round" stroke-linejoin="round" d="M12.35 30.485l6.723-7.434 7.063 7.434"/>
        <path stroke-linecap="round" stroke-linejoin="round" d="M22.422 26.694l4.296-6.867 6.165 6.867M19.097 18.276c0 1.083-.85 1.945-1.893 1.945-1.044 0-1.893-.862-1.893-1.945 0-1.083.85-1.944 1.893-1.944 1.044.024 1.893.886 1.893 1.944z"/>
    </g>
    <defs>
        <clipPath id="clip0">
            <path fill="#fff" d="M0 0H25V19.444H0z" transform="translate(9 12)"/>
        </clipPath>
    </defs>
</svg>
