<svg width="44" height="44" viewBox="0 0 44 44" fill="none" xmlns="http://www.w3.org/2000/svg">
<g clip-path="url(#clip0_1601_6698)">
<path d="M11.5485 12.9107H31.4271C32.2523 12.9107 32.9077 13.5753 32.9077 14.4121V29.0078C32.9077 29.8446 32.2523 30.5092 31.4271 30.5092H11.5485C10.7232 30.5092 10.0679 29.8446 10.0679 29.0078V14.4121C10.0679 13.5999 10.7475 12.9107 11.5485 12.9107Z" stroke="#315188" stroke-width="1.4"/>
<path d="M12.3496 30.4845L19.0729 23.0513L26.136 30.4845" stroke="#315188" stroke-width="1.4" stroke-linecap="round" stroke-linejoin="round"/>
<path d="M22.4224 26.6941L26.7185 19.827L32.8835 26.6941" stroke="#315188" stroke-width="1.4" stroke-linecap="round" stroke-linejoin="round"/>
<path d="M19.0972 18.2764C19.0972 19.3593 18.2477 20.2208 17.204 20.2208C16.1603 20.2208 15.3108 19.3593 15.3108 18.2764C15.3108 17.1934 16.1603 16.3319 17.204 16.3319C18.2477 16.3565 19.0972 17.218 19.0972 18.2764Z" stroke="#315188" stroke-width="1.4" stroke-linecap="round" stroke-linejoin="round"/>
</g>
<defs>
<clipPath id="clip0_1601_6698">
<rect width="25" height="19.4444" fill="white" transform="translate(9 12)"/>
</clipPath>
</defs>
</svg>
