<svg width="44" height="44" viewBox="0 0 44 44" fill="none" xmlns="http://www.w3.org/2000/svg">
<path d="M32.9223 25.8449C34.3851 23.8129 34.3535 21.0929 32.8591 19.0846C32.0526 17.9776 30.9852 17.0762 29.7596 16.4358C30.4 18.452 30.155 20.6422 29.0875 22.4766C28.3601 23.718 27.3638 24.7933 26.1699 25.6314C24.9522 26.4854 23.6002 27.1337 22.1611 27.5528C20.6351 28.0035 19.0537 28.2249 17.4644 28.2249C17.164 28.2249 16.7133 28.2012 16.1282 28.1616C18.263 29.4979 20.7616 30.1858 23.2997 30.1225C24.1932 30.1225 25.0867 30.0435 25.9722 29.8853C27.6089 31.0397 29.5066 31.7751 31.507 32.0281C31.6256 32.036 31.7442 32.0044 31.8391 31.9253C31.9419 31.8462 32.013 31.7276 32.0368 31.6011C32.0368 31.5458 32.0368 31.5062 32.0526 31.5062C32.0684 31.5062 32.0684 31.4746 32.0447 31.4113L32.0131 31.3244L31.9735 31.2532C31.9577 31.2216 31.9419 31.1979 31.9182 31.1741C31.9024 31.1504 31.8786 31.1267 31.8549 31.103L31.7837 31.0318L31.7205 30.9607C31.6731 30.8974 31.5545 30.7788 31.3726 30.589C31.1908 30.3993 31.0563 30.2569 30.9773 30.1542C30.8982 30.0514 30.7796 29.9011 30.6373 29.7193C30.495 29.5374 30.3684 29.3476 30.2577 29.15C30.1549 28.9523 30.0442 28.7309 29.9493 28.4937C31.1354 27.8216 32.1554 26.9282 32.9223 25.8449Z" fill="#315188"/>
<path d="M27.7039 18.8631C27.7039 22.6505 23.2918 25.7263 17.8519 25.7263C16.8398 25.7263 15.8673 25.6235 14.9501 25.4258C14.2543 25.2756 9.12276 28.1774 9.12276 28.1774C9.12276 28.1774 11.6529 24.224 11.0757 23.8445C9.17809 22.5952 8 20.824 8 18.8631C8 15.0758 12.412 12 17.8519 12C23.2918 12 27.7039 15.0679 27.7039 18.8631Z" stroke="#315188" stroke-width="1.3" stroke-miterlimit="10" stroke-linecap="round" stroke-linejoin="round"/>
</svg>
