<svg width="44" height="44" viewBox="0 0 44 44" fill="none" xmlns="http://www.w3.org/2000/svg">
<path d="M17.3057 26.7656C17.3057 26.4668 17.2588 26.2031 17.165 25.9746C17.0771 25.7402 16.9189 25.5293 16.6904 25.3418C16.4678 25.1543 16.1572 24.9756 15.7588 24.8057C15.3662 24.6357 14.8682 24.4629 14.2646 24.2871C13.6318 24.0996 13.0605 23.8916 12.5508 23.6631C12.041 23.4287 11.6045 23.1621 11.2412 22.8633C10.8779 22.5645 10.5996 22.2217 10.4062 21.835C10.2129 21.4482 10.1162 21.0059 10.1162 20.5078C10.1162 20.0098 10.2188 19.5498 10.4238 19.1279C10.6289 18.7061 10.9219 18.3398 11.3027 18.0293C11.6895 17.7129 12.1494 17.4668 12.6826 17.291C13.2158 17.1152 13.8105 17.0273 14.4668 17.0273C15.4277 17.0273 16.2422 17.2119 16.9102 17.5811C17.584 17.9443 18.0967 18.4219 18.4482 19.0137C18.7998 19.5996 18.9756 20.2266 18.9756 20.8945H17.2881C17.2881 20.4141 17.1855 19.9893 16.9805 19.6201C16.7754 19.2451 16.4648 18.9521 16.0488 18.7412C15.6328 18.5244 15.1055 18.416 14.4668 18.416C13.8633 18.416 13.3652 18.5068 12.9727 18.6885C12.5801 18.8701 12.2871 19.1162 12.0938 19.4268C11.9062 19.7373 11.8125 20.0918 11.8125 20.4902C11.8125 20.7598 11.8682 21.0059 11.9795 21.2285C12.0967 21.4453 12.2754 21.6475 12.5156 21.835C12.7617 22.0225 13.0723 22.1953 13.4473 22.3535C13.8281 22.5117 14.2822 22.6641 14.8096 22.8105C15.5361 23.0156 16.1631 23.2441 16.6904 23.4961C17.2178 23.748 17.6514 24.0322 17.9912 24.3486C18.3369 24.6592 18.5918 25.0137 18.7559 25.4121C18.9258 25.8047 19.0107 26.25 19.0107 26.748C19.0107 27.2695 18.9053 27.7412 18.6943 28.1631C18.4834 28.585 18.1816 28.9453 17.7891 29.2441C17.3965 29.543 16.9248 29.7744 16.374 29.9385C15.8291 30.0967 15.2197 30.1758 14.5459 30.1758C13.9541 30.1758 13.3711 30.0938 12.7969 29.9297C12.2285 29.7656 11.71 29.5195 11.2412 29.1914C10.7783 28.8633 10.4062 28.459 10.125 27.9785C9.84961 27.4922 9.71191 26.9297 9.71191 26.291H11.3994C11.3994 26.7305 11.4844 27.1084 11.6543 27.4248C11.8242 27.7354 12.0557 27.9932 12.3486 28.1982C12.6475 28.4033 12.9844 28.5557 13.3594 28.6553C13.7402 28.749 14.1357 28.7959 14.5459 28.7959C15.1377 28.7959 15.6387 28.7139 16.0488 28.5498C16.459 28.3857 16.7695 28.1514 16.9805 27.8467C17.1973 27.542 17.3057 27.1816 17.3057 26.7656ZM22.0022 17.2031V30H20.3059V17.2031H22.0022ZM28.6587 24.0146H25.4155L25.3979 22.6523H28.3423C28.8286 22.6523 29.2534 22.5703 29.6167 22.4062C29.98 22.2422 30.2612 22.0078 30.4604 21.7031C30.6655 21.3926 30.768 21.0234 30.768 20.5957C30.768 20.127 30.6772 19.7461 30.4956 19.4531C30.3198 19.1543 30.0473 18.9375 29.6782 18.8027C29.3149 18.6621 28.852 18.5918 28.2895 18.5918H25.7934V30H24.0971V17.2031H28.2895C28.9458 17.2031 29.5317 17.2705 30.0473 17.4053C30.563 17.5342 30.9995 17.7393 31.3569 18.0205C31.7202 18.2959 31.9956 18.6475 32.1831 19.0752C32.3706 19.5029 32.4643 20.0156 32.4643 20.6133C32.4643 21.1406 32.3296 21.6182 32.06 22.0459C31.7905 22.4678 31.4155 22.8135 30.935 23.083C30.4604 23.3525 29.9038 23.5254 29.2651 23.6016L28.6587 24.0146ZM28.5796 30H24.7475L25.7055 28.6201H28.5796C29.1186 28.6201 29.5757 28.5264 29.9507 28.3389C30.3315 28.1514 30.6216 27.8877 30.8208 27.5479C31.02 27.2021 31.1196 26.7949 31.1196 26.3262C31.1196 25.8516 31.0346 25.4414 30.8647 25.0957C30.6948 24.75 30.4282 24.4834 30.0649 24.2959C29.7016 24.1084 29.2329 24.0146 28.6587 24.0146H26.2417L26.2593 22.6523H29.5639L29.9243 23.1445C30.5395 23.1973 31.061 23.373 31.4888 23.6719C31.9165 23.9648 32.2417 24.3398 32.4643 24.7969C32.6929 25.2539 32.8071 25.7578 32.8071 26.3086C32.8071 27.1055 32.6313 27.7793 32.2798 28.3301C31.9341 28.875 31.4448 29.291 30.812 29.5781C30.1792 29.8594 29.435 30 28.5796 30Z" fill="#315188"/>
</svg>
