<svg width="44" height="44" viewBox="0 0 44 44" fill="none" xmlns="http://www.w3.org/2000/svg">
<g clip-path="url(#clip0_1609_6731)">
<path d="M21.4318 11C21.4832 11 21.5368 11 21.5882 11C21.7602 11.0787 21.9323 11.1597 22.1043 11.2362C23.6636 11.9405 25.223 12.6492 26.7868 13.3422C27.0236 13.448 27.1108 13.583 27.1108 13.844C27.1018 15.9432 27.1063 18.0425 27.1041 20.1417C27.1041 20.207 27.113 20.2497 27.1778 20.2835C28.6947 21.071 30.2094 21.8607 31.7263 22.646C31.8514 22.7112 31.9475 22.7877 31.9966 22.9227C31.9966 25.202 31.9966 27.4835 31.9966 29.7627C31.9564 29.8797 31.8894 29.9675 31.7799 30.0327C30.1312 31.0362 28.4825 32.042 26.836 33.0477C26.769 33.0477 26.7019 33.0477 26.6349 33.0477C26.4741 32.951 26.3132 32.852 26.1501 32.7575C24.631 31.889 23.1118 31.0205 21.5927 30.152C21.5413 30.1227 21.5011 30.0957 21.4341 30.1362C19.8479 31.1082 18.2595 32.078 16.6711 33.0477C16.6041 33.0477 16.537 33.0477 16.47 33.0477C16.4008 33.005 16.336 32.96 16.2645 32.9195C14.5979 31.9655 12.9291 31.0115 11.2602 30.0597C11.1351 29.9877 11.0368 29.9045 10.9944 29.7627C10.9944 27.4835 10.9944 25.202 10.9944 22.9227C11.0413 22.7832 11.1374 22.6932 11.2781 22.646C11.3161 22.6325 11.3518 22.6122 11.3898 22.5942C12.9872 21.827 14.5823 21.0575 16.1796 20.2925C16.26 20.2542 16.2913 20.2115 16.2913 20.117C16.2891 18.0582 16.2891 15.9995 16.2891 13.943C16.2891 13.5335 16.2533 13.511 16.68 13.3062C18.2684 12.5435 19.8479 11.7695 21.4318 11ZM26.4607 14.2197C26.4182 14.2355 26.3892 14.2467 26.3601 14.2602C24.879 14.9577 23.3978 15.6552 21.9144 16.3482C21.8362 16.3842 21.8273 16.4315 21.8273 16.5035C21.8295 18.4452 21.8273 20.387 21.8295 22.3287C21.8295 22.367 21.834 22.4075 21.8362 22.457C21.8742 22.4412 21.8965 22.4322 21.9189 22.421C23.4045 21.7055 24.8901 20.9877 26.378 20.2767C26.4562 20.2385 26.4629 20.1912 26.4629 20.1192C26.4629 18.1932 26.4629 16.265 26.4629 14.339C26.4607 14.3052 26.4607 14.267 26.4607 14.2197ZM16.2466 32.1545C16.2489 32.1162 16.2511 32.0915 16.2511 32.0667C16.2511 30.1137 16.2511 28.1607 16.2533 26.2077C16.2533 26.138 16.231 26.102 16.1707 26.0682C15.5675 25.733 14.9687 25.3955 14.3678 25.058C14.3432 25.0445 14.3164 25.0332 14.2762 25.0152C14.2762 25.0692 14.2762 25.1097 14.2762 25.148C14.2762 25.5417 14.2762 25.9355 14.2762 26.3292C14.2762 26.4755 14.2293 26.5947 14.0952 26.6645C13.8741 26.777 13.635 26.6195 13.635 26.3585C13.6328 25.823 13.6328 25.2852 13.635 24.7497C13.635 24.671 13.6104 24.6305 13.5434 24.5922C12.9447 24.2592 12.3482 23.924 11.7495 23.5887C11.7227 23.573 11.6914 23.5617 11.6512 23.5415C11.6512 23.5842 11.6512 23.6135 11.6512 23.6427C11.6512 25.5732 11.6512 27.5037 11.649 29.4342C11.649 29.5197 11.6869 29.5512 11.7495 29.585C13.215 30.422 14.6783 31.259 16.1439 32.096C16.1729 32.1185 16.2042 32.1342 16.2466 32.1545ZM21.834 23.5437C21.8317 23.5887 21.8295 23.6157 21.8295 23.6405C21.8295 25.5755 21.8295 27.5105 21.8273 29.4432C21.8273 29.5197 21.8563 29.5535 21.9189 29.5895C23.3822 30.4242 24.8432 31.259 26.3043 32.096C26.3378 32.1162 26.3735 32.132 26.416 32.1567C26.4182 32.1095 26.4204 32.078 26.4204 32.0487C26.4204 30.1025 26.4204 28.1562 26.4227 26.2122C26.4227 26.138 26.3981 26.0997 26.3356 26.0637C25.7368 25.7307 25.1403 25.3955 24.5416 25.0602C24.5148 25.0445 24.4835 25.0332 24.4456 25.0152C24.4456 25.4562 24.4478 25.8837 24.4433 26.3112C24.4433 26.381 24.4322 26.4552 24.4053 26.5182C24.3473 26.6555 24.1953 26.7275 24.0546 26.6937C23.896 26.6577 23.7999 26.534 23.7999 26.3585C23.7977 25.8185 23.7977 25.2785 23.7999 24.7385C23.7999 24.6687 23.7798 24.6327 23.7195 24.599C23.438 24.446 23.1587 24.2885 22.8795 24.131C22.5377 23.9397 22.1959 23.7462 21.834 23.5437ZM31.3487 23.564C31.3085 23.5842 31.2862 23.5932 31.2639 23.6067C29.8877 24.428 28.5137 25.2492 27.1376 26.0682C27.075 26.1065 27.0639 26.1492 27.0639 26.2145C27.0661 28.1562 27.0639 30.098 27.0661 32.0397C27.0661 32.0712 27.0706 32.1005 27.075 32.141C27.1063 32.1252 27.1264 32.1162 27.1443 32.105C28.5182 31.268 29.8922 30.4287 31.2683 29.594C31.3376 29.5512 31.351 29.504 31.351 29.4297C31.3487 27.515 31.351 25.598 31.351 23.6832C31.3487 23.6495 31.3487 23.6157 31.3487 23.564ZM21.1704 23.5662C21.1302 23.5887 21.1079 23.5977 21.0856 23.6112C19.7139 24.4302 18.3422 25.2492 16.9682 26.066C16.9057 26.1042 16.8967 26.147 16.8967 26.21C16.899 28.1517 16.8967 30.0935 16.899 32.0352C16.899 32.0667 16.9034 32.0982 16.9057 32.141C16.9436 32.1207 16.9682 32.1072 16.9928 32.0915C18.3511 31.2635 19.7094 30.4355 21.0677 29.6097C21.1436 29.5647 21.1727 29.5175 21.1727 29.4252C21.1704 27.5172 21.1704 25.6092 21.1704 23.7012C21.1704 23.663 21.1704 23.6225 21.1704 23.5662ZM21.1839 22.4502C21.1839 22.403 21.1839 22.3782 21.1839 22.3512C21.1839 20.3937 21.1839 18.4362 21.1861 16.481C21.1861 16.4022 21.1526 16.3707 21.0923 16.3392C20.5583 16.0692 20.0222 15.797 19.4882 15.527C19.4569 15.5112 19.4234 15.4977 19.3787 15.4797C19.3787 15.5247 19.3787 15.5585 19.3787 15.59C19.3787 15.9432 19.381 16.2942 19.3765 16.6475C19.3743 16.8072 19.2581 16.9332 19.1062 16.9602C18.9677 16.9827 18.8135 16.9017 18.7644 16.7645C18.742 16.7037 18.7353 16.6317 18.7353 16.5665C18.7331 16.1277 18.7331 15.689 18.7353 15.2502C18.7353 15.1715 18.713 15.131 18.6415 15.095C18.1031 14.825 17.5647 14.5505 17.0263 14.2782C17.0017 14.2647 16.9727 14.2557 16.9392 14.24C16.9369 14.2827 16.9347 14.3142 16.9347 14.348C16.9347 16.2785 16.9347 18.209 16.9325 20.1395C16.9325 20.2182 16.9593 20.2565 17.0263 20.2925C18.0584 20.8257 19.0906 21.3635 20.1227 21.899C20.4712 22.079 20.8175 22.259 21.1839 22.4502ZM24.803 24.4595C24.8209 24.473 24.8276 24.4797 24.8387 24.4865C25.4531 24.8307 26.0652 25.1772 26.6818 25.517C26.7153 25.535 26.7824 25.5282 26.8181 25.5057C28.1496 24.7137 29.4811 23.9195 30.8103 23.123C30.8707 23.087 30.931 23.051 30.998 23.0082C30.9578 22.9857 30.931 22.9677 30.9019 22.952C30.3702 22.6752 29.8385 22.4007 29.3091 22.1195C29.2398 22.0835 29.1862 22.079 29.1169 22.1195C27.7877 22.8417 26.4584 23.5595 25.1292 24.2795C25.0219 24.338 24.9147 24.3965 24.803 24.4595ZM14.6247 24.4617C15.2547 24.815 15.8668 25.157 16.4745 25.5012C16.546 25.5417 16.5951 25.5372 16.6644 25.4967C18.0316 24.68 19.3966 23.8655 20.7616 23.0487C20.7817 23.0375 20.7996 23.0195 20.8219 23.0015C20.2411 22.6977 19.6669 22.3985 19.0906 22.1037C19.0548 22.0857 18.99 22.0992 18.9498 22.1195C17.6675 22.8102 16.3896 23.5032 15.1095 24.1962C14.9553 24.2817 14.799 24.3672 14.6247 24.4617ZM18.3399 21.7145C18.293 21.6875 18.2662 21.6717 18.2372 21.656C17.7233 21.3882 17.2073 21.1227 16.6957 20.8505C16.6286 20.8145 16.5773 20.8167 16.5125 20.8482C15.3106 21.4287 14.1064 22.007 12.9023 22.5875C12.6185 22.7247 12.3348 22.8597 12.0399 23.0037C12.0868 23.033 12.1203 23.0555 12.1561 23.0757C12.7235 23.3952 13.2932 23.7102 13.8607 24.032C13.9366 24.0747 13.9902 24.0702 14.064 24.032C14.933 23.5572 15.8043 23.087 16.6756 22.6167C17.2229 22.3197 17.7725 22.0227 18.3399 21.7145ZM28.5093 21.7122C28.4579 21.683 28.4244 21.6627 28.3886 21.6447C27.8904 21.386 27.39 21.1295 26.8941 20.864C26.8069 20.8167 26.7422 20.8235 26.6595 20.864C25.4486 21.449 24.2378 22.0317 23.0269 22.6145C22.7611 22.7427 22.4952 22.8732 22.216 23.0082C22.2495 23.0307 22.2674 23.0465 22.2897 23.06C22.8773 23.3907 23.467 23.717 24.0524 24.05C24.1149 24.086 24.1618 24.0702 24.2154 24.041C25.4486 23.3727 26.6841 22.7045 27.9173 22.0362C28.1116 21.9305 28.3037 21.8247 28.5093 21.7122ZM19.7764 14.9442C20.3483 15.2345 20.9001 15.5157 21.4519 15.7902C21.4922 15.8105 21.5614 15.7992 21.6039 15.7767C22.6114 15.3042 23.6167 14.8295 24.6243 14.357C25.0778 14.1432 25.5335 13.9295 26.0049 13.709C25.9513 13.6842 25.9111 13.664 25.8709 13.646C25.2744 13.376 24.6757 13.1105 24.0814 12.8382C24.0054 12.8022 23.9474 12.8067 23.8759 12.8427C22.6717 13.4615 21.4631 14.078 20.259 14.6945C20.1026 14.7755 19.9484 14.8565 19.7764 14.9442ZM17.3413 13.709C17.8953 13.9902 18.4293 14.2602 18.9632 14.5347C19.0347 14.5707 19.0861 14.5707 19.1576 14.5347C20.4779 13.8552 21.8004 13.1802 23.123 12.503C23.1498 12.4895 23.1766 12.4715 23.2124 12.449C22.6539 12.197 22.1087 11.9495 21.5614 11.7087C21.5234 11.693 21.4609 11.7087 21.4184 11.729C20.4332 12.206 19.4502 12.6852 18.4673 13.1622C18.0986 13.3422 17.73 13.52 17.3413 13.709Z" fill="#315188" stroke="#315188" stroke-width="0.7"/>
</g>
<defs>
<clipPath id="clip0_1609_6731">
<rect width="21" height="22.05" fill="white" transform="translate(11 11)"/>
</clipPath>
</defs>
</svg>
