<svg width="44" height="44" viewBox="0 0 44 44" fill="none" xmlns="http://www.w3.org/2000/svg">
<g clip-path="url(#clip0_2612_8707)">
<path d="M21.6707 8C21.9341 8 22.0659 8 22.3293 8C22.5928 8 22.7246 8 22.988 8.13084C24.0419 8.39252 25.0958 8.78505 25.7545 9.70093C25.7545 9.83178 25.8862 9.83178 25.8862 9.83178C26.5449 9.83178 27.3353 9.83178 27.994 9.83178H28.1257C28.1257 10.486 28.1257 11.0093 28.1257 11.5327C28.2575 11.5327 28.2575 11.5327 28.2575 11.5327C29.0479 11.5327 28.521 11.5327 29.3114 11.5327C29.5748 11.5327 29.9701 11.5327 30.2335 11.6636C31.6826 12.0561 32.8683 13.3645 32.8683 14.9346C32.8683 15.8505 32.8683 16.7664 32.8683 17.8131C32.8683 19.2523 32.8683 20.8224 32.8683 22.2617C32.8683 23.9626 32.8683 25.5327 32.8683 27.2336C32.8683 28.6729 32.8683 30.243 32.8683 31.6822C32.8683 32.2056 32.8683 32.5981 32.8683 33.1215C32.7365 33.9065 32.4731 34.5607 31.9461 35.0841C31.2874 35.7383 30.497 36.2617 29.4431 36.2617C23.515 36.2617 20.2216 36.2617 14.2934 36.2617C14.0299 36.2617 13.8982 36.2617 13.6347 36.2617C12.1856 35.6075 11 34.1682 11 32.4673C11 30.6355 11 28.8037 11 26.972C11 23.1776 11 19.2523 11 15.4579C11 15.0654 11 14.8037 11.1317 14.4112C11.2635 13.4953 11.6587 12.8411 12.3174 12.3178C12.8443 11.7944 13.6347 11.5327 14.2934 11.5327C15.2156 11.5327 14.6886 11.5327 15.6108 11.5327H15.7425C15.7425 10.8785 15.7425 10.3551 15.7425 9.83178H15.8743C16.5329 9.83178 17.3234 9.83178 17.982 9.83178C18.1138 9.83178 18.1138 9.83178 18.1138 9.70093C18.7725 8.91589 19.6946 8.39252 20.7485 8.13084C21.1437 8 21.4072 8 21.6707 8ZM15.8743 16.7664C15.8743 15.5888 15.8743 14.4112 15.8743 13.2336H15.7425C14.9521 13.2336 15.479 13.2336 14.5569 13.2336C14.4251 13.2336 14.4251 13.2336 14.2934 13.2336C13.3713 13.3645 12.7126 14.1495 12.7126 15.0654C12.7126 20.8224 12.7126 26.5794 12.7126 32.3364C12.7126 32.4673 12.7126 32.5981 12.7126 32.729C12.8443 33.6449 13.6347 34.1682 14.4251 34.1682C16.5329 34.1682 17.3234 34.1682 19.4311 34.1682C21.5389 34.1682 23.7784 34.1682 25.8862 34.1682C27.4671 34.1682 27.7305 34.1682 29.3114 34.1682C29.5748 34.1682 29.9701 34.0374 30.2335 33.9065C30.8922 33.514 31.1557 32.9907 31.1557 32.2056C31.1557 26.4486 31.1557 20.6916 31.1557 14.9346C31.1557 14.8037 31.1557 14.6729 31.1557 14.5421C31.1557 13.8879 30.3653 13.2336 29.5748 13.2336C28.7844 13.2336 29.1796 13.2336 28.3892 13.2336H28.2575C28.2575 14.4112 28.2575 15.5888 28.2575 16.7664C24.0419 16.7664 19.9581 16.7664 15.8743 16.7664ZM24.4371 11.5327C24.4371 10.8785 24.0419 10.486 23.515 10.2243C22.7245 9.70093 21.8024 9.70093 20.8802 9.96262C20.3533 10.0935 19.8263 10.3551 19.5629 10.8785C19.6946 11.0093 19.5629 11.271 19.5629 11.5327C18.9042 11.5327 18.2455 11.5327 17.7186 11.5327C17.7186 12.7103 17.7186 13.8879 17.7186 15.0654C20.6168 15.0654 23.515 15.0654 26.5449 15.0654C26.5449 13.8879 26.5449 12.7103 26.5449 11.5327C25.7545 11.5327 25.0958 11.5327 24.4371 11.5327Z" fill="#315188"/>
<path d="M22.0659 24.6168C24.1737 24.6168 26.1498 24.6168 28.2575 24.6168C28.7845 24.6168 29.1797 25.0093 29.1797 25.5327C29.1797 26.0561 28.7845 26.4486 28.2575 26.4486C24.1737 26.4486 20.0899 26.4486 16.006 26.4486C15.3474 26.3178 14.9521 25.9252 14.9521 25.5327C14.9521 25.0093 15.3474 24.6168 15.8743 24.6168C17.8504 24.6168 19.9581 24.6168 22.0659 24.6168Z" fill="#315188"/>
<path d="M22.0659 30.7663C19.9581 30.7663 17.9821 30.7663 15.8743 30.7663C15.3474 30.7663 14.9521 30.3738 14.9521 29.8505C14.9521 29.3271 15.3474 28.9346 15.8743 28.9346C19.9581 28.9346 24.042 28.9346 28.1258 28.9346C28.6527 28.9346 28.9162 29.3271 29.048 29.7196C29.048 30.1121 28.7845 30.5047 28.3893 30.6355H28.2575C26.1498 30.7663 24.042 30.7663 22.0659 30.7663Z" fill="#315188"/>
<path d="M22.0659 20.2991C24.0419 20.2991 26.1497 20.2991 28.1258 20.2991C28.6527 20.2991 28.9162 20.5607 29.0479 20.9533C29.1797 21.4766 28.7844 22 28.2575 22C27.994 22 27.7306 22 27.3353 22C23.515 22 19.6946 22 15.8743 22C15.4791 22 15.2156 21.7383 15.0838 21.4766C14.9521 21.0841 14.9521 20.6916 15.2156 20.4299C15.3473 20.2991 15.6108 20.1682 15.7425 20.1682C17.8503 20.2991 19.9581 20.2991 22.0659 20.2991Z" fill="#315188"/>
</g>
<defs>
<clipPath id="clip0_2612_8707">
<rect width="22" height="28" fill="white" transform="translate(11 8)"/>
</clipPath>
</defs>
</svg>
