<svg width="44" height="44" viewBox="0 0 44 44" fill="none" xmlns="http://www.w3.org/2000/svg">
<path d="M17.6731 18.2249C13.9875 18.2249 11 21.3221 11 25.1415C11 28.9609 13.9875 32.058 17.6731 32.058C21.3588 32.058 24.3469 28.9609 24.3469 25.1415C24.346 21.3221 21.3579 18.2249 17.6731 18.2249ZM17.6731 31.713C14.1773 31.713 11.3425 28.7718 11.3425 25.1424C11.3425 21.513 14.1773 18.5718 17.6731 18.5718C21.1699 18.5718 24.0038 21.5139 24.0038 25.1424C24.0028 28.7709 21.169 31.713 17.6731 31.713Z" fill="#315188" stroke="#315188" stroke-miterlimit="10"/>
<path d="M17.6731 23.7587C16.8232 23.7587 16.1331 24.4561 16.1331 25.3142C16.1331 26.175 16.8232 26.8706 17.6731 26.8706C18.5239 26.8706 19.2131 26.174 19.2131 25.3142C19.2131 24.4552 18.523 23.7587 17.6731 23.7587ZM17.6731 26.5237C17.0121 26.5237 16.4754 25.9822 16.4754 25.3142C16.4754 24.6461 17.0121 24.1047 17.6731 24.1047C18.335 24.1047 18.8709 24.647 18.8709 25.3142C18.8709 25.9822 18.3341 26.5237 17.6731 26.5237Z" fill="#315188" stroke="#315188" stroke-miterlimit="10"/>
<path d="M17.6731 23.0661C17.9565 23.0661 18.1861 22.834 18.1861 22.5477C18.1861 22.2613 17.9565 22.0291 17.6731 22.0291C17.3898 22.0291 17.1602 22.2613 17.1602 22.5477C17.1602 22.834 17.3898 23.0661 17.6731 23.0661Z" fill="#315188" stroke="#315188" stroke-miterlimit="10"/>
<path d="M17.6731 28.254C17.9565 28.254 18.1861 28.022 18.1861 27.7356C18.1861 27.4492 17.9565 27.217 17.6731 27.217C17.3898 27.217 17.1602 27.4492 17.1602 27.7356C17.1602 28.022 17.3898 28.254 17.6731 28.254Z" fill="#315188" stroke="#315188" stroke-miterlimit="10"/>
<path d="M20.4099 25.8334C20.6933 25.8334 20.9229 25.6012 20.9229 25.3149C20.9229 25.0285 20.6933 24.7964 20.4099 24.7964C20.1266 24.7964 19.897 25.0285 19.897 25.3149C19.897 25.6012 20.1266 25.8334 20.4099 25.8334Z" fill="#315188" stroke="#315188" stroke-miterlimit="10"/>
<path d="M15.2779 25.8334C15.5612 25.8334 15.7908 25.6012 15.7908 25.3149C15.7908 25.0285 15.5612 24.7964 15.2779 24.7964C14.9945 24.7964 14.7646 25.0285 14.7646 25.3149C14.7646 25.6012 14.9945 25.8334 15.2779 25.8334Z" fill="#315188" stroke="#315188" stroke-miterlimit="10"/>
<path d="M30.1629 12C28.4612 12 27.083 13.3939 27.083 15.1127C27.083 16.8325 28.4612 18.2255 30.1629 18.2255C31.8636 18.2255 33.2429 16.8325 33.2429 15.1127C33.2429 13.3939 31.8636 12 30.1629 12ZM30.1629 17.8787C28.651 17.8787 27.4253 16.6398 27.4253 15.1118C27.4253 13.5839 28.651 12.345 30.1629 12.345C31.6747 12.345 32.9007 13.5839 32.9007 15.1118C32.9007 16.6398 31.6747 17.8787 30.1629 17.8787Z" fill="#315188" stroke="#315188" stroke-miterlimit="10"/>
<path d="M14.98 19.01L28.6457 12.622L14.98 19.01Z" fill="#315188"/>
<path d="M14.98 19.01L28.6457 12.622" stroke="#315188" stroke-miterlimit="10"/>
<path d="M14.7791 18.9196L14.9217 19.2331L28.7059 12.7558L28.5632 12.4424L14.7791 18.9196Z" fill="#315188" stroke="#315188" stroke-miterlimit="10"/>
<path d="M22.332 29.8244L31.8137 17.5366L22.332 29.8244Z" fill="#315188"/>
<path d="M22.332 29.8244L31.8137 17.5366" stroke="#315188" stroke-miterlimit="10"/>
<path d="M22.6704 29.1926L22.9401 29.4055L32.5187 17.1132L32.249 16.9003L22.6704 29.1926Z" fill="#315188" stroke="#315188" stroke-miterlimit="10"/>
<path d="M17.6732 20.572C15.266 20.572 13.3137 22.6175 13.3137 25.1412C13.3137 27.6648 15.2651 29.7094 17.6732 29.7094C20.0812 29.7094 22.0326 27.6648 22.0326 25.1412C22.0326 22.6175 20.0803 20.572 17.6732 20.572ZM17.6732 29.3845C15.444 29.3845 13.6369 27.4849 13.6369 25.1412C13.6369 22.7965 15.4449 20.8988 17.6732 20.8988C19.9023 20.8988 21.7094 22.7965 21.7094 25.1412C21.7094 27.4849 19.9023 29.3845 17.6732 29.3845Z" fill="#315188" stroke="#315188" stroke-miterlimit="10"/>
</svg>
