<svg width="44" height="44" viewBox="0 0 44 44" fill="none" xmlns="http://www.w3.org/2000/svg">
<path d="M14.004 35.1457C11.7788 34.2556 11 32.698 11 30.4728C11.1113 25.6887 11 20.9046 11 16.1205C11 13.5616 12.8914 11.8927 15.4503 12.2265C15.4503 12.6715 15.4503 13.1166 15.4503 13.5616C15.3391 13.5616 15.1166 13.5616 15.0053 13.6728C13.4477 13.8954 12.6689 14.6742 12.6689 16.343C12.6689 19.5695 12.6689 22.796 12.6689 26.1338C12.6689 27.8026 12.6689 29.3603 12.6689 31.0291C12.6689 32.698 13.5589 33.6993 15.2278 33.6993C19.4556 33.6993 23.5722 33.6993 27.8 33.6993C29.4689 33.6993 30.3589 32.8093 30.3589 31.0291C30.3589 26.245 30.3589 21.5722 30.3589 16.7881C30.3589 14.4517 29.8026 13.8954 27.4662 13.5616C27.4662 13.1166 27.4662 12.7828 27.4662 12.3377C29.4689 11.6702 31.9166 13.4503 31.9166 15.7868C32.0278 21.1272 32.0278 26.3563 31.9166 31.6967C31.9166 33.3656 30.804 34.4781 29.2464 35.257L14.004 35.1457ZM26.4649 12.6715C26.4649 14.3404 26.5762 14.1179 25.1298 14.1179C22.5709 14.1179 20.1232 14.1179 17.5642 14.1179C16.7854 14.1179 16.5629 13.8954 16.5629 13.1166C16.5629 11.8927 16.5629 11.8927 17.7868 11.7815C18.2318 11.7815 18.6768 11.4477 19.0106 11.2252C19.4556 10.7801 19.9007 10.1126 20.3457 9.44503C20.3457 9.44503 20.457 9.11126 21.2358 9.11126C22.0146 9.11126 21.7921 9 21.7921 9C21.7921 9 22.4596 9 22.5709 9.33377C23.5722 10.4464 24.0172 11.7815 25.9086 11.7815C25.9086 11.7815 26.4649 11.8927 26.4649 12.6715ZM22.5709 11.4477C22.4596 10.6689 22.1258 10.3351 21.347 10.4464C20.7907 10.5576 20.457 10.7801 20.457 11.4477C21.2358 11.4477 21.7921 11.4477 22.5709 11.4477Z" fill="#315188"/>
<path d="M20.6792 17.5669C20.568 17.4556 20.3455 17.4556 20.2342 17.4556C19.9004 17.4556 19.6779 17.4556 19.3441 17.4556C19.2329 17.4556 19.1216 17.4556 18.8991 17.5669C18.7878 17.6781 18.7878 17.9007 18.7878 17.9007C18.7878 18.2344 18.7878 18.5682 18.7878 18.7907V19.2358V20.1258C18.7878 21.0159 18.7878 21.7947 18.7878 22.6848C18.7878 22.796 18.7878 23.0185 18.8991 23.1298C19.0104 23.2411 19.1216 23.2411 19.2329 23.2411C19.2329 23.2411 19.2329 23.2411 19.3441 23.2411C19.5666 23.2411 19.9004 23.2411 20.1229 23.2411C20.2342 23.2411 20.3455 23.2411 20.568 23.1298C20.6792 23.0185 20.6792 22.796 20.6792 22.6848C20.6792 22.1285 20.6792 21.5722 20.6792 21.0159V20.3483V19.6808C20.6792 19.1245 20.6792 18.5682 20.6792 17.9007C20.7905 17.9007 20.7905 17.6781 20.6792 17.5669Z" fill="#315188"/>
<path d="M27.4661 20.3483V19.6808C27.4661 19.1245 27.4661 18.5682 27.4661 17.9007C27.4661 17.7894 27.4661 17.5669 27.3548 17.4556C27.2436 17.3444 27.0211 17.3444 26.9098 17.3444C26.576 17.3444 26.3535 17.3444 26.0197 17.3444C25.9085 17.3444 25.686 17.3444 25.686 17.4556C25.5747 17.5669 25.5747 17.7894 25.5747 17.7894C25.5747 19.4583 25.5747 21.0159 25.5747 22.6848C25.5747 22.796 25.5747 23.0185 25.686 23.0185C25.7972 23.1298 26.0197 23.1298 26.0197 23.1298C26.3535 23.1298 26.576 23.1298 26.9098 23.1298C27.0211 23.1298 27.1323 23.1298 27.2436 23.0185C27.3548 22.9073 27.3548 22.6848 27.3548 22.5735C27.3548 22.0172 27.3548 21.4609 27.3548 20.7934L27.4661 20.3483Z" fill="#315188"/>
<path d="M24.1285 21.2384V20.7934C24.1285 20.4596 24.1285 20.0146 24.1285 19.6808C24.1285 19.5696 24.1285 19.4583 24.0172 19.347C23.9059 19.2358 23.7947 19.2358 23.6834 19.2358C23.3496 19.2358 23.0159 19.2358 22.6821 19.2358C22.5708 19.2358 22.4596 19.2358 22.3483 19.347C22.2371 19.4583 22.2371 19.5696 22.2371 19.6808C22.2371 20.7934 22.2371 21.7947 22.2371 22.796C22.2371 22.9073 22.2371 23.1298 22.3483 23.1298C22.4596 23.2411 22.6821 23.2411 22.6821 23.2411C23.0159 23.2411 23.3496 23.2411 23.5722 23.2411C23.6834 23.2411 23.7947 23.2411 23.9059 23.1298C24.0172 23.0186 24.0172 22.796 24.0172 22.6848C24.0172 22.351 24.0172 22.0172 24.0172 21.6835L24.1285 21.2384Z" fill="#315188"/>
<path d="M17.5642 21.3496V20.9046C17.5642 20.5708 17.5642 20.2371 17.5642 19.9033C17.5642 19.792 17.5642 19.6808 17.4529 19.4583C17.3417 19.4583 17.2304 19.4583 17.0079 19.4583C16.6741 19.4583 16.3403 19.4583 16.0066 19.4583C15.8953 19.4583 15.784 19.4583 15.6728 19.5695C15.5615 19.6808 15.5615 19.792 15.5615 19.9033C15.5615 20.7934 15.5615 21.7947 15.5615 22.6847C15.5615 22.796 15.5615 23.0185 15.6728 23.1298C15.784 23.241 16.0066 23.241 16.1178 23.241C16.4516 23.241 16.7854 23.241 17.0079 23.241C17.1191 23.241 17.2304 23.241 17.3417 23.1298C17.4529 23.0185 17.4529 22.796 17.4529 22.6847C17.4529 22.351 17.4529 22.0172 17.4529 21.6834L17.5642 21.3496Z" fill="#315188"/>
<path d="M26.6875 27.1351H16.4517C16.118 27.1351 15.7842 26.8013 15.7842 26.4675V26.3563C15.7842 26.0225 16.118 25.6887 16.4517 25.6887H26.6875C27.0213 25.6887 27.355 26.0225 27.355 26.3563V26.4675C27.355 26.8013 27.0213 27.1351 26.6875 27.1351Z" fill="#315188"/>
<path d="M26.6875 30.8066H16.4517C16.118 30.8066 15.7842 30.4728 15.7842 30.139V30.0278C15.7842 29.694 16.118 29.3602 16.4517 29.3602H26.6875C27.0213 29.3602 27.355 29.694 27.355 30.0278V30.139C27.355 30.4728 27.0213 30.8066 26.6875 30.8066Z" fill="#315188"/>
</svg>
