<svg width="44" height="44" viewBox="0 0 44 44" fill="none" xmlns="http://www.w3.org/2000/svg">
<path d="M30.7243 18.8601C30.8066 18.7763 30.8889 18.6925 30.9713 18.6087C31.2182 18.3573 31.4651 18.2735 31.7943 18.2735C32.2058 18.2735 32.6173 18.2735 33.0289 18.2735C33.4404 18.2735 33.7696 18.5249 33.8519 18.9439C33.9342 19.3629 33.6873 19.698 33.1935 19.8656C32.6996 20.0332 32.2058 20.117 31.6297 20.2846C31.7943 20.4522 31.8766 20.6198 32.0412 20.7874C33.1112 21.7929 33.4404 22.966 33.4404 24.3906C33.3581 26.5692 33.4404 28.6641 33.4404 30.8428C33.4404 31.4293 33.1935 31.6807 32.6173 31.6807C31.7943 31.6807 31.0536 31.6807 30.2305 31.6807C29.7367 31.6807 29.4898 31.4293 29.4898 30.9265C29.4898 30.5914 29.4898 30.2562 29.4898 29.8372C29.4898 29.6696 29.4075 29.6696 29.3252 29.6696C29.2429 29.6696 29.0783 29.6696 28.9959 29.6696C24.2223 29.6696 19.5309 29.6696 14.7573 29.6696C14.675 29.6696 14.5104 29.6696 14.4281 29.6696C14.4281 30.0886 14.4281 30.5076 14.4281 30.8428C14.4281 31.4293 14.1812 31.6807 13.605 31.6807C12.782 31.6807 12.0413 31.6807 11.2182 31.6807C10.7244 31.6807 10.4775 31.4293 10.4775 30.9265C10.4775 28.4127 10.4775 25.9827 10.4775 23.4688C10.4775 22.7147 10.7244 22.0443 11.2182 21.4577C11.5474 21.0388 11.8766 20.7036 12.2059 20.2846C11.712 20.117 11.3005 20.0332 10.8067 19.8656C10.8067 19.8656 10.7244 19.8656 10.5598 19.8656C10.2306 19.7818 9.98364 19.3629 9.98364 19.0277C9.98364 18.6087 10.3129 18.3573 10.7244 18.3573C11.2182 18.3573 11.712 18.3573 12.2059 18.3573C12.4528 18.3573 12.6174 18.5249 12.782 18.6087C12.8643 18.6925 12.9466 18.7763 13.1112 18.8601C13.1935 18.7763 13.1935 18.6925 13.2758 18.6087C13.7696 17.6032 14.2635 16.5976 14.7573 15.5921C15.1688 14.7542 15.8273 14.419 16.7326 14.2514C18.1318 14.0838 19.4486 14 20.9301 14C22.6585 14 24.5515 14 26.2799 14.1676C26.6914 14.2514 27.1029 14.3352 27.5145 14.419C28.0083 14.5028 28.4198 14.7542 28.749 15.2569C29.0783 15.8435 29.4898 16.5138 29.819 17.1004C30.0659 17.6032 30.3128 18.1059 30.5597 18.6925C30.642 18.6925 30.642 18.7763 30.7243 18.8601ZM29.9013 19.7818C29.819 19.6143 29.7367 19.4467 29.6544 19.2791C29.0783 18.1897 28.5021 17.1004 27.926 15.9273C27.7614 15.5921 27.5145 15.4245 27.1853 15.3407C26.6091 15.2569 26.033 15.1731 25.4569 15.1731C23.3993 15.1731 21.3416 15.0893 19.284 15.0893C18.461 15.0893 17.6379 15.2569 16.8149 15.3407C16.4034 15.3407 16.1565 15.5921 15.9919 15.9273C15.498 16.849 15.0042 17.8546 14.5104 18.7763C14.3458 19.0277 14.2635 19.2791 14.0989 19.6143C19.284 19.2791 24.5515 19.2791 29.9013 19.7818ZM29.9836 25.1447C30.0659 25.1447 30.0659 25.0609 29.9836 25.1447C30.3951 25.0609 30.8889 24.9771 31.2182 24.7257C31.712 24.3906 31.9589 23.8878 31.8766 23.3012C31.7943 22.6309 31.3828 22.2957 30.8066 22.1281C29.5721 21.7929 28.4198 22.8822 28.5844 24.1392C28.5844 24.4743 28.749 24.7257 29.0783 24.8095C29.3252 24.9771 29.7367 25.0609 29.9836 25.1447ZM13.8519 25.0609C13.9343 25.0609 14.0989 25.0609 14.1812 25.0609C14.8396 24.9771 15.2511 24.5581 15.2511 23.9716C15.2511 22.8822 14.3458 22.0443 13.2758 22.1281C12.6997 22.1281 12.1236 22.6309 11.9589 23.2174C11.7943 23.804 11.9589 24.3906 12.5351 24.7257C12.8643 24.9771 13.3581 25.0609 13.8519 25.0609ZM21.8355 27.1558C22.5762 27.1558 23.3993 27.1558 24.14 27.1558C24.4692 27.1558 24.5515 27.072 24.5515 26.7368C24.5515 26.4854 24.5515 26.3178 24.5515 26.0664C24.5515 25.8151 24.4692 25.7313 24.2223 25.7313C22.6585 25.7313 21.0947 25.7313 19.3663 25.7313C19.1194 25.7313 19.0371 25.8151 19.0371 26.0664C19.0371 26.3178 19.0371 26.5692 19.0371 26.7368C19.0371 27.072 19.1194 27.1558 19.4486 27.1558C20.354 27.1558 21.0947 27.1558 21.8355 27.1558Z" fill="#315188"/>
<path d="M5.20987 19.3629C3.31687 20.2008 2 22.1281 2 24.3067C2 26.4854 3.31687 28.4127 5.20987 29.2506" stroke="#315188" stroke-width="1.2" stroke-miterlimit="10" stroke-linecap="round" stroke-linejoin="round"/>
<path d="M7.67898 20.8712C6.44441 21.4577 5.53906 22.7984 5.53906 24.3067C5.53906 25.815 6.44441 27.1558 7.76128 27.7423" stroke="#315188" stroke-width="1.2" stroke-miterlimit="10" stroke-linecap="round" stroke-linejoin="round"/>
<path d="M38.79 19.3629C40.683 20.2008 41.9999 22.1281 41.9999 24.3067C41.9999 26.4854 40.683 28.4127 38.79 29.2506" stroke="#315188" stroke-width="1.2" stroke-miterlimit="10" stroke-linecap="round" stroke-linejoin="round"/>
<path d="M36.2385 20.8712C37.5554 21.4577 38.4607 22.7984 38.4607 24.3067C38.4607 25.815 37.5554 27.1558 36.2385 27.7423" stroke="#315188" stroke-width="1.2" stroke-miterlimit="10" stroke-linecap="round" stroke-linejoin="round"/>
</svg>
