<svg width="44" height="44" viewBox="0 0 44 44" fill="none" xmlns="http://www.w3.org/2000/svg">
<path d="M22.0091 11C25.0319 11 28.0546 11 31.084 11C31.9119 11 32.0631 11.1072 32.3194 11.8451C32.8056 13.2453 33.3313 14.6265 33.765 16.0393C34.2842 17.7359 33.9622 19.2748 32.6085 20.5425C32.3588 20.7758 32.2536 20.9966 32.2536 21.3308C32.2668 24.6483 32.2602 27.9721 32.2602 31.2896C32.2602 32.9925 31.2351 33.989 29.474 33.9953C24.493 34.0016 19.5186 34.0016 14.5376 33.9953C12.7634 33.9953 11.7317 32.9988 11.7383 31.3085C11.7383 27.9721 11.7449 24.6357 11.7252 21.3056C11.7252 21.0723 11.6003 20.7758 11.4229 20.6118C10.0429 19.3063 9.7078 17.7548 10.2401 16.0204C10.6606 14.6328 11.1732 13.2768 11.6463 11.9082C11.9354 11.082 12.0537 11 12.9868 11C15.9899 11 18.9995 11 22.0091 11ZM18.5724 32.3365C18.5724 32.0906 18.5724 31.9013 18.5724 31.7121C18.5724 29.5488 18.5724 27.3792 18.5724 25.2159C18.5724 24.3897 18.8484 24.1374 19.7158 24.1311C21.2206 24.1311 22.7254 24.1311 24.2302 24.1311C25.137 24.1311 25.4064 24.3771 25.4064 25.2349C25.4064 27.4171 25.4064 29.5993 25.4064 31.7815C25.4064 31.9518 25.4064 32.1221 25.4064 32.3428C26.7667 32.3428 28.0678 32.3428 29.3689 32.3428C30.3151 32.3428 30.5386 32.1158 30.5386 31.195C30.5386 28.1613 30.5386 25.134 30.5386 22.1003C30.5386 21.9489 30.5188 21.7913 30.5123 21.602C29.2375 21.7786 28.1138 21.5327 27.1412 20.8515C25.4853 21.8354 23.8688 21.9174 22.2194 20.9903C22.1011 20.9272 21.8711 20.9335 21.7463 21.0029C20.2086 21.8543 18.6709 21.8669 17.1398 21.0029C16.9164 20.8767 16.7784 20.8767 16.5681 21.0092C15.7599 21.5201 14.8596 21.7156 13.8937 21.6336C13.7557 21.621 13.6111 21.6336 13.4403 21.6336C13.4403 22.9013 13.4403 24.1185 13.4403 25.3358C13.4403 27.3414 13.4337 29.347 13.4403 31.3526C13.4403 31.977 13.69 32.3113 14.2288 32.3176C15.6548 32.3555 17.0741 32.3365 18.5724 32.3365ZM32.2405 17.616C25.3867 17.616 18.5724 17.616 11.6857 17.616C11.7777 17.9629 11.8237 18.2656 11.942 18.5368C12.6583 20.1514 14.7611 20.5235 16.1016 19.2874C16.6273 18.8017 17.0544 18.7828 17.5341 19.218C18.7169 20.2839 20.1166 20.2776 21.3257 19.1991C21.7463 18.827 22.2457 18.7765 22.6137 19.1739C23.6519 20.3028 25.5773 20.2271 26.5301 19.1549C26.8521 18.7891 27.3581 18.827 27.7392 19.1486C27.8904 19.2748 28.0218 19.4261 28.1795 19.5397C29.0469 20.1388 29.98 20.2082 30.9131 19.7226C31.7674 19.2811 32.2142 18.5747 32.2405 17.616ZM23.6848 25.8088C22.5282 25.8088 21.4177 25.8088 20.3203 25.8088C20.3203 27.9973 20.3203 30.148 20.3203 32.305C21.4637 32.305 22.5677 32.305 23.6848 32.305C23.6848 30.1291 23.6848 27.9847 23.6848 25.8088ZM17.7378 12.6714C17.7378 13.7562 17.7378 14.822 17.7378 15.8879C18.8812 15.8879 19.9852 15.8879 21.0891 15.8879C21.0891 14.7968 21.0891 13.7435 21.0891 12.6714C19.9589 12.6714 18.8681 12.6714 17.7378 12.6714ZM26.2476 12.6777C25.0976 12.6777 24.0002 12.6777 22.8897 12.6777C22.8897 13.7688 22.8897 14.8283 22.8897 15.9068C24.0265 15.9068 25.1173 15.9068 26.2476 15.9068C26.2476 14.822 26.2476 13.7688 26.2476 12.6777ZM15.9702 12.6461C15.0962 12.6461 14.2814 12.6398 13.4665 12.6524C13.3614 12.6524 13.184 12.7281 13.1577 12.8038C12.7831 13.8255 12.4349 14.8536 12.0669 15.8942C13.4074 15.8942 14.6822 15.8942 15.9702 15.8942C15.9702 14.8094 15.9702 13.7625 15.9702 12.6461ZM28.0349 12.6461C28.0349 13.7814 28.0349 14.8473 28.0349 15.9068C29.3426 15.9068 30.5977 15.9068 31.9185 15.9068C31.5505 14.8536 31.2022 13.8381 30.8408 12.8353C30.808 12.7533 30.6503 12.6587 30.5451 12.6587C29.7172 12.6398 28.8826 12.6461 28.0349 12.6461Z" fill="#315188"/>
</svg>
