<svg width="44" height="44" viewBox="0 0 44 44" fill="none" xmlns="http://www.w3.org/2000/svg">
<path fill-rule="evenodd" clip-rule="evenodd" d="M26.4106 26.0666C26.4106 26.7944 26.3935 27.52 26.4245 28.2431C26.4311 28.3971 26.5949 28.5624 26.7182 28.6901C27.4973 29.4967 28.2864 30.2933 29.0696 31.0956C29.1797 31.2085 29.2866 31.3281 29.3762 31.458C29.5495 31.7096 29.5519 31.9747 29.3457 32.2035C29.1387 32.4332 28.8761 32.5019 28.5944 32.3494C28.4799 32.2875 28.3764 32.1962 28.2834 32.1021C27.8204 31.6349 27.364 31.1601 26.901 30.6923C26.7658 30.5561 26.6166 30.4342 26.3948 30.2343C26.3948 30.5764 26.3982 30.827 26.394 31.0773C26.3867 31.509 26.1487 31.8024 25.7975 31.82C25.4712 31.8365 25.1844 31.5804 25.1272 31.1799C25.0862 30.8932 25.0897 30.6 25.0728 30.3041C24.4865 30.8917 23.9156 31.4666 23.3413 32.0377C23.23 32.148 23.1168 32.2654 22.984 32.3422C22.7035 32.5044 22.3665 32.4234 22.1805 32.1626C21.9913 31.8965 22.0038 31.6188 22.2212 31.3868C22.6799 30.8977 23.1556 30.4255 23.6249 29.9477C24.0435 29.5218 24.4548 29.0876 24.8863 28.676C25.0987 28.4736 25.1841 28.2539 25.1766 27.9592C25.1607 27.3332 25.1717 26.7064 25.1717 26.0465C24.1853 26.0465 23.2391 26.0448 22.2925 26.047C20.934 26.0503 19.5754 26.0515 18.2169 26.0636C17.6672 26.0686 17.1947 25.8998 16.8532 25.4486C16.2386 24.6365 16.5249 23.5045 17.4463 23.0568C17.5545 23.0044 17.6667 22.9603 17.8061 22.8998C17.8061 21.3428 17.8061 19.7785 17.8061 18.1848C18.2381 18.1537 18.6409 18.1249 19.0839 18.093C19.0839 19.6721 19.0839 21.2098 19.0839 22.7732C23.5002 22.7732 27.8792 22.7732 32.279 22.7732C32.279 19.4973 32.279 16.242 32.279 12.9586C27.8953 12.9586 23.5256 12.9586 19.1156 12.9586C19.1156 13.6601 19.1156 14.3697 19.1156 15.1123C18.6658 15.1123 18.255 15.1123 17.8061 15.1123C17.8061 14.3481 17.8061 13.5882 17.8061 12.781C17.6182 12.781 17.4668 12.7831 17.3155 12.7808C16.8232 12.773 16.5027 12.5162 16.5069 12.1352C16.5113 11.7434 16.8108 11.5305 17.3419 11.5398C18.3755 11.5578 19.4092 11.5837 20.4429 11.5909C21.9096 11.601 23.3762 11.5967 24.8429 11.598C24.9129 11.598 24.9825 11.5907 25.0919 11.5847C25.0919 11.1277 25.0892 10.6868 25.0926 10.2458C25.0965 9.74295 25.3469 9.44599 25.7533 9.45326C26.1385 9.46029 26.3772 9.75524 26.3825 10.2431C26.3874 10.6747 26.3835 11.1066 26.3835 11.6015C26.537 11.6015 26.6745 11.6015 26.8116 11.6015C29.3125 11.601 31.8128 11.6 34.3136 11.6C34.8257 11.6 35.0366 11.7469 35.0417 12.1036C35.0471 12.4901 34.7398 12.7662 34.2892 12.7758C34.1247 12.7793 33.96 12.7763 33.7584 12.7763C33.7584 13.8377 33.7581 14.86 33.7584 15.8823C33.7591 18.106 33.7647 20.3297 33.7557 22.5535C33.7547 22.8221 33.8106 22.964 34.0776 23.0709C34.7064 23.3229 35.0693 23.9231 35.0493 24.5715C35.0295 25.2193 34.6468 25.7618 34.0217 25.9933C33.8692 26.0498 33.6947 26.0633 33.5304 26.0631C31.2463 26.0598 28.962 26.0505 26.6779 26.0438C26.6081 26.044 26.537 26.0555 26.4106 26.0666ZM25.7589 24.1877C24.5332 24.1877 23.3074 24.1872 22.0816 24.1877C20.7719 24.1882 19.4619 24.191 18.1522 24.1905C17.946 24.1905 17.7131 24.2158 17.7568 24.4762C17.7788 24.6061 17.9958 24.7242 18.1468 24.8002C18.2445 24.8491 18.3829 24.814 18.503 24.814C23.4055 24.813 28.3081 24.8118 33.2107 24.81C33.3068 24.81 33.4225 24.8363 33.494 24.7915C33.5987 24.7255 33.7405 24.6051 33.7393 24.5098C33.7379 24.405 33.6107 24.2527 33.5048 24.2108C33.3676 24.1564 33.1972 24.1872 33.041 24.187C30.6137 24.1865 28.186 24.1867 25.7589 24.1877Z" fill="#315188"/>
<path fill-rule="evenodd" clip-rule="evenodd" d="M25.8166 21.4576C25.3802 21.4576 25.2994 21.3931 25.3143 20.9552C25.328 20.5539 25.1054 20.3934 24.7913 20.2635C24.4969 20.1416 24.2509 20.1245 24.0078 20.3854C23.7061 20.7092 23.5977 20.7029 23.3258 20.4298C23.0439 20.1468 23.0285 19.9745 23.328 19.6899C23.6021 19.4293 23.5648 19.1765 23.4415 18.8599C23.3161 18.5371 23.1493 18.346 22.7886 18.3448C22.3305 18.3433 22.1298 18.0548 22.309 17.6242C22.36 17.5018 22.5828 17.3854 22.7259 17.3867C23.0932 17.3897 23.2946 17.2394 23.4339 16.8936C23.5726 16.5494 23.6085 16.2695 23.2968 16.0059C23.0385 15.7877 23.0666 15.5567 23.3009 15.3144C23.5323 15.0747 23.7571 15.0298 23.9721 15.2981C24.2279 15.6169 24.5037 15.5918 24.8376 15.4484C25.1671 15.3069 25.3485 15.1053 25.3107 14.7223C25.2782 14.3915 25.4391 14.2575 25.759 14.2565C26.0705 14.2553 26.2867 14.3308 26.2633 14.7045C26.2404 15.0689 26.3788 15.2974 26.7232 15.4426C27.0734 15.5903 27.3534 15.6159 27.617 15.2841C27.8423 15.0007 28.0666 15.1038 28.2867 15.328C28.5083 15.5535 28.5503 15.7649 28.297 15.9836C28.0329 16.2116 27.977 16.4634 28.1073 16.804C28.2499 17.177 28.4346 17.4233 28.8657 17.3766C29.2089 17.3395 29.2892 17.5532 29.2911 17.8609C29.2928 18.1707 29.2103 18.3754 28.8684 18.3485C28.4896 18.3189 28.2701 18.4955 28.132 18.8554C27.9985 19.203 27.9875 19.4887 28.2967 19.7453C28.5767 19.9775 28.4815 20.2045 28.2616 20.43C28.0439 20.6532 27.8252 20.7059 27.6189 20.4463C27.3685 20.1313 27.0924 20.1373 26.7524 20.274C26.401 20.4155 26.233 20.6394 26.2611 21.03C26.2867 21.3756 26.0925 21.4887 25.8166 21.4576ZM27.4076 17.8865C27.4105 16.9284 26.7061 16.193 25.7817 16.1885C24.895 16.1843 24.1518 16.948 24.155 17.8599C24.1584 18.7937 24.8657 19.5228 25.7734 19.5286C26.6958 19.5341 27.4049 18.8218 27.4076 17.8865Z" fill="#315188"/>
<path fill-rule="evenodd" clip-rule="evenodd" d="M11.958 13.4745C11.9622 12.4371 12.7584 11.6283 13.7684 11.6355C14.7659 11.6428 15.5775 12.4845 15.565 13.4991C15.5526 14.5259 14.7283 15.3593 13.7427 15.342C12.7235 15.324 11.9541 14.5189 11.958 13.4745Z" fill="#315188"/>
<path fill-rule="evenodd" clip-rule="evenodd" d="M12.0033 16.001C12.0033 16.001 14.5825 15.7597 15.5732 15.7544C17.304 15.7454 19.0347 15.7446 20.7653 15.7554C21.2874 15.7587 21.6513 16.0895 21.6613 16.5236C21.6725 17.012 21.3308 17.332 20.765 17.3716C19.3394 17.4722 17.9137 17.5756 16.4883 17.6791C16.4539 17.6816 16.4207 17.6987 16.3509 17.7198C16.2837 18.4439 16.2134 19.178 16.148 19.9129C15.9464 22.1739 16.1988 24.4272 16.2654 26.6833C16.3123 28.2755 16.3936 29.8664 16.4458 31.4583C16.4641 32.0131 16.1605 32.3845 15.7072 32.4227C15.1749 32.4673 14.8559 32.1874 14.7695 31.5864C14.4785 29.5629 14.1912 27.5388 13.9005 25.515C13.8798 25.3701 13.8444 25.2273 13.7675 25.0791C13.6709 25.7673 13.5723 26.4553 13.4776 27.1438C13.2779 28.5955 13.0804 30.0475 12.8808 31.4992C12.8705 31.5719 12.8474 31.6429 12.8295 31.7146C12.7043 32.2192 12.3626 32.4743 11.8832 32.4214C11.4537 32.374 11.1464 32.0128 11.1625 31.5145C11.2101 30.0462 11.2708 28.5779 11.3328 27.1102C11.4131 25.2108 11.5005 23.3116 11.5806 21.412C11.586 21.2813 11.5567 21.1486 11.4783 21.0134C11.2303 22.1052 10.9848 23.1975 10.7336 24.2886C10.6362 24.7119 10.3856 24.9713 10.0561 25.0099C9.72241 25.049 9.37362 24.8744 9.27282 24.5501C9.20667 24.337 9.20008 24.0851 9.23376 23.8614C9.55473 21.7433 9.89107 19.6277 10.2213 17.5111C10.3224 16.8645 10.6592 16.4323 11.2823 16.2518C11.6157 16.1552 11.9823 15.9237 12.2725 15.9999" fill="#315188"/>
</svg>
