<svg width="44" height="44" viewBox="0 0 44 44" fill="none" xmlns="http://www.w3.org/2000/svg">
<path fill-rule="evenodd" clip-rule="evenodd" d="M28.5141 13.0011C29.2229 13.0011 29.8466 13.0137 30.4695 12.997C30.9237 12.985 31.1166 13.1669 31.1161 13.646C31.1083 20.552 31.1067 27.4579 31.1185 34.3635C31.1195 34.9168 30.8397 35.0014 30.4046 35C28.4892 34.9937 26.5735 34.9975 24.6583 34.9975C21.074 34.9975 17.4897 34.9981 13.9051 34.9972C13.0249 34.997 13.0002 34.971 13.0002 34.1022C12.9999 27.3703 12.9999 20.6387 13.0002 13.9068C13.0002 13.012 13.0112 13.0016 13.8976 13.0008C14.4416 13.0006 14.9857 13.0008 15.597 13.0008C15.597 12.6101 15.6142 12.2853 15.593 11.9629C15.5616 11.4874 15.7706 11.2945 16.2261 11.3002C17.0795 11.3112 17.9331 11.2884 18.7862 11.3098C19.1226 11.3183 19.2747 11.2033 19.3965 10.8755C19.8378 9.6866 20.8567 8.99267 22.0698 9.00006C23.2912 9.00745 24.2642 9.68715 24.7232 10.9034C24.8386 11.2085 24.981 11.3172 25.2963 11.3095C26.1303 11.2895 26.9657 11.3215 27.7995 11.2966C28.3403 11.2805 28.5699 11.4967 28.519 12.0508C28.4924 12.3351 28.5141 12.6243 28.5141 13.0011ZM13.8868 13.92C13.8868 20.6603 13.8868 27.3788 13.8868 34.1055C19.3573 34.1055 24.7772 34.1055 30.2208 34.1055C30.2208 27.3599 30.2208 20.6434 30.2208 13.9104C29.6427 13.9104 29.1177 13.9104 28.5141 13.9104C28.5141 14.3208 28.516 14.702 28.5139 15.0829C28.5093 15.8151 28.4503 15.8778 27.7302 15.8783C24.9032 15.88 22.0765 15.8789 19.2495 15.8789C18.2438 15.8789 17.2383 15.8688 16.2328 15.883C15.7714 15.8896 15.5729 15.6925 15.593 15.2224C15.6107 14.8021 15.5968 14.3802 15.5968 13.92C14.9918 13.92 14.4523 13.92 13.8868 13.92ZM16.4531 14.9398C20.2155 14.9398 23.9337 14.9398 27.6369 14.9398C27.6369 13.9938 27.6369 13.0988 27.6369 12.2155C27.5497 12.1983 27.5127 12.1849 27.4754 12.1846C26.585 12.1821 25.6938 12.1643 24.8037 12.1862C24.3324 12.1977 24.0944 12.074 24.0139 11.5353C23.8659 10.5442 23.0055 9.85707 22.0545 9.85735C21.104 9.85735 20.2442 10.5447 20.0962 11.5361C20.0154 12.0754 19.7766 12.1974 19.3056 12.186C18.3648 12.1635 17.4229 12.1794 16.4531 12.1794C16.4531 13.1278 16.4531 14.0092 16.4531 14.9398Z" fill="#315188" stroke="#315188" stroke-width="0.5"/>
<path fill-rule="evenodd" clip-rule="evenodd" d="M24.7321 20.7246C23.5766 20.7249 22.4212 20.7271 21.2655 20.7235C20.9575 20.7227 20.5978 20.7246 20.5863 20.2988C20.5736 19.8276 20.9425 19.8449 21.277 19.8452C23.5501 19.8482 25.8231 19.8468 28.0961 19.8468C28.134 19.8468 28.1721 19.8487 28.2099 19.8468C28.5264 19.829 28.8081 19.9048 28.8087 20.2857C28.8089 20.6792 28.4951 20.7213 28.1984 20.7224C27.0432 20.7268 25.8875 20.7241 24.7321 20.7246Z" fill="#315188" stroke="#315188" stroke-width="0.5"/>
<path fill-rule="evenodd" clip-rule="evenodd" d="M24.6686 25.8815C23.5325 25.8815 22.3964 25.8785 21.2603 25.8834C20.9445 25.8848 20.599 25.8974 20.584 25.4705C20.569 25.0461 20.9027 25.013 21.2268 25.013C23.5368 25.0144 25.8471 25.0133 28.1569 25.0133C28.474 25.0133 28.8193 25.0305 28.8059 25.4609C28.7927 25.8821 28.4528 25.8845 28.1333 25.8831C26.979 25.8782 25.8238 25.8815 24.6686 25.8815Z" fill="#315188" stroke="#315188" stroke-width="0.5"/>
<path fill-rule="evenodd" clip-rule="evenodd" d="M24.7336 30.1818C25.8692 30.1818 27.0047 30.184 28.1403 30.1805C28.4587 30.1797 28.7992 30.1862 28.8072 30.6095C28.8155 31.0468 28.4555 31.0462 28.1492 31.0468C25.8402 31.0504 23.5312 31.0495 21.2222 31.0479C20.9049 31.0476 20.5679 31.0194 20.5856 30.5857C20.6017 30.1977 20.9094 30.1786 21.2131 30.1799C22.3868 30.1851 23.5602 30.1818 24.7336 30.1818Z" fill="#315188" stroke="#315188" stroke-width="0.5"/>
<path fill-rule="evenodd" clip-rule="evenodd" d="M16.8029 20.8696C17.4763 20.1601 17.9946 19.5682 18.5681 19.0388C18.7272 18.8918 19.0502 18.9296 19.2978 18.8825C19.2546 19.1353 19.2959 19.4659 19.1535 19.6276C18.559 20.3024 17.9058 20.9235 17.2812 21.5712C17.006 21.8566 16.7479 21.9042 16.4574 21.5934C16.1304 21.2437 15.7631 20.9293 15.4685 20.5544C15.3615 20.4179 15.413 20.1516 15.3921 19.9445C15.6102 19.9461 15.8946 19.8596 16.0322 19.9677C16.3093 20.1858 16.507 20.5098 16.8029 20.8696Z" fill="#315188" stroke="#315188" stroke-width="0.5"/>
<path fill-rule="evenodd" clip-rule="evenodd" d="M16.8208 31.2004C17.4682 30.5114 17.9835 29.9181 18.5533 29.3848C18.7153 29.2329 19.1312 29.1243 19.2626 29.2247C19.5738 29.4628 19.3852 29.7624 19.1473 30.0021C18.5402 30.6134 17.9288 31.2212 17.3394 31.85C17.0108 32.2008 16.7286 32.2511 16.3921 31.8672C16.1019 31.5361 15.7472 31.2589 15.4873 30.9068C15.3759 30.756 15.4334 30.4758 15.4143 30.2547C15.6332 30.2722 15.9098 30.2115 16.0587 30.325C16.3251 30.5283 16.515 30.8364 16.8208 31.2004Z" fill="#315188" stroke="#315188" stroke-width="0.5"/>
<path fill-rule="evenodd" clip-rule="evenodd" d="M16.8591 26.0013C17.4652 25.3566 18.0017 24.7861 18.5382 24.2153C18.7604 23.9792 19.0394 23.7321 19.2883 24.073C19.3881 24.2099 19.2854 24.6343 19.1373 24.802C18.5543 25.4628 17.9099 26.0667 17.302 26.7054C16.9796 27.0441 16.6952 27.0321 16.3848 26.6969C16.0852 26.3737 15.7356 26.0922 15.477 25.7392C15.3684 25.5909 15.4376 25.3074 15.4258 25.0852C15.6417 25.1011 15.9111 25.0401 16.0624 25.1492C16.3347 25.346 16.5364 25.6445 16.8591 26.0013Z" fill="#315188" stroke="#315188" stroke-width="0.5"/>
</svg>
