<svg width="44" height="44" viewBox="0 0 44 44" fill="none" xmlns="http://www.w3.org/2000/svg">
<path d="M29.3537 9H14.8921C14.1254 9.00094 13.3903 9.30849 12.8481 9.85519C12.3059 10.4019 12.0009 11.1431 12 11.9163V29.4148C11.9997 29.7979 12.0742 30.1772 12.2195 30.5312C12.3647 30.8852 12.5777 31.2068 12.8463 31.4776C13.115 31.7485 13.4339 31.9633 13.785 32.1097C14.136 32.2562 14.5122 32.3314 14.8921 32.331H15.3051V33.5807C15.3045 33.6637 15.3285 33.7449 15.374 33.8139C15.4195 33.883 15.4844 33.9368 15.5604 33.9685C15.6364 34.0001 15.7201 34.0082 15.8007 33.9916C15.8812 33.975 15.9551 33.9345 16.0127 33.8753L17.3733 32.5033L18.7339 33.8753C18.7916 33.9345 18.8654 33.975 18.946 33.9916C19.0265 34.0082 19.1102 34.0001 19.1862 33.9685C19.2622 33.9368 19.3271 33.883 19.3726 33.8139C19.4181 33.7449 19.4421 33.6637 19.4416 33.5807V28.9979H29.3577V29.8312H20.2634V30.6645H29.3532V31.4978H20.2634V32.331H29.3532C29.5723 32.3308 29.7823 32.2429 29.9372 32.0867C30.0922 31.9305 30.1793 31.7187 30.1796 31.4978V9.83329C30.1793 9.61246 30.0922 9.40074 29.9374 9.24454C29.7826 9.08834 29.5727 9.0004 29.3537 9V9ZM12.8259 11.9163C12.8266 11.364 13.0444 10.8346 13.4317 10.4441C13.8189 10.0536 14.344 9.83396 14.8916 9.83329H29.3527V26.4991H14.8921C14.5071 26.4988 14.1259 26.5764 13.7711 26.7272C13.4163 26.878 13.095 27.099 12.8264 27.3772L12.8259 11.9163ZM12.8673 28.9979H15.3056V29.8312H12.8678C12.8124 29.5562 12.8124 29.2728 12.8678 28.9979H12.8673ZM14.8916 31.4952C14.571 31.4947 14.2548 31.4192 13.968 31.2746C13.6812 31.13 13.4316 30.9203 13.2388 30.6619H15.3056V31.4952H14.8916ZM18.6101 32.5726L17.6629 31.6175C17.6246 31.5788 17.579 31.5481 17.5289 31.5272C17.4788 31.5062 17.425 31.4954 17.3708 31.4954C17.3165 31.4954 17.2628 31.5062 17.2127 31.5272C17.1625 31.5481 17.117 31.5788 17.0786 31.6175L16.1315 32.5726V28.9979H18.6081L18.6101 32.5726ZM13.2409 28.1631C13.4331 27.9044 13.6824 27.6943 13.9691 27.5497C14.2558 27.4051 14.572 27.3298 14.8926 27.3298H29.3537V28.1631H13.2409Z" fill="#315188" stroke="#315188" stroke-width="0.4"/>
<path d="M14.4792 10.6666H15.3056V25.6653H14.4792V10.6666Z" fill="#315188" stroke="#315188" stroke-width="0.4"/>
<path d="M17.7843 16.4996H26.8736C26.9279 16.4997 26.9816 16.4889 27.0318 16.468C27.0819 16.4472 27.1275 16.4165 27.1659 16.3778C27.2043 16.3391 27.2348 16.2932 27.2555 16.2427C27.2763 16.1921 27.287 16.1379 27.287 16.0832V13.5859C27.2874 13.5309 27.277 13.4764 27.2564 13.4255C27.2358 13.3746 27.2054 13.3283 27.167 13.2893C27.1285 13.2503 27.0828 13.2194 27.0325 13.1983C26.9821 13.1772 26.9281 13.1664 26.8736 13.1664H17.7843C17.6748 13.1664 17.5697 13.2103 17.4923 13.2884C17.4149 13.3665 17.3713 13.4724 17.3713 13.5828V16.0801C17.3709 16.1351 17.3813 16.1896 17.4019 16.2404C17.4225 16.2913 17.4528 16.3376 17.4912 16.3766C17.5296 16.4156 17.5753 16.4465 17.6256 16.4676C17.6759 16.4887 17.7298 16.4996 17.7843 16.4996V16.4996ZM18.1972 14.0023H26.4606V15.6689H18.1977L18.1972 14.0023Z" fill="#315188" stroke="#315188" stroke-width="0.4"/>
</svg>
