<svg width="44" height="44" viewBox="0 0 44 44" fill="none" xmlns="http://www.w3.org/2000/svg">
<path d="M21.7 33.4C15.3 33.4 10 28.2 10 21.7C10 15.2 15.3 10 21.7 10C28.1 10 33.4 15.3 33.4 21.7C33.4 28.1 28.2 33.4 21.7 33.4ZM21.7 11.2C15.9 11.2 11.2 15.9 11.2 21.7C11.2 27.5 15.9 32.2 21.7 32.2C27.5 32.2 32.2 27.5 32.2 21.7C32.2 15.9 27.5 11.2 21.7 11.2Z" fill="white" stroke="white" stroke-width="0.5"/>
<path d="M16.6 23.5C17.4837 23.5 18.2 22.7837 18.2 21.9C18.2 21.0164 17.4837 20.3 16.6 20.3C15.7163 20.3 15 21.0164 15 21.9C15 22.7837 15.7163 23.5 16.6 23.5Z" fill="white" stroke="white" stroke-width="0.5"/>
<path d="M21.7001 23.5C22.5838 23.5 23.3001 22.7837 23.3001 21.9C23.3001 21.0164 22.5838 20.3 21.7001 20.3C20.8164 20.3 20.1001 21.0164 20.1001 21.9C20.1001 22.7837 20.8164 23.5 21.7001 23.5Z" fill="white" stroke="white" stroke-width="0.5"/>
<path d="M26.9 23.5C27.7837 23.5 28.5 22.7837 28.5 21.9C28.5 21.0164 27.7837 20.3 26.9 20.3C26.0164 20.3 25.3 21.0164 25.3 21.9C25.3 22.7837 26.0164 23.5 26.9 23.5Z" fill="white" stroke="white" stroke-width="0.5"/>
</svg>
