<svg width="44" height="44" viewBox="0 0 44 44" fill="none" xmlns="http://www.w3.org/2000/svg">
<path d="M17.5364 26.6758C17.5364 26.3687 17.4882 26.0977 17.3918 25.8628C17.3015 25.6219 17.1389 25.4051 16.9041 25.2124C16.6752 25.0197 16.356 24.836 15.9465 24.6614C15.5431 24.4867 15.0312 24.3091 14.4109 24.1284C13.7605 23.9357 13.1733 23.7219 12.6494 23.4871C12.1255 23.2462 11.6768 22.9722 11.3035 22.665C10.9301 22.3579 10.644 22.0056 10.4453 21.6082C10.2466 21.2107 10.1472 20.756 10.1472 20.2441C10.1472 19.7323 10.2526 19.2595 10.4634 18.8259C10.6742 18.3923 10.9753 18.016 11.3667 17.6968C11.7642 17.3716 12.2369 17.1187 12.7849 16.938C13.3329 16.7573 13.9442 16.667 14.6187 16.667C15.6063 16.667 16.4434 16.8567 17.1299 17.2361C17.8224 17.6095 18.3494 18.1003 18.7107 18.7085C19.072 19.3107 19.2527 19.9551 19.2527 20.6416H17.5183C17.5183 20.1478 17.4129 19.7112 17.2021 19.3318C16.9914 18.9464 16.6722 18.6453 16.2446 18.4285C15.8171 18.2056 15.2751 18.0942 14.6187 18.0942C13.9984 18.0942 13.4865 18.1876 13.083 18.3743C12.6795 18.561 12.3784 18.8139 12.1797 19.1331C11.987 19.4522 11.8906 19.8166 11.8906 20.2261C11.8906 20.5031 11.9478 20.756 12.0623 20.9849C12.1827 21.2077 12.3664 21.4154 12.6133 21.6082C12.8662 21.8009 13.1854 21.9785 13.5708 22.1411C13.9622 22.3037 14.429 22.4603 14.9709 22.6108C15.7177 22.8216 16.3621 23.0565 16.9041 23.3154C17.446 23.5744 17.8917 23.8665 18.241 24.1917C18.5963 24.5108 18.8582 24.8752 19.0269 25.2847C19.2015 25.6882 19.2888 26.1458 19.2888 26.6577C19.2888 27.1937 19.1804 27.6785 18.9636 28.1121C18.7468 28.5457 18.4367 28.916 18.0332 29.2231C17.6297 29.5303 17.1449 29.7681 16.5789 29.9368C16.0188 30.0994 15.3925 30.1807 14.7 30.1807C14.0917 30.1807 13.4925 30.0964 12.9023 29.9277C12.3182 29.7591 11.7852 29.5062 11.3035 29.1689C10.8277 28.8317 10.4453 28.4162 10.1562 27.9224C9.87321 27.4225 9.73169 26.8444 9.73169 26.188H11.4661C11.4661 26.6396 11.5534 27.0281 11.728 27.3533C11.9027 27.6724 12.1405 27.9374 12.4417 28.1482C12.7488 28.359 13.0951 28.5155 13.4805 28.6179C13.8719 28.7143 14.2784 28.7625 14.7 28.7625C15.3082 28.7625 15.8231 28.6781 16.2446 28.5095C16.6662 28.3409 16.9854 28.1 17.2021 27.7869C17.425 27.4737 17.5364 27.1034 17.5364 26.6758ZM22.3634 16.8477V30H20.62V16.8477H22.3634ZM29.2047 23.8484H25.8715L25.8534 22.4482H28.8796C29.3794 22.4482 29.816 22.3639 30.1894 22.1953C30.5627 22.0267 30.8518 21.7858 31.0566 21.4727C31.2673 21.1535 31.3727 20.7741 31.3727 20.3345C31.3727 19.8527 31.2794 19.4613 31.0927 19.1602C30.912 18.853 30.632 18.6302 30.2526 18.4917C29.8792 18.3472 29.4035 18.2749 28.8254 18.2749H26.2599V30H24.5165V16.8477H28.8254C29.4998 16.8477 30.102 16.9169 30.632 17.0554C31.1619 17.1879 31.6106 17.3987 31.9779 17.6877C32.3513 17.9708 32.6344 18.3321 32.8271 18.7717C33.0198 19.2113 33.1161 19.7383 33.1161 20.3525C33.1161 20.8945 32.9776 21.3853 32.7006 21.825C32.4236 22.2585 32.0382 22.6139 31.5443 22.8909C31.0566 23.1679 30.4845 23.3455 29.828 23.4238L29.2047 23.8484ZM29.1234 30H25.185L26.1696 28.5818H29.1234C29.6775 28.5818 30.1472 28.4854 30.5326 28.2927C30.9241 28.1 31.2222 27.829 31.4269 27.4797C31.6317 27.1244 31.734 26.7059 31.734 26.2241C31.734 25.7363 31.6467 25.3148 31.4721 24.9595C31.2974 24.6042 31.0234 24.3302 30.6501 24.1375C30.2767 23.9447 29.7949 23.8484 29.2047 23.8484H26.7206L26.7387 22.4482H30.1352L30.5055 22.9541C31.1379 23.0083 31.6738 23.189 32.1134 23.4961C32.5531 23.7972 32.8873 24.1826 33.1161 24.6523C33.351 25.1221 33.4684 25.64 33.4684 26.2061C33.4684 27.0251 33.2878 27.7176 32.9264 28.2837C32.5711 28.8438 32.0683 29.2713 31.4179 29.5664C30.7675 29.8555 30.0027 30 29.1234 30Z" fill="#315188"/>
</svg>
