<svg width="44" height="44" viewBox="0 0 44 44" fill="none" xmlns="http://www.w3.org/2000/svg">
<path fill-rule="evenodd" clip-rule="evenodd" d="M33.06 31.8086C33.0511 31.8737 33.046 31.9113 33.0384 31.964C33.0028 31.9502 32.9735 31.9414 32.9468 31.9264C32.2448 31.5267 31.5428 31.1283 30.842 30.7261C30.5953 30.5845 30.4961 30.394 30.5381 30.1485C30.5813 29.8891 30.7314 29.7162 30.9896 29.6435C31.1663 29.5934 31.3202 29.6623 31.4703 29.7475C32.0502 30.0783 32.6302 30.4078 33.2101 30.7386C33.2635 30.7687 33.3169 30.7975 33.3869 30.8351C34.2415 29.294 34.7261 27.6602 34.8113 25.8848C34.7299 25.8848 34.665 25.8848 34.6001 25.8848C33.9121 25.8848 33.2254 25.8873 32.5373 25.8835C32.1176 25.881 31.8862 25.6605 31.8938 25.2809C31.9002 24.9538 32.1265 24.7296 32.4623 24.7283C33.1783 24.7258 33.8943 24.7271 34.6103 24.7271C34.6714 24.7271 34.7311 24.7271 34.8125 24.7271C34.7197 22.8928 34.2441 21.1838 33.3716 19.5638C33.3182 19.5926 33.2699 19.6151 33.2241 19.6414C32.606 20.006 31.9905 20.3757 31.3698 20.7352C30.9667 20.9683 30.5483 20.7753 30.4605 20.3255C30.4173 20.1038 30.5177 19.8958 30.753 19.7567C31.3787 19.3821 32.007 19.0125 32.6327 18.6391C32.6709 18.6166 32.7065 18.5927 32.7573 18.5602C31.7386 17.0654 30.4529 15.8626 28.8899 14.9167C28.8186 15.0432 28.7538 15.1572 28.6902 15.2725C28.3811 15.8326 28.0746 16.3951 27.7643 16.9539C27.6486 17.1619 27.468 17.2734 27.2238 17.2559C26.9644 17.2358 26.7482 17.0567 26.6757 16.8261C26.6223 16.652 26.6782 16.4991 26.7609 16.3488C27.0941 15.7449 27.4273 15.1409 27.7605 14.5358C27.7898 14.4832 27.8152 14.4293 27.8495 14.3604C26.345 13.6525 24.7744 13.259 23.0969 13.1814C23.0969 13.254 23.0969 13.3129 23.0969 13.3718C23.0969 14.0547 23.0982 14.7375 23.0956 15.4203C23.0943 15.7749 22.943 15.9741 22.6327 16.043C22.255 16.127 21.923 15.8752 21.9218 15.493C21.918 14.7876 21.9205 14.0822 21.9205 13.3768C21.9205 13.3167 21.9205 13.2565 21.9205 13.1989C20.7721 13.0786 17.5888 13.9419 16.6846 14.616C17.0191 15.166 17.3548 15.716 17.6893 16.2673C17.7592 16.3813 17.8317 16.4941 17.8953 16.6106C18.0556 16.9013 17.964 17.2195 17.6753 17.3849C17.3904 17.5491 17.0699 17.4839 16.8944 17.202C16.5103 16.5881 16.139 15.9666 15.7613 15.3489C15.7333 15.3026 15.7015 15.2575 15.6621 15.1986C14.1461 16.2047 12.9277 17.4739 11.9701 19.0137C12.3783 19.2317 12.7777 19.446 13.177 19.659C13.4543 19.8068 13.7315 19.9534 14.0075 20.1038C14.3292 20.2792 14.4284 20.5899 14.2618 20.8931C14.0965 21.1951 13.776 21.2915 13.4543 21.1237C12.8336 20.7979 12.2168 20.4646 11.5975 20.1338C11.5428 20.105 11.4881 20.0775 11.4347 20.0512C10.9399 20.5824 10.1387 23.6408 10.2138 24.7221C10.2723 24.7221 10.3333 24.7221 10.3931 24.7221C11.1142 24.7221 11.8365 24.7208 12.5576 24.7233C12.8133 24.7246 13.0117 24.8649 13.088 25.0879C13.1732 25.3347 13.1147 25.6204 12.9074 25.7469C12.7777 25.8259 12.6047 25.8697 12.4495 25.8735C11.7679 25.8873 11.0862 25.8798 10.4033 25.8798C10.3422 25.8798 10.2812 25.8798 10.2023 25.8798C10.2786 27.6489 10.7695 29.2814 11.6229 30.8326C11.8302 30.7148 12.0299 30.6033 12.2283 30.4905C12.6861 30.2299 13.1439 29.968 13.6031 29.7087C13.7989 29.5984 13.9998 29.5859 14.1932 29.7137C14.3916 29.844 14.4882 30.0294 14.4806 30.2637C14.4742 30.4567 14.3712 30.602 14.2071 30.696C13.4733 31.1182 12.737 31.5367 11.9904 31.964C11.9688 31.9151 11.951 31.8737 11.9307 31.8286C11.7577 32.1719 11.4944 32.3235 11.1892 32.2158C11.0569 32.1694 10.9183 32.0629 10.8458 31.9464C10.0866 30.7248 9.56133 29.4105 9.27391 28.006C9.02591 26.7919 8.94197 25.564 9.0399 24.3299C9.27773 21.3692 10.3867 18.7657 12.3669 16.5254C13.28 15.4918 14.3343 14.6185 15.5273 13.9143C17.0496 13.016 18.6864 12.4196 20.4452 12.1602C23.3792 11.728 26.1759 12.164 28.7881 13.5447C32.3364 15.4216 34.6129 18.3071 35.6176 22.1548C35.8681 23.1146 35.98 24.0943 35.9978 25.0854C36.0398 27.491 35.4726 29.7375 34.253 31.8299C33.9426 32.3686 33.3258 32.3925 33.06 31.8086Z" fill="#315188" stroke="#315188" stroke-width="0.3" stroke-miterlimit="10"/>
<path fill-rule="evenodd" clip-rule="evenodd" d="M22.7217 26.85C21.8934 26.8435 21.2186 26.2369 21.1543 25.4346C21.0945 24.6885 21.6937 23.9878 22.4859 23.871C22.8876 23.8116 23.2521 23.897 23.5794 24.1165C23.6877 24.1889 23.7588 24.1846 23.8671 24.123C25.3827 23.2601 26.9005 22.4005 28.4183 21.5419C28.776 21.3397 29.1507 21.4835 29.2376 21.8522C29.2872 22.0642 29.189 22.261 28.9611 22.3907C28.24 22.8016 27.5177 23.2104 26.7955 23.6191C25.992 24.0743 25.1897 24.5328 24.3828 24.9826C24.2847 25.0378 24.2621 25.0929 24.2689 25.1967C24.3287 26.012 23.8186 26.6565 22.9892 26.8208C22.9023 26.8392 22.8109 26.8414 22.7217 26.85Z" fill="#315188" stroke="#315188" stroke-width="0.3" stroke-miterlimit="10"/>
<path fill-rule="evenodd" clip-rule="evenodd" d="M22.4924 29.5506C23.6446 29.5506 24.798 29.5492 25.9502 29.5521C26.3868 29.5535 26.6532 29.9895 26.5119 30.4618C26.433 30.7278 26.2454 30.8833 25.9764 30.8963C25.8101 30.9036 25.6437 30.8978 25.4773 30.8978C23.3493 30.8978 21.2214 30.8978 19.0935 30.8978C18.6706 30.8978 18.4267 30.6188 18.4517 30.1697C18.473 29.7861 18.6969 29.5521 19.0497 29.5506C20.1993 29.5492 21.3453 29.5506 22.4924 29.5506Z" fill="#315188" stroke="#315188" stroke-width="0.3" stroke-miterlimit="10"/>
</svg>
