<svg width="44" height="44" viewBox="0 0 44 44" fill="none" xmlns="http://www.w3.org/2000/svg">
<path d="M32.6129 24.3226H30.7935C30.5465 25.369 30.1317 26.3685 29.5653 27.2823L30.8524 28.5694C31.0035 28.7206 31.0035 28.9656 30.8524 29.1168L28.1168 31.8539C27.9656 32.005 27.7206 32.005 27.5694 31.8539L26.2819 30.5668C25.3682 31.1328 24.3688 31.5471 23.3226 31.7935V33.6129C23.3226 33.8267 23.1493 34 22.9355 34H19.0645C18.8507 34 18.6774 33.8267 18.6774 33.6129V31.7935C17.6311 31.5466 16.6317 31.1319 15.7181 30.5653L14.4306 31.8539C14.2794 32.005 14.0344 32.005 13.8832 31.8539L11.1461 29.1168C10.995 28.9656 10.995 28.7206 11.1461 28.5694L12.4332 27.2823C11.8673 26.3684 11.453 25.3689 11.2065 24.3226H9.3871C9.17332 24.3226 9 24.1493 9 23.9355V20.0645C9 19.8507 9.17332 19.6774 9.3871 19.6774H11.2065C11.4535 18.631 11.8683 17.6315 12.4347 16.7177L11.1461 15.4306C10.995 15.2794 10.995 15.0344 11.1461 14.8832L13.8832 12.1461C14.0368 12.0009 14.277 12.0009 14.4306 12.1461L15.7177 13.4332C16.6316 12.8673 17.6311 12.453 18.6774 12.2065V10.3871C18.6774 10.1733 18.8507 10 19.0645 10H22.9355C23.1493 10 23.3226 10.1733 23.3226 10.3871V12.2065C24.369 12.4535 25.3685 12.8683 26.2823 13.4347L27.5694 12.1476C27.7206 11.9965 27.9656 11.9965 28.1168 12.1476L30.8539 14.8848C31.005 15.0359 31.005 15.281 30.8539 15.4321L29.5668 16.7192C30.1326 17.6327 30.5468 18.6317 30.7935 19.6774H32.6129C32.8267 19.6774 33 19.8507 33 20.0645V23.9355C33 24.1493 32.8267 24.3226 32.6129 24.3226ZM32.2258 20.4516H30.4839C30.2999 20.4517 30.1413 20.3222 30.1045 20.1419C29.868 18.9769 29.408 17.8687 28.7497 16.8787C28.6478 16.7252 28.6682 16.5212 28.7985 16.391L30.0325 15.1573L27.8427 12.9675L26.609 14.2015C26.4788 14.3318 26.2748 14.3522 26.1213 14.2503C25.1313 13.592 24.0231 13.132 22.8581 12.8955C22.6778 12.8587 22.5483 12.7001 22.5484 12.5161V10.7742H19.4516V12.5161C19.4517 12.7001 19.3222 12.8587 19.1419 12.8955C17.9769 13.132 16.8687 13.592 15.8787 14.2503C15.7252 14.3522 15.5212 14.3318 15.391 14.2015L14.1573 12.9675L11.9671 15.1569L13.2012 16.3906C13.3314 16.5208 13.3518 16.7248 13.2499 16.8783C12.5916 17.8683 12.1316 18.9765 11.8951 20.1415C11.8585 20.3218 11.7001 20.4514 11.5161 20.4516H9.77419V23.5484H11.5161C11.7001 23.5483 11.8587 23.6778 11.8955 23.8581C12.132 25.0231 12.592 26.1313 13.2503 27.1213C13.3522 27.2748 13.3318 27.4788 13.2015 27.609L11.9671 28.8431L14.1569 31.0329L15.391 29.7988C15.5212 29.6686 15.7252 29.6482 15.8787 29.7501C16.8686 30.4082 17.9766 30.8683 19.1415 31.1049C19.3218 31.1415 19.4514 31.2999 19.4516 31.4839V33.2258H22.5484V31.4839C22.5483 31.2999 22.6778 31.1413 22.8581 31.1045C24.023 30.868 25.131 30.4078 26.1209 29.7497C26.2744 29.6478 26.4784 29.6682 26.6086 29.7985L27.8427 31.0325L30.0325 28.8427L28.7985 27.609C28.6682 27.4788 28.6478 27.2748 28.7497 27.1213C29.408 26.1313 29.868 25.0231 30.1045 23.8581C30.1413 23.6778 30.2999 23.5483 30.4839 23.5484H32.2258V20.4516Z" fill="#315188" stroke="#315188" stroke-width="0.7"/>
<path d="M21 26.258C18.6483 26.258 16.7419 24.3516 16.7419 22C16.7419 19.6483 18.6483 17.7419 21 17.7419C23.3517 17.7419 25.2581 19.6483 25.2581 22C25.2553 24.3505 23.3505 26.2553 21 26.258ZM21 18.5161C19.0759 18.5161 17.5161 20.0759 17.5161 22C17.5161 23.9241 19.0759 25.4838 21 25.4838C22.9241 25.4838 24.4839 23.9241 24.4839 22C24.4817 20.0768 22.9232 18.5182 21 18.5161Z" fill="#315188" stroke="#315188" stroke-width="0.7"/>
</svg>
