<svg width="44" height="44" viewBox="0 0 44 44" fill="none" xmlns="http://www.w3.org/2000/svg">
<g clip-path="url(#clip0_1609_6733)">
<path d="M38.9664 23.0826C38.9664 22.8075 38.7817 22.5324 38.6306 22.2734C37.724 20.7845 36.7669 19.3279 35.8938 17.8228C35.323 16.8518 34.5674 16.3501 33.3921 16.431C32.4015 16.4957 31.4109 16.4472 30.3531 16.4472C30.3531 15.994 30.3531 15.6703 30.3531 15.3467C30.3195 13.8901 29.4632 13.0485 27.9521 13C27.7002 12.9838 27.4484 13 27.1965 13C23.7546 13 16.6188 13 13.1768 13C11.9175 13 11.4474 13.3884 11.1116 14.23V14.2462C10.9941 14.5375 10.8933 14.8935 10.7758 15.3143C10.6919 15.6218 10.6247 15.8969 10.5575 16.1559L10.3225 16.9651H9.21432C8.84494 16.9651 8.54272 17.2564 8.54272 17.6124V17.661C8.54272 18.017 8.84494 18.3083 9.21432 18.3083H13.1096C13.479 18.3083 13.7812 18.017 13.7812 17.661V17.6124C13.7812 17.2564 13.479 16.9651 13.1096 16.9651H11.8672L12.2533 15.1363C12.2701 14.8126 12.4044 14.6346 12.5891 14.5051C12.7738 14.4242 13.0425 14.3918 13.3951 14.3918C17.0049 14.3918 24.3086 14.408 27.9185 14.3756C28.6741 14.3756 28.9595 14.5698 28.9427 15.3305C28.8923 17.402 28.9091 19.4898 28.9259 21.5613C28.9259 22.8399 29.5975 23.5034 30.9072 23.5681C31.4444 23.6005 31.9649 23.5681 32.5022 23.5681C34.1812 23.5681 35.8435 23.5681 37.6232 23.5681C37.6232 24.2964 37.6232 24.9438 37.6232 25.5749C37.6568 28.1968 37.7743 27.9864 35.0375 27.954C34.7689 27.954 34.4163 27.7598 34.2652 27.5332C32.8548 25.5426 30.2859 25.5426 28.9091 27.517C28.7748 27.7274 28.4726 27.9378 28.2375 27.9378C26.8439 27.9702 21.236 27.9702 19.8425 27.9378C19.641 27.9378 19.3052 27.8083 19.238 27.6627C18.2474 25.3646 14.9733 25.2675 13.6805 27.6465C13.5294 27.9378 10.4736 27.9054 9.9363 27.8893C9.86914 27.8893 9.70123 27.8083 9.5837 27.6627L10.0035 25.3646H15.9304C16.2998 25.3646 16.602 25.0732 16.602 24.7172V24.6686C16.602 24.3126 16.2998 24.0213 15.9304 24.0213H5.6716C5.30222 24.0213 5 24.3126 5 24.6686V24.7172C5 25.0732 5.30222 25.3646 5.6716 25.3646H8.42519L7.8879 27.954C8.08938 29.6695 8.76099 29.3134 13.3111 29.2811C13.9156 31.0613 14.9062 31.9029 16.3669 31.9676C17.8277 32.0324 18.8519 31.207 19.6242 29.3458C19.6746 29.3296 19.7249 29.3134 19.7921 29.3134C21.0178 29.3134 26.4578 29.3296 27.6835 29.2973C28.2207 29.2811 28.5062 29.3944 28.6909 29.9608C29.0938 31.207 30.3195 32 31.6123 31.9838C32.8884 31.9676 34.0301 31.1746 34.4835 29.977C34.5674 29.7666 34.6514 29.54 34.7353 29.2973C35.5748 29.2973 36.3975 29.3296 37.2035 29.2973C38.1941 29.2487 38.9496 28.6014 38.9832 27.695C39.0168 26.1576 39 24.6201 38.9664 23.0826ZM32.4183 22.1925C30.3363 22.1925 30.3363 22.1925 30.3363 20.1695C30.3363 19.425 30.3363 18.6644 30.3363 17.7905C31.6123 17.7905 32.7877 17.7743 33.963 17.8066C34.1477 17.8066 34.3827 17.9523 34.4835 18.1141C35.323 19.4088 36.1289 20.7359 37.0188 22.1925C35.3901 22.1925 33.8958 22.1925 32.4183 22.1925ZM16.4509 30.6082C15.5106 30.6082 14.8054 29.9284 14.7886 29.0383C14.7719 28.1644 15.4938 27.4361 16.4005 27.4037C17.324 27.3714 18.1299 28.132 18.1131 29.0221C18.1131 29.9123 17.3743 30.6082 16.4509 30.6082ZM31.5284 30.6082C30.6049 30.592 29.8998 29.8961 29.8998 29.006C29.9165 28.132 30.6553 27.4199 31.562 27.4199C32.5022 27.4199 33.2746 28.1968 33.241 29.0869C33.1906 29.9608 32.4519 30.6244 31.5284 30.6082Z" fill="#315188" stroke="#315188" stroke-width="0.2"/>
<path d="M7.83762 21.8526H14.8727C15.2421 21.8526 15.5443 21.5613 15.5443 21.2053V21.1567C15.5443 20.8007 15.2421 20.5094 14.8727 20.5094H7.83762C7.46824 20.5094 7.16602 20.8007 7.16602 21.1567V21.2053C7.16602 21.5613 7.46824 21.8526 7.83762 21.8526Z" fill="#315188" stroke="#315188" stroke-width="0.2"/>
<path d="M16.4509 21.1567V21.2053C16.4509 21.5613 16.7531 21.8526 17.1225 21.8526H19.9936C20.363 21.8526 20.6652 21.5613 20.6652 21.2053V21.1567C20.6652 20.8007 20.363 20.5094 19.9936 20.5094H17.1225C16.7531 20.5094 16.4509 20.8007 16.4509 21.1567Z" fill="#315188" stroke="#315188" stroke-width="0.2"/>
<path d="M16.3838 16.9489H15.4772C15.091 16.9489 14.772 17.2564 14.772 17.6286C14.772 18.0008 15.091 18.3083 15.4772 18.3083H16.3838C16.77 18.3083 17.089 18.0008 17.089 17.6286C17.089 17.2564 16.77 16.9489 16.3838 16.9489Z" fill="#315188" stroke="#315188" stroke-width="0.2"/>
</g>
<defs>
<clipPath id="clip0_1609_6733">
<rect width="34" height="19" fill="white" transform="translate(5 13)"/>
</clipPath>
</defs>
</svg>
