<svg xmlns="http://www.w3.org/2000/svg" width="44" height="44" fill="none" viewBox="0 0 44 44">
    <path fill="#fff" stroke="#fff" stroke-width=".7" d="M32.613 24.323h-1.82c-.246 1.046-.661 2.046-1.228 2.96l1.287 1.286c.151.152.151.397 0 .548l-2.735 2.737c-.151.151-.396.151-.548 0l-1.287-1.287c-.914.566-1.913.98-2.96 1.227v1.819c0 .214-.173.387-.386.387h-3.872c-.213 0-.387-.173-.387-.387v-1.82c-1.046-.246-2.045-.661-2.959-1.228l-1.287 1.289c-.152.151-.397.151-.548 0l-2.737-2.737c-.151-.151-.151-.396 0-.548l1.287-1.287c-.566-.914-.98-1.913-1.226-2.96h-1.82c-.214 0-.387-.173-.387-.386v-3.872c0-.213.173-.387.387-.387h1.82c.246-1.046.661-2.046 1.228-2.96l-1.289-1.286c-.151-.152-.151-.397 0-.548l2.737-2.737c.154-.145.394-.145.548 0l1.287 1.287c.914-.566 1.913-.98 2.96-1.226v-1.82c0-.214.173-.387.386-.387h3.872c.213 0 .387.173.387.387v1.82c1.046.246 2.046.661 2.96 1.228l1.286-1.287c.152-.152.397-.152.548 0l2.737 2.737c.151.15.151.396 0 .547l-1.287 1.287c.566.914.98 1.913 1.227 2.958h1.819c.214 0 .387.174.387.387v3.872c0 .213-.173.387-.387.387zm-.387-3.871h-1.742c-.184 0-.343-.13-.38-.31-.236-1.165-.696-2.273-1.354-3.263-.102-.154-.082-.358.049-.488l1.233-1.234-2.19-2.19-1.233 1.234c-.13.13-.334.151-.488.05-.99-.659-2.098-1.119-3.263-1.355-.18-.037-.31-.196-.31-.38v-1.742h-3.096v1.742c0 .184-.13.343-.31.38-1.165.236-2.273.696-3.263 1.354-.154.102-.358.082-.488-.049l-1.234-1.234-2.19 2.19 1.234 1.234c.13.13.15.334.049.487-.658.99-1.118 2.099-1.355 3.264-.037.18-.195.31-.379.31H9.774v3.096h1.742c.184 0 .343.13.38.31.236 1.165.696 2.273 1.354 3.263.102.154.082.358-.049.488l-1.234 1.234 2.19 2.19 1.234-1.234c.13-.13.334-.15.488-.049.99.658 2.098 1.118 3.263 1.355.18.037.31.195.31.379v1.742h3.096v-1.742c0-.184.13-.343.31-.38 1.165-.236 2.273-.696 3.263-1.354.153-.102.357-.082.488.049l1.234 1.233 2.19-2.19-1.235-1.233c-.13-.13-.15-.334-.048-.488.658-.99 1.118-2.098 1.355-3.263.036-.18.195-.31.379-.31h1.742v-3.096z"/>
    <path fill="#fff" stroke="#fff" stroke-width=".7" d="M21 26.258c-2.352 0-4.258-1.906-4.258-4.258 0-2.352 1.906-4.258 4.258-4.258 2.352 0 4.258 1.906 4.258 4.258-.003 2.35-1.908 4.255-4.258 4.258zm0-7.742c-1.924 0-3.484 1.56-3.484 3.484s1.56 3.484 3.484 3.484 3.484-1.56 3.484-3.484c-.002-1.923-1.56-3.482-3.484-3.484z"/>
</svg>
