<svg xmlns="http://www.w3.org/2000/svg" width="44" height="44" fill="none" viewBox="0 0 44 44">
    <path fill="#61697C" fill-rule="evenodd" stroke="#61697C" stroke-width=".5" d="M28.514 13.001c.709 0 1.333.013 1.956-.004.454-.012.647.17.646.649-.008 6.906-.01 13.812.003 20.718 0 .553-.28.637-.714.636-1.916-.006-3.832-.002-5.747-.002H13.905c-.88-.001-.905-.027-.905-.896V13.907c0-.895.011-.905.898-.906h1.699c0-.39.017-.716-.004-1.038-.031-.476.178-.668.633-.663.854.011 1.707-.012 2.56.01.337.008.489-.107.61-.434.442-1.19 1.46-1.883 2.674-1.876 1.221.007 2.194.687 2.653 1.903.116.306.258.414.573.406.834-.02 1.67.013 2.503-.012.541-.017.77.2.72.754-.027.284-.005.573-.005.95zm-14.627.919v20.185H30.22V13.91h-1.707c0 .41.002.792 0 1.173-.005.732-.064.795-.784.795-2.827.002-5.654 0-8.48 0-1.006 0-2.012-.01-3.017.005-.462.007-.66-.19-.64-.66.018-.42.004-.843.004-1.303h-1.71zm2.566 1.02h11.184v-2.724c-.087-.018-.124-.031-.162-.031-.89-.003-1.781-.02-2.671.001-.472.012-.71-.112-.79-.65-.148-.992-1.008-1.679-1.96-1.679-.95 0-1.81.688-1.958 1.68-.08.538-.32.66-.79.649-.941-.022-1.883-.007-2.853-.007v2.76z" clip-rule="evenodd"/>
    <path fill="#61697C" fill-rule="evenodd" stroke="#61697C" stroke-width=".5" d="M24.732 20.725c-1.155 0-2.31.002-3.466-.002-.308 0-.668.002-.68-.424-.012-.471.357-.454.691-.454 2.273.003 4.546.002 6.82.002.037 0 .075.002.113 0 .316-.018.598.058.599.439 0 .393-.314.435-.61.436-1.156.005-2.312.002-3.467.003zM24.669 25.881c-1.136 0-2.273-.003-3.409.002-.315.002-.66.014-.676-.412-.015-.425.319-.458.643-.458h6.93c.317 0 .662.017.649.448-.013.421-.353.424-.673.422-1.154-.005-2.31-.002-3.464-.002zM24.733 30.182c1.136 0 2.272.002 3.407-.002.319 0 .66.006.667.43.009.437-.351.436-.658.437-2.309.003-4.618.003-6.927 0-.317 0-.654-.027-.636-.461.016-.388.323-.407.627-.406 1.174.005 2.347.002 3.52.002zM16.803 20.87c.673-.71 1.191-1.302 1.765-1.831.16-.147.482-.11.73-.157-.043.253-.002.584-.145.746-.594.674-1.247 1.296-1.872 1.943-.275.286-.533.333-.824.022-.327-.35-.694-.664-.989-1.039-.107-.136-.055-.402-.076-.61.218.002.503-.084.64.024.277.218.475.542.77.902zM16.82 31.2c.648-.689 1.163-1.282 1.733-1.815.162-.152.578-.26.71-.16.31.238.122.537-.116.777-.607.611-1.218 1.22-1.808 1.848-.328.35-.61.401-.947.017-.29-.33-.645-.608-.905-.96-.111-.151-.054-.431-.073-.652.22.017.496-.044.645.07.266.203.456.511.762.875zM16.86 26.001l1.678-1.786c.222-.236.501-.483.75-.142.1.137-.003.561-.15.729-.584.66-1.228 1.265-1.836 1.903-.322.34-.607.327-.917-.008-.3-.323-.65-.605-.908-.958-.109-.148-.04-.432-.051-.654.216.016.485-.045.636.064.273.197.474.495.797.852z" clip-rule="evenodd"/>
</svg>
