<svg width="44" height="44" viewBox="0 0 44 44" fill="none" xmlns="http://www.w3.org/2000/svg">
<path d="M14.2559 24.2959C12.8086 23.8799 11.7539 23.3701 11.0918 22.7666C10.4355 22.1572 10.1074 21.4072 10.1074 20.5166C10.1074 19.5088 10.5088 18.6768 11.3115 18.0205C12.1201 17.3584 13.1689 17.0273 14.458 17.0273C15.3369 17.0273 16.1191 17.1973 16.8047 17.5371C17.4961 17.877 18.0293 18.3457 18.4043 18.9434C18.7852 19.541 18.9756 20.1943 18.9756 20.9033H17.2793C17.2793 20.1299 17.0332 19.5234 16.541 19.084C16.0488 18.6387 15.3545 18.416 14.458 18.416C13.626 18.416 12.9756 18.6006 12.5068 18.9697C12.0439 19.333 11.8125 19.8398 11.8125 20.4902C11.8125 21.0117 12.0322 21.4541 12.4717 21.8174C12.917 22.1748 13.6699 22.5029 14.7305 22.8018C15.7969 23.1006 16.6289 23.4316 17.2266 23.7949C17.8301 24.1523 18.2754 24.5713 18.5625 25.0518C18.8555 25.5322 19.002 26.0977 19.002 26.748C19.002 27.7852 18.5977 28.6172 17.7891 29.2441C16.9805 29.8652 15.8994 30.1758 14.5459 30.1758C13.667 30.1758 12.8467 30.0088 12.085 29.6748C11.3232 29.335 10.7344 28.8721 10.3184 28.2861C9.9082 27.7002 9.70312 27.0352 9.70312 26.291H11.3994C11.3994 27.0645 11.6836 27.6768 12.252 28.1279C12.8262 28.5732 13.5908 28.7959 14.5459 28.7959C15.4365 28.7959 16.1191 28.6143 16.5938 28.251C17.0684 27.8877 17.3057 27.3926 17.3057 26.7656C17.3057 26.1387 17.0859 25.6553 16.6465 25.3154C16.207 24.9697 15.4102 24.6299 14.2559 24.2959ZM21.9934 30H20.3059V17.2031H21.9934V30ZM24.0971 30V17.2031H28.2807C29.6694 17.2031 30.7124 17.4902 31.4096 18.0645C32.1128 18.6387 32.4643 19.4883 32.4643 20.6133C32.4643 21.2109 32.2944 21.7412 31.9546 22.2041C31.6147 22.6611 31.1518 23.0156 30.5659 23.2676C31.2573 23.4609 31.8022 23.8301 32.2007 24.375C32.605 24.9141 32.8071 25.5586 32.8071 26.3086C32.8071 27.457 32.435 28.3594 31.6909 29.0156C30.9468 29.6719 29.895 30 28.5356 30H24.0971ZM25.7846 24.0146V28.6201H28.5708C29.3559 28.6201 29.9741 28.418 30.4253 28.0137C30.8823 27.6035 31.1108 27.041 31.1108 26.3262C31.1108 24.7852 30.2729 24.0146 28.5971 24.0146H25.7846ZM25.7846 22.6611H28.3335C29.0718 22.6611 29.6606 22.4766 30.1001 22.1074C30.5454 21.7383 30.768 21.2373 30.768 20.6045C30.768 19.9014 30.563 19.3916 30.1528 19.0752C29.7427 18.7529 29.1186 18.5918 28.2807 18.5918H25.7846V22.6611Z" fill="#61697C"/>
</svg>
