<svg width="44" height="44" viewBox="0 0 44 44" fill="none" xmlns="http://www.w3.org/2000/svg">
<g clip-path="url(#clip0_1743_6991)">
<path d="M28.4 18.1C28.3 18.2 28.2 18.2 28.1 18.2C27.4 18.7 26.7 18.6 25.9 18.2C25.8 18.1 25.7 18.1 25.6 18.1C25.2 18.1 24.8 18.1 24.4 18.3C23.9 18.6 23.3001 18.5 22.7001 18.3C22.6001 18.2 22.4001 18.2 22.2001 18.2C22.0001 18.2 21.8 18.2 21.6 18.2C21.4 18.2 21.2 18.3 21 18.3C20.5 18.5 20 18.5 19.4 18.3C19.1 18.2 18.7 18.2 18.3 18.3C18.2 18.3 18.1 18.6 18.1 18.7C18.1 18.9 18.2 19 18.4 19.1C19.3 19.7 20 20.5 20.6 21.4C20.7 21.5 20.7 21.6 20.8 21.7C20.9 21.9 20.9001 22.1 20.7001 22.2C20.5001 22.3 20.4 22.2 20.3 22C20 21.6 19.8 21.2 19.4 20.8C19 20.4 18.5 19.9 18 19.6C17.3 19 17.2 18.1 18 17.6C19 16.9 19.9 16.3 20.9 15.6C21.4 15.2 21.6 14.6 21.5 14C21.3 13.4 20.8001 13 20.2001 13C19.9001 13 19.6 13.1 19.4 13.3C17.6 14.5 15.9 15.8 14.1 17C13.6 17.4 13.4 17.9 13.5 18.5C13.8 19.8 14.1 21.1 14.4 22.4C14.6 23.3 15.2 24 15.9 24.5C16.7 25.1 17.5 25.5 18.5 25.8H18.6C19 26 19 26.1 19 26.3C18.9 26.5 18.8 26.6 18.6 26.5C18.3 26.4 18.1 26.3 17.8 26.2C17.7 26.2 17.6 26.1 17.5 26.1C17.5 26.2 17.5 26.3 17.5 26.4C17.5 28.6 17.5 30.8 17.5 33C17.5 33.1 17.5 33.2 17.5 33.3C17.4 33.4 17.3 33.5 17.2 33.5C17.1 33.5 17 33.4 16.9 33.3C16.9 33.2 16.9 33.1 16.9 33.1C16.9 30.8 16.9 28.4 16.9 26.1C16.9 25.9 16.8 25.8 16.7 25.7C16.2 25.3 15.6 24.9 15.1 24.5C14.5 24 14.2 23.4 14.1 22.7C13.8 21.4 13.5 20 13.2 18.7V18.6C12.3 18.6 11.5 18.8 10.8 19.3C10.2 19.7 9.60005 20 8.90005 20.2C6.80005 20.7 4.50005 19.6 3.50005 17.6C3.40005 17.5 3.40005 17.3 3.50005 17.2C3.60005 16.9 3.70005 17 3.90005 17C4.50005 17.2 5.20005 17.3 5.80005 17.5C6.30005 17.6 6.70005 17.5 7.10005 17.2C7.50005 16.8 7.80005 16.5 8.20005 16.1C8.50005 15.8 8.60005 15.4 8.50005 14.9C8.40005 14.4 8.20005 13.9 8.10005 13.4C8.00005 13 7.70005 12.7 7.20005 12.6C6.50005 12.4 5.70005 12.2 5.00005 12C4.90005 12 4.70005 11.8 4.70005 11.8C4.70005 11.7 4.80005 11.5 4.90005 11.4C6.80005 10 9.50005 10.1 11.2 11.8C12.1 12.7 13.2 13.1 14.4 13.1C14.6 13.1 14.8 13.1 14.9 13.1C15 13 15 12.8 15 12.6C15.2 11.8 15.7 11.3 16.4 11.1C17.2 10.9 17.9 11.1 18.4 11.7C18.5 11.8 18.5 11.8 18.6 11.9C19 11.3 19.6 11 20.4 11C21.2 11 21.7 11.4 22.1 12.1C22.6 11.6 23.2 11.3 23.9 11.4C24.6 11.5 25.1 11.9 25.5 12.5C25.6 12.4 25.7 12.3 25.8 12.2C26.7 11.4 28.0001 11.6 28.7001 12.5C28.8001 12.7 28.9 12.7 29.1 12.7C30 12.7 30.7 12.4 31.4 11.9C33.8 10.2 37.1 11 38.5 13.5C38.5 13.6 38.6 13.6 38.6 13.7C38.6 13.8 38.6 14 38.6 14.1C38.5 14.2 38.4 14.2 38.3 14.2C37.6 14 36.9 13.9 36.3 13.7C35.8 13.6 35.4 13.7 35 14C34.7 14.4 34.3 14.7 34 15C33.7 15.3 33.5001 15.7 33.7001 16.2C33.8001 16.7 34 17.2 34.1 17.7C34.2 18.2 34.5 18.4 35 18.6C35.7 18.8 36.5001 19 37.2001 19.2C37.3001 19.2 37.5 19.4 37.5 19.5C37.5 19.6 37.4 19.8 37.3 19.8C35.4 21.3 32.6 21.1 30.9 19.3C30.5 18.9 30 18.6 29.5 18.4C29.4 18.4 29.3001 18.3 29.2001 18.3C29.2001 18.7 29.2 19.2 29.1 19.6C28.9 21.3 28.2 22.8 27.1 24.1C27 24.3 26.9 24.4 26.9 24.7C26.9 27.5 26.9 30.3 26.9 33.2C26.9 33.3 26.9 33.4 26.9 33.4C26.9 33.6 26.8 33.7 26.6 33.7C26.4 33.7 26.3 33.6 26.3 33.4V33.3C26.3 30.4 26.3 27.6 26.3 24.7C26.3 24.4 26.4 24.1 26.6 23.8C27.9 22.3 28.6 20.5 28.5 18.5C28.5 18.3 28.5 18.2 28.4 18.1ZM5.70005 11.5C5.80005 11.5 5.90005 11.6 5.90005 11.6C6.40005 11.7 6.90005 11.9 7.30005 12C8.00005 12.2 8.50005 12.6 8.70005 13.3C8.80005 13.8 9.00005 14.3 9.10005 14.8C9.30005 15.5 9.10005 16 8.60005 16.5C8.20005 16.9 7.90005 17.3 7.50005 17.6C7.00005 18.1 6.40005 18.3 5.70005 18.1C5.30005 18 5.00005 17.9 4.60005 17.8C4.50005 17.8 4.40005 17.8 4.30005 17.7C4.40005 17.9 4.40005 17.9 4.50005 18C5.90005 19.8 8.40005 20.1 10.3 18.8C11.1 18.2 12 17.9 13 17.9C13.1 17.9 13.2 17.9 13.2 17.7C13.3 17.2 13.6 16.9 14 16.6C14.3 16.4 14.6 16.2 14.9 16C15 15.9 15 15.8 15 15.8C15 15.1 15 14.5 15 13.8C15 13.7 15 13.7 15 13.6C14.8 13.6 14.5 13.6 14.3 13.6C13 13.6 11.8 13.2 10.8 12.2C9.80005 11.2 8.60005 10.8 7.10005 11C6.70005 11.1 6.20005 11.2 5.70005 11.5ZM37.7001 13.4C37.7001 13.3 37.7001 13.3 37.7001 13.4C37.7001 13.3 37.6 13.2 37.6 13.1C36.1 11.3 33.7 11 31.8 12.3C31.1 12.8 30.2 13.1 29.3 13.1C29.2 13.1 29.1 13.1 29.1 13.1C29.1 13.3 29.1 13.5 29.1 13.7C29.1 14.9 29.1 16.1 29.1 17.3C29.1 17.5 29.1 17.6 29.3 17.6C30 17.8 30.7001 18.2 31.2001 18.8C32.3001 19.9 33.6001 20.3 35.2001 20C35.6001 19.9 36.0001 19.7 36.4001 19.6V19.5C36.3001 19.5 36.2 19.4 36.1 19.4C35.7 19.3 35.2 19.2 34.8 19C34.1 18.8 33.7 18.4 33.5 17.7C33.4 17.2 33.2 16.7 33.1 16.2C32.9 15.5 33.1 14.9 33.6 14.4C33.9 14.1 34.3 13.7 34.6 13.4C35.1 13 35.7001 12.8 36.4001 13C36.8001 13.1 37.3001 13.3 37.7001 13.4ZM22.4 14.9C22.4 15.4 22.4 16 22.4 16.5C22.4 17.3 23 18 23.8 17.9C24.6 17.9 25.2001 17.3 25.2001 16.5C25.2001 15.4 25.2001 14.3 25.2001 13.2C25.2001 13.1 25.2001 12.9 25.2001 12.8C25.0001 12.2 24.4001 11.7 23.7001 11.8C23.0001 11.9 22.5 12.4 22.5 13.1C22.4 13.7 22.4 14.3 22.4 14.9ZM28.5 15.1C28.5 14.6 28.5 14.1 28.5 13.6C28.5 12.8 27.9001 12.2 27.2001 12.2C26.5001 12.2 25.8 12.8 25.8 13.5C25.8 14.6 25.8 15.6 25.8 16.7C25.8 17.5 26.5001 18 27.2001 18C27.9001 18 28.5 17.4 28.5 16.6C28.5 16.1 28.5 15.6 28.5 15.1ZM15.7 15.4C15.8 15.3 15.9 15.3 16 15.2C16.6 14.7 17.3 14.3 17.9 13.8C18.5 13.4 18.5 13.4 18.4 12.7C18.4 12 17.9 11.5 17.2 11.4C16.6 11.3 16 11.7 15.8 12.3C15.8 12.4 15.7 12.5 15.7 12.6C15.7 13.6 15.7 14.5 15.7 15.4ZM21.7001 13.1C21.8001 12.5 21.5 12 21.1 11.7C20.6 11.4 20 11.4 19.6 11.8C19.2 12.1 19 12.6 19.1 13.1C19.9 12.4 20.8001 12.4 21.7001 13.1ZM21.7001 16C20.9001 16.5 20.2 17.1 19.5 17.6C19.8 17.9 20.2 18 20.6 17.9C21.5 17.8 21.9001 17 21.7001 16Z" fill="#B6B6B6" stroke="#B6B6B6" stroke-miterlimit="10"/>
</g>
<defs>
<clipPath id="clip0_1743_6991">
<rect width="36.1" height="24" fill="white" transform="translate(3 10)"/>
</clipPath>
</defs>
</svg>
