<svg xmlns="http://www.w3.org/2000/svg" width="44" height="44" fill="none" viewBox="0 0 44 44">
    <path fill="#61697C" d="M32.922 25.845c1.463-2.032 1.432-4.752-.063-6.76-.806-1.107-1.874-2.009-3.1-2.65.641 2.017.396 4.207-.671 6.042-.728 1.241-1.724 2.316-2.918 3.154-1.218.854-2.57 1.503-4.009 1.922-1.526.45-3.107.672-4.697.672-.3 0-.75-.024-1.336-.063 2.135 1.336 4.634 2.024 7.172 1.96.893 0 1.787-.078 2.672-.237 1.637 1.155 3.535 1.89 5.535 2.143.119.008.237-.024.332-.103.103-.079.174-.197.198-.324 0-.055 0-.095.016-.095s.016-.031-.008-.095l-.032-.087-.04-.07c-.015-.032-.031-.056-.055-.08-.016-.024-.04-.047-.063-.071l-.071-.071-.063-.071c-.048-.064-.166-.182-.348-.372-.182-.19-.317-.332-.396-.435-.079-.103-.197-.253-.34-.435-.142-.182-.268-.371-.38-.569-.102-.198-.213-.42-.308-.656 1.186-.672 2.206-1.566 2.973-2.65z"/>
    <path stroke="#61697C" stroke-linecap="round" stroke-linejoin="round" stroke-miterlimit="10" stroke-width="1.3" d="M27.704 18.863c0 3.788-4.412 6.863-9.852 6.863-1.012 0-1.985-.102-2.902-.3-.696-.15-5.827 2.751-5.827 2.751s2.53-3.953 1.953-4.332C9.178 22.595 8 20.823 8 18.863 8 15.076 12.412 12 17.852 12s9.852 3.068 9.852 6.863z"/>
</svg>
