<svg width="44" height="44" viewBox="0 0 44 44" fill="none" xmlns="http://www.w3.org/2000/svg">
<path fill-rule="evenodd" clip-rule="evenodd" d="M26.4107 26.0666C26.4107 26.7944 26.3936 27.52 26.4246 28.2431C26.4312 28.3971 26.595 28.5624 26.7182 28.6901C27.4973 29.4967 28.2864 30.2933 29.0697 31.0956C29.1798 31.2085 29.2867 31.3281 29.3762 31.458C29.5495 31.7096 29.552 31.9747 29.3457 32.2035C29.1387 32.4332 28.8761 32.5019 28.5944 32.3494C28.48 32.2875 28.3765 32.1962 28.2835 32.1021C27.8205 31.6349 27.364 31.1601 26.901 30.6923C26.7658 30.5561 26.6167 30.4342 26.3948 30.2343C26.3948 30.5764 26.3982 30.827 26.3941 31.0773C26.3868 31.509 26.1488 31.8024 25.7976 31.82C25.4712 31.8365 25.1844 31.5804 25.1273 31.1799C25.0863 30.8932 25.0897 30.6 25.0729 30.3041C24.4866 30.8917 23.9157 31.4666 23.3414 32.0377C23.2301 32.148 23.1168 32.2654 22.9841 32.3422C22.7036 32.5044 22.3665 32.4234 22.1805 32.1626C21.9914 31.8965 22.0038 31.6188 22.2213 31.3868C22.6799 30.8977 23.1556 30.4254 23.625 29.9477C24.0436 29.5218 24.4549 29.0876 24.8864 28.676C25.0988 28.4736 25.1842 28.2539 25.1766 27.9592C25.1608 27.3332 25.1717 26.7064 25.1717 26.0465C24.1854 26.0465 23.2391 26.0448 22.2926 26.047C20.934 26.0503 19.5755 26.0515 18.217 26.0636C17.6673 26.0686 17.1948 25.8998 16.8533 25.4486C16.2387 24.6364 16.525 23.5045 17.4464 23.0568C17.5545 23.0044 17.6668 22.9603 17.8062 22.8998C17.8062 21.3428 17.8062 19.7785 17.8062 18.1848C18.2382 18.1537 18.6409 18.1249 19.0839 18.093C19.0839 19.6721 19.0839 21.2098 19.0839 22.7732C23.5003 22.7732 27.8793 22.7732 32.2791 22.7732C32.2791 19.4973 32.2791 16.242 32.2791 12.9586C27.8954 12.9586 23.5257 12.9586 19.1157 12.9586C19.1157 13.6601 19.1157 14.3697 19.1157 15.1123C18.6658 15.1123 18.255 15.1123 17.8062 15.1123C17.8062 14.3481 17.8062 13.5882 17.8062 12.781C17.6182 12.781 17.4669 12.783 17.3156 12.7808C16.8233 12.773 16.5028 12.5162 16.5069 12.1352C16.5113 11.7434 16.8108 11.5305 17.3419 11.5398C18.3756 11.5578 19.4093 11.5837 20.443 11.5909C21.9096 11.601 23.3763 11.5967 24.843 11.598C24.913 11.598 24.9826 11.5907 25.0919 11.5847C25.0919 11.1277 25.0892 10.6868 25.0927 10.2458C25.0966 9.74295 25.347 9.44599 25.7534 9.45326C26.1385 9.46028 26.3772 9.75524 26.3826 10.2431C26.3875 10.6747 26.3836 11.1066 26.3836 11.6015C26.5371 11.6015 26.6745 11.6015 26.8117 11.6015C29.3125 11.601 31.8129 11.6 34.3137 11.6C34.8258 11.6 35.0367 11.7469 35.0418 12.1036C35.0472 12.4901 34.7399 12.7662 34.2893 12.7758C34.1248 12.7793 33.96 12.7763 33.7584 12.7763C33.7584 13.8377 33.7582 14.86 33.7584 15.8823C33.7592 18.106 33.7648 20.3297 33.7557 22.5534C33.7548 22.8221 33.8107 22.964 34.0777 23.0709C34.7064 23.3229 35.0694 23.9231 35.0494 24.5715C35.0296 25.2193 34.6469 25.7618 34.0218 25.9933C33.8692 26.0498 33.6947 26.0633 33.5305 26.0631C31.2464 26.0598 28.962 26.0505 26.6779 26.0438C26.6081 26.044 26.5371 26.0555 26.4107 26.0666ZM25.759 24.1877C24.5332 24.1877 23.3075 24.1872 22.0817 24.1877C20.772 24.1882 19.462 24.191 18.1523 24.1905C17.946 24.1905 17.7132 24.2158 17.7569 24.4762C17.7788 24.6061 17.9958 24.7242 18.1469 24.8002C18.2445 24.8491 18.3829 24.814 18.503 24.814C23.4056 24.813 28.3081 24.8118 33.2107 24.81C33.3069 24.81 33.4226 24.8363 33.4941 24.7914C33.5988 24.7255 33.7406 24.6051 33.7394 24.5098C33.7379 24.4049 33.6108 24.2527 33.5048 24.2108C33.3677 24.1564 33.1973 24.1872 33.0411 24.187C30.6137 24.1865 28.1861 24.1867 25.759 24.1877Z" fill="white"/>
<path fill-rule="evenodd" clip-rule="evenodd" d="M25.8166 21.4576C25.3802 21.4576 25.2994 21.3931 25.3143 20.9552C25.328 20.5539 25.1054 20.3934 24.7912 20.2635C24.4969 20.1416 24.2508 20.1245 24.0077 20.3854C23.7061 20.7092 23.5977 20.7029 23.3258 20.4298C23.0439 20.1468 23.0285 19.9745 23.328 19.6899C23.6021 19.4293 23.5647 19.1764 23.4415 18.8599C23.316 18.5371 23.1493 18.346 22.7886 18.3448C22.3304 18.3432 22.1298 18.0548 22.309 17.6242C22.36 17.5018 22.5828 17.3854 22.7258 17.3867C23.0932 17.3897 23.2945 17.2394 23.4339 16.8936C23.5726 16.5494 23.6084 16.2695 23.2967 16.0059C23.0385 15.7877 23.0666 15.5567 23.3009 15.3144C23.5323 15.0747 23.7571 15.0298 23.9721 15.2981C24.2279 15.6169 24.5037 15.5918 24.8376 15.4484C25.1671 15.3069 25.3485 15.1053 25.3106 14.7223C25.2782 14.3914 25.439 14.2575 25.759 14.2565C26.0705 14.2553 26.2867 14.3308 26.2633 14.7045C26.2403 15.0689 26.3787 15.2974 26.7231 15.4426C27.0734 15.5903 27.3533 15.6159 27.6169 15.2841C27.8422 15.0007 28.0665 15.1038 28.2867 15.328C28.5083 15.5535 28.5503 15.7649 28.2969 15.9836C28.0329 16.2116 27.977 16.4634 28.1073 16.804C28.2498 17.177 28.4346 17.4233 28.8656 17.3766C29.2088 17.3395 29.2891 17.5532 29.2911 17.8609C29.2928 18.1707 29.2103 18.3754 28.8683 18.3485C28.4895 18.3189 28.2701 18.4955 28.1319 18.8554C27.9984 19.203 27.9875 19.4887 28.2967 19.7453C28.5767 19.9775 28.4815 20.2045 28.2616 20.43C28.0438 20.6532 27.8251 20.7059 27.6189 20.4463C27.3685 20.1313 27.0924 20.1373 26.7524 20.274C26.4009 20.4155 26.233 20.6394 26.2611 21.03C26.2867 21.3756 26.0924 21.4887 25.8166 21.4576ZM27.4075 17.8865C27.4104 16.9284 26.706 16.193 25.7817 16.1885C24.895 16.1843 24.1517 16.948 24.1549 17.8599C24.1583 18.7937 24.8657 19.5228 25.7734 19.5286C26.6958 19.5341 27.4048 18.8218 27.4075 17.8865Z" fill="white"/>
<path fill-rule="evenodd" clip-rule="evenodd" d="M11.958 13.4745C11.9621 12.4371 12.7583 11.6282 13.7683 11.6355C14.7658 11.6428 15.5774 12.4845 15.565 13.4991C15.5525 14.5259 14.7283 15.3593 13.7427 15.342C12.7234 15.324 11.9541 14.5189 11.958 13.4745Z" fill="white"/>
<path fill-rule="evenodd" clip-rule="evenodd" d="M12.0034 16.001C12.0034 16.001 14.5826 15.7597 15.5733 15.7544C17.304 15.7454 19.0348 15.7446 20.7653 15.7554C21.2874 15.7587 21.6513 16.0895 21.6613 16.5236C21.6726 17.012 21.3309 17.332 20.7651 17.3716C19.3394 17.4722 17.9138 17.5756 16.4883 17.6791C16.4539 17.6816 16.4207 17.6987 16.3509 17.7198C16.2838 18.4439 16.2135 19.178 16.1481 19.9129C15.9465 22.1739 16.1989 24.4272 16.2655 26.6833C16.3124 28.2755 16.3936 29.8664 16.4459 31.4583C16.4642 32.0131 16.1605 32.3845 15.7073 32.4226C15.1749 32.4673 14.8559 32.1874 14.7695 31.5864C14.4786 29.5629 14.1913 27.5388 13.9006 25.515C13.8799 25.3701 13.8445 25.2273 13.7676 25.0791C13.6709 25.7673 13.5723 26.4553 13.4776 27.1438C13.278 28.5955 13.0805 30.0475 12.8808 31.4992C12.8706 31.5719 12.8474 31.6429 12.8296 31.7146C12.7044 32.2192 12.3627 32.4743 11.8833 32.4214C11.4537 32.374 11.1464 32.0128 11.1625 31.5145C11.2101 30.0462 11.2709 28.5779 11.3329 27.1102C11.4132 25.2108 11.5006 23.3116 11.5806 21.412C11.586 21.2813 11.5567 21.1486 11.4784 21.0134C11.2304 22.1052 10.9848 23.1975 10.7337 24.2885C10.6363 24.7119 10.3856 24.9713 10.0561 25.0099C9.72247 25.049 9.37368 24.8744 9.27288 24.5501C9.20673 24.337 9.20014 24.0851 9.23382 23.8614C9.55479 21.7433 9.89113 19.6277 10.2214 17.5111C10.3224 16.8645 10.6592 16.4323 11.2824 16.2518C11.6158 16.1552 11.9824 15.9237 12.2726 15.9999" fill="white"/>
</svg>
