<svg width="14" height="23" viewBox="0 0 14 23" fill="none" xmlns="http://www.w3.org/2000/svg">
<path d="M13.5834 1.58654C13.5834 0.528846 13.0545 0 11.9968 0C8.82375 0 5.75644 0 2.58336 0C1.52567 0 0.996826 0.634615 0.996826 1.69231C0.996826 7.93269 0.996826 14.1731 0.996826 20.4135C0.996826 21.4712 1.52567 22.1058 2.58336 22.1058C4.1699 22.1058 5.75644 22.1058 7.34298 22.1058C8.82375 22.1058 10.4103 22.1058 11.8911 22.1058C12.9487 22.1058 13.4776 21.5769 13.4776 20.4135V7.93269C13.5834 5.81731 13.5834 3.70192 13.5834 1.58654ZM7.9776 20.625C7.76606 20.8365 7.55452 20.9423 7.34298 20.9423C6.81413 20.9423 6.39106 20.5192 6.39106 19.9904C6.39106 19.4615 6.81413 19.0385 7.34298 19.0385C7.87183 19.0385 8.2949 19.4615 8.2949 19.9904C8.18913 20.2019 8.08336 20.4135 7.9776 20.625ZM9.14106 1.79808C9.14106 1.90385 9.03529 2.00962 8.92952 2.00962H5.75644C5.65067 2.00962 5.5449 1.90385 5.5449 1.79808C5.5449 1.69231 5.65067 1.58654 5.75644 1.58654H8.92952C9.03529 1.48077 9.14106 1.58654 9.14106 1.79808ZM12.2084 3.49038V17.875H2.26606V3.49038H12.2084Z" fill="#AEAFB4"/>
</svg>
