<svg width="24" height="20" viewBox="0 0 24 20" fill="none" xmlns="http://www.w3.org/2000/svg">
    <path d="M23.322 1.28v14.185c-.116.698-.697 1.163-1.395 1.163H2.276c-.581 0-.93-.233-1.163-.814 0-.116-.116-.233-.116-.349V1.163c0-.233.116-.582.349-.698C1.694.116 2.043 0 2.392 0h19.651c.35 0 .698.116.93.465.233.233.233.465.35.814zm-.93 11.627V1.628c0-.349-.116-.581-.465-.581H2.276c-.233-.117-.349.116-.349.465v11.395h20.465zM12.16 15.465c.348 0 .697-.349.697-.698 0-.348-.348-.697-.697-.697-.35 0-.698.349-.698.697 0 .35.349.698.698.698zM9.95 17.674h4.419c0 .117 0 .35.116.466 0 .58.465.93.93.93h.35a.5.5 0 0 1 .464.465.5.5 0 0 1-.465.465H8.555c-.233-.116-.349-.233-.349-.465a.5.5 0 0 1 .465-.465h.582c.465-.117.697-.465.813-.93-.116-.117-.116-.35-.116-.466z" fill="#AEAFB4"/>
</svg>
