<svg width="54" height="23" viewBox="0 0 54 23" fill="none" xmlns="http://www.w3.org/2000/svg">
<path d="M38.3416 6.31813C38.4486 6.20919 38.5556 6.10026 38.6626 5.99133C38.9835 5.66453 39.3045 5.55559 39.7325 5.55559C40.2675 5.55559 40.8025 5.55559 41.3374 5.55559C41.8724 5.55559 42.3004 5.88239 42.4074 6.42706C42.5144 6.97173 42.1934 7.40746 41.5514 7.62532C40.9095 7.84319 40.2675 7.95212 39.5185 8.16999C39.7325 8.38786 39.8395 8.60572 40.0535 8.82359C41.4444 10.1308 41.8724 11.6559 41.8724 13.5077C41.7654 16.34 41.8724 19.0633 41.8724 21.8956C41.8724 22.6581 41.5514 22.9849 40.8025 22.9849C39.7325 22.9849 38.7696 22.9849 37.6996 22.9849C37.0576 22.9849 36.7366 22.6581 36.7366 22.0045C36.7366 21.5688 36.7366 21.133 36.7366 20.5884C36.7366 20.3705 36.6296 20.3705 36.5226 20.3705C36.4156 20.3705 36.2017 20.3705 36.0947 20.3705C29.8889 20.3705 23.7902 20.3705 17.5844 20.3705C17.4774 20.3705 17.2634 20.3705 17.1564 20.3705C17.1564 20.9152 17.1564 21.4598 17.1564 21.8956C17.1564 22.6581 16.8354 22.9849 16.0865 22.9849C15.0165 22.9849 14.0536 22.9849 12.9836 22.9849C12.3416 22.9849 12.0206 22.6581 12.0206 22.0045C12.0206 18.7365 12.0206 15.5774 12.0206 12.3095C12.0206 11.3291 12.3416 10.4576 12.9836 9.69506C13.4116 9.15039 13.8396 8.71466 14.2675 8.16999C13.6256 7.95212 13.0906 7.84319 12.4486 7.62532C12.4486 7.62532 12.3416 7.62532 12.1276 7.62532C11.6996 7.51639 11.3787 6.97173 11.3787 6.53599C11.3787 5.99133 11.8066 5.66453 12.3416 5.66453C12.9836 5.66453 13.6256 5.66453 14.2675 5.66453C14.5885 5.66453 14.8025 5.88239 15.0165 5.99133C15.1235 6.10026 15.2305 6.20919 15.4445 6.31813C15.5515 6.20919 15.5515 6.10026 15.6585 5.99133C16.3005 4.68413 16.9424 3.37693 17.5844 2.06973C18.1194 0.980399 18.9754 0.544666 20.1523 0.3268C21.9712 0.108933 23.6832 0 25.6091 0C27.856 0 30.3169 1.62323e-08 32.5638 0.217866C33.0988 0.3268 33.6338 0.435733 34.1687 0.544666C34.8107 0.653599 35.3457 0.980399 35.7737 1.634C36.2017 2.39653 36.7366 3.268 37.1646 4.03053C37.4856 4.68413 37.8066 5.33773 38.1276 6.10026C38.2346 6.10026 38.2346 6.20919 38.3416 6.31813ZM37.2716 7.51639C37.1646 7.29853 37.0576 7.08066 36.9506 6.86279C36.2017 5.44666 35.4527 4.03053 34.7037 2.50546C34.4897 2.06973 34.1687 1.85186 33.7408 1.74293C32.9918 1.634 32.2428 1.52506 31.4938 1.52506C28.819 1.52506 26.1441 1.41613 23.4692 1.41613C22.3992 1.41613 21.3293 1.634 20.2593 1.74293C19.7243 1.74293 19.4033 2.06973 19.1893 2.50546C18.5474 3.70373 17.9054 5.01093 17.2634 6.20919C17.0494 6.53599 16.9424 6.86279 16.7284 7.29853C23.4692 6.86279 30.3169 6.86279 37.2716 7.51639ZM37.3786 14.4881C37.4856 14.4881 37.4856 14.3792 37.3786 14.4881C37.9136 14.3792 38.5556 14.2702 38.9835 13.9435C39.6255 13.5077 39.9465 12.8541 39.8395 12.0916C39.7325 11.2201 39.1975 10.7844 38.4486 10.5665C36.8436 10.1308 35.3457 11.5469 35.5597 13.1809C35.5597 13.6167 35.7737 13.9435 36.2017 14.0524C36.5226 14.2703 37.0576 14.3792 37.3786 14.4881ZM16.4075 14.3792C16.5145 14.3792 16.7284 14.3792 16.8354 14.3792C17.6914 14.2703 18.2264 13.7256 18.2264 12.9631C18.2264 11.5469 17.0494 10.4576 15.6585 10.5665C14.9095 10.5665 14.1606 11.2201 13.9466 11.9827C13.7326 12.7452 13.9466 13.5077 14.6955 13.9435C15.1235 14.2702 15.7655 14.3792 16.4075 14.3792ZM26.786 17.1025C27.749 17.1025 28.819 17.1025 29.7819 17.1025C30.2099 17.1025 30.3169 16.9936 30.3169 16.5578C30.3169 16.231 30.3169 16.0132 30.3169 15.6864C30.3169 15.3596 30.2099 15.2506 29.8889 15.2506C27.856 15.2506 25.8231 15.2506 23.5762 15.2506C23.2552 15.2506 23.1482 15.3596 23.1482 15.6864C23.1482 16.0132 23.1482 16.34 23.1482 16.5578C23.1482 16.9936 23.2552 17.1025 23.6832 17.1025C24.8601 17.1025 25.8231 17.1025 26.786 17.1025Z" fill="#676464"/>
<path d="M5.17283 6.97168C2.71193 8.06101 1 10.5665 1 13.3987C1 16.231 2.71193 18.7365 5.17283 19.8258" stroke="#676464" stroke-width="1.2" stroke-miterlimit="10" stroke-linecap="round" stroke-linejoin="round"/>
<path d="M8.38272 8.93237C6.77778 9.69491 5.60083 11.4378 5.60083 13.3986C5.60083 15.3594 6.77778 17.1024 8.48971 17.8649" stroke="#676464" stroke-width="1.2" stroke-miterlimit="10" stroke-linecap="round" stroke-linejoin="round"/>
<path d="M48.8271 6.97168C51.288 8.06101 53 10.5665 53 13.3987C53 16.231 51.288 18.7365 48.8271 19.8258" stroke="#676464" stroke-width="1.2" stroke-miterlimit="10" stroke-linecap="round" stroke-linejoin="round"/>
<path d="M45.51 8.93237C47.2219 9.69491 48.3989 11.4378 48.3989 13.3986C48.3989 15.3594 47.2219 17.1024 45.51 17.8649" stroke="#676464" stroke-width="1.2" stroke-miterlimit="10" stroke-linecap="round" stroke-linejoin="round"/>
</svg>
