<svg width="21" height="21" viewBox="0 0 21 21" fill="none" xmlns="http://www.w3.org/2000/svg">
<path d="M13.0863 10.1082C13.1912 10.1982 13.2786 10.2522 13.331 10.3421C13.5582 10.63 13.6456 10.9719 13.5408 11.3317C13.3834 11.8715 13.1912 12.4113 13.0164 12.933C12.2997 15.0202 11.5831 17.1073 10.8489 19.1764C10.7965 19.3383 10.7266 19.5003 10.6741 19.6622C10.6217 19.8062 10.5343 19.8781 10.3945 19.9141C10.0624 19.9861 9.73026 20.0041 9.39816 19.9681C8.36688 19.8781 7.42299 19.5003 6.53155 18.9605C4.11941 17.4312 2.37148 15.326 1.44507 12.5372C1.06053 11.3677 0.920694 10.1622 1.04305 8.93873C1.04305 8.88475 1.06053 8.81278 1.06053 8.7588C1.11297 8.50691 1.20036 8.43494 1.44507 8.48892C1.65482 8.5249 1.86458 8.59687 2.07433 8.66884C3.08813 9.0107 4.13689 9.20861 5.2206 9.19062C6.75878 9.17263 8.20956 8.79479 9.52051 7.96714C9.59043 7.91316 9.67782 7.87718 9.74774 7.84119C10.2022 7.5893 10.6217 7.62528 11.0237 7.94915C11.1111 8.02111 11.1636 8.02111 11.251 7.93115C13.2436 5.88002 15.2362 3.82888 17.2464 1.79574C17.3862 1.6518 17.526 1.52585 17.6659 1.38191C18.0854 0.950092 18.5923 0.932099 19.1166 1.09403C19.6061 1.25596 19.8683 1.6518 19.9731 2.15558C20.0431 2.55142 19.9906 2.92926 19.6935 3.25312C19.1516 3.82888 18.6272 4.42263 18.0679 4.99839C16.4598 6.67168 14.8342 8.34498 13.2086 10.0003C13.1737 10.0183 13.1387 10.0543 13.0863 10.1082ZM8.48923 19.0685C8.52419 19.0865 8.54167 19.0865 8.55915 19.1044C8.97865 19.2484 9.41564 19.2844 9.85262 19.2844C10.0624 19.2844 10.0624 19.2844 10.1323 19.0685C10.7091 17.4132 11.2859 15.7579 11.8627 14.1205C11.8977 14.0306 11.8802 13.9766 11.8103 13.9046C10.4644 12.4832 9.08353 11.0618 7.72014 9.65843C7.65023 9.58646 7.59779 9.56846 7.51039 9.58646C7.02097 9.67642 6.53155 9.78437 6.04213 9.83835C4.67874 9.98229 3.35032 9.80236 2.03937 9.38854C1.93449 9.35255 1.82962 9.31657 1.70726 9.28058C1.68978 9.35255 1.6723 9.40653 1.68978 9.4785C1.70726 9.85634 1.72474 10.2342 1.74222 10.63C1.74222 10.756 1.81214 10.8099 1.91701 10.8279C2.2666 10.8639 2.59871 10.8999 2.94829 10.9179C3.57755 10.9359 4.2068 10.9179 4.83606 10.8099C4.92345 10.7919 5.02833 10.8099 5.09825 10.8639C5.2206 10.9359 5.25556 11.0618 5.23808 11.2058C5.2206 11.3497 5.13321 11.4397 5.01085 11.4757C4.78362 11.5296 4.55639 11.5836 4.32916 11.6016C3.54259 11.6736 2.75602 11.7096 1.96945 11.5656C1.95197 11.5656 1.93449 11.5656 1.91701 11.5836C1.91701 11.6376 1.91701 11.6736 1.93449 11.7276C2.07433 12.1774 2.21416 12.6272 2.37148 13.077C2.38896 13.113 2.42391 13.131 2.45887 13.131C2.91333 13.113 3.3678 13.095 3.80478 13.041C4.11941 13.005 4.43403 12.9151 4.73118 12.8791C4.92345 12.8431 5.01085 12.933 5.06329 13.095C5.11573 13.2929 5.04581 13.4368 4.8885 13.5088C4.66126 13.5808 4.43403 13.6707 4.18932 13.7067C3.76982 13.7787 3.33284 13.7967 2.91333 13.8507C2.7735 13.8687 2.73854 13.9046 2.80846 14.0306C3.10561 14.4984 3.42023 14.9662 3.71738 15.452C3.7873 15.5419 3.85722 15.5779 3.96209 15.524C4.3816 15.2901 4.81858 15.0741 5.23808 14.8402C5.36044 14.7683 5.48279 14.6963 5.60515 14.6423C5.71002 14.5884 5.79742 14.6063 5.88482 14.6963C6.04213 14.8402 6.05961 15.0382 5.91977 15.2001C5.83238 15.2901 5.74498 15.362 5.64011 15.434C5.23808 15.6679 4.83606 15.8838 4.41655 16.1177C4.36412 16.1357 4.32916 16.1717 4.27672 16.1897C4.43403 16.3516 4.55639 16.5135 4.7137 16.6575C4.97589 16.9274 5.25556 17.1793 5.51775 17.4312C5.64011 17.5391 5.71002 17.5391 5.84986 17.4312C5.86734 17.4132 5.9023 17.3952 5.91977 17.3772C6.44415 16.8914 6.9161 16.3516 7.31812 15.7399C7.37056 15.6679 7.42299 15.5959 7.47543 15.524C7.58031 15.416 7.73762 15.416 7.85998 15.506C8.01729 15.6139 8.06973 15.7399 7.99981 15.8838C7.94737 15.9918 7.89494 16.0997 7.82502 16.2077C7.40552 16.8554 6.89862 17.3952 6.35676 17.9169C6.3218 17.9529 6.28684 17.9529 6.2344 17.9709C6.7413 18.3308 7.23072 18.6366 7.7551 18.8705C7.79006 18.8885 7.8425 18.8526 7.87746 18.8166C8.33192 18.2588 8.6815 17.6471 8.96117 16.9813C9.08353 16.7294 9.15345 16.4596 9.2758 16.2077C9.34572 16.0457 9.52051 15.9918 9.67782 16.0457C9.83514 16.0997 9.92254 16.2437 9.88758 16.4236C9.85262 16.5675 9.81766 16.6935 9.76522 16.8374C9.45059 17.6291 9.06605 18.3848 8.55915 19.0505C8.54167 18.9965 8.52419 19.0325 8.48923 19.0685ZM12.6318 9.58646C12.6668 9.55047 12.6843 9.49649 12.7192 9.4785C14.2224 7.94915 15.7257 6.41979 17.2114 4.87244C17.8407 4.22471 18.4874 3.55899 19.1166 2.91127C19.3788 2.64138 19.3788 2.20956 19.1166 1.92168C18.8894 1.66979 18.4699 1.57983 18.1902 1.86771C18.0329 2.02964 17.8581 2.19157 17.6833 2.3535C15.6732 4.38664 13.6806 6.41979 11.6879 8.47093C11.6705 8.48892 11.653 8.5249 11.6355 8.5429C11.9501 8.88475 12.2822 9.20861 12.6318 9.58646ZM12.1599 13.1849C12.1774 13.149 12.1948 13.131 12.1948 13.131C12.4221 12.4652 12.6493 11.7995 12.8765 11.1338C12.9115 11.0079 12.8765 10.8999 12.7891 10.8099C12.055 10.0363 11.3034 9.26259 10.5518 8.48892C10.4294 8.36297 10.2896 8.34498 10.1323 8.41695C10.0798 8.45293 10.0274 8.47093 9.97497 8.50691C9.50303 8.7588 9.03109 8.99271 8.55915 9.2446C8.50671 9.26259 8.45427 9.29858 8.38436 9.33456C9.62539 10.648 10.8839 11.9255 12.1599 13.1849Z" fill="currentColor" stroke="currentColor" stroke-width="0.6"/>
</svg>
