<svg width="30" height="23" viewBox="0 0 30 23" fill="none" xmlns="http://www.w3.org/2000/svg">
<g clip-path="url(#clip0)">
<path fill-rule="evenodd" clip-rule="evenodd" d="M26.2004 21.8998C26.2004 21.9998 26.2004 21.9998 26.2004 22.0998H26.1004C25.3004 21.6998 24.6004 21.1998 23.8004 20.7998C23.5004 20.5998 23.4004 20.3998 23.5004 20.1998C23.5004 19.8998 23.7004 19.6998 24.0004 19.5998C24.2004 19.4998 24.4004 19.5998 24.5004 19.6998C25.1004 20.0998 25.8004 20.3998 26.4004 20.7998C26.5004 20.7998 26.5004 20.8998 26.6004 20.8998C27.5004 19.1998 28.0004 17.3998 28.1004 15.4998C28.0004 15.4998 27.9004 15.4998 27.9004 15.4998C27.2004 15.4998 26.4004 15.4998 25.7004 15.4998C25.2004 15.4998 25.0004 15.2998 25.0004 14.7998C25.0004 14.3998 25.3004 14.1998 25.6004 14.1998C26.4004 14.1998 27.1004 14.1998 27.9004 14.1998C28.0004 14.1998 28.0004 14.1998 28.1004 14.1998C28.0004 12.1998 27.5004 10.2998 26.5004 8.4998C26.4004 8.4998 26.4004 8.5998 26.3004 8.5998C25.6004 8.9998 25.0004 9.3998 24.3004 9.7998C23.9004 10.0998 23.4004 9.7998 23.3004 9.2998C23.3004 9.0998 23.4004 8.7998 23.6004 8.6998C24.3004 8.2998 25.0004 7.8998 25.6004 7.4998L25.7004 7.3998C24.6004 5.7998 23.2004 4.3998 21.5004 3.3998C21.4004 3.4998 21.4004 3.6998 21.3004 3.7998C21.0004 4.3998 20.6004 4.9998 20.3004 5.5998C20.2004 5.7998 20.0004 5.9998 19.7004 5.8998C19.4004 5.8998 19.2004 5.6998 19.1004 5.3998C19.0004 5.1998 19.1004 4.9998 19.2004 4.8998C19.6004 4.1998 19.9004 3.5998 20.3004 2.8998C20.3004 2.7998 20.4004 2.7998 20.4004 2.6998C18.8004 1.8998 17.1004 1.4998 15.3004 1.3998C15.3004 1.4998 15.3004 1.4998 15.3004 1.5998C15.3004 2.3998 15.3004 3.0998 15.3004 3.8998C15.3004 4.2998 15.1004 4.4998 14.8004 4.5998C14.4004 4.6998 14.0004 4.3998 14.0004 3.9998C14.0004 3.1998 14.0004 2.4998 14.0004 1.6998C14.0004 1.5998 14.0004 1.5998 14.0004 1.4998C12.9004 1.2998 9.40039 2.1998 8.40039 2.9998C8.80039 3.5998 9.10039 4.1998 9.50039 4.7998C9.60039 4.8998 9.70039 4.9998 9.70039 5.1998C9.90039 5.4998 9.80039 5.7998 9.50039 5.9998C9.20039 6.1998 8.80039 6.0998 8.70039 5.7998C8.30039 5.0998 7.90039 4.3998 7.50039 3.7998C7.50039 3.6998 7.40039 3.6998 7.40039 3.5998C5.80039 4.6998 4.40039 6.0998 3.40039 7.7998C3.80039 7.9998 4.30039 8.2998 4.70039 8.4998C4.90039 8.6998 5.20039 8.8998 5.50039 8.9998C5.90039 9.1998 6.00039 9.4998 5.80039 9.8998C5.60039 10.1998 5.30039 10.2998 4.90039 10.1998C4.30039 9.7998 3.60039 9.3998 2.90039 8.9998C2.90039 8.9998 2.80039 8.9998 2.70039 8.9998C2.20039 9.5998 1.30039 12.8998 1.40039 14.0998C1.50039 14.0998 1.50039 14.0998 1.60039 14.0998C2.40039 14.0998 3.20039 14.0998 3.90039 14.0998C4.20039 14.0998 4.40039 14.2998 4.50039 14.4998C4.60039 14.7998 4.50039 15.0998 4.30039 15.1998C4.20039 15.2998 4.00039 15.2998 3.80039 15.2998C3.10039 15.2998 2.30039 15.2998 1.60039 15.2998C1.50039 15.2998 1.50039 15.2998 1.40039 15.2998C1.50039 17.1998 2.00039 18.9998 2.90039 20.6998C3.10039 20.5998 3.30039 20.3998 3.60039 20.2998C4.10039 19.9998 4.60039 19.6998 5.10039 19.3998C5.30039 19.2998 5.50039 19.2998 5.70039 19.3998C5.90039 19.4998 6.00039 19.6998 6.00039 19.9998C6.00039 20.1998 5.90039 20.3998 5.70039 20.4998C5.00039 21.0998 4.20039 21.5998 3.30039 21.9998C3.30039 21.8998 3.30039 21.8998 3.20039 21.8998C3.00039 22.2998 2.70039 22.3998 2.40039 22.2998C2.30039 22.1998 2.10039 22.0998 2.00039 21.9998C1.20039 20.6998 0.600391 19.1998 0.300391 17.6998C0.000390619 16.3998 -0.0996094 14.9998 0.000390626 13.6998C0.300391 10.3998 1.50039 7.5998 3.60039 5.0998C4.60039 3.9998 5.70039 2.9998 7.00039 2.1998C8.60039 1.1998 10.4004 0.599805 12.3004 0.299805C15.5004 -0.200195 18.5004 0.299805 21.3004 1.7998C25.1004 3.8998 27.6004 6.9998 28.7004 11.2998C29.0004 12.3998 29.1004 13.3998 29.1004 14.4998C29.1004 17.0998 28.5004 19.5998 27.2004 21.8998C27.1004 22.4998 26.4004 22.4998 26.2004 21.8998Z" fill="white"/>
<path d="M2.69994 22.5002C2.59994 22.5002 2.49994 22.5002 2.49994 22.5002C2.29994 22.4002 2.19994 22.3002 2.09994 22.2002C1.29994 20.8002 0.699935 19.4002 0.399935 17.8002C-6.48201e-05 16.4002 -0.100065 15.0002 -6.4835e-05 13.6002C0.299935 10.4002 1.49994 7.5002 3.69994 5.0002C4.69994 3.9002 5.89994 2.9002 7.09994 2.1002C8.79994 1.1002 10.5999 0.400195 12.4999 0.200195C15.6999 -0.299805 18.7999 0.200195 21.5999 1.7002C25.3999 3.8002 27.9999 7.0002 28.9999 11.2002C29.2999 12.2002 29.3999 13.3002 29.3999 14.4002C29.3999 17.1002 28.7999 19.6002 27.4999 21.9002C27.2999 22.2002 26.9999 22.4002 26.6999 22.4002C26.4999 22.4002 26.2999 22.3002 26.1999 22.1002L26.0999 22.0002H25.9999L25.5999 21.8002C24.9999 21.4002 24.2999 21.1002 23.6999 20.7002C23.3999 20.5002 23.2999 20.3002 23.2999 20.0002C23.3999 19.7002 23.5999 19.4002 23.8999 19.4002C24.0999 19.3002 24.2999 19.4002 24.4999 19.5002C25.0999 19.9002 25.6999 20.2002 26.2999 20.6002C26.2999 20.6002 26.3999 20.6002 26.3999 20.7002C27.2999 19.0002 27.7999 17.4002 27.8999 15.5002H27.7999C27.5999 15.5002 27.3999 15.5002 27.0999 15.5002C26.5999 15.5002 26.0999 15.5002 25.4999 15.5002C25.1999 15.5002 24.9999 15.4002 24.8999 15.3002C24.7999 15.2002 24.6999 15.0002 24.6999 14.7002C24.6999 14.3002 24.9999 14.0002 25.3999 14.0002C25.9999 14.0002 26.4999 14.0002 27.0999 14.0002C27.2999 14.0002 27.4999 14.0002 27.7999 14.0002H27.8999C27.7999 12.1002 27.2999 10.3002 26.3999 8.6002C26.3999 8.6002 26.3999 8.6002 26.2999 8.6002C26.1999 8.7002 25.9999 8.9002 25.6999 9.0002C25.2999 9.3002 24.7999 9.5002 24.2999 9.8002C24.0999 9.9002 23.7999 10.0002 23.5999 9.9002C23.3999 9.8002 23.1999 9.6002 23.1999 9.3002C23.0999 9.0002 23.2999 8.7002 23.5999 8.6002C24.0999 8.3002 24.4999 8.0002 24.9999 7.7002C25.1999 7.6002 25.3999 7.4002 25.5999 7.3002C24.4999 5.7002 23.1999 4.5002 21.5999 3.5002C21.4999 3.6002 21.4999 3.7002 21.4999 3.8002C21.3999 4.0002 21.2999 4.2002 21.1999 4.4002C20.9999 4.8002 20.7999 5.2002 20.4999 5.6002C20.3999 5.9002 20.0999 6.0002 19.7999 6.0002C19.4999 6.0002 19.1999 5.8002 19.0999 5.4002C18.9999 5.2002 19.0999 5.0002 19.1999 4.8002L19.3999 4.4002C19.6999 3.9002 19.9999 3.3002 20.2999 2.8002V2.7002C18.6999 2.0002 17.0999 1.6002 15.3999 1.5002V1.6002C15.3999 1.8002 15.3999 2.0002 15.3999 2.3002C15.3999 2.8002 15.3999 3.4002 15.3999 3.9002C15.3999 4.3002 15.1999 4.6002 14.7999 4.7002C14.5999 4.8002 14.2999 4.7002 14.1999 4.6002C14.0999 4.4002 13.9999 4.2002 13.9999 3.9002C13.9999 3.4002 13.9999 2.8002 13.9999 2.3002C13.9999 2.1002 13.9999 1.8002 13.9999 1.6002V1.5002C12.6999 1.5002 9.59994 2.3002 8.59994 3.0002L8.79994 3.3002C9.09994 3.8002 9.39993 4.3002 9.69993 4.8002C9.69993 4.8002 9.69994 4.9002 9.79994 4.9002C9.69994 4.9002 9.79994 5.0002 9.79994 5.1002C9.99994 5.5002 9.89994 5.9002 9.49994 6.1002C9.09994 6.3002 8.69994 6.2002 8.49994 5.9002C8.29994 5.4002 7.99993 4.9002 7.69993 4.5002C7.59993 4.3002 7.49994 4.1002 7.29994 3.8002C7.29994 3.8002 7.29994 3.8002 7.29994 3.7002C5.79994 4.8002 4.49994 6.1002 3.49994 7.7002L4.69993 8.4002C4.79993 8.5002 4.89994 8.5002 4.99994 8.6002C5.19994 8.7002 5.39994 8.8002 5.59994 8.9002C5.99994 9.1002 6.09994 9.5002 5.89994 9.9002C5.69994 10.3002 5.29994 10.4002 4.89994 10.2002C4.39994 10.0002 3.89994 9.7002 3.49994 9.5002C3.29994 9.4002 3.09994 9.3002 2.89994 9.1002H2.79994C2.29994 9.8002 1.49994 12.8002 1.49994 14.0002H1.59994C1.79994 14.0002 1.99994 14.0002 2.29994 14.0002C2.89994 14.0002 3.39994 14.0002 3.99994 14.0002C4.29994 14.0002 4.59993 14.2002 4.69993 14.5002C4.79993 14.8002 4.69994 15.2002 4.49994 15.4002C4.29994 15.5002 4.09994 15.6002 3.89994 15.6002C3.39994 15.6002 2.79994 15.6002 2.29994 15.6002C2.09994 15.6002 1.89994 15.6002 1.69994 15.6002H1.49994C1.59994 17.3002 2.09994 19.0002 2.99994 20.7002L3.09994 20.6002C3.29994 20.5002 3.39994 20.4002 3.59994 20.3002C3.69994 20.2002 3.89994 20.1002 3.99994 20.0002C4.29994 19.8002 4.69994 19.6002 4.99994 19.4002C5.29994 19.3002 5.49994 19.3002 5.79994 19.4002C5.99994 19.6002 6.19993 19.8002 6.19993 20.1002C6.19993 20.3002 6.09994 20.5002 5.79994 20.7002C5.19994 21.0002 4.59994 21.4002 3.99994 21.7002C3.79994 21.8002 3.59994 21.9002 3.39994 22.1002L3.29994 22.2002V22.1002C3.09994 22.4002 2.89994 22.5002 2.69994 22.5002ZM14.7999 0.200195C13.9999 0.200195 13.2999 0.300195 12.4999 0.400195C10.6999 0.700195 8.89994 1.3002 7.19993 2.3002C5.99993 3.1002 4.79994 4.0002 3.79994 5.2002C1.69994 7.6002 0.499935 10.5002 0.199935 13.7002C0.0999352 15.0002 0.199935 16.4002 0.499935 17.7002C0.799935 19.2002 1.39994 20.7002 2.19994 22.0002C2.29994 22.1002 2.39994 22.2002 2.49994 22.3002C2.79994 22.4002 3.09994 22.2002 3.19994 21.9002L3.29994 21.7002L3.39994 22.0002C3.59994 21.9002 3.79994 21.8002 3.89994 21.7002C4.49994 21.4002 5.09993 21.0002 5.69993 20.7002C5.89993 20.6002 5.89994 20.5002 5.89994 20.3002C5.89994 20.1002 5.79994 19.9002 5.59994 19.8002C5.39994 19.7002 5.29994 19.7002 5.09994 19.8002C4.79994 20.0002 4.39994 20.2002 4.09994 20.4002C3.89994 20.5002 3.79994 20.6002 3.59994 20.7002C3.39994 20.8002 3.29994 20.9002 3.09994 21.0002H2.89994L2.79994 20.9002C1.79994 19.1002 1.29994 17.3002 1.19994 15.4002V15.3002H1.49994C1.69994 15.3002 1.89994 15.3002 2.09994 15.3002C2.59994 15.3002 3.19994 15.3002 3.69994 15.3002C3.89994 15.3002 3.99994 15.3002 4.09994 15.2002C4.29994 15.1002 4.29993 14.8002 4.19993 14.6002C4.09993 14.4002 3.99994 14.3002 3.69994 14.3002C3.09994 14.3002 2.59994 14.3002 1.99994 14.3002C1.79994 14.3002 1.59994 14.3002 1.29994 14.3002V14.3002V14.2002C1.29994 13.5002 1.49994 12.3002 1.69994 11.4002C1.89994 10.5002 2.29994 9.4002 2.59994 9.0002L2.69994 8.9002L2.79994 9.0002C2.79994 9.0002 2.89994 9.0002 2.89994 9.1002C3.09994 9.2002 3.29994 9.3002 3.49994 9.4002C3.99994 9.5002 4.49994 9.8002 4.99994 10.0002C5.29994 10.2002 5.59993 10.1002 5.69993 9.8002C5.89993 9.5002 5.79994 9.2002 5.49994 9.1002C5.29994 9.0002 5.09994 8.9002 4.89994 8.8002C4.79994 8.7002 4.69994 8.7002 4.59994 8.6002L3.19994 7.9002L3.29994 7.8002C4.39994 6.1002 5.69994 4.7002 7.29994 3.6002L7.39994 3.5002L7.49994 3.6002C7.49994 3.6002 7.49994 3.6002 7.49994 3.7002C7.49994 3.7002 7.49994 3.8002 7.59994 3.8002C7.69994 4.0002 7.89994 4.2002 7.99994 4.4002C8.29994 4.9002 8.59993 5.3002 8.89993 5.8002C8.89993 6.0002 9.19993 6.1002 9.39993 5.9002C9.69993 5.7002 9.69994 5.5002 9.59994 5.2002C9.59994 5.1002 9.49994 5.0002 9.49994 5.0002C9.49994 5.0002 9.49993 4.9002 9.39993 4.9002C9.09993 4.4002 8.79994 3.9002 8.49994 3.4002L8.29994 3.0002L8.39993 2.9002C9.39993 2.1002 12.8999 1.2002 14.0999 1.3002H14.1999V1.6002C14.1999 1.8002 14.1999 2.1002 14.1999 2.3002C14.1999 2.8002 14.1999 3.4002 14.1999 3.9002C14.1999 4.1002 14.2999 4.2002 14.3999 4.3002C14.4999 4.4002 14.6999 4.4002 14.7999 4.4002C15.0999 4.3002 15.1999 4.2002 15.1999 3.8002C15.1999 3.3002 15.1999 2.7002 15.1999 2.2002C15.1999 2.0002 15.1999 1.8002 15.1999 1.5002V1.3002H15.2999C17.0999 1.4002 18.7999 1.8002 20.4999 2.6002H20.5999V2.7002C20.5999 2.7002 20.5999 2.7002 20.5999 2.8002C20.5999 2.8002 20.5999 2.9002 20.4999 2.9002C20.1999 3.4002 19.8999 4.0002 19.5999 4.5002L19.3999 4.9002C19.2999 5.1002 19.2999 5.2002 19.2999 5.3002C19.3999 5.5002 19.5999 5.7002 19.7999 5.7002C19.9999 5.7002 20.1999 5.6002 20.2999 5.4002C20.4999 5.0002 20.6999 4.6002 20.9999 4.2002C21.0999 4.0002 21.1999 3.8002 21.2999 3.6002C21.2999 3.5002 21.3999 3.4002 21.3999 3.3002L21.4999 3.1002L21.5999 3.2002C23.2999 4.3002 24.6999 5.6002 25.7999 7.2002L25.9999 7.3002L25.8999 7.4002C25.8999 7.4002 25.8999 7.4002 25.7999 7.4002C25.7999 7.4002 25.6999 7.4002 25.6999 7.5002C25.4999 7.6002 25.2999 7.8002 25.0999 7.9002C24.5999 8.2002 24.1999 8.5002 23.6999 8.7002C23.4999 8.8002 23.3999 9.0002 23.3999 9.2002C23.3999 9.4002 23.4999 9.6002 23.6999 9.6002C23.8999 9.7002 23.9999 9.7002 24.1999 9.5002C24.6999 9.2002 25.0999 9.0002 25.5999 8.7002C25.7999 8.6002 25.9999 8.4002 26.1999 8.3002C26.1999 8.3002 26.2999 8.3002 26.2999 8.2002C26.2999 8.2002 26.2999 8.2002 26.3999 8.2002L26.4999 8.1002L26.5999 8.2002C27.5999 10.0002 28.0999 11.9002 28.1999 13.9002V14.0002H27.8999C27.6999 14.0002 27.4999 14.0002 27.1999 14.0002C26.6999 14.0002 26.0999 14.0002 25.5999 14.0002C25.2999 14.0002 25.0999 14.2002 25.0999 14.5002C25.0999 14.7002 25.0999 14.8002 25.1999 14.9002C25.2999 15.0002 25.4999 15.1002 25.6999 15.1002C26.1999 15.1002 26.7999 15.1002 27.2999 15.1002C27.4999 15.1002 27.6999 15.1002 27.9999 15.1002H28.2999V15.2002C28.1999 17.1002 27.6999 18.9002 26.6999 20.7002L26.5999 21.0002L26.3999 20.9002C26.3999 20.9002 26.2999 20.9002 26.2999 20.8002C25.6999 20.4002 25.0999 20.1002 24.4999 19.7002C24.2999 19.6002 24.1999 19.6002 24.0999 19.6002C23.8999 19.7002 23.6999 19.8002 23.6999 20.1002C23.6999 20.3002 23.7999 20.5002 23.9999 20.6002C24.5999 21.0002 25.2999 21.3002 25.8999 21.7002L26.1999 21.9002L26.2999 21.5002L26.4999 21.8002C26.5999 22.0002 26.7999 22.2002 26.9999 22.2002C27.1999 22.2002 27.3999 22.1002 27.5999 21.8002C28.8999 19.6002 29.4999 17.1002 29.4999 14.4002C29.4999 13.2002 29.2999 12.2002 29.0999 11.2002C27.9999 7.0002 25.5999 3.8002 21.7999 1.8002C19.3999 0.800195 17.1999 0.200195 14.7999 0.200195Z" fill="white"/>
<path fill-rule="evenodd" clip-rule="evenodd" d="M14.6995 16.6001C13.6995 16.6001 12.8995 15.8001 12.7995 14.8001C12.6995 13.8001 13.4995 13.0001 14.3995 12.8001C14.8995 12.7001 15.2995 12.8001 15.6995 13.1001C15.7995 13.2001 15.8995 13.2001 16.0995 13.1001C17.8995 12.0001 19.7995 10.9001 21.6995 9.80013C22.0995 9.50013 22.5995 9.70013 22.6995 10.2001C22.7995 10.5001 22.5995 10.7001 22.3995 10.9001C21.4995 11.4001 20.5995 11.9001 19.7995 12.5001C18.7995 13.1001 17.7995 13.7001 16.8995 14.2001C16.7995 14.3001 16.7995 14.3001 16.7995 14.5001C16.8995 15.5001 16.2995 16.4001 15.1995 16.6001C14.9995 16.6001 14.7995 16.6001 14.6995 16.6001Z" fill="white"/>
<path d="M14.6999 16.7C13.5999 16.7 12.7999 15.9 12.6999 14.8C12.5999 13.8 13.3999 12.9 14.3999 12.7C14.8999 12.6 15.3999 12.7 15.7999 13C15.8999 13.1 15.8999 13.1 15.9999 13C17.7999 11.9 19.5999 10.9 21.5999 9.70001C21.7999 9.60001 22.0999 9.50002 22.2999 9.60002C22.4999 9.70002 22.6999 9.90002 22.6999 10.1C22.7999 10.4 22.5999 10.7 22.2999 10.9C21.6999 11.3 20.9999 11.7 20.3999 12L19.6999 12.4C19.4999 12.5 19.1999 12.7 18.9999 12.8C18.2999 13.2 17.4999 13.7 16.6999 14.1C16.5999 14.1 16.5999 14.2 16.5999 14.3C16.6999 15.4 15.9999 16.3 14.9999 16.5C14.8999 16.5 14.7999 16.5 14.7999 16.5C14.7999 16.7 14.7999 16.7 14.6999 16.7ZM14.6999 12.9C14.5999 12.9 14.4999 12.9 14.3999 12.9C13.4999 13 12.7999 13.9 12.8999 14.8C12.9999 15.8 13.6999 16.5 14.6999 16.5H14.7999C14.8999 16.5 14.8999 16.5 14.9999 16.5C15.9999 16.3 16.4999 15.5 16.4999 14.5C16.4999 14.3 16.4999 14.2 16.6999 14.1C17.4999 13.7 18.1999 13.2 18.9999 12.8C19.1999 12.7 19.4999 12.5 19.6999 12.4L20.3999 12C20.9999 11.6 21.6999 11.2 22.2999 10.9C22.4999 10.8 22.5999 10.6 22.5999 10.3C22.5999 10.1 22.4999 10 22.2999 9.90001C22.0999 9.80001 21.8999 9.90001 21.7999 10C19.7999 11.2 17.9999 12.2 16.1999 13.3C15.9999 13.4 15.8999 13.4 15.6999 13.3C15.3999 13 15.0999 12.9 14.6999 12.9Z" fill="white"/>
<path fill-rule="evenodd" clip-rule="evenodd" d="M14.6998 19.7998C15.9998 19.7998 17.1998 19.7998 18.4998 19.7998C18.9998 19.7998 19.2998 20.1998 19.0998 20.6998C18.9998 20.9998 18.7998 21.0998 18.4998 21.0998C18.2998 21.0998 18.0998 21.0998 17.9998 21.0998C15.6998 21.0998 13.2998 21.0998 10.9998 21.0998C10.4998 21.0998 10.2998 20.7998 10.2998 20.3998C10.2998 19.9998 10.5998 19.7998 10.9998 19.7998C12.1998 19.7998 13.4998 19.7998 14.6998 19.7998Z" fill="white"/>
<path d="M18.3 21.2002C18.2 21.2002 18.2 21.2002 18.1 21.2002C18 21.2002 18 21.2002 17.9 21.2002H16.2C14.4 21.2002 12.6 21.2002 10.8 21.2002C10.5 21.2002 10.3 21.1002 10.2 21.0002C10.1 20.9002 10 20.7002 10 20.4002C10 20.0002 10.3 19.7002 10.8 19.7002C11.7 19.7002 12.7 19.7002 13.6 19.7002H14.6C15 19.7002 15.3 19.7002 15.7 19.7002C16.6 19.7002 17.5 19.7002 18.4 19.7002C18.7 19.7002 18.9 19.8002 19 20.0002C19.1 20.2002 19.2 20.4002 19.1 20.7002C19 21.0002 18.7 21.2002 18.4 21.2002C18.5 21.2002 18.4 21.2002 18.3 21.2002ZM18 21.0002C18.1 21.0002 18.1 21.0002 18.2 21.0002C18.3 21.0002 18.5 21.0002 18.6 21.0002C18.8 21.0002 19 20.9002 19.1 20.7002C19.2 20.5002 19.1 20.3002 19 20.2002C18.9 20.1002 18.7 20.0002 18.5 20.0002C17.6 20.0002 16.7 20.0002 15.8 20.0002C15.4 20.0002 15.1 20.0002 14.7 20.0002H13.7C12.8 20.0002 11.8 20.0002 10.9 20.0002C10.6 20.0002 10.4 20.2002 10.4 20.5002C10.4 20.7002 10.4 20.8002 10.5 20.9002C10.6 21.0002 10.8 21.1002 11 21.1002C12.8 21.1002 14.6 21.1002 16.4 21.1002L18 21.0002Z" fill="white"/>
</g>
<defs>
<clipPath id="clip0">
<rect width="29.4" height="22.5" fill="white"/>
</clipPath>
</defs>
</svg>
