<svg width="40" height="40" viewBox="0 0 40 40" fill="none" xmlns="http://www.w3.org/2000/svg">
<path d="M4 22.4323H6.41305C6.41305 22.4323 7.59607 22.2017 7.59607 23.5842V24.4594C7.59607 24.4594 7.21789 25.8755 9.41761 25.8755H10.5074C10.5074 25.8755 11.7282 25.6524 11.7282 27.0638C11.7282 27.0638 12.0807 27.6122 12.7959 27.5565C13.2189 27.5232 13.3317 27.87 13.3533 28.2221C13.3533 28.2221 13.1393 29.1438 13.8545 29.1438C13.8545 29.1438 14.1692 29.4219 14.1692 30.5921C14.1692 30.5921 13.9977 31.3954 15.3992 31.3954H26.932C26.932 31.3954 27.8166 31.4229 27.8166 30.5342V28.9207C27.8166 28.9207 27.6711 28.141 28.9012 28.141H30.6746C30.6746 28.141 31.5187 28.0859 31.5187 28.9629V30.6757C31.5187 30.6757 31.4284 31.3954 32.2766 31.3954H33.1765C33.1765 31.3954 34.1572 31.528 34.1572 30.5002C34.1572 30.5002 34.0041 29.8452 34.9452 29.733C34.9452 29.733 35.5036 29.8595 35.5036 29.1892C35.5036 29.1892 35.4273 28.6976 35.9626 28.6976V19.6409C35.9626 19.6409 36.1414 18.8218 35.1871 18.8218C35.1871 18.8218 34.4561 18.8218 34.4561 18.11C34.4561 18.11 33.261 16.4855 32.1191 17.5974C32.1191 17.5974 31.1644 17.9956 31.1986 19.2237C31.1986 19.2237 31.4031 19.8547 30.4826 19.8547L28.9485 19.8214C28.9485 19.8214 27.8386 20.0163 27.8386 18.7407C27.8386 18.7407 27.9256 16.7343 26.5961 16.7343H25.4714C25.4714 16.7343 24.5509 16.6349 24.5509 15.6057V13.249C24.5509 13.249 24.7558 11.8386 23.1024 11.8386H21.3466C21.3466 11.8386 19.9881 11.8551 19.9881 10.6267V9H22.6082H13.1462H15.7899V11.0249C15.7899 11.0249 15.8236 12.2533 14.0851 12.2533H12.4486C12.4486 12.2533 10.8804 11.9212 10.8804 13.249L10.8463 14.1785C10.8463 14.1785 10.9146 15.1742 9.38016 15.1742H8.32344C8.32344 15.1742 7.19843 14.9747 7.19843 16.2696V17.4315C7.19843 17.4315 7.13013 18.4604 6.14171 18.4604H4V14.1789V26.9105V22.4323Z" stroke="white" stroke-width="2" stroke-miterlimit="10"/>
</svg>
