<svg xmlns="http://www.w3.org/2000/svg" width="127" height="68" fill="none" viewBox="0 0 127 68">
    <path fill="#AEAEAE" d="M71.099 9.142c-.53-.077-.631-.35-.729-.77-.386-1.648-.797-3.29-1.204-4.935-.232-.932-.464-1.86-.72-2.785C68.393.46 68.27.26 68.12.13c-.288-.252-.728-.126-.931.273-.24.469-.44.957-.64 1.446-.695 1.682-1.57 3.242-2.924 4.492-.81.749-1.71 1.372-2.763 1.726-.907.306-1.827.579-2.726.909-1.286.472-2.563.965-3.829 1.486-.777.322-1.546.684-2.282 1.091-.74.412-1.449.884-2.144 1.364-.883.607-1.644 1.344-2.226 2.252-.468.733-.74 1.536-.692 2.403.05.835.265 1.637.729 2.354.154.236.325.448.516.64.204.333.765.655 1.254.883l.024.012c.073.033.147.065.216.094-.004.008-.008.012-.013.02.175.061.346.118.513.18.049.016.077.028.077.028l.192.073c.097.037.228.09.26.171.277.648.533 1.3.793 1.955.42 1.047.822 2.105 1.262 3.144.382.908.793 1.804 1.2 2.7 0 0 .004.036.016.093.078.31.46 1.267 2.226.978.118-.012.236-.029.35-.05 1.074-.215 2.136-.472 3.116-.98.513-.265.79-.746.525-1.324-.11-.24-.293-.48-.508-.635-.489-.355-1.01-.664-1.526-.982-.31-.191-.627-.382-.696-.765-.106-.566-.163-1.14-.24-1.71-.09-.66-.167-1.324-.269-1.98-.028-.179.02-.224.18-.24.956-.122 1.916-.228 2.868-.379 1.14-.179 2.27-.403 3.401-.602.488-.086.973-.208 1.46-.233 1.287-.06 2.532.147 3.74.611 1.395.538 2.616 1.36 3.78 2.285.386.31.785.607 1.204.867.39.24.891-.073.879-.505-.004-.179-.008-.362-.049-.533-.207-.815-.431-1.621-.639-2.436-.024-.09-.053-.17-.093-.24l-.277-.908c-.378-1.45-.753-2.9-1.143-4.35-.049-.178.012-.256.138-.37.236-.212.48-.431.643-.696.541-.863.57-1.816.39-2.786-.101-.557-.35-1.062-.663-1.535-.407-.623-.94-1.169-1.7-1.279zm-13.049 18.7c.005.037.094.066.143.098.342.236.696.456 1.021.717.28.224.257.411-.085.525-.875.285-1.766.518-2.637.81-.37.127-.732.054-1.086.033-.265-.016-.5-.252-.618-.53-.595-1.396-1.193-2.793-1.778-4.19-.4-.952-.778-1.913-1.164-2.87-.029-.07-.045-.143-.082-.257 1.449.244 2.865.236 4.31.163.06.44.125.867.182 1.295.106.794.224 1.588.313 2.382.041.35.11.68.334.957.04.049.11.077.208.143.065.236.44.566.756.602.082.005.171-.012.184.123zm-.919-6.495c-.305.029-.598.073-.891.086-1.151.049-2.303.098-3.458-.029-.757-.081-1.502-.2-2.218-.456-.54-.208-1.578-.88-1.578-.88-.733-.663-1.087-1.523-1.115-2.533-.033-1.087.488-1.954 1.196-2.724.94-1.018 2.083-1.767 3.304-2.407.622-.325 1.253-.627 1.88-.94.085-.041.174-.078.284-.127.863 3.344 1.725 6.667 2.596 10.01zm16.397 2.313c-.387-.305-.725-.57-1.083-.855.017.07.029.11.041.155l-.037.045c-.101-.074-.215-.135-.3-.224-.143-.147-.395-.171-.42-.469-.008-.114-.26-.216-.41-.31-1.172-.744-2.413-1.339-3.776-1.632-1.205-.26-2.413-.33-3.638-.094-1.513.297-3.035.534-4.557.794-.419.07-.842.122-1.285.188l-.07-.273c-.842-3.25-1.684-6.5-2.538-9.75-.061-.227-.004-.305.207-.382.627-.22 1.237-.473 1.864-.7.675-.245 1.354-.481 2.034-.713.7-.24 1.42-.432 2.103-.717.513-.216.997-.509 1.457-.827 1.977-1.36 3.247-3.274 4.146-5.457.142-.35.293-.692.468-1.095.045.138.073.22.094.301.353 1.495.679 2.998 1.057 4.484 1.192 4.638 2.4 9.273 3.61 13.907.036.142.08.285.125.427l.541 1.78c.118.46.24.92.367 1.417zm-1.49-8.975c-.414-1.605-.817-3.144-1.228-4.732.826.26 1.302.839 1.578 1.572.415 1.079.485 2.142-.35 3.16zM81.165 9.643c-.106-.187-.29-.252-.546-.183l-5.126 1.332c-.317.081-.444.277-.374.55.073.285.264.386.585.305.855-.22 1.71-.444 2.564-.668.854-.224 1.709-.444 2.563-.668.097-.024.203-.065.272-.134.155-.155.171-.342.062-.534zM81.287 14.506c-.839-.228-1.673-.469-2.51-.7-.867-.241-1.73-.481-2.597-.717-.3-.082-.577.044-.643.285-.065.248.118.5.42.582.472.126.944.26 1.416.39 1.228.343 2.457.69 3.69 1.027.341.094.647-.195.557-.55-.032-.17-.15-.268-.334-.317zM75.24 9.468c.281-.285.57-.566.855-.847.972-.957 1.953-1.91 2.917-2.875.102-.102.13-.277.212-.452-.143-.126-.232-.26-.354-.305-.196-.074-.375.016-.525.163-1.245 1.234-2.49 2.463-3.74 3.697-.21.208-.24.51-.06.693.179.175.48.142.695-.074z"/>
    <path fill="#AEAEAE" d="M74.878 31.37h-1.265c-.801 0-1.452-.652-1.452-1.455v-4.104c0-.803.65-1.454 1.452-1.454h1.265c.802 0 1.453.651 1.453 1.454v4.104c0 .803-.651 1.454-1.453 1.454zm-1.265-6.195c-.35 0-.635.285-.635.636v4.104c0 .35.285.636.635.636h1.265c.35 0 .635-.285.635-.636v-4.104c0-.35-.285-.636-.635-.636h-1.265z"/>
    <path fill="#AEAEAE" d="M103.103 30.6H24v.956h79.103V30.6zM29.672 35.181h-.956V68h.956V35.181zM33.907 43.655h-.956v20.24h.956v-20.24zM93.952 34.7H33.565v.957h60.387V34.7zM99.62 35.181h-.956V68h.956V35.181zM94.428 43.655h-.956v20.24h.956v-20.24z"/>
</svg>
