<svg xmlns="http://www.w3.org/2000/svg" width="127" height="68" fill="none" viewBox="0 0 127 68">
    <path fill="#AEAEAE" d="M95.684 17.798c-5.95 3.507-12.424 4.478-19.254 3.962 0 .314-.005.563 0 .806.052 2.748.09 5.491.164 8.239.01.319.122.708.323.938.548.619 1.148 1.205 1.776 1.749.979.853.993.834 1.803-.272-.81-.934-.979-1.393-.393-1.787 1.096-.736 2.31-1.294 3.485-1.899.15-.075.403-.075.548 0 .666.352 1.41.643 1.944 1.144 1.228 1.163 1.78 2.63.89 4.173-.993 1.735-2.183 3.231-3.794 4.403-2.244 1.627-3.767 1.716-6.076.29-.576-.355-1.073-.838-1.724-1.354-1.715 7.117-4.886 13.19-10.7 17.766.385.272.642.46 1.007.722-.81 0-1.513-.211-1.953.038-1.452.825-2.81 1.819-4.31 2.813.595.29 1.101.492 1.56.769 2.431 1.458 3.692 3.873 4.975 6.245.469.863.708 1.065 1.532.544 1.092-.684 2.178-1.406 3.162-2.236.773-.657 1.626-1.332 1.85-2.457-1.049-.103-2.201.572-2.834 1.749-.5-1.243-.838-2.42-1.428-3.46-.614-1.089-1.467-2.04-2.216-3.053.539-.633.904-.155 1.133.192.82 1.261 1.626 2.537 2.343 3.859.295.544.53.75 1.138.502.539-.216 1.12-.399 1.696-.441.867-.066 1.148.39.736 1.149-1.312 2.42-3.476 3.863-5.894 4.965-.604.277-1.27.188-1.686-.563-.717-1.298-1.415-2.62-2.277-3.826-1.747-2.452-3.738-4.28-7.172-2.972-1.766.67-3.724.38-5.575.08-1.457-.24-2.886-.671-4.324-1.027-.679-.17-1.33-.587-2.047-.052-1.087.806-2.206 1.57-3.359 2.387l-1.073.351c-2.632-2.452-4.956-5.364-6.966-8.74l.68-.75c.627-.525 1.152-1.036 1.747-1.449.96-.666 1.523-.595 2.258.267.895 1.05 1.747 2.143 2.605 3.198.768-.248.862-.689.609-1.322-1.373-3.498-1.818-7.188-2.16-10.892-.436-4.675-.81-9.35-1.2-14.03-.018-.234.1-.482.155-.721.146.15.385.281.427.46.5 2.184 1.012 4.365 1.447 6.564.412 2.077.689 4.182 1.12 6.255.623 3.02 1.307 6.025 2.024 9.02.154.643.552 1.225.974 2.12.417-.6.726-1.05 1.035-1.496-.08 1.824-3.588 4.811-5.172 4.788-.196-.455-.3-.91-.552-1.252-.605-.825-1.251-1.618-1.935-2.373-.178-.192-.693-.356-.848-.243-.693.506-1.326 1.097-1.935 1.702-.093.093-.004.496.127.66 1.836 2.317 3.668 4.638 5.58 6.889.182.215 1.002.173 1.32-.047 2.282-1.571 4.69-3.006 6.38-5.299.127-.173.333-.29.708-.614-.206.492-.31.727-.548 1.294 1.649-.389 3.148-.516 4.455-1.088 5.158-2.255 9.06-6.044 12.307-10.559 2.319-3.226 3.429-6.963 4.558-10.71.8-2.663 1.757-5.293 2.815-7.863.323-.792 1.12-1.523 1.888-1.955.6-.333 1.485-.16 2.375-.215-.06-.46-.103-1.168-.267-1.843-.047-.192-.445-.347-.712-.427-1.869-.54-3.748-1.055-5.621-1.58.018-.103.042-.202.06-.305.656.113 1.34.15 1.963.357 3.073 1.012 6.24 1.2 9.435 1.158 4.511-.061 8.859-.97 12.855-3.072 1.438-.754 2.67-2.016 3.8-3.225 1.03-1.107.847-2.589.64-3.981l-.294-.094c-.122.375-.286.745-.352 1.135-.042.267.14.581.066.825-.131.422-.3.914-.623 1.158-.178.131-.73-.131-1.05-.323-.388-.235-.744-.779-1.19-.296-.505.553-1.826.46-1.423 1.815.117.389-.235.919-.37 1.383-.45-.136-.984-.16-1.326-.427-.66-.525-1.27-.938-2.043-.3-.253.207-.421.525-.6.811-.06.099-.013.258-.065.366-.201.394-.375 1.05-.651 1.102-.384.07-1.035-.197-1.251-.53-.604-.933-1.293-.975-2.277-.717-.627.164-.824.515-1.11.97-.258.408-.604.849-1.017 1.032-.159.07-.693-.483-.918-.84-.567-.904-1.607-1.378-2.595-.994-.253.099-.356.53-.572.774-.328.375-.688.99-1.044.999-.384.01-1.11-.535-1.13-.877-.121-1.866-1.751-1.904-2.922-2.532-.272-.145-.563-.258-.858-.366-.656-.23-1.349-.633-1.096-1.36.16-.454.722-.773 1.213-1.26.08.346.117.43.099.45-.876.745-1.232.975.253 1.687 3.509 1.688 7.2 2.064 11.037 1.716 3.05-.276 5.945-1.078 8.643-2.47 2.984-1.538 5.673-3.447 6.764-6.88.586-1.846-.098-3.356-1.316-4.697C96.963.95 95.59.407 93.96.843c-.717.192-1.415.53-1.527 1.44-.15 1.176-.272 2.358-.501 3.52-.103.521-.427 1.004-.67 1.492-.052.098-.183.22-.286.225-2.427.122-4.722 1.07-7.149 1.191-2.431.122-4.867.281-7.299.399-.552.028-1.11-.07-1.583-.104-.389-1.64-1.054-3.07-2.183-4.112-1.054-.975-2.431-.525-3.541.033-2.216 1.107-4.08 2.715-5.57 4.708-1.237 1.65-1.345 3.516-.844 5.443.305 1.177.614 2.354 1.017 3.498.637 1.796.75 3.681.421 5.468-.253 1.378.263 2.217.956 3.16.145.197.197.464.29.698-.07.043-.14.085-.21.122-.881-1.106-1.724-2.24-2.647-3.31-1.232-1.43-2.492-2.837-3.795-4.206-.791-.83-1.958-.942-2.895-.319-2.553 1.688-3.77 4.164-3.996 7.146-.084 1.102.839 2.035 1.93 2.12.24.018.487-.08.984-.17-.595-.276-.932-.435-1.265-.59.052-.14.033-.085.084-.225.399.122.816.366 1.195.323.258-.032.464-.478.67-.708.572-.051 1.255-.117 1.972-.187-.028-1.294-1.082-1.637-1.588-2.495.51.32 1.124.549 1.518.976.928 1.012.585 1.8-.768 2.077-.45.089-.872.328-1.368.52.712.783 2.773.868 3.25.225.39-.525.362-1.083-.037-1.65-.206-.3-.384-.708-.365-1.06.075-1.397.234-2.79.469-4.215-.343 1.627.866 2.377 1.69 3.404 1.27 1.585 2.362 3.315 3.519 4.994.093.13.103.323.215.708-.53-.615-.9-1.05-1.382-1.613-.609 1.486-1.19 2.818-1.705 4.177-1.237 3.25-3.073 6.091-5.86 8.201-.834.629-1.893 1.126-2.914 1.304-2.164.38-4.418-1.388-5.313-3.803-1.199-3.235-1.892-6.569-2.31-9.992-.364-3.02-1.095-5.988-3.306-8.271-3.116-3.217-6.845-4.736-11.37-3.76-.333.07-.67.13-1.003.196l-.056.244c.333.075.665.202 1.003.22 2.366.122 4.09 1.459 5.687 3.02.225.22.295.605.272 1.037l-3.519-3.01c-.046.116.043-.113 0 0-.585-.202-.627-.221-1.002-.273-1.897-.544-3.476-.337-5.242-.515L26 18.2c1.157-.37 2.296-.811 3.471-1.088.815-.192 1.41-.487 1.794-1.28.244-.506.69-.914 1.125-1.472.375.413.37.61.703.98.037-.047-.033.047 0 0l.712 1.055c-.052.066.051-.066 0 0 .121.197.121.197.239.394.712-.155 1.447-.24 2.126-.483.708-.249 1.364-.652 2.216-1.07v3.269l3.265-1.397c.103.215.057.117.155.337-.839.427-1.672.849-2.534 1.29.8.712 1.54 1.392 2.319 2.04.112.093.393.014.59-.029.838-.173 1.204.324 2.038.14v.006c.06.22.154.61-.075.6-.567-.019-1.228-.464-2.015-.286l1.28 1.992c.28-.656.51-1.186.852-1.974.112.47.201.718.215.976.01.14-.112.286-.164.431-.698 1.913-.51 2.227 1.485 2.438 1.34.141 1.439.338.708 1.421-.347.511-.717 1.008-1.073 1.515-.553.792-.384 1.275.52 1.603.693.253 1.363.563 2.052.84.595.239.66.572.257 1.064-.66.806-1.302 1.632-2.028 2.55.82.15 1.537.3 2.263.413 1.007.155 1.133.38.59 1.261-.454.741-.96 1.454-1.438 2.18-.113.17-.192.362-.394.732.834-.136 1.5-.197 2.141-.351.764-.183.96-.061.81.722-.14.736-.355 1.458-.524 2.185-.178.755.164 1.153.876 1.322.487-1.135.95-2.227 1.447-3.38.96.45 1.827.726 2.54 1.228.838.595 1.367.506 1.784-.422-.22-.694-.454-1.426-.693-2.157-.192-.586-.005-.91.623-.933.595-.024 1.185-.042 1.78-.056 1.05-.029 1.579-.9 1.12-1.862-.88-1.847-.88-1.847 1.026-2.523 1.26-.445 1.583-1.514.787-2.55-.295-.385-.553-.797-.862-1.243.38-.319.688-.572 1.124-.938-.684-.797-1.377-1.603-2.155-2.513-.44.797-.595 1.44-.07 2.152.871 1.182.225 2.758-1.213 2.833-1.504.08-3.013.032-4.521-.029-.82-.032-1.724-1.036-1.888-1.94-.557-3.086 1.766-7.489 4.666-8.624 1.11-.436 2.29-.304 3.195.652 1.227 1.299 2.431 2.616 3.654 3.925.197.21.417.394.688.647.666-1.655-1.096-1.543-1.494-2.509.234-.286.506-.651.81-.984.684-.741.881-2.185.235-2.936-.281-.328-.876-.403-1.34-.553-.253-.084-.534-.089-.951-.15.3-.544.478-1.055.81-1.42.478-.53.53-1.075.431-1.73-.412-2.631.436-4.798 2.493-6.476 1.457-1.191 2.876-2.438 4.422-3.498.684-.469 1.626-.68 2.473-.746 1.012-.08 1.85.483 2.385 1.365.525.877 1.03 1.768 1.466 2.691.295.629.675.858 1.373.797 3.41-.29 6.82-.534 10.236-.797l1.995-.769c.66-.15 1.312-.38 1.916-.68.244-.122.46-.501.492-.787.08-.647.028-1.313.052-1.97.112-3.146 2.056-4.084 4.76-3.46 3.443.792 5.19 4.937 3.452 8.116-.66 1.205-.956 2.28-.736 3.662.258 1.632-.313 3.132-1.606 4.272-.281.244-.572.474-.778.642-.187.333-.801.924-.801.924zM41.848 52.05l-.45 1.482.235.098c.304-.276.595-.577.922-.83.745-.567.305-.848-.243-1.12-.178-.854-.36-1.712-.543-2.58-1.654.61-1.673 2.05-.619 3.546.234-.197.469-.399.698-.596zm10.138 4.033c.178.267.346.543.534.801.646.891 1.246 1.82 1.972 2.64.253.286.853.478 1.232.399 2.07-.422 3.959-1.28 5.734-2.56-2.16-.934-4.197-1.913-5.598-3.7-1.256.647-2.46 1.252-3.635 1.894-.132.07-.136.361-.202.554-.29-.066-.595-.22-.871-.174-1.124.183-2.235.431-3.584.699.281.91.553 1.838.871 2.747.061.17.314.361.492.376 1.724.145 3.448.257 5.172.375.028-.08.056-.164.08-.244-.16-.169-.36-.314-.469-.516-.595-1.088-1.157-2.19-1.728-3.291zm7.917-5.191c-.249.033-.567-.024-.74.112-1.012.784-1.987 1.613-3.008 2.453 1.148 1.519 2.727 2.344 4.357 3.066.515.23 1.335.474 1.696.235 1.466-.98 2.81-2.143 4.394-3.39-.778-.165-1.284-.277-1.785-.38-1.794-.356-3.528-.853-4.938-2.129 1.275.488 2.516 1.083 3.828 1.425 1.12.291 2.464.671 3.438.296 1.209-.46 1.883-1.833 2.455-3.198-2.39-.075-4.46-.811-6.488-1.735-.192-.089-.61.052-.787.225-.736.708-1.439 1.454-2.113 2.218-.178.197-.21.53-.31.802zm16.55-18.55c-.206 1.192-.295 2.35-.623 3.433-.309 1.013-.145 1.74.675 2.368.267.206.46.511.73.708 1.66 1.205 2.662 1.425 4.592.417 1.953-1.017 3.25-2.644 4.385-4.426.454-.708.754-1.566.21-2.443-.398.234-.754.445-1.105.657-.038-.066-.08-.127-.117-.193.37-.304.735-.61 1.1-.91-.426-.445-.824-.867-1.213-1.275-1.611 1.102-1.649 2.565-.154 3.615-.024.08-.042.165-.066.244-.43-.136-.867-.267-1.284-.398-.093.136-.196.295-.3.45-.116-.793-1.105-1.576.029-2.298.094-.06.089-.469-.019-.605-.417-.548-1.668-.642-2.211-.225-.417.32-.553.624-.14 1.079.318.347.548.778.74 1.06-.483.337-.858.525-1.13.806-.5.516-1.002.703-1.592.178-.806-.699-1.598-1.42-2.506-2.241zm-2.459 8.488c-2.108-.45-4.005-.868-5.912-1.233-.243-.047-.698.117-.792.309-.557 1.125-1.035 2.288-1.536 3.423 1.405 1.205 4.277 2.011 5.93 1.89.282-.02.684-.254.788-.493.557-1.303 1.04-2.64 1.522-3.896zm-1.935 4.909c-2.436-.258-4.642-.661-6.525-2.096-.783 1.017-1.528 1.96-2.244 2.921-.338.45-.244.774.342.947 1.705.502 3.396 1.065 5.115 1.51.398.103 1.082-.005 1.307-.281.726-.896 1.298-1.918 2.005-3.001zm-4.394-6.63c1.963.642 3.85 1.078 5.819.98.276-.014.683-.319.772-.582.281-.82.445-1.683.638-2.536.084-.37.112-.755.182-1.271-2.188.849-4.146-.042-6.212-.197-.388 1.182-.768 2.326-1.199 3.606zm1.171-3.76c1.963.074 3.78.168 5.599.187.29.005.787-.29.838-.525.23-1.079.333-2.18.478-3.245-.782 0-1.373.066-1.949-.014-1.04-.145-2.07-.398-3.11-.549-.216-.032-.614.127-.67.286-.399 1.163-.731 2.35-1.186 3.86zm7.032-4.103c.094-1.027.21-1.984.248-2.94.005-.178-.309-.516-.492-.53-1.199-.09-2.403-.09-3.607-.164-.53-.033-.848.019-.979.656-.164.779-.506 1.515-.796 2.345 1.831.89 3.682.665 5.626.633zm.262-3.822c0-.745.028-1.247-.004-1.74-.075-1.153-1.064-1.875-2.09-1.354-.73.37-1.326 1.055-1.892 1.678-.281.314-.37.802-.633 1.42 1.705-.004 3.115-.004 4.62-.004zM51.166 42.475c1.082.497 2.834-.187 3.584-1.327-.506-.286-1.012-.562-1.509-.853-.693-.408-1.171-.38-1.405.53-.14.553-.431 1.074-.67 1.65zM40.84 45.181c-1.555 1.177-1.593 1.636-.567 4.398 1.972-1.205.628-2.79.567-4.398zm4.516-15.375l.487 3.671c.778-.937 1.42-1.716 2.118-2.564-.928-.394-1.654-.704-2.605-1.107zm-5.228 11.952c-1.139.746-1.293 2.307-.506 3.939 1.935-1.06.478-2.528.506-3.939zm8.709-6.682c-.984-.187-1.776-.337-2.755-.525.337 1.135.6 2.03.937 3.18.665-.967 1.185-1.726 1.818-2.655zm-9.388 2.65c-.862.454-.91 1.003-.356 4.234.51-.183 1.035-.31.913-1.032-.178-1.069-.37-2.138-.557-3.202zm8.432 21.76l-.618-3.028c-.628.755-1.158 1.383-1.795 2.147.858.314 1.565.567 2.413.882zm-.323-20.405c.337.872.496 1.772 1.447 2.283.253-.942.483-1.791.755-2.79-.778.174-1.392.315-2.202.507zm8.713-1.59c.09.558.113.994.248 1.393.043.126.52.258.59.187.422-.44.788-.938 1.298-1.58h-2.136zM44.931 27.382c.08.023.159.042.243.066.394-.572.787-1.144 1.256-1.82-.708-.108-1.274-.192-1.959-.295.174.797.314 1.42.46 2.049zM35.81 17.015c.805.333 1.367.563 1.986.82v-1.833c-.647.328-1.195.61-1.986 1.013zm41.398 1.28c.14-.014.28-.033.421-.047.113-.44.427-1.177.3-1.266-.436-.295-1.026-.36-1.555-.516l-.169.268c.333.525.666 1.04 1.003 1.561zM38.794 37.538c.702-.633.454-2.65-.431-3.934.154 1.388.285 2.584.43 3.934zm56.576-24.64c.623.211 1.063.357 1.5.502-.024-.464-.043-.929-.076-1.655-.59.478-.894.726-1.424 1.153zm-8.765 3.662c.539.478.918.816 1.527 1.36l.197-1.796c-.58.145-.965.244-1.724.436zm6.146-1.791l-.468-.23-.918.872 1.166.62c.07-.423.145-.84.22-1.262zm-32.89 20.003c.313-.816.534-1.379.838-2.167-.66.343-1.087.563-1.616.835.239.413.44.755.778 1.332zM32.398 15.064c-.389.605-.656 1.018-.965 1.496h1.733l-.768-1.496zm30 .67c-.388.653-.613 1.028-.922 1.543.539.104.955.179 1.513.287-.206-.643-.356-1.102-.59-1.83zm20.955 1.286h-1.7c.323.53.562.919.918 1.505.295-.582.496-.961.782-1.505zm-.675 13.396c.951.966 1.256.895 1.79-.375-.632.13-1.134.239-1.79.375zm-20.837-.544l.366-.14c-.136-.432-.235-.882-.431-1.28-.047-.1-.455-.132-.605-.043-.112.07-.178.44-.098.572.21.328.51.6.768.89zm1.879-7.005v-1.8c-.375.477-.614.777-.895 1.139.31.225.562.412.895.66z"/>
    <path fill="#AEAEAE" d="M73.418 8.908c-.136.187-.286.619-.548.699-.328.103-.806.018-1.106-.17-.698-.44-1.222-2.166-.96-2.958.173-.525.525-.825 1.044-.427.872.662 1.34 1.585 1.57 2.856zM67.632 8.96c.117-.263.188-.704.366-.755.309-.094.796-.066 1.012.13.52.47 1.002 1.023 1.34 1.633.159.29.084.998-.127 1.134-.323.207-.946.235-1.284.052-.604-.333-1.353-1.238-1.307-2.195zM95.764 4.167c-.249-.056-.497-.117-.745-.173-.131 1.05.468 1.908 1.616 2.541-.319.02-.792.183-.932.033-.539-.572-1.101-1.186-1.387-1.894-.16-.394.21-.999.342-1.51.422.234.839.469 1.26.703-.056.099-.103.197-.154.3zM98.35 4.332c-.024.422-.047.844-.08 1.373-1.546-.787-2.052-2.227-1.246-3.146.215.146.44.29.773.511-1.03.516-.398 1.041-.108 1.627l.408-.38.253.015zM37.154 25.286c.052.131.14.263.14.399 0 .38-.037.76-.06 1.134-.136-.042-.38-.075-.384-.13-.052-.465-.057-.934-.08-1.398.126-.005.258-.005.384-.005zM36.077 23.012c.876.14.665.764.754 1.2.01.047-.192.207-.253.188-.127-.042-.29-.155-.323-.267-.08-.338-.113-.69-.178-1.121zM44.247 20.864s.595-.093.262 1.309l-.262-.207v-1.102zM41.722 20.864v-3.38l-.052-.39s.394-.398.445.92c.052 1.317.183 2.85.183 2.85l-.633.202"/>
</svg>
