<svg xmlns="http://www.w3.org/2000/svg" width="127" height="68" fill="none" viewBox="0 0 127 68">
    <path fill="#AEAEAE" d="M54.51 58.996c-7.734 0-15.007-1.191-20.486-3.36-5.603-2.212-8.685-5.204-8.685-8.426 0-4.955 7.354-9.28 18.738-11.02.23-.036.444.122.48.352.037.23-.12.444-.35.48-10.78 1.648-18.025 5.742-18.025 10.188 0 2.85 2.896 5.564 8.157 7.643 5.382 2.128 12.546 3.299 20.175 3.299 7.628 0 14.793-1.171 20.174-3.299 5.26-2.08 8.157-4.793 8.157-7.643 0-2.496-2.3-4.955-6.474-6.921-4.236-1.995-10.122-3.355-16.577-3.832-.23-.016-.407-.218-.387-.452.016-.23.222-.408.452-.388 6.555.485 12.55 1.874 16.875 3.909 4.486 2.111 6.959 4.841 6.959 7.68 0 3.218-3.087 6.214-8.686 8.426-5.49 2.173-12.768 3.364-20.497 3.364z"/>
    <path fill="#AEAEAE" d="M54.51 56.173c-6.043 0-11.732-.896-16.016-2.527-4.413-1.68-6.842-3.965-6.842-6.432 0-4.119 6.77-7.595 16.847-8.653.23-.025.44.145.464.375.024.23-.145.44-.375.465-4.595.48-8.734 1.538-11.655 2.975-2.864 1.41-4.438 3.13-4.438 4.842 0 2.063 2.296 4.122 6.302 5.644 4.191 1.595 9.774 2.476 15.717 2.476 5.942 0 11.525-.88 15.717-2.476 4.006-1.522 6.3-3.581 6.3-5.644 0-3.679-7.067-6.998-16.805-7.886-.23-.02-.404-.226-.38-.456.02-.23.227-.4.456-.38 4.866.444 9.279 1.514 12.434 3.016 3.36 1.603 5.135 3.574 5.135 5.706 0 2.467-2.428 4.752-6.842 6.432-4.288 1.623-9.976 2.523-16.02 2.523z"/>
    <path fill="#AEAEAE" d="M54.17 60.68c-7.733 0-15.006-1.192-20.485-3.36C28.082 55.107 25 52.115 25 48.893c0-.234.19-.42.42-.42.233 0 .42.19.42.42 0 2.851 2.896 5.564 8.156 7.644 5.382 2.128 12.546 3.299 20.175 3.299 7.003 0 13.736-1.01 18.96-2.847.218-.077.46.036.537.258.076.218-.037.46-.259.538-5.308 1.869-12.138 2.895-19.238 2.895zM74.45 47.633c-.234 0-.42-.19-.42-.42 0-2.79-6.147-5.35-14.296-5.951-.23-.016-.408-.218-.387-.452.016-.23.221-.408.451-.388 8.875.658 15.076 3.452 15.076 6.792-.004.23-.194.42-.424.42zM43.186 42.905c-.178 0-.339-.113-.4-.286-.072-.222.045-.46.267-.533 1.573-.525 3.372-.945 5.345-1.252.23-.036.444.121.48.351.036.23-.121.444-.351.48-1.924.3-3.68.707-5.208 1.216-.044.016-.089.024-.133.024zM99.95 68c-1.597 0-3.268-.48-3.368-.509l-.033-.012-20.735-7.865.298-.788 20.72 7.858c.948.274 3.598.82 4.748.157.262-.15.419-.351.488-.618l.815.206c-.125.493-.42.88-.884 1.147-.552.315-1.291.424-2.049.424z"/>
    <path fill="#AEAEAE" d="M99.777 65.73c-1.364 0-2.498-.536-2.68-.63l-24.172-9.302 4.684-2.285.174.068c.21.08 21.199 8.273 23.514 9.138.916.343 1.388.763 1.441 1.284.064.633-.537 1.03-.606 1.074-.778.488-1.601.654-2.355.654zm-24.75-10.025l22.41 8.625.02.012c.024.012 2.372 1.195 4.22.02.092-.06.226-.202.217-.279-.008-.088-.209-.323-.899-.581-2.207-.824-21.333-8.286-23.354-9.077l-2.614 1.28zM48.12 30.364v-.618c0-6.137-.004-12.279-.004-18.416 0-1.777 0-3.553.004-5.33.008-3.287 2.71-5.984 6.002-6 3.308-.016 6.044 2.625 6.06 5.928.028 5.152.008 10.308.008 15.46v.929c1.884-.27 3.364-1.922 3.372-3.71.008-1.677-.004-3.352.004-5.028.012-2.192 1.642-3.824 3.8-3.82 2.122.004 3.732 1.62 3.752 3.796.016 1.61-.024 3.226.012 4.841.113 4.748-2.78 8.924-7.265 10.736-.924.376-1.896.65-2.869.88-.596.142-.83.336-.827 1.014.037 4.882.029 9.763.017 14.645-.004 1.76-.775 2.875-2.409 3.513-.464.182-.96.299-1.452.372-1.815.278-3.63.278-5.41-.243-1.88-.553-2.787-1.797-2.791-3.75-.004-2.201 0-4.402 0-6.599v-.694c-1.824-.376-3.542-.876-5.1-1.813-3.8-2.285-5.805-5.617-5.829-10.086-.016-2.552-.036-5.108.016-7.66.025-1.203.662-2.124 1.642-2.826 1.356-.965 2.776-.864 4.123-.126 1.247.687 1.795 1.874 1.787 3.311-.012 2.471-.008 4.947 0 7.418-.004 1.89 1.436 3.565 3.357 3.876zm.883-9.646v10.058c0 .727-.181.856-.875.618-.476-.162-.956-.32-1.404-.541-1.896-.945-2.893-2.451-2.877-4.612.02-2.43.02-4.861 0-7.292-.012-1.76-1.81-3.303-3.36-2.915-1.585.396-2.481 1.563-2.469 3.23.016 2.471.008 4.942.057 7.414.06 2.826 1.1 5.26 3.11 7.255 1.924 1.91 4.312 2.9 6.939 3.388.859.158.88.182.88 1.05 0 2.41-.009 4.821.003 7.231.008 1.446.638 2.318 1.993 2.783 1.646.56 3.348.537 5.03.302 2.792-.387 3.317-1.627 3.284-3.904-.06-4.821-.008-9.638-.032-14.46-.004-.645.186-.924.835-1.053 1-.198 2.005-.44 2.961-.8 4.538-1.696 7.27-5.632 7.157-10.175-.037-1.53-.004-3.06-.008-4.59-.004-1.765-1.235-3.061-2.889-3.057-1.654.004-2.884 1.3-2.892 3.06-.008 1.676.008 3.352-.004 5.031-.012 1.264-.468 2.387-1.469 3.134-.807.601-1.75 1.041-2.682 1.437-.852.363-1 .202-1-.755 0-5.491.003-10.983-.005-16.474-.004-2.855-2.271-5.14-5.079-5.152C51.34.917 49.043 3.149 49 6.024c-.024 1.607-.004 3.218-.004 4.826.008 3.286.008 6.577.008 9.868z"/>
</svg>
