<svg xmlns="http://www.w3.org/2000/svg" width="32" height="32" fill="none" viewBox="0 0 32 32">
    <path fill="#fff" d="M21.386 30h-1.834c-.063-.03-.122-.078-.188-.089-2.331-.405-4.04-1.67-5.213-3.714-.11-.191-.396-.351-.625-.393-2.914-.534-5.833-1.043-8.75-1.561-.735-.13-.76-.166-.76-.903-.002-5.721.006-11.444-.016-17.165-.002-.574.194-.792.737-.885 2.902-.5 5.8-1.02 8.697-1.545 1.286-.233 2.567-.495 3.85-.745h.432v3.364c.339.02.586.047.832.047 2.21-.001 4.418-.009 6.627-.009.896 0 .933.041.933.949-.001 3.45-.014 6.903.007 10.354.002.365.128.78.328 1.084 2.686 4.058.693 9.568-3.974 10.93-.357.104-.721.187-1.083.281zm-7.041-7.226c-.019 3.416 2.728 6.209 6.122 6.224 3.372.015 6.175-2.788 6.181-6.182.007-3.369-2.754-6.166-6.112-6.196-3.386-.029-6.172 2.74-6.191 6.154zm-6.25-11.79c.493 1.066.93 2.069 1.418 3.046.258.517.26.952-.023 1.468-.541.983-1.011 2.004-1.518 3.02 1.291.362 1.443.284 1.915-.868.248-.607.516-1.207.824-1.927.402.948.727 1.777 1.107 2.58.11.23.357.492.584.545.387.09.809.024 1.28.024-.095-.222-.155-.386-.233-.543-.463-.933-.904-1.878-1.404-2.79-.298-.545-.312-1.018-.015-1.57.51-.949.96-1.93 1.431-2.898.057-.117.086-.248.14-.404h-.377c-1.145-.007-1.14-.005-1.56 1.044-.272.68-.563 1.35-.883 2.115-.328-.853-.62-1.6-.902-2.351-.16-.43-.454-.63-.912-.582l-.872.091zm16.2 1.834c.013-.148.028-.251.028-.355 0-1.668.098-1.376-1.354-1.424-.706-.023-1.415-.004-2.15-.004 0 .524-.035.956.018 1.377.018.15.245.384.383.388 1.016.034 2.033.018 3.076.018zm-3.47-4.596c0 .462-.048.877.02 1.275.03.176.289.435.454.444.856.045 1.717.037 2.575.009.146-.005.398-.183.41-.3.047-.468.02-.944.02-1.428h-3.48zm1.67 7.415v.017h.646c1.206-.002 1.267-.082 1.195-1.3-.02-.344-.14-.477-.485-.47-.735.018-1.47 0-2.207.01-.753.011-.876.143-.873.884.001.16-.031.349.038.477.083.153.248.349.396.365.425.049.86.018 1.29.018zm-2.62-2.844V11.06h-2.074v1.735h2.075zm-.026-2.876V8.214H17.78v1.703h2.068zm-2.034 3.991V15.6h2.045v-1.692h-2.045z"/>
    <path fill="#fff" d="M16.756 24.694l.662-.852c-.278-.247-.55-.45-.776-.694-.68-.738-.68-1.688-.02-2.437 1.343-1.526 4.585-1.506 5.898.038.625.736.62 1.687-.04 2.399-.82.881-1.883 1.157-3.035 1.119-.495-.017-.933.042-1.386.273-.373.191-.819.24-1.232.352l-.071-.198zm1.737-1.24l-.278.206c.327 0 .655-.015.98.003 1.02.058 1.974-.1 2.74-.843.566-.548.551-1.246-.008-1.803-1.132-1.127-3.622-1.128-4.744-.003-.545.548-.574 1.212-.039 1.765.209.215.468.392.733.534.18.096.409.098.616.141z"/>
    <path fill="#fff" d="M19.239 24.9c3.259-.344 4.186-1.121 4.352-3.549 1.647.7 1.652 2.277-.024 3.646l.659.914-.1.185c-.492-.163-.98-.335-1.476-.483-.262-.08-.54-.17-.806-.16-.874.036-1.71-.06-2.605-.552z"/>
</svg>
