<svg xmlns="http://www.w3.org/2000/svg" width="32" height="32" fill="none" viewBox="0 0 32 32">
    <path fill="#fff" d="M10.335 14.14c-.082.113-.132.206-.204.277-1.278 1.277-2.556 2.55-3.837 3.826-.47.466-.814.468-1.285.009-.252-.247-.507-.49-.75-.743-.34-.354-.35-.791-.004-1.138 1.855-1.864 3.715-3.724 5.578-5.58.327-.324.771-.305 1.118.027.3.29.585.593.88.888 1.006 1.011 2.013 2.02 3.021 3.03.072.07.147.138.179.169l9.421-9.371c-.468-.466-.937-.936-1.407-1.408-.084-.085-.173-.17-.239-.27-.22-.337-.039-.762.357-.837.098-.02.204-.018.304-.018h4.75c.596 0 .783.186.783.779v4.752c0 .056 0 .111-.002.167-.009.251-.1.448-.348.55-.246.1-.455.03-.633-.147-.448-.443-.891-.89-1.337-1.334-.072-.071-.145-.14-.304-.291-.064.109-.103.221-.178.298-3.231 3.238-6.465 6.474-9.702 9.709-.274.275-.558.54-.837.812-.362.352-.787.36-1.155.006-.294-.282-.578-.574-.867-.863l-3.022-3.029c-.068-.073-.143-.14-.28-.27z"/>
    <path fill="#fff" d="M26.2 9.567v17.5c0 .675-.268.941-.943.941-.712 0-1.426.002-2.138 0-.598-.001-.886-.289-.886-.89-.002-4.462-.002-8.927.004-13.39 0-.116.045-.264.121-.343 1.225-1.238 2.456-2.466 3.688-3.697.027-.025.057-.045.153-.121zM21.059 14.719v12.312c0 .727-.254.98-.99.98-.702 0-1.406.003-2.109-.003-.578-.003-.867-.294-.867-.878-.002-2.749-.002-5.5.005-8.248 0-.123.05-.28.136-.366 1.21-1.225 2.429-2.44 3.646-3.658.036-.035.08-.064.179-.139zM10.312 15.934c.353.22.466.451.464.8-.015 3.425-.01 6.852-.01 10.278 0 .753-.242.996-.997.998-.694 0-1.389.004-2.083-.002-.59-.003-.876-.282-.876-.868-.004-2.482-.004-4.963.003-7.445 0-.108.04-.245.113-.318 1.063-1.07 2.136-2.133 3.204-3.197.07-.072.12-.164.182-.246zM11.964 17.553c.111.1.179.157.241.22.38.379.775.745 1.134 1.143.696.773 1.512 1.098 2.567.741.007.118.016.215.016.311 0 2.368.002 4.738 0 7.106 0 .641-.291.934-.929.936-.73.002-1.461.004-2.191-.002-.557-.003-.85-.287-.85-.835-.004-3.137-.002-6.275-.002-9.41-.002-.047.006-.092.014-.21z"/>
</svg>
