<svg xmlns="http://www.w3.org/2000/svg" width="17" height="20" fill="none" viewBox="0 0 21 26">
    <g clip-path="url(#clip0)">
        <path fill="#B2B2B2" fill-rule="evenodd" d="M20.892 21.93l-1.8-3.1c-.833-1.44-1.271-3.074-1.27-4.738v-2.717c.014-1.611-.487-3.185-1.43-4.491-.943-1.307-2.278-2.278-3.812-2.773V2.167c.017-.286-.025-.571-.123-.84s-.25-.515-.446-.723c-.197-.208-.433-.373-.696-.487-.263-.113-.545-.171-.832-.171-.286 0-.568.058-.831.171-.263.114-.5.28-.696.487-.196.208-.348.454-.446.723-.098.269-.14.554-.123.84v1.944c-1.534.495-2.87 1.466-3.812 2.773-.943 1.306-1.444 2.88-1.43 4.491v2.716c0 1.663-.437 3.297-1.27 4.737l-1.8 3.1c-.048.083-.074.177-.075.272 0 .096.023.19.069.274.044.082.11.152.19.2.08.048.171.074.265.075h19.918c.093 0 .185-.026.265-.075.08-.048.146-.117.191-.199.046-.084.069-.178.068-.273-.001-.096-.027-.19-.074-.272zm-13.71 1.9c.28.642.741 1.189 1.328 1.573.586.384 1.271.588 1.972.588.7 0 1.386-.204 1.972-.588.586-.384 1.048-.93 1.328-1.573h-6.6z" clip-rule="evenodd"/>
    </g>
    <defs>
        <clipPath id="clip0">
            <path fill="#fff" d="M0 0H21V26H0z"/>
        </clipPath>
    </defs>
</svg>
