<svg width="28" height="20" viewBox="0 0 28 20" fill="none" xmlns="http://www.w3.org/2000/svg">
<g clip-path="url(#clip0_1765_7268)">
<path d="M16.7768 8.65497C17.8182 7.83625 18.3967 6.66666 18.6281 5.38011C18.7438 3.9766 18.281 2.57309 17.3553 1.52046C15.5041 -0.467842 12.4958 -0.467842 10.5289 1.4035C9.48758 2.33918 9.02477 3.74268 9.14047 5.26315C9.25617 6.5497 9.83468 7.83625 10.9917 8.65497C8.33055 9.82456 6.82642 11.8129 6.24791 14.7368C5.9008 16.3743 6.36361 17.5439 7.75204 18.3626C8.09915 18.5965 8.44626 18.8304 8.79336 18.9474C10.5289 19.6491 12.1487 20 13.8843 20C15.6198 20 17.3553 19.6491 19.0909 18.8304C19.7851 18.4795 20.3636 18.0117 20.9421 17.5439C21.5206 17.076 21.752 16.3743 21.752 15.6725C21.4049 12.3977 19.7851 10.0585 16.7768 8.65497ZM13.0744 9.7076C13.3058 9.7076 13.5372 9.7076 13.6529 9.7076C16.5454 9.7076 19.0909 11.6959 19.7851 14.5029C19.7851 14.6199 19.9008 14.8538 19.9008 15.0877C19.9008 15.2047 19.9008 15.3216 19.9008 15.4386C20.0165 16.0234 19.7851 16.3743 19.3223 16.7251C18.5124 17.3099 17.5867 17.7778 16.4297 18.0117C15.8512 18.1286 15.157 18.2456 14.5785 18.3626C14.3471 18.3626 14 18.4795 13.7686 18.4795C12.4958 18.3626 10.9917 18.2456 9.48758 17.5439C8.90906 17.3099 8.44626 16.9591 7.98345 16.6082C7.75204 16.3743 7.63634 16.1403 7.63634 15.6725C7.75204 12.6316 10.1818 9.94152 13.0744 9.7076ZM13.7686 1.63742C14.5785 1.63742 15.3884 1.9883 16.0826 2.57309C16.6611 3.15789 17.0082 3.9766 17.0082 4.91228C17.0082 5.84795 16.6611 6.66666 15.9669 7.25146C15.3884 7.83625 14.5785 8.18713 13.8843 8.07017C13.1901 8.07017 12.3801 7.83625 11.6859 7.25146C10.9917 6.66666 10.6446 5.73099 10.6446 4.91228C10.6446 3.04093 12.033 1.63742 13.7686 1.63742Z" fill="white"/>
<path d="M24.9917 8.42105C26.2645 6.66666 26.3802 4.79532 24.9917 3.50877C23.719 2.22222 21.7521 2.10526 20.3636 3.27485C19.6694 3.85965 19.2066 4.5614 19.2066 5.49707C19.0909 6.54971 19.438 7.60234 20.2479 8.42105L18.5124 9.47368L19.7851 10.5263L20.1322 10.2924C21.405 9.35672 22.6777 9.12281 24.0661 9.7076C25.4545 10.2924 26.1488 11.345 26.3802 12.8655C26.3802 13.2164 26.2645 13.4503 26.0331 13.6842C25.3388 14.152 24.6446 14.386 23.6033 14.6199C23.2562 14.6199 22.9091 14.7368 22.562 14.7368H21.8678V16.3743H22.2149C22.4463 16.3743 22.562 16.3743 22.7934 16.3743C23.2562 16.3743 23.6033 16.3743 24.0661 16.2573C25.3388 16.0234 26.3802 15.6725 27.1901 14.9708C27.8843 14.386 28.1157 13.6842 28.1157 12.8655C27.6529 10.8772 26.7273 9.35672 24.9917 8.42105ZM22.562 3.97661C23.6033 3.97661 24.4132 4.79532 24.4132 5.84795C24.4132 6.90058 23.6033 7.7193 22.562 7.7193C21.5207 7.7193 20.7107 6.90058 20.7107 5.84795C20.7107 5.38012 20.9421 4.91228 21.2892 4.44444C21.5207 4.21052 21.9835 3.97661 22.562 3.97661Z" fill="white"/>
<path d="M4.16529 14.5029C3.23967 14.386 2.54546 14.152 1.96695 13.6842C1.61984 13.4503 1.50414 13.2164 1.50414 12.9824C1.61984 11.462 2.31405 10.4094 3.58678 9.7076C4.85951 9.1228 6.13224 9.23976 7.40496 10.0585L7.86777 10.4093L9.2562 9.35672L7.63637 8.42105C8.90909 6.66666 8.90909 4.91227 7.52066 3.62572C6.36364 2.33917 4.281 2.22222 3.00827 3.50877C1.61984 4.79532 1.61984 6.5497 2.89257 8.42105C1.38843 9.23976 0.462814 10.4093 0.115706 12.0468C-0.231401 13.6842 0.231409 14.6199 1.61984 15.3216C2.31405 15.6725 3.12397 15.9064 3.93389 16.0234C4.281 16.1403 4.74381 16.1403 5.09091 16.1403C5.20662 16.1403 5.43802 16.1403 5.55372 16.1403H5.90083V14.6199H5.20662C4.85951 14.5029 4.5124 14.5029 4.16529 14.5029ZM3.47108 5.96491C3.47108 5.49707 3.70248 5.02923 4.04959 4.67836C4.3967 4.32748 4.85951 4.09356 5.32232 4.09356C5.78513 4.21052 6.24794 4.32748 6.59504 4.67836C6.94215 5.02923 7.05785 5.49707 7.05785 5.96491C7.05785 7.01754 6.24794 7.83625 5.20662 7.83625C4.281 7.83625 3.47108 7.01754 3.47108 5.96491Z" fill="white"/>
</g>
<defs>
<clipPath id="clip0_1765_7268">
<rect width="28" height="20" fill="white"/>
</clipPath>
</defs>
</svg>
