<svg width="46" height="46" viewBox="0 0 46 46" fill="none" xmlns="http://www.w3.org/2000/svg">
<rect width="46" height="46" rx="7" fill="#006B5B"/>
<g clip-path="url(#clip0_2714_8726)">
<path d="M20.0459 25.4023C20.8165 25.4023 21.4587 25.4023 22.2294 25.4023C24.156 25.4023 25.8257 23.8851 25.8257 21.9885C25.8257 19.8391 25.8257 17.5632 25.8257 15.4138C25.8257 13.8966 24.6697 12.5057 23.2569 12.1264C23.1284 12.1264 22.8716 12 22.7431 12C19.1468 12 15.6789 12 12.211 12C12.0826 12 11.8257 12.1264 11.6972 12.1264C10.2844 12.6322 9.38532 13.5172 9 14.908V15.0345C9 17.4368 9 19.8391 9 22.2414V22.3678C9.25688 23.8851 10.5413 25.1494 12.0826 25.2759C12.8532 25.4023 13.6239 25.2759 14.3945 25.2759C14.7798 25.2759 15.1651 25.2759 15.5505 25.2759C15.1651 26.9195 14.6514 28.4368 13.2385 29.4483C13.367 29.4483 13.367 29.4483 13.367 29.4483C15.8073 28.8161 17.9908 27.4253 19.5321 25.4023C19.789 25.4023 19.9174 25.4023 20.0459 25.4023ZM18.7615 21.2299C17.8624 21.4828 16.9633 21.4828 16.1927 21.2299C14.9083 20.977 14.1376 19.9655 14.0092 18.5747C14.0092 18.1954 14.0092 17.8161 14.1376 17.4368C14.3945 16.1724 15.422 15.2874 16.9633 15.1609C17.4771 15.1609 18.1193 15.1609 18.633 15.2874C19.6606 15.6667 20.4312 16.4253 20.5596 17.4368C20.8165 18.5747 20.6881 19.5862 19.9174 20.4713C20.3028 20.5977 20.5596 20.7241 20.945 20.977C20.6881 21.2299 20.5596 21.6092 20.3028 21.9885C19.9174 21.7356 19.5321 21.4828 19.2752 21.3563C19.0183 21.2299 18.8899 21.1034 18.7615 21.2299Z" fill="white"/>
<path d="M37 18.7011C37 18.5747 37 18.5747 37 18.7011C36.7431 16.931 35.7156 15.793 33.9175 15.1609C33.5321 15.0344 33.1468 15.0344 32.7615 15.0344C31.734 15.0344 30.578 15.0344 29.5505 15.0344H28.7798C28.523 15.0344 28.2661 15.1609 28.1376 15.2873C28.0092 15.4137 27.8808 15.6666 28.0092 15.9195C28.1376 16.2988 28.3945 16.5517 28.9083 16.5517C29.422 16.5517 29.8074 16.5517 30.3211 16.5517C31.2202 16.5517 31.9908 16.5517 32.8899 16.5517C34.4312 16.5517 35.7156 17.816 35.7156 19.3333C35.7156 21.3563 35.7156 23.3793 35.7156 25.6551C35.7156 27.0459 34.8165 28.1839 33.4037 28.4367C33.1468 28.4367 32.8899 28.4367 32.7615 28.4367C32.1193 28.4367 31.6055 28.4367 30.9633 28.4367C30.3211 28.4367 29.8074 28.4367 29.1652 28.4367C28.9083 28.4367 28.523 28.5632 28.3945 28.816C28.2661 28.9425 28.2661 29.1953 28.2661 29.4482C28.523 30.0804 28.6514 30.7126 28.9083 31.3448C29.0367 31.5976 29.0367 31.7241 29.1652 31.977C27.6239 31.2183 26.4679 30.2068 25.4404 28.9425C25.1835 28.6896 24.9266 28.5632 24.5413 28.5632C24.0275 28.5632 23.6422 28.5632 23.1285 28.5632H22.3578C21.8441 28.5632 21.3303 28.4367 20.8165 28.1838C20.5597 28.0574 20.3028 28.0574 20.1743 28.0574C20.0459 28.0574 19.789 28.1839 19.789 28.4367C19.5321 28.816 19.789 29.1953 20.1743 29.4482C20.8165 29.8275 21.4587 29.954 22.2294 29.954H22.7431C23.1285 29.954 23.6422 29.954 24.0275 29.954C24.156 29.954 24.2844 29.954 24.2844 30.0804C25.5688 31.5976 27.2386 32.862 29.1652 33.6206C29.5505 33.7471 29.9358 33.8735 30.4496 33.9999C30.7064 33.9999 30.8349 34.1264 31.0918 34.2528H31.4771C31.8624 33.9999 31.9908 33.8735 31.9908 33.6206C31.9908 33.3678 31.8624 33.1149 31.6055 32.862C30.8349 32.2298 30.3211 31.3448 29.9358 30.0804H30.8349C31.4771 30.0804 32.1193 30.0804 32.7615 30.0804C35.0734 30.0804 36.7431 28.5632 37.1285 26.4137L37 18.7011Z" fill="white"/>
<path d="M28.7798 25.5288C28.9082 25.4023 29.0367 25.023 29.0367 24.7701C29.0367 24.6437 29.1651 24.5173 29.2936 24.6437C29.6789 24.6437 30.0642 24.6437 30.4495 24.6437C30.7064 24.6437 31.0917 24.5173 31.2202 24.6437C31.3486 24.7701 31.3486 25.1495 31.477 25.2759C31.6055 25.2759 31.6055 25.4023 31.7339 25.4023C32.3761 25.4023 32.8899 25.4023 33.5321 25.4023C33.5321 25.2759 33.5321 25.2759 33.5321 25.2759C32.7614 23.5058 32.1192 21.7357 31.3486 19.9655C31.3486 19.8391 31.2202 19.8391 31.0917 19.8391C30.578 19.8391 30.0642 19.8391 29.5504 19.8391C29.2936 19.8391 29.2936 19.9655 29.1651 20.092C28.5229 21.7357 27.7523 23.5058 27.1101 25.1495C27.1101 25.2759 27.1101 25.2759 26.9816 25.4023C27.3669 25.4023 27.6238 25.4023 28.0092 25.4023C28.266 25.6552 28.5229 25.6552 28.7798 25.5288ZM30.1926 21.4828C30.4495 22.115 30.7064 22.7472 30.8348 23.3793C30.7064 23.3793 30.7064 23.3793 30.578 23.3793C30.1926 23.3793 29.9358 23.3793 29.422 23.3793C29.6789 22.7472 29.9358 22.115 30.1926 21.4828Z" fill="white"/>
<path d="M17.4771 16.5518C16.8349 16.5518 16.3211 16.8046 16.1927 17.3104C15.9358 17.9426 15.9358 18.7012 16.1927 19.3334C16.3211 19.7127 16.9633 20.092 17.7339 19.9656C17.4771 19.8391 17.2202 19.7127 16.9633 19.5862C16.9633 19.4598 17.0917 19.3334 17.0917 19.2069C17.2202 18.8276 17.3486 18.8276 17.6055 18.9541C17.9908 19.0805 18.1193 19.3334 18.5046 19.4598C18.7615 18.9541 18.8899 18.069 18.633 17.4368C18.3761 16.9311 17.9908 16.6782 17.4771 16.5518Z" fill="white"/>
</g>
<defs>
<clipPath id="clip0_2714_8726">
<rect width="28" height="22" fill="white" transform="translate(9 12)"/>
</clipPath>
</defs>
</svg>
