<svg width="30" height="19" viewBox="0 0 30 19" fill="none" xmlns="http://www.w3.org/2000/svg">
<g clip-path="url(#clip0_1765_7267)">
<path d="M9 10C11.5 10 13.6 8 13.6 5.5C13.6 4.3 13.1 3.1 12.3 2.2C11.5 1.3 10.3 0.900003 9.1 0.800003C6.6 0.800003 4.6 2.8 4.5 5.3C4.5 6.5 5 7.7 5.8 8.6C6.6 9.5 7.7 10 9 10ZM9 2.4C10.7 2.4 12 3.8 12 5.4C12 6.2 11.7 7 11.1 7.6C10.6 8.2 9.8 8.5 9 8.5C8.2 8.5 7.4 8.2 6.9 7.6C6.3 7 6 6.2 6 5.4C6 4.6 6.3 3.8 6.9 3.3C7.4 2.7 8.2 2.4 9 2.4Z" fill="white"/>
<path d="M28.4 5.8C27.4 5.8 26.5 5.8 25.5 5.8C25.4 5.6 25.4 5.4 25.3 5.3C24.9 3.8 24.5 2.3 24 0.799999C23.9 0.499999 23.5 0.199999 23.2 0.0999992C22.7 -8.51229e-07 22.6 0.399999 22.4 0.799999C21.6 3 20.7 5.2 19.8 7.3C19.8 7.4 19.7 7.5 19.6 7.6C19 6 18.3 4.5 17.7 3C17.6 2.7 17.2 2.4 16.9 2.3C16.7 2.3 16.3 2.6 16.2 2.9C15.8 3.6 15.4 4.4 15.1 5.1L14.8 7.1C15.4 7.1 15.7 6.9 15.9 6.4C16.2 5.7 16.5 5.1 16.9 4.4C17.7 6.2 18.4 7.9 19.1 9.6C19.2 9.9 19.6 10.1 19.8 10.2C20 10.2 20.3 9.9 20.4 9.7C21.2 7.7 22 5.7 22.7 3.7C22.8 3.4 22.9 3.2 23 3C23.4 4.3 23.7 5.4 24 6.5C24.1 6.9 24.4 7.2 24.8 7.2C26 7.2 27.2 7.2 28.3 7.2C28.8 7.2 29.2 7.1 29.2 6.5C29.3 5.9 28.9 5.8 28.4 5.8Z" fill="white"/>
<path d="M12.4 11C11.6 11 10.7 11 9.9 11C9.6 11 9.3 11 9.1 11C8.8 11 8.5 11 8.3 11C7.5 11 6.6 11 5.8 11C3.4 11.1 1.7 12.3 0.6 14.5C0 15.6 0 16.8 0 17.9C0 18.5 0.3 18.8 0.9 18.8C2.3 18.8 3.7 18.8 5 18.8C6.3 18.8 7.7 18.8 9 18.8C10.3 18.8 11.7 18.8 13 18.8C14.4 18.8 15.8 18.8 17.1 18.8C17.7 18.8 18 18.5 18 17.9C18 16.8 18 15.6 17.5 14.5C16.5 12.3 14.8 11.1 12.4 11ZM7.4 17.3H1.5C1.4 16.1 1.7 14.9 2.5 14C3.3 13.1 4.4 12.5 5.6 12.5C6.3 12.5 7.1 12.5 7.8 12.5C8.1 12.5 8.4 12.5 8.7 12.5C8.8 12.5 8.8 12.5 8.9 12.5C9 12.5 9 12.5 9.1 12.5C9.4 12.5 9.7 12.5 10 12.5C10.7 12.5 11.5 12.5 12.2 12.5C13.4 12.5 14.6 13.1 15.3 14C16.1 14.9 16.4 16.1 16.3 17.3H10.4C9.9 17.3 9.3 17.3 8.8 17.3C8.5 17.3 8 17.3 7.4 17.3Z" fill="white"/>
</g>
<defs>
<clipPath id="clip0_1765_7267">
<rect width="29.3" height="18.8" fill="white"/>
</clipPath>
</defs>
</svg>
