<svg xmlns="http://www.w3.org/2000/svg" width="32" height="32" fill="none" viewBox="0 0 32 32">
    <path fill="#fff" d="M3.234 20.916s-4.473-4.475-.76-7.903c3.711-3.428 3.615 3.952 3.615 3.952s0 4.034 2.38 7.476c2.381 3.442.19 4.219-.952 3.442-1.142-.777-4.283-6.966-4.283-6.966z"/>
    <path fill="#fff" d="M20.935 4.06c-2.952-2.096-13.8 8.042-13.8 8.042S6.116 17.515 8.85 20.13l11.707 1.167s3.237.76 4.093-3.24c.857-3.999-.763-11.9-3.714-13.996zm2.762 13.81c-1.118 3.791-2.57 2.261-2.57 2.261-.75-.846-1.337-1.797-1.817-2.784-1.266-2.603-1.544-4.576-1.74-6.516-.27-2.659-.06-4.672-.06-4.672 1.618-4.096 3.902.19 4.188.667.285.473 3.114 7.25 1.999 11.044z"/>
    <path fill="#fff" d="M20 17c-.4-.4-2-5-1.5-6.5S21 9.5 22 12s-1.5 5.5-2 5zM23.956 5.678L27.977 3l1.049 2.013-4.665 1.522-.405-.857zM25.407 8.917L30 8.06v2.382h-4.593V8.917zM26.49 13.488H30v2.542l-3.51-.828v-1.714z"/>
</svg>
