<svg xmlns="http://www.w3.org/2000/svg" width="32" height="32" fill="none" viewBox="0 0 32 32">
    <path fill="#fff" d="M28.934 30c-2.199-2.135-4.413-4.256-6.578-6.425-.35-.35-.428-.956-.718-1.382-.454-.67-.981-1.286-1.502-1.96-2.506 1.708-5.118 2.325-7.974 1.777-1.971-.378-3.66-1.284-5.162-2.761l1.67-1.427c4.29 2.834 7.845 2.847 10.864-.023 2.644-2.513 3.197-6.6 1.318-9.732-1.882-3.14-5.65-4.554-9.107-3.419-3.235 1.06-5.572 4.306-5.296 7.468h2.954c-1.44 1.446-2.854 2.862-4.213 4.226-1.306-1.308-2.723-2.724-4.19-4.19h3.09c.103-2.967 1.128-5.419 3.215-7.392 1.558-1.474 3.416-2.324 5.526-2.652 3.94-.614 8.068 1.43 10.125 5.026 1.811 3.165 2.21 8.045-1.651 12.25.752.633 1.254 1.637 2.503 1.452.142-.02.349.13.466.258 2.206 2.353 4.403 4.714 6.657 7.134L29.121 30h-.187z"/>
    <path fill="#fff" d="M13.32 6.737h1.59c0 1.394.063 2.772-.022 4.142-.06.952.244 1.537 1.085 1.984.95.505 1.826 1.144 2.824 1.782-.26.46-.499.877-.782 1.375-1.483-.908-2.934-1.783-4.365-2.689-.168-.106-.317-.388-.319-.589-.02-1.973-.01-3.946-.01-6.005z"/>
</svg>
