<svg width="21" height="18" viewBox="0 0 21 18" fill="none" xmlns="http://www.w3.org/2000/svg">
    <path d="M20.171 12.335a4.87 4.87 0 0 0-.049-5.506 7.014 7.014 0 0 0-2.384-2.157 6.419 6.419 0 0 1-.517 4.92 8.067 8.067 0 0 1-2.244 2.57 10.218 10.218 0 0 1-3.084 1.564c-1.174.367-2.39.548-3.613.548-.23 0-.577-.02-1.027-.052a9.53 9.53 0 0 0 5.516 1.597c.687 0 1.375-.064 2.056-.193a9.134 9.134 0 0 0 4.257 1.745.344.344 0 0 0 .256-.083.443.443 0 0 0 .152-.265c0-.045 0-.077.012-.077s.012-.026-.006-.077l-.024-.07-.03-.059a.23.23 0 0 0-.043-.064.41.41 0 0 0-.049-.058l-.055-.058-.048-.058c-.037-.052-.128-.148-.268-.303a5.081 5.081 0 0 1-.304-.354c-.06-.084-.152-.206-.262-.354a3.642 3.642 0 0 1-.292-.464 6.112 6.112 0 0 1-.237-.534 7.176 7.176 0 0 0 2.287-2.158z" fill="#fff"/>
    <path d="M16.157 6.649c0 3.084-3.394 5.59-7.579 5.59-.778 0-1.526-.084-2.232-.245-.535-.123-4.482 2.241-4.482 2.241s1.946-3.22 1.502-3.53C1.906 9.689 1 8.246 1 6.65c0-3.085 3.394-5.59 7.578-5.59 4.185 0 7.579 2.499 7.579 5.59z" stroke="#fff" stroke-width="1.4" stroke-miterlimit="10" stroke-linecap="round" stroke-linejoin="round"/>
</svg>
