<svg xmlns="http://www.w3.org/2000/svg" width="32" height="32" fill="none" viewBox="0 0 32 32">
    <path fill="#fff" d="M24.197 11.67c-.095-.15-.184-.292-.277-.432-.491-.753-.981-1.508-1.476-2.26-.114-.172-.181-.347-.056-.537.122-.185.302-.169.487-.132l6.667 1.335c.426.084.512.213.43.659l-1.274 6.87c-.036.196-.076.39-.302.441-.231.054-.357-.092-.474-.27-.462-.71-.928-1.416-1.393-2.122-.042-.064-.086-.124-.142-.203-.114.08-.218.152-.32.229l-7.996 5.892c-.29.215-.438.202-.68-.068-1.553-1.742-3.106-3.485-4.657-5.23-.06-.069-.114-.142-.175-.216-.942.646-1.856 1.27-2.769 1.897L3.992 21.5c-.241.166-.451.16-.584-.015-.128-.168-.09-.39.111-.597l6.647-6.836c1.066-1.096 2.13-2.191 3.196-3.285.27-.278.444-.273.701.01 1.348 1.494 2.697 2.988 4.041 4.486.104.115.177.148.318.059 1.87-1.182 3.744-2.356 5.616-3.533.051-.034.098-.073.16-.118zM30 24.293v4.764c0 .435-.157.561-.691.561-.885 0-1.773.002-2.658 0-.463 0-.65-.146-.65-.514-.002-3.219-.002-6.438 0-9.66 0-.34.191-.49.616-.49.923-.002 1.844-.002 2.767 0 .444.001.614.142.614.509.002 1.61.002 3.22.002 4.83z"/>
    <path fill="#fff" d="M7.333 24.955v-4.1c0-.44.157-.568.69-.57h2.636c.486 0 .671.137.671.522.004 2.77.004 5.54 0 8.311 0 .351-.189.5-.612.5-.925.002-1.85.002-2.772 0-.431-.002-.61-.146-.613-.497v-4.166zM15.333 24.963v4.104c0 .405-.114.55-.434.55-.602.002-1.205.002-1.807 0-.301 0-.424-.158-.424-.545-.002-2.744-.002-5.488 0-8.231 0-.395.124-.554.437-.554.603-.002 1.206-.002 1.808 0 .296.002.42.155.42.527v4.15zM22 24.951v-3.95c0-.628.069-.715.56-.715h1.665c.316 0 .44.155.44.55.002 2.747.002 5.494 0 8.24 0 .385-.125.542-.429.542-.609.002-1.218.002-1.828 0-.287-.002-.407-.154-.407-.514-.002-1.383 0-2.769 0-4.153zM6.984 10.952c.802 1.09 1.758 1.696 3.016 1.523-.458.494-.928 1.018-1.415 1.524-1.13 1.173-2.27 2.335-3.401 3.505-.104.108-.195.13-.338.106-.872-.144-1.732-.331-2.557-.663-.219-.088-.299-.217-.288-.458.047-1.045.333-2.016.846-2.913.333-.585.79-1.055 1.384-1.346.909-.444 1.836-.853 2.753-1.278zM16.667 26.28v-2.843c0-.354.168-.484.633-.484h2.743c.448.002.624.136.624.473v5.704c0 .349-.18.488-.635.488h-2.744c-.44-.001-.62-.14-.621-.477V26.28zM3.334 26.266V23.51c0-.398.117-.556.416-.556.61-.002 1.219-.002 1.828 0 .3.001.421.16.421.555v5.56c0 .377-.127.546-.41.548-.622.002-1.242.003-1.865 0-.26-.002-.389-.171-.389-.521-.002-.943-.001-1.887-.001-2.83z"/>
    <path fill="#fff" d="M10 12.286c2.21 0 4-2.09 4-4.667s-1.79-4.667-4-4.667-4 2.09-4 4.667 1.79 4.667 4 4.667z"/>
</svg>
