<svg xmlns="http://www.w3.org/2000/svg" width="16" height="21" fill="none" viewBox="0 0 16 21">
    <path fill="#DFDDDD" d="M14.46 8.346h.223c.707.006 1.184.417 1.28 1.124.025.17.037.345.037.514v9.075c0 .4-.066.786-.308 1.118-.218.302-.514.471-.894.471H1.202c-.598 0-1.075-.465-1.166-1.136C.012 19.343 0 19.168 0 19V9.923c0-.368.054-.73.26-1.045.23-.35.538-.55.967-.532.09.006.187 0 .308 0 .006-.084.006-.157.012-.235.012-.738-.006-1.48.042-2.212.09-1.347.598-2.544 1.462-3.577.889-1.07 2-1.8 3.354-2.12 1.97-.46 3.8-.146 5.438 1.069 1.371 1.02 2.223 2.386 2.495 4.072.115.695.085 1.414.115 2.121.012.284.006.574.006.882zm-2.671-.012c0-.622.012-1.22-.006-1.819-.013-.338-.049-.688-.127-1.015-.423-1.685-2.019-2.876-3.753-2.827-1.752.048-3.287 1.329-3.595 3.045-.09.49-.072.997-.084 1.498-.013.369 0 .744 0 1.124 2.52-.006 5.027-.006 7.565-.006zm-3.801 9.614h.471c.623 0 .828-.2.828-.816 0-.804.006-1.607 0-2.405 0-.157.036-.284.139-.405.266-.314.38-.695.363-1.093-.067-1.197-1.094-1.928-2.315-1.614-1.202.314-1.65 1.77-.882 2.743.067.085.115.218.115.327.012.864 0 1.734.006 2.604 0 .417.254.665.67.67.206-.011.406-.011.605-.011z"/>
</svg>
