<svg width="70" height="71" viewBox="0 0 70 71" fill="none" xmlns="http://www.w3.org/2000/svg">
<path d="M24.1354 25.5991L34.2441 35.7782L24.7543 45.3342" stroke="#FFCD4D" stroke-width="3.5" stroke-miterlimit="10" stroke-linecap="round" stroke-linejoin="round"/>
<path d="M10.5059 13.7578C16.4886 6.83318 25.2908 2.4707 35.1245 2.4707C53.1415 2.4707 67.7202 17.1508 67.7202 35.2932C67.7202 53.4355 53.1415 68.1849 35.1245 68.1849C25.2908 68.1849 16.4886 63.8224 10.5059 56.8978" stroke="white" stroke-width="3" stroke-miterlimit="10" stroke-linecap="round" stroke-linejoin="round"/>
<path d="M9.69402 35.7085H32.7998" stroke="#FFCD4D" stroke-width="3.5" stroke-miterlimit="10" stroke-linecap="round" stroke-linejoin="round"/>
<path d="M2.95415 37.9241C1.7768 37.9241 0.82237 36.963 0.82237 35.7775C0.82237 34.5919 1.7768 33.6309 2.95415 33.6309C4.13151 33.6309 5.08594 34.5919 5.08594 35.7775C5.08594 36.963 4.13151 37.9241 2.95415 37.9241Z" fill="#FFCD4D"/>
</svg>
