<svg xmlns="http://www.w3.org/2000/svg" width="32" height="32" fill="none" viewBox="0 0 32 32">
    <path fill="#fff" d="M24.032 20.352s0-.001 0 0c-.002-.001-.003-.003-.005-.003-.371-.202-.78-.343-1.214-.414-.301-.107-.61-.216-.93-.315-.74-.228-1.508-.395-2.203-.72-1.367-.64-1.527-1.34-.918-2.71l.27-.609.028-.057c.566-1.038.977-2.12 1.203-3.243.008-.024.014-.05.02-.074.394-1.444.444-2.956-.144-4.397-.757-1.855-2.359-2.821-4.566-2.808-.014 0-.03 0-.044-.002-.015 0-.03 0-.045.002-2.205-.013-3.809.953-4.566 2.808-.587 1.441-.538 2.953-.144 4.397l.02.074c.226 1.122.638 2.207 1.205 3.243l.029.057.267.61c.61 1.37.45 2.068-.918 2.709-.694.325-1.462.492-2.202.72-.354.11-.731.219-1.101.334-.344.067-.67.183-.977.334l-.027.01c0 .002.002.002.002.002C5.843 20.926 5 22.188 5 23.647V27h21v-3.353c.002-1.418-.794-2.652-1.968-3.295z"/>
</svg>
