<svg width="19" height="19" viewBox="0 0 19 19" fill="none" xmlns="http://www.w3.org/2000/svg">
<path d="M18.7697 4.72316L14.0485 0.214689C13.9333 0.107345 13.8182 0 13.5879 0C13.4727 0 13.2424 0.107345 13.1272 0.214689L6.67876 7.08475L2.0727 8.15819C1.8424 8.26554 1.6121 8.37288 1.6121 8.58757C1.6121 8.80226 1.6121 9.01695 1.72725 9.12429L4.49088 11.8079L0.115128 18.2486C-2.39995e-05 18.4633 -2.39995e-05 18.7853 0.230279 18.8927C0.345431 19 0.460582 19 0.575734 19C0.690885 19 0.806037 19 0.921188 18.8927L7.36967 14.3842L10.3636 16.9605C10.4788 17.0678 10.7091 17.1751 10.9394 17.0678C11.1697 16.9605 11.2848 16.8531 11.2848 16.6384L11.8606 12.1299L18.7697 5.47458C19 5.25989 19 4.93785 18.7697 4.72316Z" fill="white"/>
</svg>
