<svg xmlns="http://www.w3.org/2000/svg" width="127" height="68" fill="none" viewBox="0 0 127 68">
    <path fill="#AEAEAE" d="M47.362 34.905c2.65.202 5.31.281 7.961.492 1.672.132 3.331.404 4.99.65.163.022.391.29.413.461.053.497-.009 1.002.018 1.498.18 3.791.267 7.59.583 11.373.268 3.163.803 6.3 1.225 9.449.048.364.066.751.22 1.072.1.206.407.404.644.43.351.04.716-.07 1.058-.114.355 2.218.707 4.42 1.066 6.686-.517 0-1.167-.005-1.816 0-.382 0-.746.026-.768.549-.022.549.355.54.737.54.794-.004 1.593.022 2.387 0 .803-.022 1.12-.54.83-1.278-.816-2.073-1.154-4.235-1.08-6.554.75-.119 1.501-.25 2.252-.347 3.217-.409 6.434-.887 9.66-1.182 2.962-.268 5.938-.343 8.913-.474.176-.009.435.18.527.347 1.352 2.464 2.273 5.104 3.182 7.749.083.241.368.544.6.584 1.677.285 3.363.51 5.048.751.382.053.834.053.825-.422-.004-.224-.421-.575-.693-.632-1.264-.246-2.546-.448-3.827-.589-.624-.066-.961-.202-1.212-.883-.834-2.262-1.8-4.472-2.712-6.703-.017-.04-.009-.088-.009-.136.874-.211.9-.347.584-1.195-.18-.475-.18-1.02-.255-1.533-.316-2.201-.632-4.402-.952-6.607.698-.062 1.29-.127 1.883-.163.522-.03.965-.223 1.115-.733.162-.554-.303-.79-.694-1.028-.092-.057-.189-.114-.329-.202 1.448-.593 2.83-1.169 4.226-1.722.878-.351 1.001-.694.382-1.384-2.295-2.565-4.612-5.113-6.899-7.683-.189-.21-.338-.54-.347-.821-.118-4.23-.197-8.46-.316-12.69-.013-.453.211-.642.553-.721 1.488-.347 2.305-1.854 2.256-3.668-.03-1.08-.935-2.768-2.427-3.093-.465-.1-.57-.32-.588-.738-.083-1.814-.202-3.628-.276-5.442-.128-3.062-1.989-5.131-5.008-5.553-1.839-.259-3.691-.47-5.512-.826-1.242-.241-2.432-.694-2.932-2.082-.062-.171-.435-.228-.663-.338-.105.242-.342.51-.298.725.193 1.001.89 1.638 1.746 2.1 1.216.654 2.56.865 3.91 1.054 1.414.197 2.845.312 4.232.628 1.909.44 3.15 1.656 3.318 3.813.684 8.83.658 17.68.83 26.523.012.672-.159.918-.844 1.041-4.542.804-9.084 1.56-13.728 1.358-.408-.018-.816-.053-1.215-.132-.483-.097-.957-.452-1.365.202l-.132-.114c-.404-.43-1.576-.562-1.94-.299l-1.492-.672c-.746-.29-1.492-.602-2.26-.813-.22-.061-.527.19-.795.3.132.232.211.601.404.68 1.058.44 2.155.79 3.222 1.212.232.093.526.312.579.527.215.888.408 1.762 1.014 2.153-.075.606-.088 1.041-.19 1.454-.175.747-.376 1.493-.614 2.223-.223.69-.47 1.375-.772 2.03-.123.263-.434.438-.627.68-.159.193-.435.527-.378.624.263.426-.03.764-.04 1.133-.008.37.119.835.365 1.094.728.764 1.55 1.436 2.322 2.157.447.417.829.351 1.233-.066.728-.747 1.51-1.445 2.194-2.227.255-.29.457-.79.408-1.155-.206-1.503-.553-2.988-.776-4.49-.115-.755-.093-1.537-.088-2.306 0-.158.166-.413.307-.461 1.18-.391 1.786-1.19 1.777-2.491 4.547-.018 8.975-.676 13.421-1.691.04.417.08.747.101 1.08.242 3.88.457 7.762.746 11.637.07.953.018 1.963.62 2.829.122.18.162.518.083.72-.426 1.059.158 2.043.162 3.066 0 .242.092.48.154.773-.597 0-1.137-.035-1.672.005-3.305.246-6.61.487-9.91.769-1.607.136-3.204.342-4.802.54-2.273.285-4.542.597-6.811.892-.268.035-.544.04-.979.07-.474-4.468-1.08-8.909-1.387-13.376-.303-4.406-.307-8.83-.439-13.218-.895.426-.996 1.38-1.022 2.385-4.46-.847-8.888-.913-13.303-1.168l-.092 1.107zm45.929 9.26c-1.949.733-3.805 1.432-5.736 2.157-.176-3.018-.343-5.917-.51-8.812l.22-.053c1.984 2.21 3.972 4.424 6.026 6.708zm-6.557-28.167c1.448.462 1.962 1.564 1.598 3.343-.167.804-.812 1.327-1.598 1.248v-4.59zm-16.34 32.024c-.136.114-1.606 2.319-2.457 2.117-.87-.21-1.12-2.833-1.216-2.75-.241-.373 2.954-8.6 2.677-9.027.531.21.544 9.484.996 9.66z"/>
    <path fill="#AEAEAE" d="M60.608 35.002c.381.065.706.122 1.127.193.022-.194.053-.422.075-.655.268-2.688.755-9.273 1.132-11.944.474-3.338 1.093-6.66 1.69-9.98.22-1.221.588-2.416.83-3.637.043-.233-.119-.65-.308-.756-.39-.21-.627.119-.715.475-.364 1.471-.724 2.943-1.053 4.423-.255 1.151-.483 2.306-.668 3.466-.35 2.192-.702 4.384-.987 6.585-.285 2.227-.803 8.355-1.04 10.59-.04.431-.057.862-.084 1.24zM70.794 24.832c2.019-.052 3.884-.307 5.5-1.485 1.079-.79 1.575-1.87 1.553-3.197-.009-.4-.11-.861-.593-.84-.46.023-.548.44-.526.87.083 1.757-1.317 2.689-2.923 3.137-1.892.527-3.797.606-5.697.017-.167-.052-.373-.1-.531-.048-.171.057-.382.21-.43.365-.04.136.079.448.197.487.65.229 1.313.444 1.989.58.504.11 1.035.088 1.46.114zM77.008 7.314c.18-.18.527-.391.51-.55-.031-.228-.303-.57-.523-.61-3.405-.602-6.13-2.244-8.106-5.117-.145-.211-.535-.25-.816-.37-.04.321-.228.743-.092.954 1.496 2.328 3.585 3.945 6.166 4.902.886.325 1.821.51 2.861.791zM71.202 8.856c.114-.136.408-.334.413-.536 0-.185-.277-.496-.483-.545-2.8-.659-4.977-2.13-6.329-4.718-.123-.237-.206-.496-.325-.738-.158-.32-.355-.619-.776-.443-.457.189-.422.597-.246.918.487.883.948 1.796 1.571 2.578 1.457 1.823 3.393 2.922 5.68 3.4.109.022.223.04.495.084zM73.423 18.037c-.053-.567-.053-1.142-.176-1.691-.048-.211-.364-.36-.557-.537-.162.216-.46.431-.46.646.004.976.07 1.95.175 2.922.022.188.377.513.5.478.224-.057.513-.32.549-.531.065-.418-.022-.857-.044-1.287h.013zM69.096 17.356c.07.566.114 1.291.272 1.998.048.224.395.387.6.576.15-.242.422-.483.422-.725-.004-.698-.114-1.397-.189-2.1-.043-.421-.026-.97-.636-.922-.627.053-.452.61-.47 1.173zM47.915 33.895s-4.406-.558-4.52.667c-.114 1.221 1.86 1.832 2.927 1.02 1.066-.813 2.08-.563 2.08-.563l-.487-1.124z"/>
    <path fill="#AEAEAE" d="M30 32.752c.105 4.441 3.515 7.916 7.966 7.872 4.305-.044 7.772-3.387 7.794-7.872.026-4.406-3.515-8.008-8.049-7.91-4.235.082-7.64 3.474-7.711 7.91zm8.922-7.068c1.256.084 2.757.738 3.977 1.907 2.41 2.31 2.852 6.277 1.049 8.93-2.247 3.313-6.478 4.319-9.88 2.197-.684-.426-.697-.444-.17-1.015 1.114-1.208 2.198-2.442 3.357-3.606.812-.813 1.202-1.705 1.233-2.878.048-1.831.276-3.663.434-5.535zm-8.057 7.705c-.47-2.613 1.049-5.557 3.559-6.91.913 1.947 1.826 3.888 2.76 5.887-2.18.351-4.23.685-6.32 1.023zm6.175-.259c-1.493 1.617-2.858 3.088-4.244 4.59-1.058-.983-1.598-2.196-1.94-3.606 2.05-.33 4.024-.641 6.184-.984zm-1.975-7.068c1.097-.206 2.054-.386 3.116-.584-.202 2.003-.382 3.826-.562 5.65l-.18-.027c-.764-1.621-1.527-3.246-2.374-5.039z"/>
</svg>
