<svg xmlns="http://www.w3.org/2000/svg" width="127" height="68" fill="none" viewBox="0 0 127 68">
    <path fill="#AEAEAE" d="M102.76 38.138c-.852-.176-1.664-.348-2.603-.544.112 1.151.225 2.214.323 3.276.342 3.644.665 7.292 1.037 10.935.093.886.313 1.763.543 2.625.328 1.239.719 2.458 1.057 3.589h4.848c-.372-1.077.279-1.606.939-1.959.773-.416 1.678-.573 2.495-.92 1.062-.45 2.065-1.038 3.141-1.45 1.913-.73 3.856-1.395 5.803-2.047.743-.25 1.311-.524 1.169-1.474-.068-.47.367-10.009.342-10.488-.029-.662.348-.887 1.072-1.039-.073 1.117-.48 11.14-.558 12.296.842-.25 1.556-.416 2.231-.69.206-.084.377-.456.406-.71.118-1.073.098-2.165.279-3.227.303-1.792-1.272-5.818-1.561-7.487-.049-.3.035-.617.059-.93.269.234.705.43.773.71.328 1.331 1.419 5.156 1.482 6.517.079 1.758-.102 3.535-.234 5.298-.02.25-.314.588-.563.696-.568.244-1.179.474-1.791.533-.944.088-1.242.554-1.277 1.45-.073 1.831-.229 3.658-.366 5.489-.03.382-.118.759-.191 1.244 1.384 0 2.784-.03 4.183.02.376.014 1.061.269 1.061.406-.009.68-.606.578-1.071.578-9.413.02-18.821.044-28.234.058-9.863.015-19.721.02-29.584.03-.21 0-.44.054-.626-.015-.245-.083-.455-.264-.68-.406.24-.167.474-.47.714-.475 1.864-.044 3.728-.03 5.592-.035h1.052c-.264-1.062-.47-2.012-.734-2.947-.822-2.904-1.678-5.803-2.5-8.707-.675-2.385-1.34-4.774-1.991-7.169-.225-.837.264-1.484 1.198-1.64.264-.044.538-.025.813-.025h24.985c.24 0 .533-.078.714.025 1.14.66 1.321-.358 1.712-.96 1.116-1.733.377-3.54.206-5.333-.343-3.525-.832-7.051-.934-10.586-.103-3.59 1.325-6.71 3.913-9.226.514-.5.754-.93.46-1.63-.181-.437-.293-.926-.332-1.396-.02-.24.181-.5.283-.75.23.182.597.324.671.554.19.617.254 1.273.366 1.88 1.082-.367 2.07-.67 3.024-1.053.21-.083.445-.475.426-.695-.054-.529-.299-1.038-.377-1.567-.034-.235.142-.5.22-.75.245.163.631.28.7.495.215.676.308 1.391.455 2.136 1.335-.133 2.612-.26 3.967-.397-.112-.744-.269-1.42-.293-2.096-.01-.274.259-.563.401-.847.157.245.391.475.46.744.196.779.328 1.577.479 2.35 1.008.153 1.923.295 2.906.441.079-.646.133-1.322.265-1.988.039-.2.298-.357.455-.533.137.22.298.43.396.665.049.123-.02.294-.034.446-.196 1.807.014 2.17 1.702 2.772.186.068.514-.06.685-.201.455-.372.827-.852 1.297-1.195.215-.157.582-.098.88-.137-.073.28-.068.637-.24.827-.459.5-.993.926-1.516 1.396l2.025 2.483c.803-.558 1.659-1.097 2.446-1.719.372-.294.71-.563 1.028-.118.083.118-.24.666-.494.867-.832.656-1.722 1.24-2.49 1.783.401 1.62.782 3.173 1.169 4.745.641-.167 1.375-.407 2.133-.534.254-.044.558.181.836.284-.234.22-.469.445-.714.651-.059.05-.176.015-.264.035-2.074.352-2.089.43-2.011 2.531.123 3.188.225 6.376.211 9.564-.005 1.39.181 2.649.929 3.834.313.5.533 1.067.724 1.63.069.196-.073.456-.117.69-.269-.122-.651-.17-.788-.381-.279-.421-.421-.93-.753-1.347l-.191 2.88c-.142.004-.284.01-.426.01-.783-1.445-.034-3.096-.42-4.716-2.045 1.155-4.242 1.875-6.566 2.115-2.324.245-4.653.407-7.035.607l-5.582-.651zM75.01 59.831h27.539c-.734-2.507-1.438-4.853-2.108-7.208-1.077-3.766-2.158-7.527-3.17-11.312-.201-.75-.578-.832-1.219-.827-8.449.014-16.893.01-25.342.01-.318 0-.636.034-1.116.058 1.835 6.532 3.63 12.932 5.416 19.279zm47.04-29.797c.044-.005.083-.005.127-.01-.22-3.418-.425-6.836-.66-10.254-.122-1.807-.822-3.408-1.908-4.833-1.957-2.566-4.746-3.481-7.794-3.663-1.477-.088-3.004.064-4.452.377-1.404.304-2.911.696-4.06 1.489-3.69 2.546-5.113 6.282-4.917 10.675.078 1.738.22 3.482.42 5.21.27 2.292.607 4.579.979 6.86.044.275.426.671.69.706 2.725.362 5.455.773 8.195.954 3.028.201 6.051-.127 8.992-.905 1.36-.363 2.646-.994 3.943-1.563.215-.093.421-.47.43-.724.035-1.43.015-2.875.015-4.32zm-.758 22.207l-1.487.612c-2.094.862-4.183 1.738-6.292 2.57-.842.334-1.37.774-1.174 1.788.054.264-.142.583-.24.94 1.057-.117 1.639.465 2.114 1.249.102.166.327.362.499.367 2.064.025 4.129.015 6.13.015l.45-7.541zm-8.229 7.6l.103-.319c-.406-.2-.808-.568-1.214-.568-2.671.005-5.347.084-8.018.167-.181.005-.353.21-.529.323.191.137.382.387.578.392 1.169.034 2.343.01 3.517.005h5.563zm-12.882-11.929c.064-.02.127-.034.196-.054-.372-2.938-.744-5.88-1.14-8.99-.792.964-1.267 1.792-.876 2.943.397 1.15.656 2.35.998 3.52.255.867.548 1.724.822 2.581zM43.528 9.31c-.73-.465-1.473-.91-2.173-1.415-.264-.19-.43-.523-.64-.788.352-.024.763-.186 1.042-.059 1.076.505 2.02 1.19 2.73 2.204.24.343.812.529 1.271.627 1.459.308 2.97.42 4.394.832 3.253.94 6.047 2.566 7.705 5.715.7 1.327.984 2.757 1.12 4.216.211 2.242.172 4.524.583 6.728.577 3.11 1.453 6.17 2.23 9.24.93 3.678 1.909 7.345 2.829 11.028.141.563.068 1.18.097 1.84h-8.595c.161 1.005.362 1.935.45 2.88.137 1.494.063 1.577-1.36 2.003-.768.23-1.57.362-2.33.627-.303.108-.743.445-.753.69-.063 1.704-.034 3.413-.034 5.215h8.043c-.107.412-.117.896-.269.945-.26.084-.607-.117-.925-.166-.298-.044-.611-.083-.91-.044-.523.073-1.037.303-1.55.303-17.975.04-35.95.064-53.924.069-.313 0-.626-.255-.935-.392.328-.171.646-.484.979-.49 2.099-.044 4.193-.024 6.4-.024-.275-1.126-.485-2.145-.769-3.144-1.213-4.314-2.441-8.618-3.664-12.927-.206-.72-.416-1.435-.636-2.15-.5-1.62-.137-2.135 1.526-2.13 4.33 0 8.655.005 12.984.01 3.577 0 7.153-.025 10.73.02.88.01 1.1-.3 1.15-1.137.342-6.12.713-12.242 1.134-18.363.142-2.061.396-4.123.714-6.165.294-1.895 1.615-3.036 3.205-3.922 2.016-1.126 4.251-1.307 6.468-1.552.504-.054 1.017-.01 1.526-.01.054-.093.108-.2.157-.313zm20.25 39.13c-.265-1.42-.441-2.874-.813-4.279-.856-3.203-1.771-6.39-2.725-9.568-1.233-4.099-2.026-8.256-2.094-12.56-.024-1.391-.235-2.84-.68-4.153-.944-2.781-3.058-4.554-5.729-5.572-1.57-.603-3.239-.995-4.892-1.323-3.489-.7-6.952-.587-10.313.71-1.874.725-3.288 1.984-3.587 4.05-.347 2.434-.543 4.892-.728 7.345-.265 3.477-.475 6.959-.695 10.435-.132 2.13-.26 4.265-.333 6.395-.01.275.264.789.445.808 1.267.123 1.424 1.068 1.669 2.013.327 1.254.719 2.487 1.15 3.947.146-.387.214-.549.268-.715.597-1.91 1.184-3.82 1.796-5.73.548-1.718 1.017-3.442.758-5.273-.058-.416-.063-.838-.088-1.259-.039-.66.264-1.043 1.008-1.21 0 1.578.02 3.08-.01 4.58-.01.66.171.998.895 1.17 1.238.293 2.437.764 3.65 1.165.807.265 1.204.72 1.199 1.68-.005 1.204.26 2.409.406 3.614l.288.014c.558-1.21 1.067-2.448 1.693-3.619.24-.445.7-.998 1.135-1.077 1.536-.279 2.911-.871 4.159-1.758.298-.215.562-.67.597-1.038.195-2.154.386-4.314.445-6.478.073-2.757.02-5.519.02-8.379-5.514-.7-10.964-2.223-16.595-2.032-.201-.695-.064-1.028.582-.974 2.422.195 4.853.293 7.255.612 2.48.328 4.927.915 7.402 1.312 2.52.407 2.53.367 2.51 2.875-.01.964-.274 2.051 1.16 2.281.049.01.083.084.127.118 1.712 1.425 1.282 4.054-.89 5.039-.578.26-.754.568-.779 1.121-.068 1.503-.205 3.002-.225 4.5-.014 1.224-.088 2.502.201 3.673.587 2.375 1.394 4.696 2.148 7.027.068.21.406.475.621.48 2.46.049 4.922.034 7.588.034zm-26.38 12.561c-.02-.245-.01-.397-.05-.529-.66-2.39-1.32-4.784-2-7.169-1.018-3.565-2.1-7.11-3.058-10.69-.225-.832-.578-1.028-1.35-1.028-8.445.02-16.894.01-25.338.015-.294 0-.587.024-1.057.049l5.45 19.352h27.403zm4.926-1.822c0-1.126.803-1.596 1.58-2.037.587-.333 1.223-.582 1.854-.827 1.522-.598 3.024-1.254 4.59-1.704.616-.176.812-.309.846-.94.205-3.874.465-7.742.704-11.616.06-.915.123-1.826.186-2.786-.195.03-.298.015-.357.059-1.12.916-2.426 1.38-3.82 1.68-.26.053-.539.357-.666.616-.71 1.45-1.355 2.929-2.07 4.378-.156.314-.494.539-.743.808-.23-.289-.587-.543-.67-.867-.294-1.19-.666-2.399-.68-3.608-.015-1.254-.21-2.067-1.61-2.307-.983-.166-1.928-.553-2.99-.871.04 6.806.607 13.402 1.42 20.032.792-.01 1.565-.01 2.426-.01zm-3.615.025c-.47-6.048-.935-12.08-1.4-18.108-.455 1.126-.865 2.218-1.13 3.349-.455 1.944-1.58 3.727-.768 5.94.993 2.713 1.634 5.558 2.412 8.349.142.543.416.67.886.47zm14.417-16.199l-.396.06c-.205 3.647-.41 7.295-.626 11.188 1.15-.347 2.065-.666 3.004-.89.553-.133.71-.442.582-.902-.841-3.154-1.707-6.302-2.563-9.456zm-2.118 12.419c-1.409.548-2.823 1.067-4.207 1.66-.274.117-.622.528-.602.768.059.564.151 1.274.93 1.337.953.079 1.536.559 2.06 1.342.21.313.929.343 1.423.367.117.005.362-.534.372-.827.044-1.494.024-2.987.024-4.647zm-2.999 5.592c.04-.152.073-.299.113-.45-.587-.153-1.175-.432-1.762-.427-2.373.005-4.745.098-7.118.162-.284.01-.568.034-.851.054-.03.098-.064.19-.093.289.234.127.47.357.71.362 3.003.02 6.002.01 9.001.01zm5.558-30.16c1.056-.44 1.605-1.052 1.678-1.988.078-.954-.509-1.513-1.492-2.007-.064 1.351-.123 2.585-.186 3.995z"/>
    <path fill="#AEAEAE" d="M20.832 20.103c-.137 5.866-4.643 10.46-10.529 10.4C4.613 30.45.034 26.029 0 20.099c-.034-5.822 4.648-10.587 10.636-10.46 5.602.123 10.103 4.604 10.196 10.465zM9.042 10.76c-1.66.113-3.646.975-5.26 2.522-3.185 3.056-3.767 8.3-1.385 11.806 2.97 4.373 8.562 5.71 13.058 2.899.9-.563.925-.588.225-1.342-1.472-1.596-2.906-3.232-4.442-4.77-1.072-1.076-1.59-2.252-1.63-3.8-.063-2.423-.361-4.837-.567-7.315zm10.645 10.185c.621-3.452-1.39-7.345-4.702-9.132-1.208 2.57-2.411 5.142-3.65 7.78 2.882.466 5.588.902 8.352 1.352zm-8.16-.342c1.976 2.135 3.777 4.084 5.611 6.067 1.4-1.303 2.114-2.904 2.569-4.765-2.716-.436-5.328-.852-8.18-1.302zm2.607-9.339c-1.448-.274-2.71-.509-4.12-.773l.745 7.467c.078-.01.156-.024.24-.034 1.007-2.15 2.02-4.294 3.135-6.66zM79.697 21.323c.714.235 1.057-.152 1.36-.7.215-.388.523-.72.778-1.083.504-.715 1.037-1.332.729-2.395-.274-.94.24-1.537 1.071-1.787.92-.279 1.556.083 2.177.784.372.416 1.072.646 1.654.74.895.141 1.81.68 2.696-.324.685-.784 1.736-.544 2.397.289.499.627.396 1.846-.21 2.37-.798.695-1.904.769-2.417-.123-.504-.866-1.204-1.023-1.987-1.204-.582-.137-1.174-.23-1.766-.284-.137-.015-.328.176-.44.313-.436.544-.94.862-1.678.843-.26-.01-.602.176-.778.381-.406.466-.729 1.004-1.1 1.509-.515.695-.94 1.327-.7 2.335.264 1.102-.51 1.827-1.634 1.827-1.18.005-1.88-.705-1.698-1.876.108-.69-.04-1.18-.47-1.718-1.096-1.366-2.108-2.796-3.19-4.172-.132-.167-.484-.201-.738-.216-.225-.015-.485.04-.68.147-.294.162-.675.338-.793.607-.704 1.611-1.33 3.257-2.02 4.873-.226.528-.353.896.176 1.4.733.705.533 1.949-.255 2.532-.895.656-1.903.475-2.534-.456-.572-.842-.333-1.934.64-2.419 1.214-.602 1.234-1.89 1.743-2.88.596-1.16 1.027-2.408 1.467-3.642.127-.353.132-.808.034-1.17-.205-.77-.078-1.406.47-1.97.529-.543 1.223-.616 1.82-.347.69.309 1.15.886 1.155 1.768 0 .43.166.93.416 1.288 1.027 1.454 2.098 2.88 3.19 4.28.24.308.645.484.978.72.049-.089.093-.162.137-.24zm11.63-4.231c-.123.005-.246.005-.368.01-.156.293-.465.607-.43.88.029.236.445.598.68.593.23-.01.611-.406.616-.646.01-.274-.318-.558-.499-.837zm-18.161-.867c.337-.52.67-.803.665-1.082-.005-.24-.382-.48-.597-.72-.245.245-.621.455-.685.744-.054.22.289.53.617 1.058zm11.061 1.831c.328-.509.67-.808.622-1.033-.064-.308-.416-.553-.641-.827-.23.274-.582.523-.641.832-.04.225.313.52.66 1.028zm-4.442 6.033c.357-.445.71-.695.7-.93-.01-.245-.411-.696-.573-.671-.288.049-.646.352-.734.632-.058.18.299.5.607.97zm-9.697.877c-.455-.328-.787-.71-.954-.652-.279.103-.572.47-.626.764-.03.162.42.568.66.573.24.015.49-.338.92-.685zM3.498 42.873c-.465.456-.802.52-1.086-.137-.43-.989-.166-2.228.7-2.767.225-.137.592-.044.89-.058-.083.25-.098.587-.269.74-.773.68-.763 1.414-.235 2.222zM67.026 40.601c.381-.602.734-1.229 1.174-1.777.108-.133.523-.015.802-.01-.078.23-.088.524-.24.685-.513.549-.802 1.097-.44 1.866.083.171-.107.475-.176.72-.24-.127-.572-.2-.695-.402-.166-.264-.17-.627-.244-.95-.064-.049-.123-.088-.181-.132zM118.268 23.678c-.009-1.739-1.335-2.59-2.852-1.88-.22.102-.567-.07-.861-.118.132-.235.206-.558.406-.695 1.468-.994 3.048-.235 3.772.95.837 1.366.651 2.756-.254 4.04-.724 1.028-2.534 1.42-3.533.744-.229-.157-.293-.563-.435-.857.245-.02.519-.123.724-.044 1.859.71 3.043-.123 3.033-2.14zM108.278 24.202c.949.783.367 1.503.132 2.08-.968 2.38-3.855 4.011-6.419 3.693-.259-.034-.474-.387-.709-.597.235-.123.489-.377.695-.343 2.436.416 5.137-1.381 5.832-3.825.092-.318.283-.612.469-1.008zM101.987 23.668c0 .392.053.793-.025 1.166-.039.19-.318.455-.494.465-.161.005-.465-.29-.475-.465-.048-.75-.053-1.504.015-2.253.02-.22.333-.411.514-.612.161.205.411.392.465.622.078.342.019.715.019 1.077h-.019zM103.997 24.035c-.039-.509-.122-1.018-.102-1.523.009-.205.249-.401.386-.597.157.176.426.343.445.534.079.891.113 1.787.103 2.683-.005.186-.284.372-.435.558-.147-.22-.362-.42-.416-.66-.074-.314-.02-.657-.02-.99.015-.005.025-.005.039-.005zM35.054 29.113c-.71-1.758.21-3.702 2.016-4.064 0-.583-.015-1.18.005-1.778.014-.558.058-1.116.093-1.674.137-.015.274-.035.41-.05.123.319.338.632.353.956.098 2.34.215 4.676.19 7.017-.01.803-.396 1.606-.577 2.296-.538-.5-.998-.871-1.39-1.302-.175-.196-.23-.51-.337-.77.26-.038.519-.107.778-.112.137-.005.274.088.48.157v-3.545c-.92.073-1.385.695-1.282 1.831.054.598-.103.91-.739 1.038zM43.513 32.458c-.714-.093-1.433-.147-2.133-.299-.21-.044-.357-.352-.538-.539.215-.122.43-.352.645-.352.411 0 .832.098 1.228.215 1.395.421 2.936-.152 3.709-1.39.19-.304.367-.652.646-.848.2-.142.557-.093.836-.058.054.005.167.426.088.519-.592.715-1.115 1.552-1.868 2.047-.725.475-1.688.582-2.55.852-.019-.05-.039-.098-.063-.147zM44.13 26.733c0-.538-.04-1.082.024-1.61.024-.192.298-.348.46-.52.171.167.484.328.494.505.049 1.043.049 2.095 0 3.139-.01.176-.347.332-.528.499-.152-.191-.402-.367-.431-.578-.069-.475-.025-.96-.02-1.435-.005 0-.005 0 0 0zM42.466 26.572c0 .42.069.852-.025 1.253-.058.25-.352.45-.538.671-.156-.245-.44-.49-.44-.734 0-.867.073-1.739.181-2.596.025-.195.308-.352.47-.528.132.195.347.381.376.592.06.44.02.896.02 1.347-.02-.005-.034-.005-.044-.005zM104.736 55.972l-2.563-4.363c-.182-.225-.695-1.15-.059-3.78.587-2.414 1.262-5.303 1.414-5.95-.695-1.278-1.669-3.379-1.008-4.005.607-.578 4.76-.309 7.177-.098l.587.049-.729 1.175c-.112.558-.714 3.237-2.28 3.814-.073 1.024-.259 5.074 1.101 7.63.396.504.763 1.704-.523 2.835-1.385 1.214-2.77 2.4-2.784 2.41l-.333.283zm-1.727-17.57c-.137.29.426 1.807 1.213 3.247l.069.122-.029.137c-.01.035-.783 3.36-1.444 6.092-.592 2.453-.073 3.158-.068 3.168l.034.05 2.143 3.647c.494-.42 1.473-1.263 2.451-2.125 1.086-.955.489-1.772.416-1.86l-.039-.06c-1.683-3.119-1.204-8.103-1.179-8.314l.029-.264.259-.054c1.165-.235 1.835-2.522 1.991-3.384l.015-.069.181-.288c-2.696-.211-5.602-.285-6.042-.045z"/>
</svg>
