<svg xmlns="http://www.w3.org/2000/svg" width="127" height="68" fill="none" viewBox="0 0 127 68">
    <path fill="#AEAEAE" d="M79.475 34.905c-2.65.202-5.31.281-7.961.492-1.672.132-3.331.404-4.99.65-.163.022-.39.29-.413.461-.053.497.009 1.002-.017 1.498-.18 3.791-.268 7.59-.584 11.373-.268 3.163-.803 6.3-1.225 9.449-.048.364-.065.751-.219 1.072-.1.206-.408.404-.645.43-.351.04-.715-.07-1.058-.114-.355 2.218-.706 4.42-1.066 6.686.518 0 1.167-.005 1.817 0 .382 0 .746.026.768.549.022.549-.356.54-.738.54-.794-.004-1.593.022-2.387 0-.803-.022-1.12-.54-.83-1.278.817-2.073 1.155-4.235 1.08-6.554-.75-.119-1.5-.25-2.251-.347-3.217-.409-6.434-.887-9.66-1.182-2.963-.268-5.938-.343-8.914-.474-.175-.009-.434.18-.526.347-1.352 2.464-2.274 5.104-3.182 7.749-.084.241-.369.544-.602.584-1.676.285-3.361.51-5.047.751-.382.053-.834.053-.825-.422.005-.224.422-.575.694-.632 1.264-.246 2.545-.448 3.827-.589.623-.066.96-.202 1.21-.883.835-2.262 1.8-4.472 2.713-6.703.018-.04.009-.088.009-.136-.873-.211-.9-.347-.584-1.195.18-.475.18-1.02.255-1.533.316-2.201.632-4.402.952-6.607-.698-.062-1.29-.127-1.883-.163-.522-.03-.965-.223-1.114-.733-.163-.554.302-.79.693-1.028.092-.057.189-.114.33-.202-1.45-.593-2.832-1.169-4.227-1.722-.878-.351-1-.694-.382-1.384 2.295-2.565 4.613-5.113 6.9-7.683.188-.21.337-.54.346-.821.118-4.23.197-8.46.316-12.69.013-.453-.21-.642-.553-.721-1.488-.347-2.304-1.854-2.256-3.668.03-1.08.935-2.768 2.427-3.093.465-.1.57-.32.588-.738.083-1.814.202-3.628.277-5.442.127-3.062 1.988-5.131 5.007-5.553 1.84-.259 3.691-.47 5.513-.826 1.242-.241 2.431-.694 2.931-2.082.062-.171.435-.228.663-.338.105.242.342.51.298.725-.193 1.001-.89 1.638-1.746 2.1-1.216.654-2.559.865-3.91 1.054-1.414.197-2.845.312-4.231.628-1.91.44-3.152 1.656-3.318 3.813-.685 8.83-.659 17.68-.83 26.523-.013.672.158.918.843 1.041 4.542.804 9.085 1.56 13.728 1.358.408-.018.816-.053 1.216-.132.482-.097.956-.452 1.364.202l.132-.114c.404-.43 1.576-.562 1.94-.299l1.492-.672c.746-.29 1.492-.602 2.26-.813.22-.061.527.19.795.3-.132.232-.21.601-.404.68-1.058.44-2.155.79-3.221 1.212-.233.093-.527.312-.58.527-.215.888-.408 1.762-1.013 2.153.074.606.087 1.041.188 1.454.176.747.378 1.493.615 2.223.223.69.47 1.375.772 2.03.123.263.435.438.628.68.158.193.434.527.377.624-.263.426.03.764.04 1.133.008.37-.119.835-.365 1.094-.728.764-1.549 1.436-2.321 2.157-.448.417-.83.351-1.234-.066-.728-.747-1.51-1.445-2.194-2.227-.255-.29-.456-.79-.408-1.155.206-1.503.553-2.988.777-4.49.114-.755.092-1.537.087-2.306 0-.158-.166-.413-.307-.461-1.18-.391-1.786-1.19-1.777-2.491-4.547-.018-8.975-.676-13.421-1.691-.04.417-.08.747-.101 1.08-.242 3.88-.456 7.762-.746 11.637-.07.953-.018 1.963-.619 2.829-.123.18-.162.518-.083.72.425 1.059-.158 2.043-.163 3.066 0 .242-.092.48-.153.773.597 0 1.136-.035 1.672.005 3.304.246 6.61.487 9.91.769 1.606.136 3.203.342 4.801.54 2.273.285 4.542.597 6.812.892.267.035.544.04.978.07.474-4.468 1.08-8.909 1.387-13.376.303-4.406.307-8.83.439-13.218.895.426.996 1.38 1.022 2.385 4.46-.847 8.888-.913 13.303-1.168l.092 1.107zm-45.929 9.26c1.949.733 3.805 1.432 5.736 2.157.176-3.018.343-5.917.51-8.812l-.22-.053c-1.984 2.21-3.972 4.424-6.026 6.708zm6.557-28.167c-1.448.462-1.962 1.564-1.597 3.343.166.804.812 1.327 1.597 1.248v-4.59zm16.34 32.024c.136.114 1.606 2.319 2.457 2.117.87-.21 1.12-2.833 1.216-2.75.242-.373-2.954-8.6-2.677-9.027-.531.21-.544 9.484-.996 9.66z"/>
    <path fill="#AEAEAE" d="M66.23 35.002c-.382.065-.707.122-1.128.193-.022-.194-.053-.422-.075-.655-.267-2.688-.755-9.273-1.132-11.944-.474-3.338-1.093-6.66-1.69-9.98-.22-1.221-.588-2.416-.83-3.637-.043-.233.12-.65.308-.756.39-.21.627.119.715.475.365 1.471.724 2.943 1.054 4.423.254 1.151.482 2.306.667 3.466.35 2.192.702 4.384.987 6.585.285 2.227.803 8.355 1.04 10.59.04.431.057.862.084 1.24zM56.043 24.832c-2.019-.052-3.884-.307-5.499-1.485-1.08-.79-1.575-1.87-1.553-3.197.008-.4.11-.861.592-.84.46.023.549.44.527.87-.084 1.757 1.316 2.689 2.923 3.137 1.891.527 3.796.606 5.696.017.167-.052.373-.1.531-.048.171.057.382.21.43.365.04.136-.079.448-.197.487-.65.229-1.312.444-1.988.58-.505.11-1.036.088-1.462.114zM49.829 7.314c-.18-.18-.527-.391-.51-.55.031-.228.303-.57.523-.61 3.406-.602 6.131-2.244 8.106-5.117.145-.211.535-.25.816-.37.04.321.229.743.092.954-1.496 2.328-3.585 3.945-6.166 4.902-.886.325-1.821.51-2.861.791zM55.635 8.856c-.114-.136-.408-.334-.412-.536 0-.185.276-.496.482-.545 2.8-.659 4.977-2.13 6.329-4.718.123-.237.206-.496.325-.738.158-.32.355-.619.777-.443.456.189.42.597.245.918-.487.883-.948 1.796-1.57 2.578-1.458 1.823-3.393 2.922-5.68 3.4-.11.022-.224.04-.496.084zM53.414 18.037c.053-.567.053-1.142.176-1.691.048-.211.364-.36.557-.537.163.216.461.431.461.646-.004.976-.07 1.95-.175 2.922-.022.188-.378.513-.5.478-.225-.057-.514-.32-.55-.531-.065-.418.023-.857.045-1.287h-.014zM57.742 17.356c-.07.566-.114 1.291-.272 1.998-.049.224-.395.387-.602.576-.149-.242-.42-.483-.42-.725.003-.698.113-1.397.188-2.1.044-.421.026-.97.636-.922.628.053.452.61.47 1.173zM78.922 33.895s4.407-.558 4.52.667c.115 1.221-1.86 1.832-2.927 1.02-1.066-.813-2.08-.563-2.08-.563l.487-1.124z"/>
    <path fill="#AEAEAE" d="M96.837 32.752c-.105 4.441-3.515 7.916-7.966 7.872-4.305-.044-7.772-3.387-7.794-7.872-.026-4.406 3.516-8.008 8.05-7.91 4.234.082 7.64 3.474 7.71 7.91zm-8.922-7.068c-1.255.084-2.756.738-3.977 1.907-2.409 2.31-2.852 6.277-1.048 8.93 2.247 3.313 6.478 4.319 9.879 2.197.684-.426.698-.444.171-1.015-1.115-1.208-2.199-2.442-3.358-3.606-.811-.813-1.202-1.705-1.233-2.878-.048-1.831-.276-3.663-.434-5.535zm8.058 7.705c.47-2.613-1.05-5.557-3.56-6.91-.913 1.947-1.825 3.888-2.76 5.887 2.181.351 4.23.685 6.32 1.023zm-6.175-.259c1.492 1.617 2.857 3.088 4.244 4.59 1.057-.983 1.597-2.196 1.94-3.606-2.05-.33-4.025-.641-6.184-.984zm1.974-7.068c-1.097-.206-2.053-.386-3.116-.584.202 2.003.382 3.826.562 5.65l.18-.027c.764-1.621 1.528-3.246 2.374-5.039z"/>
</svg>
