<svg width="27" height="26" viewBox="0 0 27 26" fill="none" xmlns="http://www.w3.org/2000/svg">
<g clip-path="url(#clip0)">
<path d="M21.6996 0C22.0996 0.2 22.5996 0.3 22.9996 0.6C23.7996 1.2 24.2996 1.9 24.2996 2.8C24.2996 5.9 24.2996 9 24.2996 12C24.2996 12.1 24.2996 12.1 24.2996 12.1C23.5996 12.2 22.9996 12.3 22.3996 12.4V11.9C22.3996 9.5 22.3996 7 22.3996 4.6C22.3996 4.2 22.2996 4 21.8996 4C15.4996 4 9.19961 4 2.69961 4C2.49961 4 2.39961 4 2.19961 4V4.6C2.19961 10 2.19961 15.4 2.19961 20.8C2.19961 21.9 2.49961 22.1 3.49961 22.1C6.49961 22.1 9.59961 22.1 12.5996 22.1H13.2996C13.0996 22.7 12.9996 23.3 12.7996 23.8C12.6996 23.9 12.4996 24.1 12.2996 24.1C10.5996 24.1 8.79961 24.1 6.99961 24.1C5.69961 24.1 4.59961 24.1 3.29961 24.1C1.69961 24.1 0.699609 23.3 0.199609 21.8L0.0996094 21.7V2.5C0.299609 2.2 0.399609 1.8 0.599609 1.5C1.09961 0.7 1.79961 0.3 2.59961 0.1L21.6996 0Z" fill="white"/>
<path d="M20.3002 16.7002C21.5002 17.8002 22.4002 18.8002 23.6002 19.9002C23.5002 20.0002 23.4002 20.1002 23.3002 20.3002C21.9002 21.7002 20.4002 23.2002 19.0002 24.6002C18.8002 24.8002 18.5002 25.0002 18.2002 25.0002C17.1002 25.3002 16.1002 25.7002 15.1002 26.0002C14.9002 26.1002 14.6002 26.0002 14.4002 25.9002C14.3002 25.8002 14.3002 25.5002 14.4002 25.3002C14.5002 25.0002 14.6002 24.6002 14.7002 24.3002C15.0002 22.5002 16.0002 21.0002 17.4002 19.8002C18.3002 18.8002 19.3002 17.7002 20.3002 16.7002ZM16.1002 22.2002C15.9002 22.9002 15.7002 23.5002 15.5002 24.0002C15.4002 24.4002 15.7002 24.7002 16.1002 24.7002C16.7002 24.5002 17.3002 24.3002 17.8002 24.1002C17.7002 22.6002 17.7002 22.6002 16.3002 22.3002C16.3002 22.3002 16.2002 22.3002 16.1002 22.2002Z" fill="white"/>
<path d="M19.0996 12.0996H9.09961V13.9996H19.0996V12.0996Z" fill="white"/>
<path d="M19.0996 8H9.09961V9.9H19.0996V8Z" fill="white"/>
<path d="M18.2002 16.0996C17.5002 16.7996 16.9002 17.3996 16.4002 17.8996C16.3002 17.9996 16.2002 17.9996 16.1002 17.9996C13.9002 17.9996 11.7002 17.9996 9.4002 17.9996C9.4002 17.9996 9.3002 17.9996 9.2002 17.9996V16.0996H18.2002Z" fill="white"/>
<path d="M21.4004 15.7C21.8004 15.3 22.2004 14.9 22.7004 14.5C23.2004 14 23.8004 14 24.2004 14.5C24.7004 15 25.2004 15.5 25.6004 15.9C26.1004 16.4 26.1004 16.9 25.7004 17.3C25.4004 17.7 25.0004 18 24.7004 18.3C24.6004 18.4 24.5004 18.5 24.4004 18.6C23.6004 17.7 22.6004 16.7 21.4004 15.7Z" fill="white"/>
<path d="M7.09961 12.0996H5.09961V13.9996H7.09961V12.0996Z" fill="white"/>
<path d="M6.99961 8H5.09961V9.9H6.99961V8Z" fill="white"/>
<path d="M6.99961 16.0996H5.09961V17.9996H6.99961V16.0996Z" fill="white"/>
</g>
<defs>
<clipPath id="clip0">
<rect width="26.1" height="26" fill="white"/>
</clipPath>
</defs>
</svg>
