<svg xmlns="http://www.w3.org/2000/svg" width="36" height="36" fill="none" viewBox="0 0 36 36">
    <path fill="#3C424D" d="M0 18C0 8.059 8.059 0 18 0h18v36H18C8.059 36 0 27.941 0 18z"/>
    <path fill="#FFC107" stroke="#fff" stroke-miterlimit="10" stroke-width="1.5" d="M12.366 17.632l6.522-6.006v-.001c.15-.143.15-.37 0-.512-.154-.147-.407-.151-.566-.01l-7.205 6.636s0 0 0 0c-.156.145-.156.378 0 .522l7.205 6.636c.155.138.4.138.556 0 .159-.142.163-.375.01-.522l-6.522-6.006-.41-.37.41-.367z"/>
    <path fill="#000" stroke="#fff" stroke-miterlimit="10" stroke-width="1.5" d="M19 18c0 .097.037.191.102.26l6.304 6.636c.14.142.361.138.496-.008.13-.143.13-.37 0-.513L19.846 18l6.056-6.375c.134-.146.13-.38-.009-.522-.136-.137-.35-.137-.487 0l-6.304 6.636c-.065.07-.102.163-.102.26z"/>
</svg>
