<svg width="40" height="40" viewBox="0 0 40 40" fill="none" xmlns="http://www.w3.org/2000/svg">
<rect width="40" height="40" rx="6" fill="#006B5B"/>
<g clip-path="url(#clip0_2181_7797)">
<path d="M31.5 29.5C31.5 29 31.5 28.5 31.5 28C31 28 30.5 28 30 28C30 24.5 30 21 30 17.4C30.5 17.4 31 17.4 31.6 17.4C31.6 17.1 31.6 16.7 31.5 16.4C31.4 15.5 31.4 14.5 31.3 13.6C31.2 12.8 31.2 11.9 31.1 11.1C31.1 11 31.1 11 31 11H30.9C23.9 11 16.8 11 9.8 11C9.7 11 9.6 11 9.5 11C9.3 13.1 9.2 15.3 9 17.4C9.3 17.4 9.6 17.4 9.9 17.4C10 17.4 10.1 17.4 10.2 17.4C10.5 17.4 10.6 17.5 10.6 17.7C10.6 19.1 10.6 20.5 10.6 21.9C10.6 23.8 10.6 25.7 10.6 27.5V27.6C10.6 27.8 10.5 27.9 10.3 27.9C10 27.9 9.6 27.9 9.3 27.9C9.2 27.9 9.2 27.9 9.1 27.9C9.1 28.4 9.1 28.9 9.1 29.4C16.6 29.5 24 29.5 31.5 29.5ZM14.6 27.9C13.9 27.9 13.2 27.9 12.6 27.9C12.6 24.4 12.6 20.9 12.6 17.4C17.8 17.4 22.9 17.4 28.1 17.4C28.1 20.9 28.1 24.4 28.1 27.8C27.4 27.8 26.7 27.8 26 27.8M13.6 13.5C13.7 13.4 13.7 13.3 13.7 13.2C14.5 12.1 16.1 12 17 13.1C17.1 13.3 17.3 13.4 17.6 13.4C19.4 13.4 21.3 13.4 23.1 13.4C23.3 13.4 23.5 13.3 23.7 13.1C24.3 12.3 25.6 12.1 26.4 12.7C26.7 12.9 26.9 13.1 27 13.5C26.9 13.5 26.9 13.5 26.8 13.5C26.5 13.5 26.1 13.5 25.8 13.5C25.4 13.5 25.1 13.8 25.1 14.2C25.1 14.6 25.4 14.9 25.8 14.8C26.2 14.8 26.6 14.8 27 14.8C27 14.9 26.9 15 26.9 15C26.2 16.2 24.5 16.3 23.7 15.2C23.5 15.1 23.3 15 23 15C21.1 15 19.3 15 17.4 15C17.3 15.1 17.1 15.1 17 15.3C16.9 15.4 16.8 15.5 16.7 15.6C16.1 16.1 15.4 16.2 14.6 15.9C14.1 15.7 13.9 15.3 13.7 14.9C14.1 14.9 14.5 14.9 14.8 14.9C15 14.9 15.3 14.9 15.4 14.7C15.6 14.5 15.6 14.2 15.5 13.9C15.4 13.6 15.2 13.5 14.9 13.5C14.5 13.5 14.1 13.5 13.6 13.5ZM24 27.9C21.5 27.9 19 27.9 16.4 27.9C16.3 27.9 16.3 27.9 16.2 27.9" fill="white"/>
<path d="M25.7 24.5C26.3 23.6 26.3 22.4 25.7 21.6C25.3 21.1 24.9 20.7 24.4 20.5C24.7 21.4 24.6 22.3 24.1 23.1C23.8 23.6 23.4 24.1 22.8 24.5C22.3 24.9 21.7 25.2 21.1 25.3C20.4 25.5 19.8 25.6 19.1 25.6C19 25.6 18.8 25.6 18.5 25.6C19.4 26.2 20.5 26.5 21.6 26.5C22 26.5 22.4 26.5 22.8 26.4C23.5 26.9 24.3 27.2 25.2 27.3C25.3 27.3 25.3 27.3 25.3 27.3L25.4 27.2C25.4 27.2 25.3 27.1 25.2 27C25.1 26.9 25.1 26.9 25 26.8C25 26.8 24.9 26.7 24.9 26.6C24.8 26.5 24.8 26.4 24.7 26.4C24.7 26.3 24.6 26.2 24.6 26.1C25 25.4 25.4 25 25.7 24.5Z" fill="white"/>
<path d="M23.5 21.5C23.5 23.1 21.6 24.5 19.2 24.5C18.8 24.5 18.3 24.5 17.9 24.4C17.6 24.3 15.4 25.6 15.4 25.6C15.4 25.6 16.5 23.9 16.2 23.7C15.4 23.2 14.9 22.4 14.9 21.5C14.9 19.9 16.8 18.5 19.2 18.5C21.6 18.5 23.5 19.8 23.5 21.5Z" stroke="white" stroke-miterlimit="10" stroke-linecap="round" stroke-linejoin="round"/>
</g>
<defs>
<clipPath id="clip0_2181_7797">
<rect width="22.6" height="18.5" fill="white" transform="translate(9 11)"/>
</clipPath>
</defs>
</svg>
