<svg width="26" height="21" viewBox="0 0 26 21" fill="none" xmlns="http://www.w3.org/2000/svg">
<path d="M24.9638 14.3124C26.3704 12.3585 26.34 9.74316 24.9031 7.81207C24.1276 6.74768 23.1012 5.88097 21.9227 5.26515C22.5386 7.20385 22.3029 9.30981 21.2765 11.0737C20.5771 12.2673 19.6191 13.3012 18.4711 14.1071C17.3003 14.9282 16.0002 15.5517 14.6165 15.9546C13.1492 16.388 11.6286 16.6008 10.1005 16.6008C9.81157 16.6008 9.37822 16.578 8.81561 16.54C10.8684 17.8249 13.2708 18.4863 15.7113 18.4255C16.5704 18.4255 17.4295 18.3495 18.281 18.1974C19.8548 19.3074 21.6795 20.0145 23.603 20.2578C23.717 20.2654 23.831 20.235 23.9223 20.1589C24.0211 20.0829 24.0895 19.9689 24.1123 19.8472C24.1123 19.794 24.1124 19.756 24.1276 19.756C24.1428 19.756 24.1428 19.7256 24.1199 19.6647L24.0896 19.5811L24.0515 19.5127C24.0363 19.4823 24.0211 19.4595 23.9983 19.4367C23.9831 19.4139 23.9603 19.391 23.9375 19.3682L23.869 19.2998L23.8083 19.2314C23.7626 19.1706 23.6486 19.0565 23.4737 18.8741C23.2989 18.6916 23.1696 18.5547 23.0936 18.4559C23.0176 18.3571 22.9035 18.2126 22.7667 18.0378C22.6298 17.8629 22.5082 17.6804 22.4017 17.4904C22.3029 17.3003 22.1964 17.0874 22.1052 16.8593C23.2456 16.2131 24.2264 15.354 24.9638 14.3124Z" fill="black"/>
<path d="M19.946 7.59918C19.946 11.2409 15.7037 14.1984 10.473 14.1984C9.49984 14.1984 8.56472 14.0995 7.6828 13.9095C7.01376 13.765 2.07958 16.5552 2.07958 16.5552C2.07958 16.5552 4.51243 12.7538 3.95743 12.3889C2.13277 11.1877 1 9.48466 1 7.59918C1 3.95746 5.2423 1 10.473 1C15.7037 1 19.946 3.94986 19.946 7.59918Z" stroke="black" stroke-width="1.4" stroke-miterlimit="10" stroke-linecap="round" stroke-linejoin="round"/>
</svg>
