<svg width="24" height="24" viewBox="0 0 24 24" fill="none" xmlns="http://www.w3.org/2000/svg">
<g clip-path="url(#clip0_1102_5507)">
<path d="M19.1 15.8C18.4 15.1 17.8 14.5 17.1 13.8C17 13.7 17.1 13.6 17.1 13.5C17.8 11.4 17.6 9.5 16.3 7.7C14.9 5.7 12.4 4.8 10 5.3C7.5 5.9 5.7 7.8 5.3 10.2C4.7 13.7 7.2 17.1 10.8 17.4C11.8 17.5 12.7 17.4 13.6 17C13.7 17 13.9 17 13.9 17C14.5 17.6 15.1 18.2 15.8 18.8C15.8 18.8 15.8 18.9 15.9 18.9C15.3 19.1 14.8 19.4 14.2 19.6C14.1 19.6 14 19.7 13.9 19.7C13.7 19.7 13.7 19.8 13.7 20C13.7 20.4 13.7 20.8 13.7 21.3C13.5 22.2 12.7 22.9 11.8 22.9C11.4 22.9 11 22.9 10.7 22.8C9.8 22.6 9.3 21.8 9.3 20.9C9.3 20.6 9.3 20.4 9.3 20.1C9.3 20 9.3 19.9 9.1 19.8C8.4 19.5 7.7 19.2 7 18.9C6.9 18.9 6.8 18.9 6.8 19C6.6 19.1 6.5 19.3 6.4 19.5C5.7 20.3 4.5 20.4 3.7 19.6C3.5 19.4 3.4 19.3 3.2 19.1C2.5 18.4 2.6 17.3 3.3 16.6C3.5 16.4 3.7 16.2 3.9 16.1C3.6 15.3 3.2 14.5 2.9 13.8C2.9 13.7 2.8 13.7 2.7 13.7C2.5 13.7 2.3 13.7 2.2 13.7C1.1 13.7 0.4 13.1 0.2 12C0 11.6 0 11.2 0 10.7C0.1 9.8 0.8 9.2 1.7 9.2C2 9.2 2.3 9.2 2.6 9.2C2.7 9.2 2.8 9.1 2.8 9C3.1 8.2 3.4 7.5 3.8 6.7C3.8 6.6 3.8 6.5 3.7 6.5C3.5 6.3 3.3 6.1 3.1 5.9C2.4 5.2 2.4 4.1 3.1 3.4C3.2 3.3 3.4 3.1 3.5 3C4.2 2.3 5.3 2.3 6.1 3C6.3 3.2 6.4 3.4 6.6 3.6C6.7 3.7 6.8 3.7 6.9 3.6C7.6 3.3 8.3 3 9 2.7C9.2 2.6 9.2 2.6 9.2 2.4C9.2 2.2 9.2 2 9.2 1.8C9.2 0.899997 9.6 0.399997 10.4 0.099997C11.1 -0.100003 11.8 -0.100003 12.5 0.099997C13.2 0.299997 13.6 0.799997 13.6 1.6C13.6 1.9 13.6 2.2 13.6 2.4C13.6 2.5 13.6 2.6 13.8 2.7C14.5 3 15.2 3.3 15.9 3.6C16 3.6 16.1 3.6 16.1 3.5C16.3 3.3 16.5 3 16.8 2.8C17.5 2.1 18.6 2.1 19.3 2.8C19.5 3 19.6 3.1 19.8 3.3C20.5 4 20.5 5.1 19.8 5.8C19.6 6.1 19.3 6.3 19.1 6.6C19.1 6.7 19 6.8 19.1 6.8C19.4 7.6 19.7 8.3 20 9C20.1 9.2 20.1 9.2 20.3 9.2C20.6 9.2 21 9.2 21.3 9.2C22.1 9.2 22.8 9.7 22.9 10.6C23 11.2 23 11.8 22.8 12.5C22.5 13.4 21.9 13.8 21 13.8C20.8 13.8 20.5 13.8 20.3 13.8C20.1 13.8 20.1 13.9 20 14C19.8 14.5 19.6 15 19.4 15.5C19.3 15.6 19.2 15.7 19.1 15.8Z" fill="white"/>
<path d="M13.8 10.3C13.7 11.2 14.1 12 14.9 12.8C16.3 14.2 17.7 15.5 19 16.9C19.7 17.6 20.4 17.8 21.3 17.8C21.8 17.8 22.2 18 22.5 18.3C23.1 18.8 23.4 19.5 23.8 20.1V20.2C23.8 20.4 23.8 20.6 23.7 20.7C23.6 20.9 23.4 20.7 23.2 20.6C22.8 20.4 22.4 20.1 22 19.8C21.7 19.6 21.5 19.6 21.2 19.8C21 20 20.7 20.2 20.6 20.4C20.4 20.7 20.3 21 20.2 21.3C20 21.7 20.1 22 20.4 22.2C20.8 22.5 21.1 22.7 21.5 23C21.6 23.1 21.8 23.2 21.9 23.3C22.1 23.5 22.1 23.7 21.8 23.7C21.4 23.8 21 23.8 20.5 23.8C19.8 23.8 19.1 23.7 18.5 23.1C18 22.7 17.7 22.2 17.8 21.5C17.8 21.1 17.8 20.6 17.7 20.1C17.6 19.6 17.4 19.2 17 18.9C15.5 17.4 14 16 12.5 14.5C11.9 13.9 11.2 13.7 10.4 13.8C9.30001 13.9 8.60001 13.4 8.10001 12.5C7.90001 12.1 7.60001 11.8 7.40001 11.4C7.30001 11.2 7.20001 11.1 7.20001 10.9C7.20001 10.6 7.40001 10.4 7.70001 10.6C8.10001 10.9 8.20001 11 8.40001 11C8.80001 11.2 9.20001 11.5 9.50001 11.8C9.70001 12 10 12 10.2 11.8C10.5 11.6 10.8 11.4 11 11.1C11.2 10.8 11.3 10.4 11.5 10.1C11.6 9.69999 11.6 9.39999 11.3 9.19999C11 8.89999 10.6 8.69999 10.2 8.39999C9.90001 8.29999 9.70001 8.19999 9.50001 7.99999C9.40001 7.99999 9.30001 7.79999 9.30001 7.69999C9.30001 7.59999 9.50001 7.49999 9.60001 7.49999C9.80001 7.39999 10 7.39999 10.3 7.39999C10.9 7.39999 11.5 7.39999 12 7.49999C13.3 7.79999 13.9 8.69999 13.8 10.3Z" fill="white"/>
</g>
<defs>
<clipPath id="clip0_1102_5507">
<rect width="23.9" height="24" fill="white"/>
</clipPath>
</defs>
</svg>
