<svg width="41" height="41" viewBox="0 0 41 41" fill="none" xmlns="http://www.w3.org/2000/svg">
<rect width="41" height="41" rx="6" fill="#006b5b"/>
<path d="M29.6869 23.124C30.8754 21.473 30.8498 19.263 29.6356 17.6312C28.9803 16.7318 28.113 15.9994 27.1172 15.4791C27.6376 17.1173 27.4384 18.8968 26.5712 20.3872C25.9801 21.3959 25.1707 22.2696 24.2006 22.9505C23.2112 23.6444 22.1127 24.1712 20.9434 24.5117C19.7036 24.8778 18.4187 25.0577 17.1274 25.0577C16.8833 25.0577 16.5171 25.0384 16.0417 25.0063C17.7763 26.092 19.8063 26.651 21.8686 26.5996C22.5945 26.5996 23.3205 26.5353 24.04 26.4068C25.3698 27.3448 26.9116 27.9423 28.537 28.1478C28.6334 28.1543 28.7297 28.1286 28.8068 28.0643C28.8903 28.0001 28.9481 27.9037 28.9674 27.8009C28.9674 27.7559 28.9674 27.7238 28.9803 27.7238C28.9931 27.7238 28.9931 27.6981 28.9739 27.6467L28.9482 27.5761L28.916 27.5182C28.9032 27.4925 28.8904 27.4733 28.8711 27.454C28.8582 27.4347 28.8389 27.4154 28.8197 27.3962L28.7618 27.3384L28.7105 27.2805C28.6719 27.2291 28.5756 27.1328 28.4278 26.9786C28.28 26.8244 28.1708 26.7088 28.1066 26.6253C28.0423 26.5417 27.946 26.4197 27.8303 26.2719C27.7147 26.1242 27.6119 25.97 27.5219 25.8094C27.4384 25.6488 27.3485 25.4689 27.2714 25.2762C28.235 24.7301 29.0638 24.0041 29.6869 23.124Z" fill="white"/>
<path d="M25.4469 17.4513C25.4469 20.5286 21.8621 23.0276 17.4422 23.0276C16.6199 23.0276 15.8297 22.9441 15.0845 22.7835C14.5191 22.6614 10.3497 25.0192 10.3497 25.0192C10.3497 25.0192 12.4055 21.807 11.9365 21.4986C10.3947 20.4836 9.4375 19.0445 9.4375 17.4513C9.4375 14.3741 13.0222 11.875 17.4422 11.875C21.8621 11.875 25.4469 14.3676 25.4469 17.4513Z" stroke="white" stroke-width="1.2" stroke-miterlimit="10" stroke-linecap="round" stroke-linejoin="round"/>
</svg>
