<svg width="41" height="41" viewBox="0 0 41 41" fill="none" xmlns="http://www.w3.org/2000/svg">
<rect width="41" height="41" rx="6" fill="#006B5B"/>
<path d="M28.1823 8.37518H13.8635C13.1044 8.37612 12.3766 8.68063 11.8397 9.22193C11.3029 9.76323 11.0009 10.4971 11 11.2626V28.5883C10.9997 28.9676 11.0735 29.3432 11.2173 29.6937C11.3611 30.0441 11.572 30.3626 11.838 30.6308C12.104 30.899 12.4198 31.1116 12.7673 31.2566C13.1149 31.4016 13.4874 31.4761 13.8635 31.4758H14.2724V32.7131C14.2718 32.7952 14.2956 32.8756 14.3407 32.944C14.3857 33.0124 14.45 33.0657 14.5252 33.097C14.6005 33.1283 14.6833 33.1363 14.7631 33.1199C14.8429 33.1034 14.916 33.0633 14.973 33.0048L16.3202 31.6463L17.6674 33.0048C17.7245 33.0633 17.7976 33.1034 17.8773 33.1199C17.9571 33.1363 18.04 33.1283 18.1152 33.097C18.1905 33.0657 18.2548 33.0124 18.2998 32.944C18.3449 32.8756 18.3686 32.7952 18.368 32.7131V28.1755H28.1863V29.0006H19.1818V29.8256H28.1818V30.6507H19.1818V31.4758H28.1818C28.3987 31.4755 28.6067 31.3885 28.7601 31.2338C28.9134 31.0791 28.9997 30.8694 29 30.6507V9.20024C28.9997 8.98159 28.9135 8.77197 28.7602 8.61731C28.607 8.46265 28.3991 8.37558 28.1823 8.37518V8.37518ZM11.8177 11.2626C11.8184 10.7159 12.0341 10.1917 12.4175 9.80504C12.8009 9.41841 13.3208 9.20091 13.863 9.20024H28.1813V25.7014H13.8635C13.4823 25.7011 13.1049 25.7779 12.7536 25.9273C12.4023 26.0766 12.0842 26.2954 11.8182 26.5708L11.8177 11.2626ZM11.8588 28.1755H14.2729V29.0006H11.8593C11.8044 28.7283 11.8044 28.4478 11.8593 28.1755H11.8588ZM13.863 30.6482C13.5456 30.6477 13.2325 30.5729 12.9486 30.4297C12.6646 30.2866 12.4175 30.0789 12.2266 29.8231H14.2729V30.6482H13.863ZM17.5448 31.7149L16.607 30.7693C16.569 30.731 16.5239 30.7005 16.4743 30.6798C16.4247 30.6591 16.3715 30.6484 16.3177 30.6484C16.264 30.6484 16.2108 30.6591 16.1612 30.6798C16.1115 30.7005 16.0664 30.731 16.0285 30.7693L15.0906 31.7149V28.1755H17.5428L17.5448 31.7149ZM12.2286 27.349C12.4189 27.0928 12.6658 26.8849 12.9497 26.7416C13.2336 26.5984 13.5466 26.5239 13.864 26.5239H28.1823V27.349H12.2286Z" fill="white" stroke="white" stroke-width="0.4"/>
<path d="M13.4547 10.0253H14.2729V24.8758H13.4547V10.0253Z" fill="white" stroke="white" stroke-width="0.4"/>
<path d="M16.7271 15.8007H25.7266C25.7803 15.8008 25.8336 15.7902 25.8832 15.7695C25.9329 15.7488 25.978 15.7184 26.016 15.6801C26.0541 15.6418 26.0842 15.5964 26.1048 15.5463C26.1254 15.4963 26.136 15.4426 26.136 15.3884V12.9158C26.1364 12.8613 26.1261 12.8074 26.1057 12.757C26.0853 12.7066 26.0552 12.6607 26.0171 12.6221C25.979 12.5835 25.9338 12.5529 25.8839 12.532C25.8341 12.5111 25.7806 12.5004 25.7266 12.5005H16.7271C16.6187 12.5005 16.5147 12.5439 16.438 12.6212C16.3613 12.6985 16.3182 12.8034 16.3182 12.9127V15.3854C16.3179 15.4398 16.3281 15.4937 16.3485 15.5441C16.3689 15.5945 16.3989 15.6403 16.4369 15.6789C16.4749 15.7175 16.5201 15.7481 16.57 15.769C16.6198 15.7899 16.6732 15.8007 16.7271 15.8007V15.8007ZM17.136 13.3281H25.3177V14.9782H17.1365L17.136 13.3281Z" fill="white" stroke="white" stroke-width="0.4"/>
</svg>
