<svg width="18" height="25" viewBox="0 0 18 25" fill="none" xmlns="http://www.w3.org/2000/svg">
<path d="M16.9654 1H3.66075C2.95534 1.00087 2.27907 1.28381 1.78027 1.78678C1.28147 2.28974 1.00086 2.97166 1 3.68295V19.7816C0.999695 20.134 1.06831 20.483 1.20191 20.8087C1.33552 21.1343 1.5315 21.4302 1.77863 21.6794C2.02577 21.9286 2.31921 22.1262 2.64216 22.261C2.96512 22.3957 3.31125 22.4649 3.66075 22.4646H4.04066V23.6143C4.04013 23.6906 4.06221 23.7653 4.10406 23.8288C4.14592 23.8924 4.20564 23.9419 4.27558 23.971C4.34551 24.0001 4.42247 24.0075 4.4966 23.9922C4.57073 23.977 4.63866 23.9397 4.69166 23.8853L5.94344 22.623L7.19523 23.8853C7.24824 23.9397 7.31616 23.977 7.39029 23.9922C7.46442 24.0075 7.54138 24.0001 7.61132 23.971C7.68125 23.9419 7.74098 23.8924 7.78283 23.8288C7.82468 23.7653 7.84676 23.6906 7.84624 23.6143V19.3981H16.9691V20.1647H8.60233V20.9313H16.9649V21.6979H8.60233V22.4646H16.9649C17.1665 22.4643 17.3597 22.3835 17.5023 22.2398C17.6448 22.096 17.725 21.9012 17.7252 21.6979V1.76663C17.725 1.56346 17.6449 1.36868 17.5024 1.22498C17.36 1.08128 17.1669 1.00037 16.9654 1V1ZM1.75982 3.68295C1.76043 3.1749 1.96086 2.68784 2.31713 2.32859C2.6734 1.96934 3.15644 1.76725 3.66028 1.76663H16.9645V17.0991H3.66075C3.3065 17.0989 2.95581 17.1703 2.62939 17.309C2.30297 17.4478 2.00744 17.6511 1.76028 17.907L1.75982 3.68295ZM1.79795 19.3981H4.04112V20.1647H1.79841C1.74743 19.9117 1.74743 19.651 1.79841 19.3981H1.79795ZM3.66028 21.6956C3.36529 21.6951 3.07442 21.6257 2.81057 21.4926C2.54672 21.3596 2.31708 21.1667 2.13972 20.929H4.04112V21.6956H3.66028ZM7.08131 22.6868L6.20989 21.8081C6.17461 21.7725 6.13271 21.7443 6.08659 21.725C6.04048 21.7057 5.99104 21.6958 5.94112 21.6958C5.8912 21.6958 5.84177 21.7057 5.79565 21.725C5.74953 21.7443 5.70763 21.7725 5.67235 21.8081L4.80094 22.6868V19.3981H7.07945L7.08131 22.6868ZM2.14158 18.63C2.31842 18.392 2.54782 18.1988 2.8116 18.0657C3.07537 17.9327 3.36627 17.8634 3.66121 17.8634H16.9654V18.63H2.14158Z" fill="black" stroke="black" stroke-width="0.4"/>
<path d="M3.28082 2.53325H4.0411V16.332H3.28082V2.53325Z" fill="black" stroke="black" stroke-width="0.4"/>
<path d="M6.32151 7.89963H14.6837C14.7336 7.89969 14.783 7.88983 14.8292 7.87061C14.8753 7.85138 14.9173 7.82318 14.9526 7.7876C14.9879 7.75202 15.0159 7.70977 15.0351 7.66326C15.0542 7.61675 15.064 7.5669 15.064 7.51655V5.21902C15.0644 5.16844 15.0548 5.11828 15.0359 5.07145C15.0169 5.02462 14.9889 4.98203 14.9536 4.94616C14.9182 4.91028 14.8762 4.88182 14.8298 4.86242C14.7835 4.84302 14.7338 4.83307 14.6837 4.83313H6.32151C6.22075 4.83313 6.12412 4.87349 6.05287 4.94533C5.98163 5.01717 5.9416 5.11461 5.9416 5.21621V7.51374C5.94123 7.56428 5.95079 7.6144 5.96972 7.6612C5.98864 7.708 6.01657 7.75057 6.05188 7.78644C6.08719 7.82231 6.1292 7.85078 6.17548 7.87021C6.22175 7.88963 6.27138 7.89963 6.32151 7.89963V7.89963ZM6.70142 5.6021H14.3037V7.13535H6.70188L6.70142 5.6021Z" fill="black" stroke="black" stroke-width="0.4"/>
</svg>
