<svg xmlns="http://www.w3.org/2000/svg" width="32" height="32" fill="none" viewBox="0 0 32 32">
    <path fill="#fff" d="M10.836 5.346c.006-.104.01-.173.016-.239.025-.451.282-.711.733-.72.508-.01 1.016-.004 1.546-.004.06-.805.36-1.467 1.018-1.928.461-.322.979-.501 1.546-.445 1.01.107 2.084.828 2.2 2.37h.787c.232 0 .461 0 .693.003.527.007.774.245.803.768.003.057.012.11.018.192.806 0 1.602-.004 2.398 0 .79.006 1.43.332 1.919.946.338.43.514.925.514 1.467.003 6.27.006 12.54 0 18.809 0 1.332-1.094 2.426-2.426 2.43-4.718.005-9.439.008-14.157 0-1.348-.004-2.442-1.104-2.442-2.446C6 20.299 6 14.051 6.002 7.8c0-1.38 1.07-2.442 2.449-2.457.786-.004 1.573.003 2.385.003zm.016 1.63c-.803 0-1.57-.003-2.336 0-.539.003-.874.335-.89.88-.006.251 0 .499 0 .75v17.79c0 .654.323.962.978.962 1.596-.003 3.188 0 4.784 0 3.034 0 6.072 0 9.106-.003.574 0 .894-.32.903-.89.006-.47.003-.941.003-1.414V11.295c0-1.116.003-2.228 0-3.344 0-.659-.32-.978-.968-.978h-2.258v.526c0 .65-.238.89-.88.894l-3.546.003c-1.354 0-2.708 0-4.066-.003-.573 0-.83-.257-.833-.825.003-.182.003-.363.003-.592zm4.664-3.702c-.617 0-1.113.48-1.116 1.078-.003.636.49 1.154 1.107 1.166.605.01 1.116-.52 1.116-1.157.003-.601-.492-1.087-1.107-1.087z"/>
    <path fill="#fff" d="M17.667 20.226c-.94 0-1.881.003-2.822 0-.423 0-.724-.235-.77-.586-.06-.442.256-.784.74-.784 1.42-.003 2.842 0 4.262 0 .49 0 .978-.003 1.47 0 .458.003.762.276.765.68.003.399-.304.684-.761.687-.963.01-1.925.003-2.884.003zM17.657 24.041h-2.793c-.482 0-.79-.263-.796-.677-.003-.417.298-.693.78-.693 1.89-.003 3.784-.003 5.674 0 .48 0 .79.282.787.693-.006.41-.316.674-.8.674-.949.003-1.899.003-2.852.003zM17.689 15.044h2.852c.458 0 .768.273.771.671.003.395-.313.69-.761.69-1.91.003-3.822 0-5.73-.003-.455 0-.756-.282-.75-.69.006-.41.298-.668.768-.668.95-.003 1.9 0 2.85 0zM17.676 12.58c-.96 0-1.918.004-2.878-.002-.407-.004-.686-.242-.724-.596-.044-.43.248-.75.706-.752 1.526-.004 3.053-.004 4.576-.004.414 0 .825-.003 1.238 0 .417.003.715.282.718.662.003.38-.288.68-.699.683-.98.013-1.959.01-2.937.01zM11.137 15.803c.448-.592.875-1.157 1.298-1.72.131-.176.285-.292.514-.23.282.079.417.402.238.646-.561.768-1.135 1.527-1.715 2.279-.197.257-.48.245-.686-.016-.31-.392-.608-.793-.903-1.197-.153-.213-.106-.47.091-.611.188-.135.423-.104.586.1.195.235.373.483.577.75zM11.137 11.985c.439-.577.843-1.113 1.248-1.649.04-.053.078-.11.122-.16.172-.185.414-.216.59-.066.187.16.238.367.09.565-.567.77-1.144 1.539-1.733 2.297-.188.245-.464.23-.665-.021-.316-.399-.62-.806-.918-1.217-.145-.2-.094-.445.09-.59.182-.137.43-.115.59.08.197.234.376.485.586.761zM11.137 19.543c.442-.586.856-1.138 1.273-1.687.075-.097.166-.197.272-.244.182-.082.36-.035.49.132.144.188.115.373-.02.554l-1.438 1.91c-.082.106-.157.219-.248.32-.204.222-.46.237-.646.009-.332-.411-.649-.834-.953-1.264-.14-.197-.078-.454.12-.58.207-.131.41-.1.567.085.191.232.37.483.583.765zM11.137 23.286c.436-.58.846-1.123 1.257-1.665.069-.09.141-.191.238-.244.185-.104.377-.082.52.084.167.188.142.386-.002.577l-1.47 1.953c-.054.069-.101.141-.157.207-.248.307-.54.304-.784-.013-.276-.357-.546-.717-.812-1.081-.185-.25-.17-.505.031-.662.201-.156.458-.103.65.142.168.216.332.438.529.702z"/>
</svg>
