<svg xmlns="http://www.w3.org/2000/svg" width="32" height="32" fill="none" viewBox="0 0 32 32">
    <path fill="#fff" d="M11.572 2.001c.798.287 1.063.914 1.234 1.698 1.325 6.095 2.684 12.183 4.034 18.273.02.083.06.159.108.29.234-.139.203-.35.238-.523.666-3.321 1.336-6.643 1.987-9.967.126-.641.433-1.081 1.095-1.172.662-.09 1.094.25 1.373.834.776 1.627 1.574 3.241 2.327 4.877.197.43.44.567.903.554 1.203-.034 2.41.024 3.61-.024.802-.032 1.367.232 1.698.968v.937c-.588.463-1.235.653-2.001.624-1.403-.054-2.811-.058-4.214-.007-.927.034-1.511-.285-1.858-1.168-.308-.78-.728-1.518-1.169-2.415-.061.28-.087.385-.107.49-.806 4.045-1.62 8.088-2.409 12.137-.139.712-.35 1.32-1.09 1.593h-.67c-.53-.346-.799-.831-.929-1.458-.428-2.072-.904-4.135-1.36-6.202L11.393 8.916c-.173.118-.171.28-.209.429-.81 3.172-1.622 6.345-2.432 9.52-.258 1.016-.593 1.29-1.627 1.293-1.27.005-2.543-.033-3.812.014-.92.035-1.765-.012-2.314-.89v-.804c.631-.878 1.55-.84 2.484-.806.778.03 1.56-.03 2.337.019.533.034.702-.168.828-.668 1.09-4.357 2.224-8.704 3.324-13.058.191-.758.37-1.496 1.067-1.965l.532.001z"/>
</svg>
