<svg width="22" height="17" viewBox="0 0 22 17" fill="none" xmlns="http://www.w3.org/2000/svg">
    <path d="M1.817 9.938h1.397s.685-.136.685.675v.513s-.22.83 1.054.83h.631s.707-.13.707.697c0 0 .204.321.618.288.245-.02.31.184.323.39 0 0-.124.54.29.54 0 0 .182.164.182.85 0 0-.1.47.712.47h6.677s.512.017.512-.504v-.946s-.084-.457.628-.457h1.027s.489-.032.489.482v1.004s-.053.422.438.422h.521s.568.078.568-.525c0 0-.088-.384.456-.45 0 0 .324.074.324-.319 0 0-.045-.288.265-.288V8.301s.104-.48-.449-.48c0 0-.423 0-.423-.417 0 0-.692-.952-1.353-.3 0 0-.553.233-.533.953 0 0 .119.37-.414.37l-.888-.02s-.643.114-.643-.633c0 0 .05-1.177-.72-1.177h-.65s-.533-.058-.533-.661V4.554s.118-.827-.839-.827H11.86s-.787.01-.787-.71v-.954h1.517-5.478 1.53v1.188s.02.72-.987.72h-.947s-.908-.195-.908.583l-.02.545s.04.584-.848.584H4.32s-.652-.117-.652.642v.681s-.04.603-.611.603h-1.24V5.1v7.464-2.625z" stroke="#FAA41A" stroke-width="1.5" stroke-miterlimit="10"/>
</svg>
