<svg width="14" height="14" viewBox="0 0 14 14" fill="none" xmlns="http://www.w3.org/2000/svg">
<g clip-path="url(#clip0_142_98)">
<path d="M0.171074 6.29611L5.41802 1.04918C5.58475 0.883018 5.83485 0.832291 6.05348 0.922672C6.2715 1.01246 6.41318 1.22584 6.41318 1.46137V3.79568C9.76773 3.93326 12.6943 6.19819 13.6318 9.44371C14.0376 10.8511 14.0061 11.9943 13.9944 12.4251L13.9921 12.5382C13.9921 12.8006 13.8166 13.0309 13.5642 13.1003C13.5123 13.1143 13.4604 13.1212 13.4091 13.1212C13.2074 13.1212 13.015 13.0157 12.9083 12.8367C10.5991 8.95517 7.53954 8.84497 6.41318 8.9546V11.9553C6.41318 12.1908 6.2715 12.4042 6.05348 12.494C5.83485 12.5849 5.58475 12.5342 5.41802 12.3675L0.171074 7.12053C-0.0568574 6.89251 -0.0568574 6.52404 0.171074 6.29611Z" fill="white"/>
</g>
<defs>
<clipPath id="clip0_142_98">
<rect width="14" height="14" fill="white" transform="matrix(-1 0 0 1 14 0)"/>
</clipPath>
</defs>
</svg>
