<svg width="12" height="14" viewBox="0 0 12 14" fill="none" xmlns="http://www.w3.org/2000/svg">
<path fill-rule="evenodd" clip-rule="evenodd" d="M8.25848 5.11345C8.32615 5.11345 8.37821 5.11345 8.42766 5.11345C9.22152 5.11077 10.0154 5.1081 10.8092 5.10542C11.4599 5.10274 11.8478 5.43996 11.9623 6.10638C12.0508 6.61488 11.9857 7.09663 11.7437 7.55428C11.715 7.60781 11.7046 7.68543 11.7202 7.74163C11.8504 8.26352 11.7645 8.75597 11.5302 9.22968C11.486 9.31533 11.4678 9.39294 11.4912 9.49464C11.6135 10.0112 11.5172 10.501 11.2934 10.972C11.2621 11.0362 11.2491 11.1245 11.2595 11.1968C11.3298 11.724 11.3064 12.2379 11.0617 12.7196C10.7884 13.2576 10.3303 13.4744 9.76811 13.4771C8.16738 13.4851 6.56664 13.4797 4.96591 13.4797C4.89303 13.4797 4.81754 13.4717 4.74727 13.4583C4.55986 13.4262 4.5 13.3513 4.5 13.1559C4.5 10.782 4.5 8.41072 4.5026 6.03679C4.5026 5.94044 4.53644 5.83874 4.58069 5.75042C4.95549 5.00639 5.33551 4.26772 5.71031 3.52369C5.94196 3.06604 5.9784 2.57091 5.94977 2.06776C5.93155 1.73054 5.90292 1.39332 5.88991 1.05342C5.86908 0.512794 6.31677 0.028374 6.84775 0.00161044C7.12365 -0.0117713 7.37352 0.0578139 7.59215 0.226424C7.67024 0.28798 7.74832 0.362918 7.79257 0.451238C8.23765 1.34246 8.51095 2.28454 8.46931 3.2962C8.44848 3.76992 8.36259 4.24096 8.30793 4.71467C8.29231 4.84046 8.2767 4.96625 8.25848 5.11345Z" fill="white"/>
<path fill-rule="evenodd" clip-rule="evenodd" d="M3.99252 5.71961C3.99252 5.77529 3.99252 5.82302 3.99252 5.87074C3.99252 8.40285 3.98754 10.9323 3.99998 13.4644C4.00247 13.7428 3.7363 14 3.50993 14C2.5373 13.992 1.56218 13.9947 0.587062 13.9974C0.402983 13.9974 0.273631 13.9019 0.174129 13.7481C0.0472635 13.5572 0 13.3371 0 13.1091C0 10.9615 0 8.81647 0.00248755 6.66882C0.00248755 6.39042 0.0547261 6.12528 0.228855 5.90256C0.330844 5.77264 0.455222 5.7037 0.616913 5.7037C1.70148 5.70636 2.78854 5.7037 3.87312 5.70636C3.90794 5.7037 3.94526 5.71166 3.99252 5.71961Z" fill="white"/>
</svg>
