<svg width="18" height="15" viewBox="0 0 18 15" fill="none" xmlns="http://www.w3.org/2000/svg">
<path d="M10.4406 9.82154C11.3321 9.45836 12.1203 8.86672 12.7301 8.103C13.8497 6.73301 13.8497 4.72817 12.7301 3.35817C12.1203 2.59373 11.3328 2.00135 10.4413 1.63671C9.44134 1.20689 8.36776 0.990149 7.28497 1.0004C6.20289 0.989417 5.12931 1.20469 4.12938 1.63304C3.2378 1.99769 2.44962 2.58933 1.83988 3.35451C1.30097 4.0201 1.00425 4.85997 1 5.72766C1.00354 6.46794 1.2259 7.18992 1.63735 7.79547C2.08987 8.46985 2.68473 9.02854 3.37802 9.42833C3.31853 9.57478 3.25763 9.71024 3.19531 9.83472C3.13158 9.96066 3.05651 10.0793 2.97224 10.1899C2.88585 10.3033 2.81857 10.3927 2.77112 10.4571C2.72368 10.5215 2.64578 10.6123 2.53884 10.7295C2.43191 10.8467 2.36322 10.9235 2.33348 10.9594C2.33348 10.9536 2.32144 10.9682 2.29807 11.0019C2.2747 11.0356 2.26053 11.0509 2.2577 11.048C2.25487 11.0444 2.24283 11.0597 2.22229 11.0942L2.19113 11.1439L2.16847 11.1915C2.15998 11.2091 2.1536 11.2281 2.15077 11.2472C2.14794 11.2662 2.14652 11.2867 2.14652 11.3072C2.14652 11.3277 2.14935 11.3482 2.15573 11.3673C2.16564 11.4427 2.20176 11.5123 2.25841 11.5613C2.30869 11.6074 2.37384 11.6345 2.44112 11.6345H2.46803C2.7258 11.6001 2.98216 11.5511 3.23568 11.4888C4.12443 11.2545 4.96431 10.854 5.71426 10.307C6.23264 10.4037 6.7588 10.452 7.28568 10.4535C8.36776 10.4644 9.44063 10.2499 10.4406 9.82154ZM5.44586 9.0505L5.05283 9.33681C4.88641 9.45323 4.70158 9.57332 4.49905 9.69706L4.81135 8.9209L3.94597 8.40468C3.42193 8.10374 2.96799 7.68783 2.61603 7.18625C2.31506 6.76303 2.14935 6.25267 2.14298 5.72766C2.15502 5.07012 2.405 4.4404 2.84406 3.96446C3.36315 3.38014 4.01041 2.93348 4.73203 2.66256C5.54642 2.33818 6.41251 2.17489 7.28497 2.18221C8.15743 2.17562 9.02352 2.33818 9.83791 2.66256C10.5588 2.93421 11.2061 3.38014 11.7259 3.96446C12.6592 4.94125 12.6592 6.51407 11.7259 7.49086C11.2061 8.07518 10.5588 8.52184 9.83791 8.79276C9.02352 9.11714 8.15743 9.28042 7.28497 9.2731C6.82679 9.27164 6.37002 9.22844 5.91892 9.14423L5.44586 9.0505Z" fill="white" stroke="white" stroke-width="0.3"/>
<path d="M16.3665 10.1628C17.2241 8.90039 17.2099 7.21408 16.3304 5.96782C15.8545 5.28173 15.2306 4.71938 14.5097 4.32471C14.8836 5.57608 14.7412 6.9329 14.1159 8.07225C13.6882 8.84474 13.1033 9.5118 12.4022 10.0288C11.6862 10.5589 10.8902 10.9609 10.0454 11.2194C9.15027 11.4991 8.21904 11.6382 7.28426 11.6345C7.1058 11.6345 6.84378 11.6213 6.4989 11.5972C7.75519 12.4275 9.2218 12.8515 10.7125 12.8156C11.2394 12.8149 11.7648 12.7658 12.2839 12.6699C13.2435 13.3853 14.361 13.8415 15.5344 13.9989C15.6052 14.0055 15.6753 13.9828 15.7298 13.9345C15.7907 13.8832 15.8318 13.8107 15.846 13.7316C15.846 13.695 15.846 13.6752 15.8552 13.6716C15.8651 13.6687 15.8623 13.6496 15.8509 13.6123L15.8332 13.5566L15.812 13.5105C15.8028 13.4929 15.7922 13.4761 15.7808 13.46C15.7695 13.4446 15.7589 13.4285 15.7447 13.4138L15.7043 13.3677L15.6689 13.326C15.6392 13.2886 15.5705 13.2125 15.4636 13.0953C15.3566 12.9789 15.2787 12.8881 15.2313 12.8237C15.1846 12.7592 15.1173 12.6692 15.0309 12.5549C14.9459 12.4444 14.8708 12.3258 14.8078 12.2005C14.7455 12.0775 14.6846 11.9413 14.6244 11.7942C15.317 11.3922 15.9133 10.8357 16.3665 10.1628Z" fill="white"/>
</svg>
