<svg width="16" height="14" viewBox="0 0 16 14" fill="none" xmlns="http://www.w3.org/2000/svg">
<g clip-path="url(#clip0_142_151)">
<path d="M5.22425 4.75721C2.81891 4.75721 0.869213 6.72596 0.869213 9.15379C0.869213 11.5816 2.81891 13.5504 5.22425 13.5504C7.62958 13.5504 9.57972 11.5816 9.57972 9.15379C9.57913 6.72596 7.62899 4.75721 5.22425 4.75721ZM5.22425 13.331C2.94277 13.331 1.09274 11.4614 1.09274 9.15436C1.09274 6.84728 2.94277 4.97774 5.22425 4.97774C7.50632 4.97774 9.35576 6.84786 9.35576 9.15436C9.35517 11.4609 7.50573 13.331 5.22425 13.331Z" fill="#2AA8A1" stroke="white" stroke-width="0.9" stroke-miterlimit="10"/>
<path d="M5.22424 8.27494C4.66958 8.27494 4.21918 8.71825 4.21918 9.26366C4.21918 9.81083 4.66958 10.253 5.22424 10.253C5.7795 10.253 6.22931 9.81025 6.22931 9.26366C6.22931 8.71766 5.77891 8.27494 5.22424 8.27494ZM5.22424 10.0325C4.79284 10.0325 4.44256 9.68833 4.44256 9.26366C4.44256 8.839 4.79284 8.49483 5.22424 8.49483C5.65624 8.49483 6.00593 8.83958 6.00593 9.26366C6.00593 9.68833 5.65565 10.0325 5.22424 10.0325Z" fill="#2AA8A1" stroke="white" stroke-width="0.9" stroke-miterlimit="10"/>
<path d="M5.22425 7.83466C5.40916 7.83466 5.55903 7.68713 5.55903 7.50511C5.55903 7.32309 5.40916 7.17549 5.22425 7.17549C5.03934 7.17549 4.88947 7.32309 4.88947 7.50511C4.88947 7.68713 5.03934 7.83466 5.22425 7.83466Z" fill="#2AA8A1" stroke="white" stroke-width="0.9" stroke-miterlimit="10"/>
<path d="M5.22425 11.1324C5.40916 11.1324 5.55903 10.9848 5.55903 10.8028C5.55903 10.6208 5.40916 10.4732 5.22425 10.4732C5.03934 10.4732 4.88947 10.6208 4.88947 10.8028C4.88947 10.9848 5.03934 11.1324 5.22425 11.1324Z" fill="#2AA8A1" stroke="white" stroke-width="0.9" stroke-miterlimit="10"/>
<path d="M7.01028 9.59368C7.19519 9.59368 7.34506 9.44608 7.34506 9.26406C7.34506 9.08203 7.19519 8.93451 7.01028 8.93451C6.82536 8.93451 6.6755 9.08203 6.6755 9.26406C6.6755 9.44608 6.82536 9.59368 7.01028 9.59368Z" fill="#2AA8A1" stroke="white" stroke-width="0.9" stroke-miterlimit="10"/>
<path d="M3.66103 9.59368C3.84594 9.59368 3.99581 9.44608 3.99581 9.26406C3.99581 9.08203 3.84594 8.93451 3.66103 8.93451C3.47611 8.93451 3.3261 9.08203 3.3261 9.26406C3.3261 9.44608 3.47611 9.59368 3.66103 9.59368Z" fill="#2AA8A1" stroke="white" stroke-width="0.9" stroke-miterlimit="10"/>
<path d="M13.3753 0.800362C12.2648 0.800362 11.3653 1.68643 11.3653 2.77901C11.3653 3.87218 12.2648 4.75766 13.3753 4.75766C14.4852 4.75766 15.3854 3.87218 15.3854 2.77901C15.3854 1.68643 14.4852 0.800362 13.3753 0.800362ZM13.3753 4.5372C12.3886 4.5372 11.5887 3.74969 11.5887 2.77844C11.5887 1.80719 12.3886 1.01968 13.3753 1.01968C14.362 1.01968 15.162 1.80719 15.162 2.77844C15.162 3.74969 14.362 4.5372 13.3753 4.5372Z" fill="#2AA8A1" stroke="white" stroke-width="0.9" stroke-miterlimit="10"/>
<path d="M3.46657 5.25631L12.3851 1.19576Z" fill="#2AA8A1"/>
<path d="M3.46657 5.25631L12.3851 1.19576" stroke="white" stroke-width="0.9" stroke-miterlimit="10"/>
<path d="M3.33545 5.19895L3.42856 5.3982L12.4244 1.28089L12.3313 1.08164L3.33545 5.19895Z" fill="#2AA8A1" stroke="white" stroke-width="0.9" stroke-miterlimit="10"/>
<path d="M8.26475 12.1305L14.4527 4.31969Z" fill="#2AA8A1"/>
<path d="M8.26475 12.1305L14.4527 4.31969" stroke="white" stroke-width="0.9" stroke-miterlimit="10"/>
<path d="M8.48562 11.729L8.66165 11.8643L14.9129 4.0506L14.7368 3.91524L8.48562 11.729Z" fill="#2AA8A1" stroke="white" stroke-width="0.9" stroke-miterlimit="10"/>
<path d="M5.22424 6.24918C3.65328 6.24918 2.37919 7.54944 2.37919 9.1536C2.37919 10.7578 3.65269 12.0575 5.22424 12.0575C6.7958 12.0575 8.0693 10.7578 8.0693 9.1536C8.0693 7.54944 6.79521 6.24918 5.22424 6.24918ZM5.22424 11.851C3.76943 11.851 2.59013 10.6434 2.59013 9.1536C2.59013 7.66319 3.77002 6.4569 5.22424 6.4569C6.67906 6.4569 7.85836 7.66319 7.85836 9.1536C7.85836 10.6434 6.67906 11.851 5.22424 11.851Z" fill="#2AA8A1" stroke="white" stroke-width="0.9" stroke-miterlimit="10"/>
</g>
<defs>
<clipPath id="clip0_142_151">
<rect width="16" height="14" fill="white"/>
</clipPath>
</defs>
</svg>
