<svg width="12" height="16" viewBox="0 0 12 16" fill="none" xmlns="http://www.w3.org/2000/svg">
<g clip-path="url(#clip0_151_95)">
<path d="M10.7621 1.19049H2.52591C2.08923 1.19103 1.67059 1.36619 1.36181 1.67754C1.05302 1.9889 0.879318 2.41104 0.878785 2.85137V12.8172C0.878596 13.0354 0.92107 13.2514 1.00378 13.453C1.08649 13.6546 1.20781 13.8378 1.3608 13.992C1.51378 14.1463 1.69544 14.2686 1.89536 14.352C2.09529 14.4354 2.30956 14.4783 2.52591 14.4781H2.76109V15.1898C2.76077 15.237 2.77444 15.2833 2.80035 15.3226C2.82626 15.362 2.86323 15.3926 2.90652 15.4106C2.94982 15.4287 2.99746 15.4332 3.04335 15.4238C3.08924 15.4143 3.13129 15.3913 3.1641 15.3576L3.93901 14.5762L4.71393 15.3576C4.74674 15.3913 4.78879 15.4143 4.83468 15.4238C4.88057 15.4332 4.92821 15.4287 4.9715 15.4106C5.0148 15.3926 5.05177 15.362 5.07768 15.3226C5.10359 15.2833 5.11726 15.237 5.11693 15.1898V12.5798H10.7644V13.0543H5.58499V13.5289H10.7618V14.0035H5.58499V14.4781H10.7618C10.8866 14.4779 11.0062 14.4279 11.0945 14.3389C11.1827 14.2499 11.2323 14.1293 11.2325 14.0035V1.66507C11.2323 1.5393 11.1827 1.41872 11.0946 1.32976C11.0064 1.2408 10.8869 1.19072 10.7621 1.19049V1.19049ZM1.34915 2.85137C1.34953 2.53686 1.4736 2.23534 1.69415 2.01295C1.9147 1.79056 2.21372 1.66545 2.52563 1.66507H10.7616V11.1566H2.52591C2.30662 11.1565 2.08952 11.2007 1.88745 11.2866C1.68538 11.3725 1.50244 11.4983 1.34943 11.6567L1.34915 2.85137ZM1.37275 12.5798H2.76138V13.0543H1.37304C1.34148 12.8978 1.34148 12.7364 1.37304 12.5798H1.37275ZM2.52563 14.0021C2.34301 14.0018 2.16295 13.9588 1.99961 13.8764C1.83628 13.7941 1.69412 13.6746 1.58433 13.5275H2.76138V14.0021H2.52563ZM4.6434 14.6157L4.10396 14.0717C4.08211 14.0497 4.05618 14.0322 4.02763 14.0202C3.99908 14.0083 3.96848 14.0022 3.93757 14.0022C3.90667 14.0022 3.87607 14.0083 3.84752 14.0202C3.81897 14.0322 3.79303 14.0497 3.77119 14.0717L3.23174 14.6157V12.5798H4.64225L4.6434 14.6157ZM1.58548 12.1043C1.69495 11.957 1.83696 11.8374 2.00025 11.755C2.16354 11.6726 2.34362 11.6297 2.5262 11.6297H10.7621V12.1043H1.58548Z" fill="white" stroke="white" stroke-width="0.6"/>
<path d="M2.29072 2.13965H2.76137V10.6817H2.29072V2.13965Z" fill="white" stroke="white" stroke-width="0.6"/>
<path d="M4.17304 5.46169H9.34961C9.38052 5.46173 9.41113 5.45562 9.4397 5.44372C9.46826 5.43182 9.49422 5.41436 9.51609 5.39234C9.53796 5.37031 9.55531 5.34416 9.56715 5.31537C9.57898 5.28658 9.58508 5.25571 9.58508 5.22455V3.80227C9.58531 3.77095 9.57938 3.73991 9.56765 3.71091C9.55591 3.68192 9.5386 3.65556 9.51671 3.63335C9.49481 3.61114 9.46878 3.59352 9.4401 3.58151C9.41142 3.56951 9.38066 3.56334 9.34961 3.56338H4.17304C4.11067 3.56338 4.05085 3.58837 4.00674 3.63284C3.96264 3.67731 3.93786 3.73763 3.93786 3.80053V5.22281C3.93763 5.2541 3.94355 5.28512 3.95527 5.31409C3.96698 5.34307 3.98427 5.36941 4.00613 5.39162C4.02799 5.41383 4.054 5.43145 4.08264 5.44348C4.11129 5.4555 4.14201 5.46169 4.17304 5.46169V5.46169ZM4.40822 4.03941H9.11443V4.98857H4.40851L4.40822 4.03941Z" fill="white" stroke="white" stroke-width="0.6"/>
</g>
<defs>
<clipPath id="clip0_151_95">
<rect width="12" height="16" fill="white"/>
</clipPath>
</defs>
</svg>
