<svg width="18" height="11" viewBox="0 0 18 11" fill="none" xmlns="http://www.w3.org/2000/svg">
<g clip-path="url(#clip0_142_82)">
<path fill-rule="evenodd" clip-rule="evenodd" d="M9.00588 0C10.9184 0.021611 12.6712 0.588299 14.283 1.62563C15.688 2.53089 16.8511 3.70028 17.8473 5.05217C18.0446 5.32111 18.0587 5.67169 17.8637 5.93582C16.4305 7.88321 14.6871 9.4368 12.4386 10.3373C11.285 10.7959 10.0867 11.0216 8.84846 10.9976C7.07923 10.964 5.44629 10.4477 3.93552 9.52085C2.4318 8.59878 1.20063 7.37896 0.152721 5.95503C-0.0469915 5.68369 -0.0516906 5.32831 0.148022 5.05938C1.44028 3.30888 2.99099 1.87055 4.95523 0.938878C5.98199 0.45143 7.05574 0.146475 8.18588 0.0504257C8.45843 0.0288147 8.73098 0.0168086 9.00588 0ZM8.98943 1.68806C6.94061 1.68806 5.26772 3.39773 5.26537 5.48919C5.26302 7.60467 6.93591 9.32155 8.99883 9.32395C11.0547 9.32635 12.737 7.60947 12.737 5.5084C12.7346 3.39773 11.057 1.68806 8.98943 1.68806Z" fill="white"/>
<path fill-rule="evenodd" clip-rule="evenodd" d="M9.00822 3.17201C10.277 3.17441 11.2849 4.20934 11.2826 5.5084C11.2802 6.80505 10.2605 7.83758 8.98472 7.83518C7.72301 7.83277 6.7174 6.78825 6.71975 5.48679C6.72445 4.20694 7.74651 3.17201 9.00822 3.17201Z" fill="white"/>
</g>
<defs>
<clipPath id="clip0_142_82">
<rect width="18" height="11" fill="white"/>
</clipPath>
</defs>
</svg>
