<svg width="15" height="10" viewBox="0 0 15 10" fill="none" xmlns="http://www.w3.org/2000/svg">
<path d="M10.5412 8.29268C11.5294 7.95122 12.4078 7.41463 13.1216 6.68293C14.3843 5.41463 14.3843 3.5122 13.1216 2.2439C12.4627 1.5122 11.5843 0.97561 10.5961 0.634146C9.38823 0.195122 8.23529 0 7.02745 0C5.81961 0 4.61176 0.195122 3.51373 0.585366C2.47059 0.926829 1.59216 1.5122 0.933333 2.19512C0.329412 2.82927 0 3.60976 0 4.43902C0 5.12195 0.27451 5.80488 0.713725 6.39024C1.20784 7.02439 1.59216 7.41463 2.36078 7.7561C2.30588 7.90244 2.19608 8.14634 2.14118 8.29268C2.08627 8.39024 1.97647 8.53659 1.86667 8.63415C1.75686 8.73171 1.70196 8.82927 1.64706 8.87805C1.59216 8.92683 1.48235 9.02439 1.37255 9.12195C1.26275 9.21951 1.15294 9.31707 1.15294 9.31707C1.15294 9.31707 1.15294 9.31707 1.09804 9.36585C1.09804 9.41463 1.04314 9.41463 1.04314 9.41463C1.04314 9.41463 1.04314 9.41463 0.988235 9.46341L0.933333 9.5122V9.56098V9.60976V9.65854V9.70732C0.933333 9.7561 0.988235 9.85366 1.04314 9.90244C1.09804 9.95122 1.15294 9.95122 1.26274 9.95122H1.31765C1.59216 9.90244 1.86667 9.85366 2.19608 9.80488C3.18431 9.56098 4.39216 9.21951 5.27059 8.68293C5.87451 8.78049 6.42353 8.82927 7.02745 8.82927C8.23529 8.87805 9.38824 8.68293 10.5412 8.29268Z" fill="white"/>
</svg>
