<svg xmlns="http://www.w3.org/2000/svg" width="18" height="11" viewBox="0 0 18 11" version="1.1"><path d="" stroke="none" fill="#40b484" fill-rule="evenodd"/><path d="M 10.764 3.703 L 7.061 7.406 4.716 5.203 C 1.977 2.630, -0 2.355, 0 4.548 C 0 6.357, 4.878 10.922, 6.861 10.968 C 7.610 10.986, 10.422 9.158, 13.111 6.907 C 16.894 3.740, 18 3.212, 18 4.574 C 18 5.541, 18.279 6.054, 18.620 5.713 C 18.961 5.372, 18.953 3.947, 18.601 2.547 C 17.701 -1.040, 15.126 -0.660, 10.764 3.703 M 0.158 5 C 0.158 6.375, 0.385 6.938, 0.662 6.250 C 0.940 5.563, 0.940 4.438, 0.662 3.750 C 0.385 3.063, 0.158 3.625, 0.158 5" stroke="none" fill="#3cb484" fill-rule="evenodd"/></svg>