<svg width="23" height="23" viewBox="0 0 23 23" fill="none" xmlns="http://www.w3.org/2000/svg">
    <path d="M11.493 0C5.152 0 0 5.152 0 11.493c0 6.355 5.152 11.493 11.493 11.493 6.355 0 11.493-5.152 11.493-11.493C23 5.152 17.848 0 11.493 0zm4.592 10.92c-.098.111-.21.209-.322.321l-1.344 1.33a1176.946 1176.946 0 0 0-4.172 4.144.913.913 0 0 1-.434.252c-1.022.294-2.044.602-3.066.895l-1.105.322c-.084.028-.154.028-.224.028a.635.635 0 0 1-.462-.196c-.182-.182-.238-.42-.168-.685l.252-.868c.308-1.064.63-2.128.937-3.206.07-.238.182-.42.35-.588C7.98 11.045 9.631 9.42 11.27 7.797l.784-.784c.042-.042.098-.098.14-.154l.168-.182.938.938-.252.252c-.112.112-.224.224-.35.336-1.792 1.792-3.584 3.57-5.362 5.362-.014.014-.028.042-.042.056-.238.798-.462 1.582-.7 2.38l.378.378c.266-.07.532-.154.798-.238.448-.126.882-.266 1.33-.378a.819.819 0 0 0 .336-.196l4.2-4.2 1.218-1.218.266-.266.21-.224.994.994-.238.266zM13.677 8.02l1.176 1.176-6.272 6.314-.112-.7-.042-.28-.546-.126-.168-.042c-.014 0-.042-.014-.042-.014l-.224-.07 6.23-6.258zm3.024 2.226-3.962-3.976 1.036-.98 3.961 3.976-1.035.98zm2.365-2.94-.014.042c0 .028-.014.056-.014.084-.042.238-.14.434-.28.574-.154.168-.308.322-.448.476l-.196.196-.098.098-3.821-3.835.098-.098.21-.21c.168-.168.322-.336.518-.476.546-.406 1.302-.35 1.805.154.35.35.7.686 1.036 1.036l.546.545c.07.07.14.14.21.196.238.238.378.504.42.826l.014.07.014.322z" fill="#ffa84b"/>
</svg>
