<svg width="23" height="23" viewBox="0 0 23 23" fill="none" xmlns="http://www.w3.org/2000/svg">
    <path d="M14.363 16.616a7.831 7.831 0 0 0 1.666-1.665c-.56.126-.924.252-1.134.462-.224.21-.378.602-.532 1.203zM15.3 6.117H7.784c-.574 0-.84.28-.84.854v9.03c0 .588.266.868.826.868 1.54.014 3.094.014 4.774 0 .56 0 .84-.266.868-.84.07-1.134.854-1.932 2.002-2.016.616-.042.826-.28.826-.896V7.04c.014-.686-.238-.924-.938-.924zM8.624 8.54c.14-.14.336-.21.616-.21h4.746c.266 0 .476.07.616.21.084.084.182.238.168.504-.014.238-.126.63-.784.63H9.21c-.686 0-.77-.448-.77-.644 0-.252.098-.406.182-.49zm4.536 5.208c-.182.182-.42.196-.588.196H9.225c-.686 0-.77-.448-.784-.644a.617.617 0 0 1 .168-.49c.14-.14.35-.21.616-.21h3.332c.56 0 .77.35.77.672a.582.582 0 0 1-.168.476zm1.428-2.142c-.182.182-.42.196-.63.196H9.239c-.196 0-.448-.028-.616-.196a.582.582 0 0 1-.168-.476c0-.196.084-.672.812-.672h4.704c.742 0 .798.518.798.686 0 .238-.098.392-.182.462z" fill="#ffa84b"/>
    <path d="M11.493 0C5.152 0 0 5.152 0 11.493c0 6.355 5.152 11.493 11.493 11.493 6.355 0 11.493-5.152 11.493-11.493C23 5.152 17.848 0 11.493 0zm6.117 13.215c-.014 2.436-1.553 4.367-3.92 4.9-.321.07-.671.111-1.05.111-.825 0-1.651.014-2.477.014H7.811c-1.344 0-2.225-.867-2.24-2.211V7.055c0-1.441.868-2.295 2.31-2.295h7.406c1.441 0 2.31.854 2.31 2.295v1.008c.027 1.68.027 3.43.013 5.152z" fill="#ffa84b"/>
</svg>
