<svg width="15" height="14" viewBox="0 0 15 14" fill="none" xmlns="http://www.w3.org/2000/svg">
<path d="M2.64611 13.4276C2.70005 13.1103 2.75615 12.7866 2.81224 12.4608C3.00859 11.3459 3.20494 10.2331 3.40344 9.11818C3.42286 9.00817 3.39266 8.93835 3.31282 8.86219C2.28362 7.88691 1.25873 6.90951 0.231685 5.9321C0.113014 5.81786 0.0202349 5.69516 0.00297367 5.52803C-0.0272335 5.23396 0.175586 4.97163 0.479816 4.9272C1.37309 4.79603 2.26636 4.67122 3.15963 4.54428C3.73141 4.46389 4.30103 4.38773 4.87065 4.29887C4.93322 4.28829 5.00658 4.22271 5.03679 4.16347C5.66898 2.92374 6.29471 1.68189 6.92258 0.440042C6.942 0.399846 6.96358 0.361765 6.983 0.321569C7.09088 0.116357 7.26134 0 7.49868 0C7.73602 0 7.90863 0.114242 8.01436 0.321569C8.31643 0.916049 8.61635 1.51053 8.91626 2.10501C9.26364 2.79257 9.61318 3.47802 9.9541 4.16771C10.0037 4.26502 10.0663 4.29887 10.1699 4.31368C11.6047 4.51466 13.0374 4.72199 14.4722 4.92297C14.7182 4.95682 14.893 5.07741 14.9707 5.31224C15.0483 5.54918 14.9663 5.74382 14.7894 5.91306C13.7559 6.89681 12.7245 7.88268 11.6867 8.86431C11.5982 8.94682 11.5788 9.02298 11.5982 9.1351C11.8464 10.5293 12.0923 11.9256 12.3383 13.3197C12.3793 13.5524 12.3146 13.7534 12.1139 13.8931C11.9089 14.0348 11.6953 14.0285 11.4752 13.9163C10.1979 13.2584 8.91626 12.6025 7.64108 11.9425C7.53752 11.8896 7.45768 11.8875 7.35412 11.9425C6.07678 12.6025 4.79729 13.2605 3.5178 13.9142C3.151 14.1025 2.76262 13.9502 2.66337 13.5842C2.65905 13.5355 2.65474 13.4847 2.64611 13.4276Z" fill="#f56c22"/>
</svg>
