<svg xmlns="http://www.w3.org/2000/svg" viewBox="-65 157 480 480" style="enable-background:new -65 157 480 480" xml:space="preserve" fill="none">
    <path d="M45.8 242H-5.8c-7.1 0-12.9 5.8-12.9 12.9v51.7c0 7.1 5.8 12.9 12.9 12.9s12.9-5.8 12.9-12.9v-38.8h38.8c7.1 0 12.9-5.8 12.9-12.9 0-7.1-5.8-12.9-13-12.9zM355.8 474.5c-7.1 0-12.9 5.8-12.9 12.9v38.8h-38.8c-7.1 0-12.9 5.8-12.9 12.9s5.8 12.9 13 12.9h51.7c7.1 0 12.9-5.8 12.9-12.9v-51.7c0-7.1-5.8-12.9-13-12.9zM355.8 242h-51.7c-7.1 0-12.9 5.8-12.9 12.9 0 7.1 5.8 12.9 12.9 12.9h38.8v38.8c0 7.1 5.8 12.9 12.9 12.9s12.9-5.8 12.9-12.9v-51.7c.1-7.1-5.7-12.9-12.9-12.9zM45.8 526.2H7.1v-38.8c0-7.1-5.8-12.9-12.9-12.9s-12.9 5.8-12.9 12.9v51.7c0 7.1 5.8 12.9 12.9 12.9h51.7c7.1 0 12.9-5.8 12.9-12.9s-5.8-12.9-13-12.9zM32.9 293.7h25.8v206.7H32.9zM84.6 293.7h25.8v155H84.6zM136.3 293.7h25.8v155h-25.8zM187.9 293.7h25.8v206.7h-25.8zM239.6 293.7h25.8v155h-25.8zM291.3 293.7h25.8v206.7h-25.8zM84.6 474.5h25.8v25.8H84.6zM136.3 474.5h25.8v25.8h-25.8zM239.6 474.5h25.8v25.8h-25.8z" style="stroke:#ffffff;stroke-width:5;stroke-miterlimit:10" fill="#ffffff"/>
</svg>
