<svg width="17" height="16" viewBox="0 0 17 16" fill="none" xmlns="http://www.w3.org/2000/svg">
    <path fill-rule="evenodd" clip-rule="evenodd" d="M0 7.517V6.233c.113-.295.335-.398.658-.362.166.017.339.003.508 0 .282-.007.406-.107.474-.366l.03-.124c.06-.245 0-.376-.233-.504l-.56-.298c-.268-.146-.324-.327-.2-.593.147-.309.32-.6.5-.887.222-.355.414-.423.76-.298.18.099.357.202.538.298.35.188.884-.086.914-.472.011-.139-.117-.224-.15-.345l-.091-.156c-.064-.106-.128-.213-.196-.323-.052-.113-.045-.234-.037-.351a.545.545 0 0 1 .192-.217c.353-.216.71-.426 1.098-.589.282-.12.417-.092.62.131.128.213.249.433.38.643.098.152.249.206.437.167.079-.015.154-.029.233-.046.214-.054.323-.189.33-.409V.458c.03-.295.185-.433.505-.447.421-.018.846-.01 1.267 0 .245.06.391.202.41.447V1.132c-.004.213.068.316.275.387.082.029.173.046.26.068.206.046.368-.011.473-.181.128-.206.248-.416.372-.625.004-.01.012-.021.016-.032.09-.078.176-.16.308-.17.15-.015.27.064.406.103.094.053.184.124.305.127.128.118.29.181.444.26l.101.063c.403.33.418.38.26.735-.05.057-.102.114-.087.195-.135.114-.207.263-.27.416a.272.272 0 0 0 .03.323c.026.088.105.134.172.191a.363.363 0 0 0 .234.163c.15.057.29.05.413-.056.05-.025.098-.054.15-.075.245-.1.445-.298.734-.294l.102.031a.757.757 0 0 1 .244.224c.038.057.08.11.117.167a.728.728 0 0 0 .146.223c.012.022.027.043.038.06.06.122.117.242.203.352l.023.04.124.287c.03.216-.064.369-.267.468-.177.085-.35.178-.52.27-.289.156-.334.277-.236.632.075.273.21.376.523.38.188.003.372.01.56-.004.278-.018.455.089.542.334.022.323.052.65.026.976-.019.23.015.475-.196.656a.51.51 0 0 1-.29.075 21.761 21.761 0 0 0-.68 0c-.192.003-.361.053-.436.241-.05.12-.083.241-.094.373-.015.156.052.273.191.348.207.11.414.216.625.326.026.032.056.057.105.06.068.057.09.146.17.192.026.153-.057.28-.102.415-.068.128-.136.256-.207.384-.06.042-.056.131-.135.163-.828-.752-1.633-1.526-2.445-2.293-.087-.081-.12-.149-.079-.266.045-.124.09-.256.079-.39.022-.018.026-.04.022-.064l.012-.164c.045-.07.03-.149.022-.223v-.16c.004-.089.023-.177-.022-.259a1.53 1.53 0 0 0-.102-.579.269.269 0 0 0-.041-.16c-.064-.276-.2-.528-.346-.77l-.023-.028-.022-.028c-.008-.029-.015-.057-.045-.071a.946.946 0 0 0-.18-.256.397.397 0 0 0-.121-.138.662.662 0 0 0-.207-.22.298.298 0 0 0-.117-.107.679.679 0 0 0-.222-.184.309.309 0 0 0-.146-.107c-.008-.007-.02-.014-.027-.021-.01-.007-.022-.018-.034-.025a12.737 12.737 0 0 1-.233-.138c-.049-.029-.094-.057-.143-.082-.255-.131-.519-.255-.812-.302-.064-.039-.135-.046-.207-.056-.158-.032-.312-.075-.474-.064-.022 0-.045 0-.067-.004a2.297 2.297 0 0 0-.644.004c-.139 0-.274.017-.41.057a.885.885 0 0 0-.304.07c-.369.093-.711.235-1.02.444-.022.014-.045.025-.067.04a3.534 3.534 0 0 0-1.02.954c-.01.018-.026.039-.037.057a2.588 2.588 0 0 0-.474.969l-.022.032c-.034.095-.068.188-.076.29a1.663 1.663 0 0 0-.06.384 7.517 7.517 0 0 0-.007.291c0 .163-.027.327.026.483.007.064-.015.131.03.191l.011.093.068.255c.056.238.15.462.275.675.064.127.127.252.225.358 0 .01.008.018.015.025a2 2 0 0 0 .26.323c.022.025.045.046.067.07.305.338.662.611 1.087.803.094.057.188.117.305.124a.726.726 0 0 0 .339.128c.131.05.267.089.41.096.12.042.248.05.376.057.112.003.225.007.338.007.045.028.094.025.14 0 .056 0 .112-.004.169-.004l.067-.003c.034-.004.072-.004.106-.008.026.008.048 0 .071-.017.056-.004.11-.01.165-.015.027.008.05 0 .072-.02a.901.901 0 0 0 .305-.068c.161-.029.21.128.323.18.03.033.056.065.09.097.707.67 1.415 1.341 2.13 2.005.112.106.108.16-.027.224a.255.255 0 0 0-.042.024 1.727 1.727 0 0 0-.338.164c-.132.05-.256.117-.406.113-.11-.01-.192-.078-.275-.135l-.068-.099c-.112-.195-.225-.394-.346-.586-.109-.17-.27-.23-.477-.188-.068.014-.132.025-.2.043-.225.057-.338.195-.342.419v.624c-.004.302-.158.472-.481.487-.403.014-.805.017-1.204 0-.35-.015-.485-.174-.485-.508v-.625a.377.377 0 0 0-.27-.369 2.012 2.012 0 0 0-.264-.064c-.252-.053-.391.008-.52.224-.108.181-.213.365-.319.547-.131.22-.338.287-.59.188l-.173-.064c-.275-.146-.55-.295-.82-.44-.045-.032-.09-.06-.132-.093a.852.852 0 0 1-.2-.198c-.01-.043-.025-.082-.037-.125.023-.28.245-.482.346-.73.068-.079.132-.157.132-.263a.327.327 0 0 0-.128-.359c-.075-.082-.147-.163-.244-.22-.102-.085-.219-.078-.339-.053-.248.106-.489.23-.715.373-.109.032-.214.078-.334.06a.543.543 0 0 1-.327-.252c-.057-.089-.125-.174-.189-.26-.124-.22-.255-.44-.376-.66-.161-.294-.139-.425.11-.649a.035.035 0 0 0 .026-.01c.214-.114.436-.22.647-.341.15-.085.225-.224.199-.39a1.848 1.848 0 0 0-.094-.32.331.331 0 0 0-.278-.224c-.038-.032-.083-.028-.128-.028-.271 0-.546 0-.816.003C.147 7.87.068 7.695 0 7.517z" fill="#999"/>
    <path fill-rule="evenodd" clip-rule="evenodd" d="M7.764 9.207c-.108.033-.215.07-.32.102l-.056.02c-.015.003-.026.003-.04.007-.025.006-.046.013-.072.016-.007.003-.017.003-.025.007l-.096.006-.359.01a3.823 3.823 0 0 0-.193-.016.195.195 0 0 0-.129-.027l-.29-.092-.366-.195-.01-.006c-.122-.093-.244-.188-.366-.284a2.72 2.72 0 0 1-.458-.653 3.7 3.7 0 0 1-.233-.713.375.375 0 0 0-.029-.178c0-.099.004-.195.004-.293.04-.231.097-.456.211-.664.057-.089.118-.174.176-.263.064 0 .132-.01.168.056.029.04.061.079.09.118.057.08.11.159.168.238.022.046.047.089.09.122.039.086.096.165.164.237a.14.14 0 0 0 .065.09c.068.105.125.217.2.313.1.129.23.23.412.25.04.027.083.034.13.027.347.026.633-.112.902-.294.133-.062.24-.155.333-.263a.674.674 0 0 0 .212-.334.514.514 0 0 0-.054-.438c.004-.03-.01-.05-.036-.066l-.193-.297-.097-.149a1.243 1.243 0 0 0-.186-.264.088.088 0 0 0-.04-.066l-.2-.303c-.09-.132-.068-.178.1-.208.39-.072.777-.089 1.153.056.015.007.033.004.047.007.065.03.129.063.19.092.2.116.383.258.552.416l.09.092.146.205.186.36c.025.088.054.177.08.266.017.08.031.159.05.241l.003.06v.267c0 .03-.004.056-.004.086l-.007.006c0 .007.004.013.004.02A.435.435 0 0 0 9.816 7c-.014.06-.025.119-.039.178-.004.003-.007.01-.007.013-.18.268-.14.492.147.683.107.07.19.172.286.257.033.03.061.06.093.086.069.08.14.152.226.211.022.04.054.07.097.09.161.168.333.33.516.478.025.04.053.069.1.092.065.08.14.145.226.205.032.03.064.059.096.092.065.082.144.145.23.205a.417.417 0 0 0 .129.115l.863.782c.036.046.068.092.136.085.136.02.237-.065.355-.098a2.34 2.34 0 0 1 1.003-.05l.29.09c.512.217.9.557 1.168 1.012.143.3.261.607.319.933.025.4-.025.779-.258 1.129-.033.046-.061.095-.104.132-.068.062-.136.075-.197-.017-.054-.082-.122-.162-.183-.244.004-.01-.003-.02-.01-.023-.158-.228-.32-.455-.477-.683-.057-.092-.09-.198-.208-.244-.104-.145-.272-.158-.433-.181a.255.255 0 0 0-.197.006c-.462.06-.806.297-1.097.61-.128.139-.197.304-.16.492.017.247.186.429.322.623.09.139.175.28.272.413.06.085.097.194.2.25.133.264.08.264-.247.31-.118.01-.24.017-.358.027-.097-.003-.19-.01-.286-.013a2.516 2.516 0 0 1-.713-.27c-.043-.044-.086-.087-.158-.087a.628.628 0 0 0-.193-.188c-.036-.036-.072-.072-.104-.108-.05-.063-.104-.126-.154-.189-.076-.062-.086-.155-.136-.23a.215.215 0 0 0-.061-.12 19.029 19.029 0 0 0-.133-.415 2.064 2.064 0 0 1 .061-.924c.05-.105.118-.204.1-.326.004-.063-.046-.092-.093-.122a.241.241 0 0 0-.097-.09.212.212 0 0 0-.093-.088 2.202 2.202 0 0 0-.293-.27c-.022-.02-.043-.04-.065-.057a1.99 1.99 0 0 0-.294-.27 74.394 74.394 0 0 0-1.877-1.726.569.569 0 0 0-.165-.148c-.007-.03-.036-.026-.06-.03-.065-.052-.094-.135-.173-.175-.007-.006-.017-.01-.025-.016a.118.118 0 0 0-.1-.003c-.014 0-.025.006-.04.013z" fill="#999"/>
</svg>
