<svg width="16" height="16" viewBox="0 0 16 16" fill="none" xmlns="http://www.w3.org/2000/svg">
    <g clip-path="url(#3tcut26jra)" fill="#fff">
        <path d="M0 8.391V7.61l.048-.475c.11-1.05.421-2.04.93-2.963A7.982 7.982 0 0 1 4.343.887a7.804 7.804 0 0 1 2.79-.839L7.608 0h.782c.105.01.212.023.317.032a7.738 7.738 0 0 1 2.654.71 7.94 7.94 0 0 1 3.23 2.734 7.83 7.83 0 0 1 1.358 3.658c.018.158.032.317.05.477v.782c-.005.032-.014.064-.016.096a7.563 7.563 0 0 1-.348 1.899c-.637 1.96-1.842 3.472-3.615 4.524a7.692 7.692 0 0 1-3.155 1.04c-.158.016-.317.032-.477.05h-.764c-.167-.016-.336-.032-.503-.05a7.856 7.856 0 0 1-3.307-1.134 7.953 7.953 0 0 1-2.738-2.81A7.869 7.869 0 0 1 .05 8.876C.032 8.715.016 8.553 0 8.39zm14.631-.297c.055-3.637-2.848-6.63-6.45-6.723-3.744-.1-6.775 2.903-6.812 6.549-.037 3.67 2.9 6.676 6.562 6.711 3.651.037 6.665-2.903 6.7-6.537z"/>
        <path d="M8.004 8V4.044c0-.318.177-.545.467-.604a.561.561 0 0 1 .669.5c.012.206.007.414.007.622v3.954c0 .33-.171.558-.463.615a.72.72 0 0 1-.124.01H5.173c-.24 0-.425-.1-.537-.314A.567.567 0 0 1 5.154 8c.652-.004 1.303-.002 1.955-.002.294.002.587.002.895.002z"/>
    </g>
    <defs>
        <clipPath id="3tcut26jra">
            <path fill="#fff" d="M0 0h16v16H0z"/>
        </clipPath>
    </defs>
</svg>
