<svg width="20" height="20" viewBox="0 0 20 20" fill="none" xmlns="http://www.w3.org/2000/svg">
<path d="M16.1633 12.9447C16.3235 13.1365 16.4978 13.3002 16.6109 13.4967C16.9407 14.0675 16.7522 14.6663 16.1491 14.961C15.9465 15.0593 15.7251 15.1201 15.5084 15.1669C15.2963 15.2137 15.0796 15.2183 14.8393 15.2464C14.9712 15.34 15.0937 15.4148 15.2021 15.5084C15.6497 15.9061 15.5884 16.4207 15.056 16.692C14.4953 16.9774 13.8875 16.9961 13.2892 16.9072C12.2479 16.7575 11.2066 16.5704 10.17 16.3926C9.33605 16.2523 8.48795 16.1587 7.67754 15.9388C7.06974 15.7751 6.47607 15.6207 5.83057 15.6955C5.83057 13.3891 5.83057 11.1295 5.83057 8.85109C5.92951 8.83705 6.01903 8.82302 6.11327 8.81366C6.65982 8.76688 7.14984 8.56571 7.5786 8.2429C8.5068 7.53647 9.42086 6.81132 10.3396 6.09553C10.3868 6.05811 10.4339 6.02068 10.481 5.97857C11.0652 5.4546 11.4799 5.30489 12.4599 5.82419C12.9358 6.07682 13.3174 6.43705 13.5624 6.93296C13.6331 7.07799 13.8074 7.21834 13.9629 7.2698C14.2927 7.37273 14.6367 7.44758 14.9854 7.47097C15.5696 7.51308 16.1586 7.55986 16.7381 7.51775C17.5202 7.46161 18.2129 8.25694 17.9066 9.1739C17.7558 9.61834 17.4543 9.92711 17.0349 10.1283C16.9171 10.1844 16.7946 10.2265 16.6344 10.292C17.3459 10.6055 17.638 11.1295 17.4731 11.8593C17.3129 12.533 16.8182 12.8464 16.1633 12.9447Z" fill="#999"/>
<path d="M17.233 0.421665C17.9492 0.847396 18.4156 1.42751 18.6653 2.18073C19.2543 3.96786 18.1565 5.84857 16.2859 6.22751C16.0174 6.28365 15.8666 6.37722 15.8383 6.64857C15.8289 6.73278 15.7912 6.81231 15.7535 6.92927C15.2918 6.88248 14.83 6.84974 14.3777 6.77488C14.2505 6.75617 14.128 6.6205 14.0291 6.51289C13.9207 6.39126 13.85 6.23687 13.7464 6.11055C13.6427 5.98424 13.5532 5.88131 13.6191 5.69886C13.638 5.64272 13.539 5.52576 13.4684 5.46026C11.8099 3.89769 12.2716 1.17956 14.3636 0.267279C14.7735 0.0895014 15.2023 -0.00874418 15.697 0.000612548C15.4049 1.05792 15.1175 2.08716 14.8206 3.14447C15.3248 3.28482 15.8148 3.4205 16.3472 3.5702C16.644 2.52225 16.9362 1.48833 17.233 0.421665Z" fill="#999"/>
<path d="M2 12.3642C2 11.2648 2 10.1654 2 9.06128C2 8.7104 2.06125 8.64491 2.4052 8.64023C3.17321 8.63555 3.94121 8.63555 4.70921 8.64023C5.02018 8.64023 5.09086 8.71508 5.09086 9.02853C5.09086 11.2648 5.09086 13.501 5.09086 15.7326C5.09086 16.0554 5.02961 16.1209 4.71393 16.1209C3.9365 16.1256 3.15907 16.1256 2.38636 16.1209C2.06125 16.1209 2.00471 16.0601 2.00471 15.7373C2 14.6192 2 13.4917 2 12.3642ZM3.54543 14.3993C3.25802 14.3993 3.01772 14.6472 3.02715 14.9373C3.03657 15.218 3.26273 15.4426 3.55014 15.4379C3.83755 15.4379 4.06371 15.2133 4.06843 14.9326C4.06843 14.6426 3.83284 14.3993 3.54543 14.3993Z" fill="#999"/>
<path d="M13.1856 18.2038C13.162 18.9851 12.6767 19.6635 11.9417 19.9067C11.2067 20.15 10.3915 19.9021 9.9298 19.2892C9.45864 18.6716 9.43979 17.8389 9.86855 17.198C9.97221 17.0436 10.0806 16.9874 10.2785 17.0249C11.136 17.1886 11.9935 17.3243 12.851 17.4833C12.9453 17.5021 13.0536 17.605 13.0913 17.6985C13.1479 17.8576 13.1573 18.0354 13.1856 18.2038ZM11.3197 18.8869C11.6731 18.8869 11.9558 18.6015 11.9464 18.2553C11.9417 17.9138 11.6401 17.6284 11.2962 17.6377C10.9617 17.6471 10.6884 17.9231 10.6884 18.26C10.6931 18.6155 10.9664 18.8869 11.3197 18.8869Z" fill="#999"/>
</svg>
