<svg xmlns="http://www.w3.org/2000/svg" width="35" height="35" fill="none" viewBox="0 0 35 35">
    <path fill="#B5BCCA" d="M24.567 20.561s0-.001 0 0c-.001-.001-.002-.003-.004-.003-.303-.165-.638-.28-.993-.339-.246-.087-.5-.176-.761-.257-.605-.186-1.233-.323-1.802-.59-1.118-.523-1.248-1.095-.75-2.216l.22-.498.023-.047c.463-.85.8-1.736.985-2.654l.017-.06c.322-1.182.362-2.419-.12-3.598C20.765 8.78 19.455 7.99 17.649 8L17.612 8l-.036.001c-1.805-.01-3.116.78-3.735 2.298-.48 1.18-.44 2.416-.119 3.598l.017.06c.185.918.522 1.806.986 2.654l.023.046.22.499c.497 1.12.367 1.692-.752 2.216-.568.267-1.196.404-1.8.59-.29.09-.6.179-.902.273-.281.055-.548.15-.799.274l-.022.008h.002C9.69 21.032 9 22.064 9 23.258V26h17.177v-2.744c.001-1.16-.65-2.17-1.61-2.695z"/>
</svg>
