<svg xmlns="http://www.w3.org/2000/svg" width="35" height="35" fill="none" viewBox="0 0 35 35">
    <path fill="#fff" stroke="#fff" stroke-miterlimit="10" stroke-width=".8" d="M11.227 21.711c-.09-.006-.15-.011-.208-.011-1.273 0-2.544-.003-3.817-.003-.718 0-1.183-.481-1.2-1.214-.056-2.757 1.674-4.796 3.73-5.462.02-.008.037-.023.084-.05-.826-.694-1.212-1.57-1.06-2.654.1-.692.43-1.263.963-1.706 1.116-.929 2.767-.782 3.727.326.905 1.046.99 2.871-.427 4.04.202.082.401.162.594.246.55.247 1.048.58 1.485 1.006.1.1.184.14.319.076.134-.065.28-.1.436-.155-1.818-1.31-1.76-3.657-.545-4.92 1.27-1.322 3.338-1.313 4.559.02 1.235 1.348 1.188 3.637-.568 4.9.143.05.275.108.413.14.055.015.143-.006.184-.047.6-.577 1.297-.984 2.102-1.263-.79-.647-1.174-1.465-1.098-2.479.053-.697.343-1.295.85-1.764 1.1-1.028 2.804-.955 3.8.135.977 1.073 1.056 2.945-.375 4.108.081.035.158.068.234.097 2.266.82 3.75 3.132 3.577 5.568-.04.588-.527 1.057-1.115 1.057-1.227.003-2.453.003-3.677.003h-.272c0 .349.002.689 0 1.029-.006.474-.176.885-.586 1.122-.217.13-.486.22-.732.223-3.35.012-6.698.012-10.048.009-.784 0-1.329-.56-1.326-1.357-.003-.34-.003-.674-.003-1.02zm6.33 1.662c.39.003.782.003 1.17.003 1.295 0 2.589 0 3.883-.003.345 0 .597-.211.582-.522-.032-.566-.035-1.146-.152-1.697-.898-4.202-5.963-5.907-9.149-3.082-1.37 1.216-2.011 2.769-1.97 4.62.009.484.193.68.67.68h4.966zM14.512 16.7c-.056-.046-.09-.079-.129-.105-1.259-1.023-2.676-1.354-4.224-.92-2.164.603-3.558 2.628-3.432 4.908.015.278.158.416.448.413 1.318-.003 2.635-.009 3.95-.003.175 0 .234-.061.275-.222.231-.93.653-1.759 1.253-2.5.512-.63 1.121-1.149 1.859-1.57zm6.02-.055c.131.082.236.143.342.208.111.07.222.137.328.214 1.276.923 2.122 2.16 2.532 3.698.03.114.047.202.2.202 1.3-.006 2.602-.003 3.905-.006.27-.003.413-.155.41-.428-.003-.316-.01-.642-.05-.955-.372-2.76-3.027-4.612-5.686-3.97-.735.175-1.39.506-1.982 1.037zM17.565 11c-1.318 0-2.41 1.081-2.419 2.397-.008 1.377 1.086 2.511 2.419 2.505 1.311-.003 2.406-1.116 2.403-2.444-.006-1.36-1.077-2.458-2.403-2.458zm6.034-.237c-1.116 0-1.974.867-1.974 1.99 0 1.116.873 2 1.973 1.998 1.052-.003 1.936-.917 1.939-1.999 0-1.087-.879-1.99-1.939-1.99zm-12.194 0c-1.069-.006-1.965.876-1.968 1.934 0 1.134.873 2.057 1.95 2.057 1.069 0 1.953-.888 1.962-1.97.008-1.128-.846-2.018-1.944-2.021z"/>
</svg>
