<svg xmlns="http://www.w3.org/2000/svg" width="35" height="35" fill="none" viewBox="0 0 35 35">
    <path fill="#B5BCCA" d="M7 17.399v-.391c.095-.26.246-.476.454-.665 2.923-2.661 5.844-5.327 8.765-7.99.091-.082.19-.162.296-.22.433-.24.857-.153 1.295.246 2.862 2.612 5.724 5.224 8.59 7.833.253.229.492.46.6.796v.39c-.124.202-.222.427-.378.599-.193.214-.477.248-.758.248-.434-.002-.869 0-1.325 0V26.333c0 .475-.217.693-.69.693-1.569.002-3.137.002-4.706 0-.484 0-.698-.217-.698-.706v-4.614-.227h-2.89v4.822c0 .515-.207.725-.717.727h-4.649c-.526 0-.73-.205-.73-.733v-7.8-.25c-.462 0-.902-.002-1.343 0-.381 0-.707-.117-.926-.445-.08-.122-.128-.267-.19-.401z"/>
</svg>
