<svg xmlns="http://www.w3.org/2000/svg" width="35" height="35" fill="none" viewBox="0 0 35 35">
    <path fill="#fff" fill-rule="evenodd" d="M17.046 9.001c2.47 0 4.94-.003 7.411.001 1.61.003 2.538.934 2.54 2.548.004 4.015.004 8.03 0 12.046 0 1.583-.927 2.538-2.5 2.542-4.993.008-9.986.008-14.979 0-1.574-.003-2.516-.964-2.516-2.532-.003-4.033-.003-8.066 0-12.099 0-1.546.942-2.5 2.477-2.504 2.522-.006 5.045-.002 7.567-.002zm-.049 1.184h-7.36c-1.037.001-1.409.36-1.409 1.38-.003 3.998-.003 7.998 0 11.997.001.96.381 1.335 1.345 1.335 4.96.002 9.918.002 14.878 0 .936 0 1.339-.403 1.34-1.352.004-4 .004-7.998 0-11.998-.001-.973-.4-1.362-1.381-1.362h-7.413z" clip-rule="evenodd"/>
    <path fill="#fff" fill-rule="evenodd" d="M17.02 16.454c1.979 0 3.958-.002 5.936.001.88.002 1.15.28 1.153 1.174.003 1.577.004 3.154-.001 4.731-.002.848-.296 1.146-1.136 1.147-3.974.003-7.949.003-11.924 0-.859 0-1.136-.279-1.139-1.132-.004-1.612-.004-3.225 0-4.837.003-.797.281-1.08 1.07-1.083 2.014-.004 4.028 0 6.041 0zM19.192 12.923c-1.33 0-2.66.002-3.99-.001-.577-.001-.888-.23-.9-.649-.01-.44.313-.695.918-.696 2.66-.003 5.32-.003 7.98 0 .577.001.888.239.9.661.013.436-.313.684-.918.685h-3.99zM9.908 13.382c-.057-1.659.11-1.806 1.753-1.778 1.653.029 1.72.072 1.72 1.718 0 .298.013.597-.007.894-.04.586-.358.89-.947.902-.508.012-1.016.009-1.524.001-.684-.01-.98-.31-.993-1.001-.005-.245 0-.49-.002-.736zM17.25 15.121c-.717 0-1.434-.004-2.152.002-.454.005-.746-.194-.791-.656-.04-.404.296-.696.802-.699 1.417-.008 2.834-.007 4.25 0 .529.003.816.258.815.684-.002.42-.292.664-.824.668-.7.006-1.399.001-2.1.001z" clip-rule="evenodd"/>
</svg>
