<svg xmlns="http://www.w3.org/2000/svg" width="35" height="35" fill="none" viewBox="0 0 35 35">
    <path fill="#B5BCCA" d="M17.528 17.362c0 1.291-1.045 2.337-2.335 2.337s-2.335-1.046-2.335-2.337c0-1.291 1.045-2.337 2.335-2.337s2.335 1.046 2.335 2.337zM17.528 10.337c0 1.291-1.045 2.337-2.335 2.337s-2.335-1.046-2.335-2.337c0-1.29 1.045-2.337 2.335-2.337s2.335 1.046 2.335 2.337zM18.914 25.322v-2.808c0-1.451-1.175-2.627-2.625-2.627H14.1c-1.45 0-2.625 1.176-2.625 2.627v2.808s3.72 2.538 7.44 0z"/>
    <path fill="#B5BCCA" d="M13.023 19.412c-.406-.475-.642-1-.74-1.648-.21-.054-.24-.118-.467-.118H9.625C8.175 17.646 7 18.822 7 20.273v2.808s1.63 1.11 3.811 1.128c-.091-.335-.144-.685-.144-1.048-.001-1.705.848-3.19 2.356-3.749zM13.24 14.998c-.064-1.232-1.08-2.214-2.33-2.214-1.29 0-2.335 1.046-2.335 2.337 0 1.29 1.045 2.337 2.335 2.337.588 0 .93-.192 1.341-.55.069-.715.55-1.39.989-1.91zM17.528 19.463c.407-.475.497-1.11.594-1.756.21-.054.308-.06.535-.06h2.19c1.45 0 2.625 1.175 2.625 2.626v2.808s-1.63 1.11-3.81 1.128c.092-.335.145-.685.145-1.048 0-1.705-.77-3.137-2.279-3.698zM17.234 14.998c.064-1.232 1.08-2.214 2.33-2.214 1.29 0 2.335 1.046 2.335 2.337 0 1.29-1.046 2.337-2.335 2.337-.588 0-1.124-.218-1.533-.577-.072-.715-.358-1.364-.797-1.883z"/>
    <path fill="#B5BCCA" d="M22.015 17.085c.406-.475.416-.82.515-1.469.21-.054.428-.089.654-.089h2.191c1.45 0 2.625 1.176 2.625 2.628v2.807s-1.63 1.11-3.81 1.128c.092-.335.144-.685.144-1.047 0-1.705-.81-3.398-2.319-3.958zM21.762 12.88c.064-1.233 1.08-2.215 2.33-2.215 1.289 0 2.334 1.046 2.334 2.337 0 1.291-1.045 2.337-2.335 2.337-.588 0-1.124-.22-1.533-.578-.07-.714-.358-1.362-.796-1.881zM13.583 13.375s1.233-1.384 3.02 0c0 0 .345 1.235-1.51 1.235 0 0-1.51.15-1.51-1.108"/>
</svg>
