<svg width="16" height="16" viewBox="0 0 16 16" fill="none" xmlns="http://www.w3.org/2000/svg">
    <g clip-path="url(#re6oc4isya)">
        <path d="M7.8 15.5c-2.7 0-4.9-2.2-4.9-4.9V3.9c0-.4.3-.6.6-.6.4 0 .6.3.6.6v6.8c0 2 1.6 3.6 3.6 3.6s3.6-1.6 3.6-3.6V3.6c0-1.2-1-2.3-2.3-2.3-1.2 0-2.3 1-2.3 2.3V10c0 .5.4 1 1 1 .5 0 1-.4 1-1V3.9c0-.4.3-.6.6-.6.4 0 .6.3.6.6V10c0 1.2-1 2.3-2.3 2.3-1.3 0-2.3-1-2.3-2.3V3.6c0-2 1.6-3.6 3.6-3.6s3.6 1.6 3.6 3.6v7.1c.1 2.6-2.1 4.8-4.7 4.8z" fill="#000"/>
    </g>
    <defs>
        <clipPath id="re6oc4isya">
            <path fill="#fff" d="M0 0h15.5v15.5H0z"/>
        </clipPath>
    </defs>
</svg>
