<svg width="18" height="18" viewBox="0 0 18 18" fill="none" xmlns="http://www.w3.org/2000/svg">
    <g clip-path="url(#2y6kb159xa)">
        <path d="M18 9c0 4.91-4 9-8.91 9-5 0-9.09-4-9-9-.09-5 4-9 9-9C14 0 18 4 18 9zm-8.91 8c.183 0 .546 0 .819-.09 1.818-.183 3.364-.91 4.636-2.183.091-.09.091-.09 0-.181C13.455 12 10.727 10.454 8 10.909c-2.182.364-3.727 1.545-4.636 3.545v.182C5 16.273 6.818 17 9.09 17zm3.092-10.273A3.162 3.162 0 0 0 9 3.545C7.273 3.545 5.818 5 5.818 6.727A3.162 3.162 0 0 0 9 9.91a3.162 3.162 0 0 0 3.182-3.182z" fill="#B4B4B4"/>
    </g>
    <defs>
        <clipPath id="2y6kb159xa">
            <path fill="#fff" d="M0 0h18v18H0z"/>
        </clipPath>
    </defs>
</svg>
