<svg width="19" height="16" viewBox="0 0 19 16" fill="none" xmlns="http://www.w3.org/2000/svg">
    <g clip-path="url(#l9mjihsafa)">
        <path d="M.102 16v-1.315h1.225V5.54H.003l.056-.864c.058-.807.12-1.617.178-2.423C.29 1.536.348.816.397.098.403.021.431-.006.505 0c.037.003.07 0 .108 0h17.965L19 5.534h-.785c-.093 0-.188-.009-.28-.015-.216-.015-.305.068-.308.286V14.445c.006.154.08.228.237.228.292.003.582 0 .874 0h.151v1.32C12.63 16 6.371 16 .102 16zm5.463-6.227c.021-.034.033-.05.043-.07.197-.466.4-.927.594-1.392.102-.247.268-.413.533-.459.705-.126 1.42-.206 2.134-.194.958.016 1.915.059 2.873.09.613.018 1.022.332 1.222.907.127.358.287.702.432 1.053.018.043.046.08.076.133.028-.12.047-.225.074-.327.028-.098.099-.178.2-.169.235.018.469.046.703.086.11.022.178.114.194.234a.254.254 0 0 1-.139.271.947.947 0 0 1-.326.095c-.179.016-.36.003-.542.003.17.493.668.785.702 1.342h-.151c-.514 0-1.032.004-1.546 0-.212-.002-.363.084-.446.278-.077.184-.151.372-.213.563-.068.206-.018.274.2.27.653-.008 1.309-.018 1.962-.03h.157v2.192h1.712V5.584H2.993v9.052H4.73c-.034-.72-.065-1.431-.098-2.151h.15c.678.006 1.352.018 2.03.021.218.003.277-.074.218-.283-.04-.142-.089-.28-.138-.419-.108-.31-.327-.446-.656-.44-.487.012-.976.012-1.466.016-.135 0-.175-.077-.108-.188l.299-.462c.139-.215.277-.434.428-.668-.077 0-.132.003-.185 0-.206-.015-.412-.021-.612-.055-.158-.025-.188-.086-.185-.271.003-.2.037-.262.19-.286.22-.034.444-.065.666-.077.052-.003.126.058.16.107.052.084.09.185.142.293zm9.53-7.603c-.046-.105-.074-.19-.12-.265a1.61 1.61 0 0 0-2.676-.117.533.533 0 0 1-.468.234c-1.549-.01-3.1-.012-4.65-.012a.556.556 0 0 1-.48-.24 1.646 1.646 0 0 0-2.279-.314c-.228.172-.4.39-.477.692.058.003.105.01.15.01h.848c.348 0 .622.277.61.628a.57.57 0 0 1-.598.557c-.342-.019-.687-.003-1.05-.003.03.083.05.15.083.212.573 1.028 1.983 1.139 2.688.206a.583.583 0 0 1 .511-.255c1.565.009 3.126.015 4.69.021a.49.49 0 0 1 .395.191c.067.083.135.166.218.237.551.48 1.17.563 1.835.271.389-.17.62-.48.761-.874-.33 0-.64-.01-.954.003-.21.01-.395-.025-.53-.197-.16-.203-.197-.422-.083-.665.11-.237.295-.326.55-.32.33.006.66 0 1.026 0zm-2.241 7.84c-.16-.456-.327-.899-.475-1.348-.12-.367-.274-.502-.656-.508-1.077-.019-2.155-.04-3.236-.04-.453 0-.902.034-1.355.067-.197.016-.37.077-.431.311-.043.167-.133.324-.194.484-.13.338-.259.68-.391 1.037 2.263-.003 4.502-.003 6.738-.003zm.003 4.642c-.022-.16-.056-.305-.059-.45-.003-.157-.068-.184-.212-.184-1.984.009-3.967.009-5.95.015-.379 0-.415.03-.477.403l-.003.012c-.025.173.003.204.178.204h6.523z" fill="#B4B4B4"/>
    </g>
    <defs>
        <clipPath id="l9mjihsafa">
            <path fill="#fff" d="M0 0h19v16H0z"/>
        </clipPath>
    </defs>
</svg>
