<svg width="16" height="21" viewBox="0 0 16 21" fill="none" xmlns="http://www.w3.org/2000/svg">
    <g clip-path="url(#efel8llbda)" fill="#000">
        <path d="M5.122 12.244c.612 1.903 1.11 3.83 1.745 5.707h.023c.022-.024.022-.048.045-.073.204-.585.385-1.195.59-1.78.022-.073.022-.146-.024-.195a4.015 4.015 0 0 1-.52-1.098c-.227-.707.135-1.097.656-1.22.272-.048.544-.048.794.025.43.122.748.463.612 1.073-.091.39-.25.756-.476 1.073-.114.171-.136.293-.068.488.181.512.34 1.049.52 1.585.024.05.046.122.069.171h.045c.567-1.902 1.133-3.805 1.7-5.732.159.074.272.147.385.22.997.659 2.063 1.17 3.196 1.512.883.268 1.314.903 1.473 1.83.113.682.113 1.39.068 2.073l-.068.805a.472.472 0 0 1-.25.39c-.566.341-1.155.61-1.745.854-1.042.414-2.13.682-3.24.877-1.201.196-2.425.22-3.65.171a14.902 14.902 0 0 1-5.212-1.17c-.475-.196-.929-.464-1.405-.683-.181-.098-.272-.244-.317-.464-.09-.756-.113-1.512-.09-2.268.022-.463.09-.878.294-1.293.159-.341.34-.634.657-.83a2.76 2.76 0 0 1 .725-.316c1.02-.342 2.017-.78 2.947-1.39.113-.074.249-.171.362-.244a.36.36 0 0 1 .159-.098zM4.125 5.585c-.046-.243-.091-.463-.114-.682-.113-.903-.09-1.805.272-2.659A2.95 2.95 0 0 1 5.258.951c.068-.048.113-.097.158-.122-.113-.17-.203-.341-.294-.512a1.762 1.762 0 0 1-.068-.195c-.023-.097 0-.146.09-.122l.952.073c.703.05 1.405.05 2.108-.048.793-.122 1.45.146 1.994.756.136.146.227.341.34.536.068.122.114.195.25.22.52.073.86.39 1.087.902.204.44.227.878.227 1.342a9.723 9.723 0 0 1-.181 1.634c-.023.146-.023.17.113.17.204.025.385.244.363.44 0 .365.022.731-.068 1.097-.114.39-.227.756-.363 1.146a.935.935 0 0 1-.204.317c-.068.074-.159.122-.25.074-.09-.025-.113 0-.113.097-.067.464-.226.903-.407 1.317-.476 1.098-1.292 1.805-2.403 2.025-.702.146-1.382.024-2.04-.293-.86-.439-1.404-1.17-1.722-2.098-.09-.292-.181-.585-.249-.878-.023-.097-.068-.146-.159-.146-.113 0-.181-.073-.249-.146-.181-.269-.272-.561-.363-.854-.136-.488-.249-1-.226-1.512a.84.84 0 0 1 .09-.342.35.35 0 0 1 .34-.22c.023 0 .068-.024.114-.024z"/>
    </g>
    <defs>
        <clipPath id="efel8llbda">
            <path fill="#fff" d="M0 0h16v21H0z"/>
        </clipPath>
    </defs>
</svg>
