<svg width="16" height="18" viewBox="0 0 16 18" fill="none" xmlns="http://www.w3.org/2000/svg">
    <g clip-path="url(#g1nckmucpa)">
        <path d="M8.124 13.046v1.981c0 .083-.165.166-.248.166-.166 0-.25-.083-.25-.165V12.384c0-.082.167-.082.25-.082.165 0 .248 0 .248.082v.661zM5.057 13.046v-1.982c0-.082.083-.165.249-.165.166 0 .248.083.248.165V14.945c0 .165-.082.248-.331.248-.166 0-.249-.083-.249-.248.083-.66.083-1.239.083-1.9z" fill="#B4B4B4" stroke="#B4B4B4" stroke-miterlimit="10"/>
        <path d="M13.098 17.257H2.902c-1.161 0-2.156-.99-2.156-2.147V2.89c0-1.156.995-2.147 2.156-2.147h10.196c1.161 0 2.156.991 2.156 2.147v12.22c0 1.239-.995 2.147-2.156 2.147z" stroke="#B4B4B4" stroke-width="1.6" stroke-miterlimit="10"/>
        <path d="M10.694 13.376V15.028c0 .082-.166.082-.249.082-.165 0-.248 0-.248-.082V12.798c0-.082.166-.082.248-.082.166 0 .25 0 .25.082v.578z" fill="#B4B4B4" stroke="#B4B4B4" stroke-miterlimit="10"/>
        <path d="M11.357 5.697V6.358c0 .082-.082.165-.165.165-.166.082-.25.082-.415.082-.166 0-.332.083-.414.33 0 .083 0 .083-.083.166-.083.082 0 .165 0 .247.165.166.248.33.331.496v.165l-.663.66c-.166-.165-.332-.247-.497-.412-.166-.083-.249-.165-.415-.083-.083 0-.166 0-.166.083-.083 0-.083.082-.083.165 0 .165-.082.248-.082.413 0 .165-.083.33-.332.33h-.58c-.166 0-.166-.083-.166-.165 0-.165-.083-.248-.083-.413 0-.165-.083-.33-.249-.33-.083 0-.083 0-.166-.083-.082-.082-.165 0-.165 0-.166.165-.415.248-.58.413-.084-.083-.25-.165-.332-.248l-.415-.413v-.165l.332-.33c.166-.165.249-.33.083-.578 0 0 0-.083-.083-.165 0-.083-.083-.083-.166-.083h-.415c-.165 0-.331 0-.331-.247V5.697c0-.083.083-.165.166-.165.165 0 .248-.083.414-.083.249 0 .332-.082.415-.33 0 0 0-.083.083-.083.083-.082 0-.165 0-.247-.25-.165-.332-.33-.415-.496 0-.082-.083-.082 0-.165l.58-.578c.083-.082.083-.082.166 0 .166.083.332.165.415.33.083.083.248.166.331 0 .083-.082.166-.082.249-.082.083 0 .083-.083.083-.165 0-.165.083-.33.083-.496 0-.165 0-.33.249-.33H8.539c.083 0 .166.083.166.165 0 .165.082.33.082.413 0 .165.083.33.332.33.083 0 .083 0 .166.083s.166 0 .249 0c.165-.165.331-.248.497-.33.083 0 .083-.083.166 0l.58.578c0 .082 0 .165-.083.247-.083.165-.166.33-.331.413-.083.083-.166.248 0 .33.082.083.082.166.082.248 0 .083.083.083.166.083.166 0 .332.082.498.082.083 0 .248.083.248.248zm-3.15-.826c-.663 0-1.16.578-1.16 1.156 0 .66.58 1.156 1.16 1.156.663 0 1.16-.578 1.16-1.156 0-.66-.497-1.156-1.16-1.156z" fill="#B4B4B4"/>
    </g>
    <defs>
        <clipPath id="g1nckmucpa">
            <path fill="#fff" d="M0 0h16v18H0z"/>
        </clipPath>
    </defs>
</svg>
