<svg width="17" height="13" viewBox="0 0 17 13" fill="none" xmlns="http://www.w3.org/2000/svg">
    <g clip-path="url(#gqieafccya)" fill="#B4B4B4">
        <path d="M17 3.448V11.779c0 .575-.335 1.078-.87 1.221H1.138A1.153 1.153 0 0 1 0 11.851V3.52c.067 0 .067 0 .067.071 2.276 1.437 4.551 2.873 6.76 4.382.401.287.803.502 1.204.79.335.215.603.215.938 0 2.074-1.365 4.216-2.73 6.29-4.166.536-.36 1.139-.718 1.674-1.077 0 0 .067 0 .067-.072z"/>
        <path d="M8.5 0h7.362C16.532 0 17 .503 17 1.221c0 .072 0 .144-.067.215-.937.647-1.874 1.221-2.811 1.868-1.807 1.22-3.681 2.37-5.488 3.591-.067.072-.134.072-.2 0C6.357 5.53 4.35 4.165 2.342 2.873 1.606 2.37.87 1.867.133 1.436 0 1.365 0 1.293 0 1.221 0 .575.469 0 1.138 0H8.5z"/>
    </g>
    <defs>
        <clipPath id="gqieafccya">
            <path fill="#fff" d="M0 0h17v13H0z"/>
        </clipPath>
    </defs>
</svg>
