<svg width="22" height="17" viewBox="0 0 22 17" fill="none" xmlns="http://www.w3.org/2000/svg">
    <path fill-rule="evenodd" clip-rule="evenodd" d="M20.995 16.049H.73v-.685c0-.084.07-.065.116-.065.413-.002.826 0 1.238 0 .45 0 .898 0 1.347.005.095 0 .124-.029.124-.125-.003-1.665-.003-3.332-.003-4.996 0-1.76 0-3.524.003-5.285v-.984c0-.039.005-.08.007-.133h5.533V1h9.074v14.301h.68c.672 0 1.341.003 2.014-.002.104 0 .14.027.136.135-.013.201-.005.4-.005.615zm-3.621-.745V1.752c-.073-.003-.14-.01-.209-.01-1.237 0-2.475.003-3.713.003-1.133 0-2.264-.003-3.397-.003-.163 0-.163 0-.163.166v2.954l-.002 3.34.002 3.374c0 1.196.003 2.392-.002 3.59 0 .111.029.145.14.145.6-.005 1.197-.005 1.796-.005.808 0 1.617.003 2.427.003h2.585c.177-.005.351-.005.536-.005zM4.344 4.56v10.564c0 .185 0 .18.185.18.818-.003 1.633-.003 2.451-.003.672 0 1.342 0 2.014.003.075 0 .112-.022.107-.103-.005-.109-.002-.217-.002-.325v-3.783L9.1 7.754c0-1.025 0-2.048.002-3.074 0-.089-.017-.127-.118-.127-1.282.002-2.563.002-3.845.002-.264.005-.521.005-.796.005z" fill="#B4B4B4" stroke="#B4B4B4" stroke-width=".2" stroke-miterlimit="10"/>
    <path fill-rule="evenodd" clip-rule="evenodd" d="M13.132 12.061v1.92c-.04.002-.073.007-.107.007-.575 0-1.148-.003-1.723.002-.1 0-.134-.026-.131-.127.005-.572.005-1.144.002-1.718 0-.07.017-.103.095-.103.611.002 1.22.002 1.832.002.005.005.012.01.032.017zM13.13 6.118v1.93c-.047.002-.086.007-.125.007-.565 0-1.13-.003-1.696.002-.104 0-.138-.029-.138-.135.005-.56.002-1.119.002-1.679 0-.072-.002-.134.102-.134.602.002 1.204.002 1.806.002.012-.002.024.003.048.007zM15.11 6.109c.286 0 .573.002.862-.002.082 0 .114.024.114.108-.003.579-.003 1.16 0 1.739 0 .081-.034.1-.11.1-.582-.002-1.165-.002-1.745 0-.087 0-.111-.03-.111-.112.002-.572.002-1.144 0-1.715 0-.099.039-.123.13-.12.287.004.574.002.86.002zM13.132 9.09v1.924c-.044.003-.085.007-.13.007-.565 0-1.13-.002-1.695.003-.105 0-.136-.03-.136-.135.005-.564.002-1.126.002-1.69 0-.078.015-.12.104-.12.602.002 1.204.002 1.806.002.01 0 .022.002.049.01zM13.13 5.083h-1.163c-.224 0-.444-.002-.668.003-.09.002-.128-.02-.128-.12.005-.56.005-1.12 0-1.682 0-.108.029-.146.143-.146.56.005 1.123.005 1.687 0 .114-.003.14.036.14.142-.005.564-.002 1.128-.002 1.693a4.396 4.396 0 0 1-.01.11zM16.073 13.99h-.126c-.566 0-1.133-.002-1.699.002-.087 0-.13-.014-.128-.115.004-.576.004-1.153.002-1.73 0-.08.031-.1.107-.1.582.002 1.165.002 1.747 0 .073 0 .11.012.11.098-.003.57 0 1.136 0 1.706l-.013.14zM16.068 11.021h-.84c-.332 0-.662-.002-.994.003-.09.002-.117-.03-.117-.118.003-.572.003-1.143 0-1.717 0-.082.024-.113.11-.113.582.002 1.164.002 1.747 0 .063 0 .109.004.109.086-.002.6-.002 1.201-.002 1.8 0 .014-.005.026-.013.06zM15.114 5.083c-.286 0-.575-.002-.861 0-.083 0-.136-.004-.133-.112.004-.57.004-1.137 0-1.706 0-.103.038-.13.135-.127.563.002 1.124.005 1.687 0 .112 0 .146.031.146.142a97.54 97.54 0 0 0 0 1.693c0 .094-.034.115-.122.113-.286-.005-.568-.003-.851-.003zM5.779 12.047h.213c.534 0 1.068.002 1.6-.003.109 0 .138.039.138.14-.005.564-.005 1.126-.005 1.69 0 .066-.007.116-.097.116-.607-.002-1.21-.002-1.818-.002-.007 0-.014-.005-.031-.01v-1.931zM5.779 8.04V6.11h.284c.51 0 1.019.002 1.529 0 .1 0 .136.029.136.127-.003.565-.003 1.13 0 1.694 0 .07-.003.125-.1.125-.6-.003-1.196-.003-1.796-.003-.017 0-.031-.007-.053-.012zM5.776 11.005V9.078h.27c.517 0 1.034.003 1.553 0 .092 0 .13.027.13.123v1.715c0 .067-.016.103-.094.103-.606-.002-1.213-.002-1.817-.002-.013 0-.02-.005-.042-.012z" fill="#B4B4B4" stroke="#B4B4B4" stroke-width=".2" stroke-miterlimit="10"/>
</svg>
