<svg width="18" height="18" viewBox="0 0 18 18" fill="none" xmlns="http://www.w3.org/2000/svg">
    <g clip-path="url(#lych0mblva)" fill-rule="evenodd" clip-rule="evenodd" fill="#B4B4B4">
        <path d="M0 8.462V7.006c.104-.347.346-.451.692-.417.173.035.346 0 .554 0 .312 0 .416-.104.52-.416 0-.035.034-.104.034-.139.07-.277 0-.416-.242-.554a5.209 5.209 0 0 1-.589-.347c-.277-.174-.346-.382-.207-.66.138-.346.346-.658.519-1.005.242-.416.45-.486.796-.347.173.139.346.243.554.347.38.208.934-.104.969-.52 0-.139-.138-.243-.173-.382-.035-.07-.07-.104-.104-.173-.07-.104-.138-.243-.208-.347-.034-.139-.034-.277-.034-.416.069-.104.138-.174.207-.243.381-.243.762-.486 1.177-.659.312-.139.45-.104.658.139l.415.728c.104.174.277.243.45.174.07 0 .174 0 .243-.035.242-.07.346-.208.346-.451V.555c.035-.347.208-.486.52-.486.45-.035.9 0 1.35 0 .276.07.415.243.45.486v.728c0 .243.068.347.276.45.104.036.173.07.277.07.208.07.38 0 .52-.208.138-.243.276-.45.38-.694V.867c.104-.104.173-.174.312-.174.173-.034.276.07.415.104.104.07.208.14.312.14.207.103.38.173.519.277.034.034.069.034.104.069.45.347.45.416.277.832-.07.07-.104.14-.104.208-.139.14-.208.313-.277.486-.07.139-.07.243.034.347.035.104.104.139.173.208.07.104.139.173.243.173.173.07.311.07.45-.069.069-.035.104-.07.173-.07.242-.103.484-.346.761-.346.035 0 .07.034.104.034a.81.81 0 0 1 .242.243c.035.07.07.139.139.174.034.104.104.173.138.242 0 .035.035.035.035.07.07.139.139.277.208.381 0 0 0 .035.034.035.035.104.104.208.139.312.034.243-.07.416-.277.52-.173.104-.38.208-.554.312-.311.174-.346.313-.242.729.069.312.207.416.553.416h.589c.277-.035.485.104.588.381.035.382.07.729.035 1.11-.035.243 0 .52-.208.729-.104.069-.207.069-.311.069h-.727c-.208 0-.38.07-.45.277-.035.14-.104.278-.104.417 0 .173.07.312.208.381.207.139.45.243.658.382.034.034.069.069.103.069.07.07.104.173.173.208.035.174-.069.312-.104.451l-.207.416c-.07.035-.07.139-.139.174-.865-.833-1.73-1.735-2.596-2.567-.104-.104-.138-.173-.069-.312.035-.139.104-.277.07-.45.034-.036.034-.036.034-.07V8.01c.034-.069.034-.173.034-.242v-.174c0-.104.035-.208-.034-.277 0-.208-.035-.451-.104-.66 0-.069 0-.138-.035-.173-.069-.312-.207-.59-.38-.867 0 0 0-.034-.035-.034 0 0 0-.035-.035-.035 0-.035 0-.07-.034-.07a.54.54 0 0 0-.208-.277.27.27 0 0 0-.138-.139c-.035-.104-.139-.173-.208-.242-.035-.035-.07-.104-.139-.104-.069-.105-.138-.174-.242-.209a.19.19 0 0 0-.173-.104s-.034 0-.034-.034l-.035-.035c-.07-.035-.173-.104-.242-.139-.035-.034-.104-.07-.139-.104-.277-.138-.554-.277-.865-.347-.07-.034-.139-.034-.208-.069-.173-.035-.346-.07-.52-.07h-.068a2.316 2.316 0 0 0-.693 0c-.138 0-.277.035-.45.07-.104 0-.207.035-.311.07-.381.103-.762.277-1.073.485-.035 0-.035.035-.07.035A3.96 3.96 0 0 0 4.292 5.34c0 .034-.034.034-.034.07a3.098 3.098 0 0 0-.52 1.074s0 .035-.034.035c-.035.104-.07.208-.07.312-.034.139-.069.278-.069.416v.312c0 .174-.034.382.035.555 0 .07 0 .14.035.208v.105c.034.104.034.208.069.277.07.277.173.52.277.763.069.139.138.277.242.416v.035c.07.139.173.243.277.347l.07.069c.31.381.692.694 1.142.902.103.07.207.139.311.139.104.104.242.104.346.138.139.07.277.104.45.104.139.035.277.07.416.07h.346a.105.105 0 0 0 .138 0h.346c.035 0 .07 0 .07-.035h.173c.034 0 .069 0 .069-.035.104 0 .208-.034.311-.07.174-.034.208.14.347.209l.103.104c.762.763 1.489 1.526 2.25 2.254.104.104.104.174-.034.243 0 0-.035 0-.035.035-.138.034-.242.104-.346.173-.138.07-.277.139-.415.139-.104 0-.208-.07-.277-.139-.035-.034-.035-.07-.07-.104-.138-.208-.242-.45-.38-.659-.104-.208-.277-.243-.52-.208-.069 0-.138.035-.207.035-.242.07-.346.208-.346.485v.694c0 .347-.173.52-.52.555-.415 0-.865.035-1.28 0-.381 0-.52-.208-.52-.555v-.694a.418.418 0 0 0-.276-.416c-.104-.034-.174-.07-.277-.07-.277-.069-.416 0-.554.244-.104.208-.243.416-.346.624-.139.243-.347.312-.623.208-.07-.035-.139-.035-.174-.07a10.882 10.882 0 0 0-.865-.485c-.035-.035-.104-.07-.138-.104l-.208-.208c0-.035-.035-.104-.035-.139.035-.312.243-.555.381-.832.07-.104.139-.174.139-.312.034-.174 0-.313-.139-.416-.07-.105-.173-.174-.277-.243-.104-.104-.242-.07-.346-.07-.277.104-.52.278-.762.416-.103.035-.242.07-.346.07a.55.55 0 0 1-.346-.278c-.07-.104-.138-.208-.208-.277 0-.173-.138-.416-.276-.659-.174-.347-.139-.486.103-.728H.9c.242-.139.45-.243.692-.382.139-.104.243-.277.208-.45a4.373 4.373 0 0 0-.104-.347.303.303 0 0 0-.311-.243c-.035-.035-.104-.035-.139-.035H.381C.173 8.843.069 8.67 0 8.463z"/>
        <path d="M8.792 10.89c-.104.035-.242.07-.346.139-.035 0-.035 0-.07.034h-.034c-.034 0-.069 0-.069.035h-.554c-.07 0-.138 0-.208-.035-.034-.034-.103-.034-.138-.034l-.312-.104a2.579 2.579 0 0 1-.415-.243c-.138-.104-.277-.243-.415-.347a3.166 3.166 0 0 1-.52-.798c-.103-.277-.207-.554-.242-.867 0-.069 0-.138-.034-.208v-.347c.034-.277.103-.554.242-.797l.208-.312c.069 0 .138 0 .173.069.034.035.069.104.103.139.07.104.139.208.174.277.034.07.069.104.103.139a.755.755 0 0 0 .173.277c0 .035.035.07.07.104.069.14.138.278.207.382.104.139.243.277.45.312.035.035.104.035.139.035.38.034.692-.139 1.004-.347.138-.07.277-.173.38-.312a.643.643 0 0 0 .243-.416c.034-.174.034-.382-.07-.52 0-.035 0-.07-.034-.07-.07-.104-.139-.243-.208-.347-.034-.07-.069-.104-.104-.173-.069-.104-.103-.208-.207-.312 0-.035 0-.07-.035-.07-.07-.138-.138-.242-.208-.381-.103-.174-.069-.208.104-.243.416-.07.866-.104 1.281.07h.07l.207.103c.242.14.415.313.623.486l.104.104c.07.07.104.173.173.243.07.139.138.277.208.45l.104.313c.034.104.034.208.069.277v.52c0 .035 0 .07-.035.07 0 .07-.035.139-.035.208-.207.312-.173.59.174.832.103.07.207.208.311.312l.104.104c.07.105.173.174.242.243l.104.104c.173.208.38.382.589.59l.103.104c.07.104.174.173.243.243l.104.104c.069.104.173.173.242.243a.27.27 0 0 0 .138.138c.312.312.658.625.97.937.034.07.069.104.138.104.138.034.277-.07.38-.104.382-.104.728-.139 1.108-.07l.312.104c.554.278 1.004.66 1.315 1.214.174.347.277.729.347 1.145.034.485-.035.936-.277 1.352-.035.07-.07.104-.104.174-.07.07-.139.104-.208-.035a1.929 1.929 0 0 0-.208-.277v-.035l-.519-.832c-.069-.104-.104-.243-.242-.313-.104-.173-.312-.208-.485-.208a.22.22 0 0 0-.207 0c-.52.07-.9.347-1.212.729a.748.748 0 0 0-.173.59c.035.311.208.52.346.762.104.174.208.347.312.486.069.104.104.243.207.312.139.312.104.312-.277.381-.138 0-.277.035-.415.035h-.312a3.175 3.175 0 0 1-.796-.312c-.034-.035-.104-.104-.173-.104-.069-.104-.138-.173-.207-.243-.035-.035-.07-.104-.104-.139-.07-.069-.104-.138-.173-.242-.07-.07-.104-.174-.139-.278 0-.07-.034-.104-.069-.139-.035-.173-.104-.346-.139-.52-.034-.381-.034-.763.07-1.11.069-.138.138-.242.104-.381 0-.07-.07-.104-.104-.139l-.104-.104-.104-.104c-.104-.104-.208-.243-.312-.312l-.069-.07c-.104-.103-.207-.242-.311-.312l-2.077-2.08a.417.417 0 0 0-.173-.174c0-.035-.035-.035-.07-.035-.069-.069-.103-.173-.173-.208 0 0-.034 0-.034-.034-.035-.035-.07-.035-.104 0l-.208.07z"/>
    </g>
    <defs>
        <clipPath id="lych0mblva">
            <path fill="#fff" d="M0 0h18v18H0z"/>
        </clipPath>
    </defs>
</svg>
