<svg width="20" height="16" viewBox="0 0 20 16" fill="none" xmlns="http://www.w3.org/2000/svg">
    <path d="M10.544 2.115v.15c0 .629-.002 1.257.002 1.885 0 .09-.021.124-.112.122-.292-.005-.585-.002-.877-.002-.03 0-.058-.005-.104-.01V2.13c-.944-.116-3.4.838-4.218 1.64l1.293 1.614c-.278.243-.549.482-.83.73-.433-.536-.859-1.068-1.293-1.61a8.485 8.485 0 0 0-2.171 4.075c.639.117 1.263.234 1.906.354-.062.373-.125.738-.187 1.119l-1.885-.347a8.646 8.646 0 0 0 .846 4.505c.531-.32 1.052-.632 1.58-.952l.543.982c-.23.14-.46.256-.667.41a1.683 1.683 0 0 1-1.211.342c-.31-.032-.622-.012-.934-.007-.075.002-.112-.027-.146-.095a9.498 9.498 0 0 1-.99-3.17c-.258-2.006.037-3.92.958-5.7 1.245-2.408 3.136-4.022 5.677-4.693C10.742.53 13.489 1.192 15.87 3.3c1.665 1.475 2.67 3.373 3.011 5.634a9.654 9.654 0 0 1-.948 5.93c-.046.088-.095.12-.192.12-.484-.005-.968-.002-1.452-.005a.301.301 0 0 1-.16-.04c-.365-.216-.728-.437-1.092-.657l-.075-.052c.178-.325.357-.646.54-.977l1.58.952a8.65 8.65 0 0 0 .846-4.503l-1.886.347-.19-1.117c.64-.12 1.268-.234 1.909-.354a8.464 8.464 0 0 0-2.169-4.077L14.3 6.112c-.277-.244-.548-.482-.832-.728l1.301-1.623a7.756 7.756 0 0 0-4.225-1.646z" fill="#B4B4B4" stroke="#B4B4B4" stroke-width=".5" stroke-miterlimit="10"/>
    <path d="M13.522 15H6.478v-2.334h7.044V15zM7.278 7.222c.449.341.9.682 1.35 1.021.579.44 1.159.88 1.743 1.317a.4.4 0 0 0 .168.07c.384.058.643.373.635.773-.009.356-.289.67-.633.704-.388.04-.708-.206-.792-.598a.457.457 0 0 0-.083-.178c-.771-.993-1.545-1.986-2.319-2.976-.03-.037-.057-.076-.086-.113a.05.05 0 0 1 .017-.02z" fill="#B4B4B4" stroke="#B4B4B4" stroke-width=".5" stroke-miterlimit="10"/>
</svg>
