<svg width="20" height="19" viewBox="0 0 20 19" fill="none" xmlns="http://www.w3.org/2000/svg">
    <g clip-path="url(#911qlop2aa)">
        <mask id="r8qzr21zrb" style="mask-type:luminance" maskUnits="userSpaceOnUse" x="0" y="0" width="20" height="19">
            <path d="M20 0H0v19h20V0z" fill="#fff"/>
        </mask>
        <g mask="url(#r8qzr21zrb)" fill="#B4B4B4">
            <path d="M.7 1.8c.3-.1.5-.1.7-.1H13c.4 0 .6.2.6.6v3c0 .2 0 .2-.2.2h-.8c-.2 0-.2 0-.2-.2V2.9H1.6v13.4H6.2c.2 0 .2 0 .2.2l.6.9s.1.1.1.2h-6c-.5 0-.7-.2-.7-.7V2.3c.2-.1.2-.4.3-.5z"/>
            <path d="M16.7 17.7c-.4-.2-.8-.6-1.1-.8-.1-.1-.2-.1-.2 0-.4.2-.7.3-1.1.5-.1 0-.2.1-.2.2-.1.4-.2.8-.2 1.3 0 .2-.1.2-.2.2h-1.4c-.2 0-.2-.1-.2-.2-.1-.4-.2-.8-.2-1.3 0-.1-.1-.2-.2-.2-.4-.2-.8-.3-1.1-.5h-.2c-.3.2-.7.5-1 .7-.1.1-.2.1-.2 0l-1-1c-.1-.1-.1-.2 0-.2.2-.3.5-.7.7-1 .1-.1.1-.2 0-.2-.2-.4-.3-.7-.5-1.1 0-.1-.1-.1-.2-.2-.4-.1-.8-.2-1.3-.2-.2 0-.2-.1-.2-.2v-1.4c0-.2.1-.2.2-.2.4-.1.8-.2 1.3-.2.1 0 .2-.1.2-.2.2-.4.3-.7.5-1 .1-.2.1-.2 0-.3-.3-.5-.6-.8-.8-1.1-.1-.1-.1-.2 0-.2l1-1c.1-.1.2-.1.2 0 .3.2.7.5 1 .7.1.1.2.1.2 0 .4-.2.8-.3 1.1-.5.1 0 .1-.1.1-.2.2-.4.3-.9.4-1.3 0-.1.1-.2.2-.2h1.5c.2 0 .2.1.2.2 0 .4.1.8.2 1.3 0 .1.1.2.2.2.4.2.8.3 1.1.5h.2c.3-.2.7-.5 1-.7.1-.1.2-.1.2 0l1 1c.1 0 .1.1 0 .2-.2.3-.5.7-.7 1-.1.1-.1.2 0 .2.2.3.3.7.5 1.1 0 .1.1.2.2.2.4.1.8.2 1.2.2.2 0 .2.1.2.2v1.4c0 .1-.1.2-.2.2-.4.1-.8.2-1.3.2-.1 0-.2.1-.2.2-.2.4-.3.7-.5 1.1-.1.1-.1.2 0 .2.2.3.5.7.7 1 0 .1.1.2 0 .2-.2.5-.6.9-1.1 1.2zm-7.1-5c0 1.8 1.5 3.3 3.4 3.3s3.4-1.5 3.4-3.4c0-1.8-1.5-3.2-3.4-3.2s-3.4 1.5-3.4 3.3zM7.1 6.1H2.9c-.1 0-.1-.1-.1-.2v-.6c0-.3 0-.2.2-.2h8.1c.2 0 .2 0 .2.2v.6c0 .2 0 .2-.2.2h-4zM2.9 10V9l.1-.1h4.3c-.1.1-.1.1-.1.2-.2.2-.3.6-.6.8 0 .1 0 .1-.1.1H2.9zM5.6 13c0 .3.1.6.1 1H3c-.2 0-.2 0-.2-.2v-.7c0-.1 0-.2.1-.2.9 0 1.7 0 2.7.1zM.1 0c.1.1.2.1.2.2C.4.2.4.1.5.1h.1v.1C.4.3.4.4.6.6H.5S.4.6.4.5C.3.4.2.4.2.5.2.5.1.5.1.6.1.5.1.5.2.4L.3.3C.1.2.1.1.1 0 0 0 0 0 .1 0z"/>
            <path d="M12.9 14.5c1 0 1.8-.8 1.8-1.7 0-.9-.9-1.8-1.8-1.8s-1.8.8-1.8 1.7c0 .9.8 1.8 1.8 1.8z"/>
        </g>
    </g>
    <defs>
        <clipPath id="911qlop2aa">
            <path fill="#fff" d="M0 0h20v19H0z"/>
        </clipPath>
    </defs>
</svg>
