<svg width="17" height="17" viewBox="0 0 17 17" fill="none" xmlns="http://www.w3.org/2000/svg">
    <g clip-path="url(#2i04bg8wfa)" fill="#000">
        <path d="M0 17V5.006c0-.756.189-1.323.661-1.89.756-.944 1.417-1.888 2.172-2.833A.52.52 0 0 1 3.306 0h10.388c.19 0 .378.094.473.189.85 1.133 1.794 2.267 2.55 3.4.189.189.283.378.283.567v12.75L0 17zM15.3 5.194H1.7v9.728c0 .378.189.378.472.378h12.656c.378 0 .472-.094.472-.472V5.194zm-7.272-3.4c0-.094-.095-.094 0 0H4.06c-.094-.094-.283 0-.283 0-.378.473-.756 1.04-1.228 1.606h5.478V1.794zm.85 1.606h5.478c-.284-.472-.662-.85-.945-1.228-.189-.378-.472-.472-.944-.472H8.783l.095 1.7z"/>
        <path d="M10.956 6.895H5.95V8.5h5.006V6.895z"/>
    </g>
    <defs>
        <clipPath id="2i04bg8wfa">
            <path fill="#fff" d="M0 0h17v17H0z"/>
        </clipPath>
    </defs>
</svg>
