<svg width="16" height="16" viewBox="0 0 16 16" fill="none" xmlns="http://www.w3.org/2000/svg">
    <g clip-path="url(#fukug6f0aa)">
        <path d="M0 3.12c.05-.151.05-.352.151-.503.202-.403.404-.805.707-1.158.252-.402.656-.704 1.01-1.056.504-.503 1.11-.554 1.615-.1a64.25 64.25 0 0 1 2.624 2.615c.505.504.404 1.158-.1 1.66-.455.454-.91.906-1.363 1.36-.303.301-.303.452-.05.804a18.427 18.427 0 0 0 4.643 4.63c.353.25.504.2.807-.051l1.363-1.359c.505-.503 1.11-.553 1.615-.1a66.835 66.835 0 0 1 2.675 2.666c.152.152.202.353.253.504v.503a6.101 6.101 0 0 1-.505.704c-.303.352-.656.604-.96.956-.352.352-.756.554-1.21.705-.152.05-.303.1-.455.1h-1.06c-.05 0-.05-.05-.1-.05-.808-.252-1.616-.403-2.373-.704-2.372-1.007-4.34-2.667-6.006-4.58C1.918 9.108.808 7.447.252 5.485.152 5.032.101 4.58 0 4.176V3.12z" fill="#B4B4B4"/>
    </g>
    <defs>
        <clipPath id="fukug6f0aa">
            <path fill="#fff" d="M0 0h16v16H0z"/>
        </clipPath>
    </defs>
</svg>
