<svg width="16" height="16" viewBox="0 0 16 16" fill="none" xmlns="http://www.w3.org/2000/svg">
    <g clip-path="url(#n45gck3j9a)" fill="#000">
        <path d="M12.089 16H3.91A3.888 3.888 0 0 1 0 12.089V3.91C0 1.778 1.778 0 3.911 0h8.267C14.222 0 16 1.778 16 3.911v8.267C16 14.31 14.311 16 12.089 16zM3.91 1.689A2.2 2.2 0 0 0 1.69 3.91v8.267A2.2 2.2 0 0 0 3.91 14.4h8.267a2.2 2.2 0 0 0 2.222-2.222V3.91a2.2 2.2 0 0 0-2.222-2.222H3.91z"/>
        <path d="M11.556 5.6H4.445a.797.797 0 0 1-.8-.8c0-.444.355-.8.8-.8h7.11c.445 0 .8.356.8.8 0 .444-.355.8-.8.8zM11.556 8.8H4.445a.797.797 0 0 1-.8-.8c0-.444.355-.8.8-.8h7.11c.445 0 .8.356.8.8 0 .445-.355.8-.8.8zM8.8 12.089H4.445a.797.797 0 0 1-.8-.8c0-.445.355-.8.8-.8H8.8c.445 0 .8.355.8.8.089.444-.355.8-.8.8z"/>
    </g>
    <defs>
        <clipPath id="n45gck3j9a">
            <path fill="#fff" d="M0 0h16v16H0z"/>
        </clipPath>
    </defs>
</svg>
