<svg width="16" height="16" viewBox="0 0 16 16" fill="none" xmlns="http://www.w3.org/2000/svg">
    <g clip-path="url(#g6v6m18p9a)" fill="#B4B4B4">
        <path d="M0 16V4.711C0 4 .178 3.467.622 2.933c.711-.889 1.334-1.777 2.045-2.666A.489.489 0 0 1 3.11 0h9.778c.178 0 .355.089.444.178.8 1.066 1.69 2.133 2.4 3.2.178.178.267.355.267.533v12.001L0 16zM14.4 4.889H1.6V14.044c0 .356.178.356.444.356h11.912c.355 0 .444-.089.444-.444V4.889zm-6.844-3.2c-.09-.089 0-.089 0 0H3.822c-.089-.089-.266 0-.266 0-.356.444-.712.978-1.156 1.511h5.156V1.689zm.8 1.511h5.155c-.267-.444-.622-.8-.889-1.156-.178-.355-.444-.444-.889-.444H8.267l.089 1.6z"/>
        <path d="M10.311 6.489h-4.71v1.51h4.71V6.49z"/>
    </g>
    <defs>
        <clipPath id="g6v6m18p9a">
            <path fill="#fff" d="M0 0h16v16H0z"/>
        </clipPath>
    </defs>
</svg>
