<svg width="21" height="17" viewBox="0 0 21 17" fill="none" xmlns="http://www.w3.org/2000/svg">
    <g clip-path="url(#my7e1d2uta)" fill="#B4B4B4">
        <path d="M2.134 17a5.251 5.251 0 0 1-1.123-.56A3.054 3.054 0 0 1 0 15.1v-.112c.112 0 .112 0 .225.112.561.223 1.123.335 1.796.111.562-.223.899-.559.899-1.118.112-.56-.113-1.007-.562-1.342-.449-.336-.898-.447-1.347-.56H.56c0-.111.113-.111.113-.111.786-.895 2.021-1.119 3.144-.671.45.224.899.559 1.348.783.337.223.674.447 1.123.559h.561c2.134 0 4.268-.112 6.289-.112.45 0 .898-.224 1.235-.447.337-.224.674-.56 1.123-.783.45-.336.786-.56 1.348-.671 1.01-.224 1.797.112 2.47.783.337.335.562.67.787 1.118v.112c-.337-.112-.562-.224-.899-.224-.337-.112-.786 0-1.123.112-.561.224-.898.56-.898 1.119-.112.559.112 1.006.561 1.342.45.335.899.447 1.46.559h.337c0 .112-.112.112-.112.112-.899.894-2.022 1.23-3.257.67-.45-.223-.898-.447-1.235-.782a3.057 3.057 0 0 0-1.91-.671c-1.796 0-3.705.112-5.502.112h-.786c-.45 0-.786.111-1.123.335-.337.224-.562.448-.898.671-.225.336-.674.671-1.236.895H2.134zM21 9.954c-.225.112-.45-.112-.562-.224-.898-.67-1.796-1.006-2.92-1.118-.112 0-.224-.112-.224-.224-.112-.447-.337-.783-.45-1.23-.111-.336-.111-.56.113-.783.337-.336.674-.783 1.123-1.118.112-.112.225-.336 0-.448l-1.46-1.454c-.112-.112-.337-.112-.561 0l-.899.895c-.337.336-.561.447-.898.224-.45-.336-1.01-.56-1.572-.671-.337-.112-.45-.336-.45-.671V1.678c0-.336-.112-.448-.449-.448H9.882c-.337 0-.449.112-.449.448V3.02c0 .335-.112.559-.45.559-.56.224-1.01.335-1.571.671-.337.112-.562.112-.899-.224L5.503 3.02c-.113-.112-.337-.224-.45 0a8.958 8.958 0 0 0-1.46 1.454c-.224.112-.224.335 0 .447.113.224.337.447.562.671.112.112.337.224.45.336.224.223.224.559.111.783-.336.559-.673 1.118-.786 1.677-.112.224-.336.448-.673.448h-1.46c-.337 0-.337.111-.45.335 0 0 0 .112-.112.112-.337.112-.674.335-1.123.447C0 8.724.45 7.605 1.797 7.605h1.01c.113 0 .113 0 .225-.112.112-.335.225-.67.337-.894v-.224l-.674-.671c-.561-.671-.561-1.566 0-2.125l1.46-1.454c.561-.56 1.572-.56 2.134 0l.786.783c.112.112.112.112.224 0 .225-.112.562-.224.899-.336.112 0 .112-.111.112-.223v-.671C8.31.783 8.872.112 9.658 0h2.358c.898.224 1.348.783 1.348 1.678v.894c0 .112 0 .112.112.224.337.112.561.224.898.447h.225l.561-.559c.674-.67 1.573-.67 2.246 0 .45.448.899.895 1.46 1.342.562.56.562 1.566 0 2.125-.224.224-.449.56-.786.783-.112.112-.112.112 0 .224.112.335.225.56.337.895 0 .111.112.111.225.111h.898c.45 0 .786.112 1.01.448.225.224.338.559.45.895"/>
        <path d="M6.177 9.954c0-.448.112-.895.336-1.23.674-1.454 1.797-2.35 3.257-2.685 2.246-.447 4.604 1.007 5.166 3.244 0 .112 0 .223-.112.335-.225.112-.337.224-.562.336-.112 0-.112.112-.225.112-.112 0-.224 0-.224-.224-.337-1.342-1.123-2.237-2.358-2.572-1.348-.336-2.471 0-3.37 1.006A2.959 2.959 0 0 0 7.3 9.842l-.113.112h-1.01z"/>
    </g>
    <defs>
        <clipPath id="my7e1d2uta">
            <path fill="#fff" d="M0 0h21v17H0z"/>
        </clipPath>
    </defs>
</svg>
