<svg width="18" height="18" viewBox="0 0 18 18" fill="none" xmlns="http://www.w3.org/2000/svg">
    <g clip-path="url(#hya45m2d5a)" fill="#000">
        <path d="M8.8 8.2c-.5 0-.8-.3-1.2-.4C6.4 7.2 5.1 6.6 3.9 6 2.7 5.5 1.5 4.9.3 4.3c-.1 0-.2-.1-.3-.2l.3-.3C2.1 3 3.9 2.1 5.6 1.3 6.4.9 7.3.5 8.1.1c.4-.2.9-.1 1.3 0 2 .9 3.9 1.8 5.9 2.7.6.3 1.3.6 1.9.9 0 0 .1 0 .1.1.1.1.2.2.2.3 0 .1-.1.2-.2.3-.4.2-.8.4-1.3.6-2.2 1-4.4 2-6.5 3-.3.1-.5.1-.7.2zM2.3 12.6c.3.1.7.3 1 .4l4.5 2.1c.3.1.5.2.8.3.3 0 .6 0 .8-.1 1.2-.5 2.3-1.1 3.5-1.6.6-.3 1.2-.6 1.9-.8.3-.1.7-.1 1 0 .5.2 1 .4 1.5.7.1 0 .2.2.2.3 0 .1-.1.2-.2.2-.6.3-1.1.5-1.7.8-1.2.5-2.3 1.1-3.5 1.6-.9.4-1.8.9-2.8 1.3-.5.2-.9.1-1.4-.1-2.1-1-4.1-1.9-6.2-2.9-.5-.2-1-.5-1.5-.7 0-.2-.2-.3-.2-.4 0-.1.1-.2.2-.3.5-.2 1-.5 1.6-.7.1 0 .3 0 .5-.1z"/>
        <path d="M8.7 13c-.3-.1-.6-.2-.8-.3-1.9-.8-3.7-1.7-5.5-2.5-.7-.4-1.4-.7-2.2-1-.2-.2-.3-.4 0-.5.6-.3 1.1-.6 1.7-.8.5-.2 1 0 1.5.3 1.6.7 3.2 1.5 4.8 2.2.4.2.8.2 1.2 0 1.8-.8 3.5-1.6 5.3-2.5.4-.2.8-.2 1.2 0 .5.2.9.4 1.4.7l.3.3-.3.3c-1.6.8-3.2 1.5-4.8 2.3-1 .5-2 .9-3 1.4-.3 0-.5.1-.8.1z"/>
    </g>
    <defs>
        <clipPath id="hya45m2d5a">
            <path fill="#fff" d="M0 0h17.5v17.8H0z"/>
        </clipPath>
    </defs>
</svg>
