<svg width="16" height="18" viewBox="0 0 16 18" fill="none" xmlns="http://www.w3.org/2000/svg">
    <g clip-path="url(#qudvk7xaaa)" fill="#000">
        <path d="M10.104 1.074v.892c0 .07.004.14-.003.206-.014.202-.124.317-.292.317-.168-.004-.285-.122-.285-.324-.004-.419-.007-.837 0-1.259.003-.136-.038-.205-.165-.244C9.187.614 9.022.544 8.85.5c-.1-.025-.144-.06-.144-.171C8.703.08 8.61 0 8.362-.003c-.24 0-.48-.004-.721 0-.237.003-.326.087-.33.324 0 .104-.03.153-.137.178-.179.045-.35.118-.526.17-.12.035-.161.105-.158.234.007.411.007.826.003 1.237-.003.24-.158.384-.36.335-.175-.042-.227-.178-.227-.342V1.07c-.162.136-.295.234-.412.345a3.997 3.997 0 0 0-1.292 2.677.36.36 0 0 1-.103.199c-.096.094-.213.17-.32.258-.165.132-.182.258-.065.44.179.271.443.431.722.564.594.282 1.23.404 1.872.474 1.02.115 2.04.118 3.065.038.77-.063 1.535-.164 2.233-.523.237-.122.457-.296.639-.491.206-.216.179-.38-.062-.561-.213-.164-.316-.345-.35-.631-.135-1.095-.667-1.973-1.523-2.646-.054-.042-.11-.077-.206-.14zM4.137 7.066c.03.826.35 1.512.859 2.126.096.115.178.254.23.394.295.84.77 1.537 1.546 1.986 1.089.628 2.35.38 3.24-.623a3.94 3.94 0 0 0 .8-1.444.703.703 0 0 1 .134-.237c.492-.56.845-1.192.876-1.955.014-.293-.048-.593-.113-.882-.034-.16-.155-.22-.344-.15-.725.258-1.487.335-2.25.401-.862.073-1.728.077-2.584-.045-.646-.09-1.281-.234-1.917-.373-.158-.035-.254.007-.295.129-.08.216-.124.446-.182.673zM13.039 17.655v-.945c0-.25-.014-.501.003-.749.01-.174-.055-.209-.213-.209-1.227.007-2.453.003-3.68.003-2.034 0-4.068.004-6.101-.003-.193 0-.241.056-.234.24.014.482.01.962 0 1.444-.004.167.058.209.206.23 2.147.3 4.305.38 6.47.3a29.396 29.396 0 0 0 3.549-.31z"/>
        <path d="M4.652 14.588h6.717v-.342c0-.993-.004-1.987.003-2.984 0-.157-.052-.223-.189-.268-.151-.049-.316-.181-.447-.15-.123.028-.213.22-.316.338-.639.715-1.405 1.185-2.377 1.196-1.041.014-1.852-.481-2.515-1.262-.254-.3-.244-.29-.615-.164-.213.073-.285.174-.282.412.017 1.017.007 2.039.007 3.056.004.053.01.101.014.168zM14.182 17.484c.578-.199 1.12-.377 1.653-.575.079-.028.168-.171.165-.258-.041-1.408-.433-2.695-1.354-3.775-.388-.457-.897-.757-1.436-1-.213-.095-.423-.192-.66-.3v3c.213.015.42.011.615.046.602.108 1 .59 1.014 1.206.01.467.003.938.003 1.405v.25zM3.456 14.598V11.58c-.137.059-.257.108-.37.16-.54.247-1.073.505-1.516.92-.728.683-1.12 1.562-1.36 2.51-.114.45-.145.923-.21 1.384-.027.202.062.33.254.397.46.153.918.314 1.416.485v-.36c.01-.491-.02-.99.038-1.477.068-.576.577-.983 1.147-1 .2-.004.395 0 .601 0z"/>
    </g>
    <defs>
        <clipPath id="qudvk7xaaa">
            <path fill="#fff" transform="matrix(-1 0 0 1 16 0)" d="M0 0h16v18H0z"/>
        </clipPath>
    </defs>
</svg>
