<svg width="19" height="15" viewBox="0 0 19 15" fill="none" xmlns="http://www.w3.org/2000/svg">
    <g clip-path="url(#8sphyjkcsa)">
        <path d="M1.76 5.34c-.44-.118-.843-.235-1.21-.353S-.037 4.594 0 4.24c.037-.393.33-.59.697-.59h.844c.33-.038.623.08.843.354.037.04.11.079.147.157.257-.55.477-1.1.734-1.61.22-.432.44-.864.696-1.295.294-.59.807-.825 1.431-.943C7.336-.079 9.28 0 11.224.04c.954.04 1.87.079 2.788.314.366.079.66.275.88.629.55.824.954 1.767 1.357 2.67.074.157.11.275.184.432.036-.04.11-.079.146-.118.257-.275.55-.393.917-.393.257.04.55 0 .844 0 .367 0 .623.236.66.59a.708.708 0 0 1-.477.745c-.367.118-.77.236-1.137.354-.037 0-.073.039-.11.039l.55.707c.404.471.734.942.844 1.61.037.157.037.314.037.471v6.204c0 .471-.184.668-.624.668h-1.907c-.44 0-.624-.197-.624-.668v-.864c0-.117-.037-.196-.146-.196H3.778c-.294 0-.294 0-.294.314v.825c0 .353-.184.589-.55.589H.88c-.366 0-.55-.236-.55-.629v-6.44c0-.588.22-1.099.587-1.57.293-.275.55-.628.844-.982zm1.468-.432c4.181-.47 8.363-.47 12.58-.039a94.133 94.133 0 0 0-1.686-3.377.55.55 0 0 0-.404-.235c-.513-.079-1.063-.197-1.614-.197-1.32-.04-2.64-.078-3.924-.04-.954.04-1.908.158-2.861.237-.257.039-.44.157-.55.392-.514 1.06-.99 2.081-1.504 3.142 0 .039-.037.078-.037.117zM9.5 11.152h1.907c.184 0 .294-.079.294-.314v-.668c0-.196-.074-.275-.257-.275H7.63c-.183 0-.293.079-.293.314v.55c0 .354.037.393.367.393H9.5zm6.419-1.767c.44-.04.734-.118 1.027-.354.367-.274.587-.746.477-1.217-.11-.51-.367-.864-.844-.982-.917-.235-1.797.472-1.834 1.493-.036.392.147.706.477.863.22.118.477.158.697.197zm-12.838.04v-.04c.11 0 .22 0 .33-.04.55-.078.88-.47.807-1.06-.073-.864-.77-1.492-1.577-1.453-.55.04-.99.432-1.1 1.021-.074.51.146 1.021.66 1.296.257.118.587.197.88.275z" fill="#000"/>
    </g>
    <defs>
        <clipPath id="8sphyjkcsa">
            <path fill="#fff" d="M0 0h19v15H0z"/>
        </clipPath>
    </defs>
</svg>
