<svg width="20" height="16" viewBox="0 0 20 16" fill="none" xmlns="http://www.w3.org/2000/svg">
    <g clip-path="url(#b40pdz0taa)" fill="#B4B4B4" stroke="#B4B4B4" stroke-width=".5">
        <path d="M3.333 0H.667C.3 0 0 .3 0 .667v2.666C0 3.7.3 4 .667 4c.366 0 .666-.3.666-.667v-2h2c.367 0 .667-.3.667-.666C4 .3 3.7 0 3.333 0zM19.333 12c-.366 0-.666.3-.666.667v2h-2c-.367 0-.667.3-.667.666 0 .367.3.667.667.667h2.666c.367 0 .667-.3.667-.667v-2.666c0-.367-.3-.667-.667-.667zM19.333 0h-2.666C16.3 0 16 .3 16 .667c0 .366.3.666.667.666h2v2c0 .367.3.667.666.667.367 0 .667-.3.667-.667V.667C20 .3 19.7 0 19.333 0zM3.333 14.667h-2v-2c0-.367-.3-.667-.666-.667C.3 12 0 12.3 0 12.667v2.666C0 15.7.3 16 .667 16h2.666C3.7 16 4 15.7 4 15.333c0-.366-.3-.666-.667-.666zM4 2.667H2.667v10.666H4V2.666zM6.667 2.667H5.334v8h1.333v-8zM9.333 2.667H8v8h1.333v-8zM12 2.667h-1.334v10.666H12V2.666zM14.667 2.667h-1.333v8h1.333v-8zM17.333 2.667H16v10.666h1.333V2.666zM6.667 12H5.334v1.333h1.333V12zM9.333 12H8v1.333h1.333V12zM14.667 12h-1.333v1.333h1.333V12z"/>
    </g>
    <defs>
        <clipPath id="b40pdz0taa">
            <path fill="#fff" d="M0 0h20v16H0z"/>
        </clipPath>
    </defs>
</svg>
