<svg width="18" height="16" viewBox="0 0 18 16" fill="none" xmlns="http://www.w3.org/2000/svg">
    <path d="M5.497 7.899h-.994a.467.467 0 0 0-.472.464c0 .249.203.465.472.465h.994a.467.467 0 0 0 .471-.465.457.457 0 0 0-.471-.464zM5.497 9.855h-.994a.467.467 0 0 0-.472.465c0 .249.203.464.472.464h.994a.467.467 0 0 0 .471-.464.467.467 0 0 0-.471-.465zM5.497 11.83h-.994a.467.467 0 0 0-.472.463c0 .25.203.465.472.465h.994a.467.467 0 0 0 .471-.465.467.467 0 0 0-.471-.464zM9.505 7.899h-.994a.467.467 0 0 0-.471.464c0 .249.202.465.471.465h.994a.467.467 0 0 0 .472-.465.467.467 0 0 0-.472-.464zM9.505 9.855h-.994a.467.467 0 0 0-.471.465c0 .249.202.464.471.464h.994a.467.467 0 0 0 .472-.464.478.478 0 0 0-.472-.465zM9.505 11.83h-.994a.467.467 0 0 0-.471.463c0 .25.202.465.471.465h.994a.467.467 0 0 0 .472-.465.478.478 0 0 0-.472-.464zM13.496 7.899h-.993a.467.467 0 0 0-.472.464c0 .249.202.465.472.465h.993a.467.467 0 0 0 .472-.465.457.457 0 0 0-.472-.464zM13.496 9.855h-.993a.467.467 0 0 0-.472.465c0 .249.202.464.472.464h.993a.467.467 0 0 0 .472-.464.467.467 0 0 0-.472-.465zM13.496 11.83h-.993a.467.467 0 0 0-.472.463c0 .25.202.465.472.465h.993a.467.467 0 0 0 .472-.465.467.467 0 0 0-.472-.464z" fill="#B4B4B4" stroke="#B4B4B4" stroke-width=".6" stroke-miterlimit="10"/>
    <path d="M15.602 2.227h-1.129v-.763A.467.467 0 0 0 14.002 1a.467.467 0 0 0-.472.464v.763H9.471v-.763A.467.467 0 0 0 9 1a.467.467 0 0 0-.472.464v.763H4.47v-.763A.467.467 0 0 0 3.998 1a.457.457 0 0 0-.472.464v.763H2.398C1.623 2.227 1 2.841 1 3.604v10.215c0 .78.623 1.393 1.398 1.393h13.204c.774 0 1.398-.613 1.398-1.376V3.62c0-.763-.623-1.393-1.398-1.393zM1.943 3.62c0-.249.202-.464.472-.464h1.128v.763c0 .248.202.464.472.464.27 0 .471-.199.471-.464v-.763h4.042v.763c0 .248.202.464.472.464a.467.467 0 0 0 .471-.464v-.763h4.06v.763c0 .248.201.464.47.464a.467.467 0 0 0 .472-.464v-.763h1.129c.252 0 .471.199.471.464v1.808H1.943V3.62zM15.602 14.3H2.398a.467.467 0 0 1-.472-.464v-7.48h14.13v7.48a.464.464 0 0 1-.454.464z" fill="#B4B4B4" stroke="#B4B4B4" stroke-width=".6" stroke-miterlimit="10"/>
</svg>
