<svg width="32" height="32" viewBox="0 0 50 50" fill="none" xmlns="http://www.w3.org/2000/svg">
    <path d="M47.619 25.84h-5.612c-1.36 0-2.381 1.02-2.381 2.38v2.042h-5.953c-.17-.17-.17-.34-.34-.51l-7.483-7.484c-.17-.17-.34-.17-.51-.34v-4.422h9.524c1.36 0 2.38-1.02 2.38-2.38v-4.932c0-1.361-1.02-2.382-2.38-2.382H14.966c-1.36 0-2.381 1.02-2.381 2.381v4.932c0 1.361 1.02 2.381 2.381 2.381h7.993v4.422c-.17.17-.34.17-.51.34l-7.653 7.483c-.17.17-.17.34-.34.51h-4.082v-1.53c0-1.36-1.02-2.381-2.38-2.381H2.38C1.021 26.35 0 27.37 0 28.73v5.783c0 1.36 1.02 2.381 2.381 2.381h5.612c1.36 0 2.381-1.02 2.381-2.38v-1.702h4.082c.17.17.17.34.34.51l7.483 7.484c.51.51 1.02.68 1.7.68.68 0 1.191-.17 1.701-.68l7.483-7.483c.17-.17.17-.34.34-.51h5.953v1.19c0 1.36 1.02 2.38 2.38 2.38h5.783c1.36 0 2.381-1.02 2.381-2.38v-5.782c0-1.36-1.02-2.381-2.381-2.381zM15.136 10.364h19.558v4.591H15.136v-4.591zM7.823 34.172H2.551v-5.442h5.442v5.442h-.17zm16.327 4.592-7.313-7.313 7.313-7.313 7.313 7.313-7.313 7.313zm23.299-5.102h-5.442V28.22h5.442v5.442z" fill="currentColor"/>
</svg>
