<svg width="32" height="32" viewBox="0 0 32 32" fill="none" xmlns="http://www.w3.org/2000/svg">
<path d="M22.3449 13.7164C22.4048 13.6554 22.4647 13.5945 22.5245 13.5336C22.7041 13.3507 22.8837 13.2898 23.1231 13.2898C23.4224 13.2898 23.7217 13.2898 24.021 13.2898C24.3203 13.2898 24.5597 13.4726 24.6195 13.7773C24.6794 14.082 24.4998 14.3258 24.1407 14.4477C23.7815 14.5696 23.4224 14.6305 23.0034 14.7524C23.1231 14.8743 23.183 14.9962 23.3027 15.118C24.0808 15.8493 24.3203 16.7025 24.3203 17.7385C24.2604 19.323 24.3203 20.8466 24.3203 22.431C24.3203 22.8576 24.1407 23.0405 23.7217 23.0405C23.1231 23.0405 22.5844 23.0405 21.9858 23.0405C21.6267 23.0405 21.4471 22.8576 21.4471 22.492C21.4471 22.2482 21.4471 22.0044 21.4471 21.6997C21.4471 21.5779 21.3872 21.5779 21.3274 21.5779C21.2675 21.5779 21.1478 21.5779 21.0879 21.5779C17.6162 21.5779 14.2043 21.5779 10.7326 21.5779C10.6727 21.5779 10.553 21.5779 10.4931 21.5779C10.4931 21.8826 10.4931 22.1873 10.4931 22.431C10.4931 22.8576 10.3135 23.0405 9.89454 23.0405C9.29597 23.0405 8.75725 23.0405 8.15867 23.0405C7.79952 23.0405 7.61995 22.8576 7.61995 22.492C7.61995 20.6637 7.61995 18.8964 7.61995 17.0682C7.61995 16.5197 7.79952 16.0322 8.15867 15.6056C8.3981 15.3009 8.63753 15.0571 8.87696 14.7524C8.51782 14.6305 8.21853 14.5696 7.85938 14.4477C7.85938 14.4477 7.79952 14.4477 7.67981 14.4477C7.44038 14.3867 7.2608 14.082 7.2608 13.8383C7.2608 13.5336 7.50023 13.3507 7.79952 13.3507C8.15867 13.3507 8.51782 13.3507 8.87696 13.3507C9.05653 13.3507 9.17625 13.4726 9.29597 13.5336C9.35582 13.5945 9.41568 13.6554 9.5354 13.7164C9.59525 13.6554 9.59525 13.5945 9.65511 13.5336C10.0143 12.8023 10.3734 12.071 10.7326 11.3397C11.0318 10.7302 11.5107 10.4865 12.1691 10.3646C13.1867 10.2427 14.1444 10.1818 15.2219 10.1818C16.4789 10.1818 17.8556 10.1818 19.1126 10.3036C19.4119 10.3646 19.7112 10.4255 20.0105 10.4865C20.3696 10.5474 20.6689 10.7302 20.9084 11.0959C21.1478 11.5225 21.4471 12.01 21.6865 12.4366C21.8661 12.8023 22.0457 13.1679 22.2252 13.5945C22.2851 13.5945 22.2851 13.6554 22.3449 13.7164ZM21.7464 14.3867C21.6865 14.2649 21.6267 14.143 21.5668 14.0211C21.1478 13.2288 20.7288 12.4366 20.3098 11.5834C20.1901 11.3397 20.0105 11.2178 19.7711 11.1568C19.3521 11.0959 18.9331 11.0349 18.5141 11.0349C17.0176 11.0349 15.5212 10.974 14.0247 10.974C13.4261 10.974 12.8276 11.0959 12.229 11.1568C11.9297 11.1568 11.7501 11.3397 11.6304 11.5834C11.2713 12.2538 10.9121 12.9851 10.553 13.6554C10.4333 13.8383 10.3734 14.0211 10.2537 14.2649C14.0247 14.0211 17.8556 14.0211 21.7464 14.3867ZM21.8062 18.287C21.8661 18.287 21.8661 18.2261 21.8062 18.287C22.1055 18.2261 22.4647 18.1651 22.7041 17.9823C23.0632 17.7385 23.2428 17.3729 23.183 16.9463C23.1231 16.4588 22.8238 16.215 22.4048 16.0931C21.5069 15.8493 20.6689 16.6416 20.7886 17.5557C20.7886 17.7995 20.9084 17.9823 21.1478 18.0432C21.3274 18.1651 21.6267 18.2261 21.8062 18.287ZM10.0741 18.2261C10.134 18.2261 10.2537 18.2261 10.3135 18.2261C10.7924 18.1651 11.0917 17.8604 11.0917 17.4338C11.0917 16.6416 10.4333 16.0322 9.65511 16.0931C9.23611 16.0931 8.8171 16.4588 8.69739 16.8853C8.57767 17.3119 8.69739 17.7385 9.11639 17.9823C9.35582 18.1651 9.71497 18.2261 10.0741 18.2261ZM15.8803 19.7496C16.419 19.7496 17.0176 19.7496 17.5563 19.7496C17.7958 19.7496 17.8556 19.6887 17.8556 19.4449C17.8556 19.2621 17.8556 19.1402 17.8556 18.9574C17.8556 18.7745 17.7958 18.7136 17.6162 18.7136C16.4789 18.7136 15.3416 18.7136 14.0846 18.7136C13.905 18.7136 13.8452 18.7745 13.8452 18.9574C13.8452 19.1402 13.8452 19.323 13.8452 19.4449C13.8452 19.6887 13.905 19.7496 14.1444 19.7496C14.8029 19.7496 15.3416 19.7496 15.8803 19.7496Z" fill="#828282"/>
<path d="M3.78899 14.082C2.41227 14.6914 1.45454 16.0931 1.45454 17.6776C1.45454 19.2621 2.41227 20.6637 3.78899 21.2731" stroke="#828282" stroke-width="1.4" stroke-miterlimit="10" stroke-linecap="round" stroke-linejoin="round"/>
<path d="M5.58477 15.179C4.68691 15.6055 4.02847 16.5806 4.02847 17.6776C4.02847 18.7745 4.68691 19.7496 5.64463 20.1762" stroke="#828282" stroke-width="1.4" stroke-miterlimit="10" stroke-linecap="round" stroke-linejoin="round"/>
<path d="M28.211 14.082C29.5877 14.6914 30.5454 16.0931 30.5454 17.6776C30.5454 19.2621 29.5877 20.6637 28.211 21.2731" stroke="#828282" stroke-width="1.4" stroke-miterlimit="10" stroke-linecap="round" stroke-linejoin="round"/>
<path d="M26.3553 15.179C27.3131 15.6055 27.9715 16.5806 27.9715 17.6776C27.9715 18.7745 27.3131 19.7496 26.3553 20.1762" stroke="#828282" stroke-width="1.4" stroke-miterlimit="10" stroke-linecap="round" stroke-linejoin="round"/>
</svg>
