<svg xmlns="http://www.w3.org/2000/svg" width="19" height="19" fill="none" viewBox="0 0 19 19">
    <path fill="#E55554" d="M12.262 12.466c.78-.308 1.47-.808 2.003-1.455.98-1.16.98-2.856 0-4.015-.533-.647-1.223-1.149-2.003-1.457-.875-.364-1.814-.547-2.762-.539-.947-.009-1.886.173-2.761.536-.78.308-1.47.809-2.004 1.457C4.263 7.556 4.004 8.267 4 9c.003.627.198 1.238.558 1.75.396.57.916 1.043 1.523 1.382-.052.124-.105.239-.16.344-.056.106-.121.207-.195.3-.076.096-.135.172-.176.227-.042.054-.11.13-.203.23-.094.1-.154.164-.18.195 0-.005-.01.007-.031.036-.02.028-.033.041-.035.039-.003-.003-.013.01-.031.039l-.028.042-.02.04c-.007.015-.012.031-.015.047-.002.016-.004.034-.004.051 0 .017.003.035.008.05.01.065.04.123.09.165.044.04.101.062.16.062h.024c.225-.03.45-.07.671-.123.778-.199 1.933-.414 2.59-.877.561.004.494 0 .955 0 .947.01 1.886-.172 2.76-.534z"/>
    <path stroke="#E55554" stroke-width=".2" d="M8.305 11.893c-.146.098-.324.416-1.566.884l.404-1.231-.565-.28c-.459-.254-.856-.606-1.164-1.03C5.151 9.876 5.006 9.445 5 9c.01-.556.23-1.09.614-1.492.454-.495 1.02-.873 1.652-1.102.713-.274 1.47-.413 2.234-.406.764-.006 1.521.131 2.234.406.631.23 1.197.607 1.652 1.102.817.826.817 2.158 0 2.984-.454.495-1.02.873-1.652 1.102m.528.87c.78-.307 1.47-.807 2.003-1.454.98-1.16.98-2.856 0-4.015-.533-.647-1.223-1.149-2.003-1.457-.875-.364-1.814-.547-2.762-.539-.947-.009-1.886.173-2.761.536-.78.308-1.47.809-2.004 1.457C4.263 7.556 4.004 8.267 4 9c.003.627.198 1.238.558 1.75.396.57.916 1.043 1.523 1.382-.052.124-.105.239-.16.344-.056.106-.121.207-.195.3-.076.096-.135.172-.176.227-.042.054-.11.13-.203.23-.094.1-.154.164-.18.195 0-.005-.01.007-.031.036-.02.028-.033.041-.035.039-.003-.003-.013.01-.031.039l-.028.042-.02.04c-.007.015-.012.031-.015.047-.002.016-.004.034-.004.051 0 .017.003.035.008.05.01.065.04.123.09.165.044.04.101.062.16.062h.024c.225-.03.45-.07.671-.123.778-.199 1.933-.414 2.59-.877.561.004.494 0 .955 0 .947.01 1.886-.172 2.76-.534z"/>
    <circle cx="9.5" cy="9.5" r="8.8" stroke="#E55554" stroke-width="1.4"/>
    <path stroke="#E55554" stroke-width="1.4" d="M3 3l13 13"/>
</svg>
