<svg xmlns="http://www.w3.org/2000/svg" width="44" height="44" fill="none" viewBox="0 0 44 44">
    <path fill="#fff" fill-rule="evenodd" stroke="#fff" stroke-miterlimit="10" stroke-width=".3" d="M33.06 31.809l-.022.155c-.035-.014-.064-.023-.091-.038-.702-.4-1.404-.798-2.105-1.2-.247-.142-.346-.332-.304-.578.043-.259.193-.432.452-.505.176-.05.33.02.48.104.58.331 1.16.66 1.74.992.053.03.107.058.177.096.855-1.541 1.34-3.175 1.424-4.95h-.21c-.689 0-1.376.002-2.064-.002-.42-.002-.65-.223-.643-.602.006-.327.233-.551.568-.553.716-.002 1.432 0 2.148 0h.203c-.093-1.835-.569-3.544-1.441-5.164-.054.029-.102.051-.148.077-.618.365-1.233.735-1.854 1.094-.403.233-.822.04-.91-.41-.043-.221.058-.43.293-.568.626-.375 1.254-.745 1.88-1.118.038-.022.073-.046.124-.079-1.018-1.495-2.304-2.697-3.867-3.643-.071.126-.136.24-.2.356-.309.56-.615 1.122-.926 1.68-.115.209-.296.32-.54.303-.26-.02-.476-.2-.548-.43-.054-.174.002-.327.085-.477l1-1.813c.029-.053.054-.107.088-.176-1.504-.707-3.075-1.101-4.752-1.179v.19c0 .684.001 1.367-.001 2.05-.002.354-.153.553-.463.622-.378.084-.71-.168-.711-.55-.004-.705-.002-1.41-.002-2.116v-.178c-1.148-.12-4.331.743-5.235 1.417l1.004 1.651c.07.114.143.227.206.344.16.29.069.608-.22.774-.285.164-.605.099-.78-.183-.385-.614-.756-1.235-1.134-1.853-.028-.046-.06-.091-.099-.15-1.516 1.006-2.734 2.275-3.692 3.815l1.207.645c.277.148.555.294.83.445.322.175.421.486.255.79-.165.301-.486.398-.808.23-.62-.326-1.237-.66-1.857-.99-.054-.029-.109-.056-.162-.083-.495.531-1.296 3.59-1.221 4.671h.18c.72 0 1.442-.001 2.164.001.255.002.454.142.53.365.085.247.027.532-.18.659-.13.079-.303.123-.458.127-.682.013-1.364.006-2.047.006h-.2c.076 1.769.567 3.401 1.42 4.953l.605-.342c.458-.261.916-.523 1.375-.782.196-.11.397-.123.59.005.199.13.295.315.288.55-.007.193-.11.338-.274.432-.734.422-1.47.84-2.217 1.268l-.06-.135c-.172.343-.436.495-.74.387-.133-.047-.272-.153-.344-.27-.76-1.221-1.285-2.536-1.572-3.94-.248-1.214-.332-2.442-.234-3.676.238-2.96 1.347-5.564 3.327-7.805.913-1.033 1.967-1.906 3.16-2.61 1.523-.899 3.16-1.495 4.918-1.755 2.934-.432 5.73.004 8.343 1.385 3.548 1.877 5.825 4.762 6.83 8.61.25.96.362 1.94.38 2.93.042 2.406-.525 4.652-1.745 6.745-.31.539-.927.563-1.193-.021z" clip-rule="evenodd"/>
    <path fill="#fff" fill-rule="evenodd" stroke="#fff" stroke-miterlimit="10" stroke-width=".3" d="M22.722 26.85c-.829-.007-1.503-.613-1.568-1.415-.06-.746.54-1.447 1.332-1.564.402-.06.766.026 1.093.245.109.073.18.069.288.007 1.516-.863 3.033-1.723 4.551-2.581.358-.202.733-.059.82.31.05.212-.049.409-.277.539-.721.41-1.443.82-2.165 1.228-.804.455-1.606.914-2.413 1.364-.098.055-.12.11-.114.214.06.815-.45 1.46-1.28 1.624-.087.018-.178.02-.267.029zM22.492 29.55c1.153 0 2.306 0 3.458.002.437.002.703.438.562.91-.079.266-.267.421-.536.434-.166.008-.332.002-.499.002h-6.384c-.422 0-.666-.28-.641-.728.021-.384.245-.618.598-.62h3.442z" clip-rule="evenodd"/>
</svg>
