<svg xmlns="http://www.w3.org/2000/svg" width="32" height="32" fill="none" viewBox="0 0 32 32">
    <g clip-path="url(#clip0)">
        <path fill="#fff" d="M15.603 19.038l.007-.01-.065-.02c-.243-.124-.51-.206-.794-.235l-.165-.05c-.358-.11-.732-.192-1.07-.35-.664-.31-.742-.65-.446-1.316l.13-.296.015-.028c.275-.504.475-1.03.585-1.577l.01-.035c.191-.702.216-1.437-.07-2.138-.368-.9-1.147-1.37-2.219-1.364h-.044c-1.072-.006-1.85.463-2.218 1.364-.286.701-.261 1.436-.07 2.138l.01.035c.11.546.31 1.073.585 1.577l.014.028.13.296c.296.666.219 1.005-.446 1.316-.337.158-.711.24-1.07.35l-.232.071c-.225.05-.444.128-.606.198l-.158.08c-.665.393-1.111 1.115-1.111 1.943v.987h10.468v-.987c.001-.852-.472-1.594-1.17-1.977zM3.72 12.963h-.441V8.789c0-1.079.873-1.953 1.951-1.953h9.01c1.079 0 1.952.874 1.952 1.953l-9.803.059s-3.425-.126-2.67 4.115z"/>
        <path stroke="#fff" stroke-miterlimit="10" stroke-width="1.5" d="M27.955 23.013c0 1.29-1.045 2.336-2.334 2.336H6.29c-1.289 0-2.334-1.046-2.334-2.336V11.316c0-1.29 1.045-2.336 2.334-2.336h19.33c1.289 0 2.334 1.046 2.334 2.336v11.697h0z"/>
        <path stroke="#fff" stroke-linecap="round" stroke-linejoin="round" stroke-miterlimit="10" stroke-width="1.5" d="M19.183 13.303h5.776M19.183 17.23h5.776M19.183 21.16h5.776"/>
    </g>
    <defs>
        <clipPath id="clip0">
            <path fill="#fff" d="M0 0H26V20.429H0z" transform="translate(3 6)"/>
        </clipPath>
    </defs>
</svg>
