<svg width="32" height="32" viewBox="0 0 32 32" fill="none" xmlns="http://www.w3.org/2000/svg">
<g clip-path="url(#clip0_141_609)">
<path d="M15.6031 19.0385C15.6053 19.0347 15.6076 19.0311 15.6097 19.0273C15.5879 19.0207 15.5669 19.0143 15.5448 19.008C15.3022 18.8842 15.0347 18.8022 14.7512 18.7735C14.6962 18.757 14.641 18.7404 14.5865 18.7236C14.2277 18.613 13.8538 18.5313 13.5164 18.3733C12.8517 18.0622 12.7741 17.7227 13.0699 17.0566C13.1136 16.9583 13.1571 16.8595 13.2004 16.7608C13.2048 16.7514 13.2097 16.7421 13.2146 16.733C13.4896 16.2287 13.6895 15.7023 13.8001 15.1563C13.8033 15.1447 13.8071 15.133 13.8103 15.1209C14.0012 14.4187 14.0256 13.684 13.7398 12.9835C13.3716 12.0823 12.5933 11.6126 11.521 11.6194C11.5138 11.6192 11.5066 11.6188 11.4992 11.6188C11.4922 11.6188 11.485 11.619 11.4773 11.6194C10.4053 11.613 9.6267 12.0823 9.25875 12.9835C8.9727 13.6842 8.99753 14.4187 9.18829 15.1209C9.1919 15.1328 9.1953 15.1447 9.19869 15.1563C9.30925 15.7023 9.50893 16.2287 9.78394 16.733C9.78882 16.7421 9.79328 16.7512 9.79795 16.7608C9.84145 16.8595 9.88474 16.9583 9.92824 17.0566C10.2243 17.7227 10.1466 18.0622 9.48219 18.3733C9.14479 18.5313 8.77068 18.613 8.41164 18.7236C8.33482 18.7474 8.25715 18.771 8.1797 18.7941C7.95455 18.8438 7.7362 18.9215 7.57386 18.9916L7.41577 19.0725C6.75116 19.4645 6.30469 20.1873 6.30469 21.015V22.002H16.7732V21.015C16.7743 20.1631 16.3011 19.4214 15.6031 19.0385Z" fill="white"/>
<path d="M3.71931 12.963H3.27856V8.78902C3.27856 7.71012 4.15241 6.83571 5.23039 6.83571H14.2405C15.3185 6.83571 16.1925 7.71034 16.1925 8.78902L6.38902 8.84784C6.38902 8.84784 2.96408 8.72214 3.71931 12.963Z" fill="white"/>
<path d="M27.9549 23.0134C27.9549 24.3033 26.9098 25.3491 25.6207 25.3491H6.29125C5.00212 25.3491 3.95703 24.3033 3.95703 23.0134V11.3162C3.95703 10.0263 5.00212 8.98048 6.29125 8.98048H25.6209C26.91 8.98048 27.9551 10.0263 27.9551 11.3162V23.0134H27.9549Z" stroke="white" stroke-width="1.5" stroke-miterlimit="10"/>
<path d="M19.1829 13.3025H24.959" stroke="white" stroke-width="1.5" stroke-miterlimit="10" stroke-linecap="round" stroke-linejoin="round"/>
<path d="M19.1829 17.2308H24.959" stroke="white" stroke-width="1.5" stroke-miterlimit="10" stroke-linecap="round" stroke-linejoin="round"/>
<path d="M19.1829 21.1591H24.959" stroke="white" stroke-width="1.5" stroke-miterlimit="10" stroke-linecap="round" stroke-linejoin="round"/>
</g>
<defs>
<clipPath id="clip0_141_609">
<rect width="26" height="20.4286" fill="white" transform="translate(3 6)"/>
</clipPath>
</defs>
</svg>
