<svg xmlns="http://www.w3.org/2000/svg" width="46" height="62" fill="none" viewBox="0 0 46 62">
    <path fill="#fff" d="M1.524 0h31.155c3.556 4.565 7.563 8.736 11.4 13.133.791.902 1.13 1.747 1.13 2.93-.057 14.204 0 28.351 0 42.555 0 2.593-.79 3.382-3.387 3.382H3.5C.79 62 .056 61.267.056 58.505c0-18.318 0-36.692-.056-55.01C.056 2.029.395.902 1.524 0zm21.052 41.315H41.09c1.241 0 1.693-.339 1.693-1.635-.057-7.327-.057-14.654 0-21.982 0-1.352-.452-1.634-1.693-1.578-2.766.056-5.475 0-8.24.056-1.525.057-2.089-.563-2.033-2.085.057-3.325-.056-6.595.057-9.92.056-1.41-.452-1.747-1.75-1.747-8.24.056-16.48.056-24.72 0-1.299 0-1.807.281-1.807 1.69.057 11.78.057 23.617 0 35.397 0 1.522.508 1.803 1.92 1.803 5.925-.056 11.965 0 18.06 0zM3.104 51.29v5.524c0 .62 0 1.183.903 1.24 2.54.169 5.136.338 7.563-.79 2.71-1.24 4.008-3.889 3.612-7.496-.282-2.762-2.144-4.734-5.08-5.298-1.975-.395-4.006-.226-6.038-.113-.96.056-1.016.677-1.016 1.41.056 1.86.056 3.663.056 5.523zm26.753-.056c.056-4.228-2.483-7.102-6.378-7.159-3.894-.056-6.716 2.875-6.83 7.046-.056 4.114 2.597 7.102 6.435 7.158 4.007.056 6.716-2.818 6.773-7.046zm8.805 7.045c.451-.056.96-.113 1.523-.17.847-.168 1.92.057 1.694-1.465-.226-1.409-.96-1.183-1.976-1.014-3.612.563-5.926-1.916-5.249-5.467.508-2.593 2.484-3.777 5.757-3.213.96.169 1.355-.113 1.524-1.015.113-.732.226-1.296-.734-1.522-3.047-.62-5.926-.338-8.07 2.086-2.089 2.367-2.315 5.185-1.13 8.06 1.186 2.818 3.67 3.55 6.66 3.72z"/>
    <path fill="#fff" d="M21.56 29.647h-9.877c-.677 0-1.693.226-1.693-.901.056-1.015 1.016-.846 1.75-.846h19.98c.677 0 1.75-.225 1.75.79.056 1.183-1.073.9-1.807.9-3.386.114-6.773.057-10.103.057zM21.73 34.495h9.877c.733 0 1.862-.282 1.806.901 0 1.015-1.073.79-1.75.79h-19.98c-.677 0-1.75.225-1.75-.79 0-1.183 1.073-.901 1.807-.901h9.99zM21.73 23.222H11.457c-.564 0-1.41.169-1.467-.677-.057-1.014.79-.845 1.467-.845h20.488c.621 0 1.524-.17 1.468.845-.057.846-.903.677-1.468.677H21.73zM14.166 13.866c-.395 1.465-.62 2.536-.902 3.55-.113.508-.283.959-.904.959-.62 0-.79-.451-.903-.959-.338-1.409-.733-2.818-1.016-4.227-.112-.394-.451-1.014.395-1.127.734-.113.734.507.847.958.226 1.07.452 2.085.847 3.72.395-1.634.677-2.705.96-3.833.112-.507.281-.958.959-.845.564.056.677.45.733.902.226 1.014.452 1.972.96 2.987.226-1.015.508-2.03.734-3.044.112-.394.169-.902.79-.789.677.113.451.62.338 1.015-.395 1.522-.846 3.043-1.241 4.565-.113.451-.226.79-.79.79-.678 0-.79-.395-.903-.902-.283-1.184-.565-2.199-.904-3.72zM23.818 16.796H19.98c-.564 0-1.185-.169-1.185-.845 0-.62.508-.846 1.016-.846h8.41c.507 0 .959.282.902.902-.056.508-.451.733-.903.733-1.467.056-2.935.056-4.402.056zM6.265 51.066c0-.959.056-1.973 0-2.931-.113-1.41.564-1.635 1.75-1.522 2.765.169 4.176 1.916 3.894 5.072-.226 2.65-2.145 4.284-4.685 4.115-.733-.056-.96-.338-.96-1.014v-3.72zM26.583 51.01c-.056.675-.056 1.183-.169 1.634-.339 1.86-1.524 3.043-3.048 3.1-1.58.056-2.709-1.015-3.217-2.931-.338-1.24-.282-2.424.057-3.608.451-1.521 1.298-2.649 3.047-2.649 1.75 0 2.597 1.128 3.048 2.65.17.676.226 1.352.282 1.803z"/>
</svg>
