<svg xmlns="http://www.w3.org/2000/svg" width="14" height="13" fill="none" viewBox="0 0 14 13">
    <path fill="#FAA41A" d="M6.996 12.833h-5.34c-.318 0-.637-.025-.93-.15-.564-.202-.833-.755-.686-1.359.073-.276.171-.528.318-.78C2.146 7.35 3.934 4.157 5.747.988c.098-.15.195-.327.318-.478.539-.679 1.347-.679 1.91 0 .123.151.22.327.319.503 1.788 3.17 3.551 6.338 5.34 9.482.097.176.17.327.244.503.368.956-.122 1.76-1.126 1.811-.564.025-1.127 0-1.69 0-1.372.025-2.72.025-4.066.025zM6.53 8.306h.931c.025-.025.025-.05.025-.05.171-1.233.367-2.465.538-3.697.05-.428-.122-.805-.49-1.032-.367-.226-.759-.226-1.126.026-.368.251-.515.654-.466 1.081.196 1.207.392 2.415.588 3.672zm1.519 1.76c0-.578-.465-1.08-1.053-1.106-.564 0-1.054.478-1.054 1.056-.024.579.466 1.082 1.054 1.082.539 0 1.028-.478 1.053-1.031z"/>
</svg>
