<svg xmlns="http://www.w3.org/2000/svg" width="20" height="20" fill="none" viewBox="0 0 20 20">
    <path fill="#B8B4B3" fill-rule="evenodd" d="M9.447 15.296c-.42 0-.84-.014-1.258.002-.73.028-1.13-.254-1.326-1.03-.365-1.448-1.155-2.58-2.233-3.698C2.06 7.906 2.521 3.252 6.066.892c1.76-1.171 5.026-1.27 7.008.191 2.142 1.581 3.325 4.33 2.803 6.764-.231 1.08-.764 1.965-1.575 2.684-1.034.917-1.846 2.032-2.152 3.364-.29 1.256-.972 1.552-2.074 1.406-.207-.028-.42-.004-.63-.005zm-3.82-7.384c.598-2.536 1.583-4.73 4.317-5.664-2.745-.989-5.229 3-4.316 5.664z" clip-rule="evenodd"/>
    <path stroke="#B8B4B3" stroke-linecap="round" stroke-miterlimit="10" stroke-width="1.5" d="M7.225 16.446h4.314M7.225 17.723h4.314M7.939 19h2.886"/>
</svg>
