<svg width="44" height="44" viewBox="0 0 44 44" fill="none" xmlns="http://www.w3.org/2000/svg">
<path d="M35.3 23.1H32C31.2 23.1 30.6 23.7 30.6 24.5V25.7H27.1C27 25.6 27 25.5 26.9 25.4L22.5 21C22.4 20.9 22.3 20.9 22.2 20.8V18.2H27.8C28.6 18.2 29.2 17.6 29.2 16.8V13.9C29.2 13.1 28.6 12.5 27.8 12.5H16.1C15.3 12.5 14.7 13.1 14.7 13.9V16.8C14.7 17.6 15.3 18.2 16.1 18.2H20.8V20.8C20.7 20.9 20.6 20.9 20.5 21L16 25.4C15.9 25.5 15.9 25.6 15.8 25.7H13.4V24.8C13.4 24 12.8 23.4 12 23.4H8.69999C7.89999 23.4 7.29999 24 7.29999 24.8V28.2C7.29999 29 7.89999 29.6 8.69999 29.6H12C12.8 29.6 13.4 29 13.4 28.2V27.2H15.8C15.9 27.3 15.9 27.4 16 27.5L20.4 31.9C20.7 32.2 21 32.3 21.4 32.3C21.8 32.3 22.1 32.2 22.4 31.9L26.8 27.5C26.9 27.4 26.9 27.3 27 27.2H30.5V27.9C30.5 28.7 31.1 29.3 31.9 29.3H35.3C36.1 29.3 36.7 28.7 36.7 27.9V24.5C36.7 23.7 36.1 23.1 35.3 23.1ZM16.2 14H27.7V16.7H16.2V14ZM11.9 28H8.79999V24.8H12V28H11.9ZM21.5 30.7L17.2 26.4L21.5 22.1L25.8 26.4L21.5 30.7ZM35.2 27.7H32V24.5H35.2V27.7Z" fill="currentColor"/>
</svg>
