<svg xmlns="http://www.w3.org/2000/svg" width="32" height="32" fill="none" viewBox="0 0 32 32">
    <path fill="#61697C" stroke="#fff" stroke-miterlimit="10" d="M10.8 11.276c-4.308 0-7.8 3.62-7.8 8.085 0 4.465 3.492 8.085 7.8 8.085s7.801-3.62 7.801-8.085c0-4.464-3.493-8.085-7.8-8.085zm0 15.767c-4.086 0-7.4-3.438-7.4-7.68 0-4.243 3.314-7.681 7.4-7.681 4.088 0 7.4 3.439 7.4 7.68 0 4.242-3.313 7.68-7.4 7.68z"/>
    <path fill="#61697C" stroke="#fff" stroke-miterlimit="10" d="M10.8 17.745c-.993 0-1.8.815-1.8 1.818 0 1.006.807 1.82 1.8 1.82.995 0 1.8-.815 1.8-1.82 0-1.004-.806-1.818-1.8-1.818zm0 3.232c-.772 0-1.4-.633-1.4-1.414 0-.78.628-1.414 1.4-1.414.774 0 1.4.634 1.4 1.414 0 .781-.627 1.414-1.4 1.414zM10.8 16.935c.332 0 .6-.27.6-.606 0-.334-.268-.606-.6-.606-.33 0-.6.272-.6.606 0 .335.27.606.6.606zM10.8 23c.332 0 .6-.272.6-.606 0-.335-.268-.607-.6-.607-.33 0-.6.272-.6.607 0 .334.27.606.6.606zM14 20.17c.33 0 .599-.271.599-.606 0-.335-.268-.606-.6-.606-.33 0-.6.271-.6.606 0 .335.27.606.6.606zM8 20.17c.332 0 .6-.271.6-.606 0-.335-.268-.606-.6-.606-.33 0-.6.271-.6.606 0 .335.27.606.6.606zM25.4 4c-1.99 0-3.6 1.63-3.6 3.639 0 2.01 1.61 3.638 3.6 3.638 1.988 0 3.6-1.628 3.6-3.638S27.388 4 25.4 4zm0 6.872c-1.767 0-3.2-1.448-3.2-3.235 0-1.786 1.433-3.234 3.2-3.234 1.767 0 3.2 1.448 3.2 3.234 0 1.787-1.433 3.235-3.2 3.235z"/>
    <path fill="#61697C" d="M7.652 12.194l15.974-7.467-15.974 7.467z"/>
    <path stroke="#fff" stroke-miterlimit="10" d="M7.652 12.194l15.974-7.467"/>
    <path fill="#61697C" stroke="#fff" stroke-miterlimit="10" d="M7.417 12.088l.167.367 16.113-7.571-.167-.367-16.113 7.571z"/>
    <path fill="#61697C" d="M16.246 24.835L27.33 10.472 16.246 24.835z"/>
    <path stroke="#fff" stroke-miterlimit="10" d="M16.246 24.835L27.33 10.472"/>
    <path fill="#61697C" stroke="#fff" stroke-miterlimit="10" d="M16.642 24.097l.315.248L28.154 9.978l-.316-.249-11.196 14.369zM10.8 14.02c-2.813 0-5.095 2.391-5.095 5.34 0 2.95 2.28 5.34 5.095 5.34s5.096-2.39 5.096-5.34c0-2.949-2.282-5.34-5.096-5.34zm0 10.301c-2.605 0-4.718-2.22-4.718-4.96 0-2.74 2.114-4.96 4.718-4.96 2.606 0 4.718 2.22 4.718 4.96 0 2.74-2.112 4.96-4.718 4.96z"/>
</svg>
