<svg xmlns="http://www.w3.org/2000/svg" width="46" height="62" fill="none" viewBox="0 0 46 62">
    <path fill="#fff" d="M45.203 14.17v46.318C44.25 61.664 43.016 62 41.558 62c-12.619-.056-25.238 0-37.856-.056-2.973 0-3.646-.672-3.646-3.64C.056 40.1.056 21.843 0 3.64 0 2.128.337.896 1.514 0h30.958c.505.56 1.066 1.12 1.57 1.736 3.702 4.145 7.404 8.29 11.161 12.434zM22.602 41.22h18.563c.954 0 1.57 0 1.57-1.288-.056-7.505-.056-15.066 0-22.57 0-1.065-.392-1.345-1.401-1.345-2.58.056-5.216 0-7.796 0-2.748 0-2.804-.056-2.804-2.912 0-2.969-.056-5.937.056-8.905.056-1.457-.449-1.849-1.85-1.793-8.19.056-16.377.056-24.565 0-1.346 0-1.907.28-1.851 1.793.056 11.761.056 23.579 0 35.34 0 1.344.392 1.736 1.738 1.736 6.057-.112 12.17-.056 18.34-.056zm8.02 9.242c.112 0 .224.056.336.056 0 1.68.056 3.36 0 5.04-.056 1.064.337 1.344 1.346 1.344 1.066 0 1.29-.392 1.29-1.4-.056-2.744 0-5.489-.056-8.177 0-.616.56-1.848-.841-1.736-1.066.056-2.58-.784-3.029 1.232-.392 1.96-1.065 3.92-1.682 6.217-1.402-2.184-2.02-4.257-2.412-6.385-.336-1.96-1.795-.84-2.748-1.064-1.01-.224-.954.56-.954 1.232 0 2.912.057 5.825 0 8.737 0 1.064.393 1.288 1.346 1.288 1.122 0 1.29-.448 1.234-1.4-.056-1.736 0-3.472 0-5.209.898 1.793 1.515 3.641 2.075 5.49.169.615.28 1.12 1.122 1.12.898.055 1.122-.449 1.346-1.177.505-1.68 1.066-3.472 1.627-5.209zm-18.957.784c0-1.513-.056-3.025 0-4.537 0-.84-.224-1.176-1.121-1.176-.898 0-1.346.224-1.29 1.232.056.504-.056.952 0 1.456.224 1.568-.28 2.24-2.02 2.184-1.57-.056-2.355-.392-2.074-2.072.112-.504-.056-1.12 0-1.624.112-1.12-.561-1.064-1.346-1.12-.898-.056-1.29.224-1.29 1.176.056 2.968.056 5.937 0 8.905 0 .952.28 1.288 1.234 1.232.953 0 1.514-.112 1.402-1.288-.056-.728 0-1.456 0-2.184 0-.504.112-.896.729-1.008 2.524-.56 3.365 0 3.365 2.576v.56c-.056.84.112 1.344 1.178 1.344.953 0 1.233-.336 1.233-1.288-.056-1.456 0-2.912 0-4.368zm4.038 1.008v3.08c0 .784-.112 1.512 1.122 1.568 1.346 0 1.29-.728 1.29-1.624 0-1.736.056-3.528 0-5.265-.112-1.512.056-2.632 2.019-2.352.897.112.897-.56.953-1.176 0-.728-.336-.952-1.01-.896h-6.393c-.785 0-.897.392-.84 1.064 0 .616.055 1.232.84 1.064 2.412-.448 2.132 1.12 2.075 2.576-.056.617-.056 1.289-.056 1.96zm19.63-.784c.168 1.512-.842 3.976.392 5.096 1.178 1.064 3.59.224 5.44.336h.561c.673.056 1.01-.224.953-.952-.056-.616 0-1.232-.897-1.176-.729.056-1.458-.056-2.187 0-1.234.112-1.683-.336-1.627-1.624.113-2.184 0-4.369.057-6.553.056-1.176-.673-1.008-1.402-1.064-.786-.056-1.29.112-1.234 1.064 0 1.512-.056 3.024-.056 4.873z"/>
    <path fill="#fff" d="M28.434 19.715c3.085 1.736 5.945 3.304 8.805 4.984 1.01.616.954 3.137-.112 3.753-2.636 1.512-5.272 2.968-7.908 4.48-.897.504-1.009.112-1.065-.672-.112-1.512.112-2.632 1.795-3.248 1.626-.56 3.084-1.569 4.879-2.52-1.627-.84-2.973-1.513-4.319-2.185-2.467-1.288-2.467-1.288-2.075-4.592zM9.31 26.491c1.682.896 3.028 1.569 4.318 2.297 2.636 1.344 2.636 1.344 2.188 4.648-3.085-1.736-6.057-3.36-9.03-5.096-.841-.504-.841-3.025 0-3.529 2.973-1.736 5.945-3.416 9.03-5.096.448 3.36.448 3.36-2.188 4.648-1.29.616-2.636 1.344-4.318 2.128zM18.844 35.733c-.729.056-1.178-.112-.841-1.008 1.907-5.265 3.814-10.586 5.72-15.85.337-.897.954-1.065 1.683-.84 1.01.335.28 1.007.112 1.456-1.795 4.984-3.59 10.025-5.384 15.01-.224.672-.337 1.4-1.29 1.232z"/>
</svg>
