<svg width="44" height="44" viewBox="0 0 44 44" fill="none" xmlns="http://www.w3.org/2000/svg">
<g clip-path="url(#clip0)">
<path d="M25.2796 27.4048C24.9198 27.3735 24.5813 27.3691 24.26 27.3021C23.7544 27.1949 23.2574 27.0385 22.7562 26.9135C22.6105 26.8777 22.572 26.7973 22.5762 26.6454C22.5848 26.0335 22.5762 25.426 22.5848 24.8141C22.6277 21.5578 22.6705 18.3015 22.7133 15.0408C22.7176 14.8264 22.7476 14.6164 22.7733 14.3529C23.1803 14.3037 23.6045 14.2189 24.0329 14.201C25.2539 14.1563 26.4707 14.0893 27.6917 14.1206C28.6343 14.1429 29.5725 14.3171 30.4337 14.7728C31.2049 15.1837 31.9032 15.7063 32.246 16.5595C32.8586 18.0916 32.5416 19.7621 31.1749 20.7895C30.875 21.0128 30.5237 21.1647 30.1981 21.3523C30.1295 21.3925 30.0652 21.4327 29.9581 21.4953C30.1895 21.5846 30.3866 21.6561 30.5751 21.7409C31.5476 22.1608 32.3102 22.8353 32.7001 23.8671C33.0985 24.9168 33.1157 25.9933 32.6658 27.0475C32.126 28.3071 31.2049 29.1022 29.9538 29.5176C28.8913 29.8705 27.8031 30.0089 26.6978 29.9955C25.8923 29.9866 25.0826 29.9955 24.2857 29.8928C23.6088 29.8079 22.9447 29.6069 22.2849 29.4059C21.2053 29.0798 20.2113 28.5528 19.2859 27.8872C18.4162 27.2619 17.645 26.5204 16.9766 25.6717C16.3254 24.8453 15.7685 23.952 15.3572 22.9693C15.3529 22.9604 15.3315 22.9559 15.3015 22.9425C15.0744 23.2194 14.843 23.4964 14.6117 23.7822C14.3932 24.0503 14.2047 24.3629 13.9476 24.5863C13.742 24.7649 13.7548 24.957 13.7505 25.1803C13.7377 26.6231 13.7248 28.0704 13.7077 29.5131C13.7077 29.5489 13.7034 29.5846 13.6991 29.6427H11C11.0685 24.4121 11.1371 19.1993 11.2056 14H13.9005C13.8662 16.421 13.8362 18.8063 13.8019 21.2362C13.8833 21.187 13.9262 21.1736 13.9476 21.1424C14.7616 19.9944 15.5628 18.8375 16.3854 17.6985C17.2337 16.5237 18.1034 15.3624 18.9646 14.1965C19.0031 14.1429 19.0845 14.1027 19.1488 14.1027C19.8857 14.0983 20.6183 14.0983 21.3552 14.1072C21.6722 14.1117 21.9893 14.1474 22.3406 14.1697C22.1521 14.4154 21.9807 14.6521 21.8008 14.88C21.2567 15.5678 20.7168 16.2557 20.1685 16.9391C19.4958 17.7789 18.8146 18.6186 18.1377 19.4584C17.8249 19.847 17.5207 20.2401 17.1994 20.6198C17.1009 20.7359 17.1566 20.8297 17.2037 20.919C17.5722 21.6069 17.9449 22.2948 18.3219 22.9738C18.8317 23.885 19.4358 24.7292 20.1213 25.5064C21.0296 26.5427 22.1392 27.2395 23.4502 27.5522C24.05 27.6951 24.667 27.7487 25.2796 27.8157C25.7681 27.8693 26.2608 27.8917 26.7535 27.9006C27.4475 27.914 28.1287 27.8157 28.7671 27.512C29.5254 27.1502 29.9796 26.5516 30.0909 25.6806C30.1809 24.9883 30.0695 24.3451 29.6454 23.8001C29.2769 23.3222 28.7714 23.0274 28.2016 22.9023C27.7389 22.7996 27.2633 22.737 26.792 22.6924C26.355 22.6522 25.9137 22.6566 25.4724 22.6521C25.3396 22.6477 25.3225 22.7504 25.3225 22.8666C25.3096 24.019 25.2968 25.1759 25.2839 26.3283C25.2754 26.6589 25.2796 26.9983 25.2796 27.4048ZM25.4039 20.6108C26.0166 20.6108 26.6421 20.6287 27.2676 20.6019C27.5546 20.593 27.846 20.526 28.1244 20.45C29.1355 20.1642 29.8596 19.3735 29.7825 18.1764C29.7439 17.6047 29.534 17.1312 29.1056 16.7783C28.6257 16.3853 28.0516 16.2334 27.4647 16.2021C26.8606 16.1709 26.2565 16.2334 25.6524 16.2334C25.4253 16.2334 25.4039 16.3361 25.4082 16.5282C25.4167 17.0642 25.4082 17.6002 25.4082 18.1362C25.4039 18.9492 25.4039 19.7577 25.4039 20.6108Z" fill="white"/>
</g>
<defs>
<clipPath id="clip0">
<rect width="22" height="16" fill="white" transform="translate(11 14)"/>
</clipPath>
</defs>
</svg>
