<svg xmlns="http://www.w3.org/2000/svg" width="20" height="20" fill="none" viewBox="0 0 20 20">
    <path fill="#D0D0D0" fill-rule="evenodd" d="M12.778 7.652H15.663c.733 0 1.173.366 1.296 1.1.098.562.024 1.1-.245 1.589-.024.049-.049.146-.024.195.146.562.049 1.125-.22 1.638-.05.098-.074.171-.05.293.147.563.025 1.1-.22 1.614-.024.073-.048.171-.048.244.073.587.049 1.15-.22 1.663-.318.586-.831.83-1.467.83H9.038c-.073 0-.17 0-.244-.024-.22-.024-.27-.122-.27-.342V8.63c0-.097.05-.22.099-.317.415-.807.855-1.638 1.27-2.445.27-.513.294-1.051.27-1.589-.025-.367-.05-.733-.074-1.124-.024-.587.49-1.125 1.076-1.15.318-.024.587.05.831.245.098.073.171.147.22.244.514.978.807 2.005.758 3.13-.024.513-.122 1.026-.171 1.564 0 .147-.025.293-.025.465zM7.718 8.532v8.58c0 .318-.318.587-.587.587H3.684c-.22 0-.366-.098-.488-.269-.147-.22-.196-.465-.196-.709V9.583c0-.318.073-.611.269-.856.122-.146.269-.22.464-.22h3.838c.05 0 .098.025.147.025z" clip-rule="evenodd"/>
</svg>
