<svg xmlns="http://www.w3.org/2000/svg" width="42" height="42" fill="none" viewBox="0 0 42 42">
    <path fill="#fff" d="M17.392 32.031l-4.94 4.933c-2.058 2.056-5.351 2.056-7.41 0-2.058-2.055-2.058-5.344 0-7.4l9.949-9.934c2.058-2.056 5.352-2.056 7.41 0 .686.685 1.784.685 2.47 0 .686-.685.686-1.782 0-2.467-3.43-3.426-8.988-3.426-12.418 0l-9.88 9.866c-3.43 3.426-3.43 8.976 0 12.402 3.43 3.425 8.988 3.425 12.418 0l4.94-4.933c.686-.686.686-1.782 0-2.467-.755-.685-1.853-.685-2.539 0z"/>
    <path fill="#fff" d="M39.416 2.57c-3.43-3.426-8.988-3.426-12.418 0l-5.97 5.96c-.685.685-.685 1.782 0 2.467.687.685 1.784.685 2.47 0l5.97-5.961c2.058-2.056 5.351-2.056 7.41 0 2.057 2.055 2.057 5.344 0 7.4l-10.91 10.893c-2.058 2.056-5.351 2.056-7.41 0-.685-.685-1.783-.685-2.47 0-.685.686-.685 1.782 0 2.467 3.431 3.426 8.988 3.426 12.419 0l10.909-10.894c3.43-3.357 3.43-8.907 0-12.333z"/>
</svg>
