<svg width="32" height="32" viewBox="0 0 32 32" fill="none" xmlns="http://www.w3.org/2000/svg">
<path d="M23.9654 4H10.6607C9.95534 4.00087 9.27907 4.28381 8.78027 4.78678C8.28147 5.28974 8.00086 5.97166 8 6.68295V22.7816C7.9997 23.134 8.06831 23.483 8.20191 23.8087C8.33552 24.1343 8.5315 24.4302 8.77863 24.6794C9.02577 24.9286 9.31921 25.1262 9.64216 25.261C9.96512 25.3957 10.3112 25.4649 10.6607 25.4646H11.0407V26.6143C11.0401 26.6906 11.0622 26.7653 11.1041 26.8288C11.1459 26.8924 11.2056 26.9419 11.2756 26.971C11.3455 27.0001 11.4225 27.0075 11.4966 26.9922C11.5707 26.977 11.6387 26.9397 11.6917 26.8853L12.9434 25.623L14.1952 26.8853C14.2482 26.9397 14.3162 26.977 14.3903 26.9922C14.4644 27.0075 14.5414 27.0001 14.6113 26.971C14.6813 26.9419 14.741 26.8924 14.7828 26.8288C14.8247 26.7653 14.8468 26.6906 14.8462 26.6143V22.3981H23.9691V23.1647H15.6023V23.9313H23.9649V24.6979H15.6023V25.4646H23.9649C24.1665 25.4643 24.3597 25.3835 24.5023 25.2398C24.6448 25.096 24.725 24.9012 24.7252 24.6979V4.76663C24.725 4.56346 24.6449 4.36868 24.5024 4.22498C24.36 4.08128 24.1669 4.00037 23.9654 4ZM8.75982 6.68295C8.76043 6.1749 8.96086 5.68784 9.31713 5.32859C9.6734 4.96934 10.1564 4.76725 10.6603 4.76663H23.9645V20.0991H10.6607C10.3065 20.0989 9.95581 20.1703 9.62939 20.309C9.30297 20.4478 9.00744 20.6511 8.76028 20.907L8.75982 6.68295ZM8.79795 22.3981H11.0411V23.1647H8.79841C8.74743 22.9117 8.74743 22.651 8.79841 22.3981H8.79795ZM10.6603 24.6956C10.3653 24.6951 10.0744 24.6257 9.81057 24.4926C9.54672 24.3596 9.31708 24.1667 9.13972 23.929H11.0411V24.6956H10.6603ZM14.0813 25.6868L13.2099 24.8081C13.1746 24.7725 13.1327 24.7443 13.0866 24.725C13.0405 24.7057 12.991 24.6958 12.9411 24.6958C12.8912 24.6958 12.8418 24.7057 12.7956 24.725C12.7495 24.7443 12.7076 24.7725 12.6723 24.8081L11.8009 25.6868V22.3981H14.0794L14.0813 25.6868ZM9.14158 21.63C9.31842 21.392 9.54782 21.1988 9.8116 21.0657C10.0754 20.9327 10.3663 20.8634 10.6612 20.8634H23.9654V21.63H9.14158Z" fill="white" stroke="white" stroke-width="0.4"/>
<path d="M10.2808 5.53325H11.0411V19.332H10.2808V5.53325Z" fill="white" stroke="white" stroke-width="0.4"/>
<path d="M13.3215 10.8996H21.6836C21.7336 10.8997 21.783 10.8898 21.8292 10.8706C21.8753 10.8514 21.9172 10.8232 21.9526 10.7876C21.9879 10.752 22.0159 10.7098 22.035 10.6633C22.0542 10.6168 22.064 10.5669 22.064 10.5166V8.21902C22.0644 8.16844 22.0548 8.11828 22.0359 8.07145C22.0169 8.02462 21.9889 7.98203 21.9536 7.94616C21.9182 7.91028 21.8761 7.88182 21.8298 7.86242C21.7835 7.84302 21.7338 7.83307 21.6836 7.83313H13.3215C13.2207 7.83313 13.1241 7.87349 13.0529 7.94533C12.9816 8.01717 12.9416 8.11461 12.9416 8.21621V10.5137C12.9412 10.5643 12.9508 10.6144 12.9697 10.6612C12.9886 10.708 13.0165 10.7506 13.0519 10.7864C13.0872 10.8223 13.1292 10.8508 13.1755 10.8702C13.2217 10.8896 13.2714 10.8996 13.3215 10.8996ZM13.7014 8.6021H21.3037V10.1354H13.7019L13.7014 8.6021Z" fill="white" stroke="white" stroke-width="0.4"/>
</svg>
