<svg width="32" height="32" viewBox="0 0 32 32" fill="none" xmlns="http://www.w3.org/2000/svg">
<path d="M16.0084 6C18.7792 6 21.5501 6 24.327 6C25.0859 6 25.2245 6.0979 25.4594 6.77165C25.9052 8.05004 26.387 9.31117 26.7846 10.6011C27.2605 12.1501 26.9653 13.5552 25.7245 14.7127C25.4956 14.9258 25.3992 15.1273 25.3992 15.4325C25.4112 18.4615 25.4052 21.4963 25.4052 24.5253C25.4052 26.0801 24.4655 26.9899 22.8512 26.9957C18.2853 27.0014 13.7254 27.0014 9.15951 26.9957C7.53313 26.9957 6.58742 26.0858 6.59345 24.5425C6.59345 21.4963 6.59947 18.45 6.5814 15.4095C6.5814 15.1964 6.46695 14.9258 6.30431 14.776C5.03935 13.584 4.73215 12.1674 5.22006 10.5838C5.60557 9.31693 6.07542 8.07884 6.50912 6.82923C6.77415 6.07486 6.88258 6 7.73793 6C10.4907 6 13.2495 6 16.0084 6ZM12.858 25.4812C12.858 25.2566 12.858 25.0838 12.858 24.9111C12.858 22.9359 12.858 20.955 12.858 18.9798C12.858 18.2254 13.111 17.9951 13.9061 17.9893C15.2855 17.9893 16.6649 17.9893 18.0443 17.9893C18.8756 17.9893 19.1226 18.2139 19.1226 18.9971C19.1226 20.9895 19.1226 22.982 19.1226 24.9744C19.1226 25.1299 19.1226 25.2854 19.1226 25.4869C20.3695 25.4869 21.5621 25.4869 22.7548 25.4869C23.6222 25.4869 23.827 25.2796 23.827 24.4389C23.827 21.669 23.827 18.9049 23.827 16.1351C23.827 15.9968 23.8089 15.8529 23.8029 15.6801C22.6343 15.8414 21.6043 15.6168 20.7128 14.9949C19.1949 15.8932 17.713 15.9681 16.2011 15.1215C16.0927 15.064 15.8819 15.0697 15.7674 15.1331C14.3579 15.9105 12.9484 15.922 11.5449 15.1331C11.3401 15.0179 11.2136 15.0179 11.0208 15.1388C10.2799 15.6053 9.45466 15.7838 8.56919 15.7089C8.4427 15.6974 8.31018 15.7089 8.15356 15.7089C8.15356 16.8664 8.15356 17.9778 8.15356 19.0892C8.15356 20.9204 8.14754 22.7516 8.15356 24.5828C8.15356 25.1529 8.38246 25.4581 8.8764 25.4639C10.1835 25.4985 11.4846 25.4812 12.858 25.4812ZM25.3871 12.0407C19.1045 12.0407 12.858 12.0407 6.54526 12.0407C6.62959 12.3574 6.67175 12.6339 6.78018 12.8815C7.43675 14.3557 9.36431 14.6954 10.5931 13.5667C11.075 13.1233 11.4666 13.1061 11.9063 13.5034C12.9905 14.4766 14.2736 14.4708 15.3819 13.4861C15.7674 13.1464 16.2252 13.1003 16.5625 13.4631C17.5143 14.4939 19.2792 14.4248 20.1526 13.4458C20.4478 13.1118 20.9116 13.1464 21.261 13.44C21.3995 13.5552 21.52 13.6934 21.6645 13.7971C22.4597 14.3441 23.315 14.4075 24.1704 13.9641C24.9534 13.561 25.363 12.916 25.3871 12.0407ZM17.5444 19.5211C16.4842 19.5211 15.4662 19.5211 14.4603 19.5211C14.4603 21.5193 14.4603 23.483 14.4603 25.4524C15.5084 25.4524 16.5204 25.4524 17.5444 25.4524C17.5444 23.4657 17.5444 21.5078 17.5444 19.5211ZM12.093 7.52602C12.093 8.51649 12.093 9.48968 12.093 10.4629C13.1411 10.4629 14.1531 10.4629 15.1651 10.4629C15.1651 9.46665 15.1651 8.50497 15.1651 7.52602C14.129 7.52602 13.1291 7.52602 12.093 7.52602ZM19.8936 7.53177C18.8395 7.53177 17.8335 7.53177 16.8155 7.53177C16.8155 8.528 16.8155 9.49544 16.8155 10.4802C17.8576 10.4802 18.8575 10.4802 19.8936 10.4802C19.8936 9.48968 19.8936 8.528 19.8936 7.53177ZM10.4727 7.50298C9.67151 7.50298 8.92459 7.49722 8.17766 7.50874C8.08128 7.50874 7.91864 7.57784 7.89455 7.64695C7.5512 8.57983 7.23195 9.51848 6.89463 10.4686C8.12344 10.4686 9.29203 10.4686 10.4727 10.4686C10.4727 9.47817 10.4727 8.52225 10.4727 7.50298ZM21.532 7.50298C21.532 8.53952 21.532 9.51272 21.532 10.4802C22.7307 10.4802 23.8812 10.4802 25.092 10.4802C24.7547 9.51848 24.4354 8.59135 24.1041 7.67574C24.074 7.60088 23.9294 7.5145 23.833 7.5145C23.0741 7.49722 22.3091 7.50298 21.532 7.50298Z" fill="#C0C1C4"/>
</svg>
