<svg xmlns="http://www.w3.org/2000/svg" width="45" height="62" fill="none" viewBox="0 0 45 62">
    <path fill="#fff" d="M1.514 0h30.958c3.814 4.425 7.572 8.85 11.385 13.218.73.84 1.066 1.68 1.066 2.8-.056 14.226 0 28.452 0 42.622 0 2.576-.785 3.36-3.365 3.36H3.478C.784 62 .055 61.216.055 58.528c0-18.37 0-36.685-.056-55.056C0 2.072.393.896 1.514 0zm20.92 41.277h18.395c.897 0 1.626.056 1.626-1.288-.056-7.56-.056-15.066 0-22.627 0-1.064-.392-1.344-1.402-1.344-2.86.056-5.72 0-8.58.056-1.403.056-1.964-.504-1.964-1.96.056-3.305-.056-6.553.056-9.857.057-1.345-.28-1.905-1.794-1.905-8.188.056-16.377.056-24.62 0-1.403 0-1.74.392-1.74 1.737.057 11.817.057 23.579 0 35.396 0 1.344.337 1.736 1.74 1.736 6.112 0 12.225.056 18.282.056zm-5.665 10.25v6.16c0 .617-.056 1.289.841 1.345 2.916.112 5.833.392 8.525-1.064 2.692-1.4 3.982-4.425 3.477-8.122-.392-2.744-2.243-4.704-5.16-5.376-2.075-.504-4.206-.336-6.337-.224-1.066.056-1.402.56-1.346 1.624.056 1.904 0 3.752 0 5.657zm-12.731.112c0 1.96.056 3.864-.056 5.824-.056 1.345.449 1.625 1.682 1.625 1.234 0 1.795-.28 1.683-1.625-.112-1.064-.337-2.352.112-3.248.505-1.12 1.963-.392 2.973-.616 2.523-.56 4.15-2.296 4.15-4.76 0-2.409-1.402-4.09-4.094-4.537-1.739-.336-3.534-.168-5.272-.056-.898.056-1.234.392-1.234 1.4.112 2.016.056 3.976.056 5.993zm27.817 0c0 2.016.056 3.976 0 5.992 0 .953.225 1.345 1.29 1.457 1.683.112 2.188-.448 2.131-2.129-.112-3.808 0-3.864 3.702-3.864 1.178 0 1.57-.28 1.57-1.512 0-1.344-.729-1.233-1.626-1.233h-2.748c-.449 0-.785-.056-.954-.616-.504-1.792.113-2.688 1.963-2.688.785 0 1.57-.056 2.356 0 1.065.112 1.346-.392 1.29-1.4-.056-.896-.056-1.512-1.234-1.456-2.187.056-4.375.056-6.562 0-.953 0-1.29.336-1.29 1.288.169 2.016.112 4.088.112 6.16z"/>
    <path fill="#fff" d="M31.182 25.875c1.683.168 3.253.168 4.711.448 1.515.28 2.805.953 3.197 2.577.337 1.344-.056 2.576-1.234 3.36-1.346.952-2.804.672-4.094-.112-1.29-.784-2.636-1.512-3.757-2.52-1.683-1.512-3.534-1.904-5.665-1.568-3.477.504-6.954 1.12-10.207 2.408-.953.392-1.458.84-1.682 1.904-.337 1.568-.954 3.025-2.132 4.145-1.29 1.344-2.916 1.624-3.87.784-.953-.896-.84-2.857.337-4.145.954-1.064 2.02-1.96 3.253-2.632.953-.504 1.402-1.232 1.626-2.24.786-3.36 1.57-6.721 2.468-10.082.337-1.232.056-2.072-.841-2.856-.898-.784-1.627-1.792-2.075-2.968-.673-1.793.056-3.473 1.738-3.977 1.57-.504 2.973.336 3.421 2.296.225.897.393 1.849.225 2.689-.337 2.072.505 3.416 2.075 4.648 2.243 1.793 4.374 3.697 6.506 5.545 1.682 1.736 3.533 3.08 6 2.296zm-6.169.28c-2.916-2.52-5.552-4.872-8.188-7.169-.336-.28-.841-.896-1.066-.056-.84 3.137-1.57 6.273-2.411 9.802 3.926-1.4 7.683-2.072 11.665-2.577zm6.001 2.073c1.29.84 2.58 1.736 3.926 2.52.841.448 1.85.616 2.3-.504.504-1.232-.393-1.792-1.403-2.016-1.57-.392-3.14-.504-4.823 0zM14.526 14.114c.28-1.176.224-2.128-.112-3.08-.169-.505-.393-.953-1.01-.785-.617.168-.841.672-.673 1.288.224 1.009.841 1.737 1.795 2.577zm-4.319 18.65c-1.234.672-1.907 1.288-2.467 2.128-.169.224-.225.617 0 .84.28.28.56.057.785-.111.84-.672 1.402-1.513 1.682-2.857zM21.536 46.71c3.085.056 4.823 1.96 4.711 4.985-.168 3.136-2.187 5.04-5.16 4.872-1.01-.056-1.01-.616-1.01-1.288 0-2.352.057-4.76 0-7.113-.055-1.288.506-1.624 1.46-1.456zM7.347 48.95c.112-1.064-.505-2.464 1.458-2.296 1.627.112 2.58.896 2.524 2.24 0 1.4-1.122 2.24-2.748 2.297-2.075.056-.898-1.569-1.234-2.24z"/>
</svg>
