<svg xmlns="http://www.w3.org/2000/svg" width="45" height="62" fill="none" viewBox="0 0 45 62">
    <path fill="#fff" d="M0 30.802V3.34C0 .736.794 0 3.402 0h27.272c1.134 0 1.927.283 2.721 1.189 3.572 4.133 7.2 8.267 10.773 12.343.567.623.794 1.303.794 2.152v43.315c0 2.152-.85 3.001-3.006 3.001H3.118C.85 62 .057 61.15.057 58.886 0 49.486 0 40.144 0 30.802zm22.51 10.475h18.426c1.134 0 1.644-.227 1.587-1.53-.056-7.36-.056-14.777 0-22.138 0-1.189-.34-1.642-1.53-1.585-2.665.056-5.273.056-7.938 0-2.211 0-2.438-.227-2.438-2.378 0-3.284-.057-6.512 0-9.796 0-1.076-.17-1.529-1.418-1.529-8.39.057-16.839.057-25.23 0-1.247 0-1.531.453-1.531 1.586.057 11.89.057 23.724 0 35.615 0 1.472.51 1.698 1.814 1.698 6.067 0 12.19.057 18.257.057zm-5.047 10.475c0 1.925.113 3.793-.057 5.718-.056 1.36.51 1.586 1.701 1.586 1.248 0 1.758-.34 1.645-1.642-.114-1.02-.284-2.209.113-3.114.51-1.133 1.928-.17 2.835-.623l.51-.17c2.722-.736 4.026-2.548 3.799-5.266-.227-2.265-1.871-3.794-4.536-3.963-1.588-.114-3.175 0-4.763 0-.907 0-1.304.453-1.304 1.358.114 2.039.057 4.077.057 6.116zm-12.644.056c0 1.869.114 3.68-.056 5.55-.114 1.415.397 1.754 1.757 1.698 1.304 0 1.815-.397 1.588-1.642-.057-.51.057-.963 0-1.473-.227-1.585.283-2.378 2.04-2.151.625.057 1.362-.17 1.985-.396 2.155-.736 3.459-2.662 3.289-4.757-.114-2.151-1.474-3.736-3.742-4.19-1.928-.396-3.912-.17-5.897-.056-.964.056-1.02.68-.964 1.415v6.002zm28.293 1.19c0 1.585.056 3.227 0 4.812-.114 1.585.963 1.19 1.814 1.246.964.056 1.644.056 1.587-1.303-.113-2.49-.056-5.039-.056-7.53 0-2.831 0-2.888 2.778-3.001 1.19-.057 1.247-.623 1.247-1.529.057-1.019-.226-1.415-1.304-1.415-2.891.056-5.783.056-8.674 0-1.134-.057-1.361.34-1.475 1.472-.113 1.755 1.02 1.529 2.041 1.415 1.645-.226 2.212.397 2.042 2.039-.114 1.189 0 2.491 0 3.793z"/>
    <path fill="#fff" d="M20.752 20.78c0 1.585-.624 3.68.17 4.643.907 1.076 3.118.283 4.762.34 1.248.056 2.438.056 3.686 0 .963-.057 1.304.283 1.134 1.245-.624 4.926-5.16 8.833-10.093 8.663-5.103-.17-9.355-4.19-9.695-9.116-.34-5.265 3.175-9.795 8.165-10.701 1.303-.227 1.984 0 1.814 1.529-.114 1.075 0 2.208 0 3.34l.056.057z"/>
    <path fill="#fff" d="M21.829 24.234c2.381-2.435 4.422-4.53 6.463-6.625.567-.623.964-.226 1.304.227 1.19 1.528 1.928 3.227 2.212 5.152.17 1.076-.227 1.246-1.191 1.246-2.665-.057-5.443 0-8.788 0zM21.829 21.912v-8.436c0-.85.396-1.076 1.134-.963 2.04.17 3.798.963 5.33 2.265.453.396.566.736.056 1.19-2.041 2.038-4.082 4.076-6.067 6.114-.17-.056-.34-.113-.453-.17zM20.751 49.034c.057-1.133-.453-2.435 1.474-2.322 1.701.114 2.552.793 2.552 2.208 0 1.416-1.077 2.322-2.722 2.379-2.04.056-1.02-1.53-1.304-2.265zM8.108 48.864c.17-.85-.624-2.265 1.36-2.152 1.645.113 2.609.85 2.609 2.152 0 1.359-1.134 2.321-2.722 2.378-1.247.057-1.247.057-1.247-2.378z"/>
</svg>
