<svg width="20" height="20" viewBox="0 0 20 20" fill="none" xmlns="http://www.w3.org/2000/svg">
<path fill-rule="evenodd" clip-rule="evenodd" d="M9.44708 15.2958C9.02708 15.2958 8.60708 15.2818 8.18908 15.2978C7.45908 15.3258 7.05908 15.0438 6.86308 14.2678C6.49808 12.8198 5.70808 11.6878 4.63008 10.5698C2.06008 7.9058 2.52108 3.2518 6.06608 0.891802C7.82608 -0.279198 11.0921 -0.378198 13.0741 1.0828C15.2161 2.6638 16.3991 5.4128 15.8771 7.8468C15.6461 8.9268 15.1131 9.8118 14.3021 10.5308C13.2681 11.4478 12.4561 12.5628 12.1501 13.8948C11.8601 15.1508 11.1781 15.4468 10.0761 15.3008C9.86908 15.2728 9.65608 15.2968 9.44608 15.2958H9.44708ZM5.62708 7.9118C6.22508 5.3758 7.21008 3.1818 9.94408 2.2478C7.19908 1.2588 4.71508 5.2478 5.62808 7.9118H5.62708Z" fill="#FF2727"/>
<path d="M7.9391 19.0003H10.8251M7.2251 16.4463H11.5391H7.2251ZM7.2251 17.7233H11.5391H7.2251Z" stroke="#FF2727" stroke-width="1.5" stroke-miterlimit="10" stroke-linecap="round"/>
</svg>
