<svg xmlns="http://www.w3.org/2000/svg" width="32" height="32" fill="none" viewBox="0 0 32 32">
    <path fill="#fff" stroke="#fff" stroke-width=".4" d="M23.965 4H10.661c-.706 0-1.382.284-1.88.787C8.28 5.29 8 5.972 8 6.683v16.099c0 .352.068.701.202 1.027.134.325.33.621.577.87.247.25.54.447.863.582.323.135.67.204 1.019.204h.38v1.15c0 .076.021.15.063.214.042.063.102.113.172.142.07.03.146.037.22.021.075-.015.143-.052.196-.107l1.251-1.262 1.252 1.262c.053.055.121.092.195.107.074.015.151.008.221-.021.07-.03.13-.079.172-.142.042-.064.064-.138.063-.215v-4.216h9.123v.767h-8.367v.766h8.363v.767h-8.363v.767h8.363c.201 0 .395-.081.537-.225.143-.144.223-.339.223-.542V4.767c0-.204-.08-.398-.223-.542-.142-.144-.335-.225-.537-.225zM8.76 6.683c0-.508.2-.995.557-1.354.356-.36.84-.562 1.343-.562h13.305v15.332H10.66c-.354 0-.705.071-1.032.21-.326.139-.622.342-.869.598V6.683zm.038 15.715h2.243v.767H8.798c-.05-.253-.05-.514 0-.767h0zm1.862 2.298c-.295 0-.586-.07-.85-.203-.263-.133-.493-.326-.67-.564h1.901v.767h-.38zm3.421.99l-.871-.878c-.035-.035-.077-.064-.123-.083-.046-.02-.096-.03-.146-.03-.05 0-.1.01-.145.03-.046.02-.088.047-.124.083l-.871.879v-3.289h2.278l.002 3.289zm-4.94-4.056c.177-.238.407-.431.67-.564.264-.133.555-.203.85-.203h13.304v.767H9.142z"/>
    <path fill="#fff" stroke="#fff" stroke-width=".4" d="M10.28 5.533h.761v13.799h-.76V5.533zM13.322 10.9h8.362c.05 0 .099-.01.145-.03.046-.019.088-.047.124-.082.035-.036.063-.078.082-.125.02-.046.029-.096.029-.146V8.219c0-.05-.01-.1-.028-.148-.02-.046-.047-.089-.082-.125-.036-.036-.078-.064-.124-.084-.046-.019-.096-.029-.146-.029H13.32c-.1 0-.197.04-.268.112-.071.072-.111.17-.111.271v2.298c0 .05.009.1.028.147.019.047.046.09.082.125.035.036.077.065.123.084.047.02.096.03.146.03zm.38-2.298h7.602v1.533h-7.602V8.602z"/>
</svg>
