<svg xmlns="http://www.w3.org/2000/svg" width="32" height="32" fill="none" viewBox="0 0 32 32">
    <path fill="#C0C1C4" fill-rule="evenodd" stroke="#C0C1C4" stroke-width=".8" d="M21.7 8.533c.626 0 1.177.011 1.727-.003.401-.011.571.15.57.573C23.992 15.2 23.99 21.3 24 27.398c0 .489-.246.563-.63.562-1.692-.006-3.384-.002-5.075-.002H8.8c-.777 0-.799-.024-.799-.79V9.332c0-.79.01-.8.793-.8h1.5c0-.345.016-.632-.003-.916-.028-.42.157-.59.559-.586.753.01 1.507-.01 2.26.009.298.007.432-.094.54-.384.39-1.05 1.29-1.662 2.36-1.656 1.079.007 1.938.607 2.343 1.68.102.27.228.366.506.36.737-.018 1.475.01 2.211-.012.478-.014.68.177.635.666-.023.251-.004.507-.004.84zm-12.917.812V27.17h14.424V9.336H21.7c0 .363.002.7 0 1.036-.004.646-.056.702-.692.702-2.496.002-4.993 0-7.49 0-.887 0-1.775-.008-2.663.004-.408.006-.583-.168-.565-.583.016-.371.003-.744.003-1.15h-1.51zm2.266.9h9.877V7.84c-.077-.016-.11-.028-.143-.028-.786-.002-1.573-.018-2.36.002-.416.01-.626-.1-.697-.575-.13-.875-.89-1.482-1.73-1.482s-1.599.607-1.73 1.483c-.07.476-.282.584-.698.573-.83-.02-1.662-.005-2.519-.005v2.437z" clip-rule="evenodd"/>
    <path fill="#C0C1C4" fill-rule="evenodd" stroke="#C0C1C4" stroke-width=".8" d="M18.36 15.354c-1.02 0-2.04.002-3.06-.001-.273-.001-.59 0-.6-.375-.012-.416.314-.401.61-.4 2.007.002 4.014 0 6.021 0 .034 0 .067.002.1 0 .28-.015.529.052.53.388 0 .348-.278.385-.54.386-1.02.004-2.04.001-3.06.002zM18.304 19.908c-1.003 0-2.006-.003-3.01.001-.278.002-.583.013-.597-.364-.013-.375.282-.404.568-.404h6.12c.28 0 .585.015.573.395-.012.372-.312.374-.594.373-1.02-.004-2.04-.001-3.06-.001zM18.362 23.705c1.002 0 2.005.002 3.008-.001.281 0 .582.005.589.379.007.386-.31.386-.581.386-2.04.003-4.078.002-6.117.001-.28 0-.578-.025-.562-.408.014-.343.286-.36.554-.359 1.036.005 2.072.002 3.109.002zM11.358 15.482c.595-.627 1.053-1.15 1.559-1.617.14-.13.426-.096.644-.138-.038.223-.001.515-.127.658-.525.596-1.102 1.144-1.653 1.716-.243.252-.471.294-.728.02-.289-.309-.613-.586-.873-.917-.095-.121-.05-.356-.068-.54.193.002.444-.074.566.021.244.193.419.48.68.797zM11.374 24.605c.572-.609 1.027-1.133 1.53-1.604.143-.134.51-.23.626-.141.275.21.109.475-.101.687-.537.54-1.077 1.076-1.597 1.631-.29.31-.54.354-.837.015-.256-.292-.569-.537-.799-.848-.098-.133-.047-.38-.064-.575.193.015.438-.039.569.062.235.18.403.451.673.773zM11.408 20.014l1.483-1.578c.196-.208.442-.426.662-.125.088.12-.003.495-.133.643-.515.584-1.084 1.117-1.621 1.681-.285.3-.536.289-.81-.007-.265-.286-.573-.534-.802-.846-.096-.131-.034-.381-.045-.578.19.014.429-.04.562.057.24.174.419.437.704.753z" clip-rule="evenodd"/>
</svg>
