<svg xmlns="http://www.w3.org/2000/svg" width="20" height="20" fill="none" viewBox="0 0 20 20">
    <circle cx="9.5" cy="10.5" r="9.5" fill="#52CB7B"/>
    <path fill="#fff" fill-rule="evenodd" d="M9.86 13.881c-.28 0-.562-.008-.843.001-.489.016-.757-.148-.888-.6-.244-.845-.773-1.506-1.495-2.158C4.912 9.57 5.22 6.856 7.595 5.48c1.179-.683 3.368-.742 4.695.111 1.435.923 2.228 2.526 1.878 3.946-.155.63-.512 1.146-1.056 1.565-.692.535-1.236 1.185-1.441 1.962-.194.733-.651.906-1.39.82-.138-.015-.28-.001-.42-.002zM7.302 9.574c.4-1.48 1.06-2.76 2.891-3.305-1.838-.576-3.502 1.75-2.891 3.305z" clip-rule="evenodd"/>
    <path stroke="#fff" stroke-linecap="round" stroke-miterlimit="10" d="M8.372 14.552h2.89M8.372 15.297h2.89M8.85 16.042h1.934"/>
</svg>
