<svg width="32" height="32" viewBox="0 0 32 32" fill="none" xmlns="http://www.w3.org/2000/svg">
<path d="M8.67188 16.9297C7.38542 16.5599 6.44792 16.1068 5.85938 15.5703C5.27604 15.0286 4.98438 14.362 4.98438 13.5703C4.98438 12.6745 5.34115 11.9349 6.05469 11.3516C6.77344 10.763 7.70573 10.4688 8.85156 10.4688C9.63281 10.4688 10.3281 10.6198 10.9375 10.9219C11.5521 11.224 12.026 11.6406 12.3594 12.1719C12.6979 12.7031 12.8672 13.2839 12.8672 13.9141H11.3594C11.3594 13.2266 11.1406 12.6875 10.7031 12.2969C10.2656 11.901 9.64844 11.7031 8.85156 11.7031C8.11198 11.7031 7.53385 11.8672 7.11719 12.1953C6.70573 12.5182 6.5 12.9688 6.5 13.5469C6.5 14.0104 6.69531 14.4036 7.08594 14.7266C7.48177 15.0443 8.15104 15.3359 9.09375 15.6016C10.0417 15.8672 10.7812 16.1615 11.3125 16.4844C11.849 16.8021 12.2448 17.1745 12.5 17.6016C12.7604 18.0286 12.8906 18.5312 12.8906 19.1094C12.8906 20.0312 12.5312 20.7708 11.8125 21.3281C11.0938 21.8802 10.1328 22.1562 8.92969 22.1562C8.14844 22.1562 7.41927 22.0078 6.74219 21.7109C6.0651 21.4089 5.54167 20.9974 5.17188 20.4766C4.80729 19.9557 4.625 19.3646 4.625 18.7031H6.13281C6.13281 19.3906 6.38542 19.9349 6.89062 20.3359C7.40104 20.7318 8.08073 20.9297 8.92969 20.9297C9.72135 20.9297 10.3281 20.7682 10.75 20.4453C11.1719 20.1224 11.3828 19.6823 11.3828 19.125C11.3828 18.5677 11.1875 18.138 10.7969 17.8359C10.4062 17.5286 9.69792 17.2266 8.67188 16.9297ZM16.4297 22H14.9297V10.625H16.4297V22ZM19.1797 22V10.625H22.8984C24.1328 10.625 25.0599 10.8802 25.6797 11.3906C26.3047 11.901 26.6172 12.6562 26.6172 13.6562C26.6172 14.1875 26.4661 14.6589 26.1641 15.0703C25.862 15.4766 25.4505 15.7917 24.9297 16.0156C25.5443 16.1875 26.0286 16.5156 26.3828 17C26.7422 17.4792 26.9219 18.0521 26.9219 18.7188C26.9219 19.7396 26.5911 20.5417 25.9297 21.125C25.2682 21.7083 24.3333 22 23.125 22H19.1797ZM20.6797 16.6797V20.7734H23.1562C23.8542 20.7734 24.4036 20.5938 24.8047 20.2344C25.2109 19.8698 25.4141 19.3698 25.4141 18.7344C25.4141 17.3646 24.6693 16.6797 23.1797 16.6797H20.6797ZM20.6797 15.4766H22.9453C23.6016 15.4766 24.125 15.3125 24.5156 14.9844C24.9115 14.6562 25.1094 14.2109 25.1094 13.6484C25.1094 13.0234 24.9271 12.5703 24.5625 12.2891C24.1979 12.0026 23.6432 11.8594 22.8984 11.8594H20.6797V15.4766Z" fill="white"/>
</svg>
