<svg width="32" height="32" viewBox="0 0 32 32" fill="none" xmlns="http://www.w3.org/2000/svg">
<path d="M8.71788 27.9059C6.70464 27.1006 6 25.6914 6 23.6781C6.10066 19.3496 6 15.0212 6 10.6927C6 8.37746 7.71126 6.86752 10.0265 7.16951C10.0265 7.57216 10.0265 7.97481 10.0265 8.37746C9.92583 8.37746 9.7245 8.37746 9.62384 8.47812C8.21457 8.67944 7.50993 9.38408 7.50993 10.894C7.50993 13.8132 7.50993 16.7324 7.50993 19.7523C7.50993 21.2622 7.50993 22.6715 7.50993 24.1814C7.50993 25.6914 8.31523 26.5973 9.82517 26.5973C13.6503 26.5973 17.3748 26.5973 21.2 26.5973C22.7099 26.5973 23.5152 25.792 23.5152 24.1814C23.5152 19.853 23.5152 15.6251 23.5152 11.2967C23.5152 9.18276 23.0119 8.67944 20.898 8.37746C20.898 7.97481 20.898 7.67282 20.898 7.27017C22.7099 6.6662 24.9245 8.2768 24.9245 10.3907C25.0252 15.2225 25.0252 19.9536 24.9245 24.7854C24.9245 26.2953 23.9179 27.302 22.5086 28.0066L8.71788 27.9059ZM19.9921 7.57216C19.9921 9.08209 20.0927 8.88077 18.7841 8.88077C16.4689 8.88077 14.2543 8.88077 11.9391 8.88077C11.2344 8.88077 11.0331 8.67944 11.0331 7.97481C11.0331 6.86752 11.0331 6.86752 12.1404 6.76686C12.543 6.76686 12.9457 6.46487 13.2477 6.26355C13.6503 5.8609 14.053 5.25693 14.4556 4.65295C14.4556 4.65295 14.5563 4.35097 15.2609 4.35097C15.9656 4.35097 15.7642 4.25031 15.7642 4.25031C15.7642 4.25031 16.3682 4.25031 16.4689 4.55229C17.3748 5.55891 17.7775 6.76686 19.4887 6.76686C19.4887 6.76686 19.9921 6.86752 19.9921 7.57216ZM16.4689 6.46487C16.3682 5.76024 16.0662 5.45825 15.3616 5.55891C14.8583 5.65958 14.5563 5.8609 14.5563 6.46487C15.2609 6.46487 15.7642 6.46487 16.4689 6.46487Z" fill="#C0C1C4"/>
<path d="M14.7573 12.0013C14.6566 11.9006 14.4553 11.9007 14.3546 11.9007C14.0526 11.9007 13.8513 11.9007 13.5493 11.9007C13.4487 11.9007 13.348 11.9006 13.1467 12.0013C13.046 12.102 13.046 12.3033 13.046 12.3033C13.046 12.6053 13.046 12.9073 13.046 13.1086V13.5112V14.3165C13.046 15.1218 13.046 15.8265 13.046 16.6318C13.046 16.7324 13.046 16.9338 13.1467 17.0344C13.2473 17.1351 13.348 17.1351 13.4487 17.1351C13.4487 17.1351 13.4487 17.1351 13.5493 17.1351C13.7507 17.1351 14.0526 17.1351 14.254 17.1351C14.3546 17.1351 14.4553 17.1351 14.6566 17.0344C14.7573 16.9338 14.7573 16.7324 14.7573 16.6318C14.7573 16.1285 14.7573 15.6252 14.7573 15.1218V14.5179V13.9139C14.7573 13.4106 14.7573 12.9073 14.7573 12.3033C14.8579 12.3033 14.8579 12.102 14.7573 12.0013Z" fill="#C0C1C4"/>
<path d="M20.8977 14.5179V13.9139C20.8977 13.4106 20.8977 12.9073 20.8977 12.3033C20.8977 12.2026 20.8977 12.0013 20.797 11.9006C20.6963 11.8 20.495 11.8 20.3943 11.8C20.0924 11.8 19.891 11.8 19.5891 11.8C19.4884 11.8 19.2871 11.8 19.2871 11.9006C19.1864 12.0013 19.1864 12.2026 19.1864 12.2026C19.1864 13.7126 19.1864 15.1218 19.1864 16.6318C19.1864 16.7324 19.1864 16.9338 19.2871 16.9338C19.3877 17.0344 19.5891 17.0344 19.5891 17.0344C19.891 17.0344 20.0924 17.0344 20.3943 17.0344C20.495 17.0344 20.5957 17.0344 20.6963 16.9338C20.797 16.8331 20.797 16.6318 20.797 16.5311C20.797 16.0278 20.797 15.5245 20.797 14.9205L20.8977 14.5179Z" fill="#C0C1C4"/>
<path d="M17.8779 15.3232V14.9205C17.8779 14.6185 17.8779 14.2159 17.8779 13.9139C17.8779 13.8132 17.8779 13.7126 17.7772 13.6119C17.6766 13.5112 17.5759 13.5112 17.4752 13.5112C17.1732 13.5112 16.8713 13.5112 16.5693 13.5112C16.4686 13.5112 16.368 13.5112 16.2673 13.6119C16.1666 13.7126 16.1666 13.8132 16.1666 13.9139C16.1666 14.9205 16.1666 15.8265 16.1666 16.7324C16.1666 16.8331 16.1666 17.0344 16.2673 17.0344C16.368 17.1351 16.5693 17.1351 16.5693 17.1351C16.8713 17.1351 17.1732 17.1351 17.3746 17.1351C17.4752 17.1351 17.5759 17.1351 17.6766 17.0344C17.7772 16.9338 17.7772 16.7324 17.7772 16.6318C17.7772 16.3298 17.7772 16.0278 17.7772 15.7258L17.8779 15.3232Z" fill="#C0C1C4"/>
<path d="M11.9388 15.4238V15.0212C11.9388 14.7192 11.9388 14.4172 11.9388 14.1152C11.9388 14.0146 11.9388 13.9139 11.8381 13.7126C11.7374 13.7126 11.6368 13.7126 11.4354 13.7126C11.1335 13.7126 10.8315 13.7126 10.5295 13.7126C10.4288 13.7126 10.3282 13.7126 10.2275 13.8132C10.1268 13.9139 10.1268 14.0146 10.1268 14.1152C10.1268 14.9205 10.1268 15.8265 10.1268 16.6318C10.1268 16.7324 10.1268 16.9338 10.2275 17.0344C10.3282 17.1351 10.5295 17.1351 10.6301 17.1351C10.9321 17.1351 11.2341 17.1351 11.4354 17.1351C11.5361 17.1351 11.6368 17.1351 11.7374 17.0344C11.8381 16.9338 11.8381 16.7324 11.8381 16.6318C11.8381 16.3298 11.8381 16.0278 11.8381 15.7258L11.9388 15.4238Z" fill="#C0C1C4"/>
<path d="M20.1934 20.6583H10.9325C10.6305 20.6583 10.3285 20.3563 10.3285 20.0543V19.9536C10.3285 19.6516 10.6305 19.3497 10.9325 19.3497H20.1934C20.4954 19.3497 20.7974 19.6516 20.7974 19.9536V20.0543C20.7974 20.3563 20.4954 20.6583 20.1934 20.6583Z" fill="#C0C1C4"/>
<path d="M20.1934 23.9801H10.9325C10.6305 23.9801 10.3285 23.6781 10.3285 23.3761V23.2754C10.3285 22.9734 10.6305 22.6714 10.9325 22.6714H20.1934C20.4954 22.6714 20.7974 22.9734 20.7974 23.2754V23.3761C20.7974 23.6781 20.4954 23.9801 20.1934 23.9801Z" fill="#C0C1C4"/>
</svg>
