<svg width="22" height="22" viewBox="0 0 22 22" fill="none" xmlns="http://www.w3.org/2000/svg">
<path d="M4.93804 4.91527C6.29847 3.55507 7.67414 2.20631 9.01551 0.830874C9.91485 -0.0911625 11.2791 -0.201654 12.228 0.282224C12.4871 0.415577 12.7348 0.60227 12.9444 0.808014C15.7033 3.55507 18.4471 6.31737 21.2098 9.05681C22.1625 10.0017 22.273 11.6438 21.4118 12.7259C21.3585 12.7945 21.2899 12.8554 21.2251 12.9164C18.4585 15.6825 15.6919 18.4486 12.9253 21.2147C11.904 22.2358 10.1892 22.2663 9.13365 21.2757C8.83641 20.9976 8.55442 20.7042 8.26861 20.4184C5.79545 17.9419 3.31848 15.473 0.84913 12.9926C-0.012094 12.1353 -0.191198 11.1104 0.189874 9.97885C0.311818 9.61308 0.544272 9.30827 0.818644 9.03776C2.19051 7.66614 3.56618 6.2907 4.93804 4.91527Z" fill="#BA4E8F"/>
<g clip-path="url(#clip0)">
<path d="M16.4945 7.21821C16.4945 7.21288 16.4881 7.20933 16.4785 7.19869C15.7705 7.19869 15.0561 7.19869 14.3288 7.19869C14.3288 6.99636 14.3288 6.79936 14.3288 6.60059C12.1055 6.60059 9.89501 6.60059 7.67329 6.60059C7.67329 6.80114 7.67329 6.99814 7.67329 7.20046C6.94606 7.20046 6.23165 7.20046 5.49802 7.20046C5.50763 7.48265 5.50442 7.75242 5.52525 8.02041C5.57651 8.68595 5.71426 9.32664 5.97376 9.93184C6.25888 10.5992 6.66895 11.1405 7.27443 11.4794C7.75658 11.751 8.27237 11.8309 8.80577 11.7954C8.88266 11.79 8.92431 11.8149 8.97076 11.8805C9.31995 12.3828 9.73322 12.7963 10.2698 13.043C10.2923 13.0537 10.3115 13.0998 10.3131 13.13C10.3163 13.6358 10.3147 14.1416 10.3147 14.6474C10.3147 14.6705 10.3115 14.6936 10.3099 14.7291C9.78448 14.7291 9.26389 14.7291 8.73689 14.7291C8.73689 15.0964 8.73689 15.4496 8.73689 15.8152C8.56069 15.8152 8.3925 15.8152 8.22271 15.8152C8.22271 16.0513 8.22271 16.2784 8.22271 16.5021C10.0824 16.5021 11.9357 16.5021 13.7858 16.5021C13.7858 16.2678 13.7858 16.0424 13.7858 15.8099C13.6112 15.8099 13.4446 15.8099 13.2684 15.8099C13.2684 15.4461 13.2684 15.0911 13.2684 14.7255C12.7398 14.7255 12.2208 14.7255 11.7051 14.7255C11.7003 14.7113 11.6971 14.7042 11.6971 14.6989C11.6971 14.17 11.6955 13.6393 11.6971 13.1105C11.6971 13.0874 11.7211 13.0519 11.7419 13.043C12.2785 12.7963 12.6918 12.3828 13.0394 11.8805C13.0826 11.8184 13.1211 11.7883 13.1964 11.7971C13.3021 11.8096 13.4094 11.8078 13.5167 11.8042C14.4986 11.7741 15.2707 11.3144 15.7993 10.3951C16.3503 9.42603 16.5249 8.34697 16.4945 7.21821ZM7.56596 10.6542C7.26322 10.4714 7.03256 10.2034 6.85155 9.88215C6.5424 9.33374 6.40144 8.72677 6.32776 8.08785C6.79229 8.08785 7.2488 8.08785 7.71493 8.08785C7.80624 9.0764 7.99045 10.0277 8.42294 10.9168C8.10898 10.8938 7.82706 10.8139 7.56596 10.6542ZM15.6151 8.50315C15.5222 9.03558 15.3668 9.54139 15.0849 9.99218C14.7421 10.5406 14.2664 10.8405 13.6689 10.9097C13.6465 10.9115 13.6224 10.9097 13.584 10.9097C14.0101 10.0241 14.1975 9.07462 14.2872 8.08785C14.7469 8.08785 15.2034 8.08785 15.676 8.08785C15.6567 8.22806 15.6391 8.36649 15.6151 8.50315Z" fill="white"/>
</g>
<defs>
<clipPath id="clip0">
<rect width="10.9997" height="9.8997" fill="white" transform="translate(5.49802 6.60059)"/>
</clipPath>
</defs>
</svg>
