<svg xmlns="http://www.w3.org/2000/svg" width="20" height="20" fill="none" viewBox="0 0 20 20">
    <path fill="#D0D0D0" fill-rule="evenodd" d="M10.226 5c1.963.02 3.746.581 5.409 1.623 1.442.901 2.624 2.083 3.646 3.426.2.26.22.62.02.881-1.462 1.943-3.245 3.506-5.57 4.408-1.181.46-2.403.68-3.686.66-1.803-.04-3.486-.56-5.028-1.482-1.543-.921-2.805-2.143-3.867-3.566-.2-.28-.2-.62 0-.901C2.473 8.286 4.055 6.843 6.08 5.922 7.12 5.44 8.242 5.12 9.384 5.04c.28-.02.561-.02.842-.04zm-.02 1.703c-2.104 0-3.807 1.723-3.807 3.806 0 2.124 1.703 3.847 3.827 3.847 2.103 0 3.826-1.723 3.826-3.827 0-2.123-1.723-3.826-3.846-3.826z" clip-rule="evenodd"/>
    <path fill="#D0D0D0" fill-rule="evenodd" d="M10.226 8.185c1.302 0 2.344 1.042 2.324 2.344 0 1.303-1.042 2.344-2.364 2.324-1.303 0-2.324-1.041-2.324-2.364.04-1.262 1.082-2.304 2.364-2.304z" clip-rule="evenodd"/>
</svg>
