<svg xmlns="http://www.w3.org/2000/svg" width="32" height="32" fill="none" viewBox="0 0 32 32">
    <path stroke="#fff" stroke-linecap="round" stroke-linejoin="round" stroke-miterlimit="10" stroke-width="1.7" d="M27.04 18.74c0 1.413-1.143 2.556-2.55 2.556h-1.604L22.835 27l-5.333-5.704H6.551C5.142 21.296 4 20.153 4 18.74V8.553C4 7.143 5.142 6 6.55 6h17.936c1.409 0 2.55 1.144 2.55 2.553V18.74h.004z"/>
    <path fill="#fff" stroke="#fff" stroke-miterlimit="10" stroke-width=".4" d="M11.612 13.535c0 .973-.792 1.766-1.764 1.766-.973 0-1.765-.79-1.765-1.766 0-.977.79-1.767 1.765-1.767.97 0 1.764.79 1.764 1.767zM17.284 13.328c0 .974-.789 1.767-1.764 1.767-.973 0-1.765-.79-1.765-1.767 0-.973.79-1.766 1.765-1.766.973 0 1.764.793 1.764 1.766zM22.957 13.328c0 .974-.79 1.767-1.765 1.767-.973 0-1.764-.79-1.764-1.767 0-.973.791-1.766 1.764-1.766.976 0 1.765.793 1.765 1.766z"/>
</svg>
