<svg xmlns="http://www.w3.org/2000/svg" width="46" height="62" fill="none" viewBox="0 0 46 62">
    <path fill="#fff" d="M45.122 14.312c0 15.486 0 30.972.056 46.402 0 1.062-.224 1.286-1.288 1.286-14.107-.056-28.27-.056-42.378-.056C.392 61.05 0 59.931 0 58.478.056 40.14 0 21.859.056 3.522.056.84.784.056 3.471.056c9.013 0 18.082 0 27.095-.056 1.4 0 2.352.447 3.247 1.51 3.695 4.36 7.502 8.609 11.309 12.802zM16.85 33.935c2.63 0 5.206-.112 7.781 0 1.624.056 1.624-.783 1.512-1.9-.056-.951.504-2.237-1.456-2.125-2.63.168-5.318.056-8.005.056h-.784c-2.52 0-5.038-.056-7.614 0-.615 0-1.567-.392-1.735.391-.224 1.006-.056 2.18 0 3.243 0 .111.392.28.616.28 2.91-.113 5.878.39 8.789-.28.336.167.616.223.896.335zm0-9.113c2.63 0 5.206-.111 7.781 0 1.624.056 1.624-.782 1.512-1.9-.056-.95.504-2.237-1.456-2.125-2.63.168-5.318.056-8.005.056h-.784c-2.52 0-5.038-.056-7.614 0-.615 0-1.567-.391-1.735.391-.224 1.007-.056 2.18 0 3.243 0 .112.392.28.616.28 2.91-.112 5.878.39 8.789-.28.336.168.616.28.896.335zm19.426-4.752c0-.67-.056-1.341 0-2.012.224-1.51-.448-1.901-1.848-1.79-1.4.113-2.799 0-4.199 0-3.806 0-3.806 0-3.414 3.914v.727c-.056.783-.056 1.565-.168 2.348-.168 1.286.335 1.677 1.623 1.621 2.183-.111 4.367 0 6.55-.056.56 0 1.344.168 1.344-.782 0-1.063.336-2.18-.224-3.187.168-.28.28-.559.336-.783zm-13.66 21.245c5.99 0 11.98-.056 18.026.056 1.568 0 2.072-.28 2.016-1.957-.112-6.373-.056-12.747-.056-19.12 0-4.193 0-4.137-4.2-4.137-1.287 0-1.623.447-1.623 1.677.056 4.976 0 9.951.056 14.927 0 1.286-.28 1.789-1.68 1.789-9.236-.056-18.417-.056-27.654 0-1.232 0-1.68-.335-1.68-1.621.056-5.088.112-10.175 0-15.263-.056-1.565.504-1.9 1.96-1.9 7.053.056 14.051 0 21.105.056 1.287 0 1.847-.224 1.791-1.678-.112-3.242-.112-6.54 0-9.84.056-1.397-.448-1.676-1.791-1.676-8.23.055-16.459.055-24.744 0-1.344 0-1.736.335-1.736 1.677.056 11.796.056 23.648 0 35.444 0 1.286.448 1.622 1.68 1.622 6.158-.112 12.372-.056 18.53-.056zm-11.14 12.243c.671 1.342 1.343 2.292 1.679 3.355.616 1.956 1.96 2.124 3.695 2.012 1.007-.056 1.175-.335.672-1.174-1.008-1.733-1.96-3.466-3.024-5.143-.671-1.007-.615-1.79.056-2.796 1.176-1.844 2.24-3.801 3.415-5.926-.783 0-1.231.056-1.623 0-1.68-.28-2.687.336-3.247 2.013-.28 1.006-.84 1.9-1.4 3.13-.783-1.676-1.343-3.018-2.071-4.248-1.008-1.733-2.631-.56-4.31-.839.503.95.895 1.566 1.23 2.18.953 1.734 2.688 3.523 2.688 5.256s-1.735 3.466-2.687 5.255c-.336.67-1.232 1.398-.896 2.069.448.726 1.568.223 2.351.335.784.112 1.232-.28 1.512-1.006.504-1.51 1.176-2.852 1.96-4.473zm23.512 5.647v-.112h1.064c2.687-.224 4.646-1.621 4.982-3.69.448-2.404-.616-4.081-3.415-5.255-.784-.336-1.567-.671-2.295-1.006-.504-.28-.84-.671-.84-1.286.056-.727.56-1.063 1.176-1.23.951-.336 1.96-.224 2.855.168 1.343.614 1.455-.28 1.791-1.174.392-1.174-.336-1.51-1.231-1.678-1.456-.28-2.911-.335-4.311 0-2.071.504-3.415 1.901-3.695 3.802-.224 1.789.672 3.298 2.631 4.305.952.503 2.016.838 2.967 1.341.616.336 1.064.839.952 1.622-.112.782-.728 1.23-1.511 1.341-1.232.168-2.408.056-3.583-.39-.84-.336-1.12-.113-1.4.726-.448 1.342-.224 2.068 1.288 2.236.951 0 1.735.168 2.575.28zm-15.003-7.883c0 2.068.056 4.137 0 6.15-.056 1.118.28 1.51 1.4 1.453 2.183-.056 4.366-.056 6.55 0 1.175.056 1.567-.335 1.567-1.51 0-1.341-.728-1.285-1.624-1.285-.952 0-1.96-.056-2.91 0-1.289.112-1.68-.447-1.624-1.677.056-2.908 0-5.815.056-8.722 0-1.23 0-2.012-1.68-1.956-1.511 0-1.847.503-1.735 1.9.056 1.845 0 3.746 0 5.647zm-8.902-31.14c1.232 0 2.408-.112 3.64 0 1.623.168 1.343-.95 1.287-1.9-.056-.895.504-2.181-1.288-2.07-2.183.113-4.366.113-6.494 0-1.4-.055-1.68.392-1.735 1.734-.112 1.845.392 2.516 2.295 2.236.728-.056 1.512 0 2.296 0zm.113 9.113c1.231 0 2.407-.056 3.638 0 1.568.112 1.232-1.007 1.176-1.79-.056-.838.616-2.18-1.232-2.18-2.183.056-4.366.112-6.494 0-1.511-.111-1.735.504-1.791 1.845-.112 1.79.448 2.404 2.183 2.125.84-.112 1.68 0 2.52 0zm20.321.67c-1.12 0-2.295.057-3.415 0-1.287-.111-1.455.672-1.287 1.566.168.895-.84 2.404 1.12 2.404h7.22c.393 0 .84.056 1.065-.503.84-1.845-.168-3.466-2.184-3.466h-2.519z"/>
    <path fill="#fff" d="M26.927 20.182c3.136-.056 6.27-.056 9.406-.112-.112.28-.168.56-.28.783-3.023 0-6.102 0-9.125.056v-.727zM16.739 20.909c0 1.342.056 2.628.056 3.97-.28-.113-.504-.224-.784-.28 0-1.23-.056-2.404-.056-3.634.28-.056.504-.056.784-.056zM16.739 30.022c0 1.341.056 2.627.056 3.969-.28-.112-.504-.224-.784-.28 0-1.23-.056-2.403-.056-3.633.28-.056.504-.056.784-.056z"/>
</svg>
