<svg width="19" height="15" viewBox="0 0 19 15" fill="none" xmlns="http://www.w3.org/2000/svg">
<g clip-path="url(#clip0_1679_6884)">
<path d="M9.5508 14.6918C6.90909 14.6918 4.26738 14.6918 1.62567 14.6918C0.914435 14.6918 0.406414 14.2808 0.30481 13.5617C0.30481 13.4589 0.30481 13.4589 0.30481 13.3562C0.30481 9.45206 0.30481 5.54795 0.30481 1.64384C0.30481 0.821926 0.914435 0.308228 1.62567 0.308228C6.90909 0.308228 12.1925 0.308228 17.4759 0.308228C18.2888 0.308228 18.7968 0.924666 18.7968 1.64384C18.7968 5.54795 18.7968 9.45206 18.7968 13.3562C18.7968 14.1781 18.1872 14.6918 17.4759 14.6918C14.8342 14.6918 12.1925 14.6918 9.5508 14.6918ZM9.5508 13.7671C12.0909 13.7671 14.631 13.7671 17.1711 13.7671C17.6791 13.7671 17.8823 13.4589 17.8823 13.048C17.8823 9.34932 17.8823 5.65069 17.8823 2.0548C17.8823 1.64384 17.5775 1.33562 17.1711 1.33562C12.0909 1.33562 7.01069 1.33562 1.93048 1.33562C1.52406 1.33562 1.21925 1.64384 1.21925 2.0548C1.21925 5.75343 1.21925 9.45206 1.21925 13.1507C1.21925 13.2534 1.21925 13.3562 1.21925 13.3562C1.32085 13.6644 1.52406 13.8699 1.93048 13.8699C4.47058 13.7671 7.01069 13.7671 9.5508 13.7671Z" fill="#B2B2B2" stroke="#B2B2B2" stroke-width="0.5" stroke-miterlimit="10"/>
<path d="M4.67377 7.60275C3.55612 6.36988 3.96254 4.72604 4.87698 4.00686C5.89302 3.18494 7.21387 3.28768 8.12831 4.1096C8.94115 4.93152 9.24596 6.36988 8.12831 7.60275H8.22992C9.34756 8.11645 10.1604 9.04111 10.5668 10.1712C10.5668 10.274 10.5668 10.274 10.6684 10.3767C10.77 10.6849 10.6684 10.8904 10.3636 10.9932C10.0588 11.0959 9.75398 10.8904 9.75398 10.6849C9.44917 9.55481 8.73794 8.83563 7.62029 8.42467C5.89302 7.80823 3.96254 8.73289 3.35291 10.4795C3.35291 10.5822 3.35291 10.5822 3.25131 10.6849C3.1497 10.9932 2.94649 11.0959 2.64168 11.0959C2.33687 10.9932 2.23526 10.6849 2.33687 10.4795C2.43847 10.1712 2.64168 9.76029 2.74329 9.45207C3.25131 8.63015 3.86093 8.01371 4.67377 7.60275ZM6.40104 7.39727C7.21387 7.39727 7.9251 6.78084 7.9251 5.95892C7.9251 5.137 7.31548 4.41782 6.40104 4.41782C5.58821 4.41782 4.87698 5.03426 4.87698 5.85618C4.97858 6.78083 5.58821 7.39727 6.40104 7.39727Z" fill="#B2B2B2" stroke="#B2B2B2" stroke-width="0.5" stroke-miterlimit="10"/>
<path d="M13.8182 8.01369C13.2085 8.01369 12.7005 8.01369 12.0909 8.01369C11.8877 8.01369 11.7861 8.01369 11.6845 7.80822C11.5829 7.60274 11.5829 7.39726 11.6845 7.19178C11.7861 6.9863 11.8877 6.9863 12.0909 6.9863C13.2085 6.9863 14.3262 6.9863 15.4438 6.9863C15.7487 6.9863 15.9519 7.08904 15.9519 7.5C15.9519 7.60274 15.9519 7.70548 15.8503 7.80822C15.7487 7.91095 15.647 8.01369 15.4438 8.01369C14.9358 8.01369 14.3262 8.01369 13.8182 8.01369Z" fill="#B2B2B2" stroke="#B2B2B2" stroke-width="0.5" stroke-miterlimit="10"/>
<path d="M13.8182 9.86301C14.3262 9.86301 14.9358 9.86301 15.4439 9.86301C15.7487 9.86301 15.9519 9.96575 15.9519 10.3767V10.4794C15.9519 10.7877 15.7487 10.8904 15.5455 10.8904C14.7326 10.8904 13.9198 10.8904 13.2086 10.8904C12.9038 10.8904 12.4973 10.8904 12.1925 10.8904C11.8877 10.8904 11.6845 10.7877 11.6845 10.3767V10.274C11.6845 9.96575 11.8877 9.86301 12.0909 9.86301C12.4973 9.86301 12.9038 9.86301 13.3102 9.86301C13.4118 9.86301 13.615 9.86301 13.8182 9.86301Z" fill="#B2B2B2" stroke="#B2B2B2" stroke-width="0.5" stroke-miterlimit="10"/>
<path d="M13.8182 5.13699C13.2086 5.13699 12.7005 5.13699 12.0909 5.13699C11.7861 5.13699 11.5829 5.03425 11.5829 4.62329V4.52055C11.5829 4.31507 11.6845 4.21233 11.8877 4.10959H11.9893C13.107 4.10959 14.2246 4.10959 15.3422 4.10959C15.4438 4.10959 15.5455 4.10959 15.6471 4.21233C15.8503 4.31507 15.8503 4.93151 15.6471 5.03425C15.5455 5.03425 15.4438 5.13699 15.3422 5.13699C14.9358 5.13699 14.3262 5.13699 13.8182 5.13699Z" fill="#B2B2B2" stroke="#B2B2B2" stroke-width="0.5" stroke-miterlimit="10"/>
</g>
<defs>
<clipPath id="clip0_1679_6884">
<rect width="19" height="15" fill="white"/>
</clipPath>
</defs>
</svg>
