<svg width="42" height="36" viewBox="0 0 42 36" fill="none" xmlns="http://www.w3.org/2000/svg">
    <g clip-path="url(#1ha7dwjpma)">
        <path d="M8.495 26.146H6.688c-.906-.36-1.117-.674-1.122-1.661 0-.287.01-.584-.036-.867a1.346 1.346 0 0 0-1.901-.996c-.314.152-.624.314-.933.476-.714.368-1.377.197-1.808-.485-.233-.368-.444-.745-.66-1.122-.416-.723-.241-1.42.467-1.868.274-.175.565-.323.839-.498a1.332 1.332 0 0 0-.013-2.267c-.247-.153-.503-.283-.75-.436-.717-.436-.941-1.27-.538-2.011.202-.368.422-.732.642-1.091.403-.651 1.094-.844 1.785-.503.314.153.619.319.933.471A1.341 1.341 0 0 0 5.53 12.27c.036-.247.032-.507.032-.758.004-.988.22-1.311 1.117-1.661h1.807c.902.35 1.117.673 1.121 1.66 0 .288-.009.584.036.867.14.893 1.13 1.392 1.933.979.287-.148.566-.323.848-.485.722-.418 1.422-.256 1.87.449.238.377.463.763.682 1.15.381.668.211 1.368-.435 1.795-.26.17-.543.314-.807.48-.956.584-.951 1.859.009 2.442.215.13.44.247.655.382.578.35.888.965.686 1.603-.166.516-.462.996-.736 1.477-.457.803-1.188.978-1.991.511-.238-.139-.476-.282-.718-.413-.874-.47-1.875.036-2.005 1.02-.031.238-.022.48-.022.722-.005.983-.215 1.302-1.117 1.657zm-.92-5.432c1.503 0 2.723-1.199 2.728-2.69.004-1.508-1.193-2.733-2.678-2.738C6.1 15.282 4.88 16.48 4.88 17.993a2.704 2.704 0 0 0 2.696 2.72z" fill="#447ABE"/>
        <path d="m40.6 33.257-8.562-8.57a893.018 893.018 0 0 0-2.04-2.038c2.35-3.102 3.372-6.573 2.888-10.434-.485-3.87-2.31-7.012-5.4-9.382-5.513-4.23-13.402-3.664-18.314 1.293a13.91 13.91 0 0 0-2.78 4.022c.358-.04.722-.058 1.09-.058.816 0 1.61.099 2.368.287a10.773 10.773 0 0 1 9.248-5.199c5.948.01 10.742 4.844 10.733 10.815-.009 5.944-4.84 10.748-10.791 10.734a10.828 10.828 0 0 1-3.714-.664 9.937 9.937 0 0 1-2.588 2.348c1.135.57 2.364.983 3.687 1.234 4.167.782 7.948-.18 11.348-2.765.04.054.076.108.116.152 1.74 1.742 3.48 3.489 5.221 5.23 1.74 1.742 3.485 3.484 5.22 5.23.427.427.93.598 1.512.472.606-.13 1.01-.512 1.18-1.104.175-.61.027-1.154-.422-1.603z" fill="#555"/>
    </g>
    <defs>
        <clipPath id="1ha7dwjpma">
            <path fill="#fff" d="M0 0h41.098v36H0z"/>
        </clipPath>
    </defs>
</svg>
