<svg width="37" height="36" viewBox="0 0 37 36" fill="none" xmlns="http://www.w3.org/2000/svg">
    <g clip-path="url(#dzenlfxtxa)">
        <path d="M16.867 3.766c0-.875-.009-1.704 0-2.532.01-.958.912-1.52 1.704-1.068.396.22.57.57.58 1.013 0 .755.01 1.519 0 2.274-.01.248.074.331.322.359 6.372.653 11.482 5.414 12.605 11.748.055.304.092.608.11.92.019.296.12.424.442.415a39.866 39.866 0 0 1 2.348.01c.525.018.948.423 1.031.93.092.515-.193 1.058-.69 1.242a1.661 1.661 0 0 1-.562.083c-.718.01-1.436.018-2.154 0-.267-.01-.378.065-.415.35-.644 5.184-3.333 8.95-7.964 11.325-1.427.736-2.955 1.15-4.558 1.326-.156.018-.303.046-.506.073v2.615c-.01.69-.46 1.17-1.114 1.179-.663.009-1.16-.47-1.17-1.16-.009-.728 0-1.464-.009-2.192v-.331c-1.169-.276-2.31-.433-3.37-.81-5.34-1.943-8.553-5.727-9.575-11.334-.018-.093-.037-.175-.046-.268-.129-.755-.129-.755-.911-.755-.58 0-1.16.01-1.731 0C.516 19.16.028 18.7.018 18.055c-.009-.663.498-1.141 1.225-1.15.718-.01 1.436-.02 2.154 0 .314.009.415-.102.452-.406.736-5.625 3.756-9.53 8.949-11.757 1.261-.58 2.615-.857 4.07-.976zm-.027 2.33c-5.883.423-10.496 5.643-10.708 10.744h2.992c.295-2.017 1.124-3.738 2.55-5.175 1.428-1.436 3.177-2.255 5.166-2.568V6.095zM29.933 16.84c-.36-3.186-1.713-5.81-4.088-7.89-1.906-1.676-4.125-2.625-6.676-2.882v3.029c.36.073.71.129 1.06.23 3.636 1.068 5.837 3.462 6.591 7.172.065.323.185.387.47.378.746-.019 1.492 0 2.237-.01.12 0 .24-.018.405-.027zM19.15 29.877c5.966-.488 10.422-5.598 10.726-10.708h-2.992c-.019.102-.037.166-.055.249a8.891 8.891 0 0 1-2.726 5.091c-1.307 1.243-2.872 1.99-4.65 2.311-.11.019-.294.148-.294.23-.018.93-.01 1.86-.01 2.827zm-2.284-.018c0-.893-.009-1.786.01-2.689 0-.258-.083-.331-.34-.377-3.094-.59-5.35-2.293-6.676-5.165-.35-.774-.543-1.62-.82-2.459H6.123c.331 5.294 5.018 10.33 10.745 10.69zm.35-12.66h-5.275c-.507 0-.81.23-.903.663-.11.516.286.948.875.948 1.62.01 3.232 0 4.852 0 .148 0 .295.01.433.019v5.248c0 .552.34.92.82.911.487-.009.791-.322.791-.884 0-1.63 0-3.259-.009-4.88v-.414h5.276c.359 0 .663-.101.838-.432.313-.571-.11-1.179-.829-1.179-1.62-.01-3.232 0-4.852-.01-.138 0-.267-.008-.433-.018v-5.303c0-.598-.442-.957-.976-.838-.396.092-.608.405-.608.912v5.257z" fill="#447ABE"/>
        <path d="M36.01 17.816c-.093-.507-.507-.912-1.032-.93a39.953 39.953 0 0 0-2.348-.01c-.322.01-.423-.119-.442-.414a7.83 7.83 0 0 0-.11-.92C30.954 9.207 25.854 4.447 19.473 3.793c-.248-.027-.322-.11-.322-.359.018-.755.01-1.519 0-2.274 0-.442-.184-.8-.58-1.013-.801-.45-1.694.11-1.704 1.068-.009.829 0 1.667 0 2.532-1.445.12-2.808.396-4.088.949-5.192 2.228-8.203 6.14-8.949 11.757-.037.304-.138.415-.451.405-.718-.018-1.436-.009-2.154 0-.728.01-1.234.488-1.225 1.151.01.645.497 1.105 1.215 1.123.58.01 1.151 0 1.731 0 .783 0 .783 0 .912.755.018.093.037.175.046.267 1.031 5.608 4.235 9.392 9.575 11.334 1.06.387 2.21.544 3.37.81v.332c0 .727-.01 1.464.01 2.191.008.691.506 1.17 1.169 1.16.644-.009 1.105-.487 1.114-1.178.009-.672 0-1.335 0-2.007v-.608c.212-.027.359-.055.506-.073 1.593-.175 3.13-.59 4.558-1.326 4.63-2.376 7.31-6.15 7.964-11.325.037-.285.147-.36.414-.35.718.01 1.436.01 2.155 0 .193 0 .386-.018.561-.083.507-.165.792-.7.71-1.215zm-8.969.092c0 .433-.027.856-.092 1.261h2.928c-.304 5.11-4.76 10.22-10.726 10.708 0-.966-.01-1.896.01-2.826 0-.083.183-.212.294-.23.267-.047.534-.111.792-.176a8.824 8.824 0 0 1-2.22.277c-.644 0-1.28-.074-1.887-.203l.387.083c.258.046.34.129.34.378-.009.893-.009 1.786-.009 2.688-5.717-.36-10.404-5.395-10.735-10.69H9.04c.056.166.11.341.157.507a9.379 9.379 0 0 1-.175-1.777c0-.36.018-.718.064-1.068H6.141c.203-5.1 4.816-10.33 10.699-10.745v2.882a9.384 9.384 0 0 1 2.33 0v-2.9c2.55.258 4.769 1.215 6.674 2.872 2.376 2.081 3.73 4.705 4.088 7.89-.165.01-.285.029-.414.029-.746 0-1.491-.01-2.237.009-.138 0-.24-.01-.313-.065.055.36.073.718.073 1.096z" fill="#555"/>
    </g>
    <defs>
        <clipPath id="dzenlfxtxa">
            <path fill="#fff" d="M0 0h36.018v36H0z"/>
        </clipPath>
    </defs>
</svg>
