<svg width="41" height="37" viewBox="0 0 41 37" fill="none" xmlns="http://www.w3.org/2000/svg">
    <g clip-path="url(#fnwwh076ca)">
        <path d="M18.091 28.783c.133.066.2.154.243.132 3.07-1.016 6.009.243 8.99.508.884.089 1.878 0 2.696-.331 1.59-.64 1.877-1.79 1.06-3.27 1.767-1.435 3.6-2.827 5.302-4.351 1.214-1.06 2.43-.574 3.578-.177.773.265.729 1.149.31 1.745-1.326 1.9-2.386 4.286-4.176 5.523-3.357 2.297-7.113 4.042-10.824 5.765-.927.42-2.319 0-3.468-.243-1.81-.397-3.6-.928-5.367-1.502-2.408-.795-4.705-.773-6.959.464-.243.133-.508.22-.861.376-1.127-2.519-2.209-4.993-3.291-7.445 1.192-.905 2.297-1.789 3.468-2.584 2.982-2.01 6.229-2.165 9.41-.795 3.446 1.48 7.024 2.407 10.691 3.048.862.155 1.834.353 1.811 1.458-.022 1.082-.994 1.524-1.877 1.546-1.127.044-2.253-.199-3.402-.31-1.944-.176-3.888-.419-5.854-.485-.486 0-1.325.022-1.48.928zM0 26.353c1.392-.442 2.673-.84 4.087-1.303 1.435 3.225 2.85 6.45 4.33 9.763C7.222 35.52 6.03 36.205 4.704 37 3.115 33.444 1.59 29.931 0 26.353z" fill="#555"/>
        <path d="M24.873 0h1.48c.132.022.243.044.375.044.442.044.641.243.663.685v.265c.044 1.17 1.105 2.187 2.275 2.187A2.5 2.5 0 0 0 31.5 2.43c.265-.265.574-.287.84-.089a9.903 9.903 0 0 1 1.722 1.746c.177.22.155.508-.022.75a2.189 2.189 0 0 1-.22.244c-.929.994-.774 2.628.286 3.446.442.33.928.486 1.48.53.508.044.73.265.751.773 0 .088.022.177.022.243-.022.662-.022 1.325-.066 1.988-.022.31-.265.486-.574.508-.133 0-.287.022-.42.022-1.104.066-2.098 1.082-2.142 2.187-.023.751.22 1.392.75 1.922.288.287.288.596.045.883-.508.619-1.06 1.171-1.68 1.657-.264.22-.573.199-.838-.022-.067-.066-.155-.133-.221-.199-.928-.773-2.519-.861-3.446.331a2.535 2.535 0 0 0-.508 1.458c0 .442-.221.707-.641.73-.751.021-1.48.021-2.231 0-.42-.023-.619-.244-.663-.686v-.287c-.044-1.17-1.104-2.187-2.275-2.187a2.5 2.5 0 0 0-1.833.752c-.288.265-.597.287-.862.066a11.1 11.1 0 0 1-1.679-1.701c-.198-.243-.177-.53.022-.773.067-.067.11-.133.177-.199.928-.994.817-2.629-.265-3.49-.442-.332-.928-.486-1.48-.508-.486-.022-.707-.287-.729-.751 0-.089-.022-.177-.044-.265v-1.48c.022-.155.044-.332.066-.486.066-.354.221-.486.575-.53.198-.023.42-.023.618-.067 1.17-.22 1.944-1.17 1.944-2.341 0-.685-.287-1.237-.751-1.723-.265-.287-.287-.597-.044-.884a10.82 10.82 0 0 1 1.678-1.657c.266-.22.575-.198.84.023.066.066.155.132.22.198.884.796 2.342.751 3.204-.066.486-.464.729-1.016.729-1.679.022-.53.243-.75.75-.773.133 0 .222-.022.288-.044zm4.064 16.06c-.044-.045-.088-.111-.154-.155l-2.452-2.452c-.11-.11-.199-.133-.354-.089a3.597 3.597 0 0 1-2.496.044c-1.9-.662-2.96-2.584-2.474-4.572.044-.199.177-.376.376-.376.132 0 .309.089.42.2.552.53 1.082 1.06 1.612 1.612.11.11.243.198.42.154.375-.066.729-.11 1.104-.176.155-.023.221-.11.243-.266.044-.33.088-.684.155-1.016.044-.198-.022-.353-.155-.508a56.249 56.249 0 0 1-1.612-1.634c-.288-.287-.177-.663.176-.751.53-.133 1.083-.177 1.635-.067 2.386.442 3.733 2.806 2.938 5.081-.044.133-.022.199.066.287.442.42.862.862 1.281 1.281l1.304 1.304c1.347-2.099 1.28-5.457-1.017-7.643-2.496-2.364-6.162-2.364-8.659 0-2.319 2.209-2.562 5.853-.486 8.394 2.077 2.606 5.655 2.96 8.13 1.347z" fill="#447ABE"/>
    </g>
    <defs>
        <clipPath id="fnwwh076ca">
            <path fill="#fff" d="M0 0h40.578v37H0z"/>
        </clipPath>
    </defs>
</svg>
