<svg width="30" height="37" viewBox="0 0 30 37" fill="none" xmlns="http://www.w3.org/2000/svg">
    <g clip-path="url(#r1xu93nvwa)">
        <path d="M29.485 7.277c0-2.491-2.017-4.45-4.568-4.489H22.11c-.712 0-1.404 0-2.057-.553-.355-.297-.949-.317-1.522-.337-.159 0-.317-.02-.455-.02-.396-.039-.653-.118-.97-.494C16.77.99 16.336.692 15.9.396A5.323 5.323 0 0 1 15.366 0h-1.207c-.81.376-1.562.791-1.977 1.641-.06.119-.356.198-.594.198-1.048 0-2.036 0-2.827.85-.1.1-.337.1-.534.08h-.218c-.474.02-.95.02-1.404.02-.989 0-2.017 0-3.006.158C1.463 3.322.02 5.082.02 7.357 0 15.78 0 24.224.02 32.431c0 2.155 1.464 3.935 3.62 4.41.079.02.158.06.237.099l.119.059H25.51c.258-.138.534-.257.811-.376.593-.277 1.226-.573 1.76-.969.93-.712 1.424-1.78 1.424-3.124v-4.015c0-6.98.02-14.159-.02-21.239zM8.266 6.743c.04 1.582.989 2.532 2.551 2.532h7.95c1.483 0 2.432-.93 2.492-2.433.02-.474.02-.969 0-1.463v-.692h1.226c.91 0 1.76-.02 2.63.02 1.305.059 2.353 1.067 2.492 2.412.02.257.04.514.04.811v23.948c0 1.76-.653 2.749-2.077 3.125-.336.099-.692.099-.95.099H4.945c-1.938 0-3.045-1.088-3.045-2.967-.02-8.622-.02-16.65 0-24.521 0-1.86 1.087-2.927 3.005-2.927h3.382v.652c-.04.475-.04.95-.02 1.404zm11.114-.711v.692c0 .237-.06.395-.158.514-.119.118-.297.178-.554.158-.93-.02-1.878 0-2.808 0H13.625c-.87 0-1.76 0-2.65.02-.316 0-.534-.06-.652-.178-.119-.119-.178-.336-.178-.633.02-.613.02-1.266 0-1.879V4.47c0-.474.217-.712.692-.731h.356c.534 0 .969.079 1.384.711.455.732 1.226 1.147 2.097 1.167h.039c.95 0 1.879-.494 2.413-1.305.178-.277.593-.494 1.067-.573.376-.06.712-.02.91.138.139.099.257.376.277.573v1.583zm-5.497-3.224c0-.316.098-.554.296-.712a.705.705 0 0 1 .455-.158h.119c.257.04.494.237.711.435.1.08.198.178.317.257v.356c-.099.08-.218.158-.317.257-.237.198-.474.415-.711.435a.79.79 0 0 1-.594-.178c-.178-.138-.277-.395-.277-.692z" fill="#555"/>
        <path d="M10.145 20.982c-.415-.06-.752.217-.83.672-.02.06-.02.119-.02.198 0 .06-.02.099-.02.158a1.473 1.473 0 0 1-1.503 1.206c-.752-.04-1.365-.632-1.404-1.364-.06-.85.474-1.463 1.384-1.582.574-.08.85-.376.81-.85-.039-.416-.414-.693-.89-.673-1.6.1-2.867 1.464-2.827 3.046.04 1.641 1.404 2.926 3.105 2.926h.02c.02 0 .059 0 .098-.02.12-.02.297-.039.455-.079 1.266-.296 2.235-1.483 2.274-2.768.02-.455-.237-.81-.652-.87zM10.145 29.15c-.435-.06-.752.217-.83.711 0 .04-.02.099-.02.139 0 .039-.02.079-.02.118-.119.752-.791 1.305-1.503 1.246-.791-.04-1.385-.672-1.404-1.463-.02-.811.514-1.385 1.404-1.484.534-.059.83-.356.81-.81-.02-.435-.375-.712-.85-.712-1.562.059-2.887 1.443-2.867 3.006.02 1.621 1.344 2.946 2.966 2.946h.02c1.562 0 2.907-1.266 2.986-2.808-.02-.455-.277-.83-.692-.89zM7.633 10.58c-1.601.119-2.867 1.483-2.808 3.065.06 1.622 1.424 2.887 3.085 2.907.04 0 .08 0 .119-.02.119-.02.297-.04.455-.079 1.265-.277 2.274-1.503 2.294-2.788 0-.455-.257-.81-.673-.85-.415-.04-.731.217-.81.692-.02.059-.02.118-.02.178 0 .059-.02.138-.04.217-.138.673-.81 1.187-1.503 1.147a1.463 1.463 0 0 1-1.384-1.285c-.08-.89.435-1.503 1.404-1.642.554-.079.85-.395.791-.87-.04-.455-.415-.712-.91-.672zM12.933 23.948c.119.02.237.02.356.02h9.947c.574 0 .91-.277.93-.732 0-.198-.06-.376-.198-.494-.158-.158-.415-.257-.712-.257H13.151c-.178 0-.317.02-.435.079-.337.138-.495.415-.435.771.059.336.276.554.652.613zM23.315 30.632H13.17c-.316 0-.553.08-.711.257a.677.677 0 0 0-.178.554c.02.455.336.692.949.692H22.544c.257 0 .514 0 .771-.02.238-.02.554-.158.712-.375a.686.686 0 0 0 .06-.673c-.12-.257-.416-.435-.772-.435zM13.19 15.78h10.086c.316 0 .613-.039.81-.375a.707.707 0 0 0 .02-.712c-.138-.257-.455-.395-.81-.395H13.23c-.336 0-.574.079-.732.237-.118.119-.178.297-.178.534-.02.475.277.712.87.712zM13.15 12.815h7.16c.296 0 .533-.08.692-.258a.7.7 0 0 0 .197-.514c-.02-.455-.336-.712-.87-.712H13.171c-.317 0-.554.08-.693.238-.118.118-.178.296-.178.534 0 .454.297.712.85.712zM13.15 19.499c-.553 0-.85.257-.87.712 0 .217.06.395.179.534.158.158.375.237.692.237H20.31c.533 0 .87-.277.87-.712a.774.774 0 0 0-.178-.514c-.159-.159-.396-.238-.692-.238-2.393-.02-4.766-.02-7.16-.02zM13.15 29.15h7.199c.277 0 .514-.08.653-.238a.7.7 0 0 0 .197-.514c0-.435-.356-.732-.87-.732H13.17c-.316 0-.553.08-.692.237a.633.633 0 0 0-.178.514c-.02.475.297.732.85.732z" fill="#447ABE"/>
    </g>
    <defs>
        <clipPath id="r1xu93nvwa">
            <path fill="#fff" d="M0 0h29.505v37H0z"/>
        </clipPath>
    </defs>
</svg>
