<svg width="41" height="31" viewBox="0 0 41 31" fill="none" xmlns="http://www.w3.org/2000/svg">
    <g clip-path="url(#q9zxltfcua)">
        <path d="M11.08 30.719c-2.87 0-5.44.075-7.96-.075-.5-.025-.924-.873-1.498-1.447.549-.5.948-.824 1.298-1.173.449-.425 1.247-.924 1.222-1.348-.074-1.098-.424-2.22-.823-3.244-.125-.3-.849-.35-1.298-.524-.649-.25-1.771-.4-1.871-.798-.25-1.024-.2-2.196.025-3.27.1-.299 1.073-.598 1.647-.623 1.172-.075 1.572-.574 1.946-1.697.55-1.647.35-2.77-1.123-3.694-.923-.573-.748-1.297-.224-2.046.474-.673.873-1.372 1.297-2.021.1-.025.2-.075.225-.05 2.42 1.522 4.192.624 5.565-1.797-.15-.499-.275-1.247-.6-1.871-.448-.849-.249-1.348.575-1.747.823-.4 1.597-.898 2.395-1.373.5.5 1.123.874 1.398 1.423.574 1.123 1.322 1.173 2.296.674.074-.025.124-.075.2-.075 1.946.05 2.47-1.223 2.52-2.82.024-.649.274-.898.898-.948C19.913.125 20.612 0 21.336 0c1.073 0 1.522.724 1.497 1.647-.05 1.497.699 2.121 2.096 2.246.574.05 1.148.324 1.822.524.574-.624 1.173-1.398 1.872-2.046.224-.2.798-.325 1.048-.175.798.374 1.547.873 2.246 1.397.2.15.349.724.224.924-1.048 1.921-.499 3.319 1.173 4.591.549.425.948.6 1.572.35.724-.3 1.472-.524 2.271-.824.324.55.674 1.023.948 1.547 1.148 2.072 1.148 2.097-.773 3.494-.55.4-.799.724-.45 1.397.25.5.45 1.073.425 1.623-.025 1.197.723 1.322 1.622 1.497.698.125 1.821.399 1.896.798.225 1.073.1 2.271-.125 3.37-.05.274-.948.523-1.472.523-1.273.025-1.697.649-2.071 1.822-.549 1.622-.3 2.72 1.123 3.643.35.225.973.474.624 1.248-.35.748-.649 1.173-1.622 1.148-2.346-.1-4.692-.025-7.112-.025 6.014-8.31 5.889-15.921-2.845-22.01-4.816-3.344-11.554-2.27-15.671 1.248-3.07 2.67-4.742 6.064-4.891 10.181-.15 4.043 1.372 7.461 4.317 10.58z" fill="#555"/>
        <path d="M22.11 14.074c.299.973 0 1.323-.949 1.273-1.347-.05-2.795-.35-3.743 1.023-.599.873-1.098 1.797-1.747 2.87h8.86v2.62c-2.197 0-4.393.075-6.564-.05-.724-.05-1.397-.649-2.096-.998-.15-.075-.324-.15-.474-.225-.05.125-.1.25-.175.35.973.374 1.922.973 2.92 1.073 1.822.174 3.668.075 5.515.05.674 0 .998.15.948.898-.05.973 0 1.946 0 3.02h-4.217c-1.098 0-2.072.349-2.546 1.297-.673 1.348-1.771 1.123-2.844 1.073-1.024-.05-1.797-.649-2.296-1.522-1.073-1.897-.375-5.44 1.073-7.062.998-1.123 1.722-2.496 2.52-3.793.774-1.248 1.947-1.822 3.369-1.872.823-.075 1.647-.025 2.445-.025zm-5.216 10.331c.075-.15.125-.324.2-.474-.574-.873-1.298-1.647-2.321-1.971-.4-.125-1.198.025-1.348.3-.299.573-.174 1.322.624 1.546.949.25 1.897.4 2.845.6z" fill="#447ABE"/>
        <path d="M24.855 11.404c0 .649.074 1.173-.026 1.647-.2 1.123.15 1.797 1.273 2.221.824.3 2.171-.4 2.196-1.298.025-.798.025-1.597.05-2.37 0-.025.05-.05.075-.075 1.522.424 2.745 2.62 2.146 4.217-.35.923-1.098 1.697-1.647 2.545-.25.375-.599.774-.599 1.173-.05 3.07-.025 6.14-.025 9.209 0 .948-.424 1.697-1.272 1.846-.55.1-1.348-.2-1.747-.624-.35-.349-.424-1.098-.424-1.697-.026-2.92 0-5.839-.05-8.759 0-.399-.3-.923-.624-1.172-1.148-.974-1.872-2.196-1.697-3.644.174-1.297.674-2.595 2.37-3.219z" fill="#447ABE"/>
        <path d="M24.58 26.402v1.896h-6.787c.424-1.372 1.098-1.896 2.47-1.896h4.317zM12.527 27.899c1.547.45 2.745.799 4.168 1.198-.225.474-.4 1.397-.8 1.522-.798.225-1.995.324-2.52-.125-.598-.524-.598-1.697-.848-2.595zM12.128 19.914c-1.098 0-1.922-.5-1.797-1.198.15-.899.899-1.173 1.672-1.123.774.05 1.647.05 1.797 1.098.1.699-.674 1.223-1.672 1.223z" fill="#447ABE"/>
    </g>
    <defs>
        <clipPath id="q9zxltfcua">
            <path fill="#fff" d="M0 0h41v30.794H0z"/>
        </clipPath>
    </defs>
</svg>
