<svg width="23" height="28" viewBox="0 0 23 28" fill="none" xmlns="http://www.w3.org/2000/svg">
<path d="M6.85942 5.62249C6.85942 5.62249 6.97187 5.62249 6.85942 5.62249C8.54617 5.62249 10.3454 5.62249 11.9197 5.62249C12.9317 5.62249 13.8313 5.62249 14.8434 5.62249C15.0683 5.62249 15.1807 5.62249 15.4056 5.62249C15.8554 5.62249 16.0803 5.62249 16.3052 5.51004C16.5301 5.28514 16.5301 4.94779 16.5301 4.16064V3.93574C16.5301 3.26104 16.0803 2.92369 15.8554 2.92369C14.3936 2.92369 13.8313 2.13655 13.1566 1.23695C12.9317 0.899598 12.7068 0.674699 12.4819 0.337349C12.257 0.11245 11.6948 0 11.4699 0C11.4699 0 11.245 0 10.7952 0C10.1205 0.11245 9.89557 0.337349 9.78312 0.449799C9.67067 0.674699 9.55822 0.899598 9.33332 1.1245C8.99597 1.5743 8.77107 1.91165 8.43372 2.249C8.09637 2.58635 7.64657 2.81125 7.30922 2.81125H7.19677C5.84737 3.03614 5.84737 3.14859 5.73492 4.38554V4.49799C5.73492 4.94779 5.73492 5.28514 5.95982 5.39759C6.18472 5.62249 6.40962 5.62249 6.85942 5.62249ZM10.2329 2.58635C10.2329 2.13655 10.4578 1.7992 11.0201 1.7992C11.3574 1.7992 11.5823 1.7992 11.8072 1.91165C11.9197 2.0241 12.0321 2.249 12.1446 2.58635H10.2329Z" fill="black"/>
<path d="M22.2651 7.30923C22.2651 6.07228 21.5904 4.94779 20.5783 4.16064C19.5663 3.48594 18.4418 3.26104 17.4297 3.59839H17.3173V5.17269H17.4297C19.7912 5.51004 20.3534 6.07228 20.3534 8.43373V13.1566C20.3534 16.6426 20.3534 20.0161 20.3534 23.502C20.3534 25.1888 19.4538 26.0883 17.7671 26.0883C13.3815 26.0883 8.88353 26.0883 4.49799 26.0883C2.81125 26.0883 1.91165 25.1887 1.91165 23.3896C1.91165 22.1526 1.91165 20.9157 1.91165 19.6787V18.2169V15.2932C1.91165 12.8193 1.91165 10.4578 1.91165 7.98393C1.91165 6.29718 2.6988 5.51004 4.38554 5.28514C4.49799 5.28514 4.61044 5.28514 4.72289 5.28514H5.06024V3.48594H4.94779C3.48594 3.26104 2.249 3.59839 1.46185 4.38554C0.562249 5.17269 0 6.40963 0 7.75903C0 9.78313 0 11.8072 0 13.8313C0 16.755 0 19.9036 0 22.9398C0 25.5261 1.01205 27.1004 3.26104 28L19.3414 28.1124C21.253 27.2128 22.2651 25.8634 22.2651 24.2892C22.2651 18.5542 22.2651 12.9317 22.2651 7.30923Z" fill="black"/>
<path d="M8.43376 15.1807C8.54621 15.2932 8.77111 15.4056 8.88356 15.4056C8.88356 15.4056 8.88356 15.4056 8.99601 15.4056C9.33336 15.4056 9.55826 15.4056 9.89561 15.4056C10.0081 15.4056 10.233 15.4056 10.4579 15.1807C10.6828 14.9558 10.6828 14.7309 10.6828 14.6185C10.6828 14.0562 10.6828 13.494 10.6828 12.9317V11.3574C10.6828 10.7952 10.6828 10.2329 10.6828 9.67069C10.6828 9.44579 10.5703 9.22089 10.4579 9.10844C10.233 8.88355 9.89561 8.88354 9.78316 8.88354C9.44581 8.88354 9.10846 8.88354 8.88356 8.88354C8.77111 8.88354 8.54621 8.88355 8.32131 9.10844C8.20886 9.10844 8.20886 9.33334 8.20886 9.55824C8.20886 9.89559 8.20886 10.2329 8.20886 10.5703V11.0201V12.0321C8.20886 12.9317 8.20886 13.8313 8.20886 14.7309C8.20886 14.7309 8.20886 14.9558 8.43376 15.1807Z" fill="black"/>
<path d="M17.3173 8.99599C17.0924 8.77109 16.8675 8.77109 16.755 8.77109C16.4177 8.77109 16.0803 8.77109 15.743 8.77109C15.5181 8.77109 15.4056 8.88354 15.2932 8.99599C15.1807 9.10844 15.0683 9.33334 15.0683 9.44579C15.0683 11.1325 15.0683 12.9317 15.0683 14.6185C15.0683 14.8434 15.1807 14.9558 15.2932 15.0683C15.5181 15.2932 15.6305 15.2932 15.743 15.2932C16.0803 15.2932 16.4177 15.2932 16.755 15.2932C16.9799 15.2932 17.0924 15.1807 17.2048 15.0683C17.4297 14.8434 17.4297 14.6185 17.4297 14.506C17.4297 13.9438 17.4297 13.2691 17.4297 12.7068V12.0321V11.3574C17.4297 10.7952 17.4297 10.1205 17.4297 9.55824C17.5422 9.44579 17.5422 9.22089 17.3173 8.99599Z" fill="black"/>
<path d="M13.8313 10.9076C13.7189 10.7952 13.494 10.7952 13.3815 10.6827C13.0442 10.6827 12.7068 10.6827 12.3695 10.6827C12.257 10.6827 12.0321 10.6827 11.9197 10.9076C11.8072 11.0201 11.6948 11.245 11.6948 11.3574C11.6948 12.4819 11.6948 13.6064 11.6948 14.7309C11.6948 14.9558 11.8072 15.0683 11.9197 15.1807C12.0321 15.2932 12.1446 15.4056 12.4819 15.4056C12.8193 15.4056 13.1566 15.4056 13.494 15.4056C13.7189 15.4056 13.8313 15.2932 13.9438 15.1807C14.1687 14.9558 14.1687 14.7309 14.1687 14.6185C14.1687 14.2811 14.1687 13.8313 14.1687 13.494V13.0442V12.5944C14.1687 12.1446 14.1687 11.8072 14.1687 11.3574C14.0562 11.1325 14.0562 11.0201 13.8313 10.9076Z" fill="black"/>
<path d="M4.7229 11.6948C4.7229 12.7068 4.7229 13.7189 4.7229 14.7309C4.7229 14.8434 4.7229 15.0683 4.9478 15.2932C5.1727 15.5181 5.3976 15.5181 5.51005 15.5181C5.8474 15.5181 6.0723 15.5181 6.5221 15.5181C6.747 15.5181 6.85945 15.4056 6.9719 15.2932C7.08435 15.1807 7.1968 14.9558 7.1968 14.7309C7.1968 14.3936 7.1968 14.0562 7.1968 13.7189V13.2691V12.8193C7.1968 12.4819 7.1968 12.1446 7.1968 11.6948C7.1968 11.5823 7.1968 11.3574 6.9719 11.1325C6.747 11.0201 6.5221 11.0201 6.40965 11.0201C6.0723 11.0201 5.73495 11.0201 5.3976 11.0201C5.28515 11.0201 5.06025 11.0201 4.9478 11.245C4.7229 11.3574 4.7229 11.5823 4.7229 11.6948Z" fill="black"/>
<path d="M17.4297 18.4418C17.4297 17.992 17.0924 17.6546 16.6426 17.6546H5.84739C5.39759 17.6546 5.06024 17.992 5.06024 18.4418V18.5542C5.06024 19.004 5.39759 19.3414 5.84739 19.3414H16.6426C17.0924 19.3414 17.4297 19.004 17.4297 18.5542V18.4418Z" fill="black"/>
<path d="M16.6426 21.4779H5.84739C5.39759 21.4779 5.06024 21.8153 5.06024 22.2651V22.49C5.06024 22.9398 5.39759 23.2771 5.84739 23.2771H16.6426C17.0924 23.2771 17.4297 22.9398 17.4297 22.49V22.3775C17.4297 21.8153 17.0924 21.4779 16.6426 21.4779Z" fill="black"/>
</svg>
