<svg width="42" height="35" viewBox="0 0 42 35" fill="none" xmlns="http://www.w3.org/2000/svg">
    <g clip-path="url(#wyaxf20t8a)">
        <path d="M18.985 13.424h-5.853c-1.077 0-1.95-.35-1.95-1.573 0-1.194.844-1.601 1.921-1.601 3.96 0 6.523-.03 10.483 0 1.368 0 2.096.611 2.009 1.66-.087 1.251-.932 1.543-2.01 1.543-1.95-.059-2.59-.03-4.6-.03zM19.218 21.926h4.484c1.078 0 1.922.35 1.922 1.602-.03 1.222-.903 1.572-1.95 1.572H13.19c-1.078 0-1.893-.35-1.98-1.573-.088-1.048.64-1.601 2.038-1.63 1.95 0 3.96.029 5.969.029zM18.985 19.189c-2.01 0-3.99-.03-5.998 0-1.107 0-1.777-.495-1.806-1.573-.029-1.048.67-1.514 1.69-1.514h11.006c1.048 0 1.63.524 1.66 1.544.029 1.077-.64 1.543-1.66 1.543-2.097.029-2.825 0-4.892 0zM7.396 13.744a1.922 1.922 0 1 0 0-3.844 1.922 1.922 0 0 0 0 3.844zM7.396 19.48a1.922 1.922 0 1 0 0-3.844 1.922 1.922 0 0 0 0 3.844zM7.396 25.216a1.922 1.922 0 1 0 0-3.843 1.922 1.922 0 0 0 0 3.843zM34.185 9.755a6.959 6.959 0 1 0 0 13.918 6.959 6.959 0 0 0 0-13.918zm3.523 7.512c.233.204.495.379.728.582.204.146.233.292.116.495-.29.466-.553.932-.815 1.398-.087.175-.204.233-.407.146l-.874-.35c-.03 0-.03-.029-.03-.029-.174-.058-.931.35-.96.553-.058.32-.087.641-.146.961-.029.204-.116.291-.32.291h-1.689c-.204 0-.291-.087-.32-.29-.03-.321-.087-.641-.146-.933-.029-.087-.116-.174-.174-.232-.059-.059-.175-.088-.233-.146-.263-.233-.554-.233-.845-.058-.174.116-.407.145-.611.262-.175.087-.291.029-.379-.117-.291-.495-.582-.99-.873-1.514-.088-.145-.059-.262.087-.378l.786-.612c.146-.116.146-.99 0-1.106-.262-.204-.495-.408-.757-.583-.175-.116-.204-.262-.087-.466.29-.466.553-.931.815-1.426.058-.088.146-.146.204-.233.233.087.408.145.582.233.408.204.757.29 1.165-.03.175-.145.32-.261.32-.495.03-.261.088-.524.088-.786.029-.204.116-.29.32-.29h1.689c.204 0 .291.086.32.261.03.32.117.64.146.932 0 .146.087.233.203.291a.47.47 0 0 1 .204.117c.291.262.554.233.874.058.204-.117.407-.175.611-.262.146-.058.262-.03.32.116.292.524.612 1.02.903 1.544.088.145.03.262-.087.349-.233.175-.495.379-.728.582-.03.03-.058.03-.087.059-.059.145-.059 1.019.087 1.106z" fill="#447ABE"/>
        <path d="M34.156 15.112c-.903 0-1.602.728-1.602 1.63.03.904.728 1.602 1.602 1.573.902 0 1.601-.699 1.601-1.601.03-.874-.699-1.602-1.601-1.602z" fill="#447ABE"/>
        <path d="M34.185 24.78c-.466 0-.932-.03-1.369-.117v1.514a6.636 6.636 0 0 1-6.639 6.64H8.823a6.636 6.636 0 0 1-6.64-6.64V8.823a6.636 6.636 0 0 1 6.64-6.64h17.354c3.64 0 6.61 2.97 6.64 6.61a7.041 7.041 0 0 1 1.368-.116c.262 0 .553 0 .815.03C34.942 3.901 31.01 0 26.177 0H8.823C3.96 0 0 3.96 0 8.823v17.354C0 31.04 3.96 35 8.823 35h17.354C31.04 35 35 31.04 35 26.177V24.75c-.262.03-.553.03-.815.03z" fill="#555"/>
    </g>
    <defs>
        <clipPath id="wyaxf20t8a">
            <path fill="#fff" d="M0 0h41.144v35H0z"/>
        </clipPath>
    </defs>
</svg>
