<svg width="15" height="18" viewBox="0 0 15 18" fill="none" xmlns="http://www.w3.org/2000/svg">
    <g clip-path="url(#sqt63ji95a)">
        <path d="M11.13 0H2.226A2.207 2.207 0 0 0 0 2.226v13.572c0 1.22.981 2.226 2.226 2.226h9.79c1.22 0 2.226-.981 2.226-2.226V3.973L11.13 0zM9.862 14.29H4.069a.96.96 0 0 1-.957-.958.96.96 0 0 1 .957-.957h5.793a.96.96 0 0 1 .957.957.96.96 0 0 1-.957.958zm0-4.045H4.069a.96.96 0 0 1-.957-.958.96.96 0 0 1 .957-.957h5.793a.96.96 0 0 1 .957.957.96.96 0 0 1-.957.958zm0-3.83H4.069a.96.96 0 0 1-.957-.958.96.96 0 0 1 .957-.957h5.793a.96.96 0 0 1 .957.957.96.96 0 0 1-.957.958z" fill="currentColor"/>
    </g>
    <defs>
        <clipPath id="sqt63ji95a">
            <path fill="currentColor" d="M0 0h14.242v18H0z"/>
        </clipPath>
    </defs>
</svg>
