<svg width="35" height="35" viewBox="0 0 50 50" fill="none" xmlns="http://www.w3.org/2000/svg">
<path d="M10.1259 10.9375H41.1863C42.4757 10.9375 43.4997 11.9759 43.4997 13.2834V36.0891C43.4997 37.3967 42.4757 38.4351 41.1863 38.4351H10.1259C8.83647 38.4351 7.8125 37.3967 7.8125 36.0891V13.2834C7.8125 12.0143 8.87439 10.9375 10.1259 10.9375Z" stroke="currentColor" stroke-width="1.8"/>
<path d="M11.3775 38.3967L21.8827 26.7823L32.9188 38.3967" stroke="currentColor" stroke-width="1.8" stroke-linecap="round" stroke-linejoin="round"/>
<path d="M27.1163 32.4741L33.829 21.7443L43.4618 32.4741" stroke="currentColor" stroke-width="1.8" stroke-linecap="round" stroke-linejoin="round"/>
<path d="M21.9205 19.3214C21.9205 21.0135 20.5932 22.3596 18.9624 22.3596C17.3316 22.3596 16.0043 21.0135 16.0043 19.3214C16.0043 17.6292 17.3316 16.2832 18.9624 16.2832C20.5932 16.3216 21.9205 17.6677 21.9205 19.3214Z" stroke="currentColor" stroke-width="1.8" stroke-linecap="round" stroke-linejoin="round"/>
</svg>
