<svg width="44" height="44" viewBox="0 0 44 44" fill="none" xmlns="http://www.w3.org/2000/svg">
<g clip-path="url(#clip0_3511_9918)">
<path d="M25.7871 32C25.7871 31.9086 25.7871 31.8173 25.7871 31.7259C25.7871 30.3557 25.7871 28.9856 25.7871 27.6154C25.6959 24.4182 22.1384 23.1394 19.7668 24.3269C18.3986 25.0577 17.7601 26.2452 17.7601 27.7067C17.7601 28.9856 17.7601 30.3557 17.7601 31.6346C17.7601 31.7259 17.7601 31.8173 17.7601 32C17.2128 32 16.6655 32 16.1182 32C16.1182 32 16.1182 31.9086 16.1182 31.8173C16.1182 30.3557 16.1182 28.8029 16.1182 27.3413C16.3006 24.3269 19.0371 22.0432 22.2297 22.2259C25.2398 22.4086 27.5202 24.7836 27.5202 27.6154C27.5202 28.9856 27.5202 30.3557 27.5202 31.7259C27.5202 31.8173 27.5202 31.9086 27.5202 32C26.9729 32 26.4256 32 25.7871 32Z" fill="#C5C5C5"/>
<path d="M21.7737 21.1298C19.4021 21.1298 17.4866 19.3029 17.4866 17.1106C17.4866 14.8269 19.4021 13 21.7737 13C24.1454 13 26.0609 14.8269 26.0609 17.0192C26.0609 19.3029 24.1454 21.1298 21.7737 21.1298ZM24.6014 17.1106C24.6014 15.5577 23.3244 14.3702 21.6825 14.3702C20.1318 14.3702 18.8548 15.5577 18.8548 17.0192C18.8548 18.4808 20.1318 19.7596 21.6825 19.7596C23.3244 19.7596 24.6014 18.5721 24.6014 17.1106Z" fill="#C5C5C5"/>
<path d="M26.4258 21.1298C26.4258 19.3943 27.9765 17.8414 29.8008 17.8414C31.8075 17.8414 33.267 19.2116 33.3582 21.1298C33.3582 22.8654 31.8075 24.4183 29.9832 24.4183C27.9765 24.4183 26.4258 22.9568 26.4258 21.1298ZM27.8852 21.1298C27.8852 22.226 28.7974 23.0481 29.892 23.0481C30.9866 23.0481 31.8988 22.226 31.8988 21.1298C31.8988 20.0337 30.9866 19.2116 29.892 19.2116C28.7974 19.2116 27.8852 20.125 27.8852 21.1298Z" fill="#C5C5C5"/>
<path d="M17.213 20.0336C17.213 21.8606 15.6623 23.3221 13.7467 23.3221C11.8312 23.3221 10.2805 21.8606 10.2805 20.0336C10.2805 18.2067 11.8312 16.7452 13.7467 16.7452C15.6623 16.8365 17.213 18.2981 17.213 20.0336ZM15.7535 20.0336C15.7535 18.9375 14.8413 18.1154 13.7467 18.1154C12.6521 18.1154 11.74 18.9375 11.74 20.0336C11.74 21.1298 12.6521 21.9519 13.7467 21.9519C14.8413 21.9519 15.7535 21.1298 15.7535 20.0336Z" fill="#C5C5C5"/>
<path d="M9.73311 32C9.09459 32 8.5473 32 8 32C8 31.2692 8 30.5384 8 29.8077C8 29.1683 8.09122 28.5288 8.36486 27.9808C9.36824 25.3317 12.4696 23.7788 15.3885 24.6009C15.4797 24.6009 15.5709 24.6923 15.6622 24.6923C15.4797 25.2404 15.2973 25.6971 15.1149 26.1538C14.75 26.0625 14.2939 26.0625 13.9291 25.9711C11.4662 25.7884 9.82432 27.7981 9.82432 29.625C9.73311 30.4471 9.73311 31.1779 9.73311 32Z" fill="#C5C5C5"/>
<path d="M28.3413 25.5144C30.0744 25.3317 31.6251 25.6971 32.9021 26.7019C34.6352 28.0721 35.0913 29.8991 34.9089 31.9087C34.3616 31.9087 33.8143 31.9087 33.1758 31.9087C33.1758 31.5433 33.1758 31.2692 33.1758 30.9039C33.1758 28.7116 31.4427 27.0673 29.071 27.0673C28.5237 27.0673 28.5237 27.0673 28.4325 26.6106C28.5237 26.3366 28.4325 25.9712 28.3413 25.5144Z" fill="#C5C5C5"/>
</g>
<defs>
<clipPath id="clip0_3511_9918">
<rect width="27" height="19" fill="white" transform="translate(8 13)"/>
</clipPath>
</defs>
</svg>
