<svg xmlns="http://www.w3.org/2000/svg" width="20" height="20" fill="none" viewBox="0 0 20 20">
    <path fill="#fff" stroke="#fff" stroke-width=".3" d="M19.12 8.86c-.003-1.687-1.207-3.123-2.844-3.39V3.509c.07-.76-.479-1.432-1.224-1.503-.039-.004-.077-.006-.115-.006-.244.002-.485.058-.707.162L7.102 5.427h-4.15c-1.078.002-1.95.89-1.952 1.986v2.892c0 .67.333 1.296.884 1.662l.837 4.257c.233 1.065 1.15 1.83 2.221 1.855 1.078-.001 1.95-.89 1.952-1.987v-3.8h.209l7.127 3.264c.221.105.463.16.707.162.376.007.734-.156.98-.444.244-.298.37-.677.357-1.065v-1.96c1.637-.267 2.843-1.704 2.845-3.39zM2.061 7.412c0-.5.4-.905.891-.906h3.733v4.704H2.953c-.492 0-.89-.405-.89-.905V7.413zm3.77 8.677c0 .5-.398.905-.89.905-.563-.03-1.04-.428-1.18-.984l-.73-3.72h2.8v3.799zm9.38-1.88c.01.126-.024.252-.096.356-.045.05-.112.079-.18.073-.094-.004-.186-.028-.27-.07l-6.92-3.166V6.316l6.92-3.167c.083-.041.176-.065.27-.069.228 0 .277.233.277.429V14.21zm1.062-3.06V6.57c1.244.304 2.009 1.576 1.71 2.84-.203.86-.864 1.531-1.71 1.74z"/>
</svg>
