<svg xmlns="http://www.w3.org/2000/svg" width="40" height="40" fill="none" viewBox="0 0 40 40">
    <circle cx="20" cy="20" r="19.4" stroke="#C4CBDB" stroke-width="1.2"/>
    <path fill="#C4CBDB" d="M14.028 19.66c0-.806.664-1.461 1.485-1.461.82 0 1.486.655 1.487 1.462 0 .807-.666 1.462-1.487 1.462-.82 0-1.485-.655-1.485-1.462zM19.968 18.199c-.82 0-1.485.655-1.485 1.462 0 .807.665 1.462 1.485 1.462.82 0 1.486-.655 1.486-1.462 0-.807-.666-1.462-1.486-1.462zM22.195 19.66c0-.806.665-1.461 1.486-1.461.82 0 1.485.655 1.486 1.462 0 .807-.666 1.462-1.486 1.462-.821 0-1.486-.655-1.486-1.462z"/>
    <path fill="#C4CBDB" fill-rule="evenodd" d="M26.496 14H12.659c-.916.001-1.658.732-1.659 1.633v7.962c.001.9.743 1.631 1.659 1.632h8.664l2.794 2.75v.034c.181.2.41.423.65.605l.065.065c.081.079.178.134.28.165.535.294 1.023.244 1.023-.835v-.995h-.122v-1.789h.47c.917 0 1.659-.732 1.66-1.633v-7.958c.001-.898-.735-1.628-1.647-1.636zm.269 9.595c0 .146-.12.266-.27.266h-1.172c-.364 0-.665.274-.692.63v2.056L22.1 24.055l-.028-.026c-.126-.11-.29-.17-.458-.17h-8.95c-.15 0-.27-.12-.27-.266v-7.957c0-.146.12-.265.27-.265h13.835c.149 0 .27.119.27.265l-.003 7.959z" clip-rule="evenodd"/>
</svg>
