<svg width="32" height="18" viewBox="0 0 32 18" fill="none" xmlns="http://www.w3.org/2000/svg">
<g clip-path="url(#clip0_5873_105968)">
<path d="M31.9684 9.38522C31.9684 9.12914 31.7946 8.87307 31.6523 8.63206C30.799 7.24624 29.8983 5.89055 29.0765 4.48967C28.5393 3.58588 27.8282 3.11892 26.722 3.19424C25.7896 3.25449 24.8573 3.2093 23.8617 3.2093C23.8617 2.78753 23.8617 2.48627 23.8617 2.185C23.8301 0.829312 23.0242 0.046025 21.602 0.000835386C21.3649 -0.0142278 21.1279 0.000835386 20.8909 0.000835386C17.6514 0.000835386 10.9353 0.000835386 7.6958 0.000835386C6.51062 0.000835386 6.06815 0.362352 5.7521 1.14564V1.1607C5.64148 1.43184 5.54667 1.76323 5.43605 2.15487C5.35704 2.44108 5.29383 2.69715 5.23062 2.93816L5.00938 3.69132H3.96642C3.61877 3.69132 3.33432 3.96246 3.33432 4.29385V4.33904C3.33432 4.67043 3.61877 4.94157 3.96642 4.94157H7.63259C7.98025 4.94157 8.26469 4.67043 8.26469 4.33904V4.29385C8.26469 3.96246 7.98025 3.69132 7.63259 3.69132H6.46321L6.82667 1.98918C6.84247 1.68791 6.96889 1.52222 7.14272 1.40171C7.31654 1.3264 7.56938 1.29627 7.90123 1.29627C11.2988 1.29627 18.1728 1.31133 21.5704 1.28121C22.2815 1.28121 22.5501 1.46197 22.5343 2.16994C22.4869 4.09803 22.5027 6.04118 22.5185 7.96927C22.5185 9.15927 23.1506 9.77686 24.3832 9.83711C24.8889 9.86724 25.3788 9.83711 25.8844 9.83711C27.4647 9.83711 29.0291 9.83711 30.7042 9.83711C30.7042 10.515 30.7042 11.1175 30.7042 11.7049C30.7358 14.1452 30.8464 13.9494 28.2706 13.9192C28.0178 13.9192 27.6859 13.7385 27.5437 13.5276C26.2163 11.6748 23.7985 11.6748 22.5027 13.5125C22.3763 13.7084 22.0919 13.9042 21.8706 13.9042C20.559 13.9343 15.281 13.9343 13.9694 13.9042C13.7798 13.9042 13.4637 13.7837 13.4005 13.6481C12.4681 11.5091 9.38667 11.4187 8.16988 13.633C8.02765 13.9042 5.15161 13.8741 4.64593 13.859C4.58272 13.859 4.42469 13.7837 4.31407 13.6481L4.70914 11.5091H10.2874C10.6351 11.5091 10.9195 11.238 10.9195 10.9066V10.8614C10.9195 10.53 10.6351 10.2589 10.2874 10.2589H0.632099C0.284444 10.2589 0 10.53 0 10.8614V10.9066C0 11.238 0.284444 11.5091 0.632099 11.5091H3.2237L2.71802 13.9192C2.90765 15.5159 3.53975 15.1846 7.82222 15.1544C8.39111 16.8114 9.32346 17.5947 10.6983 17.6549C12.0731 17.7152 13.037 16.9469 13.764 15.2147C13.8114 15.1996 13.8588 15.1846 13.922 15.1846C15.0756 15.1846 20.1956 15.1996 21.3491 15.1695C21.8548 15.1544 22.1235 15.2599 22.2973 15.7871C22.6765 16.9469 23.8301 17.685 25.0469 17.67C26.2479 17.6549 27.3225 16.9168 27.7491 15.8021C27.8282 15.6063 27.9072 15.3954 27.9862 15.1695C28.7763 15.1695 29.5506 15.1996 30.3091 15.1695C31.2415 15.1243 31.9526 14.5218 31.9842 13.6782C32.0158 12.2472 32 10.8162 31.9684 9.38522ZM25.8054 8.55674C23.8459 8.55674 23.8459 8.55674 23.8459 6.67384C23.8459 5.98093 23.8459 5.27296 23.8459 4.45955C25.0469 4.45955 26.1531 4.44448 27.2593 4.47461C27.4331 4.47461 27.6543 4.61018 27.7491 4.76081C28.5393 5.96587 29.2978 7.20105 30.1353 8.55674C28.6025 8.55674 27.1961 8.55674 25.8054 8.55674ZM10.7773 16.3896C9.89235 16.3896 9.22864 15.757 9.21284 14.9285C9.19704 14.1151 9.87654 13.4372 10.7299 13.4071C11.599 13.377 12.3575 14.0849 12.3417 14.9134C12.3417 15.7419 11.6464 16.3896 10.7773 16.3896ZM24.9679 16.3896C24.0988 16.3745 23.4351 15.7268 23.4351 14.8984C23.4509 14.0849 24.1462 13.4222 24.9995 13.4222C25.8844 13.4222 26.6114 14.1452 26.5798 14.9737C26.5323 15.7871 25.837 16.4047 24.9679 16.3896Z" fill="#40AA8B" stroke="#40AA8B" stroke-width="0.4"/>
<path d="M2.67018 8.24048H9.29142C9.63907 8.24048 9.92352 7.96934 9.92352 7.63795V7.59276C9.92352 7.26137 9.63907 6.99023 9.29142 6.99023H2.67018C2.32253 6.99023 2.03809 7.26137 2.03809 7.59276V7.63795C2.03809 7.96934 2.32253 8.24048 2.67018 8.24048Z" fill="#40AA8B" stroke="#40AA8B" stroke-width="0.4"/>
<path d="M10.7773 7.59276V7.63795C10.7773 7.96934 11.0618 8.24048 11.4094 8.24048H14.1117C14.4593 8.24048 14.7438 7.96934 14.7438 7.63795V7.59276C14.7438 7.26137 14.4593 6.99023 14.1117 6.99023H11.4094C11.0618 6.99023 10.7773 7.26137 10.7773 7.59276Z" fill="#40AA8B" stroke="#40AA8B" stroke-width="0.4"/>
<path d="M10.7143 3.67578H9.86097C9.49751 3.67578 9.19727 3.96198 9.19727 4.30844C9.19727 4.65489 9.49751 4.94109 9.86097 4.94109H10.7143C11.0778 4.94109 11.378 4.65489 11.378 4.30844C11.378 3.96198 11.0778 3.67578 10.7143 3.67578Z" fill="#40AA8B" stroke="#40AA8B" stroke-width="0.4"/>
</g>
<defs>
<clipPath id="clip0_5873_105968">
<rect width="32" height="17.6842" fill="white"/>
</clipPath>
</defs>
</svg>
