<svg xmlns="http://www.w3.org/2000/svg" width="55" height="55" fill="none" viewBox="0 0 55 55">
    <path fill="#7E8AA2" d="M48.923 44.982l-2.277-.91c-1.047-.415-1.733-1.428-1.73-2.554V22.917c.013-7.854-5.25-14.738-12.833-16.786V4.583C32.083 2.053 30.031 0 27.5 0c-2.532 0-4.584 2.052-4.584 4.583v1.559c-7.595 2.022-12.868 8.915-12.833 16.775v18.601c.004 1.126-.683 2.139-1.73 2.553l-2.277.911c-.349.14-.577.477-.577.852v3.667c0 .506.41.916.917.916h15.666C22.527 53.063 24.817 55 27.5 55c2.682 0 4.972-1.937 5.417-4.583h15.666c.507 0 .917-.41.917-.916v-3.667c0-.375-.228-.713-.577-.852zM24.75 4.583c0-1.518 1.232-2.75 2.75-2.75 1.52 0 2.75 1.232 2.75 2.75V5.72c-.087-.013-.183-.02-.266-.032-.275-.04-.55-.073-.825-.1-.16-.015-.32-.03-.482-.04-.308-.021-.617-.032-.927-.037-.083-.001-.165-.01-.25-.01-.084 0-.155.008-.234.009-.32.005-.642.017-.953.038-.153.01-.306.025-.459.038-.292.028-.581.064-.868.106-.078.012-.16.015-.237.028l.002-1.136zm2.75 48.584c-1.67-.001-3.13-1.132-3.55-2.75h7.1c-.419 1.618-1.878 2.749-3.55 2.75zm20.168-4.583H7.333v-2.13l1.7-.68c1.746-.69 2.889-2.38 2.883-4.256V22.917c.008-4.437 1.903-8.66 5.213-11.615 3.31-2.954 7.72-4.361 12.129-3.868.575.065 1.146.165 1.709.3 7.092 1.605 12.125 7.911 12.116 15.183v18.601c-.006 1.877 1.138 3.565 2.882 4.257l1.702.68v2.13z"/>
</svg>
