<svg width="15" height="17" viewBox="0 0 15 17" fill="none" xmlns="http://www.w3.org/2000/svg">
<g clip-path="url(#clip0_1723_6982)">
<path d="M5.53281 0.983585C5.53281 1.35244 5.53281 1.72129 5.53281 1.96719C5.53281 2.09014 5.65576 2.21309 5.77871 2.33604C5.90166 2.21309 6.02461 2.09014 6.14756 1.96719C6.14756 1.72129 6.14756 1.47539 6.14756 1.35244C6.14756 1.10654 6.14756 0.983585 6.14756 0.860634C6.51641 0.614732 6.76231 0.368831 7.00822 0.122929C7.25412 -0.122973 8.11477 -2.19348e-05 8.23772 0.24588C8.23772 0.368831 8.36067 0.491781 8.36067 0.491781C9.09838 0.614732 8.97543 1.10654 8.97543 1.59834C8.97543 1.72129 8.97543 1.84424 8.97543 1.84424C9.09838 1.96719 9.22133 2.09014 9.34428 2.21309C9.46723 2.09014 9.59018 1.96719 9.59018 1.84424C9.59018 1.59834 9.59018 1.35244 9.59018 0.983585C10.3279 1.59834 10.8197 2.45899 11.0656 3.4426C11.0656 3.6885 11.1885 3.9344 11.4344 4.05735C11.6803 4.30326 11.6803 4.54916 11.4344 4.67211C11.0656 5.04096 10.6967 5.16391 10.3279 5.28686C8.48362 5.77867 6.63936 5.77867 4.67215 5.28686C4.3033 5.16391 3.93445 5.04096 3.68854 4.79506C3.44264 4.54916 3.31969 4.30326 3.68854 4.05735C3.81149 3.9344 3.93445 3.6885 3.93445 3.56555C4.0574 2.58195 4.5492 1.72129 5.53281 0.983585Z" fill="white"/>
<path d="M11.1885 6.6393C11.0656 7.00816 10.9426 7.49996 10.8197 7.74586C10.4508 8.48357 10.082 9.09832 9.71314 9.71307C8.48363 11.4344 6.27051 11.3114 5.16396 9.46717C4.91805 8.97537 4.5492 8.48357 4.3033 7.86881C4.0574 7.37701 4.0574 6.76226 3.93445 6.27045C3.93445 6.02455 4.0574 5.77865 4.42625 5.9016C6.39346 6.3934 8.23773 6.3934 10.2049 6.02455C10.9426 5.77865 11.0656 5.9016 11.1885 6.6393Z" fill="white"/>
<path d="M12.418 16.3525C10.4508 16.4754 8.48359 16.4754 6.51638 16.4754C5.53277 16.4754 4.42622 16.3525 3.44261 16.2295C3.07376 16.2295 2.82786 16.1066 2.95081 15.6148C2.95081 15.2459 2.95081 14.8771 2.95081 14.3853C6.14753 14.3853 9.34425 14.3853 12.541 14.3853C12.418 15.123 12.418 15.6148 12.418 16.3525Z" fill="white"/>
<path d="M4.30328 13.4016C4.30328 12.418 4.30328 11.4344 4.30328 10.4508C4.30328 10.3279 4.42623 10.082 4.54919 10.082C4.67214 10.082 4.91804 10.082 5.04099 10.2049C5.65574 10.8197 6.14755 11.1885 6.88525 11.4344C8.11476 11.6803 8.97541 11.1885 9.83607 10.3279C9.95902 10.2049 10.2049 10.082 10.4508 10.082C10.8197 10.082 10.8197 10.3279 10.8197 10.6967C10.8197 11.5574 10.8197 12.418 10.8197 13.4016C8.60656 13.4016 6.5164 13.4016 4.30328 13.4016Z" fill="white"/>
<path d="M3.19672 10.8196C3.19672 11.6803 3.19672 12.541 3.19672 13.4016C2.82787 13.5246 2.33607 13.5246 2.09016 13.7705C1.84426 14.0164 1.72131 14.3852 1.72131 14.7541C1.59836 15.1229 1.72131 15.6147 1.72131 16.1065C1.22951 15.9836 0.737705 15.7377 0.245902 15.6147C0.122951 15.6147 0 15.3688 0 15.2459C0.122951 13.4016 0.860656 11.4344 3.19672 10.8196Z" fill="white"/>
<path d="M13.5246 15.9836C13.2787 13.6475 13.2787 13.6475 11.8033 13.4016C11.8033 12.541 11.8033 11.6803 11.8033 10.8196C13.4016 11.1885 14.6312 12.541 14.8771 14.3852C15.123 15.6147 15.123 15.7377 13.7705 15.9836C13.7705 15.9836 13.6475 15.9836 13.5246 15.9836Z" fill="white"/>
</g>
<defs>
<clipPath id="clip0_1723_6982">
<rect width="15" height="16.5984" fill="white"/>
</clipPath>
</defs>
</svg>
