<svg width="14" height="14" viewBox="0 0 14 14" fill="none" xmlns="http://www.w3.org/2000/svg">
<path d="M2.4697 12.5325C2.52004 12.2363 2.5724 11.9342 2.62476 11.6301C2.80802 10.5895 2.99128 9.55089 3.17655 8.5103C3.19467 8.40762 3.16648 8.34246 3.09197 8.27138C2.13138 7.36111 1.17482 6.44887 0.21624 5.53663C0.10548 5.43001 0.0188859 5.31548 0.00277543 5.15949C-0.025418 4.88503 0.163881 4.64019 0.447828 4.59872C1.28155 4.4763 2.11527 4.3598 2.94899 4.24133C3.48265 4.1663 4.01429 4.09521 4.54594 4.01228C4.60434 4.00241 4.67281 3.9412 4.701 3.88591C5.29105 2.72882 5.87506 1.56977 6.46108 0.410706C6.4792 0.373189 6.49934 0.337648 6.51747 0.300131C6.61816 0.1086 6.77725 0 6.99877 0C7.22029 0 7.38139 0.106626 7.48007 0.300131C7.762 0.854979 8.04192 1.40983 8.32184 1.96467C8.64607 2.6064 8.97231 3.24616 9.29049 3.88986C9.33681 3.98069 9.39521 4.01228 9.49187 4.0261C10.8311 4.21368 12.1682 4.40719 13.5074 4.59477C13.737 4.62636 13.9001 4.73891 13.9726 4.95809C14.0451 5.17924 13.9686 5.3609 13.8034 5.51886C12.8388 6.43702 11.8762 7.35716 10.9076 8.27335C10.825 8.35036 10.8069 8.42144 10.825 8.5261C11.0566 9.82732 11.2862 11.1305 11.5158 12.4318C11.554 12.649 11.4936 12.8365 11.3063 12.9669C11.115 13.0991 10.9156 13.0932 10.7102 12.9886C9.51805 12.3745 8.32184 11.7624 7.13168 11.1463C7.03502 11.097 6.96051 11.095 6.86384 11.1463C5.67166 11.7624 4.47747 12.3765 3.28328 12.9866C2.94093 13.1623 2.57844 13.0202 2.48581 12.6786C2.48178 12.6332 2.47775 12.5858 2.4697 12.5325Z" fill="white"/>
</svg>
