<svg width="16" height="17" viewBox="0 0 16 17" fill="none" xmlns="http://www.w3.org/2000/svg">
<path d="M14.0994 2.79736C11.9989 0.35155 8.68023 -0.31985 7.09764 0.130947L6.98254 0.169313L7.17437 1.64639L7.30865 1.6368C9.62019 1.45456 11.2124 2.36575 12.1331 3.16184C13.4184 4.26485 14.2337 5.84744 14.3488 7.48757C14.4734 9.14689 14.0322 10.624 13.0347 11.89C11.6248 13.674 9.70651 14.4989 7.30865 14.3454L7.17437 14.3358L6.98254 15.8801L7.11682 15.9088C7.45252 15.9664 7.80741 16.0048 8.17188 16.0048C10.4163 16.0048 13.1306 14.8442 14.742 12.3312C16.6315 9.34831 16.3725 5.43501 14.0994 2.79736Z" fill="white"/>
<path d="M3.62555 14.7387L5.49588 15.6211L6.033 14.0673L4.49837 13.3287L3.62555 14.7387Z" fill="white"/>
<path d="M6.033 1.91496L5.48629 0.351562L3.62555 1.27234L4.49837 2.6535L6.033 1.91496Z" fill="white"/>
<path d="M2.02379 5.76116L1.8991 5.7132C1.80319 5.67483 1.70727 5.64606 1.61136 5.6077C1.35239 5.51178 1.10301 5.41587 0.844046 5.33914C0.748131 5.31036 0.613851 5.34873 0.527529 5.39668C0.460389 5.43505 0.422023 5.48301 0.40284 5.54055C0.297334 5.92421 0.211011 6.29828 0.115097 6.71071C0.0863229 6.82581 0.0575486 6.95049 0.0287743 7.06559L0 7.21905L1.63054 7.41088L2.02379 5.76116Z" fill="white"/>
<path d="M1.13177 12.1586L2.36907 13.7124L3.568 12.5902L2.52253 11.2762L1.13177 12.1586Z" fill="white"/>
<path d="M1.8991 10.2691L2.0142 10.2211L1.63054 8.57141L0 8.76324L0.0383657 8.9167C0.06714 9.05098 0.0959143 9.17567 0.124689 9.30036C0.220603 9.69361 0.306926 10.0677 0.40284 10.4321C0.422023 10.5185 0.508346 10.576 0.565894 10.6048C0.613851 10.624 0.680991 10.6623 0.757723 10.6623C0.776906 10.6623 0.80568 10.6623 0.824863 10.6528C1.10301 10.5664 1.37157 10.4609 1.64013 10.365C1.72646 10.3362 1.81278 10.2979 1.8991 10.2691Z" fill="white"/>
<path d="M3.51045 3.4496L2.40744 2.22189L1.13177 3.83325L2.53212 4.70607L3.51045 3.4496Z" fill="white"/>
<path d="M8.41165 11.9284C8.43084 11.9284 8.45002 11.9284 8.4692 11.9284C8.94877 11.8996 9.06387 11.4776 9.10224 11.3433C9.2557 10.7679 9.42834 10.1732 9.58181 9.60729L10.3587 6.85456L10.4354 7.05598C10.5889 7.45882 10.752 7.88084 10.915 8.28368C11.0397 8.61938 11.2603 8.79202 11.5768 8.79202H11.8838C12.2962 8.79202 12.7278 8.79202 13.1498 8.79202C13.5335 8.78243 13.8116 8.52346 13.8116 8.13981C13.8212 7.75615 13.5431 7.46841 13.1306 7.45882C12.8429 7.44923 12.536 7.43963 12.2386 7.45882C12.0756 7.46841 12.018 7.43004 11.9605 7.26699C11.7687 6.72987 11.5576 6.19275 11.3562 5.66522C11.2124 5.30075 11.0781 4.94586 10.9438 4.58139C10.8958 4.44711 10.7328 4.02509 10.234 4.05386C9.75445 4.08264 9.63936 4.49507 9.60099 4.62935C9.3708 5.48298 9.12142 6.34621 8.88163 7.19026L8.6898 7.86166C8.5843 8.24531 8.4692 8.62897 8.3541 9.03181L8.28696 9.262C8.17187 9.01263 8.06636 8.75366 7.95126 8.50428C7.63475 7.79452 7.31823 7.06557 6.97294 6.3558C6.87702 6.15438 6.61806 5.92419 6.38786 5.90501C6.17685 5.88582 5.98502 6.04888 5.81238 6.19275L5.77401 6.23111C5.63973 6.34621 5.54382 6.50927 5.49586 6.63395C5.18893 7.34372 4.69977 7.60269 3.96123 7.45882C3.90368 7.44923 3.84613 7.44923 3.79818 7.44923C3.78858 7.44923 3.7694 7.44923 3.75981 7.44923C3.3186 7.45882 3.05004 7.72738 3.05964 8.13022C3.06923 8.51387 3.34738 8.77284 3.75981 8.78243C3.85572 8.78243 3.94205 8.78243 4.03796 8.78243C4.4408 8.79202 4.86282 8.79202 5.27526 8.76325C5.50545 8.74407 5.72605 8.5906 5.85074 8.45632C5.99461 8.30286 6.10012 8.13022 6.21522 7.94798C6.21522 7.93839 6.22481 7.93839 6.22481 7.9288C6.24399 7.96716 6.26317 8.00553 6.27276 8.04389L6.61806 8.8208C7.00171 9.67444 7.38537 10.5473 7.76903 11.4201C7.86494 11.6407 8.03759 11.9284 8.41165 11.9284Z" fill="white"/>
</svg>
