<svg width="15" height="21" viewBox="0 0 15 21" fill="none" xmlns="http://www.w3.org/2000/svg">
<path d="M13.4094 1H3.06812C2.51982 1.00072 1.99418 1.23446 1.60648 1.64995C1.21877 2.06544 1.00067 2.62876 1 3.21635V16.5152C0.999763 16.8064 1.05309 17.0947 1.15694 17.3637C1.26079 17.6327 1.41312 17.8772 1.60521 18.083C1.7973 18.2889 2.02538 18.4521 2.2764 18.5634C2.52743 18.6747 2.79646 18.7319 3.06812 18.7316H3.36341V19.6814C3.363 19.7444 3.38016 19.8061 3.41269 19.8586C3.44522 19.9111 3.49165 19.952 3.546 19.9761C3.60036 20.0001 3.66018 20.0062 3.7178 19.9936C3.77542 19.981 3.82821 19.9502 3.86941 19.9052L4.84239 18.8625L5.81536 19.9052C5.85656 19.9502 5.90935 19.981 5.96697 19.9936C6.02459 20.0062 6.08441 20.0001 6.13877 19.9761C6.19313 19.952 6.23955 19.9111 6.27208 19.8586C6.30462 19.8061 6.32178 19.7444 6.32137 19.6814V16.1984H13.4123V16.8317H6.90906V17.465H13.4091V18.0983H6.90906V18.7316H13.4091C13.5657 18.7314 13.7159 18.6646 13.8267 18.5459C13.9375 18.4272 13.9998 18.2662 14 18.0983V1.6333C13.9998 1.46547 13.9375 1.30456 13.8268 1.18585C13.7161 1.06714 13.566 1.00031 13.4094 1ZM1.59058 3.21635C1.59106 2.79666 1.74684 2.3943 2.02376 2.09753C2.30069 1.80076 2.67613 1.63381 3.06776 1.6333H13.4087V14.2993H3.06812C2.79277 14.2991 2.52019 14.3581 2.26647 14.4727C2.01276 14.5873 1.78305 14.7553 1.59094 14.9667L1.59058 3.21635ZM1.62022 16.1984H3.36377V16.8317H1.62058C1.58096 16.6227 1.58096 16.4074 1.62058 16.1984H1.62022ZM3.06776 18.0964C2.83847 18.096 2.61238 18.0386 2.4073 17.9287C2.20221 17.8188 2.02372 17.6594 1.88587 17.4631H3.36377V18.0964H3.06776ZM5.72681 18.9152L5.04949 18.1893C5.02207 18.1599 4.9895 18.1366 4.95365 18.1206C4.91781 18.1047 4.87938 18.0965 4.84058 18.0965C4.80178 18.0965 4.76335 18.1047 4.72751 18.1206C4.69166 18.1366 4.6591 18.1599 4.63167 18.1893L3.95435 18.9152V16.1984H5.72537L5.72681 18.9152ZM1.88732 15.5639C2.02477 15.3673 2.20307 15.2077 2.4081 15.0978C2.61312 14.9879 2.83923 14.9306 3.06848 14.9306H13.4094V15.5639H1.88732Z" fill="black" stroke="black" stroke-width="0.4"/>
<path d="M2.7728 2.2666H3.36374V13.6656H2.7728V2.2666Z" fill="black" stroke="black" stroke-width="0.4"/>
<path d="M5.13621 6.6997H11.6358C11.6747 6.69975 11.7131 6.6916 11.749 6.67572C11.7848 6.65984 11.8174 6.63654 11.8449 6.60715C11.8723 6.57776 11.8941 6.54286 11.909 6.50444C11.9239 6.46602 11.9315 6.42484 11.9315 6.38325V4.48528C11.9318 4.4435 11.9243 4.40207 11.9096 4.36338C11.8949 4.32469 11.8731 4.28951 11.8457 4.25987C11.8182 4.23024 11.7855 4.20673 11.7495 4.1907C11.7135 4.17468 11.6748 4.16645 11.6358 4.1665H5.13621C5.05789 4.1665 4.98279 4.19985 4.92741 4.25919C4.87203 4.31854 4.84092 4.39903 4.84092 4.48296V6.38092C4.84063 6.42267 4.84806 6.46407 4.86277 6.50274C4.87748 6.5414 4.89919 6.57656 4.92664 6.60619C4.95409 6.63583 4.98674 6.65934 5.02271 6.67539C5.05867 6.69144 5.09725 6.6997 5.13621 6.6997ZM5.4315 4.80174H11.3406V6.06834H5.43186L5.4315 4.80174Z" fill="black" stroke="black" stroke-width="0.4"/>
</svg>
