<svg width="16" height="16" viewBox="0 0 16 16" fill="none" xmlns="http://www.w3.org/2000/svg">
<path fill-rule="evenodd" clip-rule="evenodd" d="M0 7.07526C0 6.67106 0 6.27021 0 5.86601C0.106195 5.58875 0.315044 5.49188 0.619469 5.52528C0.775221 5.54199 0.938053 5.52862 1.09735 5.52528C1.36283 5.5186 1.47965 5.42507 1.54336 5.18122C1.55398 5.14113 1.56106 5.10439 1.57168 5.0643C1.62832 4.83381 1.57168 4.71021 1.35221 4.58995C1.17522 4.49642 0.99823 4.40289 0.824779 4.30935C0.573451 4.17239 0.520354 4.00203 0.637168 3.7515C0.775221 3.46088 0.938053 3.18696 1.10796 2.91638C1.31681 2.58233 1.49735 2.51886 1.82301 2.63578C1.99292 2.72931 2.15929 2.82619 2.3292 2.91638C2.65841 3.09342 3.16106 2.83621 3.18938 2.4721C3.2 2.34182 3.07965 2.26165 3.04779 2.14807C3.01947 2.09797 2.99115 2.0512 2.96283 2.00109C2.90265 1.90088 2.84248 1.80066 2.77876 1.69711C2.7292 1.59021 2.73628 1.47664 2.74336 1.3664C2.78938 1.28623 2.83894 1.21274 2.92389 1.16263C3.25664 0.958866 3.59292 0.761778 3.95752 0.608117C4.22301 0.494541 4.35044 0.521265 4.54159 0.731714C4.66195 0.932142 4.77522 1.13925 4.89911 1.33634C4.99115 1.47998 5.13274 1.53009 5.30973 1.49334C5.38407 1.47998 5.45487 1.46662 5.5292 1.44991C5.73097 1.39981 5.83363 1.27287 5.84071 1.06576C5.84071 0.965547 5.84071 0.865333 5.84071 0.761778C5.84071 0.651543 5.84071 0.541308 5.84071 0.431072C5.86903 0.153813 6.01416 0.0235353 6.31504 0.0101734C6.7115 -0.00652893 7.1115 0.000152006 7.50796 0.0101734C7.73805 0.0669613 7.87611 0.20058 7.89381 0.431072C7.89381 0.531286 7.89381 0.6315 7.89381 0.735055C7.89381 0.84529 7.89381 0.955525 7.89381 1.06576C7.89027 1.26619 7.95752 1.36306 8.15221 1.42987C8.23009 1.4566 8.31504 1.4733 8.39646 1.49334C8.59115 1.53677 8.74336 1.48332 8.84248 1.32298C8.96283 1.12923 9.07611 0.932142 9.19292 0.735055C9.19646 0.725033 9.20354 0.715012 9.20708 0.704991C9.29204 0.6315 9.37345 0.554669 9.49734 0.544648C9.63894 0.531286 9.75221 0.604777 9.87965 0.641522C9.96814 0.691629 10.0531 0.758438 10.1664 0.761778C10.2867 0.872014 10.4389 0.932142 10.5841 1.00563C10.6159 1.02568 10.6478 1.04572 10.6796 1.06576C11.0584 1.37642 11.0726 1.42319 10.9239 1.75724C10.8779 1.81068 10.8283 1.86413 10.8425 1.94096C10.715 2.04786 10.6478 2.18816 10.5876 2.3318C10.531 2.43869 10.5381 2.53891 10.6159 2.63578C10.6407 2.71929 10.715 2.76272 10.7788 2.81617C10.8319 2.893 10.8991 2.94978 10.9982 2.96983C11.1398 3.02327 11.2708 3.01659 11.3876 2.91638C11.4336 2.893 11.4796 2.86627 11.5292 2.84623C11.7593 2.7527 11.9469 2.56563 12.2195 2.56897C12.2513 2.57899 12.2832 2.58901 12.315 2.59904C12.4142 2.64914 12.4814 2.72931 12.5451 2.80948C12.5805 2.86293 12.6195 2.91304 12.6549 2.96649C12.6867 3.04332 12.7327 3.11347 12.7929 3.17694C12.8035 3.19698 12.8177 3.21702 12.8283 3.23372C12.885 3.3473 12.9381 3.46088 13.0195 3.56443C13.0265 3.57779 13.0336 3.58781 13.0407 3.60118C13.0796 3.69137 13.1186 3.78156 13.1575 3.87175C13.1858 4.07552 13.0973 4.21916 12.9062 4.31269C12.7398 4.39287 12.577 4.47972 12.4177 4.56657C12.1451 4.71355 12.1027 4.82713 12.1947 5.16117C12.2655 5.41839 12.3929 5.51526 12.6867 5.5186C12.8637 5.52194 13.0372 5.52862 13.2142 5.51526C13.4761 5.49856 13.6425 5.59877 13.7239 5.82927C13.7451 6.13325 13.7735 6.44057 13.7487 6.74789C13.731 6.96502 13.7628 7.19552 13.5646 7.36588C13.4832 7.41933 13.3912 7.43603 13.292 7.43603C13.0796 7.43269 12.8673 7.43269 12.6513 7.43603C12.4708 7.43937 12.3115 7.48614 12.2407 7.66318C12.1947 7.77676 12.1628 7.89033 12.1522 8.01393C12.1381 8.16091 12.2018 8.27115 12.3327 8.3413C12.5274 8.44485 12.7221 8.54507 12.9204 8.64862C12.9451 8.67868 12.9735 8.70207 13.0195 8.70541C13.0832 8.75886 13.1044 8.84237 13.1788 8.88579C13.2035 9.02943 13.1257 9.14969 13.0832 9.27663C13.0195 9.39689 12.9558 9.51714 12.8885 9.6374C12.8319 9.67748 12.8354 9.761 12.7611 9.79106C11.9823 9.08288 11.2248 8.35466 10.4602 7.63312C10.3788 7.55629 10.3469 7.49282 10.3858 7.38258C10.4283 7.26567 10.4708 7.14207 10.4602 7.01513C10.4814 6.99843 10.485 6.97839 10.4814 6.955C10.485 6.9049 10.4885 6.85145 10.492 6.80134C10.5345 6.73453 10.5204 6.66104 10.5133 6.59089C10.5133 6.54079 10.5133 6.49068 10.5133 6.44057C10.5168 6.35706 10.5345 6.27355 10.492 6.19672C10.4991 6.00965 10.4602 5.82927 10.3965 5.65222C10.4 5.59877 10.3858 5.54867 10.3575 5.5019C10.2973 5.24134 10.1699 5.00417 10.0319 4.77702C10.0248 4.767 10.0177 4.76032 10.0106 4.7503C10.0035 4.74027 9.99646 4.73359 9.98938 4.72357C9.9823 4.69685 9.97522 4.67012 9.9469 4.65676C9.90796 4.56657 9.84425 4.48974 9.77699 4.41625C9.75221 4.3628 9.70973 4.32272 9.66372 4.28597C9.6177 4.19912 9.5469 4.13565 9.46903 4.07886C9.44425 4.03544 9.40531 4.00537 9.35929 3.97865C9.30265 3.90516 9.23186 3.84837 9.15044 3.80494C9.11504 3.75818 9.06903 3.72477 9.01239 3.70473C9.00531 3.69805 8.99469 3.69137 8.98761 3.68469C8.97699 3.67801 8.96637 3.66798 8.95575 3.6613C8.88142 3.61788 8.80708 3.57445 8.73628 3.53103C8.69027 3.5043 8.64779 3.47758 8.60177 3.45419C8.36106 3.3306 8.11327 3.21368 7.83717 3.17025C7.77699 3.13351 7.70973 3.12683 7.64248 3.11681C7.49381 3.08674 7.34867 3.04666 7.19646 3.05668C7.17522 3.05668 7.15398 3.05668 7.13274 3.05334C6.93097 3.02327 6.7292 3.02996 6.52743 3.05668C6.39646 3.05668 6.26903 3.07338 6.14159 3.11013C6.03894 3.11013 5.9469 3.14353 5.85487 3.17694C5.50796 3.26379 5.18584 3.39741 4.89558 3.59449C4.87434 3.60786 4.8531 3.61788 4.83186 3.63124C4.44956 3.87175 4.12743 4.16905 3.87257 4.52982C3.86195 4.54653 3.84779 4.56657 3.83717 4.58327C3.62478 4.86053 3.47257 5.16117 3.39115 5.49522C3.38407 5.50524 3.37699 5.51526 3.36991 5.52528C3.33805 5.61548 3.30619 5.70233 3.29911 5.7992C3.26372 5.91612 3.24956 6.03972 3.24248 6.15997C3.23894 6.25016 3.2354 6.3437 3.2354 6.43389C3.2354 6.58755 3.21062 6.74121 3.26018 6.88819C3.26726 6.94832 3.24602 7.01179 3.2885 7.06858C3.29204 7.09864 3.29558 7.12871 3.29911 7.15543C3.32035 7.2356 3.34159 7.31577 3.36283 7.39594C3.41593 7.61976 3.50442 7.83021 3.62124 8.03063C3.68142 8.15089 3.74159 8.26781 3.83363 8.36802C3.83363 8.37804 3.84071 8.38472 3.84779 8.3914C3.91858 8.50164 4 8.60185 4.09204 8.69539C4.11327 8.71877 4.13451 8.73881 4.15575 8.7622C4.44248 9.07954 4.77876 9.33676 5.17876 9.51714C5.26726 9.57059 5.35575 9.62738 5.46549 9.63406C5.55752 9.70755 5.6708 9.73427 5.78407 9.75431C5.90796 9.80108 6.0354 9.83783 6.16991 9.84451C6.28319 9.88459 6.40354 9.89127 6.52389 9.89795C6.63009 9.90129 6.73628 9.90464 6.84248 9.90464C6.88496 9.93136 6.93097 9.92802 6.97345 9.90464C7.02655 9.90464 7.07965 9.90129 7.13274 9.90129C7.15398 9.90129 7.17522 9.89795 7.19646 9.89795C7.22832 9.89461 7.26372 9.89461 7.29558 9.89127C7.32035 9.89795 7.34159 9.89127 7.36283 9.87457C7.41593 9.87123 7.46549 9.86455 7.51858 9.86121C7.54336 9.86789 7.5646 9.86121 7.58584 9.84117C7.68496 9.83783 7.78053 9.81444 7.87257 9.7777C8.02478 9.75097 8.0708 9.89795 8.17699 9.94806C8.20531 9.97813 8.23009 10.0082 8.26195 10.0383C8.92743 10.6696 9.59292 11.301 10.2655 11.9256C10.3717 12.0258 10.3681 12.0759 10.2407 12.1361C10.2265 12.1427 10.2159 12.1494 10.2018 12.1595C10.092 12.1995 9.9823 12.2496 9.88319 12.3131C9.75929 12.3599 9.64248 12.4233 9.50088 12.42C9.39823 12.41 9.32035 12.3465 9.24248 12.2931C9.22124 12.263 9.2 12.2296 9.17876 12.1995C9.07257 12.0158 8.96637 11.8287 8.8531 11.6484C8.75044 11.488 8.59823 11.4312 8.40354 11.4713C8.33982 11.4847 8.27965 11.4947 8.21593 11.5114C8.00354 11.5648 7.89735 11.6951 7.89381 11.9056C7.89381 12.1027 7.89381 12.2964 7.89381 12.4935C7.89027 12.7774 7.74513 12.9378 7.44071 12.9511C7.06195 12.9645 6.68319 12.9678 6.30796 12.9511C5.97876 12.9378 5.85133 12.7875 5.85133 12.4735C5.85133 12.2764 5.85133 12.0826 5.85133 11.8855C5.84779 11.7185 5.76283 11.5983 5.59646 11.5381C5.51858 11.5114 5.43363 11.4947 5.34867 11.478C5.1115 11.4279 4.98053 11.4847 4.86018 11.6884C4.75752 11.8588 4.65841 12.0325 4.55929 12.2029C4.4354 12.41 4.24071 12.4735 4.00354 12.3799C3.95044 12.3599 3.89381 12.3398 3.84071 12.3198C3.5823 12.1828 3.32389 12.0425 3.06903 11.9056C3.02655 11.8755 2.98407 11.8488 2.94513 11.8187C2.8708 11.7653 2.80708 11.7018 2.75752 11.6317C2.7469 11.5916 2.73274 11.5548 2.72212 11.5147C2.74336 11.2508 2.95221 11.0604 3.04779 10.8266C3.1115 10.7531 3.17168 10.6796 3.17168 10.5794C3.20354 10.4425 3.1646 10.3289 3.05133 10.242C2.98053 10.1652 2.91327 10.0884 2.82124 10.0349C2.72566 9.95474 2.61593 9.96142 2.50265 9.98481C2.26903 10.085 2.04248 10.2019 1.83009 10.3356C1.72743 10.3656 1.62832 10.409 1.51504 10.3923C1.37699 10.3556 1.28142 10.2721 1.20708 10.1552C1.15398 10.0717 1.09027 9.99149 1.03009 9.91132C0.913274 9.70421 0.789381 9.4971 0.676106 9.28999C0.523894 9.01273 0.545133 8.88913 0.778761 8.67868C0.789381 8.67868 0.79646 8.67534 0.80354 8.66866C1.00531 8.56177 1.21416 8.46155 1.41239 8.34798C1.55398 8.26781 1.62478 8.13753 1.6 7.98053C1.5823 7.87697 1.5469 7.77676 1.5115 7.67988C1.46903 7.56297 1.38053 7.48948 1.24956 7.46944C1.21416 7.43937 1.17168 7.44271 1.1292 7.44271C0.874336 7.44271 0.615929 7.44271 0.361062 7.44605C0.138053 7.40597 0.0637168 7.24228 0 7.07526Z" fill="white"/>
<path fill-rule="evenodd" clip-rule="evenodd" d="M7.30699 8.6653C7.20584 8.69635 7.10469 8.7305 7.00691 8.76154C6.99006 8.76775 6.96983 8.77396 6.95297 8.78017C6.93948 8.78328 6.92937 8.78328 6.91588 8.78638C6.89228 8.79259 6.87205 8.7988 6.84845 8.8019C6.8417 8.80501 6.83159 8.80501 6.82484 8.80811C6.7945 8.81122 6.76415 8.81122 6.73381 8.81432C6.62255 8.81743 6.50791 8.82053 6.39664 8.82364C6.33595 8.81743 6.27527 8.81122 6.21458 8.80811C6.17749 8.78328 6.13703 8.78017 6.0932 8.78328C6.00216 8.75533 5.91113 8.72429 5.82009 8.69635C5.70546 8.63425 5.59082 8.57526 5.47618 8.51317L5.46607 8.50696C5.35143 8.42003 5.2368 8.32999 5.12216 8.23996C4.94683 8.05367 4.80185 7.84876 4.69059 7.62523C4.59955 7.40479 4.51526 7.18436 4.47143 6.95461C4.47817 6.89562 4.46469 6.83974 4.44446 6.78696C4.44446 6.69382 4.44783 6.60378 4.44783 6.51064C4.48492 6.29331 4.53886 6.08219 4.64676 5.8866C4.7007 5.80277 4.75802 5.72205 4.81197 5.63822C4.87266 5.63822 4.93672 5.62891 4.97044 5.691C4.99741 5.72826 5.02775 5.76552 5.05473 5.80277C5.10867 5.87728 5.15925 5.9518 5.21319 6.02631C5.23342 6.06978 5.25703 6.11014 5.29749 6.14118C5.33457 6.22191 5.38852 6.29642 5.45258 6.36472C5.4627 6.39887 5.47956 6.42992 5.51327 6.44855C5.57733 6.5479 5.63128 6.65346 5.70208 6.74349C5.79649 6.86458 5.91787 6.96082 6.08982 6.97945C6.12691 7.00429 6.16737 7.0105 6.2112 7.00429C6.53825 7.02913 6.80799 6.89873 7.06086 6.72797C7.18561 6.66898 7.28676 6.58205 7.37442 6.47959C7.47557 6.39577 7.53626 6.2871 7.57335 6.16602C7.61381 6.0232 7.60707 5.88349 7.52278 5.7531C7.52615 5.72515 7.51266 5.70653 7.48906 5.691C7.42837 5.59786 7.36768 5.50472 7.30699 5.41158C7.27665 5.36501 7.2463 5.31844 7.21596 5.27187C7.16538 5.18494 7.11481 5.09801 7.04063 5.02349C7.03726 4.99866 7.02714 4.97692 7.00354 4.9614C6.93948 4.86515 6.87879 4.77201 6.81473 4.67577C6.73044 4.55158 6.75067 4.50812 6.90914 4.48017C7.27665 4.41187 7.64078 4.39635 7.99481 4.53295C8.00829 4.53916 8.02515 4.53606 8.03864 4.53916C8.09933 4.5671 8.16002 4.59815 8.21734 4.62609C8.40615 4.73476 8.5781 4.86826 8.73657 5.01728C8.76354 5.04523 8.79389 5.07317 8.82086 5.10422C8.86807 5.16941 8.9119 5.23151 8.9591 5.29671C9.01642 5.40848 9.07711 5.52335 9.13443 5.63512C9.15803 5.71895 9.185 5.80277 9.2086 5.8866C9.22546 5.96111 9.23895 6.03562 9.25581 6.11324C9.25581 6.13187 9.25918 6.1505 9.25918 6.16913C9.25918 6.25295 9.25918 6.33678 9.25918 6.42061C9.25918 6.44855 9.25581 6.47339 9.25581 6.50133C9.25244 6.50443 9.24906 6.50754 9.24906 6.50754C9.24906 6.51375 9.25243 6.51996 9.25243 6.52617C9.24569 6.5479 9.24232 6.56653 9.23895 6.58826C9.22546 6.64414 9.21535 6.70003 9.20186 6.75591C9.19849 6.75902 9.19512 6.76523 9.19512 6.76833C9.02653 7.01981 9.06362 7.23093 9.33335 7.411C9.4345 7.4762 9.51205 7.57245 9.60309 7.65317C9.63343 7.68111 9.6604 7.70905 9.69075 7.73389C9.75481 7.8084 9.82224 7.87671 9.90316 7.93259C9.92339 7.96985 9.95374 7.99779 9.9942 8.01642C10.1459 8.17476 10.3078 8.32689 10.4797 8.4666C10.5033 8.50385 10.5303 8.5318 10.5741 8.55353C10.6348 8.62804 10.7056 8.69014 10.7865 8.74602C10.8169 8.77396 10.8472 8.8019 10.8776 8.83295C10.9383 8.91057 11.0124 8.96956 11.0934 9.02544C11.1271 9.06891 11.1642 9.10616 11.2147 9.13411C11.4845 9.37938 11.7576 9.62465 12.0273 9.86992C12.061 9.91338 12.0914 9.95685 12.1554 9.95064C12.2836 9.96927 12.378 9.88855 12.4892 9.8575C12.7994 9.76746 13.1163 9.76436 13.4333 9.81093C13.5243 9.83887 13.6154 9.86681 13.7064 9.89476C14.1885 10.0997 14.5527 10.4194 14.8055 10.8479C14.9404 11.1304 15.0517 11.4192 15.1056 11.7265C15.1292 12.1022 15.082 12.4592 14.8629 12.7883C14.8325 12.8318 14.8055 12.8784 14.7651 12.9125C14.701 12.9715 14.637 12.9839 14.5796 12.897C14.5291 12.8194 14.465 12.7449 14.4077 12.6672C14.4111 12.6579 14.4043 12.6486 14.3976 12.6455C14.2492 12.4313 14.0975 12.2171 13.9491 12.0028C13.8952 11.9159 13.8649 11.8166 13.7536 11.7731C13.6558 11.6365 13.4973 11.6241 13.3456 11.6023C13.2816 11.5775 13.2209 11.5837 13.1602 11.6085C12.7252 11.6644 12.4016 11.888 12.1285 12.1829C12.0071 12.3133 11.943 12.4685 11.9767 12.6455C11.9936 12.8784 12.1521 13.0491 12.2802 13.2323C12.3645 13.3627 12.4454 13.4962 12.5364 13.6204C12.5937 13.7011 12.6275 13.8036 12.7252 13.8563C12.85 14.1047 12.7994 14.1047 12.4926 14.1482C12.3813 14.1575 12.2667 14.1637 12.1554 14.173C12.0644 14.1699 11.9767 14.1637 11.8857 14.1606C11.6463 14.1078 11.4204 14.024 11.2147 13.906C11.1743 13.8657 11.1338 13.8253 11.0664 13.8253C11.0226 13.7539 10.9585 13.698 10.8843 13.6483C10.8506 13.6142 10.8169 13.58 10.7865 13.5459C10.7393 13.4869 10.6888 13.4279 10.6416 13.3689C10.5708 13.3099 10.5606 13.223 10.5134 13.1516C10.5033 13.1081 10.4898 13.0709 10.4561 13.0398C10.4157 12.9094 10.3752 12.779 10.3314 12.6486C10.2909 12.3537 10.2976 12.0649 10.3887 11.7793C10.4359 11.68 10.4999 11.5868 10.4831 11.4719C10.4865 11.413 10.4393 11.385 10.3954 11.3571C10.3718 11.3229 10.3448 11.2919 10.3044 11.2732C10.2842 11.236 10.2538 11.208 10.2167 11.1894C10.1324 11.0963 10.0414 11.0124 9.94025 10.9348C9.92002 10.9162 9.89979 10.8976 9.87956 10.882C9.79527 10.7889 9.70424 10.702 9.60309 10.6275C9.02316 10.0748 8.43312 9.53461 7.83634 9.00371C7.79588 8.94783 7.74193 8.90125 7.68124 8.864C7.6745 8.83606 7.64753 8.83916 7.62393 8.83606C7.56324 8.78638 7.53626 8.70876 7.46209 8.67151C7.45534 8.6653 7.44523 8.66219 7.43849 8.65598C7.40814 8.64046 7.3778 8.64046 7.34408 8.65288C7.33059 8.65288 7.32048 8.65909 7.30699 8.6653Z" fill="white"/>
</svg>
