<svg width="13" height="19" viewBox="0 0 13 19" fill="none" xmlns="http://www.w3.org/2000/svg">
<path d="M12.1032 1H2.85042C2.35984 1.00064 1.88953 1.20978 1.54264 1.58153C1.19575 1.95329 1.0006 2.45731 1 2.98305V14.8821C0.999788 15.1425 1.0475 15.4005 1.14042 15.6412C1.23334 15.8819 1.36963 16.1006 1.5415 16.2848C1.71337 16.469 1.91745 16.6151 2.14204 16.7146C2.36664 16.8142 2.60736 16.8653 2.85042 16.8651H3.11463V17.7149C3.11426 17.7713 3.12962 17.8265 3.15872 17.8735C3.18783 17.9205 3.22937 17.9571 3.278 17.9786C3.32664 18.0001 3.38016 18.0056 3.43172 17.9943C3.48327 17.983 3.53051 17.9555 3.56737 17.9152L4.43792 16.9823L5.30848 17.9152C5.34534 17.9555 5.39258 17.983 5.44413 17.9943C5.49569 18.0056 5.54921 18.0001 5.59785 17.9786C5.64649 17.9571 5.68802 17.9205 5.71713 17.8735C5.74623 17.8265 5.76159 17.7713 5.76122 17.7149V14.5986H12.1058V15.1652H6.28705V15.7318H12.1028V16.2985H6.28705V16.8651H12.1028C12.243 16.8649 12.3774 16.8052 12.4765 16.6989C12.5756 16.5927 12.6314 16.4487 12.6316 16.2985V1.56664C12.6314 1.41647 12.5757 1.2725 12.4766 1.16629C12.3776 1.06007 12.2433 1.00028 12.1032 1V1ZM1.52842 2.98305C1.52884 2.60754 1.66823 2.24753 1.916 1.982C2.16377 1.71647 2.4997 1.56709 2.8501 1.56664H12.1025V12.8994H2.85042C2.60406 12.8992 2.36017 12.9519 2.13316 13.0545C1.90615 13.1571 1.70063 13.3074 1.52874 13.4965L1.52842 2.98305ZM1.55493 14.5986H3.11495V15.1652H1.55526C1.5198 14.9782 1.5198 14.7855 1.55526 14.5986H1.55493ZM2.8501 16.2967C2.64494 16.2964 2.44266 16.2451 2.25916 16.1467C2.07567 16.0484 1.91596 15.9058 1.79262 15.7301H3.11495V16.2967H2.8501ZM5.22925 17.0294L4.62323 16.3799C4.59869 16.3536 4.56955 16.3327 4.53748 16.3185C4.50541 16.3042 4.47103 16.2969 4.43631 16.2969C4.40159 16.2969 4.36721 16.3042 4.33514 16.3185C4.30307 16.3327 4.27393 16.3536 4.24939 16.3799L3.64337 17.0294V14.5986H5.22796L5.22925 17.0294ZM1.79392 14.0309C1.9169 13.855 2.07643 13.7122 2.25988 13.6138C2.44332 13.5154 2.64562 13.4642 2.85074 13.4643H12.1032V14.0309H1.79392Z" fill="black" stroke="black" stroke-width="0.4"/>
<path d="M2.58621 2.13327H3.11495V12.3324H2.58621V2.13327Z" fill="black" stroke="black" stroke-width="0.4"/>
<path d="M4.70083 6.09974H10.5163C10.551 6.09978 10.5854 6.09249 10.6175 6.07828C10.6496 6.06407 10.6788 6.04322 10.7033 6.01693C10.7279 5.99063 10.7474 5.9594 10.7607 5.92503C10.774 5.89065 10.7808 5.8538 10.7808 5.81659V4.11842C10.7811 4.08103 10.7744 4.04396 10.7612 4.00934C10.7481 3.97473 10.7286 3.94325 10.704 3.91673C10.6794 3.89022 10.6502 3.86918 10.618 3.85484C10.5857 3.8405 10.5512 3.83314 10.5163 3.83319H4.70083C4.63076 3.83319 4.56356 3.86302 4.51401 3.91612C4.46446 3.96922 4.43662 4.04124 4.43662 4.11634V5.81451C4.43637 5.85187 4.44301 5.88891 4.45618 5.92351C4.46934 5.9581 4.48876 5.98956 4.51332 6.01607C4.53788 6.04258 4.56709 6.06363 4.59927 6.07799C4.63146 6.09235 4.66597 6.09974 4.70083 6.09974V6.09974ZM4.96504 4.40156H10.2521V5.53483H4.96536L4.96504 4.40156Z" fill="black" stroke="black" stroke-width="0.4"/>
</svg>
