<svg width="17" height="10" viewBox="0 0 17 10" fill="none" xmlns="http://www.w3.org/2000/svg">
<g clip-path="url(#clip0_1722_6968)">
<path d="M0 0C0.101138 0 0.171495 0 0.246249 0C3.06492 0 5.88799 0 8.70667 0.00434216C8.92213 0.00434216 9.1464 0.052106 9.34867 0.121581C9.87195 0.299609 10.0654 0.586192 10.0698 1.12896C10.0698 1.29396 10.0698 1.45897 10.0698 1.65871C10.3996 1.65871 10.725 1.6891 11.0416 1.65002C11.5121 1.58923 11.8244 1.76292 12.1234 2.12332C12.6598 2.76596 13.2403 3.36518 13.8119 3.97742C13.8955 4.06426 14.0186 4.13808 14.1373 4.16848C14.7442 4.32045 15.3598 4.45506 15.971 4.60703C16.6614 4.77638 17.0088 5.22362 17.0044 5.91837C17.0044 6.67825 17.0044 7.43813 17.0044 8.198C17.0044 8.28485 17.0044 8.36735 17.0044 8.46288C16.5515 8.46288 16.1249 8.46288 15.6984 8.46288C15.4917 7.4251 14.8981 6.83022 14.0538 6.77812C13.5437 6.74772 13.0996 6.89101 12.7214 7.22536C12.352 7.55536 12.1717 7.9809 12.1146 8.46722C9.87195 8.46722 7.64691 8.46722 5.40869 8.46722C5.36032 7.91142 5.13605 7.45115 4.67873 7.1168C4.34454 6.87364 3.96637 6.76075 3.54863 6.77377C2.68236 6.79983 2.08872 7.37299 1.82048 8.51064C1.47749 8.47156 1.11692 8.46722 0.778323 8.37603C0.321003 8.25011 0.0747542 7.90274 0.0219865 7.43813C0.00879461 7.32523 0.00439731 7.20799 0.00439731 7.09075C0 4.81546 0 2.54451 0 0.273556C0 0.191055 0 0.112896 0 0ZM13.0424 4.16848C12.4883 3.5736 11.9651 3.00912 11.4374 2.45332C11.389 2.40122 11.2791 2.38385 11.1999 2.38385C10.5535 2.37951 9.91153 2.37951 9.26512 2.37951C9.20796 2.37951 9.15519 2.39253 9.09363 2.39687C9.09363 2.99175 9.09363 3.57794 9.09363 4.16848C10.404 4.16848 11.6968 4.16848 13.0424 4.16848Z" fill="white"/>
<path d="M12.4576 8.53669C12.4576 7.74208 13.126 7.08641 13.9307 7.09075C14.709 7.09509 15.395 7.76813 15.4038 8.53235C15.4082 9.33999 14.7398 10.0043 13.9263 10C13.0908 9.99566 12.4532 9.3617 12.4576 8.53669Z" fill="white"/>
<path d="M5.0877 8.57142C5.07011 9.39643 4.40612 10.0217 3.58382 9.99999C2.78351 9.97828 2.1371 9.32262 2.1415 8.54103C2.1503 7.74641 2.84947 7.06904 3.64538 7.09075C4.44569 7.10812 5.10529 7.78549 5.0877 8.57142Z" fill="white"/>
</g>
<defs>
<clipPath id="clip0_1722_6968">
<rect width="17" height="10" fill="white"/>
</clipPath>
</defs>
</svg>
