<svg width="11" height="11" viewBox="0 0 11 11" fill="none" xmlns="http://www.w3.org/2000/svg">
<g clip-path="url(#clip0_1728_6998)">
<path d="M6.6 5.1L9.8 1.9C10.2 1.5 10.2 0.8 9.8 0.3C9.4 -0.1 8.7 -0.1 8.2 0.3L5.1 3.5L1.9 0.3C1.5 -0.1 0.8 -0.1 0.3 0.3C-0.1 0.7 -0.1 1.4 0.3 1.9L3.5 5.1L0.3 8.3C-0.1 8.7 -0.1 9.4 0.3 9.9C0.5 10.1 0.8 10.2 1.1 10.2C1.4 10.2 1.7 10.1 1.9 9.9L5.1 6.7L8.3 9.9C8.5 10.1 8.8 10.2 9.1 10.2C9.4 10.2 9.7 10.1 9.9 9.9C10.3 9.5 10.3 8.8 9.9 8.3L6.6 5.1Z" fill="white"/>
</g>
<defs>
<clipPath id="clip0_1728_6998">
<rect width="10.2" height="10.2" fill="white"/>
</clipPath>
</defs>
</svg>
