<svg width="15" height="18" viewBox="0 0 15 18" fill="none" xmlns="http://www.w3.org/2000/svg">
<g clip-path="url(#clip0_1730_7002)">
<path d="M12.623 11.6393C12.7869 11.8033 12.9508 11.9672 13.0328 12.1311C13.3607 12.6229 13.1967 13.1967 12.623 13.4426C12.459 13.5246 12.2131 13.6066 12.0492 13.6066C11.8852 13.6885 11.6393 13.6885 11.4754 13.6885C11.5574 13.7705 11.7213 13.8525 11.8033 13.9344C12.2131 14.2623 12.1312 14.7541 11.6393 15C11.1475 15.2459 10.5738 15.2459 10.082 15.1639C9.18033 15 8.19673 14.8361 7.29509 14.6721C6.55738 14.5082 5.81968 14.4262 5.08197 14.2623C4.5082 14.0984 4.0164 14.0164 3.44263 14.0164C3.44263 11.9672 3.44263 9.91803 3.44263 7.86885C3.52459 7.86885 3.60656 7.86885 3.68853 7.86885C4.18033 7.86885 4.59017 7.70491 5 7.37704C5.81968 6.72131 6.63935 6.06557 7.45902 5.40983C7.54099 5.40983 7.54099 5.32786 7.62296 5.32786C8.11476 4.83606 8.52459 4.75409 9.42623 5.16393C9.83607 5.40983 10.1639 5.7377 10.4098 6.14754C10.4098 6.39344 10.4918 6.4754 10.6557 6.55737C10.9836 6.63934 11.2295 6.72131 11.5574 6.72131C12.0492 6.72131 12.623 6.80327 13.1148 6.72131C13.7705 6.63934 14.4262 7.37704 14.1803 8.19672C14.0164 8.60655 13.7705 8.85245 13.4426 9.01639C13.3607 9.09835 13.1967 9.09835 13.1148 9.18032C13.7705 9.42622 14.0164 9.91803 13.8525 10.5738C13.6885 11.2295 13.1967 11.5574 12.623 11.6393Z" fill="black"/>
<path d="M13.6066 0.409836C14.2623 0.819672 14.6721 1.31148 14.918 1.96721C15.4098 3.60656 14.4262 5.2459 12.7869 5.57377C12.541 5.65574 12.3771 5.7377 12.3771 5.98361C12.2951 6.06557 12.2951 6.14754 12.2951 6.22951C11.8853 6.14754 11.4754 6.14754 11.0656 6.06557C10.9836 6.06557 10.8197 5.90164 10.7377 5.81967C10.6557 5.7377 10.5738 5.57377 10.4918 5.4918C10.4098 5.40984 10.3279 5.32787 10.4098 5.08197C10.4098 5 10.3279 4.91803 10.2459 4.83607C8.7705 3.44262 9.18034 0.983607 11.0656 0.163934C11.3935 0.0819672 11.8033 0 12.2131 0C11.9672 0.983607 11.7213 1.88525 11.3935 2.78689C11.8033 2.95082 12.2951 3.03279 12.7869 3.19672C13.0328 2.29508 13.2787 1.31148 13.6066 0.409836Z" fill="black"/>
<path d="M0 11.1476C0 10.1639 0 9.18034 0 8.19673C0 7.86886 0.0819672 7.7869 0.327869 7.7869C0.983607 7.7869 1.72131 7.7869 2.37705 7.7869C2.62295 7.7869 2.70492 7.86886 2.70492 8.11476C2.70492 10.082 2.70492 12.1312 2.70492 14.0984C2.70492 14.4262 2.62295 14.4262 2.37705 14.4262C1.72131 14.4262 0.983607 14.4262 0.327869 14.4262C0 14.4262 0 14.3443 0 14.0984C0 13.1148 0 12.1312 0 11.1476ZM1.39344 12.9508C1.14754 12.9508 0.901639 13.1967 0.901639 13.4426C0.901639 13.6885 1.14754 13.9344 1.39344 13.9344C1.63934 13.9344 1.88525 13.7705 1.88525 13.4426C1.88525 13.1148 1.63934 12.9508 1.39344 12.9508Z" fill="black"/>
<path d="M10 16.3115C10 17.0492 9.50821 17.623 8.85247 17.8689C8.19673 18.1148 7.45903 17.8689 7.04919 17.2951C6.63936 16.7213 6.63936 15.9836 6.96722 15.4098C7.04919 15.2459 7.13116 15.2459 7.29509 15.2459C8.0328 15.4098 8.85247 15.4918 9.59017 15.6557C9.67214 15.6557 9.75411 15.7377 9.83608 15.8197C9.91804 16.0656 9.91804 16.2295 10 16.3115ZM8.2787 16.9672C8.60657 16.9672 8.85247 16.7213 8.85247 16.3935C8.85247 16.0656 8.60657 15.8197 8.2787 15.8197C7.95083 15.8197 7.70493 16.0656 7.70493 16.3935C7.7869 16.7213 8.0328 16.9672 8.2787 16.9672Z" fill="black"/>
</g>
<defs>
<clipPath id="clip0_1730_7002">
<rect width="15" height="17.9508" fill="white"/>
</clipPath>
</defs>
</svg>
