<svg width="17" height="23" viewBox="0 0 17 23" fill="none" xmlns="http://www.w3.org/2000/svg">
<path d="M15.3186 1H3.38629C2.75364 1.00079 2.14713 1.25914 1.69978 1.71836C1.25243 2.17759 1.00077 2.80021 1 3.44965V18.1484C0.999727 18.4702 1.06126 18.7889 1.18109 19.0862C1.30091 19.3835 1.47668 19.6537 1.69832 19.8812C1.91996 20.1087 2.18313 20.2892 2.47277 20.4122C2.76241 20.5352 3.07284 20.5984 3.38629 20.5981H3.72701V21.6478C3.72654 21.7175 3.74634 21.7857 3.78388 21.8437C3.82141 21.9017 3.87498 21.9469 3.9377 21.9735C4.00042 22.0001 4.06944 22.0069 4.13593 21.9929C4.20241 21.979 4.26332 21.945 4.31086 21.8953L5.43352 20.7428L6.55619 21.8953C6.60372 21.945 6.66464 21.979 6.73112 21.9929C6.79761 22.0069 6.86663 22.0001 6.92935 21.9735C6.99207 21.9469 7.04564 21.9017 7.08317 21.8437C7.12071 21.7857 7.14051 21.7175 7.14004 21.6478V17.7982H15.3219V18.4982H7.81814V19.1982H15.3181V19.8981H7.81814V20.5981H15.3181C15.4989 20.5979 15.6722 20.524 15.8 20.3928C15.9279 20.2616 15.9998 20.0837 16 19.8981V1.69996C15.9998 1.51446 15.9279 1.33662 15.8002 1.20542C15.6725 1.07421 15.4993 1.00034 15.3186 1V1ZM1.68144 3.44965C1.68199 2.98578 1.86174 2.54107 2.18127 2.21306C2.50079 1.88505 2.934 1.70053 3.38587 1.69996H15.3177V15.6992H3.38629C3.06859 15.699 2.75407 15.7642 2.46131 15.8909C2.16856 16.0176 1.90352 16.2032 1.68186 16.4368L1.68144 3.44965ZM1.71564 17.7982H3.72743V18.4982H1.71606C1.67033 18.2672 1.67033 18.0292 1.71606 17.7982H1.71564ZM3.38587 19.896C3.12131 19.8956 2.86044 19.8321 2.62381 19.7107C2.38717 19.5892 2.18122 19.413 2.02216 19.196H3.72743V19.896H3.38587ZM6.45402 20.801L5.67249 19.9987C5.64084 19.9662 5.60327 19.9404 5.56191 19.9228C5.52055 19.9052 5.47621 19.8962 5.43144 19.8962C5.38667 19.8962 5.34233 19.9052 5.30097 19.9228C5.25961 19.9404 5.22203 19.9662 5.19039 19.9987L4.40887 20.801V17.7982H6.45235L6.45402 20.801ZM2.02383 17.097C2.18242 16.8797 2.38816 16.7033 2.62473 16.5818C2.8613 16.4603 3.12218 16.397 3.38671 16.397H15.3186V17.097H2.02383Z" fill="#40AA8B" stroke="#40AA8B" stroke-width="0.4"/>
<path d="M3.04556 2.39993H3.72742V14.9988H3.04556V2.39993Z" fill="#40AA8B" stroke="#40AA8B" stroke-width="0.4"/>
<path d="M5.77255 7.29967H13.2721C13.3169 7.29972 13.3613 7.29072 13.4027 7.27317C13.444 7.25561 13.4816 7.22986 13.5133 7.19737C13.545 7.16489 13.5701 7.12631 13.5873 7.08385C13.6044 7.04138 13.6133 6.99587 13.6133 6.9499V4.85215C13.6136 4.80597 13.605 4.76018 13.588 4.71742C13.571 4.67465 13.5459 4.63577 13.5142 4.60302C13.4825 4.57026 13.4448 4.54427 13.4032 4.52656C13.3617 4.50885 13.3171 4.49976 13.2721 4.49982H5.77255C5.68219 4.49982 5.59553 4.53667 5.53163 4.60226C5.46773 4.66786 5.43183 4.75682 5.43183 4.84958V6.94733C5.4315 6.99348 5.44007 7.03924 5.45705 7.08197C5.47402 7.1247 5.49907 7.16356 5.53074 7.19632C5.56241 7.22907 5.60008 7.25506 5.64159 7.2728C5.68309 7.29054 5.7276 7.29967 5.77255 7.29967V7.29967ZM6.11327 5.20192H12.9314V6.60184H6.11369L6.11327 5.20192Z" fill="#40AA8B" stroke="#40AA8B" stroke-width="0.4"/>
</svg>
