<svg width="15" height="12" viewBox="0 0 15 12" fill="none" xmlns="http://www.w3.org/2000/svg">
<g clip-path="url(#clip0_1722_6956)">
<path d="M14.9214 11.9997C14.9214 11.6702 14.9214 11.3473 14.9214 11.0134C14.6022 11.0134 14.283 11.0134 13.9545 11.0134C13.9545 8.72239 13.9545 6.44452 13.9545 4.15347C14.3015 4.15347 14.6461 4.15347 15 4.15347C14.9838 3.92942 14.9722 3.71635 14.9561 3.50547C14.9098 2.89921 14.8612 2.29295 14.815 1.68889C14.7733 1.15072 14.7294 0.612555 14.6877 0.0721922C14.6831 0.0150807 14.66 -0.00468868 14.6022 -0.000295489C14.5744 0.00190111 14.5466 -0.000295489 14.5166 -0.000295489C9.83963 -0.000295489 5.16037 -0.000295489 0.483423 -0.000295489C0.43485 -0.000295489 0.386276 -0.000295489 0.333076 -0.000295489C0.222051 1.38576 0.111025 2.76302 -4.48897e-07 4.15127C0.210485 4.15127 0.416345 4.15127 0.619891 4.15127C0.693908 4.15127 0.767926 4.14468 0.841943 4.14029C1.01079 4.12931 1.08481 4.19081 1.08481 4.35556C1.08481 5.26275 1.08481 6.16995 1.08481 7.07714C1.08481 8.30065 1.08481 9.52415 1.08481 10.7455C1.08481 10.7762 1.08481 10.807 1.08481 10.8355C1.08019 10.9497 1.02005 11.0069 0.897455 11.0069C0.668465 11.0091 0.437162 11.0069 0.208172 11.0069C0.171164 11.0069 0.131842 11.0069 0.0878944 11.0069C0.0878944 11.3407 0.0878944 11.6658 0.0878944 11.9975C5.02853 11.9997 9.96916 11.9997 14.9214 11.9997ZM10.6052 7.32975C10.5891 7.30559 10.5775 7.29241 10.5729 7.27703C10.4156 6.92997 10.2583 6.58291 10.1033 6.23365C10.0224 6.04913 9.89283 5.92612 9.68234 5.88878C9.1249 5.79433 8.56284 5.73502 7.99615 5.74161C7.23978 5.75259 6.48342 5.78554 5.72938 5.80751C5.24595 5.82069 4.92213 6.05792 4.76484 6.48845C4.66538 6.75644 4.54048 7.01564 4.42483 7.27703C4.41095 7.30998 4.38782 7.33854 4.36469 7.37588C4.34387 7.28582 4.32768 7.20674 4.30686 7.13206C4.28373 7.05957 4.23053 7.00026 4.14958 7.00465C3.96453 7.01783 3.77949 7.0376 3.59676 7.07055C3.50887 7.08593 3.45567 7.15622 3.4441 7.24408C3.43254 7.33414 3.47186 7.40883 3.55281 7.44617C3.63146 7.48351 3.72398 7.50987 3.81187 7.51866C3.95297 7.52964 4.09638 7.52085 4.23978 7.52085C4.10563 7.88988 3.71241 8.10954 3.68697 8.5269C3.73092 8.5269 3.76793 8.5269 3.80725 8.5269C4.21434 8.5269 4.62143 8.52909 5.02853 8.5269C5.19507 8.5247 5.31534 8.5884 5.38011 8.73338C5.44025 8.87176 5.49807 9.01234 5.54896 9.15512C5.60216 9.31108 5.56284 9.3616 5.39167 9.35941C4.87587 9.35282 4.36006 9.34403 3.84194 9.33744C3.80493 9.33744 3.76561 9.33744 3.71704 9.33744C3.71704 9.89098 3.71704 10.4335 3.71704 10.9827C3.25906 10.9827 2.81264 10.9827 2.36392 10.9827C2.36392 8.71141 2.36392 6.44452 2.36392 4.18422C5.79645 4.18422 9.21974 4.18422 12.643 4.18422C12.643 6.45111 12.643 8.71141 12.643 10.9739C12.1827 10.9739 11.7294 10.9739 11.2737 10.9739C11.2992 10.4335 11.3246 9.90197 11.35 9.35941C11.3061 9.35941 11.2691 9.35941 11.2298 9.35941C10.6955 9.366 10.1611 9.37259 9.62914 9.37698C9.45567 9.37918 9.41172 9.32206 9.45798 9.16611C9.49036 9.06067 9.52968 8.95523 9.56669 8.85199C9.65227 8.61915 9.82575 8.51591 10.0848 8.5225C10.4711 8.53129 10.855 8.53129 11.2413 8.53349C11.3477 8.53349 11.3801 8.47637 11.3246 8.3929C11.246 8.27648 11.1673 8.16226 11.0887 8.04584C10.98 7.88329 10.8689 7.72074 10.751 7.54502C10.8134 7.54502 10.8551 7.54721 10.8967 7.54502C11.0586 7.53403 11.2205 7.52744 11.3801 7.50328C11.505 7.48571 11.5281 7.43958 11.5258 7.30119C11.5235 7.15183 11.4958 7.1035 11.3755 7.08593C11.202 7.05957 11.0262 7.0376 10.8504 7.02882C10.8088 7.02662 10.751 7.07055 10.7232 7.11009C10.6769 7.1716 10.6469 7.24848 10.6052 7.32975ZM3.08096 1.62738C3.11796 1.54831 3.13878 1.4846 3.17579 1.42969C3.64765 0.693829 4.74865 0.647701 5.29221 1.34183C5.38705 1.46264 5.50038 1.51975 5.6623 1.51755C6.88589 1.51096 8.10948 1.50657 9.33308 1.50657C9.4973 1.50657 9.61527 1.44726 9.71241 1.32645C10.1403 0.799266 10.9499 0.691633 11.5096 1.09141C11.6901 1.22101 11.8265 1.38356 11.8867 1.60981C11.8404 1.61201 11.8034 1.6164 11.7664 1.6164C11.5443 1.6164 11.32 1.6164 11.0979 1.6164C10.8227 1.6164 10.6076 1.82288 10.6168 2.08647C10.6237 2.34128 10.8481 2.51701 11.0887 2.50383C11.3593 2.48845 11.6322 2.49943 11.919 2.49943C11.8936 2.56094 11.8797 2.61366 11.8543 2.65978C11.4032 3.43079 10.2884 3.51426 9.73323 2.81355C9.62452 2.67736 9.50193 2.62244 9.33076 2.62244C8.0956 2.62903 6.86276 2.63342 5.6276 2.63782C5.49576 2.63782 5.39861 2.68834 5.31534 2.7806C5.25983 2.8421 5.20663 2.9058 5.14418 2.95852C4.70702 3.31876 4.22128 3.38027 3.69622 3.1628C3.3909 3.0354 3.20817 2.80256 3.09483 2.50602C3.35389 2.50602 3.60139 2.49943 3.84888 2.50822C4.01311 2.51481 4.15883 2.49065 4.26523 2.36105C4.39244 2.20948 4.4202 2.04474 4.3323 1.86242C4.24441 1.68449 4.09869 1.6164 3.89746 1.62079C3.63146 1.63178 3.37008 1.62738 3.08096 1.62738ZM4.85042 7.50767C4.97764 7.165 5.10717 6.83332 5.22282 6.49724C5.31766 6.22266 5.43793 6.12162 5.74094 6.11723C6.59214 6.10405 7.44333 6.08867 8.29453 6.08648C8.65073 6.08648 9.00694 6.11283 9.36315 6.137C9.51812 6.14798 9.65459 6.19411 9.70316 6.36984C9.73786 6.49504 9.80725 6.61146 9.85582 6.73228C9.95991 6.98708 10.0594 7.24408 10.1658 7.50987C8.38473 7.50767 6.61758 7.50767 4.85042 7.50767ZM4.85042 10.9893C4.86893 10.8685 4.89437 10.7608 4.89668 10.6532C4.899 10.5368 4.94988 10.5148 5.06554 10.5148C6.63146 10.5214 8.19738 10.5236 9.7633 10.5258C10.0617 10.5258 10.0917 10.55 10.1403 10.8267C10.1403 10.8311 10.1426 10.8333 10.1426 10.8377C10.1635 10.9673 10.1403 10.9915 10.0015 10.9915C8.32459 10.9915 6.64996 10.9915 4.97301 10.9915C4.93601 10.9893 4.90131 10.9893 4.85042 10.9893Z" fill="white"/>
</g>
<defs>
<clipPath id="clip0_1722_6956">
<rect width="15" height="12" fill="white" transform="matrix(-1 0 0 1 15 0)"/>
</clipPath>
</defs>
</svg>
