<svg width="11" height="14" viewBox="0 0 11 14" fill="none" xmlns="http://www.w3.org/2000/svg">
<g clip-path="url(#clip0_1722_6967)">
<path d="M1.18535 12.7826C1.18535 12.7358 1.18535 12.689 1.18535 12.6421C1.18535 12.0334 1.18535 11.4247 1.18535 10.8161C1.18535 9.55184 1.7069 8.56856 2.75001 7.86622C3.12932 7.63211 3.50863 7.39799 3.88794 7.16388C3.93535 7.11706 4.03018 7.07023 4.07759 7.02341C4.17242 6.97659 4.17242 6.92977 4.07759 6.88294C3.93535 6.7893 3.79311 6.69565 3.65087 6.60201C3.27156 6.36789 2.89225 6.1806 2.51294 5.89967C1.61208 5.19732 1.13794 4.30769 1.13794 3.13712C1.13794 2.52843 1.13794 1.87291 1.13794 1.26421C1.13794 1.21739 1.13794 1.21739 1.13794 1.17057C1.09053 1.17057 1.09053 1.17057 1.04311 1.17057C0.90087 1.17057 0.711215 1.17057 0.568973 1.17057C0.28449 1.21739 7.71255e-06 0.936455 7.71255e-06 0.608696C7.71255e-06 0.280936 0.28449 0 0.616387 0C3.88794 0 7.15949 0 10.3836 0C10.7155 0 11 0.280936 11 0.608696C11 0.936455 10.7155 1.21739 10.3836 1.21739C10.1466 1.21739 9.90949 1.21739 9.67242 1.21739C9.67242 1.26421 9.67242 1.31104 9.67242 1.31104C9.67242 1.91973 9.67242 2.52843 9.67242 3.18395C9.67242 4.40134 9.19828 5.33779 8.20259 6.04013C7.8707 6.27425 7.49139 6.46154 7.11208 6.69565C6.96984 6.7893 6.87501 6.83612 6.78018 6.92977C6.73277 6.92977 6.73277 6.97659 6.68535 6.97659V7.02341C6.78018 7.07023 6.87501 7.16388 6.96984 7.2107C7.34915 7.44482 7.72846 7.63211 8.10777 7.91304C8.77156 8.33445 9.2457 8.89632 9.48277 9.64548C9.62501 10.0201 9.67242 10.3946 9.67242 10.8161C9.67242 11.4247 9.67242 12.0803 9.67242 12.689C9.67242 12.7358 9.67242 12.7826 9.67242 12.8294C9.71983 12.8294 9.76725 12.8294 9.76725 12.8294C9.9569 12.8294 10.1466 12.8294 10.3836 12.8294C10.7155 12.8294 11 13.1104 11 13.4381C11 13.7659 10.7155 14.0468 10.3836 14.0468C7.11208 14.0468 3.88794 14.0468 0.616387 14.0468C0.28449 14.0468 0.0474215 13.8127 7.71255e-06 13.5318C-0.0474061 13.2508 0.142249 12.9699 0.474146 12.8763C0.521559 12.8763 0.616387 12.8763 0.663801 12.8763C0.806042 12.7826 0.995697 12.7826 1.18535 12.7826ZM8.96121 12.7826C8.96121 12.7358 8.96121 12.7358 8.96121 12.7826C8.96121 12.0334 8.96121 11.3311 8.96121 10.6756C8.96121 9.83277 8.5819 9.13043 7.8707 8.61538C7.5388 8.38127 7.2069 8.19398 6.87501 8.00669C6.68535 7.86622 6.4957 7.77257 6.30604 7.63211C5.87932 7.30435 5.87932 6.7893 6.25863 6.41472C6.40087 6.32107 6.54311 6.22742 6.68535 6.13378C6.96984 5.94649 7.30173 5.7592 7.58621 5.57191C8.48708 5.01003 8.9138 4.21405 8.9138 3.18395C8.9138 2.52843 8.9138 1.91973 8.9138 1.26421C8.9138 1.21739 8.9138 1.21739 8.9138 1.17057C6.54311 1.17057 4.21984 1.17057 1.84915 1.17057C1.84915 1.21739 1.84915 1.21739 1.84915 1.21739C1.89656 1.96655 1.89656 2.62207 1.89656 3.27759C1.89656 4.16722 2.27587 4.91639 3.03449 5.43144C3.36639 5.66555 3.69828 5.85284 4.03018 6.04013C4.26725 6.1806 4.50432 6.32107 4.69397 6.50836C4.93104 6.7893 4.93104 7.2107 4.64656 7.44482C4.50432 7.58528 4.26725 7.72575 4.07759 7.86622C3.7457 8.10033 3.36639 8.2408 3.03449 8.47492C2.27587 8.98997 1.84915 9.69231 1.84915 10.6288C1.84915 11.3311 1.84915 12.0334 1.84915 12.689C1.84915 12.689 1.84915 12.689 1.84915 12.7358C2.08621 12.7358 2.27587 12.7358 2.51294 12.7358C2.51294 12.689 2.51294 12.6421 2.51294 12.5953C2.51294 12.1739 2.51294 11.7525 2.51294 11.3779C2.56035 10.6756 2.84484 10.0669 3.4138 9.64548C3.88794 9.36455 4.31466 9.13043 4.74139 8.89632C5.02587 8.75585 5.31035 8.66221 5.40518 8.33445C5.45259 8.52174 5.59484 8.61538 5.73708 8.70903C5.8319 8.75585 5.87932 8.80267 5.97415 8.8495C6.40087 9.03679 6.78018 9.2709 7.15949 9.50502C7.77587 9.97324 8.20259 10.5819 8.25001 11.3311C8.29742 11.7525 8.25001 12.2207 8.25001 12.6421C8.25001 12.689 8.25001 12.7358 8.25001 12.7826C8.53449 12.7826 8.72415 12.7826 8.96121 12.7826Z" fill="white"/>
<path d="M8.20256 3.3244C8.10774 3.69898 7.9655 4.02674 7.77584 4.30768C7.58619 4.54179 7.39653 4.72908 7.15946 4.86955C6.82756 5.10367 6.49567 5.29096 6.16377 5.43143C6.06894 5.47825 5.97412 5.52507 5.87929 5.57189C5.68963 5.66554 5.49998 5.80601 5.45257 6.04012C5.40515 5.80601 5.2155 5.71236 5.07325 5.61872C4.8836 5.52507 4.74136 5.43142 4.5517 5.33778C4.07757 5.15049 3.65084 4.86955 3.31894 4.54179C2.98705 4.21403 2.74998 3.83945 2.65515 3.37122V3.3244C4.50429 3.3244 6.35343 3.3244 8.20256 3.3244Z" fill="white"/>
<path d="M5.45257 6.60202C5.45257 6.64884 5.40516 6.74248 5.31033 6.74248C5.26292 6.74248 5.16809 6.69566 5.16809 6.60202C5.16809 6.55519 5.2155 6.46155 5.31033 6.46155C5.35775 6.50837 5.45257 6.55519 5.45257 6.60202Z" fill="white"/>
<path d="M5.78448 6.88293C5.78448 6.97658 5.73707 7.0234 5.64224 7.0234C5.59483 7.0234 5.5 6.97658 5.5 6.88293C5.5 6.83611 5.54741 6.74246 5.64224 6.74246C5.73707 6.74246 5.78448 6.78928 5.78448 6.88293Z" fill="white"/>
<path d="M5.64224 8.14715C5.59483 8.14715 5.5 8.10033 5.5 8.00668C5.5 7.91303 5.54741 7.86621 5.64224 7.86621C5.73707 7.86621 5.78448 7.91303 5.78448 8.00668C5.73707 8.10033 5.68965 8.14715 5.64224 8.14715Z" fill="white"/>
<path d="M5.78448 6.41473C5.78448 6.50838 5.73707 6.5552 5.64224 6.5552C5.54741 6.5552 5.5 6.50838 5.5 6.41473C5.5 6.36791 5.54741 6.27426 5.64224 6.27426C5.73707 6.27426 5.78448 6.32108 5.78448 6.41473Z" fill="white"/>
<path d="M5.68967 7.35117C5.78449 7.35117 5.83191 7.39799 5.83191 7.49163C5.83191 7.58528 5.78449 7.6321 5.68967 7.6321C5.59484 7.6321 5.54742 7.58528 5.54742 7.49163C5.54742 7.39799 5.59484 7.35117 5.68967 7.35117Z" fill="white"/>
<path d="M5.40515 7.77258C5.40515 7.8194 5.35774 7.91305 5.26291 7.91305C5.21549 7.91305 5.12067 7.86622 5.12067 7.77258C5.12067 7.72576 5.16808 7.63211 5.26291 7.63211C5.35774 7.67893 5.40515 7.72576 5.40515 7.77258Z" fill="white"/>
<path d="M5.45257 7.30434C5.45257 7.39798 5.40516 7.4448 5.31033 7.4448C5.2155 7.4448 5.16809 7.39798 5.16809 7.30434C5.16809 7.25751 5.2155 7.21069 5.31033 7.21069C5.40516 7.16387 5.45257 7.21069 5.45257 7.30434Z" fill="white"/>
</g>
<defs>
<clipPath id="clip0_1722_6967">
<rect width="11" height="14" fill="white"/>
</clipPath>
</defs>
</svg>
