<svg width="15" height="17" viewBox="0 0 15 17" fill="none" xmlns="http://www.w3.org/2000/svg">
<g clip-path="url(#clip0_1730_7001)">
<path d="M5.53278 0.983615C5.53278 1.35247 5.53278 1.72132 5.53278 1.96722C5.53278 2.09017 5.65573 2.21312 5.77868 2.33607C5.90163 2.21312 6.02458 2.09017 6.14753 1.96722C6.14753 1.72132 6.14753 1.47542 6.14753 1.35247C6.14753 1.10657 6.14753 0.983615 6.14753 0.860664C6.51638 0.614763 6.76228 0.368861 7.00818 0.122959C7.25409 -0.122942 8.11474 8.58275e-06 8.23769 0.24591C8.23769 0.368861 8.36064 0.491812 8.36064 0.491812C9.09835 0.614763 8.9754 1.10657 8.9754 1.59837C8.9754 1.72132 8.9754 1.84427 8.9754 1.84427C9.09835 1.96722 9.2213 2.09017 9.34425 2.21312C9.4672 2.09017 9.59015 1.96722 9.59015 1.84427C9.59015 1.59837 9.59015 1.35247 9.59015 0.983615C10.3279 1.59837 10.8197 2.45902 11.0656 3.44263C11.0656 3.68853 11.1885 3.93443 11.4344 4.05739C11.6803 4.30329 11.6803 4.54919 11.4344 4.67214C11.0656 5.04099 10.6967 5.16394 10.3279 5.28689C8.48359 5.7787 6.63933 5.7787 4.67212 5.28689C4.30327 5.16394 3.93441 5.04099 3.68851 4.79509C3.44261 4.54919 3.31966 4.30329 3.68851 4.05739C3.81146 3.93443 3.93441 3.68853 3.93441 3.56558C4.05737 2.58198 4.54917 1.72132 5.53278 0.983615Z" fill="black"/>
<path d="M11.1885 6.63937C11.0656 7.00822 10.9426 7.50002 10.8197 7.74592C10.4508 8.48363 10.082 9.09838 9.71311 9.71314C8.4836 11.4344 6.27048 11.3115 5.16393 9.46723C4.91802 8.97543 4.54917 8.48363 4.30327 7.86887C4.05737 7.37707 4.05737 6.76232 3.93442 6.27051C3.93442 6.02461 4.05737 5.77871 4.42622 5.90166C6.39343 6.39346 8.2377 6.39346 10.2049 6.02461C10.9426 5.77871 11.0656 5.90166 11.1885 6.63937Z" fill="black"/>
<path d="M12.418 16.3525C10.4508 16.4754 8.48359 16.4754 6.51638 16.4754C5.53277 16.4754 4.42622 16.3525 3.44261 16.2295C3.07376 16.2295 2.82786 16.1066 2.95081 15.6148C2.95081 15.2459 2.95081 14.8771 2.95081 14.3853C6.14753 14.3853 9.34425 14.3853 12.541 14.3853C12.418 15.123 12.418 15.6148 12.418 16.3525Z" fill="black"/>
<path d="M4.30328 13.4016C4.30328 12.418 4.30328 11.4344 4.30328 10.4508C4.30328 10.3279 4.42623 10.082 4.54919 10.082C4.67214 10.082 4.91804 10.082 5.04099 10.2049C5.65574 10.8197 6.14755 11.1885 6.88525 11.4344C8.11476 11.6803 8.97541 11.1885 9.83607 10.3279C9.95902 10.2049 10.2049 10.082 10.4508 10.082C10.8197 10.082 10.8197 10.3279 10.8197 10.6967C10.8197 11.5574 10.8197 12.418 10.8197 13.4016C8.60656 13.4016 6.5164 13.4016 4.30328 13.4016Z" fill="black"/>
<path d="M3.19672 10.8197C3.19672 11.6804 3.19672 12.541 3.19672 13.4017C2.82787 13.5246 2.33607 13.5246 2.09016 13.7705C1.84426 14.0164 1.72131 14.3853 1.72131 14.7541C1.59836 15.123 1.72131 15.6148 1.72131 16.1066C1.22951 15.9836 0.737705 15.7377 0.245902 15.6148C0.122951 15.6148 0 15.3689 0 15.2459C0.122951 13.4017 0.860656 11.4345 3.19672 10.8197Z" fill="black"/>
<path d="M13.5246 15.9836C13.2787 13.6476 13.2787 13.6476 11.8033 13.4017C11.8033 12.541 11.8033 11.6804 11.8033 10.8197C13.4016 11.1886 14.6312 12.541 14.8771 14.3853C15.123 15.6148 15.123 15.7377 13.7705 15.9836C13.7705 15.9836 13.6475 15.9836 13.5246 15.9836Z" fill="black"/>
</g>
<defs>
<clipPath id="clip0_1730_7001">
<rect width="15" height="16.5984" fill="white"/>
</clipPath>
</defs>
</svg>
