<svg xmlns="http://www.w3.org/2000/svg" width="20" height="20" fill="none" viewBox="0 0 20 20">
    <path stroke="#fff" stroke-miterlimit="10" stroke-width="1.4" d="M3.523 18.895c.63-.175 1.09-.593 1.539-1.045 2.065-2.079 4.143-4.143 6.208-6.222.582-.589 1.259-.838 2.082-.813 1.753.056 3.113-.684 3.997-2.191 0 0 1.118-1.91.424-3.411l-.01-.042c-.82.824-1.61 1.591-2.367 2.39-.28.298-.575.34-.915.239-1.202-.361-1.98-1.157-2.335-2.36-.098-.329-.038-.613.246-.88.733-.69 1.434-1.419 2.145-2.13.07-.07.13-.151.214-.25 0 0-.845-.311-1.917-.115-2.167.385-3.814 2.292-3.699 4.5.046.853-.224 1.543-.834 2.146-2.075 2.054-4.126 4.13-6.198 6.184-.452.449-.873.908-1.048 1.539-.235.81.358 1.518.358 1.518.799 1.17 2.11.943 2.11.943z"/>
    <path fill="#fff" stroke="#fff" stroke-miterlimit="10" d="M3.874 16.795c-.007.372-.323.69-.698.694-.386.004-.719-.33-.712-.715.007-.375.323-.69.698-.694.386-.004.719.33.712.715z"/>
</svg>
