<svg xmlns="http://www.w3.org/2000/svg" width="20" height="20" fill="none" viewBox="0 0 20 20">
    <path stroke="#fff" stroke-miterlimit="10" stroke-width="1.2" d="M10.29 17.32c3.477 0 6.297-2.82 6.297-6.301 0-3.48-2.82-6.302-6.297-6.302-3.478 0-6.297 2.821-6.297 6.302 0 3.48 2.82 6.301 6.297 6.301z"/>
    <path stroke="#fff" stroke-linecap="round" stroke-linejoin="round" stroke-miterlimit="10" stroke-width="1.2" d="M7.46 8.157l2.83 2.862 1.801-1.87M6.813 16.42l-1.135 1.33M13.72 16.42l1.134 1.33M8 2.79c-.711-.85-2.09-1.045-3.08-.435-.99.61-1.216 1.794-.505 2.645L8 2.79zM6 4l.538.97M13 2.939c.725-1.01 2.13-1.241 3.139-.517 1.01.726 1.24 2.132.515 3.143L13 2.939zM14.91 4.599l-.915 1.165"/>
</svg>
