<svg xmlns="http://www.w3.org/2000/svg" width="40" height="40" fill="none" viewBox="0 0 40 40">
    <path fill="#C4CBDB" d="M28.665 23.369c1.095-1.522 1.071-3.56-.048-5.063-.604-.83-1.403-1.504-2.321-1.984.48 1.51.296 3.15-.503 4.524-.545.93-1.291 1.735-2.185 2.363-.912.64-1.925 1.125-3.003 1.439-1.143.337-2.327.503-3.517.503-.225 0-.563-.018-1-.047 1.598 1 3.47 1.515 5.37 1.468.67 0 1.338-.06 2.002-.178 1.225.865 2.646 1.416 4.145 1.605.088.006.177-.018.248-.077.077-.06.13-.148.148-.243 0-.041 0-.07.012-.07s.012-.024-.006-.072l-.024-.065-.03-.053c-.01-.024-.023-.042-.04-.06-.012-.017-.03-.035-.048-.053l-.053-.053-.048-.053c-.035-.048-.124-.136-.26-.279-.136-.142-.237-.248-.296-.325l-.255-.326c-.106-.136-.201-.278-.284-.426-.077-.148-.16-.314-.231-.492.888-.503 1.652-1.172 2.227-1.983z"/>
    <path stroke="#C4CBDB" stroke-linecap="round" stroke-linejoin="round" stroke-miterlimit="10" stroke-width="1.3" d="M24.756 18.14c0 2.836-3.304 5.14-7.378 5.14-.758 0-1.486-.077-2.173-.225-.521-.113-4.364 2.06-4.364 2.06s1.895-2.96 1.462-3.245C10.883 20.935 10 19.608 10 18.14c0-2.837 3.304-5.14 7.378-5.14s7.378 2.297 7.378 5.14z"/>
    <circle cx="20" cy="20" r="19.4" stroke="#C4CBDB" stroke-width="1.2"/>
</svg>
