<svg xmlns="http://www.w3.org/2000/svg" width="20" height="20" fill="none" viewBox="0 0 20 20">
    <path fill="#fff" d="M18.733 12.851c1.041-1.446 1.019-3.381-.045-4.81-.574-.788-1.333-1.43-2.205-1.885.456 1.435.281 2.993-.478 4.298-.518.884-1.227 1.649-2.076 2.245-.867.608-1.829 1.07-2.853 1.367-1.086.321-2.21.479-3.342.479-.213 0-.534-.017-.95-.045 1.519.95 3.296 1.44 5.102 1.395.636 0 1.272-.056 1.902-.169 1.165.821 2.515 1.345 3.938 1.525.085.005.169-.017.236-.073.074-.057.124-.141.141-.231 0-.04 0-.068.011-.068.012 0 .012-.022-.005-.067l-.023-.062-.028-.05c-.011-.023-.022-.04-.04-.057-.01-.017-.027-.034-.044-.05l-.05-.051-.046-.05c-.034-.046-.118-.13-.247-.265-.13-.135-.226-.236-.282-.31l-.242-.31c-.1-.128-.191-.263-.27-.404-.073-.14-.152-.298-.22-.467.845-.478 1.57-1.114 2.116-1.885z"/>
    <path stroke="#fff" stroke-linecap="round" stroke-linejoin="round" stroke-miterlimit="10" stroke-width="1.3" d="M15.02 7.883c0 2.695-3.14 4.884-7.01 4.884-.72 0-1.412-.073-2.065-.214-.495-.107-4.146 1.958-4.146 1.958s1.8-2.813 1.39-3.083C1.838 10.538 1 9.278 1 7.883 1 5.19 4.14 3 8.01 3c3.87 0 7.01 2.183 7.01 4.883z"/>
</svg>
