<svg xmlns="http://www.w3.org/2000/svg" width="40" height="40" fill="none" viewBox="0 0 40 40">
    <circle cx="20" cy="20" r="19.4" stroke="#C4CBDB" stroke-width="1.2"/>
    <path stroke="#C4CBDB" stroke-miterlimit="10" stroke-width="1.4" d="M13.384 29.223c.681-.189 1.176-.639 1.66-1.126 2.228-2.243 4.47-4.47 6.697-6.712.628-.635 1.357-.904 2.246-.877 1.89.06 3.358-.738 4.31-2.363 0 0 1.207-2.061.458-3.68l-.011-.045c-.885.889-1.736 1.717-2.553 2.579-.302.321-.62.367-.986.257-1.297-.39-2.137-1.248-2.519-2.545-.106-.355-.041-.662.265-.949.79-.745 1.546-1.531 2.314-2.299.076-.075.14-.162.23-.268 0 0-.91-.337-2.068-.125-2.336.416-4.114 2.473-3.989 4.855.05.919-.242 1.664-.9 2.314-2.238 2.216-4.45 4.454-6.685 6.67-.488.484-.941.98-1.13 1.66-.254.873.385 1.637.385 1.637.862 1.263 2.276 1.017 2.276 1.017z"/>
    <path fill="#C4CBDB" stroke="#C4CBDB" stroke-miterlimit="10" d="M13.763 26.959c-.008.4-.348.744-.753.748-.416.004-.775-.355-.767-.771.007-.405.348-.745.752-.749.416-.004.775.355.768.771z"/>
</svg>
