<svg width="19" height="20" viewBox="0 0 19 20" fill="none" xmlns="http://www.w3.org/2000/svg">
<g clip-path="url(#clip0_2788_8953)">
<path d="M6.89999 7.59998C8.09999 7.59998 8.09999 7.59998 9.39999 7.59998C9.69999 7.59998 9.89999 7.79998 9.89999 7.99998C9.99999 8.29998 9.69999 8.59998 9.39999 8.69998C9.19999 8.69998 8.99999 8.69998 8.89999 8.69998C6.59999 8.69998 5.49999 8.69998 3.19999 8.69998C2.99999 8.69998 2.79999 8.59998 2.69999 8.39998C2.59999 8.19998 2.69999 7.99998 2.79999 7.79998C2.89999 7.69998 2.99999 7.69998 3.19999 7.69998C4.39999 7.59998 5.69999 7.59998 6.89999 7.59998Z" fill="white" stroke="white" stroke-width="0.25" stroke-miterlimit="10"/>
<path d="M6.49998 16.2C5.89998 16.2 5.99998 16.2 5.39998 16.2C4.09998 16.2 3.59998 16.2 2.29998 16.2C1.79998 16.2 1.29998 15.8 1.19998 15.3C1.19998 15.2 1.19998 15.1 1.19998 15.1C1.19998 11.6 1.19998 7.99998 1.19998 4.49998C1.19998 3.89998 1.59998 3.49998 2.09998 3.39998C2.19998 3.39998 2.19998 3.39998 2.29998 3.39998C2.79998 3.39998 2.49998 3.39998 2.99998 3.39998C2.99998 3.39998 2.99998 3.39998 3.09998 3.39998C3.09998 4.09998 3.09998 4.79998 3.09998 5.49998C5.59998 5.49998 8.09998 5.49998 10.6 5.49998C10.6 4.79998 10.6 4.09998 10.6 3.39998H10.7C11.2 3.39998 10.9 3.39998 11.4 3.39998C11.9 3.39998 12.4 3.79998 12.5 4.29998C12.5 4.39998 12.5 4.39998 12.5 4.49998C12.5 5.89998 12.5 7.29998 12.5 8.69998C12.9 8.69998 13.2 8.69998 13.5 8.79998C13.5 7.89998 13.5 6.99998 13.5 6.09998C13.5 5.49998 13.5 4.89998 13.5 4.39998C13.5 3.49998 12.8 2.59998 11.9 2.39998C11.7 2.39998 11.5 2.29998 11.3 2.29998C10.8 2.29998 11.1 2.29998 10.7 2.29998H10.6C10.6 1.89998 10.6 1.59998 10.6 1.19998H10.5C10.1 1.19998 9.69998 1.19998 9.19998 1.19998H9.09998C8.69998 0.699976 8.09998 0.399976 7.39998 0.199976C7.29998 0.199976 7.09998 0.199976 6.99998 0.0999756C6.89998 0.0999756 6.69998 0.0999756 6.59998 0.0999756C6.39998 0.0999756 6.29998 0.0999756 6.09998 0.199976C5.49998 0.299976 4.89998 0.599976 4.49998 1.09998L4.39998 1.19998C3.99998 1.19998 3.59998 1.19998 3.09998 1.19998H2.99998C2.99998 1.59998 2.99998 1.89998 2.99998 2.29998H2.89998C2.39998 2.29998 2.59998 2.29998 2.09998 2.29998C1.59998 2.29998 1.19998 2.49998 0.899976 2.79998C0.499976 3.09998 0.199976 3.49998 0.0999756 4.09998C0.0999756 4.29998 0.0999756 4.49998 0.0999756 4.69998C0.0999756 7.09998 0.0999756 9.39998 0.0999756 11.8C0.0999756 12.9 0.0999756 14.1 0.0999756 15.2C0.0999756 16.2 0.799976 17.1 1.89998 17.3C1.99998 17.3 2.09998 17.3 2.29998 17.3C4.39998 17.3 5.29998 17.3 6.89998 17.3C6.79998 16.9 6.69998 16.5 6.49998 16.2ZM4.29998 2.29998C4.69998 2.29998 5.09998 2.29998 5.49998 2.29998C5.49998 2.09998 5.49998 1.99998 5.59998 1.89998C5.79998 1.59998 5.99998 1.39998 6.39998 1.29998C6.89998 1.09998 7.49998 1.19998 7.99998 1.49998C8.29998 1.69998 8.49998 1.89998 8.49998 2.29998C8.89998 2.29998 9.29998 2.29998 9.69998 2.29998C9.69998 2.99998 9.69998 3.69998 9.69998 4.39998C7.89998 4.39998 6.19998 4.39998 4.39998 4.39998C4.29998 3.69998 4.29998 2.99998 4.29998 2.29998Z" fill="white" stroke="white" stroke-width="0.25" stroke-miterlimit="10"/>
<path d="M8.49999 15.9C8.79999 15.9 9.19999 15.9 9.49999 15.9L9.59999 16C9.79999 16.6 10.2 17.1 10.6 17.5C11.5 18.3 12.6 18.7 13.8 18.5C15.3 18.3 16.6 17.1 17 15.6C17.5 13.7 16.5 11.8 14.7 11.1C12.8 10.3 10.7 11.1 9.69999 12.9C9.69999 12.9 9.69999 12.9 9.69999 13C10.2 13.5 10.7 14 11.2 14.4C10.1 14.4 8.89999 14.4 7.79999 14.4C7.79999 13.3 7.79999 12.2 7.79999 11C8.19999 11.4 8.59999 11.8 8.99999 12.2C9.79999 10.9 10.9 10.1 12.4 9.80003C13.5 9.60003 14.6 9.70003 15.6 10.3C17.7 11.4 18.8 13.9 18 16.2C17.2 18.5 15 19.9 12.7 19.6C10.3 19.2 8.79999 17.3 8.49999 15.9Z" fill="white" stroke="white" stroke-width="0.25" stroke-miterlimit="10"/>
<path d="M12.5 12.2C12.7 12.2 13 12.2 13.2 12.2C13.3 12.2 13.3 12.3 13.3 12.3C13.3 12.7 13.3 13.2 13.3 13.6C13.3 13.8 13.3 14 13.3 14.2C13.3 14.3 13.3 14.3 13.4 14.4C14 14.8 14.7 15.2 15.3 15.5C15.3 15.5 15.3 15.5 15.4 15.6C15.3 15.8 15.1 16 15 16.3C14.8 16.2 14.7 16.1 14.5 16C13.9 15.6 13.3 15.3 12.7 14.9C12.6 14.9 12.6 14.8 12.6 14.7C12.5 13.9 12.5 13.1 12.5 12.2Z" fill="white" stroke="white" stroke-width="0.25" stroke-miterlimit="10"/>
<path d="M6.00001 14C6.00001 13.6 6.10001 13.3 6.20001 12.9C4.90001 12.9 4.50001 12.9 3.20001 12.9C2.90001 12.9 2.70001 13.1 2.70001 13.4C2.70001 13.7 2.90001 13.9 3.20001 13.9C4.40001 14 4.80001 14 6.00001 14Z" fill="white" stroke="white" stroke-width="0.25" stroke-miterlimit="10"/>
<path d="M6.29998 10.3C5.79998 10.3 5.39998 10.3 4.89998 10.3C3.89998 10.3 3.99998 10.3 2.99998 10.3C2.79998 10.3 2.59998 10.5 2.59998 10.8C2.59998 11.1 2.79998 11.3 2.99998 11.3C4.19998 11.3 4.29998 11.3 5.49998 11.3C5.79998 11 5.99998 10.6 6.29998 10.3Z" fill="white" stroke="white" stroke-width="0.25" stroke-miterlimit="10"/>
</g>
<defs>
<clipPath id="clip0_2788_8953">
<rect width="18.4" height="19.8" fill="white"/>
</clipPath>
</defs>
</svg>
