<svg xmlns:svg="http://www.w3.org/2000/svg" xmlns="http://www.w3.org/2000/svg" xmlns:xlink="http://www.w3.org/1999/xlink" version="1.0" width="128" height="16" xml:space="preserve" style=""><rect id="backgroundrect" width="100%" height="100%" x="0" y="0" fill="none" stroke="none"/><g class="currentLayer" style=""><title>Layer 1</title><path fill="#992e2c" fill-opacity="0.42" d="M7.084931516647339,5.484931516647339 A3.2,3.2 0 1 1 3.884931516647339,8.684931516647339 A3.2,3.2 0 0 1 7.084931516647339,5.484931516647339 zm12.8,0 A3.2,3.2 0 1 1 16.68493151664734,8.684931516647339 A3.2,3.2 0 0 1 19.884931516647338,5.484931516647339 zM32.68493151664734,5.484931516647339 A3.2,3.2 0 1 1 29.48493151664734,8.684931516647339 A3.2,3.2 0 0 1 32.68493151664734,5.484931516647339 zm12.8,0 A3.2,3.2 0 1 1 42.28493151664734,8.684931516647339 A3.2,3.2 0 0 1 45.484931516647336,5.484931516647339 zm12.8,0 A3.2,3.2 0 1 1 55.08493151664734,8.684931516647339 A3.2,3.2 0 0 1 58.28493151664734,5.484931516647339 zm12.8,0 A3.2,3.2 0 1 1 67.88493151664734,8.684931516647339 A3.2,3.2 0 0 1 71.08493151664734,5.484931516647339 zm12.8,0 A3.2,3.2 0 1 1 80.68493151664734,8.684931516647339 A3.2,3.2 0 0 1 83.88493151664734,5.484931516647339 zM96.68493151664734,5.484931516647339 A3.2,3.2 0 1 1 93.48493151664734,8.684931516647339 A3.2,3.2 0 0 1 96.68493151664734,5.484931516647339 zm12.8,0 A3.2,3.2 0 1 1 106.28493151664733,8.684931516647339 A3.2,3.2 0 0 1 109.48493151664734,5.484931516647339 zm12.8,0 A3.2,3.2 0 1 1 119.08493151664734,8.684931516647339 A3.2,3.2 0 0 1 122.28493151664733,5.484931516647339 z" id="svg_1" class=""/><g id="svg_2" class="" fill-opacity="0.42" fill="#992e2c"><path fill="#992e2c" fill-opacity="1" d="M-42.7,3.84A4.16,4.16,0,0,1-38.54,8a4.16,4.16,0,0,1-4.16,4.16A4.16,4.16,0,0,1-46.86,8,4.16,4.16,0,0,1-42.7,3.84Zm12.8-.64A4.8,4.8,0,0,1-25.1,8a4.8,4.8,0,0,1-4.8,4.8A4.8,4.8,0,0,1-34.7,8,4.8,4.8,0,0,1-29.9,3.2Zm12.8-.64A5.44,5.44,0,0,1-11.66,8a5.44,5.44,0,0,1-5.44,5.44A5.44,5.44,0,0,1-22.54,8,5.44,5.44,0,0,1-17.1,2.56Z" id="svg_3"/><animateTransform attributeName="transform" type="translate" values="23 0;36 0;49 0;62 0;74.5 0;87.5 0;100 0;113 0;125.5 0;138.5 0;151.5 0;164.5 0;178 0" calcMode="discrete" dur="1170ms" repeatCount="indefinite"/></g></g></svg>