<svg width="44" height="44" viewBox="0 0 44 44" fill="none" xmlns="http://www.w3.org/2000/svg">
<g clip-path="url(#clip0_2223_9557)">
<path d="M21.5041 16.0135C24.729 16.0135 26.5312 16.0135 29.7561 16.0135C30.4201 16.0135 30.7046 16.2027 30.7046 16.8649C30.7046 18.7568 30.7046 20.5541 30.7046 22.446C30.7046 23.5811 31.2737 24.1487 32.5068 24.2433C32.981 24.2433 33.4553 24.2433 33.9296 24.2433C35.4472 24.2433 36.8699 24.2433 38.4824 24.2433C38.4824 24.9054 38.4824 25.473 38.4824 26.0405C38.4824 28.4054 38.5772 28.2162 36.206 28.2162C35.9214 28.2162 35.6369 28.027 35.542 27.8378C34.309 26.0405 32.0325 26.0405 30.7995 27.8378C30.7046 28.027 30.4201 28.2162 30.2304 28.2162C28.9973 28.2162 23.9702 28.2162 22.7371 28.2162C22.5474 28.2162 22.2629 28.1216 22.168 27.9324C21.3144 25.8514 18.374 25.7568 17.2358 27.9324C17.1409 28.2162 14.3903 28.1216 13.916 28.1216C13.8211 28.1216 13.7263 28.027 13.6314 27.9324L14.0109 25.8514H19.3225C19.6071 25.8514 19.8916 25.5676 19.8916 25.2838C19.8916 25 19.6071 24.7162 19.3225 24.7162H10.122C9.83741 24.7162 9.55286 25 9.55286 25.2838C9.55286 25.5676 9.83741 25.8514 10.122 25.8514H12.5881L12.1138 28.2162C12.3035 29.7297 12.8726 29.446 16.9512 29.446C17.5203 31.0541 18.374 31.8108 19.7019 31.8108C21.0298 31.9054 21.8835 31.1487 22.6423 29.446C22.6423 29.446 22.7371 29.446 22.832 29.446C23.9702 29.446 28.8076 29.446 29.851 29.446C30.3252 29.446 30.6098 29.5405 30.7046 30.0135C31.084 31.1487 32.1274 31.8108 33.2656 31.8108C34.4038 31.8108 35.4472 31.0541 35.8266 30.0135C35.9214 29.8243 36.0163 29.6351 36.0163 29.446C36.7751 29.446 37.5339 29.446 38.1978 29.446C39.0515 29.446 39.7155 28.7838 39.8103 28.027C39.8103 26.6081 39.8103 25.2838 39.8103 23.8649C39.8103 23.5811 39.6206 23.3919 39.5258 23.1081C38.6721 21.7838 37.8184 20.4595 37.0596 19.1351C36.5854 18.2838 35.9214 17.8108 34.7832 17.9054C33.9295 18 32.981 17.9054 32.0325 17.9054C32.0325 17.527 32.0325 17.2433 32.0325 16.9595C32.0325 15.6351 31.2737 14.8784 29.851 14.8784C29.6613 14.8784 29.3767 14.8784 29.187 14.8784C26.1518 14.8784 24.4445 14.8784 21.4092 14.8784M33.7398 23.0135C31.8428 23.0135 31.8428 23.0135 31.8428 21.2162C31.8428 20.5541 31.8428 19.8919 31.8428 19.0405C32.981 19.0405 34.0244 19.0405 35.0678 19.0405C35.2575 19.0405 35.4472 19.1351 35.542 19.3243C36.3008 20.4595 36.9648 21.6892 37.8184 23.0135C36.3957 23.0135 35.0678 23.0135 33.7398 23.0135ZM19.5122 30.4865C18.6585 30.4865 18.0894 29.9189 17.9946 29.0676C17.9946 28.3108 18.6585 27.6487 19.4174 27.6487C20.271 27.6487 20.935 28.3108 20.935 29.0676C20.935 29.9189 20.271 30.4865 19.5122 30.4865ZM32.981 30.4865C32.1274 30.4865 31.5583 29.8243 31.5583 29.0676C31.5583 28.3108 32.2222 27.6487 33.0759 27.6487C33.9295 27.6487 34.5935 28.3108 34.5935 29.1622C34.4038 29.9189 33.7398 30.5811 32.981 30.4865Z" fill="#F3F6FF"/>
<path d="M21.5041 16.0135C24.729 16.0135 26.5312 16.0135 29.7561 16.0135C30.4201 16.0135 30.7046 16.2027 30.7046 16.8649C30.7046 18.7568 30.7046 20.5541 30.7046 22.446C30.7046 23.5811 31.2737 24.1487 32.5068 24.2433C32.981 24.2433 33.4553 24.2433 33.9296 24.2433C35.4472 24.2433 36.8699 24.2433 38.4824 24.2433C38.4824 24.9054 38.4824 25.473 38.4824 26.0405C38.4824 28.4054 38.5772 28.2162 36.206 28.2162C35.9214 28.2162 35.6369 28.027 35.542 27.8378C34.309 26.0405 32.0325 26.0405 30.7995 27.8378C30.7046 28.027 30.4201 28.2162 30.2304 28.2162C28.9973 28.2162 23.9702 28.2162 22.7371 28.2162C22.5474 28.2162 22.2629 28.1216 22.168 27.9324C21.3144 25.8514 18.374 25.7568 17.2358 27.9324C17.1409 28.2162 14.3903 28.1216 13.916 28.1216C13.8211 28.1216 13.7263 28.027 13.6314 27.9324L14.0109 25.8514H19.3225C19.6071 25.8514 19.8916 25.5676 19.8916 25.2838C19.8916 25 19.6071 24.7162 19.3225 24.7162H10.122C9.83741 24.7162 9.55286 25 9.55286 25.2838C9.55286 25.5676 9.83741 25.8514 10.122 25.8514H12.5881L12.1138 28.2162C12.3035 29.7297 12.8726 29.446 16.9512 29.446C17.5203 31.0541 18.374 31.8108 19.7019 31.8108C21.0298 31.9054 21.8835 31.1487 22.6423 29.446C22.6423 29.446 22.7371 29.446 22.832 29.446C23.9702 29.446 28.8076 29.446 29.851 29.446C30.3252 29.446 30.6098 29.5405 30.7046 30.0135C31.084 31.1487 32.1274 31.8108 33.2656 31.8108C34.4038 31.8108 35.4472 31.0541 35.8266 30.0135C35.9214 29.8243 36.0163 29.6351 36.0163 29.446C36.7751 29.446 37.5339 29.446 38.1978 29.446C39.0515 29.446 39.7155 28.7838 39.8103 28.027C39.8103 26.6081 39.8103 25.2838 39.8103 23.8649C39.8103 23.5811 39.6206 23.3919 39.5258 23.1081C38.6721 21.7838 37.8184 20.4595 37.0596 19.1351C36.5854 18.2838 35.9214 17.8108 34.7832 17.9054C33.9295 18 32.981 17.9054 32.0325 17.9054C32.0325 17.527 32.0325 17.2433 32.0325 16.9595C32.0325 15.6351 31.2737 14.8784 29.851 14.8784C29.6613 14.8784 29.3767 14.8784 29.187 14.8784C26.1518 14.8784 24.4445 14.8784 21.4092 14.8784M33.7398 23.0135C31.8428 23.0135 31.8428 23.0135 31.8428 21.2162C31.8428 20.5541 31.8428 19.8919 31.8428 19.0405C32.981 19.0405 34.0244 19.0405 35.0678 19.0405C35.2575 19.0405 35.4472 19.1351 35.542 19.3243C36.3008 20.4595 36.9648 21.6892 37.8184 23.0135C36.3957 23.0135 35.0678 23.0135 33.7398 23.0135ZM19.5122 30.4865C18.6585 30.4865 18.0894 29.9189 17.9946 29.0676C17.9946 28.3108 18.6585 27.6487 19.4174 27.6487C20.271 27.6487 20.935 28.3108 20.935 29.0676C20.935 29.9189 20.271 30.4865 19.5122 30.4865ZM32.981 30.4865C32.1274 30.4865 31.5583 29.8243 31.5583 29.0676C31.5583 28.3108 32.2222 27.6487 33.0759 27.6487C33.9295 27.6487 34.5935 28.3108 34.5935 29.1622C34.4038 29.9189 33.7398 30.5811 32.981 30.4865Z" stroke="#F3F6FF" stroke-width="0.2"/>
<path d="M21.4092 22.0676C21.4092 22.446 21.6938 22.7297 21.9783 22.7297H22.6423C22.9268 22.7297 23.2114 22.446 23.2114 22.1622C23.2114 21.8784 22.9268 21.5946 22.6423 21.5946H21.9783C21.6938 21.5 21.4092 21.7838 21.4092 22.0676Z" fill="#F3F6FF" stroke="#F3F6FF" stroke-width="0.4"/>
<path d="M5.1897 22.0676C5.1897 22.446 5.47425 22.7297 5.7588 22.7297H11.1653C11.4499 22.7297 11.7344 22.446 11.7344 22.1622C11.7344 21.8784 11.4499 21.5946 11.1653 21.5946H5.7588C5.47425 21.5 5.1897 21.7838 5.1897 22.0676Z" fill="#F3F6FF" stroke="#F3F6FF" stroke-width="0.4"/>
<path d="M7.08673 18.473C7.08673 18.8514 7.37128 19.1351 7.65584 19.1351H9.2683C9.55286 19.1351 9.83741 18.8514 9.83741 18.5676C9.83741 18.2838 9.55286 18 9.2683 18H7.65584C7.37128 17.9054 7.08673 18.1892 7.08673 18.473Z" fill="#F3F6FF" stroke="#F3F6FF" stroke-width="0.4"/>
<path d="M22.4526 16.5811C22.4526 16.7703 22.4526 16.9595 22.4526 17.1487C22.4526 17.1487 22.4526 17.1487 22.4526 17.2433C22.4526 17.4324 22.4526 17.6216 22.3577 17.8108C22.168 18.7568 21.8835 19.6081 21.3144 20.3649C21.0298 20.7433 20.7452 21.027 20.4607 21.3108C19.5122 22.0676 18.374 22.5406 17.1409 22.6351C16.5718 22.7297 15.9078 22.6351 15.3387 22.5406C14.5799 22.3514 13.8211 22.0676 13.1572 21.5946C12.6829 21.2162 12.2087 20.8378 11.8293 20.2703C10.9756 18.946 10.5962 17.527 10.8807 15.9189C10.9756 15.1622 11.2601 14.4054 11.7344 13.7433C12.019 13.3649 12.2087 12.9865 12.5881 12.7027C13.1572 12.1351 13.8211 11.7568 14.5799 11.473C15.0542 11.2838 15.6233 11.1892 16.0975 11.0946C16.1924 11.0946 16.3821 11.0946 16.477 11.0946C16.6667 11.0946 16.8564 11.0946 17.0461 11.0946C17.0461 11.0946 17.0461 11.0946 17.1409 11.0946C17.6152 11.0946 18.0894 11.1892 18.5637 11.3784C19.5122 11.6622 20.3658 12.1351 21.0298 12.8919C21.5041 13.3649 21.8835 13.9324 22.168 14.5946C22.4526 15.1622 22.5474 15.8243 22.6423 16.4865C22.4526 16.3919 22.4526 16.4865 22.4526 16.5811ZM16.5718 12.1351C15.9078 12.1351 15.149 12.3243 14.4851 12.6081C13.7263 12.9865 13.1572 13.4595 12.6829 14.1216C12.4932 14.4054 12.3035 14.7838 12.1138 15.0676C11.9241 15.5406 11.8293 16.0135 11.8293 16.4865C11.8293 16.8649 11.8293 17.2433 11.9241 17.6216C12.019 18.0946 12.2087 18.6622 12.3984 19.1351C12.7778 19.8919 13.3469 20.4595 14.1057 20.8378C14.3902 21.027 14.5799 21.1216 14.8645 21.2162C15.2439 21.4054 15.5284 21.4054 15.9078 21.5C16.2872 21.5946 16.7615 21.5946 17.1409 21.5C17.6152 21.4054 17.9946 21.3108 18.4688 21.2162C19.3225 20.9324 19.9864 20.3649 20.4607 19.6081C20.7452 19.2297 20.9349 18.8514 21.1246 18.473C21.3143 18 21.4092 17.527 21.4092 17.0541C21.4092 16.5811 21.4092 16.1081 21.2195 15.6351C21.0298 15.0676 20.8401 14.5946 20.5555 14.1216C19.9864 13.2703 19.1328 12.7027 18.1843 12.3243C17.6152 12.1351 17.1409 12.1351 16.5718 12.1351Z" fill="#F3F6FF" stroke="#F3F6FF" stroke-width="0.25"/>
<path d="M17.1409 15.0676C17.1409 15.5405 17.1409 16.0135 17.1409 16.4865V16.5811C17.6152 17.0541 18.0894 17.527 18.5637 18C18.7534 18.1892 18.7534 18.3784 18.6585 18.6622C18.4688 18.9459 18.0894 19.0405 17.8049 18.7568C17.6152 18.5676 17.4255 18.3784 17.2358 18.1892C16.8564 17.8108 16.5718 17.527 16.1924 17.1486C16.0976 17.0541 16.0027 16.8649 16.0027 16.7703C16.0027 15.7297 16.0027 14.6892 16.0027 13.5541C16.0027 13.3649 16.0976 13.1757 16.2873 13.0811C16.477 12.9865 16.6667 12.9865 16.8564 13.0811C17.0461 13.1757 17.0461 13.3649 17.0461 13.5541C17.1409 14.1216 17.1409 14.5946 17.1409 15.0676Z" fill="#F3F6FF" stroke="#F3F6FF" stroke-width="0.25"/>
</g>
<defs>
<clipPath id="clip0_2223_9557">
<rect width="35" height="21" fill="white" transform="translate(5 11)"/>
</clipPath>
</defs>
</svg>
