<svg width="44" height="44" viewBox="0 0 44 44" fill="none" xmlns="http://www.w3.org/2000/svg">
<g clip-path="url(#clip0_2601_8496)">
<path d="M17.4998 20.772C15.8927 19.908 14.8213 18.72 14.2856 16.992C13.9641 15.696 13.9641 14.4 14.3927 13.212C15.357 10.62 17.7141 8.99999 20.4998 9.10799C23.0713 9.21599 25.3213 11.052 25.9641 13.644C26.7141 16.452 25.4284 19.368 22.7498 20.772C22.857 20.772 22.857 20.772 22.9641 20.88C23.607 21.204 24.357 21.42 24.9998 21.744C25.3213 21.852 25.4284 22.284 25.3213 22.608C25.2141 22.932 24.8927 23.04 24.5713 23.04C24.4641 23.04 24.357 22.932 24.2498 22.932C19.5356 20.34 13.857 22.716 12.0356 27.576C11.7141 28.44 11.4998 29.412 11.4998 30.384C11.4998 30.816 11.4998 31.356 11.4998 31.788C11.4998 32.22 11.8213 32.652 12.2498 32.652C12.357 32.652 12.357 32.652 12.4641 32.652C15.1427 32.652 17.8213 32.652 20.4998 32.652C20.8213 32.652 21.0356 32.76 21.1427 32.976C21.357 33.408 21.0356 33.948 20.607 33.948C20.4998 33.948 20.3927 33.948 20.2856 33.948C17.607 33.948 14.9284 33.948 12.357 33.948C11.9284 33.948 11.3927 33.84 11.0713 33.516C10.5356 33.084 10.107 32.544 10.107 31.896C10.107 30.816 9.99984 29.736 10.3213 28.656C11.1784 24.768 13.5356 22.176 17.2856 20.988C17.3927 20.772 17.3927 20.772 17.4998 20.772ZM24.8927 15.264C24.8927 12.672 22.857 10.512 20.1784 10.512C17.607 10.404 15.4641 12.564 15.357 15.156C15.357 17.748 17.3927 19.908 20.0713 20.016C22.6427 20.016 24.7856 17.856 24.8927 15.264Z" fill="#61697C" stroke="#61697C" stroke-width="0.25" stroke-miterlimit="10"/>
<path d="M27.0359 22.176C30.7859 22.176 33.893 25.308 33.893 29.088C33.893 32.976 30.7859 36 27.0359 36C23.2859 36 20.1787 32.868 20.1787 29.088C20.1787 25.308 23.2859 22.176 27.0359 22.176ZM27.0359 34.488C30.0359 34.488 32.393 32.004 32.2859 29.088C32.2859 26.172 29.8216 23.796 26.9287 23.796C24.0359 23.796 21.6787 26.28 21.6787 29.196C21.7859 32.112 24.2501 34.488 27.0359 34.488Z" fill="#61697C"/>
<path d="M24.1431 31.572C24.3574 31.248 24.5716 30.924 24.7859 30.6C25.3216 31.032 25.9645 31.464 26.7145 31.572C26.7145 30.816 26.7145 30.168 26.7145 29.412C26.6074 29.412 26.5002 29.304 26.3931 29.304C26.0716 29.196 25.7502 29.088 25.4288 28.872C24.6788 28.548 24.3574 27.9 24.3574 27.036C24.3574 26.28 24.7859 25.632 25.4288 25.308C25.7502 25.092 26.1788 25.092 26.6074 24.876C26.6074 24.768 26.6074 24.552 26.6074 24.336C26.9288 24.336 27.2502 24.336 27.5716 24.336C27.5716 24.552 27.5716 24.768 27.5716 24.984C28.3216 25.092 28.9645 25.308 29.6074 25.848C29.3931 26.172 29.1788 26.496 29.0716 26.82C28.5359 26.604 28.1074 26.388 27.5716 26.064C27.5716 26.28 27.5716 26.388 27.5716 26.496C27.5716 27.036 27.5716 27.468 27.5716 28.008C27.5716 28.224 27.6788 28.224 27.7859 28.332C28.2145 28.44 28.6431 28.656 28.9645 28.872C30.2502 29.628 30.2502 31.464 28.9645 32.22C28.7502 32.328 28.5359 32.436 28.3216 32.544C28.1074 32.652 27.8931 32.652 27.5716 32.76C27.5716 33.084 27.5716 33.408 27.5716 33.84C27.2502 33.84 26.9288 33.84 26.6074 33.84C26.6074 33.516 26.6074 33.192 26.6074 32.76C25.7502 32.544 24.8931 32.22 24.1431 31.572ZM27.6788 31.572C28.2145 31.572 28.6431 31.248 28.7502 30.708C28.7502 30.168 28.3216 29.736 27.6788 29.628C27.6788 30.276 27.6788 30.924 27.6788 31.572ZM26.7145 26.172C26.0716 26.28 25.6431 26.604 25.6431 27.144C25.6431 27.684 26.0716 28.008 26.7145 28.116C26.7145 27.468 26.7145 26.82 26.7145 26.172Z" fill="#61697C"/>
</g>
<defs>
<clipPath id="clip0_2601_8496">
<rect width="24" height="27" fill="white" transform="translate(10 9)"/>
</clipPath>
</defs>
</svg>
