<svg width="44" height="44" viewBox="0 0 44 44" fill="none" xmlns="http://www.w3.org/2000/svg">
<g clip-path="url(#clip0_2601_8666)">
<path d="M21.2375 38.7898C20.5021 38.3694 19.7667 38.0541 19.1363 37.4236C18.611 36.8981 18.9262 36.3726 19.6616 36.3726C21.0274 36.3726 22.3931 36.3726 23.6538 36.3726C24.3893 36.3726 24.7044 36.8981 24.1791 37.5287C23.6538 38.0541 22.8134 38.3694 22.183 38.7898C21.7628 38.7898 21.5527 38.7898 21.2375 38.7898Z" fill="#61697C" stroke="#61697C" stroke-width="0.25" stroke-miterlimit="10"/>
<path d="M21.7626 6.1051C22.1828 6.52548 22.3929 8.4172 22.0778 8.94268C21.9727 9.15287 21.7626 9.25797 21.5525 9.25797C21.4474 9.25797 21.1322 9.04778 21.1322 8.94268C21.1322 7.99682 20.712 7.05096 21.4474 6.1051C21.5525 6.1051 21.6575 6.1051 21.7626 6.1051Z" fill="#61697C" stroke="#61697C" stroke-width="0.25" stroke-miterlimit="10"/>
<path d="M21.6577 34.1656C20.7122 34.1656 19.8717 34.1656 18.9262 34.1656C17.4554 34.1656 16.9301 33.6401 16.72 32.1688C16.6149 31.2229 16.72 30.172 16.4048 29.3312C15.9846 27.9649 15.4593 26.5987 14.7239 25.4427C12.5177 22.1847 12.6227 18.086 14.934 15.1433C17.3503 12.0955 21.2375 11.0446 24.7044 12.5159C28.2764 13.8821 30.4826 17.5605 30.0624 21.3439C29.9573 22.8153 29.4321 24.2866 28.4865 25.4427C27.1208 27.3344 26.4904 29.3312 26.4904 31.6433C26.4904 32.1688 26.4904 32.5891 26.2803 33.1146C26.0702 33.9554 25.5449 34.3758 24.5994 34.3758C23.6538 34.1656 22.6033 34.1656 21.6577 34.1656ZM21.5527 33.1146C22.3931 33.1146 23.2336 33.1146 24.0741 33.1146C25.2297 33.1146 25.4398 32.9044 25.4398 31.7484C25.4398 29.0159 26.2803 26.7038 27.7511 24.4968C28.9068 22.8153 29.2219 20.9235 28.8017 18.9267C28.1714 15.879 25.755 13.5669 22.8134 13.0414C19.9768 12.5159 17.0352 13.8821 15.3542 16.4044C13.6733 19.0318 13.7784 22.1847 15.6694 24.707C16.72 26.1783 17.4554 27.7548 17.6655 29.5414C17.7706 30.3821 17.7706 31.1178 17.8756 31.9586C17.8756 32.6942 18.0857 33.2197 19.0313 33.1146C19.8717 33.0095 20.7122 33.1146 21.5527 33.1146Z" fill="#61697C" stroke="#61697C" stroke-width="0.25" stroke-miterlimit="10"/>
<path d="M21.6577 35.8472C20.8172 35.8472 19.9768 35.8472 19.1363 35.8472C18.9262 35.8472 18.611 35.5319 18.4009 35.3217C18.611 35.1115 18.9262 34.7962 19.1363 34.7962C20.8172 34.7962 22.6032 34.7962 24.2841 34.7962C24.4943 34.7962 24.8094 35.1115 25.0196 35.3217C24.8094 35.5319 24.4943 35.8472 24.2841 35.8472C23.3386 35.8472 22.4982 35.8472 21.6577 35.8472Z" fill="#61697C" stroke="#61697C" stroke-width="0.25" stroke-miterlimit="10"/>
<path d="M33.319 19.5573C33.0038 19.5573 32.6886 19.6624 32.3734 19.5573C32.1633 19.4522 31.8481 19.242 31.8481 19.0319C31.8481 18.8217 32.1633 18.5064 32.2684 18.5064C32.8987 18.4013 33.6341 18.4013 34.2645 18.5064C34.4746 18.5064 34.7898 18.9268 34.7898 19.0319C34.7898 19.242 34.4746 19.4522 34.2645 19.5573C34.0544 19.5573 33.6341 19.5573 33.319 19.5573Z" fill="#61697C" stroke="#61697C" stroke-width="0.25" stroke-miterlimit="10"/>
<path d="M9.68078 19.5573C9.3656 19.5573 9.05043 19.6624 8.84031 19.5573C8.63019 19.4522 8.42008 19.242 8.20996 19.0319C8.42008 18.8217 8.63019 18.5064 8.84031 18.5064C9.47066 18.4013 9.99595 18.4013 10.6263 18.5064C10.8364 18.5064 11.0465 18.8217 11.2567 19.0319C11.0465 19.242 10.8364 19.4522 10.6263 19.5573C10.3111 19.5573 9.99595 19.5573 9.68078 19.5573Z" fill="#61697C" stroke="#61697C" stroke-width="0.25" stroke-miterlimit="10"/>
<path d="M27.9613 12.0955C27.8563 11.8853 27.5411 11.465 27.6461 11.3599C28.1714 10.7293 28.8018 10.0987 29.5372 9.57324C29.5372 9.57324 29.9574 9.88853 30.1675 10.0987C29.5372 10.8344 29.0119 11.465 28.3816 12.2006C28.1714 12.0955 28.0664 12.0955 27.9613 12.0955Z" fill="#61697C" stroke="#61697C" stroke-width="0.25" stroke-miterlimit="10"/>
<path d="M13.8832 9.36304C14.4085 9.99361 15.1439 10.6242 15.5641 11.3599C15.7742 11.6751 15.1439 12.0955 14.7236 11.7802C14.1983 11.4649 13.673 10.9395 13.2528 10.3089C13.0427 10.2038 13.3579 9.78342 13.4629 9.46813C13.568 9.46813 13.673 9.36304 13.8832 9.36304Z" fill="#61697C" stroke="#61697C" stroke-width="0.25" stroke-miterlimit="10"/>
<path d="M18.2956 22.3949C16.8248 22.1847 16.9299 22.1847 16.9299 20.293C16.9299 19.2421 17.7703 19.8726 18.2956 19.5573V19.4523C17.4552 18.6115 17.4552 18.6115 18.2956 17.7707C19.2411 16.8249 19.2411 16.8249 20.1867 17.7707C20.1867 17.5605 20.2917 17.4554 20.2917 17.3503C20.2917 16.4045 20.2917 16.4045 21.2373 16.4045C21.3423 16.4045 21.4474 16.4045 21.4474 16.4045C22.8131 16.4045 22.8131 16.4045 22.9182 17.7707C23.4435 17.7707 23.5485 16.7198 24.1789 17.1401C24.5991 17.4554 24.9143 17.8758 25.3345 18.2962C26.175 19.0319 24.9143 19.2421 24.9143 19.7675C26.2801 20.0828 26.2801 20.0828 26.2801 21.8694C26.2801 22.9204 25.3345 22.2898 24.9143 22.5C24.9143 23.0255 25.9649 23.1306 25.4396 23.8663C25.1244 24.2866 24.7042 24.6019 24.2839 25.0223C23.5485 25.758 23.4435 24.6019 22.9182 24.6019C22.8131 25.0223 22.8131 25.758 22.603 25.758C22.0777 25.9682 21.3423 25.8631 20.712 25.8631C19.6614 25.8631 20.2917 25.0223 19.9766 24.6019C19.4513 24.6019 19.3462 25.6529 18.6108 25.1274C18.5057 24.6019 18.1906 24.1816 17.7703 23.8663C17.14 23.1306 18.1906 22.9204 18.2956 22.3949ZM19.2411 24.1816C19.7664 23.9714 19.8715 23.1306 20.712 23.4459C21.4474 23.7612 20.9221 24.4968 21.2373 24.9172C21.5524 24.9172 21.8676 24.9172 22.1828 24.9172C22.3929 24.3917 21.9727 23.7612 22.7081 23.4459C23.4435 23.1306 23.5485 23.9714 24.0738 24.0765C24.389 23.8663 24.5991 23.551 24.8092 23.3408C24.5991 22.8153 23.8637 22.7102 24.1789 21.9745C24.4941 21.2389 25.2295 21.7644 25.6497 21.4491C25.6497 21.1338 25.6497 20.8185 25.6497 20.5032C25.1244 20.1879 24.4941 20.7134 24.1789 19.9777C23.7587 19.2421 24.5991 19.137 24.8092 18.6115C24.5991 18.4013 24.2839 18.086 24.0738 17.8758C23.6536 18.086 23.4435 18.8217 22.7081 18.6115C21.8676 18.2962 22.3929 17.5605 22.1828 17.1401C21.8676 17.1401 21.4474 17.1401 21.1322 17.1401C20.9221 17.6656 21.3423 18.2962 20.6069 18.6115C19.8715 18.9268 19.7664 17.9809 19.3462 17.9809C19.031 18.2962 18.7159 18.5064 18.5057 18.6115C18.7159 19.137 19.5563 19.3472 19.1361 20.0828C18.8209 20.8185 18.0855 20.1879 17.6653 20.6083C17.6653 20.9236 17.6653 21.2389 17.6653 21.5542C18.1906 21.7644 18.8209 21.344 19.1361 22.0796C19.5563 22.9204 18.6108 23.0255 18.5057 23.4459C18.7159 23.6561 19.031 23.9714 19.2411 24.1816Z" fill="#61697C" stroke="#61697C" stroke-width="0.25" stroke-miterlimit="10"/>
<path d="M21.6574 23.0255C20.6068 23.0255 19.6612 22.0796 19.7663 21.0287C19.7663 19.9777 20.6068 19.137 21.6574 19.137C22.7079 19.137 23.5484 19.9777 23.6535 21.0287C23.6535 22.0796 22.7079 23.0255 21.6574 23.0255ZM22.813 21.0287C22.813 20.3981 22.2877 19.8726 21.5523 19.8726C20.9219 19.8726 20.3967 20.3981 20.3967 21.1338C20.3967 21.7644 20.9219 22.2898 21.6574 22.2898C22.2877 22.1847 22.9181 21.6593 22.813 21.0287Z" fill="#61697C" stroke="#61697C" stroke-width="0.25" stroke-miterlimit="10"/>
</g>
<defs>
<clipPath id="clip0_2601_8666">
<rect width="27" height="33" fill="white" transform="translate(8 6)"/>
</clipPath>
</defs>
</svg>
