<svg width="44" height="44" viewBox="0 0 44 44" fill="none" xmlns="http://www.w3.org/2000/svg">
<g clip-path="url(#clip0_2601_8887)">
<path d="M13.7153 26.3347C12.912 26.3347 12.0082 26.3347 11.2049 26.3347C10.6024 26.3347 10.2007 25.9362 10.2007 25.3386C10.2007 23.6454 10.2007 21.9522 10.2007 20.259C10.2007 19.6613 10.6024 19.2629 11.2049 19.2629C12.912 19.2629 14.6191 19.2629 16.3262 19.2629C17.0291 19.2629 17.3304 19.6613 17.3304 20.259C17.3304 21.9522 17.3304 23.6454 17.3304 25.239C17.3304 25.9362 17.0291 26.235 16.3262 26.235C15.4224 26.3347 14.5187 26.3347 13.7153 26.3347ZM15.4224 24.5418C15.4224 23.3466 15.4224 22.1514 15.4224 21.0558C14.2174 21.0558 13.1128 21.0558 11.9078 21.0558C11.9078 22.251 11.9078 23.3466 11.9078 24.5418C13.1128 24.5418 14.3178 24.5418 15.4224 24.5418Z" fill="#61697C"/>
<path d="M13.7156 27.9283C14.519 27.9283 15.4228 27.9283 16.2261 27.9283C16.929 27.9283 17.2303 28.2271 17.2303 28.9243C17.2303 30.6175 17.2303 32.3108 17.2303 34.004C17.2303 34.6016 16.929 35 16.2261 35C15.1215 35 14.0169 35 12.9123 35C12.3098 35 11.7073 35 11.1048 35C10.4018 35 10.1006 34.7012 10.1006 34.004C10.1006 32.3108 10.1006 30.6175 10.1006 28.9243C10.1006 28.6255 10.201 28.3267 10.4018 28.1275C10.6027 28.0279 10.9039 27.9283 11.1048 27.9283C12.0085 27.8287 12.8119 27.9283 13.7156 27.9283ZM15.4228 33.2072C15.4228 32.012 15.4228 30.8167 15.4228 29.7211C14.2177 29.7211 13.1131 29.7211 11.9081 29.7211C11.9081 30.9163 11.9081 32.012 11.9081 33.2072C13.1131 33.2072 14.3182 33.2072 15.4228 33.2072Z" fill="#61697C"/>
<path d="M26.6693 15.0797C24.5605 15.0797 22.3513 15.0797 20.2426 15.0797C19.4392 15.0797 19.0375 14.3825 19.3388 13.7849C19.5396 13.3865 19.8409 13.2869 20.2426 13.2869C21.548 13.2869 22.9539 13.2869 24.2593 13.2869C27.1714 13.2869 30.0836 13.2869 32.9957 13.2869C33.5982 13.2869 33.9999 13.5857 33.9999 14.1833C33.9999 14.6813 33.5982 15.0797 33.0961 15.0797C31.6903 15.0797 30.2844 15.0797 28.7781 15.0797C28.0752 15.0797 27.3723 15.0797 26.6693 15.0797Z" fill="#61697C"/>
<path d="M26.569 32.3108C24.4602 32.3108 22.251 32.3108 20.1422 32.3108C19.6402 32.3108 19.3389 32.012 19.2385 31.6136C19.1381 31.2152 19.3389 30.8167 19.7406 30.6175C19.9414 30.5179 20.0418 30.5179 20.2427 30.5179C21.6485 30.5179 23.0544 30.5179 24.4602 30.5179C27.272 30.5179 30.0837 30.5179 32.8954 30.5179C33.0962 30.5179 33.2971 30.5179 33.3975 30.6175C33.7991 30.7171 34 31.2152 33.8996 31.6136C33.7991 32.012 33.4979 32.3108 32.9958 32.3108C31.5899 32.3108 30.0837 32.3108 28.6778 32.3108C28.0753 32.3108 27.272 32.3108 26.569 32.3108Z" fill="#61697C"/>
<path d="M26.6693 21.9522C28.7781 21.9522 30.9873 21.9522 33.0961 21.9522C33.5982 21.9522 33.8995 22.251 33.9999 22.6494C34.1003 23.0478 33.8995 23.4462 33.4978 23.6454C33.3974 23.745 33.1965 23.745 32.9957 23.745C29.2802 23.745 25.5647 23.745 21.9497 23.745C21.3472 23.745 20.7447 23.745 20.1421 23.745C19.7405 23.745 19.3388 23.4462 19.3388 23.0478C19.2384 22.6494 19.5396 22.251 19.9413 22.0518C20.0417 22.0518 20.2426 21.9522 20.343 21.9522C22.3514 21.9522 24.5606 21.9522 26.6693 21.9522Z" fill="#61697C"/>
<path d="M12.9121 15.4781C13.3138 15.0797 13.6151 14.6813 13.9163 14.1833C14.9205 12.8885 15.9247 11.6933 17.0293 10.3984C17.2301 10.0996 17.6318 9.90043 18.0335 10C18.636 10.0996 18.8368 10.7968 18.4351 11.2949C17.7322 12.2909 16.9289 13.1873 16.2259 14.0837C15.4226 15.0797 14.5188 16.1753 13.7155 17.1713C13.3138 17.6694 12.7113 17.769 12.2092 17.1713C11.5063 16.4741 10.9038 15.7769 10.3013 15.0797C9.89958 14.6813 9.89958 14.1833 10.3013 13.8845C10.6025 13.4861 11.205 13.5857 11.6067 13.9841C12.0084 14.4821 12.41 14.9801 12.9121 15.4781Z" fill="#61697C"/>
</g>
<defs>
<clipPath id="clip0_2601_8887">
<rect width="24" height="25" fill="white" transform="translate(10 10)"/>
</clipPath>
</defs>
</svg>
