<svg width="44" height="44" viewBox="0 0 44 44" fill="none" xmlns="http://www.w3.org/2000/svg">
<g clip-path="url(#clip0_2223_9563)">
<path d="M27.2514 21.153L28.7486 21.153C29.1362 21.153 29.4554 21.4839 29.4554 21.9035C29.4554 22.3151 29.1438 22.654 28.7486 22.654L27.2514 22.654C26.8638 22.654 26.5446 22.3232 26.5446 21.9035C26.5446 21.4839 26.8638 21.153 27.2514 21.153Z" fill="#F3F6FF"/>
<path d="M27.2514 24.3407L28.7486 24.3407C29.1362 24.3407 29.4554 24.6716 29.4554 25.0912C29.4554 25.5109 29.1438 25.8418 28.7486 25.8418L27.2514 25.8418C26.8638 25.8418 26.5446 25.5109 26.5446 25.0912C26.5446 24.6716 26.8638 24.3407 27.2514 24.3407Z" fill="#F3F6FF"/>
<path d="M27.2514 27.5204L28.7486 27.5204C29.1362 27.5204 29.4554 27.8512 29.4554 28.2709C29.4554 28.6905 29.1438 29.0214 28.7486 29.0214L27.2514 29.0214C26.8638 29.0214 26.5446 28.6905 26.5446 28.2709C26.5446 27.8512 26.8638 27.5204 27.2514 27.5204Z" fill="#F3F6FF"/>
<path d="M21.2476 21.153L22.7448 21.153C23.1323 21.153 23.4515 21.4839 23.4515 21.9035C23.4515 22.3151 23.1399 22.654 22.7448 22.654L21.2476 22.654C20.86 22.654 20.5408 22.3232 20.5408 21.9035C20.5484 21.4839 20.86 21.153 21.2476 21.153Z" fill="#F3F6FF"/>
<path d="M21.2476 24.3407L22.7448 24.3407C23.1323 24.3407 23.4515 24.6716 23.4515 25.0912C23.4515 25.5109 23.1399 25.8418 22.7448 25.8418L21.2476 25.8418C20.86 25.8418 20.5408 25.5109 20.5408 25.0912C20.5408 24.6716 20.86 24.3407 21.2476 24.3407Z" fill="#F3F6FF"/>
<path d="M21.2476 27.5204L22.7448 27.5204C23.1323 27.5204 23.4515 27.8512 23.4515 28.2709C23.4515 28.6905 23.1399 29.0214 22.7448 29.0214L21.2476 29.0214C20.86 29.0214 20.5408 28.6905 20.5408 28.2709C20.5408 27.8512 20.86 27.5204 21.2476 27.5204Z" fill="#F3F6FF"/>
<path d="M15.2438 21.153L16.7486 21.153C17.1362 21.153 17.4554 21.4839 17.4554 21.9035C17.4554 22.3151 17.1438 22.654 16.7486 22.654L15.2514 22.654C14.8638 22.654 14.5446 22.3232 14.5446 21.9035C14.5446 21.4839 14.8562 21.153 15.2438 21.153Z" fill="#F3F6FF"/>
<path d="M15.2438 24.3407L16.7486 24.3407C17.1362 24.3407 17.4554 24.6716 17.4554 25.0912C17.4554 25.5109 17.1438 25.8418 16.7486 25.8418L15.2514 25.8418C14.8638 25.8418 14.5446 25.5109 14.5446 25.0912C14.5446 24.6716 14.8562 24.3407 15.2438 24.3407Z" fill="#F3F6FF"/>
<path d="M15.2438 27.5204L16.7486 27.5204C17.1362 27.5204 17.4554 27.8512 17.4554 28.2709C17.4554 28.6905 17.1438 29.0214 16.7486 29.0214L15.2514 29.0214C14.8638 29.0214 14.5446 28.6905 14.5446 28.2709C14.5446 27.8512 14.8562 27.5204 15.2438 27.5204Z" fill="#F3F6FF"/>
<path d="M12.1051 11.9933L13.7923 11.9933L13.7923 10.7505C13.7923 10.3389 14.1039 10 14.4991 10C14.8866 10 15.2058 10.3309 15.2058 10.7505L15.2058 11.9933L21.3008 11.9933L21.3008 10.7505C21.3008 10.3389 21.6124 10 22.0076 10C22.4028 10 22.7144 10.3309 22.7144 10.7505L22.7144 11.9933L28.7942 11.9933L28.7942 10.7505C28.7942 10.3389 29.1058 10 29.501 10C29.8961 10 30.2001 10.3309 30.2001 10.7505L30.2001 11.9933L31.8873 11.9933C33.05 11.9933 34 12.994 34 14.2288L34 30.7565C34 31.9912 33.05 33 31.8873 33L12.1051 33C10.9424 33 9.9924 31.9912 9.9924 30.7565C9.9924 30.2723 9.9924 14.6484 9.9924 14.2288C10 12.994 10.9424 11.9933 12.1051 11.9933ZM32.594 14.2288C32.594 13.8172 32.2749 13.4782 31.8873 13.4782L30.2001 13.4782L30.2001 14.7211C30.2001 15.1326 29.8885 15.4716 29.4933 15.4716C29.0982 15.4716 28.7866 15.1407 28.7866 14.7211L28.7866 13.4863L22.6916 13.4863L22.6916 14.7291C22.6916 15.1407 22.38 15.4796 21.9848 15.4796C21.5896 15.4796 21.278 15.1488 21.278 14.7291L21.278 13.4863L15.183 13.4863L15.183 14.7291C15.183 15.1407 14.8714 15.4796 14.4763 15.4796C14.0887 15.4796 13.7695 15.1488 13.7695 14.7291L13.7695 13.4863L12.0823 13.4863C11.6947 13.4863 11.3756 13.8253 11.3756 14.2368L11.3756 17.1744L32.594 17.1744L32.594 14.2288ZM12.1051 31.507L31.8873 31.507C32.2749 31.507 32.594 31.1681 32.594 30.7565L32.594 18.6593L11.406 18.6593L11.406 30.7565C11.406 31.1681 11.7175 31.507 12.1051 31.507Z" fill="#F3F6FF"/>
</g>
<defs>
<clipPath id="clip0_2223_9563">
<rect width="24" height="23" fill="white" transform="matrix(-1 -8.74228e-08 -8.74228e-08 1 34 10)"/>
</clipPath>
</defs>
</svg>
