<svg width="44" height="44" viewBox="0 0 44 44" fill="none" xmlns="http://www.w3.org/2000/svg">
<g clip-path="url(#clip0_2223_9554)">
<path d="M20.8857 20.2268C23.9627 20.2268 26.4572 17.895 26.4572 15.0185C26.4572 12.142 23.9627 9.81018 20.8857 9.81018C17.8087 9.81018 15.3143 12.142 15.3143 15.0185C15.3143 17.895 17.8087 20.2268 20.8857 20.2268Z" stroke="#61697C" stroke-width="1.3" stroke-miterlimit="10"/>
<path d="M25.7143 21.1528C24.4762 20.5741 23.1143 20.3426 21.6286 20.3426H19.7714C14.819 20.3426 10.7333 23.6991 9.99047 28.0972C9.99047 28.0972 9.37142 30.6435 12.3429 30.6435H21.0095" stroke="#61697C" stroke-width="1.3" stroke-miterlimit="10" stroke-linecap="round" stroke-linejoin="round"/>
<path d="M28.6857 33.1898C31.6944 33.1898 34.1333 30.9098 34.1333 28.0972C34.1333 25.2847 31.6944 23.0046 28.6857 23.0046C25.6771 23.0046 23.2381 25.2847 23.2381 28.0972C23.2381 30.9098 25.6771 33.1898 28.6857 33.1898Z" stroke="#61697C" stroke-width="1.3" stroke-miterlimit="10"/>
<path d="M28.1905 26.0139V28.3287H31.2857" stroke="#61697C" stroke-width="1.3" stroke-miterlimit="10" stroke-linecap="round" stroke-linejoin="round"/>
</g>
<defs>
<clipPath id="clip0_2223_9554">
<rect width="26" height="25" fill="white" transform="translate(9 9)"/>
</clipPath>
</defs>
</svg>
