<svg width="44" height="44" viewBox="0 0 44 44" fill="none" xmlns="http://www.w3.org/2000/svg">
<path d="M28.2069 11.3714C31.3517 11.0527 33.5034 12.8055 33.5034 15.6736C33.5034 20.9318 33.5034 26.1901 33.5034 31.4483C33.5034 31.9263 33.5034 32.4044 33.5034 33.0417C33.3379 34.9538 31.5172 36.5472 29.3655 36.5472C24.4 36.5472 19.269 36.5472 14.3034 36.5472C11.8207 36.5472 10 34.7945 10 32.4044C10 26.6681 10 20.9318 10 15.3549C10 12.6461 12.4828 10.734 15.2966 11.3714C15.2966 11.8494 15.2966 12.3274 15.2966 12.6461C15.2966 12.8055 14.9655 12.9648 14.9655 12.9648C12.4828 13.2835 11.9862 13.7615 11.9862 16.1516C11.9862 21.2505 11.9862 26.3494 11.9862 31.4483C11.9862 31.767 11.9862 32.0857 11.9862 32.4044C12.1517 33.8384 12.9793 34.7945 14.469 34.7945C16.9517 34.7945 19.4345 34.7945 21.7517 34.7945C24.2345 34.7945 26.5517 34.7945 29.0345 34.7945C30.8552 34.7945 31.8483 33.8384 31.8483 32.0857C31.8483 26.6681 31.8483 21.4099 31.8483 15.9923C31.8483 13.7615 31.1862 13.1241 28.869 12.9648C28.5379 12.9648 28.3724 12.8055 28.3724 12.4868C28.2069 12.1681 28.2069 11.6901 28.2069 11.3714Z" fill="white"/>
<path d="M21.7516 13.4428C20.0964 13.4428 18.6068 13.4428 16.9516 13.4428C16.2895 13.4428 16.124 13.2835 16.124 12.6461V12.4868C16.124 10.734 16.124 10.734 17.7792 10.5747C18.6068 10.5747 19.1033 10.0967 19.5999 9.29996C20.262 8.18458 21.2551 7.70656 22.5792 8.18458C22.9102 8.34392 23.4068 8.6626 23.5723 8.98128C24.2344 10.0967 25.2275 10.734 26.5516 10.734C27.0482 10.734 27.2137 10.8934 27.2137 11.3714C27.2137 13.7615 27.3792 13.4428 25.2275 13.4428C24.5654 13.4428 24.0689 13.4428 23.4068 13.4428C22.9102 13.4428 22.2482 13.4428 21.7516 13.4428Z" fill="white"/>
<path d="M15.6689 18.8659L28.1689 18.8659" stroke="white" stroke-width="1.5" stroke-miterlimit="10" stroke-linecap="round" stroke-linejoin="round"/>
<path d="M15.6689 23.8659L28.1689 23.8659" stroke="white" stroke-width="1.5" stroke-miterlimit="10" stroke-linecap="round" stroke-linejoin="round"/>
<path d="M15.6689 28.8659L28.1689 28.8659" stroke="white" stroke-width="1.5" stroke-miterlimit="10" stroke-linecap="round" stroke-linejoin="round"/>
</svg>
