<svg width="44" height="44" viewBox="0 0 44 44" fill="none" xmlns="http://www.w3.org/2000/svg">
<path d="M9.13708 32C9.13708 31.4347 9.13708 31.4744 9.13708 30.9025C9.69244 30.9025 10.2443 30.9025 10.8137 30.9025C10.8137 26.9721 10.8137 23.0582 10.8137 19.1311C10.2127 19.1311 9.61511 19.1311 9 19.1311C9.0246 18.7476 9.04921 18.3807 9.07733 18.0171C9.15817 16.9758 9.23902 15.9378 9.32337 14.8999C9.39719 13.9743 9.47452 13.052 9.54482 12.1264C9.55185 12.0273 9.59402 11.9942 9.69244 12.0008C9.74165 12.0041 9.79086 12.0008 9.84007 12.0008C17.9455 12.0008 26.0545 12.0008 34.1599 12.0008C34.2443 12.0008 34.3286 12.0008 34.4235 12.0008C34.6169 14.3809 34.8067 16.7444 35 19.1245C34.6344 19.1245 34.2794 19.1278 33.9244 19.1245C33.7944 19.1245 33.6678 19.1146 33.5413 19.1047C33.246 19.0848 33.123 19.1906 33.123 19.4716C33.123 21.0285 33.123 22.5855 33.123 24.1425C33.123 26.2416 33.123 28.3406 33.123 30.4397C33.123 30.4926 33.123 30.5422 33.123 30.5951C33.1301 30.7901 33.232 30.8893 33.4464 30.8893C33.8436 30.8926 34.2443 30.8893 34.6415 30.8893C34.7083 30.8893 34.7715 30.8893 34.8489 30.8893C34.8489 31.4645 34.8489 31.4248 34.8489 31.9967C26.2794 32 17.717 32 9.13708 32ZM16.6169 24.5788C16.645 24.5358 16.6626 24.516 16.6731 24.4896C16.9438 23.8912 17.2214 23.2962 17.4851 22.6979C17.6257 22.3806 17.8506 22.169 18.2127 22.1062C19.1793 21.9442 20.1529 21.8417 21.1336 21.855C22.4446 21.8715 23.7522 21.931 25.0633 21.9707C25.8998 21.9938 26.4622 22.4004 26.7364 23.1409C26.9086 23.6003 27.1265 24.0433 27.3269 24.4929C27.3515 24.5491 27.3902 24.5953 27.4323 24.6615C27.471 24.5061 27.4956 24.3706 27.5343 24.2416C27.5729 24.116 27.6678 24.0135 27.8084 24.0235C28.1283 24.0466 28.4517 24.0797 28.768 24.1359C28.9227 24.1623 29.0141 24.2846 29.0316 24.4367C29.0527 24.592 28.9824 24.721 28.8418 24.7838C28.7047 24.8466 28.5466 24.8929 28.3954 24.9061C28.1494 24.9259 27.9033 24.9127 27.6538 24.9127C27.8858 25.5441 28.5677 25.9242 28.6134 26.6382C28.536 26.6382 28.4728 26.6382 28.406 26.6382C27.6995 26.6382 26.9965 26.6415 26.29 26.6349C25.9982 26.6316 25.7909 26.7407 25.6784 26.9919C25.5729 27.2299 25.4745 27.4713 25.3866 27.7159C25.2917 27.9803 25.362 28.0696 25.6608 28.0663C26.5571 28.0564 27.4499 28.0398 28.3462 28.0299C28.413 28.0299 28.4763 28.0299 28.5606 28.0299C28.5606 28.9819 28.5606 29.9141 28.5606 30.8529C29.355 30.8529 30.8313 30.8529 31.6081 30.8529C31.6081 26.9523 31.6081 23.0648 31.6081 19.184C25.6608 19.184 18.3216 19.184 12.3884 19.184C12.3884 23.0747 12.3884 26.9523 12.3884 30.8364C13.1863 30.8364 14.6731 30.8364 15.4675 30.8364C15.4218 29.9075 15.3796 28.9952 15.3339 28.0663C15.4077 28.0663 15.4745 28.0663 15.5413 28.0663C16.4657 28.0762 17.3902 28.0894 18.3181 28.096C18.6169 28.0993 18.6977 28.0035 18.6169 27.7324C18.5641 27.5506 18.4938 27.3721 18.4271 27.1936C18.2794 26.7936 17.9807 26.6184 17.5272 26.6283C16.8594 26.6448 16.1916 26.6448 15.5237 26.6482C15.3409 26.6482 15.2812 26.549 15.3796 26.4068C15.5132 26.2085 15.6538 26.0102 15.7909 25.8118C15.9807 25.5341 16.1705 25.2532 16.3743 24.9524C16.2689 24.9524 16.1951 24.9557 16.1248 24.9524C15.8436 24.9325 15.5624 24.9226 15.2847 24.8829C15.0703 24.8499 15.0281 24.7705 15.0316 24.5358C15.0351 24.2813 15.0844 24.1987 15.2917 24.1656C15.594 24.1193 15.8963 24.083 16.2021 24.0664C16.2724 24.0631 16.3743 24.1392 16.42 24.2053C16.4938 24.3078 16.5431 24.44 16.6169 24.5788ZM29.6573 14.7908C29.594 14.6552 29.5554 14.5462 29.4956 14.4503C28.6766 13.1875 26.7715 13.1082 25.8295 14.2982C25.6678 14.5032 25.4675 14.6024 25.1898 14.6024C23.0703 14.5924 20.9473 14.5858 18.8278 14.5858C18.5431 14.5858 18.3392 14.4867 18.1705 14.2784C17.4288 13.3727 16.0264 13.1908 15.0527 13.8751C14.7399 14.0966 14.5044 14.3776 14.3989 14.7676C14.4763 14.7709 14.5431 14.7809 14.6063 14.7809C14.993 14.7809 15.3796 14.7809 15.7663 14.7809C16.2443 14.7809 16.6169 15.1379 16.6028 15.5874C16.5888 16.0238 16.2021 16.3246 15.7873 16.3015C15.3199 16.275 14.8453 16.2949 14.3497 16.2949C14.3919 16.4006 14.4165 16.4899 14.4622 16.5692C15.2425 17.8915 17.1793 18.0369 18.1388 16.8337C18.3251 16.599 18.5395 16.5031 18.8383 16.5064C20.9789 16.5196 23.116 16.5262 25.2566 16.5329C25.4851 16.5329 25.6538 16.6188 25.7979 16.7775C25.8928 16.8833 25.9842 16.9923 26.0967 17.0816C26.8524 17.6998 27.696 17.8055 28.6063 17.432C29.1336 17.2138 29.4534 16.8138 29.6467 16.3048C29.1968 16.3048 28.768 16.2949 28.3427 16.3081C28.058 16.318 27.8049 16.275 27.6186 16.0568C27.4007 15.7957 27.348 15.5147 27.5026 15.2007C27.6538 14.8966 27.9069 14.7776 28.2548 14.7875C28.7012 14.7974 29.1547 14.7908 29.6573 14.7908ZM26.5888 24.8829C26.3673 24.2945 26.1424 23.726 25.942 23.1475C25.7768 22.6781 25.5659 22.5029 25.0422 22.4929C23.5659 22.4698 22.0896 22.4434 20.6134 22.4401C19.9947 22.4401 19.3761 22.4863 18.761 22.526C18.4903 22.5425 18.2548 22.6252 18.174 22.926C18.1142 23.1409 17.9947 23.3392 17.9104 23.5508C17.7311 23.9871 17.5589 24.4268 17.3761 24.8862C20.4657 24.8829 23.5272 24.8829 26.5888 24.8829ZM26.5923 30.8562C26.5606 30.6513 26.5149 30.4662 26.5114 30.2778C26.5079 30.0761 26.4165 30.0398 26.2197 30.0398C23.5062 30.0497 20.7926 30.053 18.0791 30.0563C17.5589 30.0563 17.5097 30.0959 17.4288 30.572C17.4288 30.5786 17.4253 30.5819 17.4253 30.5885C17.3902 30.81 17.4288 30.8496 17.6714 30.8496C20.5747 30.8496 23.4815 30.8496 26.3849 30.8496C26.4411 30.8562 26.5009 30.8562 26.5923 30.8562Z" fill="#F3F6FF"/>
</svg>
