<svg width="44" height="44" viewBox="0 0 44 44" fill="none" xmlns="http://www.w3.org/2000/svg">
<g clip-path="url(#clip0_2601_8399)">
<path d="M28.3998 18.1C28.2998 18.2 28.1998 18.2 28.0998 18.2C27.3998 18.7 26.6998 18.6 25.8998 18.2C25.7998 18.1 25.6998 18.1 25.5998 18.1C25.1998 18.1 24.7998 18.1 24.3998 18.3C23.8998 18.6 23.2998 18.5 22.6998 18.3C22.5998 18.2 22.3998 18.2 22.1998 18.2C21.9998 18.2 21.7998 18.2 21.5998 18.2C21.3998 18.2 21.1998 18.3 20.9998 18.3C20.4998 18.5 19.9998 18.5 19.3998 18.3C19.0998 18.2 18.6998 18.2 18.2998 18.3C18.1998 18.3 18.0998 18.6 18.0998 18.7C18.0998 18.9 18.1998 19 18.3998 19.1C19.2998 19.7 19.9998 20.5 20.5998 21.4C20.6998 21.5 20.6998 21.6 20.7998 21.7C20.8998 21.9 20.8998 22.1 20.6998 22.2C20.4998 22.3 20.3998 22.2 20.2998 22C19.9998 21.6 19.7998 21.2 19.3998 20.8C18.9998 20.4 18.4998 19.9 17.9998 19.6C17.2998 19 17.1998 18.1 17.9998 17.6C18.9998 16.9 19.8998 16.3 20.8998 15.6C21.3998 15.2 21.5998 14.6 21.4998 14C21.2998 13.4 20.7998 13 20.1998 13C19.8998 13 19.5998 13.1 19.3998 13.3C17.5998 14.5 15.8998 15.8 14.0998 17C13.5998 17.4 13.3998 17.9 13.4998 18.5C13.7998 19.8 14.0998 21.1 14.3998 22.4C14.5998 23.3 15.1998 24 15.8998 24.5C16.6998 25.1 17.4998 25.5 18.4998 25.8H18.5998C18.9998 26 18.9998 26.1 18.9998 26.3C18.8998 26.5 18.7998 26.6 18.5998 26.5C18.2998 26.4 18.0998 26.3 17.7998 26.2C17.6998 26.2 17.5998 26.1 17.4998 26.1C17.4998 26.2 17.4998 26.3 17.4998 26.4C17.4998 28.6 17.4998 30.8 17.4998 33C17.4998 33.1 17.4998 33.2 17.4998 33.3C17.3998 33.4 17.2998 33.5 17.1998 33.5C17.0998 33.5 16.9998 33.4 16.8998 33.3C16.8998 33.2 16.8998 33.1 16.8998 33.1C16.8998 30.8 16.8998 28.4 16.8998 26.1C16.8998 25.9 16.7998 25.8 16.6998 25.7C16.1998 25.3 15.5998 24.9 15.0998 24.5C14.4998 24 14.1998 23.4 14.0998 22.7C13.7998 21.4 13.4998 20 13.1998 18.7V18.6C12.2998 18.6 11.4998 18.8 10.7998 19.3C10.1998 19.7 9.5998 20 8.8998 20.2C6.7998 20.7 4.4998 19.6 3.4998 17.6C3.3998 17.5 3.3998 17.3 3.4998 17.2C3.5998 16.9 3.6998 17 3.8998 17C4.4998 17.2 5.1998 17.3 5.7998 17.5C6.2998 17.6 6.6998 17.5 7.0998 17.2C7.4998 16.8 7.7998 16.5 8.1998 16.1C8.4998 15.8 8.5998 15.4 8.4998 14.9C8.3998 14.4 8.1998 13.9 8.0998 13.4C7.9998 13 7.6998 12.7 7.1998 12.6C6.4998 12.4 5.6998 12.2 4.9998 12C4.8998 12 4.6998 11.8 4.6998 11.8C4.6998 11.7 4.7998 11.5 4.8998 11.4C6.7998 10 9.4998 10.1 11.1998 11.8C12.0998 12.7 13.1998 13.1 14.3998 13.1C14.5998 13.1 14.7998 13.1 14.8998 13.1C14.9998 13 14.9998 12.8 14.9998 12.6C15.1998 11.8 15.6998 11.3 16.3998 11.1C17.1998 10.9 17.8998 11.1 18.3998 11.7C18.4998 11.8 18.4998 11.8 18.5998 11.9C18.9998 11.3 19.5998 11 20.3998 11C21.1998 11 21.6998 11.4 22.0998 12.1C22.5998 11.6 23.1998 11.3 23.8998 11.4C24.5998 11.5 25.0998 11.9 25.4998 12.5C25.5998 12.4 25.6998 12.3 25.7998 12.2C26.6998 11.4 27.9998 11.6 28.6998 12.5C28.7998 12.7 28.8998 12.7 29.0998 12.7C29.9998 12.7 30.6998 12.4 31.3998 11.9C33.7998 10.2 37.0998 11 38.4998 13.5C38.4998 13.6 38.5998 13.6 38.5998 13.7C38.5998 13.8 38.5998 14 38.5998 14.1C38.4998 14.2 38.3998 14.2 38.2998 14.2C37.5998 14 36.8998 13.9 36.2998 13.7C35.7998 13.6 35.3998 13.7 34.9998 14C34.6998 14.4 34.2998 14.7 33.9998 15C33.6998 15.3 33.4998 15.7 33.6998 16.2C33.7998 16.7 33.9998 17.2 34.0998 17.7C34.1998 18.2 34.4998 18.4 34.9998 18.6C35.6998 18.8 36.4998 19 37.1998 19.2C37.2998 19.2 37.4998 19.4 37.4998 19.5C37.4998 19.6 37.3998 19.8 37.2998 19.8C35.3998 21.3 32.5998 21.1 30.8998 19.3C30.4998 18.9 29.9998 18.6 29.4998 18.4C29.3998 18.4 29.2998 18.3 29.1998 18.3C29.1998 18.7 29.1998 19.2 29.0998 19.6C28.8998 21.3 28.1998 22.8 27.0998 24.1C26.9998 24.3 26.8998 24.4 26.8998 24.7C26.8998 27.5 26.8998 30.3 26.8998 33.2C26.8998 33.3 26.8998 33.4 26.8998 33.4C26.8998 33.6 26.7998 33.7 26.5998 33.7C26.3998 33.7 26.2998 33.6 26.2998 33.4V33.3C26.2998 30.4 26.2998 27.6 26.2998 24.7C26.2998 24.4 26.3998 24.1 26.5998 23.8C27.8998 22.3 28.5998 20.5 28.4998 18.5C28.4998 18.3 28.4998 18.2 28.3998 18.1ZM5.6998 11.5C5.7998 11.5 5.8998 11.6 5.8998 11.6C6.3998 11.7 6.8998 11.9 7.2998 12C7.9998 12.2 8.4998 12.6 8.6998 13.3C8.7998 13.8 8.9998 14.3 9.0998 14.8C9.2998 15.5 9.0998 16 8.5998 16.5C8.1998 16.9 7.8998 17.3 7.4998 17.6C6.9998 18.1 6.3998 18.3 5.6998 18.1C5.2998 18 4.9998 17.9 4.5998 17.8C4.4998 17.8 4.3998 17.8 4.2998 17.7C4.3998 17.9 4.3998 17.9 4.4998 18C5.8998 19.8 8.3998 20.1 10.2998 18.8C11.0998 18.2 11.9998 17.9 12.9998 17.9C13.0998 17.9 13.1998 17.9 13.1998 17.7C13.2998 17.2 13.5998 16.9 13.9998 16.6C14.2998 16.4 14.5998 16.2 14.8998 16C14.9998 15.9 14.9998 15.8 14.9998 15.8C14.9998 15.1 14.9998 14.5 14.9998 13.8C14.9998 13.7 14.9998 13.7 14.9998 13.6C14.7998 13.6 14.4998 13.6 14.2998 13.6C12.9998 13.6 11.7998 13.2 10.7998 12.2C9.7998 11.2 8.5998 10.8 7.0998 11C6.6998 11.1 6.1998 11.2 5.6998 11.5ZM37.6998 13.4C37.6998 13.3 37.6998 13.3 37.6998 13.4C37.6998 13.3 37.5998 13.2 37.5998 13.1C36.0998 11.3 33.6998 11 31.7998 12.3C31.0998 12.8 30.1998 13.1 29.2998 13.1C29.1998 13.1 29.0998 13.1 29.0998 13.1C29.0998 13.3 29.0998 13.5 29.0998 13.7C29.0998 14.9 29.0998 16.1 29.0998 17.3C29.0998 17.5 29.0998 17.6 29.2998 17.6C29.9998 17.8 30.6998 18.2 31.1998 18.8C32.2998 19.9 33.5998 20.3 35.1998 20C35.5998 19.9 35.9998 19.7 36.3998 19.6V19.5C36.2998 19.5 36.1998 19.4 36.0998 19.4C35.6998 19.3 35.1998 19.2 34.7998 19C34.0998 18.8 33.6998 18.4 33.4998 17.7C33.3998 17.2 33.1998 16.7 33.0998 16.2C32.8998 15.5 33.0998 14.9 33.5998 14.4C33.8998 14.1 34.2998 13.7 34.5998 13.4C35.0998 13 35.6998 12.8 36.3998 13C36.7998 13.1 37.2998 13.3 37.6998 13.4ZM22.3998 14.9C22.3998 15.4 22.3998 16 22.3998 16.5C22.3998 17.3 22.9998 18 23.7998 17.9C24.5998 17.9 25.1998 17.3 25.1998 16.5C25.1998 15.4 25.1998 14.3 25.1998 13.2C25.1998 13.1 25.1998 12.9 25.1998 12.8C24.9998 12.2 24.3998 11.7 23.6998 11.8C22.9998 11.9 22.4998 12.4 22.4998 13.1C22.3998 13.7 22.3998 14.3 22.3998 14.9ZM28.4998 15.1C28.4998 14.6 28.4998 14.1 28.4998 13.6C28.4998 12.8 27.8998 12.2 27.1998 12.2C26.4998 12.2 25.7998 12.8 25.7998 13.5C25.7998 14.6 25.7998 15.6 25.7998 16.7C25.7998 17.5 26.4998 18 27.1998 18C27.8998 18 28.4998 17.4 28.4998 16.6C28.4998 16.1 28.4998 15.6 28.4998 15.1ZM15.6998 15.4C15.7998 15.3 15.8998 15.3 15.9998 15.2C16.5998 14.7 17.2998 14.3 17.8998 13.8C18.4998 13.4 18.4998 13.4 18.3998 12.7C18.3998 12 17.8998 11.5 17.1998 11.4C16.5998 11.3 15.9998 11.7 15.7998 12.3C15.7998 12.4 15.6998 12.5 15.6998 12.6C15.6998 13.6 15.6998 14.5 15.6998 15.4ZM21.6998 13.1C21.7998 12.5 21.4998 12 21.0998 11.7C20.5998 11.4 19.9998 11.4 19.5998 11.8C19.1998 12.1 18.9998 12.6 19.0998 13.1C19.8998 12.4 20.7998 12.4 21.6998 13.1ZM21.6998 16C20.8998 16.5 20.1998 17.1 19.4998 17.6C19.7998 17.9 20.1998 18 20.5998 17.9C21.4998 17.8 21.8998 17 21.6998 16Z" fill="#61697C" stroke="#61697C" stroke-miterlimit="10"/>
</g>
<defs>
<clipPath id="clip0_2601_8399">
<rect width="36.1" height="24" fill="white" transform="translate(3 10)"/>
</clipPath>
</defs>
</svg>
