<svg width="25" height="18" viewBox="0 0 25 18" fill="none" xmlns="http://www.w3.org/2000/svg">
    <g clip-path="url(#duyurors2a)" fill="currentColor">
        <path d="M24.206 17.004c-.052-.054-.127-.06-.196-.06-.6.003-1.209.003-1.797.003h-1.318V0H9.94v3.296H3.366l-.003.08c0 .02-.003.04-.003.057-.003.037-.005.068-.005.102v7.429c0 2.194 0 4.025.002 5.92 0 .043-.005.054-.005.054-.003 0-.012.006-.05.006H3.3c-.43-.006-.868-.006-1.29-.006H.205c-.04-.002-.104-.005-.153.037a.162.162 0 0 0-.05.126v.897h24.259v-.308a7.05 7.05 0 0 1 .006-.498c-.003-.06-.009-.134-.06-.188zM11.062 12.85v-.242c0-.586 0-1.173-.003-1.762 0-.745-.003-1.491-.003-2.237 0-.766 0-1.531.003-2.3l.003-1.656V1.153c0-.043 0-.086.003-.108.023-.003.066-.003.104-.003.467 0 .934 0 1.401.003l2.596.002c.863 0 1.725 0 2.588-.002.62 0 1.243 0 1.863-.003.052 0 .104.003.159.005v15.891h-3.62c-.43 0-.86 0-1.29-.002-.53 0-1.061-.003-1.595-.003h-.132c-.658 0-1.336 0-2.002.005-.058 0-.072-.008-.072-.008s-.012-.012-.009-.074c.009-1.33.009-2.69.006-4.005zM9.946 6.973V16.614c0 .1 0 .202.002.302v.028c-.005.003-.017.003-.04.003-.69-.003-1.428-.003-2.394-.003h-.355c-.862 0-1.71 0-2.555.003h-.015c-.046 0-.092 0-.112-.003-.003-.023-.003-.074-.003-.125V4.386h1.785c1.191 0 2.423 0 3.635-.003.031 0 .046.003.049.006.003.006.005.02.005.06-.002.84-.002 1.696-.002 2.524z"/>
        <path d="M14.843 13.104c-.014-.005-.031-.014-.057-.014h-.727c-.485 0-.967 0-1.451-.003h-.003c-.064 0-.113.017-.144.049-.046.045-.052.108-.052.156.003.612.003 1.327-.003 2.033 0 .056.006.128.058.179.051.051.124.057.181.057h.006c.476-.003.96-.003 1.43-.003h.618a.957.957 0 0 0 .092-.006c.015 0 .026-.003.04-.003l.082-.005v-2.411l-.055-.023a.023.023 0 0 1-.015-.006zM12.654 8.53h.006c.476-.002.96-.002 1.428-.002h.588c.035 0 .066-.003.1-.006.018 0 .033-.003.053-.003l.08-.003V6.08l-.069-.015c-.008-.002-.017-.002-.026-.005-.017-.003-.031-.009-.049-.009h-.64c-.493 0-1.004 0-1.508-.003h-.003c-.067 0-.119.017-.153.052-.055.054-.052.125-.052.185v.358c0 .538.003 1.093-.003 1.637 0 .06.006.137.058.188.054.054.124.062.19.062zM18.423 6.262c0-.046-.006-.114-.055-.162-.049-.049-.115-.054-.167-.052-.245.003-.496.003-.739.003h-.568c-.242 0-.493 0-.738-.003-.058 0-.133.006-.185.057-.052.052-.058.123-.058.174.003.606.003 1.252 0 2.032 0 .051.006.117.055.165.05.049.116.054.162.054h.003c.637-.002 1.315-.002 2.073 0 .052 0 .119-.005.165-.05.046-.046.052-.109.052-.155a244.73 244.73 0 0 1 0-2.063zM12.651 12.046h.006c.47-.003.949-.003 1.41-.003h.606c.038 0 .075-.003.11-.006.014 0 .031-.003.049-.003l.08-.006v-2.43l-.069-.015c-.008-.002-.017-.002-.026-.005-.017-.003-.031-.009-.049-.009h-.649c-.49 0-.998 0-1.497-.003-.069 0-.12.017-.155.054-.05.049-.055.117-.055.174.003.658.005 1.335-.003 2.004 0 .06.006.136.057.188.052.051.122.06.185.06zM12.409 4.779c0 .051.006.122.057.174.05.045.113.054.174.054h.011c.188-.003.378-.003.563-.003H14.904l.006-.08.002-.051c.003-.031.006-.057.006-.086V4.21c0-.467 0-.951.003-1.426 0-.069-.006-.143-.06-.197-.055-.054-.133-.06-.194-.06-.62.006-1.275.006-2.002 0-.06 0-.14.006-.196.06-.054.054-.063.131-.06.2.006.657.006 1.326 0 1.992zM16.147 15.564h.006c.507-.003 1.02-.003 1.52-.003h.729l.006-.08c.003-.023.003-.043.006-.063.003-.04.006-.076.006-.113v-.63c0-.455-.003-.927 0-1.389 0-.042-.006-.105-.052-.15-.046-.046-.107-.052-.164-.052-.713.003-1.41.003-2.077 0-.052 0-.116.006-.162.052-.046.045-.052.11-.052.153.003.8.003 1.452-.002 2.05 0 .048.005.12.054.168.05.048.119.057.182.057zM15.968 11.992c.046.045.11.053.165.053h.008c.286-.002.58-.002.86-.002h1.387l.015-.069a.227.227 0 0 1 .008-.03.161.161 0 0 0 .009-.052v-.652c0-.487 0-.988.003-1.48 0-.06-.015-.108-.05-.14-.048-.048-.117-.048-.167-.048h-.049c-.663 0-1.35.003-2.024 0-.05 0-.116.006-.165.054-.049.049-.055.114-.055.165.003.76.003 1.423 0 2.032 0 .052.006.12.055.168zM15.968 4.953c.055.054.136.054.194.054.248-.003.501-.003.747-.003h.562c.236 0 .482 0 .724.003h.011c.058 0 .119-.009.165-.054.049-.049.055-.12.055-.168-.006-.743-.006-1.398 0-2.004 0-.063-.006-.14-.06-.194-.056-.054-.136-.06-.2-.06-.594.006-1.232.006-2.002 0-.06 0-.135.006-.19.06-.052.054-.058.128-.058.18.006.734.006 1.394 0 2.018-.005.076.015.13.052.168zM8.24 13.084c-.466.006-.942.003-1.401.003H6v2.434l.057.02.015.005a.116.116 0 0 0 .052.012h.643c.496 0 1.012 0 1.517.003h.003a.2.2 0 0 0 .147-.052c.055-.05.055-.128.055-.17v-.427c0-.515.003-1.05.006-1.577 0-.06-.006-.137-.06-.19-.059-.055-.14-.06-.194-.06zM6.089 8.513a.194.194 0 0 0 .06.009h.676c.478 0 .972 0 1.46.003h.002c.066 0 .115-.017.15-.052.055-.054.055-.128.055-.182v-.31c0-.555 0-1.13.003-1.696 0-.052-.006-.126-.06-.18-.056-.054-.13-.06-.191-.06a105.2 105.2 0 0 1-1.342 0H6v2.446l.07.014c.008.005.014.008.02.008zM6.077 12.026c.015.005.03.011.05.011h.654c.494 0 1.004 0 1.506.003h.003c.063 0 .112-.017.147-.051.046-.046.052-.109.052-.157 0-.686-.003-1.358 0-2.032 0-.049-.006-.12-.058-.174-.052-.051-.124-.057-.184-.057-.456.003-.92.003-1.368 0H5.997v2.434l.06.017c.009.003.015.006.02.006z"/>
    </g>
    <defs>
        <clipPath id="duyurors2a">
            <path fill="currentColor" d="M0 0h24.261v18H0z"/>
        </clipPath>
    </defs>
</svg>
