<svg width="16" height="16" viewBox="0 0 16 16" fill="none" xmlns="http://www.w3.org/2000/svg">
    <path d="m13.841 11.165-.003-.002a2.794 2.794 0 0 0-.883-.302 17.108 17.108 0 0 0-.677-.228c-.538-.166-1.096-.288-1.602-.524-.994-.465-1.11-.974-.667-1.97l.196-.443.02-.042c.412-.755.71-1.543.876-2.359l.014-.053c.287-1.05.323-2.15-.105-3.199C10.46.695 9.295-.008 7.69.001L7.657 0l-.032.001c-1.604-.01-2.77.694-3.32 2.042-.428 1.049-.392 2.148-.106 3.199l.015.053c.165.816.464 1.605.876 2.359l.021.042.195.443c.442.996.327 1.504-.668 1.97-.505.236-1.064.358-1.602.524-.257.08-.531.159-.8.242-.25.05-.488.134-.71.244l-.02.007v.001A2.735 2.735 0 0 0 0 13.561V16h15.273v-2.439a2.729 2.729 0 0 0-1.432-2.396z" fill="currentColor"/>
</svg>
