<svg width="44" height="44" viewBox="0 0 44 44" fill="none" xmlns="http://www.w3.org/2000/svg">
<g clip-path="url(#clip0_3653_10081)">
<path d="M13.4462 16.9661C14.8056 16.9661 15.9077 15.8532 15.9077 14.4803C15.9077 13.1073 14.8056 11.9944 13.4462 11.9944C12.0867 11.9944 10.9846 13.1073 10.9846 14.4803C10.9846 15.8532 12.0867 16.9661 13.4462 16.9661Z" stroke="white" stroke-width="1.7" stroke-miterlimit="10"/>
<path d="M30.6769 19.7005C32.0363 19.7005 33.1384 18.5875 33.1384 17.2146C33.1384 15.8417 32.0363 14.7288 30.6769 14.7288C29.3174 14.7288 28.2153 15.8417 28.2153 17.2146C28.2153 18.5875 29.3174 19.7005 30.6769 19.7005Z" stroke="white" stroke-width="1.7" stroke-miterlimit="10"/>
<path d="M13.8153 30.017C15.1068 30.017 16.1537 28.9597 16.1537 27.6554C16.1537 26.3511 15.1068 25.2938 13.8153 25.2938C12.5238 25.2938 11.4768 26.3511 11.4768 27.6554C11.4768 28.9597 12.5238 30.017 13.8153 30.017Z" stroke="white" stroke-width="1.7" stroke-miterlimit="10"/>
<path d="M26.2462 32.0057C27.6057 32.0057 28.7077 30.8927 28.7077 29.5198C28.7077 28.1469 27.6057 27.0339 26.2462 27.0339C24.8867 27.0339 23.7847 28.1469 23.7847 29.5198C23.7847 30.8927 24.8867 32.0057 26.2462 32.0057Z" stroke="white" stroke-width="1.7" stroke-miterlimit="10"/>
<path d="M15.0461 26.2882C15.0461 26.2882 17.8769 18.4576 28.4615 18.7062" stroke="white" stroke-width="1.7" stroke-miterlimit="10"/>
<path d="M15.6616 16.2203C15.6616 16.2203 23.9078 17.4633 25.6309 28.1525" stroke="white" stroke-width="1.7" stroke-miterlimit="10"/>
</g>
<defs>
<clipPath id="clip0_3653_10081">
<rect width="24" height="22" fill="white" transform="translate(10 11)"/>
</clipPath>
</defs>
</svg>
