<svg width="44" height="44" viewBox="0 0 44 44" fill="none" xmlns="http://www.w3.org/2000/svg">
<g clip-path="url(#clip0_3026_9805)">
<path d="M26.9035 13.7802C29.2621 13.5275 30.8759 14.9176 30.8759 17.1923C30.8759 21.3627 30.8759 25.533 30.8759 29.7033C30.8759 30.0824 30.8759 30.4616 30.8759 30.9671C30.7517 32.4835 29.3862 33.7473 27.7724 33.7473C24.0483 33.7473 20.2 33.7473 16.4759 33.7473C14.6138 33.7473 13.2483 32.3572 13.2483 30.4616C13.2483 25.9121 13.2483 21.3627 13.2483 16.9396C13.2483 14.7912 15.1104 13.2747 17.2207 13.7802C17.2207 14.1594 17.2207 14.5385 17.2207 14.7912C17.2207 14.9176 16.9724 15.044 16.9724 15.044C15.1104 15.2967 14.7379 15.6758 14.7379 17.5715C14.7379 21.6154 14.7379 25.6594 14.7379 29.7033C14.7379 29.9561 14.7379 30.2088 14.7379 30.4616C14.8621 31.5989 15.4828 32.3572 16.6 32.3572C18.4621 32.3572 20.3242 32.3572 22.0621 32.3572C23.9242 32.3572 25.6621 32.3572 27.5242 32.3572C28.8897 32.3572 29.6345 31.5989 29.6345 30.2088C29.6345 25.9121 29.6345 21.7418 29.6345 17.4451C29.6345 15.6758 29.1379 15.1704 27.4 15.044C27.1517 15.044 27.0276 14.9176 27.0276 14.6649C26.9035 14.4121 26.9035 14.033 26.9035 13.7802Z" fill="white"/>
<path d="M22.0621 15.4231C20.8207 15.4231 19.7035 15.4231 18.4621 15.4231C17.9656 15.4231 17.8414 15.2967 17.8414 14.7912V14.6649C17.8414 13.2748 17.8414 13.2748 19.0828 13.1484C19.7035 13.1484 20.0759 12.7693 20.4483 12.1374C20.9449 11.2528 21.6897 10.8737 22.6828 11.2528C22.9311 11.3791 23.3035 11.6319 23.4276 11.8846C23.9242 12.7693 24.669 13.2748 25.6621 13.2748C26.0345 13.2748 26.1587 13.4011 26.1587 13.7802C26.1587 15.6759 26.2828 15.4231 24.669 15.4231C24.1725 15.4231 23.8001 15.4231 23.3035 15.4231C22.9311 15.4231 22.4345 15.4231 22.0621 15.4231Z" fill="white"/>
<path d="M17.3448 20.8571L18.5862 22.1209L20.6966 19.9725" stroke="white" stroke-width="1.3" stroke-miterlimit="10" stroke-linecap="round" stroke-linejoin="round"/>
<path d="M23.1793 20.9835H27.1517" stroke="white" stroke-width="1.3" stroke-miterlimit="10" stroke-linecap="round" stroke-linejoin="round"/>
<path d="M17.3448 26.544L18.5862 27.8077L20.6966 25.6594" stroke="white" stroke-width="1.3" stroke-miterlimit="10" stroke-linecap="round" stroke-linejoin="round"/>
<path d="M23.1793 27.0494H27.1517" stroke="white" stroke-width="1.3" stroke-miterlimit="10" stroke-linecap="round" stroke-linejoin="round"/>
</g>
<defs>
<clipPath id="clip0_3026_9805">
<rect width="18" height="23" fill="white" transform="translate(13 11)"/>
</clipPath>
</defs>
</svg>
