<svg width="44" height="44" viewBox="0 0 44 44" fill="none" xmlns="http://www.w3.org/2000/svg">
<path d="M28.3048 31.6442H13.6955C12.6059 31.6442 11.719 30.7564 11.719 29.6656V19.2557C11.719 18.8755 12.0266 18.5675 12.4065 18.5675C12.7863 18.5675 13.094 18.8755 13.094 19.2557V29.6656C13.094 29.9977 13.3638 30.2678 13.6955 30.2678H28.3048C28.6365 30.2678 28.9063 29.9977 28.9063 29.6656V19.2557C28.9063 18.8755 29.214 18.5675 29.5938 18.5675C29.9737 18.5675 30.2813 18.8755 30.2813 19.2557V29.6656C30.2813 30.7569 29.3949 31.6442 28.3048 31.6442Z" fill="#315188"/>
<path d="M31.3126 21.6644C31.1369 21.6644 30.9607 21.5973 30.8266 21.4627L22.2764 12.9036C21.5726 12.1991 20.4279 12.1991 19.7241 12.9036L11.1738 21.4627C10.9052 21.7315 10.47 21.7315 10.2014 21.4627C9.93286 21.1939 9.93286 20.7582 10.2014 20.4893L18.7517 11.9307C19.9913 10.6898 22.0087 10.6898 23.2483 11.9307L31.7986 20.4898C32.0671 20.7586 32.0671 21.1943 31.7986 21.4631C31.6645 21.5973 31.4884 21.6644 31.3126 21.6644Z" fill="#315188"/>
<path d="M23.7502 31.6442H18.2502C17.8704 31.6442 17.5627 31.3362 17.5627 30.956V24.8482C17.5627 23.6623 18.5265 22.6976 19.7112 22.6976H22.2893C23.4739 22.6976 24.4377 23.6623 24.4377 24.8482V30.956C24.4377 31.3362 24.13 31.6442 23.7502 31.6442ZM18.9377 30.2678H23.0627V24.8482C23.0627 24.4211 22.7155 24.074 22.2893 24.074H19.7112C19.2849 24.074 18.9377 24.4211 18.9377 24.8482V30.2678Z" fill="#315188"/>
</svg>
