<svg width="44" height="44" viewBox="0 0 44 44" fill="none" xmlns="http://www.w3.org/2000/svg">
<g clip-path="url(#clip0_3026_9608)">
<mask id="mask0_3026_9608" style="mask-type:luminance" maskUnits="userSpaceOnUse" x="10" y="12" width="24" height="20">
<path d="M33.8899 12H10V32H33.8899V12Z" fill="white"/>
</mask>
<g mask="url(#mask0_3026_9608)">
<path d="M11.5413 18.1364C14.9541 18.1364 18.367 18.1364 21.7798 18.1364C21.7798 17.9091 21.7798 17.6818 21.7798 17.5682C21.7798 15.8636 21.7798 14.1591 21.7798 12.5682C21.7798 12.2273 21.7798 12.1136 22.1101 12.1136C25.4129 12 28.7156 12 32.0184 12C32.1285 12 32.2385 12 32.3486 12C32.3486 18.0227 32.3486 24.1591 32.3486 30.2955C32.8991 30.2955 33.4496 30.2955 34 30.2955C34 30.8636 34 31.4318 34 31.8864C25.9633 31.8864 18.1468 31.8864 10.1101 31.8864C10.1101 31.4318 10.1101 30.8636 10.1101 30.2955C10.5505 30.2955 11.1009 30.2955 11.6514 30.2955C11.5413 26.3182 11.5413 22.3409 11.5413 18.1364ZM18.367 26.2045C17.3762 26.2045 16.3853 26.2045 15.5046 26.2045C15.5046 27.5682 15.5046 28.9318 15.5046 30.4091C16.4954 30.4091 17.4863 30.4091 18.367 30.4091C18.367 28.9318 18.367 27.4545 18.367 26.2045ZM28.4954 30.4091C28.4954 29.0455 28.4954 27.6818 28.4954 26.2045C27.5046 26.2045 26.5138 26.2045 25.633 26.2045C25.633 27.5682 25.633 28.9318 25.633 30.4091C26.6239 30.4091 27.6147 30.4091 28.4954 30.4091ZM28.9358 16.4318C28.9358 17.1136 28.9358 17.7955 28.9358 18.7045C29.5963 18.7045 30.2569 18.7045 30.9174 18.7045C30.9174 18.0227 30.9174 17.3409 30.9174 16.4318C30.2569 16.4318 29.5963 16.4318 28.9358 16.4318ZM28.8257 22.1136C28.8257 22.7955 28.8257 23.4773 28.8257 24.2727C29.4863 24.2727 30.1468 24.2727 30.9174 24.2727C30.9174 23.5909 30.9174 22.9091 30.9174 22.1136C30.2569 22.1136 29.5963 22.1136 28.8257 22.1136ZM25.4129 18.5909C25.4129 17.9091 25.4129 17.2273 25.4129 16.6591C25.4129 16.5455 25.1927 16.3182 25.1927 16.3182C24.6422 16.3182 23.9817 16.3182 23.4312 16.3182C23.4312 17.1136 23.4312 17.7955 23.4312 18.5909C23.9817 18.5909 24.6422 18.5909 25.4129 18.5909ZM28.1652 16.4318C27.5046 16.4318 26.8441 16.4318 26.0734 16.4318C26.0734 17.1136 26.0734 17.7955 26.0734 18.3636C26.0734 18.4773 26.1835 18.7045 26.2936 18.7045C26.9541 18.7045 27.5046 18.7045 28.2752 18.7045C28.1652 17.9091 28.1652 17.2273 28.1652 16.4318ZM25.3028 22.1136C24.6422 22.1136 24.0918 22.1136 23.5413 22.1136C23.4312 22.1136 23.211 22.3409 23.211 22.4545C23.211 23.0227 23.211 23.7045 23.211 24.3864C23.9817 24.3864 24.6422 24.3864 25.3028 24.3864C25.3028 23.5909 25.3028 22.7955 25.3028 22.1136ZM25.9633 24.3864C26.734 24.3864 27.3945 24.3864 28.0551 24.3864C28.0551 23.7045 28.0551 23.0227 28.0551 22.1136C27.5046 22.1136 26.8441 22.1136 26.2936 22.1136C26.1835 22.1136 25.9633 22.3409 25.9633 22.4545C25.9633 23.0227 25.9633 23.5909 25.9633 24.3864ZM25.3028 15.75C25.3028 14.9545 25.3028 14.2727 25.3028 13.5909C24.6422 13.5909 23.9817 13.5909 23.3211 13.5909C23.3211 14.2727 23.3211 14.9545 23.3211 15.75C23.9817 15.75 24.6422 15.75 25.3028 15.75ZM26.1835 15.75C26.9541 15.75 27.6147 15.75 28.1652 15.75C28.1652 15.0682 28.1652 14.3864 28.1652 13.5909C27.5046 13.5909 26.8441 13.5909 26.1835 13.5909C26.1835 14.3864 26.1835 15.0682 26.1835 15.75ZM30.9174 15.75C30.9174 15.0682 30.9174 14.3864 30.9174 13.5909C30.2569 13.5909 29.5963 13.5909 28.9358 13.5909C28.9358 14.2727 28.9358 14.9545 28.9358 15.75C29.5963 15.75 30.2569 15.75 30.9174 15.75ZM23.3211 19.2727C23.3211 19.9545 23.3211 20.6364 23.3211 21.4318C23.9817 21.4318 24.6422 21.4318 25.3028 21.4318C25.3028 20.75 25.3028 20.0682 25.3028 19.2727C24.6422 19.2727 23.9817 19.2727 23.3211 19.2727ZM26.1835 21.4318C26.9541 21.4318 27.6147 21.4318 28.1652 21.4318C28.1652 20.75 28.1652 20.0682 28.1652 19.2727C27.5046 19.2727 26.8441 19.2727 26.1835 19.2727C26.1835 19.9545 26.1835 20.75 26.1835 21.4318ZM28.9358 19.2727C28.9358 20.0682 28.9358 20.75 28.9358 21.4318C29.5963 21.4318 30.2569 21.4318 30.9174 21.4318C30.9174 20.75 30.9174 20.0682 30.9174 19.2727C30.2569 19.2727 29.5963 19.2727 28.9358 19.2727ZM12.9725 21.7727C13.633 21.7727 14.2936 21.7727 14.9541 21.7727C14.9541 21.0909 14.9541 20.4091 14.9541 19.6136C14.2936 19.6136 13.633 19.6136 12.9725 19.6136C12.9725 20.4091 12.9725 21.0909 12.9725 21.7727ZM17.9266 19.7273C17.156 19.7273 16.6055 19.7273 15.945 19.7273C15.8349 20.4091 15.8349 21.0909 15.8349 21.7727C16.4954 21.7727 17.156 21.7727 17.8165 21.7727C17.9266 21.0909 17.9266 20.4091 17.9266 19.7273ZM20.5688 19.7273C19.9083 19.7273 19.2477 19.7273 18.4771 19.7273C18.4771 20.4091 18.4771 21.0909 18.4771 21.8864C19.1376 21.8864 19.7982 21.8864 20.5688 21.8864C20.5688 21.0909 20.5688 20.4091 20.5688 19.7273ZM15.1743 24.6136C15.1743 23.8182 15.1743 23.1364 15.1743 22.3409C14.5138 22.3409 13.8532 22.3409 13.1927 22.3409C13.1927 23.0227 13.1927 23.7045 13.1927 24.6136C13.7431 24.6136 14.4037 24.6136 15.1743 24.6136ZM17.8165 24.6136C17.8165 23.8182 17.8165 23.1364 17.8165 22.4545C17.156 22.4545 16.4954 22.4545 15.8349 22.4545C15.8349 23.1364 15.8349 23.8182 15.8349 24.6136C16.4954 24.6136 17.156 24.6136 17.8165 24.6136ZM18.5872 22.5682C18.5872 23.25 18.5872 23.9318 18.5872 24.8409C19.2477 24.8409 19.9083 24.8409 20.5688 24.8409C20.5688 24.1591 20.5688 23.4773 20.5688 22.5682C19.9083 22.5682 19.2477 22.5682 18.5872 22.5682Z" fill="#315188"/>
</g>
</g>
<defs>
<clipPath id="clip0_3026_9608">
<rect width="24" height="20" fill="white" transform="translate(10 12)"/>
</clipPath>
</defs>
</svg>
