<?xml version="1.0" encoding="UTF-8" standalone="no" ?>
<!DOCTYPE svg PUBLIC "-//W3C//DTD SVG 1.1//EN" "http://www.w3.org/Graphics/SVG/1.1/DTD/svg11.dtd">
<svg xmlns="http://www.w3.org/2000/svg" xmlns:xlink="http://www.w3.org/1999/xlink" version="1.1" width="1080" height="1080" viewBox="0 0 1080 1080" xml:space="preserve">
<desc>Created with Fabric.js 5.2.4</desc>
<defs>
</defs>
<g transform="matrix(1 0 0 1 540 540)" id="727831e5-730c-4796-a3b6-3d38714e3dae"  >
</g>
<g transform="matrix(1 0 0 1 540 540)" id="61a6464d-df1e-427b-bbd0-21c48dba3528"  >
<rect style="stroke: none; stroke-width: 1; stroke-dasharray: none; stroke-linecap: butt; stroke-dashoffset: 0; stroke-linejoin: miter; stroke-miterlimit: 4; fill: rgb(255,255,255); fill-rule: nonzero; opacity: 1; visibility: hidden;" vector-effect="non-scaling-stroke"  x="-540" y="-540" rx="0" ry="0" width="1080" height="1080" />
</g>
<g transform="matrix(24.55 0 0 24.55 540.1 540.1)"  >
<g style=""   >
		<g transform="matrix(1 0 0 1 1.3 -2.1)" clip-path="url(#CLIPPATH_5)"  >
<clipPath id="CLIPPATH_5" >
	<rect transform="matrix(1 0 0 1 -1.2 2.2)" id="clip0_3026_9633" x="-13.1" y="-9.1" rx="0" ry="0" width="26.2" height="18.2" />
</clipPath>
<path style="stroke: rgb(192,195,200); stroke-width: 0.25; stroke-dasharray: none; stroke-linecap: butt; stroke-dashoffset: 0; stroke-linejoin: miter; stroke-miterlimit: 10; fill: rgb(255,255,255); fill-rule: nonzero; opacity: 1;" vector-effect="non-scaling-stroke"  transform=" translate(-23.3, -19.9)" d="M 23.3 23.2 C 21.5 23.2 20 21.7 20 19.9 C 20 18.1 21.5 16.6 23.3 16.6 C 25.1 16.6 26.6 18.1 26.6 19.9 C 26.6 21.7 25.1 23.2 23.3 23.2 Z" stroke-linecap="round" />
</g>
		<g transform="matrix(1 0 0 1 -7.68 1.05)" clip-path="url(#CLIPPATH_6)"  >
<clipPath id="CLIPPATH_6" >
	<rect transform="matrix(1 0 0 1 7.78 -0.95)" id="clip0_3026_9633" x="-13.1" y="-9.1" rx="0" ry="0" width="26.2" height="18.2" />
</clipPath>
<path style="stroke: rgb(192,195,200); stroke-width: 0.25; stroke-dasharray: none; stroke-linecap: butt; stroke-dashoffset: 0; stroke-linejoin: miter; stroke-miterlimit: 10; fill: rgb(255,255,255); fill-rule: nonzero; opacity: 1;" vector-effect="non-scaling-stroke"  transform=" translate(-14.32, -23.05)" d="M 19.2 20.6 C 19.3 20.9 19.4 21.2 19.5 21.6 C 18.8 21.8 18.2 22 17.6 22.2 C 16.2 22.6 14.8 23 13.4 23.4 C 13.2 23.5 13 23.6 13 23.9 C 12.8 24.8 12.1 25.5 11.2 25.5 C 10.3 25.5 9.50001 25 9.20001 24.1 C 9.00001 23.3 9.30001 22.4 10.1 21.9 C 10.9 21.4 11.9 21.5 12.5 22.2 C 12.7 22.4 12.9 22.5 13.1 22.4 C 15 21.9 16.9 21.3 18.7 20.8 C 18.9 20.7 19 20.7 19.2 20.6 Z" stroke-linecap="round" />
</g>
		<g transform="matrix(1 0 0 1 8.93 2.27)" clip-path="url(#CLIPPATH_7)"  >
<clipPath id="CLIPPATH_7" >
	<rect transform="matrix(1 0 0 1 -8.82 -2.18)" id="clip0_3026_9633" x="-13.1" y="-9.1" rx="0" ry="0" width="26.2" height="18.2" />
</clipPath>
<path style="stroke: rgb(192,195,200); stroke-width: 0.25; stroke-dasharray: none; stroke-linecap: butt; stroke-dashoffset: 0; stroke-linejoin: miter; stroke-miterlimit: 10; fill: rgb(255,255,255); fill-rule: nonzero; opacity: 1;" vector-effect="non-scaling-stroke"  transform=" translate(-30.92, -24.28)" d="M 26.7 22.3 C 26.8 22 27 21.7 27.2 21.4 C 28.5 22.1 29.8 22.8 31.1 23.5 C 31.5 23.7 31.7999 23.9 32.2999 23.5 C 32.9999 23 34 23.2 34.6 23.8 C 35.2 24.4 35.3 25.4 34.9 26.2 C 34.5 26.9 33.5999 27.3 32.7999 27.1 C 31.8999 26.9 31.2999 26.1 31.2999 25.2 C 31.2999 24.8 31.2 24.7 30.9 24.5 C 29.6 23.8 28.4 23.1 27.1 22.4 C 26.9 22.4 26.8 22.3 26.7 22.3 Z" stroke-linecap="round" />
</g>
		<g transform="matrix(1 0 0 1 -1.35 5.37)" clip-path="url(#CLIPPATH_8)"  >
<clipPath id="CLIPPATH_8" >
	<rect transform="matrix(1 0 0 1 1.44 -5.28)" id="clip0_3026_9633" x="-13.1" y="-9.1" rx="0" ry="0" width="26.2" height="18.2" />
</clipPath>
<path style="stroke: rgb(192,195,200); stroke-width: 0.25; stroke-dasharray: none; stroke-linecap: butt; stroke-dashoffset: 0; stroke-linejoin: miter; stroke-miterlimit: 10; fill: rgb(255,255,255); fill-rule: nonzero; opacity: 1;" vector-effect="non-scaling-stroke"  transform=" translate(-20.66, -27.38)" d="M 21.6 23.7 C 22 23.8 22.3 23.9 22.6 24 C 22.3 25 22.1 25.9 21.8 26.9 C 21.7 27.2 21.8 27.4 22 27.7 C 22.7 28.3 22.8 29.3 22.3 30.1 C 21.9 30.9 20.9 31.2 20.1 31 C 19.3 30.8 18.7 30 18.7 29.1 C 18.7 28.2 19.3 27.4 20.2 27.3 C 20.5 27.2 20.7 27.1 20.8 26.8 C 21.1 25.7 21.4 24.7 21.6 23.7 Z" stroke-linecap="round" />
</g>
		<g transform="matrix(1 0 0 1 -4.97 -6.3)" clip-path="url(#CLIPPATH_9)"  >
<clipPath id="CLIPPATH_9" >
	<rect transform="matrix(1 0 0 1 5.07 6.4)" id="clip0_3026_9633" x="-13.1" y="-9.1" rx="0" ry="0" width="26.2" height="18.2" />
</clipPath>
<path style="stroke: rgb(192,195,200); stroke-width: 0.25; stroke-dasharray: none; stroke-linecap: butt; stroke-dashoffset: 0; stroke-linejoin: miter; stroke-miterlimit: 10; fill: rgb(255,255,255); fill-rule: nonzero; opacity: 1;" vector-effect="non-scaling-stroke"  transform=" translate(-17.03, -15.7)" d="M 20.1 17.2 C 19.9 17.5 19.7 17.8 19.5 18.1 C 18.7 17.6 18 17.1 17.2 16.6 C 16.7 17 16.1 17.2 15.5 17.1 C 14.5 16.9 13.8 15.9 14 14.9 C 14.2 13.9 15.1 13.2 16.1 13.3 C 17.2 13.4 18 14.3 17.9 15.3 C 17.9 15.7 18 15.9 18.3 16.1 C 18.8 16.4 19.4 16.8 20.1 17.2 Z" stroke-linecap="round" />
</g>
		<g transform="matrix(1 0 0 1 6.64 -6.56)" clip-path="url(#CLIPPATH_10)"  >
<clipPath id="CLIPPATH_10" >
	<rect transform="matrix(1 0 0 1 -6.53 6.66)" id="clip0_3026_9633" x="-13.1" y="-9.1" rx="0" ry="0" width="26.2" height="18.2" />
</clipPath>
<path style="stroke: rgb(192,195,200); stroke-width: 0.25; stroke-dasharray: none; stroke-linecap: butt; stroke-dashoffset: 0; stroke-linejoin: miter; stroke-miterlimit: 10; fill: rgb(255,255,255); fill-rule: nonzero; opacity: 1;" vector-effect="non-scaling-stroke"  transform=" translate(-28.63, -15.44)" d="M 26.1 16.9 C 26.2 16.8 26.3 16.7 26.4 16.7 C 27 16.3 27.4 15.9 27.2 15.1 C 27.1 14.3 27.7 13.6 28.5 13.3 C 29.4 13 30.3 13.3 30.8 14 C 31.3 14.7 31.3 15.6 30.7 16.3 C 30.2 17 29.3 17.3 28.5 16.9 C 28 16.7 27.8 16.8 27.5 17.1 C 27.3 17.3 27.1 17.5 26.8 17.7 C 26.6 17.4 26.4 17.2 26.1 16.9 Z" stroke-linecap="round" />
</g>
</g>
</g>
</svg>