<svg width="44" height="44" viewBox="0 0 44 44" fill="none" xmlns="http://www.w3.org/2000/svg">
<g clip-path="url(#clip0_3026_9642)">
<path d="M23.3 23.2C21.5 23.2 20 21.7 20 19.9C20 18.1 21.5 16.6 23.3 16.6C25.1 16.6 26.6 18.1 26.6 19.9C26.6 21.7 25.1 23.2 23.3 23.2Z" fill="#315188" stroke="#315188" stroke-width="0.25" stroke-miterlimit="10"/>
<path d="M19.2 20.6C19.3 20.9 19.4 21.2 19.5 21.6C18.8 21.8 18.2 22 17.6 22.2C16.2 22.6 14.8 23 13.4 23.4C13.2 23.5 13 23.6 13 23.9C12.8 24.8 12.1 25.5 11.2 25.5C10.3 25.5 9.50001 25 9.20001 24.1C9.00001 23.3 9.30001 22.4 10.1 21.9C10.9 21.4 11.9 21.5 12.5 22.2C12.7 22.4 12.9 22.5 13.1 22.4C15 21.9 16.9 21.3 18.7 20.8C18.9 20.7 19 20.7 19.2 20.6Z" fill="#315188" stroke="#315188" stroke-width="0.25" stroke-miterlimit="10"/>
<path d="M26.7 22.3C26.8 22 27 21.7 27.2 21.4C28.5 22.1 29.8 22.8 31.1 23.5C31.5 23.7 31.7999 23.9 32.2999 23.5C32.9999 23 34 23.2 34.6 23.8C35.2 24.4 35.3 25.4 34.9 26.2C34.5 26.9 33.5999 27.3 32.7999 27.1C31.8999 26.9 31.2999 26.1 31.2999 25.2C31.2999 24.8 31.2 24.7 30.9 24.5C29.6 23.8 28.4 23.1 27.1 22.4C26.9 22.4 26.8 22.3 26.7 22.3Z" fill="#315188" stroke="#315188" stroke-width="0.25" stroke-miterlimit="10"/>
<path d="M21.6 23.7C22 23.8 22.3 23.9 22.6 24C22.3 25 22.1 25.9 21.8 26.9C21.7 27.2 21.8 27.4 22 27.7C22.7 28.3 22.8 29.3 22.3 30.1C21.9 30.9 20.9 31.2 20.1 31C19.3 30.8 18.7 30 18.7 29.1C18.7 28.2 19.3 27.4 20.2 27.3C20.5 27.2 20.7 27.1 20.8 26.8C21.1 25.7 21.4 24.7 21.6 23.7Z" fill="#315188" stroke="#315188" stroke-width="0.25" stroke-miterlimit="10"/>
<path d="M20.1 17.2C19.9 17.5 19.7 17.8 19.5 18.1C18.7 17.6 18 17.1 17.2 16.6C16.7 17 16.1 17.2 15.5 17.1C14.5 16.9 13.8 15.9 14 14.9C14.2 13.9 15.1 13.2 16.1 13.3C17.2 13.4 18 14.3 17.9 15.3C17.9 15.7 18 15.9 18.3 16.1C18.8 16.4 19.4 16.8 20.1 17.2Z" fill="#315188" stroke="#315188" stroke-width="0.25" stroke-miterlimit="10"/>
<path d="M26.1 16.9C26.2 16.8 26.3 16.7 26.4 16.7C27 16.3 27.4 15.9 27.2 15.1C27.1 14.3 27.7 13.6 28.5 13.3C29.4 13 30.3 13.3 30.8 14C31.3 14.7 31.3 15.6 30.7 16.3C30.2 17 29.3 17.3 28.5 16.9C28 16.7 27.8 16.8 27.5 17.1C27.3 17.3 27.1 17.5 26.8 17.7C26.6 17.4 26.4 17.2 26.1 16.9Z" fill="#315188" stroke="#315188" stroke-width="0.25" stroke-miterlimit="10"/>
</g>
<defs>
<clipPath id="clip0_3026_9642">
<rect width="26.2" height="18.2" fill="white" transform="translate(9 13)"/>
</clipPath>
</defs>
</svg>
