<svg width="44" height="44" viewBox="0 0 44 44" fill="none" xmlns="http://www.w3.org/2000/svg">
<g clip-path="url(#clip0_3026_9659)">
<path d="M11.1 31.3C11.1 30.8 11.1 30.4 11.1 29.9C11.5 29.9 12 29.9 12.4 29.9C12.4 26.6 12.4 23.3 12.4 20C12 20 11.5 20 11 20C11 19.7 11 19.4 11.1 19.1C11.2 18.2 11.2 17.4 11.3 16.5C11.4 15.7 11.4 14.9 11.5 14.2C11.4 14 11.5 14 11.5 14H11.6C18 14 24.4 14 30.8 14C31 14 31 14 31.1 14C31.3 16 31.4 18 31.6 20C31.3 20 31 20 30.8 20C30.7 20 30.6 20 30.5 20C30.3 20 30.2 20.1 30.2 20.3C30.2 21.6 30.2 22.9 30.2 24.2C30.2 26 30.2 27.7 30.2 29.5V29.6C30.2 29.8 30.3 29.8 30.5 29.8C30.8 29.8 31.1 29.8 31.4 29.8C31.5 29.8 31.5 29.8 31.6 29.8C31.6 30.3 31.6 30.8 31.6 31.2C24.7 31.3 17.9 31.3 11.1 31.3ZM17 24.6C17.1 24.5 17 24.5 17 24.6C17.3 24 17.5 23.5 17.7 23C17.8 22.7 18 22.5 18.3 22.5C19 22.4 19.8 22.3 20.6 22.3C21.6 22.3 22.7 22.4 23.7 22.4C24.4 22.4 24.8 22.8 25 23.4C25.1 23.8 25.3 24.2 25.5 24.5L25.6 24.6C25.6 24.5 25.6 24.4 25.7 24.2C25.7 24.1 25.8 24 25.9 24C26.2 24 26.4 24 26.7 24.1C26.8 24.1 26.9 24.2 26.9 24.4C26.9 24.5 26.9 24.6 26.8 24.7C26.7 24.8 26.6 24.8 26.4 24.8C26.2 24.8 26 24.8 25.8 24.8C26 25.3 26.5 25.7 26.6 26.3C26.5 26.3 26.5 26.3 26.4 26.3C25.8 26.3 25.3 26.3 24.7 26.3C24.5 26.3 24.3 26.4 24.2 26.6C24.1 26.8 24 27 24 27.2C23.9 27.4 24 27.5 24.2 27.5C24.9 27.5 25.6 27.5 26.3 27.5C26.4 27.5 26.4 27.5 26.5 27.5C26.5 28.3 26.5 29.1 26.5 29.9C27.1 29.9 27.7 29.9 28.4 29.9C28.4 26.6 28.4 23.4 28.4 20.1C23.6 20 18.9 20 14.2 20C14.2 23.3 14.2 26.5 14.2 29.8C14.8 29.8 15.5 29.8 16.1 29.8C16.1 29 16 28.3 16 27.5C16.1 27.5 16.1 27.5 16.2 27.5C16.9 27.5 17.7 27.5 18.4 27.5C18.6 27.5 18.7 27.4 18.6 27.2C18.6 27 18.5 26.9 18.5 26.7C18.4 26.4 18.1 26.2 17.8 26.2C17.3 26.2 16.7 26.2 16.2 26.2C16 26.3 16 26.2 16 26.1C16.1 25.9 16.2 25.8 16.3 25.6C16.5 25.4 16.6 25.1 16.8 24.9C16.7 24.9 16.7 24.9 16.6 24.9C16.4 24.9 16.2 24.9 15.9 24.8C15.7 24.8 15.7 24.7 15.7 24.5C15.7 24.3 15.7 24.2 15.9 24.2C16.1 24.2 16.4 24.1 16.6 24.1C16.7 24.1 16.7 24.2 16.8 24.2C16.9 24.3 17 24.5 17 24.6ZM27.3 16.3C27.2 16.2 27.2 16.1 27.2 16C26.6 15 25 14.9 24.3 15.9C24.2 16.1 24 16.2 23.8 16.2C22.1 16.2 20.4 16.2 18.8 16.2C18.6 16.2 18.4 16.1 18.3 15.9C17.7 15.2 16.6 15 15.8 15.6C15.5 15.8 15.3 16 15.3 16.3C15.4 16.3 15.4 16.3 15.5 16.3C15.8 16.3 16.1 16.3 16.4 16.3C16.7 16.3 17 16.6 17 17C17 17.4 16.7 17.6 16.4 17.6C16 17.6 15.7 17.6 15.3 17.6C15.3 17.7 15.4 17.8 15.4 17.8C15.9 19 17.5 19.1 18.2 18.1C18.3 17.9 18.5 17.8 18.8 17.8C20.5 17.8 22.2 17.8 23.9 17.8C24.1 17.8 24.2 17.9 24.3 18C24.4 18.1 24.4 18.2 24.5 18.3C25.1 18.8 25.8 18.9 26.5 18.6C26.9 18.4 27.2 18.1 27.3 17.7C26.9 17.7 26.6 17.7 26.3 17.7C26.1 17.7 25.9 17.7 25.7 17.5C25.5 17.3 25.5 17 25.6 16.8C25.7 16.5 25.9 16.4 26.2 16.5C26.6 16.4 26.9 16.3 27.3 16.3ZM24.9 24.8C24.7 24.3 24.5 23.8 24.4 23.3C24.3 22.9 24.1 22.8 23.7 22.8C22.5 22.8 21.4 22.8 20.2 22.8C19.7 22.8 19.2 22.8 18.7 22.9C18.5 22.9 18.3 23 18.2 23.2C18.2 23.4 18.1 23.5 18 23.7C17.9 24.1 17.7 24.4 17.6 24.8C20.1 24.8 22.5 24.8 24.9 24.8ZM24.9 29.9C24.9 29.7 24.8 29.6 24.8 29.4C24.8 29.2 24.7 29.2 24.6 29.2C22.5 29.2 20.3 29.2 18.2 29.2C17.8 29.2 17.8 29.2 17.7 29.6C17.7 29.8 17.7 29.8 17.9 29.8C20.2 29.8 22.5 29.8 24.8 29.8C24.8 29.9 24.8 29.9 24.9 29.9Z" fill="#315188"/>
</g>
<defs>
<clipPath id="clip0_3026_9659">
<rect width="20.6" height="17.3" fill="white" transform="translate(11 14)"/>
</clipPath>
</defs>
</svg>
