<svg width="40" height="40" viewBox="0 0 40 40" fill="none" xmlns="http://www.w3.org/2000/svg">
<path d="M28.0482 12.5306C27.5689 12.9504 27.1161 13.3519 26.6634 13.7534C26.4059 13.9907 26.1396 14.2188 25.9088 14.4743C25.4916 14.9489 25.5271 15.7154 25.8911 16.2082C26.4415 16.9564 27.3114 17.0477 28.0039 16.4272C28.5809 15.907 29.1579 15.396 29.7349 14.8759C29.7704 14.8394 29.8148 14.812 29.877 14.7664C30.0279 15.3139 30.0367 15.8523 29.9213 16.3907C29.5041 18.3617 27.4623 19.4659 25.6514 18.6811C25.536 18.6264 25.4738 18.6811 25.4028 18.745C24.3642 19.6667 23.3344 20.5975 22.2958 21.5191C21.2482 22.459 20.2007 23.3898 19.1532 24.3297C18.6738 24.7586 18.1856 25.1966 17.6973 25.6255C17.5819 25.7259 17.5464 25.8172 17.5553 25.9723C17.5997 26.967 17.2535 27.77 16.4368 28.3175C15.6733 28.8377 14.8566 28.8742 14.0133 28.4909C12.9746 28.0164 12.3177 26.8118 12.5219 25.5343C12.6906 24.5214 13.5605 23.6362 14.5548 23.4811C14.901 23.4263 15.2383 23.4446 15.5757 23.5267C15.6733 23.5541 15.7355 23.5267 15.8154 23.4628C17.1381 22.2765 18.4608 21.0994 19.7835 19.9222C21.0529 18.7906 22.3224 17.6591 23.5918 16.5275C23.6717 16.4545 23.6806 16.3998 23.6629 16.2903C23.4409 15.1679 23.654 14.155 24.4086 13.288C24.8613 12.7679 25.4206 12.4576 26.0775 12.3116C26.761 12.1565 27.4002 12.2478 28.0482 12.5306ZM13.889 26.0727C13.8535 26.7845 14.5104 27.2955 15.0519 27.2955C15.6822 27.2955 16.1793 26.7571 16.1793 26.1C16.1705 25.4339 15.6556 24.8955 15.0164 24.8955C14.3772 24.8955 13.889 25.3974 13.889 26.0727Z" fill="white"/>
<path d="M15.7977 13.6073C17.5021 15.3046 19.1799 16.9836 20.8843 18.681C20.3695 19.1463 19.8546 19.6117 19.3308 20.0771C19.0112 19.7395 18.7005 19.4019 18.3898 19.0642C17.5021 18.1061 16.6144 17.157 15.7355 16.1989C15.5402 15.989 15.3005 16.0437 15.0786 16.0802C14.2264 16.2354 13.6582 16.9745 13.7026 17.8779C13.7115 18.0331 13.6671 18.1517 13.5606 18.2521C13.2765 18.5441 12.9924 18.8452 12.7084 19.1372C12.522 19.3289 12.3977 19.338 12.2112 19.1463C11.6253 18.5349 11.0306 17.9235 10.4447 17.3122C10.2849 17.1479 10.2849 17.0019 10.4447 16.8285C10.782 16.4726 11.1193 16.1259 11.4567 15.77C11.5011 15.7335 11.5721 15.697 11.6253 15.697C12.5752 15.7882 13.4363 14.8483 13.3653 13.9175C13.3564 13.8536 13.3919 13.7715 13.4363 13.7259C13.9246 13.2331 14.3862 12.713 14.9099 12.2658C15.6556 11.6544 16.499 11.189 17.4666 11.0248C18.3188 10.8879 19.1089 11.0613 19.8546 11.4902C19.9522 11.5449 19.9611 11.6179 19.8901 11.7001C19.8812 11.7092 19.8723 11.7183 19.8635 11.7274C19.6504 12.0377 19.3841 12.1198 19.0024 12.0651C18.2744 11.9738 17.6086 12.2202 16.9872 12.5943C16.5345 12.859 16.1439 13.1875 15.7977 13.6073Z" fill="white"/>
<path d="M23.5743 20.8073C24.5597 21.7837 25.5184 22.7327 26.4772 23.7C27.2228 24.4574 27.9597 25.2331 28.6965 25.9996C29.4599 26.7935 29.3978 28.0345 28.5456 28.6824C27.9242 29.157 27.0009 29.1205 26.4328 28.5456C25.8025 27.9159 25.1988 27.2589 24.5952 26.6019C23.521 25.4429 22.4558 24.284 21.3905 23.116C21.3461 23.0703 21.3106 23.0247 21.2573 22.9608C22.0474 22.2308 22.8375 21.5008 23.5743 20.8073Z" fill="white"/>
</svg>
