<svg width="40" height="40" viewBox="0 0 40 40" fill="none" xmlns="http://www.w3.org/2000/svg">
<path d="M27.2466 13.2893C26.816 13.6664 26.4093 14.0271 26.0025 14.3878C25.7713 14.601 25.532 14.8059 25.3247 15.0355C24.9498 15.4617 24.9817 16.1503 25.3087 16.593C25.8032 17.2652 26.5847 17.3472 27.2067 16.7898C27.7251 16.3225 28.2435 15.8634 28.7619 15.3962C28.7937 15.3634 28.8336 15.3388 28.8894 15.2978C29.025 15.7896 29.033 16.2733 28.9293 16.757C28.5545 18.5277 26.7203 19.5196 25.0934 18.8146C24.9897 18.7654 24.9339 18.8146 24.8701 18.872C23.937 19.7 23.0119 20.5362 22.0789 21.3641C21.1378 22.2085 20.1968 23.0447 19.2558 23.889C18.8251 24.2743 18.3865 24.6678 17.9479 25.0531C17.8442 25.1433 17.8123 25.2253 17.8203 25.3646C17.8602 26.2582 17.5491 26.9796 16.8154 27.4715C16.1296 27.9387 15.3959 27.9715 14.6383 27.6272C13.7052 27.2009 13.1151 26.1188 13.2985 24.9712C13.45 24.0612 14.2316 23.266 15.1248 23.1267C15.4358 23.0775 15.7388 23.0939 16.0419 23.1676C16.1296 23.1922 16.1854 23.1676 16.2572 23.1103C17.4455 22.0445 18.6337 20.987 19.822 19.9295C20.9624 18.913 22.1028 17.8965 23.2432 16.8799C23.315 16.8144 23.323 16.7652 23.307 16.6668C23.1076 15.6585 23.299 14.7485 23.9769 13.9697C24.3836 13.5025 24.886 13.2237 25.4762 13.0926C26.0903 12.9532 26.6645 13.0352 27.2466 13.2893ZM14.5266 25.4548C14.4947 26.0942 15.0849 26.5533 15.5714 26.5533C16.1376 26.5533 16.5842 26.0697 16.5842 25.4794C16.5762 24.881 16.1137 24.3973 15.5395 24.3973C14.9653 24.3973 14.5266 24.8482 14.5266 25.4548Z" fill="#315188"/>
<path d="M16.2414 14.2565C17.7725 15.7813 19.2798 17.2896 20.811 18.8144C20.3484 19.2325 19.8859 19.6506 19.4154 20.0687C19.1283 19.7654 18.8492 19.4621 18.57 19.1587C17.7725 18.298 16.975 17.4454 16.1855 16.5846C16.0101 16.3961 15.7948 16.4453 15.5954 16.4781C14.8298 16.6174 14.3194 17.2814 14.3593 18.093C14.3673 18.2324 14.3274 18.339 14.2317 18.4291C13.9765 18.6915 13.7213 18.962 13.4661 19.2243C13.2986 19.3965 13.187 19.4047 13.0195 19.2325C12.4932 18.6833 11.9588 18.134 11.4325 17.5848C11.2889 17.4372 11.2889 17.306 11.4325 17.1503C11.7355 16.8306 12.0386 16.5191 12.3416 16.1993C12.3815 16.1665 12.4453 16.1338 12.4932 16.1338C13.3465 16.2157 14.12 15.3714 14.0562 14.5352C14.0483 14.4778 14.0802 14.404 14.12 14.363C14.5587 13.9204 14.9733 13.4531 15.4439 13.0514C16.1138 12.5021 16.8714 12.0841 17.7406 11.9365C18.5062 11.8135 19.216 11.9693 19.8859 12.3546C19.9736 12.4038 19.9816 12.4694 19.9178 12.5431C19.9098 12.5513 19.9018 12.5595 19.8939 12.5677C19.7025 12.8464 19.4632 12.9202 19.1203 12.871C18.4664 12.7891 17.8682 13.0104 17.31 13.3465C16.9033 13.5842 16.5524 13.8794 16.2414 14.2565Z" fill="#315188"/>
<path d="M23.2274 20.7246C24.1127 21.6018 24.9739 22.4543 25.8352 23.3233C26.5051 24.0037 27.167 24.7005 27.829 25.3891C28.5148 26.1023 28.459 27.2172 27.6934 27.7993C27.1351 28.2256 26.3058 28.1928 25.7954 27.6763C25.2291 27.1107 24.6869 26.5204 24.1446 25.9302C23.1796 24.8891 22.2226 23.848 21.2656 22.7986C21.2257 22.7577 21.1938 22.7167 21.146 22.6593C21.8558 22.0035 22.5655 21.3476 23.2274 20.7246Z" fill="#315188"/>
</svg>
