<svg width="44" height="44" viewBox="0 0 44 44" fill="none" xmlns="http://www.w3.org/2000/svg">
<g clip-path="url(#clip0_3026_9853)">
<path d="M12.6 18.3C13.1 18.3 13.5 18.2 13.9 18.2C13.9 18.4 13.9 18.6 13.9 18.8C13.9 21.2 13.9 23.6 13.9 26C13.9 26.5 14 26.6 14.5 26.6C19 26.6 23.4 26.6 27.9 26.6C28.4 26.6 28.5 26.4 28.5 26C28.5 23.6 28.5 21.2 28.5 18.9C28.5 18.7 28.5 18.5 28.5 18.3C28.9 18.3 29.4 18.4 29.8 18.4C29.8 18.6 29.8 18.8 29.8 19C29.8 23 29.8 27.1 29.8 31.1C29.8 31.9 29.7 32 28.9 32C23.8 32 18.7 32 13.5 32C12.7 32 12.6 31.9 12.6 31.1C12.6 27.1 12.6 23.1 12.6 19.1C12.6 18.6 12.6 18.4 12.6 18.3Z" fill="#C5C5C5"/>
<path d="M25.6 25.2C22.6 25.2 19.8 25.2 16.8 25.2C16.9 24.5 17.3 24 18 23.8C18.4 23.7 18.9 23.6 19.4 23.5C20 23.4 20.1 23.3 19.7 22.8C19.2 22.2 19 21.4 19 20.6C19 19.2 20 18.3 21.2 18.3C22.4 18.3 23.3 19.3 23.4 20.6C23.4 21.4 23.2 22.2 22.7 22.9C22.4 23.3 22.5 23.5 23 23.6C23.5 23.7 24 23.7 24.5 23.9C25.2 24 25.5 24.5 25.6 25.2Z" fill="#C5C5C5"/>
<path d="M19.9 13.6C19.9 12.9 19.9 12.2 19.9 11.5C19.9 11.1 20.1 11 20.4 11C20.8 11 21.2 11 21.6 11C22.1 10.9 22.2 11.2 22.2 11.6C22.3 12.9 22.4 14.2 22.5 15.5C22.6 16.4 22.1 17 21.3 17C20.5 17 20 16.5 19.9 15.6C19.9 15 19.9 14.3 19.9 13.6Z" fill="#C5C5C5"/>
<path d="M23.6 11.1C24.3 11.1 25 11.1 25.6 11.1C25.7 11.1 25.8 11.3 25.9 11.4C26.2 12.8 26.4 14.2 26.6 15.5C26.7 16.2 26.3 16.8 25.6 16.9C24.8 17.1 24.1 16.7 24 16C23.8 14.4 23.7 12.8 23.6 11.1Z" fill="#C5C5C5"/>
<path d="M18.8999 11C18.7999 12.5 18.6999 13.8 18.5999 15.1C18.5999 15.3 18.5999 15.6 18.4999 15.8C18.3999 16.6 17.7999 17.1 16.9999 17C16.2999 16.9 15.7999 16.3 15.8999 15.5C16.0999 14.1 16.3999 12.7 16.5999 11.4C16.5999 11.3 16.7999 11.1 16.8999 11.1C17.5999 11 18.1999 11 18.8999 11Z" fill="#C5C5C5"/>
<path d="M27.3 11.1C28.4 10.8 28.9 11 29.2 12.1C29.6 13.2 30 14.3 30.3 15.4C30.5 15.9 30.4 16.3 30 16.7C29.7 17 29.2 17.2 28.8 16.9C28.5 16.7 28.1 16.4 28.1 16.1C27.8 14.5 27.5 12.9 27.2 11.3C27.3 11.2 27.3 11.2 27.3 11.1Z" fill="#C5C5C5"/>
<path d="M15.2 11C15.1 11.6 15 12.1 15 12.5C14.8 13.7 14.6 14.8 14.4 15.9C14.3 16.7 13.6 17.1 12.9 16.9C12.2 16.7 11.9 16.1 12.1 15.3C12.5 14.1 13 12.8 13.4 11.6C13.5 11.2 13.8 11 14.2 11C14.5 11 14.8 11 15.2 11Z" fill="#C5C5C5"/>
</g>
<defs>
<clipPath id="clip0_3026_9853">
<rect width="18.5" height="20.8" fill="white" transform="translate(12 11)"/>
</clipPath>
</defs>
</svg>
