<svg width="16" height="16" viewBox="0 0 16 16" fill="none" xmlns="http://www.w3.org/2000/svg">
<g clip-path="url(#clip0_1127_5523)">
<path d="M0 8.69091V7.30909C0.0181818 7.21818 0.0636364 7.12727 0.0545455 7.03636C0.0363637 6.76364 0.181818 6.67273 0.427273 6.63636C0.872728 6.58182 1.30909 6.47273 1.75455 6.42727C2.1 6.39091 2.32727 6.26364 2.39091 5.9C2.42727 5.70909 2.52727 5.52727 2.62727 5.35455C2.72727 5.18182 2.71818 5.04546 2.59091 4.88182C2.21818 4.37273 1.86364 3.85455 1.45455 3.28182C2.07273 2.67273 2.67273 2.06364 3.27273 1.46364C3.81818 1.84545 4.30909 2.17273 4.77273 2.52727C5 2.7 5.17273 2.75455 5.43637 2.59091C5.63637 2.46364 5.87273 2.39091 6.1 2.32727C6.29091 2.27273 6.35455 2.17273 6.38182 1.98182C6.43637 1.56364 6.51818 1.14545 6.6 0.727273C6.70909 0.163636 6.70909 0.163636 7.26364 0.0454545C7.28182 0.0454545 7.3 0.0272727 7.31819 0.0181818H8.69091C8.78182 0.0363636 8.87273 0.0818182 8.96364 0.0727273C9.24546 0.0545454 9.33637 0.190909 9.37273 0.445455C9.42728 0.890909 9.53637 1.32727 9.58182 1.77273C9.61819 2.11818 9.74546 2.34545 10.1091 2.40909C10.3 2.44545 10.4818 2.54545 10.6545 2.64545C10.8273 2.74545 10.9636 2.73636 11.1273 2.60909C11.6364 2.23636 12.1546 1.88182 12.7364 1.47273C13.3455 2.09091 13.9546 2.69091 14.5546 3.29091C14.1636 3.84545 13.8364 4.34546 13.4727 4.80909C13.3182 5.01818 13.2727 5.18182 13.4182 5.41818C13.5455 5.61818 13.6273 5.85455 13.6909 6.08182C13.7455 6.27273 13.8364 6.37273 14.0455 6.39091C14.4818 6.44546 14.9 6.56364 15.3364 6.60909C15.7455 6.64546 16.0273 6.75455 15.9818 7.23636C15.9818 7.26364 16 7.29091 16.0182 7.31818V8.69091C16 8.79091 15.9546 8.89091 15.9636 8.99091C15.9818 9.25455 15.8455 9.32727 15.6182 9.35455C15.1636 9.41818 14.7182 9.52727 14.2636 9.57273C13.9182 9.60909 13.6909 9.73636 13.6273 10.1C13.5909 10.2909 13.4909 10.4727 13.3909 10.6455C13.2909 10.8182 13.3 10.9545 13.4273 11.1182C13.8 11.6273 14.1546 12.1455 14.5636 12.7182C13.9455 13.3364 13.3364 13.9364 12.7364 14.5364C12.1727 14.1364 11.6727 13.8 11.1818 13.4364C11 13.3 10.8455 13.2545 10.6273 13.3818C10.4091 13.5091 10.1545 13.6 9.9091 13.6818C9.73637 13.7364 9.65455 13.8182 9.63637 14C9.57273 14.4364 9.49091 14.8636 9.41819 15.2909C9.31819 15.8545 9.3091 15.8545 8.75455 15.9636C8.73637 15.9636 8.71819 15.9818 8.7 16H7.30909C7.21819 15.9818 7.12728 15.9364 7.04546 15.9455C6.77273 15.9636 6.67273 15.8273 6.63637 15.5727C6.57273 15.1182 6.46364 14.6727 6.41818 14.2182C6.38182 13.8636 6.24546 13.6818 5.89091 13.6091C5.70909 13.5727 5.53637 13.4909 5.38182 13.3909C5.17273 13.2545 5.01818 13.3091 4.82727 13.4455C4.33637 13.8091 3.82727 14.1545 3.27273 14.5455C2.66364 13.9273 2.05455 13.3273 1.45455 12.7273C1.84546 12.1727 2.17273 11.6818 2.53636 11.2091C2.69091 11 2.73636 10.8364 2.6 10.6C2.47273 10.4 2.39091 10.1636 2.32727 9.93637C2.27273 9.74546 2.18182 9.64546 1.97273 9.61818C1.53636 9.56364 1.11818 9.44546 0.681818 9.4C0.272727 9.36364 -0.0181818 9.25455 0.0363637 8.77273C0.0363637 8.74546 0.00909091 8.71818 0 8.69091ZM11 8C11 6.34546 9.65455 5 8 5C6.34546 5 5 6.34546 5 8C5 9.65455 6.34546 11 8 11C9.65455 11 11 9.65455 11 8Z" fill="#99A3B5"/>
</g>
<defs>
<clipPath id="clip0_1127_5523">
<rect width="16" height="16" fill="white"/>
</clipPath>
</defs>
</svg>
