<svg width="21" height="21" viewBox="0 0 21 21" fill="none" xmlns="http://www.w3.org/2000/svg">
<path d="M13.0863 10.1222C13.1912 10.2121 13.2786 10.2661 13.331 10.3561C13.5582 10.6439 13.6456 10.9858 13.5408 11.3456C13.3834 11.8854 13.1912 12.4252 13.0164 12.947C12.2997 15.0341 11.5831 17.1212 10.8489 19.1903C10.7965 19.3523 10.7266 19.5142 10.6741 19.6761C10.6217 19.8201 10.5343 19.892 10.3945 19.928C10.0624 20 9.73026 20.018 9.39816 19.982C8.36688 19.892 7.42299 19.5142 6.53155 18.9744C4.11941 17.4451 2.37148 15.34 1.44507 12.5511C1.06053 11.3816 0.920694 10.1761 1.04305 8.95264C1.04305 8.89867 1.06053 8.8267 1.06053 8.77272C1.11297 8.52083 1.20036 8.44886 1.44507 8.50283C1.65482 8.53882 1.86458 8.61079 2.07433 8.68276C3.08813 9.02461 4.13689 9.22253 5.2206 9.20454C6.75878 9.18655 8.20956 8.8087 9.52051 7.98105C9.59043 7.92708 9.67782 7.89109 9.74774 7.85511C10.2022 7.60321 10.6217 7.6392 11.0237 7.96306C11.1111 8.03503 11.1636 8.03503 11.251 7.94507C13.2436 5.89393 15.2362 3.8428 17.2464 1.80965C17.3862 1.66571 17.526 1.53977 17.6659 1.39583C18.0854 0.964008 18.5923 0.946015 19.1166 1.10795C19.6061 1.26988 19.8683 1.66571 19.9731 2.1695C20.0431 2.56533 19.9906 2.94317 19.6935 3.26704C19.1516 3.8428 18.6272 4.43655 18.0679 5.0123C16.4598 6.6856 14.8342 8.35889 13.2086 10.0142C13.1737 10.0322 13.1387 10.0682 13.0863 10.1222ZM8.48923 19.0824C8.52419 19.1004 8.54167 19.1004 8.55915 19.1184C8.97865 19.2623 9.41564 19.2983 9.85262 19.2983C10.0624 19.2983 10.0624 19.2983 10.1323 19.0824C10.7091 17.4271 11.2859 15.7718 11.8627 14.1345C11.8977 14.0445 11.8802 13.9905 11.8103 13.9186C10.4644 12.4972 9.08353 11.0758 7.72014 9.67234C7.65023 9.60037 7.59779 9.58238 7.51039 9.60037C7.02097 9.69033 6.53155 9.79829 6.04213 9.85227C4.67874 9.99621 3.35032 9.81628 2.03937 9.40246C1.93449 9.36647 1.82962 9.33049 1.70726 9.2945C1.68978 9.36647 1.6723 9.42045 1.68978 9.49242C1.70726 9.87026 1.72474 10.2481 1.74222 10.6439C1.74222 10.7699 1.81214 10.8239 1.91701 10.8418C2.2666 10.8778 2.59871 10.9138 2.94829 10.9318C3.57755 10.9498 4.2068 10.9318 4.83606 10.8239C4.92345 10.8059 5.02833 10.8239 5.09825 10.8778C5.2206 10.9498 5.25556 11.0758 5.23808 11.2197C5.2206 11.3636 5.13321 11.4536 5.01085 11.4896C4.78362 11.5436 4.55639 11.5975 4.32916 11.6155C3.54259 11.6875 2.75602 11.7235 1.96945 11.5795C1.95197 11.5795 1.93449 11.5795 1.91701 11.5975C1.91701 11.6515 1.91701 11.6875 1.93449 11.7415C2.07433 12.1913 2.21416 12.6411 2.37148 13.0909C2.38896 13.1269 2.42391 13.1449 2.45887 13.1449C2.91333 13.1269 3.3678 13.1089 3.80478 13.0549C4.11941 13.0189 4.43403 12.929 4.73118 12.893C4.92345 12.857 5.01085 12.947 5.06329 13.1089C5.11573 13.3068 5.04581 13.4508 4.8885 13.5227C4.66126 13.5947 4.43403 13.6847 4.18932 13.7206C3.76982 13.7926 3.33284 13.8106 2.91333 13.8646C2.7735 13.8826 2.73854 13.9186 2.80846 14.0445C3.10561 14.5123 3.42023 14.9801 3.71738 15.4659C3.7873 15.5559 3.85722 15.5918 3.96209 15.5379C4.3816 15.304 4.81858 15.0881 5.23808 14.8542C5.36044 14.7822 5.48279 14.7102 5.60515 14.6562C5.71002 14.6023 5.79742 14.6203 5.88482 14.7102C6.04213 14.8542 6.05961 15.0521 5.91977 15.214C5.83238 15.304 5.74498 15.3759 5.64011 15.4479C5.23808 15.6818 4.83606 15.8977 4.41655 16.1316C4.36412 16.1496 4.32916 16.1856 4.27672 16.2036C4.43403 16.3655 4.55639 16.5275 4.7137 16.6714C4.97589 16.9413 5.25556 17.1932 5.51775 17.4451C5.64011 17.553 5.71002 17.553 5.84986 17.4451C5.86734 17.4271 5.9023 17.4091 5.91977 17.3911C6.44415 16.9053 6.9161 16.3655 7.31812 15.7538C7.37056 15.6818 7.42299 15.6098 7.47543 15.5379C7.58031 15.4299 7.73762 15.4299 7.85998 15.5199C8.01729 15.6278 8.06973 15.7538 7.99981 15.8977C7.94737 16.0057 7.89494 16.1136 7.82502 16.2216C7.40552 16.8693 6.89862 17.4091 6.35676 17.9309C6.3218 17.9668 6.28684 17.9668 6.2344 17.9848C6.7413 18.3447 7.23072 18.6506 7.7551 18.8845C7.79006 18.9025 7.8425 18.8665 7.87746 18.8305C8.33192 18.2727 8.6815 17.661 8.96117 16.9953C9.08353 16.7434 9.15345 16.4735 9.2758 16.2216C9.34572 16.0597 9.52051 16.0057 9.67782 16.0597C9.83514 16.1136 9.92254 16.2576 9.88758 16.4375C9.85262 16.5814 9.81766 16.7074 9.76522 16.8513C9.45059 17.643 9.06605 18.3987 8.55915 19.0644C8.54167 19.0104 8.52419 19.0464 8.48923 19.0824ZM12.6318 9.60037C12.6668 9.56439 12.6843 9.51041 12.7192 9.49242C14.2224 7.96306 15.7257 6.43371 17.2114 4.88636C17.8407 4.23863 18.4874 3.57291 19.1166 2.92518C19.3788 2.6553 19.3788 2.22348 19.1166 1.9356C18.8894 1.6837 18.4699 1.59374 18.1902 1.88162C18.0329 2.04355 17.8581 2.20549 17.6833 2.36742C15.6732 4.40056 13.6806 6.4337 11.6879 8.48484C11.6705 8.50283 11.653 8.53882 11.6355 8.55681C11.9501 8.89867 12.2822 9.22253 12.6318 9.60037ZM12.1599 13.1989C12.1774 13.1629 12.1948 13.1449 12.1948 13.1449C12.4221 12.4792 12.6493 11.8134 12.8765 11.1477C12.9115 11.0218 12.8765 10.9138 12.7891 10.8239C12.055 10.0502 11.3034 9.27651 10.5518 8.50283C10.4294 8.37689 10.2896 8.35889 10.1323 8.43086C10.0798 8.46685 10.0274 8.48484 9.97497 8.52083C9.50303 8.77272 9.03109 9.00662 8.55915 9.25852C8.50671 9.27651 8.45427 9.31249 8.38436 9.34848C9.62539 10.6619 10.8839 11.9394 12.1599 13.1989Z" fill="#FB982C" stroke="#FB982C" stroke-width="0.6"/>
</svg>
