<svg width="13" height="13" viewBox="0 0 13 13" fill="none" xmlns="http://www.w3.org/2000/svg">
    <g clip-path="url(#2sbl05me7a)">
        <path fill-rule="evenodd" clip-rule="evenodd" d="M6.489 0H.649C.433 0 .245.058.119.246c-.18.271-.151.543.088.785.797.802 1.598 1.6 2.395 2.4.655.656 1.304 1.312 1.966 1.962a.496.496 0 0 1 .165.39c-.007 2.193-.004 4.385-.004 6.577 0 .43.278.692.685.627a.606.606 0 0 0 .32-.162c.784-.775 1.562-1.558 2.343-2.337a.675.675 0 0 0 .2-.508c-.003-1.416 0-2.832-.003-4.251 0-.113.026-.197.113-.285 1.453-1.448 2.902-2.906 4.358-4.358.184-.18.31-.372.232-.643C12.89.149 12.684 0 12.347 0H6.49z" fill="#fff"/>
    </g>
    <defs>
        <clipPath id="2sbl05me7a">
            <path fill="#fff" transform="matrix(-1 0 0 1 13 0)" d="M0 0h13v13H0z"/>
        </clipPath>
    </defs>
</svg>
