<svg width="18" height="18" viewBox="0 0 22 18" fill="none" xmlns="http://www.w3.org/2000/svg">
<path d="M8.64558 16.913C8.74051 16.971 8.84811 17 8.96203 17C9.12026 16.9968 9.269 16.9323 9.37976 16.8162C9.58545 16.6002 9.60127 16.2745 9.43039 16.0391L9.43039 16.0262L3.21836 9.69973L20.3133 9.69973C20.693 9.69973 21.0032 9.38373 21.0032 8.99679C21.0032 8.60985 20.693 8.29707 20.3133 8.29385L3.21836 8.29385L9.37343 2.02863L9.37659 2.02541C9.48735 1.90932 9.54431 1.75777 9.54431 1.59332C9.54115 1.4321 9.47786 1.28055 9.36393 1.16769C9.16773 0.974218 8.87659 0.945197 8.65191 1.08063C8.56963 1.1032 8.49052 1.14834 8.42406 1.21283L1.29115 8.48087C1.27532 8.49699 1.2595 8.51311 1.24368 8.52924L1.15507 8.61952C1.05381 8.72271 1.00001 8.85814 1.00001 9.00001C1.00001 9.14512 1.05381 9.28055 1.15507 9.38051L1.23735 9.46434C1.25634 9.48691 1.27532 9.50626 1.29748 9.52561L8.42089 16.784C8.48735 16.8485 8.5633 16.8904 8.64558 16.913Z" fill="#FB982C" stroke="#FB982C" stroke-width="0.3"/>
</svg>
